/* XPM */
static char *date[] = {
/* width height num_colors chars_per_pixel */
"   120    13        8            1",
/* colors */
". c #103020",
"# c #966a0c",
"a c #b98304",
"b c #7e5a0c",
"c c #624a0c",
"d c #fcb104",
"e c #46360c",
"f c #2e4444",
/* pixels */
"...#aab.........cddd......#ddac.....eaaaaaa........ddddda.....aaaaab.......a#e......adddddddb.....cadd#.......#dddb.....",
"..ddddda........cddd....eaddddd#....cddddda......fcddddda....cddddda......eddde.....addddddd.....cddddda.....addddda....",
".ddddddda.....f.cddd.f..#ddddddd...fcdddddc....f..adddddaf...#ddddd#..f...#dddf..f..addddddd..f..dddaadde.f.#dddddddbf..",
"addddddddb......cddd....ddddadddb...eadddd..f....edddddda..f.adddaab......ddd#c...f.baaaddd#....fdda.cddc...ddddedddd...",
"dddaeeddda......cddd..f.dddb.ddd#....eddd#f......#ddbdddaf...dddae....f..cdddeda....f...dddc.....dddbddde...dddc.edddf..",
"ddd..fbdddf...f.cddd....addbbdddc..f.#dddae.f....ddd.ddda....dddddaf...f.adda#ddd......bddd..f..fbddddddf..fddddeaddd...",
"ddd...cddd......cddd....cdaeddddf....ebddda...f.bdddcddda...ec#dddd#.....dddbddddb.....adda......dddddddb...bdddcddd#...",
"dddb..#ddd......cddd.....ce#dddb.......cddde....adddcdddaf.....fdddd....cddd..dddaf....dddb.....bdda.cddaf...dddcddde...",
"ddddebddd#...f..cddd.f.....ddddf..f.f..#dddc....aa#aeddda...f...adddf.f.cddde.adda..f.cddde.f...addcf.ddd.....a#adddf...",
"bdddddddd.f...f.cddd......addddda...caaddddef..f.....dddaf..caaadddd.....ddddadddb....addd......bdda.cdda.......dddb...f",
".addddddc.......cddd.....eddddddaf..cddddda......f...ddda...cddddddc.....#ddddddd.....ddd#...f.fedddddddb......cddd.....",
"..#ddddc......f.cddd.f...adddddda...cddddae........f.ddda.f.cddddd#.......addddd...f.cdddc.......cddddda..f.f..cdda.f...",
"....#b.....f.....ccc.....bcccccce....#aac..f.f.......ccce...fcaab...f......eaac.......ccc.f....f...ba#e..........cc...f."
};
