/* XPM */
static char *led_xpm[] = {
/* width height num_colors chars_per_pixel */
"   180    13        4            1",
/* colors */
". c #333333",
"# c #b27e05",
"a c #644b0c",
"b c #fcb104",
/* pixels */
"...###a.........abbb......#bb#a.....a######........bbbbb#.....#####a.......##a......#bbbbbbba.....a#bb#.......#bbba.................................................................",
"..bbbbbb........abbb.....#bbbbb#....abbbbb#.......abbbbb#....abbbbb#......abbba.....#bbbbbbb.....abbbbb#.....#bbbbb#......a.........................................................",
".bbbbbbb#.......abbb....#bbbbbbb....abbbbba.......#bbbbb#....#bbbbb#......abb#......#bbbbbbb.....bbb##bba...#bbbbbbba...abbba.......................................................",
"#bbbbbbbba......abbb....bbbb#bbba...a#bbbb.......abbbbbb#....#bbb##a......bbb#a.....a###bbb#.....bb#.abba...bbbbabbbb...#bbb#.......................................................",
"bbb#.abbb#......abbb....bbba.bbb#.....bbb#.......abbabbb#....bbbb........abbb.b#........bbba.....bbbabbb....bbba.abbb...abbba.......................................................",
"bbb...abbb......abbb....#bb#abbba....#bbbb.......bbb.bbb#....bbbbb#......#bb##bbb......abbb......abbbbbb....#bbb.#bbb....a#a.........abba...#baab#............##....abaab#..........",
"bbb...abbb......abbb....ab#.bbbb.....aabbb#.....abbbabbb#...aa#bbbb#.....bbbabbbba.....#bb#......bbbbbbba...#bbbabbba....a#a.........bbbb...bbbbbb#..........bbbba.abbbbbb#.........",
"bbba..#bbb......abbb.....aa#bbba.......abbba....#bbbabbb#.......bbb#....abbb..bbb#.....bbba.....abb#.abb#....bbbabbba...#bbba.......ab##ba.ab##bab#.........ab##b#.ab##bab#.........",
"bbbbaabbb#......abbb.......bbbb........abbba....####abbb#.......#bbb....abbba.#bb#....abbba.....#bba..bbb.....###bbb....#bbb#.......ab##ba.ab##bab#.........ab#bba.ab##bab#.........",
"abbbbbbbb.......abbb......#bbbbb#...a##bbbb..........bbb#...a###bbbb.....bbbb#bbba....#bbb......abb#.abb#.......bbba....abbba.......abb#ba.ab##bab#.........ab##a..ab##bab#.........",
".#bbbbbba.......abbb.....abbbbbb#...abbbbb#..........bbb#...abbbbbba.....#bbbbbbb.....bbb#......abbbbbbba......abbb......a#.........ab##ba.ab##bab#.........ab#....ab##bab#.........",
"..#bbbba........abbb.....#bbbbbb#...abbbbb...........bbb#...abbbbb#.......#bbbbb.....abbba.......abbbbb#.......abb#.................ab##ba.ab##bab#.........ab#....ab##bab#.........",
"....aa...........aaa.....aaaaaaa.....###a............aaa.....a##a..........a##a.......aaa..........a##a..........aa................................................................."
};
