/* XPM */
static char * be_xpm[] = {
"60 40 3 1",
" 	c #000000000000",
".	c #FFFFFFFF0000",
"X	c #FFFF00000000",
"                    .....................XXXXXXXXXXXXXXXXXXX",
"                    .....................XXXXXXXXXXXXXXXXXXX",
"                    .....................XXXXXXXXXXXXXXXXXXX",
"                    .....................XXXXXXXXXXXXXXXXXXX",
"                    .....................XXXXXXXXXXXXXXXXXXX",
"                    .....................XXXXXXXXXXXXXXXXXXX",
"                    .....................XXXXXXXXXXXXXXXXXXX",
"                    .....................XXXXXXXXXXXXXXXXXXX",
"                    .....................XXXXXXXXXXXXXXXXXXX",
"                    .....................XXXXXXXXXXXXXXXXXXX",
"                    .....................XXXXXXXXXXXXXXXXXXX",
"                    .....................XXXXXXXXXXXXXXXXXXX",
"                    .....................XXXXXXXXXXXXXXXXXXX",
"                    .....................XXXXXXXXXXXXXXXXXXX",
"                    .....................XXXXXXXXXXXXXXXXXXX",
"                    .....................XXXXXXXXXXXXXXXXXXX",
"                    .....................XXXXXXXXXXXXXXXXXXX",
"                    .....................XXXXXXXXXXXXXXXXXXX",
"                    .....................XXXXXXXXXXXXXXXXXXX",
"                    .....................XXXXXXXXXXXXXXXXXXX",
"                    .....................XXXXXXXXXXXXXXXXXXX",
"                    .....................XXXXXXXXXXXXXXXXXXX",
"                    .....................XXXXXXXXXXXXXXXXXXX",
"                    .....................XXXXXXXXXXXXXXXXXXX",
"                    .....................XXXXXXXXXXXXXXXXXXX",
"                    .....................XXXXXXXXXXXXXXXXXXX",
"                    .....................XXXXXXXXXXXXXXXXXXX",
"                    .....................XXXXXXXXXXXXXXXXXXX",
"                    .....................XXXXXXXXXXXXXXXXXXX",
"                    .....................XXXXXXXXXXXXXXXXXXX",
"                    .....................XXXXXXXXXXXXXXXXXXX",
"                    .....................XXXXXXXXXXXXXXXXXXX",
"                    .....................XXXXXXXXXXXXXXXXXXX",
"                    .....................XXXXXXXXXXXXXXXXXXX",
"                    .....................XXXXXXXXXXXXXXXXXXX",
"                    .....................XXXXXXXXXXXXXXXXXXX",
"                    .....................XXXXXXXXXXXXXXXXXXX",
"                    .....................XXXXXXXXXXXXXXXXXXX",
"                    .....................XXXXXXXXXXXXXXXXXXX",
"                    .....................XXXXXXXXXXXXXXXXXXX"};
