/* XPM */
static char * dk_xpm[] = {
"60 40 2 1",
" 	c #FFFF00000000",
".	c #FFFFFFFFFFFF",
"             ....                                           ",
"             ....                                           ",
"             ....                                           ",
"             ....                                           ",
"             ....                                           ",
"             ....                                           ",
"             ....                                           ",
"             ....                                           ",
"             ....                                           ",
"             ....                                           ",
"             ....                                           ",
"             ....                                           ",
"             ....                                           ",
"             ....                                           ",
"             ....                                           ",
"             ....                                           ",
"             ....                                           ",
"............................................................",
"............................................................",
"............................................................",
"............................................................",
"............................................................",
"             ....                                           ",
"             ....                                           ",
"             ....                                           ",
"             ....                                           ",
"             ....                                           ",
"             ....                                           ",
"             ....                                           ",
"             ....                                           ",
"             ....                                           ",
"             ....                                           ",
"             ....                                           ",
"             ....                                           ",
"             ....                                           ",
"             ....                                           ",
"             ....                                           ",
"             ....                                           ",
"             ....                                           ",
"             ....                                           "};
