/* XPM */
static char * gkb_xpm[] = {
"57 50 3 1",
" 	c None",
".	c #000000",
"+	c #FFFFFF",
"++++++.............................................++++++",
"++++....++++++++++++++++++++++++++++++++++++++++++....+++",
"+++..+++++.......................................++++..++",
"++..+++++..++++++++++++++++++++++++++++++++++++...++++..+",
"+..+++++.++++++++++++++++++++++++++++++++++++++++..++++.+",
"+.+++++..+++++++++++++++++++++++++++++++++++++++++.++++.+",
"+.+++++.++++++++++++++++++++++++++++++++++++++++++.++++.+",
"+.+++++.++++++++++++++++++++++++++++++++++++++++++.++++.+",
"+.+++++.++++++++++++++++++++++++++++++++++++++++++.++++.+",
"+.+++++.+++++++++++++++++++....+++++++++++++++++++.++++.+",
"+.+++++.++++++++++++++++...........+++++++++++++++.++++.+",
"+.+++++.++++++++++++++...............+++++++++++++.++++.+",
"+.+++++.+++++++++++++.................++++++++++++.++++.+",
"+.+++++.++++++++++++......+++++++......+++++++++++.++++.+",
"+.+++++.+++++++++++.....+++++++++++.....++++++++++.++++.+",
"+.+++++.++++++++++.....+++++++++++++...+++++++++++.++++.+",
"+.+++++.+++++++++.....+++++++++++++++.++++++++++++.++++.+",
"+.+++++.+++++++++....+++++++++++++++++++++++++++++.++++.+",
"+.+++++.+++++++++....+++++++++++++++++++++++++++++.++++.+",
"+.+++++.++++++++....++++++++++++++++++++++++++++++.++++.+",
"+.+++++.++++++++....++++++++++++++++++++++++++++++.++++.+",
"+.+++++.++++++++....++++++++++............++++++++.++++.+",
"+.+++++.++++++++....++++++++++.............+++++++.++++.+",
"+.+++++.++++++++....++++++++++.............+++++++.++++.+",
"+.+++++.++++++++....++++++++++.............+++++++.++++.+",
"+.+++++.++++++++....+++++++++++++++++++...++++++++.++++.+",
"+.+++++.+++++++++...++++++++++++++++++....++++++++.++++.+",
"+.+++++.+++++++++....+++++++++++++++++....++++++++.++++.+",
"+.+++++.+++++++++....++++++++++++++++....+++++++++.++++.+",
"+.+++++.++++++++++....++++++++++++++.....+++++++++.++++.+",
"+.+++++.++++++++++.....++++++++++++.....++++++++++.++++.+",
"+.+++++.+++++++++++......++++++++......+++++++++++.++++.+",
"+.+++++.++++++++++++..................++++++++++++.++++.+",
"+.+++++.+++++++++++++................+++++++++++++.++++.+",
"+.+++++.+++++++++++++++.............++++++++++++++.++++.+",
"+.+++++.++++++++++++++++++.......+++++++++++++++++.++++.+",
"+.+++++.++++++++++++++++++++++++++++++++++++++++++.++++.+",
"+.+++++.++++++++++++++++++++++++++++++++++++++++++.++++.+",
"+.+++++..+++++++++++++++++++++++++++++++++++++++++.++++.+",
"+.++++++.++++++++++++++++++++++++++++++++++++++++..++++.+",
"+.+++++++.........................................+++++.+",
"+.+++++++++.....................................+++++++.+",
"+.+++++++++++++++++++++++++++++++++++++++++++++++++++++.+",
"+.+++++++++++++++++++++++++++++++++++++++++++++++++++++.+",
"+.+++++++++++++++++++++++++++++++++++++++++++++++++++++.+",
"+.+++++++++++++++++++++++++++++++++++++++++++++++++++++.+",
"+..+++++++++++++++++++++++++++++++++++++++++++++++++++..+",
"++..++++++++++++++++++++++++++++++++++++++++++++++++++.++",
"++....+++++++++++++++++++++++++++++++++++++++++++++....++",
"++++.................................................++++"};
