/* XPM */
static char * hu_xpm[] = {
"60 40 24 1",
" 	c None",
".	c #FF0000",
"+	c #E30000",
"@	c #720000",
"#	c #1D0000",
"$	c #390000",
"%	c #550000",
"&	c #AA0000",
"*	c #8E0000",
"=	c #C70000",
"-	c #000000",
";	c #FFFFFF",
">	c #AAAAAA",
",	c #555555",
"'	c #1D1D1D",
")	c #009600",
"!	c #006400",
"~	c #003200",
"{	c #007500",
"]	c #008500",
"^	c #002100",
"/	c #001100",
"(	c #004300",
"_	c #005300",
"............................................................",
"............................................................",
"............................................................",
"............................................................",
"............................................................",
"..............+@#$%%%%%%%%%%%%%%%%%%%%%%%$$@+...............",
".............&#*..*%%%%%%%%%%%%%%%%%%%%%%&.=#=..............",
".............$+.+$=......................*@.+$..............",
"............&*..@=........................$..%..............",
"............&&..%.........................%..%..............",
"............&&..%.......=&=.....=&=.......%..%..............",
"............&&..%.......%-%.....%-%.......%..%..............",
"............&&..%.......%-%.....%-%.......%..%..............",
";;;;;;;;;;;;>>;;,;;;;;;;,-,;;;;;,-,;;;;;;;,;;,;;;;;;;;;;;;;;",
";;;;;;;;;;;;>>;;,;;;;;;;,-,;;;;;,-,;;;;;;;,;;,;;;;;;;;;;;;;;",
";;;;;;;;;;;;>>;;,;;;;;;;,-,;;;;;,-,;;;;;;;,;;,;;;;;;;;;;;;;;",
";;;;;;;;;;;;>>;;,;;;;;;;,-,;;;;;,-,;;;;;;;,;;,;;;;;;;;;;;;;;",
";;;;;;;;;;;;>>;;,;;;;;;;,-',,,,,'-,;;;;;;;,;;,;;;;;;;;;;;;;;",
";;;;;;;;;;;;>>;;,;;;;;;;,---------,;;;;;;;,;;,;;;;;;;;;;;;;;",
";;;;;;;;;;;;>>;;,;;;;;;;,-',,,,,'-,;;;;;;;,;;,;;;;;;;;;;;;;;",
";;;;;;;;;;;;>>;;,;;;;;;;,-,;;;;;,-,;;;;;;;,;;,;;;;;;;;;;;;;;",
";;;;;;;;;;;;>>;;,;;;;;;;,-,;;;;;,-,;;;;;;;,;;,;;;;;;;;;;;;;;",
";;;;;;;;;;;;>>;;,;;;;;;;,-,;;;;;,-,;;;;;;;,;;,;;;;;;;;;;;;;;",
";;;;;;;;;;;;>>;;,;;;;;;;,-,;;;;;,-,;;;;;;;,;;,;;;;;;;;;;;;;;",
";;;;;;;;;;;;>>;;,;;;;;;;,-,;;;;;,-,;;;;;;;,;;,;;;;;;;;;;;;;;",
";;;;;;;;;;;;>>;;,;;;;;;;,-,;;;;;,-,;;;;;;;,;;,;;;;;;;;;;;;;;",
"))))))))))))!!))~))))))){!{))))){!{)))))))~))~))))))))))))))",
"))))))))))))!!))~]))))))))))))))))))))))))~))~))))))))))))))",
"))))))))))))!!)){~)))))))))))))))))))))))]^))~))))))))))))))",
"))))))))))))!!)))!^~~~~~~~~~~~~~~~~~~~~~/^]))~))))))))))))))",
"))))))))))))!!)))))))))))))))))))))))))))))))~))))))))))))))",
"))))))))))))!!)))))))))))))))))))))))))))))))~))))))))))))))",
")))))))))))){()))))))))))))))))))))))))))))))^))))))))))))))",
")))))))))))))^_))))))))))))))))))))))))))))]~_))))))))))))))",
")))))))))))))](/~~~~~~~~~~~~~~~~~~~~~~~~~~^^_)))))))))))))))",
"))))))))))))))))))))))))))))))))))))))))))))))))))))))))))))",
"))))))))))))))))))))))))))))))))))))))))))))))))))))))))))))",
"))))))))))))))))))))))))))))))))))))))))))))))))))))))))))))",
"))))))))))))))))))))))))))))))))))))))))))))))))))))))))))))",
"))))))))))))))))))))))))))))))))))))))))))))))))))))))))))))"};
