/* XPM */
static char * it_xpm[] = {
"60 40 3 1",
" 	c #FFFF00000000",
".	c #FFFFFFFFFFFF",
"X	c #0000FFFF0000",
"                    .....................XXXXXXXXXXXXXXXXXXX",
"                    .....................XXXXXXXXXXXXXXXXXXX",
"                    .....................XXXXXXXXXXXXXXXXXXX",
"                    .....................XXXXXXXXXXXXXXXXXXX",
"                    .....................XXXXXXXXXXXXXXXXXXX",
"                    .....................XXXXXXXXXXXXXXXXXXX",
"                    .....................XXXXXXXXXXXXXXXXXXX",
"                    .....................XXXXXXXXXXXXXXXXXXX",
"                    .....................XXXXXXXXXXXXXXXXXXX",
"                    .....................XXXXXXXXXXXXXXXXXXX",
"                    .....................XXXXXXXXXXXXXXXXXXX",
"                    .....................XXXXXXXXXXXXXXXXXXX",
"                    .....................XXXXXXXXXXXXXXXXXXX",
"                    .....................XXXXXXXXXXXXXXXXXXX",
"                    .....................XXXXXXXXXXXXXXXXXXX",
"                    .....................XXXXXXXXXXXXXXXXXXX",
"                    .....................XXXXXXXXXXXXXXXXXXX",
"                    .....................XXXXXXXXXXXXXXXXXXX",
"                    .....................XXXXXXXXXXXXXXXXXXX",
"                    .....................XXXXXXXXXXXXXXXXXXX",
"                    .....................XXXXXXXXXXXXXXXXXXX",
"                    .....................XXXXXXXXXXXXXXXXXXX",
"                    .....................XXXXXXXXXXXXXXXXXXX",
"                    .....................XXXXXXXXXXXXXXXXXXX",
"                    .....................XXXXXXXXXXXXXXXXXXX",
"                    .....................XXXXXXXXXXXXXXXXXXX",
"                    .....................XXXXXXXXXXXXXXXXXXX",
"                    .....................XXXXXXXXXXXXXXXXXXX",
"                    .....................XXXXXXXXXXXXXXXXXXX",
"                    .....................XXXXXXXXXXXXXXXXXXX",
"                    .....................XXXXXXXXXXXXXXXXXXX",
"                    .....................XXXXXXXXXXXXXXXXXXX",
"                    .....................XXXXXXXXXXXXXXXXXXX",
"                    .....................XXXXXXXXXXXXXXXXXXX",
"                    .....................XXXXXXXXXXXXXXXXXXX",
"                    .....................XXXXXXXXXXXXXXXXXXX",
"                    .....................XXXXXXXXXXXXXXXXXXX",
"                    .....................XXXXXXXXXXXXXXXXXXX",
"                    .....................XXXXXXXXXXXXXXXXXXX",
"                    .....................XXXXXXXXXXXXXXXXXXX"};
