/* XPM */
static char * us_xpm[] = {
"60 40 49 1",
" 	c None",
".	c #0000FF",
"+	c #FE4545",
"@	c #FD4444",
"#	c #FE4A4A",
"$	c #FE6F6F",
"%	c #2525FF",
"&	c #6464FF",
"*	c #FE0101",
"=	c #FE0606",
"-	c #E2E2FF",
";	c #4A4AFF",
">	c #7F7FFF",
",	c #C9C9FF",
"'	c #FEFEFF",
")	c #1212FF",
"!	c #5656FF",
"~	c #7171FF",
"{	c #3737FF",
"]	c #FEFEFE",
"^	c #FDFDFD",
"/	c #3131FF",
"(	c #D4D4FF",
"_	c #EFEFFF",
":	c #9696FF",
"<	c #FE4040",
"[	c #FE5A5A",
"}	c #FE0000",
"|	c #3434FF",
"1	c #6F6FFF",
"2	c #E4E4FF",
"3	c #AEAEFF",
"4	c #1B1BFF",
"5	c #8282FF",
"6	c #AAAAFF",
"7	c #5353FF",
"8	c #BFBFFF",
"9	c #3F3FFF",
"0	c #3838FF",
"a	c #E8E8FF",
"b	c #F6F6FF",
"c	c #2A2AFF",
"d	c #C0C0FF",
"e	c #0909FF",
"f	c #FE5050",
"g	c #FE8484",
"h	c #FE0202",
"i	c #FE1111",
"j	c #FE5757",
"...............................++++++++++++++++++++++++++@#$",
"........%&&%............%&&%...****************************=",
"........&--&..;>;.......&--&...****************************=",
"...;>;..&--&..,',.......&--&...+++++++++++++++++++++++++++#$",
"...,',..%&&%..,',..)!~{.%&&%...]]]]]]]]]]]]]]]]]]]]]]]^^]]]^",
"...,',........;>;../(_:........]]]]]]]]]]]]]]]]]]]]]]]]]]]]]",
"...;>;..)!~{.%&&%../(_:..{~!)..<<<<<<<<<<<<<<<<<<<<<<<<<<<<[",
"......../(_:.&--&..)!~{..:_(/..}}}}}}}}}}}}}}}}}}}}}}}}}}}}}",
"...;>;../(_:.&--&....;>;.:_(/..}}}}}}}}}}}}}}}}}}}}}}}}}}}}}",
"...,',..)!~{.%&&|//).,',.{~!)..<<<<<<<<<<<<<<<<<<<<<<<<<<<<[",
"...,',..........!((!.,',.......]]]]]]]]]]]]]]]]]]]]]]]]]]]]]",
"...;>;..........~__~.;>;.......]]]]]]]]]]]]]]]]]]]]]]]]]]]]]",
"..........123%..{::{..)!~{.....]]]]]]]]]]]]]]]]]]]]]]]]]]]]]",
"...4567...8''9.....%9%/(_:.....]]]]]]]]]]]]]]]]]]]]]]]]]]]]]",
"...0ab6...123%.....3'3/(_:.....+++++++++++++++++++++++++++#$",
"...cda5............2'2)!~{.....****************************=",
"...ec04.%&&%...)!~{181....;>;..****************************=",
"........&--&.../(_:.......,',..+++++++++++++++++++++++++++#$",
"........&--&.../(_:.......,',..]]]]]]]]]]]]]]]]]]]]]]]]]]]]]",
"........%&&%...)!~{.......;>;..]]]]]]]]]]]]]]]]]]]]]]]]]]]]]",
"]]]]]]]]]]]]]]]]]]]]]]]]]]]]]]]]]]]]]]]]]]]]]]]]]]]]]]]]]]]]",
"]]]]]]]]]]]]]]]]]]]]]]]]]]]]]]]]]]]]]]]]]]]]]]]]]]]]]]]]]]]]",
"f+++++++++++++++++++++++++++++++++++++++++++++++++++++++++fg",
"**********************************************************hi",
"**********************************************************hi",
"f+++++++++++++++++++++++++++++++++++++++++++++++++++++++++fg",
"]]]]]]]]]]]]]]]]]]]]]]]]]]]]]]]]]]]]]]]]]]]]]]]]]]]]]]]]]]]]",
"]]]]]]]]]]]]]]]]]]]]]]]]]]]]]]]]]]]]]]]]]]]]]]]]]]]]]]]]]]]]",
"]]]]]]]]]]]]]]]]]]]]]]]]]]]]]]]]]]]]]]]]]]]]]]]]]]]]]]]]]]]]",
"]]]]]]]]]]]]]]]]]]]]]]]]]]]]]]]]]]]]]]]]]]]]]]]]]]]]]]]]]]]]",
"j+++++++++++++++++++++++++++++++++++++++++++++++++++++++++#$",
"h**********************************************************=",
"h**********************************************************=",
"j+++++++++++++++++++++++++++++++++++++++++++++++++++++++++#$",
"]]]]]]]]]]]]]]]]]]]]]]]]]]]]]]]]]]]]]]]]]]]]]]]]]]]]]]]]]]]]",
"]]]]]]]]]]]]]]]]]]]]]]]]]]]]]]]]]]]]]]]]]]]]]]]]]]]]]]]]]]]]",
"j+++++++++++++++++++++++++++++++++++++++++++++++++++++++++#$",
"h**********************************************************=",
"h**********************************************************=",
"j+++++++++++++++++++++++++++++++++++++++++++++++++++++++++#$"};
