/* XPM */
static char *_57chevy[] = {
/* width height num_colors chars_per_pixel */
"   220    27       45            1",
/* colors */
". c #000000",
"# c #525252",
"a c #393939",
"b c #080808",
"c c #181818",
"d c #212121",
"e c #636363",
"f c #848484",
"g c #949494",
"h c #292929",
"i c #101010",
"j c #6b6b6b",
"k c #4a4a4a",
"l c #7b7b7b",
"m c #8c8c8c",
"n c #9c9c9c",
"o c #5a5a5a",
"p c #424242",
"q c #737373",
"r c #313131",
"s c #d6d6d6",
"t c #efefef",
"u c #e7e7e7",
"v c #bdbdbd",
"w c #b5b5b5",
"x c #c6c6c6",
"y c #cecece",
"z c #adadad",
"A c #a5a5a5",
"B c #c5c5c5",
"C c #dedede",
"D c #081008",
"E c #292121",
"F c #ada5a5",
"G c #212129",
"H c #313139",
"I c #7b7373",
"J c #6d6d6d",
"K c #736b6b",
"L c #393139",
"M c #100810",
"N c #080810",
"O c #161616",
"P c #191919",
"Q c #101008",
/* pixels */
"............................................................................................................................................................................................................................",
"#...................#...................#...................#...................#...................#...................#...................#...................a...................#...................#...................",
"#.bbbbb.....bbbbbb..#.bbbbbb...bbbbbbb..#.bbbbb.....bbbbbb..#.bbbbb......bbbbb..#.bbbbbbbbb..bbbbb..#.bbb.........bbbb..#.bbbbb......bbbbb..#.bbb...........bb..a.bbbbb.....bbbbbb..#.bbbbb.....bbbbbb..#.bbbbbb.b.bbbbbbb..",
"#.cccbdefgfehbcicib.#.iiiiibhjkiiiiiii..#.cicbi#lmmjhbiicib.#bicibdemnnfohbicib.#.cicicicbd#piiiic..#.ciiplffmgmmjcicib.#biciibkfnnlpiiicib.#.iidaaaaaaaaaahii..abcccbipelqeriiicib.#.ccibc#qflehbiicib.#.ibiibiiibiiiibii..",
"#icciestttttuqccccb.#bccccccvtt#icccccb.#bccipwtttttuqicccb.#bcciestttttts#iccb.#bcccccciaxttgicccb.#bccdyttttttttqiccb.#bcccdgttttttzriccb.#bceutttttttttttlcb.abcci#vttttttAriccb.#iccioytttttufccccb.#bccccciciicicccccb.",
"#ihcftttttttttAdddb.#ihddcdgtttgcdddddb.#ihcetttttttttgdddb.#ihclttttttttttechb.#ihdhdhcasttttochdb.#ihc#tttttttttncddb.#ihdhBttttttttC#ddb.#Dhuttttttttttttuh..aiEdmtttttttttC#ddb.#iddmtttttttttzdddb.#ihddccccccccdddddb.",
"#chettttszxttttnhrb.#crhagsttttAhhrrrrb.#chputttyzxttttqhrb.#chputttAjlxttttkhb.#crrhrhrxtttttgdrrb.#crdmttuvwvvvAkhrrb.#crdntttsgfztttuphb.#chmutttttttttttAhb.acdjttttzfgytttukhb.#chfttttvAwttttnhri.#crhahhhhhhhhhrrrrb.",
"#dpstttvahrfttttjri.#cahnttttttFrrarrri.#drltttyahrztttspri.#drjtttwhhGpstttlri.#daraahgttttttAhHai.#darvttwrrrrrhrarai.#drktttu#dhhgttteri.#dahklfflfqztttukri.adavtttgdhdpstttfri.#c#ttttnrhhltttteri.#cappppppppprrarrri.",
"#dmtttCkappaztttwai.#hpawttttttzapppppi.#hagtttfrpa#utttjai.#hpjttteappaAtttmai.#hpppaltttutttAappi.#hp#uttmrpapppppppi.#hagtttmraaaanuwkpi.#dkpprarah#stttjapi.ad#tttt#appantttgai.#dgtttxppppaAtttAai.#hpappppappaapppppi.",
"#rxtttnk####oCttuei.#ro#jzvstttwk#####c.#r#lttCo####stttfkc.#r#oAyn####kxtttmkc.#ro##mtttxgtttzk##c.#r#ltttj#qlj####o#c.#reCttuqlmmloko###c.#ro######estttnk##c.aroyttte###kwtttmkc.#hwtttgk####outtsoi.#ro###############c.",
"#kutttfqqqqqjxtttmc.#kIqjjegtttxjqqqqqd.#kljzygqqqqlutttgjd.#klqjqjqqqqAtttulqd.#kljlutttlgtttvjqqd.#kqAttuACtttxmjqqqd.#pgtttuCttttuAjjqqd.#kIqqqqqjytttCqqqqd.akjztttvqqjmuttulqd.#kxtttgjqqqqqutttld.#kIqjjeqqqqqqqqqqqd.",
"#ltttuzzzzzzAstttxh.#jwzFzAvtttsAFzzzzh.#qwzAAAzzzAytttCzzr.#qwAzAzAvCttttszzzh.#qzzutttvAxtttyAzzh.#qzsttttttttttsAzzh.#Jytttttttttttuwzzr.#qwzzzzAxttttwAzzzh.aqwzstttuuutttuwzzr.#jstttsAzzzAxttttwh.#jwzFzvvzzzzAFzzzzh.",
"kotttsqqqqqqjwtttAc.#klqqqjgtttvjqqqqqd.#klqqqqqKjAttttmqqd.#klqqqqjvttttuAjqqd.#klytttwjjntttvjqqd.#kqvttttuutttttwqqd.#pwtttttuysttttCfqd.#kIqqqqlCtttnjqqqqd.akljwtttttttttClqqd.#kAttttAjjqgtttttmc.#klqqqjqqqqqjqqqqqd.",
"#ktttseeeeeeoztttni.#aeeeeomtttvoeeeeec.#aeeeeeoevttttzoeec.#ajeeeeolstttttwoec.#rztttyeeogtttzoeec.#aefttCgjeqvttttfoc.#rzttttsqeolutttzoc.#ajeeeontttyoeeeeec.apomtttttttttttsjec.#aexttttyvxttttttlc.#aeeeeoqqqqqoeeeeec.",
"#ptttCo#o#o#kztttgi.#ro###kltttw######c.#aoo#okexttttvo##oc.#ro####o#oqgutttm#c.#aCttsj###ltttzk##c.#Lo#lmek###oytttz#c.#hnttttmk#okluttsoc.#ro####ytttm####o#c.arjCtttwqoegCtttA#c.#a#jCttttttttttttji.#ro###eeeeee######c.",
"#rstttopkkkkpvtttqb.#rkkkkpltttzpkkkkki.#hkkkpqCtttumkpkkki.#rkkeopkkkpamtttxki.#atttCvxxxstttCxz#i.#hkojkpkkkkpltttvpi.#dmtttCkkkkkpvttu#i.#rkkkpqtttskkkkkkki.adgtttvppkkajCttski.#h#peyttttttsuttu#i.#rkkkkp#o#o#pkkkkki.",
"#dvtttgapppppCttt#i.#dppppaqtttzaappppi.#hppagttttCerpppppi.#hpgtujapppaotttspi.#huttttttttttttttlb.#doCtzappppaetttwpi.#djtttBpppppazttuki.#dpppaxtttnrppppppi.adwtttqapkppawttt#i.#hpaapenvvnjkCttxpi.#dppppapkkkkaappppi.",
"#cgtttyaaaarltttyai.#dpaaarjtttAraaaaai.#dprqttttw#haaaaaai.#c#tttspraarftttypb.#clsttttttttttttteb.#clttteraaahgtttzri.#dkCttCpaaaaayttCpb.#dpaaottttjraaaaaai.acztttlhaaaarvtttkb.#daexAphaarhltttAri.#dpaaarappppraaaaai.",
"#ckutttfhhd#Ctttmhb.#crrrrhjtttzrrrrrrb.#cr#uttufrraaarrrri.#ckutttzarhoCtttwri.#draelllllAtttvjori.#cetttyahhhjutttqhb.#chltttnhhhhntttwri.#carhfttttkrrrrrarD.aigtttyphrhhltttsai.#casttypErhpsttterb.#crrrrhljjjlrrrrrrb.",
"#cdqttttzlgCtttsahi.#crrrhhotttAdhrrrrb.#chztttCvxxxysygrrb.#chmttttswvtttttedb.#crhhddddcjtttmihrb.#crxtttsggzttttwhhi.#crrstttwoovttttedb.#crhdntttCahrrrrrrM.aikttttslkewttttgdb.#crxtttsjreytttnhhi.#crrrhhotttAdhrrrrb.",
"#chhvtttttttttukdhb.#ihhhhd#tttndhhhhhb.#iptttttttttttttlcb.#chryttttttttttfdhb.#ihhhhhhhdjtttmchhb.#idkutttttttttyadhb.#chdettttttttttmdhb.#ihhdztttyhhhhhhhhb.acdqtttttttttttvrhb.#cdetttttuttttsadhb.#ihhhhd#tttndhhhhhb.",
"#ihdrzttttttts#cddb.#idddddrCttlidddddb.#idnttttttttttttqcb.#idcazuttttttxecddb.#ihddddddcptttecddb.#ihcpwutttttunrcddb.#iddceyttttttCqcddb.#iddcltttfcdddddddb.aidceytttttttumdddb.#idcestttttttxpcddb.#idddddrCttlidddddb.",
"#bdccckgCtuwjhidddb.#bdccccikzgdccccccb.#iccpjlllllljjqohcb.#bddccajmAgqkdidcdb.#icdcdddddiqCAcccdb.#bdcicajgnmerccdddb.#bdddidonBsAjricddb.#bddccmCgdccdcdcdcb.aidcidkfvyynjaiccdb.#idcihoAuuuzodidddb.#bdccccikzgdccccccb.",
"#bcccciidrhcbcccccb.#bcccccciiiicccccc..#bccibbbbbbbibibccb.#bcccciibibbiicccc..#bcccccccccidicccc..#bccccibbibNiccccc..#bccccOibdPibiccccb.#bccccidiicccccccc..abcccciiidcibiccccb.#bccciiihrhibcccccb.#bcccccciiiicccccc..",
"#.iiiiiibbbiiiiiii..#.iiiiiiiiQiiiiiii..#.iiiiiiiiiiiiiiii..#.iiiiiiiiiiiiiiii..#.iiiiiiiiiiiiiiii..#.iiiiiiiiiiiiiiii..#.iiiiiiiibiiiiiii..#.iiiiMDiiiiiiiiii..a.iiiiiiibiiiiiiii..#.iiiiiibbiiiiiiii..#.iiiiiiiiQiiiiiii..",
"oeqqjqjqqqqqjqqjqqp.ooqjjjjjjjjjjjjjjqp.oeqjqjqjqjqjKqjqjqp.oeqjqjqjqjqjqjqjqqp.oeqjqjjjjjqjjqjqjqp.oeqjqjqqjqjqjqjjjqp.oeqjqJqjqJqJqqjqqqp.oeqjjjqjqjqjjjjjjqp.pkoo#oo#oo#ooo#oooh.oeqqqqjqqqjqjqqjqqp.ooqjjjjjjjjjjjjjjqp.",
"............................................................................................................................................................................................................................"
};
