/* XPM */
static char * B_xpm[] = {
"165 20 65 1",
" 	c None",
".	c #585C58",
"+	c #606460",
"@	c #686868",
"#	c #707070",
"$	c #585858",
"%	c #484848",
"&	c #383838",
"*	c #202420",
"=	c #181818",
"-	c #181C18",
";	c #282828",
">	c #282C28",
",	c #202020",
"'	c #080C08",
")	c #303430",
"!	c #606060",
"~	c #101410",
"{	c #505050",
"]	c #383C38",
"^	c #808480",
"/	c #909090",
"(	c #707470",
"_	c #303030",
":	c #F8FCF8",
"<	c #989C98",
"[	c #C8C8C8",
"}	c #404040",
"|	c #787878",
"1	c #F0F0F0",
"2	c #B8BCB8",
"3	c #484C48",
"4	c #D0D4D0",
"5	c #686C68",
"6	c #404440",
"7	c #909490",
"8	c #E0E4E0",
"9	c #E0E0E0",
"0	c #101010",
"a	c #A0A0A0",
"b	c #B8B8B8",
"c	c #D0D0D0",
"d	c #A8A8A8",
"e	c #888888",
"f	c #C0C4C0",
"g	c #B0B4B0",
"h	c #A0A4A0",
"i	c #E8ECE8",
"j	c #C0C0C0",
"k	c #080808",
"l	c #F0F4F0",
"m	c #C8CCC8",
"n	c #F8F8F8",
"o	c #D8DCD8",
"p	c #B0B0B0",
"q	c #000400",
"r	c #787C78",
"s	c #E8E8E8",
"t	c #000000",
"u	c #808080",
"v	c #D8D8D8",
"w	c #888C88",
"x	c #A8ACA8",
"y	c #505450",
"z	c #989898",
".+@#$%&*====-;>.+@#$%&*====-;>.+@#$%&*====-;>.+@#$%&*====-;>.+@#$%&*====-;>.+@#$%&*====-;>.+@#$%&*====-;>.+@#$%&*====-;>.+@#$%&*====-;>.+@#$%&*====-;>.+@#$%&*====-;>",
"+=-,,,,,,,,,-')+=-,,,,,,,,,-')+=-,,,,,,,,,-')+=-,,,,,,,,,-')+=-,,,,,,,,,-')+=-,,,,,,,,,-')+=-,,,,,,,,,-')+=-,,,,,,,,,-')+=-,,,,,,,,,-')+=-,,,,,,,,,-')+=-,,,,,,,,,-')",
"!-,,,,,,,,,,,~)!-,,,,,,,,,,,~)!-,,,,,,,,,,,~)!-,,,,,,,,,,,~)!-,,,,,,,,,,,~)!-,,,,,,,,,,,~)!-,,,,,,,,,,,~)!-,,,,,,,,,,,~)!-,,,,,,,,,,,~)!-,,,,,,,,,,,~)!-,,,,,,ttttt~)",
"{-,**]^/(_**,~){-,****]::**,~){-,*]<[[/}**,~){-,*********,~){-,*********,~){-,*********,~){-,*********,~){-,*********,~){-,*3b::4@**,~){-,*********,~){-~tttttttttt~)",
"{,**|::::1{,='&{,***;)2::;,='&{,*31::::1{,='&{,**.2::45;,='&{,***;;|[[|,='&{,**/77777|,='&{,***78:87),='&{,*//777777(='&{,*31:::::^,='&{,**}a[[^);,='&{,0tttttttttt'&",
"6*;6::[78:9=~0&6*;;|[::::-=~0&6*;4:8554:9=~0&6*;!::::::+=~0&6*;;>>&1::w=~0&6*;&::::::f=~0&6*;;2:::::<=~0&6*;::::::::f~0&6*;x:46;x:9=~0&6*;{1::::4>=~0&6*ktttttttttt0&",
"%>>a:8,-)::.~0&%>>>7:::::~~~0&%>6::|,-!::}~0&%>>2:b>;9:c~~0&%>>>;*d:::e~~0&%>>!:8/wwe5~~0&%>>!::(-w::*~0&%>>77//wz::e~0&%>>[:/,-{::~~0&%>>jlo!!i:e~~0&%>tttttttttqq0&",
"}**[:d~~~9:e~0&}***-=~e::~~~0&}*{[f6~~{::3~0&}**::{~~e::~~0&}***-6:h::e~~0&}**@:d~~~~~~~0&}**x:f~~*33,~0&}***-=~~g:g~~0&}**/:9_~h:p~~0&}*}11.~~@:9~~0&}*ttttttttttt0&",
"_==1:e~~~f:g~0&_===~~~e::~~~0&_===~~~~h::,~0&_=={{*~~h:c~~0&_===~fi_::e~~0&_==en^_3_~~~~0&_==f:e3e|_~~~0&_===~~~@ni,~~0&_==*2llll4]~~0&_={113~~3n:,~0&_=ttttttttttt0&",
";~~::e~~~f:f0'&;~~~~~~e::~~0'&;~~~~~~|::h~0'&;~~~~~eh:i3~0'&;~~~@n^~nn^~0'&;~~/14111x,~0'&;~~::innni@~0'&;~~~~~,9i@~~0'&;~~%osssssz~0'&;~]11@~~@ln30'&;~ttttttttttt'&",
"_0~::e~~~f:j'k&_0~~~~~^ll00'k&_0~~~,allm,0'k&_0~~~~::no]0'k&_0~,44,~11u0'k&_0~b11ff11<0'k&_0~lllx^8l8-'k&_0~~~~r8m~00'k&_0~v82,~788&'k&_0~414$$9ii%'k&_0tttttttttttk&",
"_k'1:e000j:pqq&_k'0000r88kqqq&_k'0>jssh-kqqq&_k'0003+414qqq&_k'rs+00iirqqq&_k'+ry00hss~qq&_k'11b00%11.qq&_k'000v85'kqqq&_k69o600-99(qq&_k'$iiss8ss}qq&_ktttttttttttq&",
")tqj:aqqqo:utt&)tqqkqq#vvtttt&)tq~499$qqtttt&)t~66~qq311]tt&)tqp8xxx88[utt&)tqqkqqq&oo&tt&)tqms|qqqss(tt&)tqqk3880qtttt&)t&vv%qq0vv!tt&)tqq_/dwy99-tt&)tqttttttttttt&",
"&ttw:ott,::{tt)&tttttt5vvtttt)&tthoo;ttttttt)&t]l1]tt&ss&tt)&ttx8999999dtt)&t-55-tt)vv;tt)&tt<9rtt'99ytt)&tttteogtttttt)&ttmvp''evv=tt)&ttttttt{vmttt)&ttttttttttttt)",
"&tt,::2uo:ottt)&tttttt5vvtttt)&t=vvvvvvvv)tt)&ttv9d''g94ttt)&tt;&)))vve;tt)&t'v45tt/4[ttt)&tt{om)teoo-tt)&tttt2v5tttttt)&tt{vvvvvv|ttt)&ttjvet'pvettt)&tttt';}'ttttt)",
")ttt!::::i_ttt))tttttt{aatttt))t)vvvvvvvv)tt))tt!ovvvvoyttt))tttttttvv5ttt))tt(ccdgcc.ttt))tttpvvvvv|ttt))ttttvv{tttttt))ttt6avvp{tttt))tt5vvp2vm=ttt))tttt;[v{ttttt)",
",tttt,#u!0tttt),ttttttttttttt),ttttttttttttt),ttt6avva6tttt),tttttttvv5ttt),tt'(mmmj@tttt),ttt'e2v2!tttt),ttt)vv)tttttt),ttttttttttttt),ttt|vvv2;tttt),tttt{v9{ttttt)",
",ttttttttttttt_,ttttttttttttt_,ttttttttttttt_,ttttttttttttt_,ttttttttttttt_,tttt'))tttttt_,ttttttttttttt_,ttttttttttttt_,ttttttttttttt_,tttt'&;tttttt_,tttt'&;tttttt_",
"*ttttttttttttt**ttttttttttttt**ttttttttttttt**ttttttttttttt**ttttttttttttt**ttttttttttttt**ttttttttttttt**ttttttttttttt**ttttttttttttt**ttttttttttttt**ttttttttttttt*",
"*&}}]]]]&))_>,~*&}}]]]]&))_>,~*&}}]]]]&))_>,~*&}}]]]]&))_>,~*&}}]]]]&))_>,~*&}}]]]]&))_>,~*&}}]]]]&))_>,~*&}}]]]]&))_>,~*&}}]]]]&))_>,~*&}}]]]]&))_>,~*&}}]]]]&))_>,~"};
