/* XPM */
static char *fp2[] = {
/* width height num_colors chars_per_pixel */
"   231    27        6            1",
/* colors */
". c #000000",
"# c #636363",
"a c #9c9c9c",
"b c #c6c6c6",
"c c #e7e7e7",
"d c #ffffff",
/* pixels */
"ddddddddddddddddddddddddddddddddddddddddddddddddddddddddddddddddddddddddddddddddddddddddddddddddddddddddddddddddddddddddddddddddddddddddddddddddddddddddddddddddddddddddddddddddddddddddddddddddddddddddddddddddddddddddddddddddddddddd",
"ddddddddddddddddddddddddddddddddddddddddddddddddddddddddddddddddddddddddddddddddddddddddddddddddddddddddddddddddddddddddddddddddddddddddddddddddddddddddddddddddddddddddddddddddddddddddddddddddddddddddddddddddddddddddddddddddddddddd",
"ddddddddddddddddddddddddddddddddddddddddddddddddddddddddddddddddddddddddddddddddddddddddddddddddddddddddddddddddddddddddddddddddddddddddddddddddddddddddddddddddddddddddddddddddddddddddddddddddddddddddddddddddddddddddddddddddddddddd",
"ddddddddddddddddddddddddddddddddddddddddddddddddddddddddddddddddddddddddddddddddddddddddddddddddddddddddddddddddddddddddddddddddddddddddddddddddddddddddddddddddddddddddddddddddddddddddddddddddddddddddddddddddddddddddddddddddddddddd",
"ddddddddddddddddddddddddddddddddddddddddddddddddddddddddddddddddddddb#bacaacdddddddddddddddcadddddddddddddddddddddddddddddddddddddddddddddbddddddddddddc.#a#aaaacdddddddddddddddddddddddddddddddddddddddddddddddddddddddddddddddddddddd",
"ddddddddddddddddddddddddddda#bbddddddddddddddddddb..#bdddddddddddddd........ddddddddddddddd#.dddddddddddddddddddddddddddddddddddddddddddd#.bddddddddddda.........dddddddddddddddddddddddddddddddddddcdddddddddddddddddddddddddddddddddd",
"dddddddbdbcdddddddddddddddc....adddddddddddddddc#.....bddddddddddddddbccb..bddddddddddddddd#.dddddddddddddddddb......#dddddddddddddddddc...dddddddddddddabbaaa#..dddddddddddddd#...#dddddddddddddda...#addddddddddddddddddddddddddddddd",
"ddddddb.....bdddddddddddddd#a#.#ddddddddddddddd..addb..ddddddddddddddddd..cdddddddddddddddd##ddddddddddddddddd..aaaa#adddddddddddddddda..cdddddddddddddddddddd#.dddddddddddddd#.....adddddddddddd#......bdddddddddddddddddddddddddddddd",
"dddddc.#cca.#ddddddddddddddddd.addddddddddddddb.bdddda.bddddddddddddddc..ddddddddddddddddddaaddddddddddddddddd.cddddddddddddddddddddd#.adddddddddddddddddddddc.bdddddddddddddb.adda.#ddddddddddd#..bdb#..dddddddddddddddddddddddddddddd",
"ddddd..bddd..ddddddddddddddddd.cddddddddddddddb.dddddb.adddddddddddddb..#bcdddddddddddddddd#cdd.cddddddddddddd.bdcbbddddddddddddddddb.bdddddddddddddddddddddd#.dddddddddddddd#.dddd#.ddddddddddd..cdddc..addddddddddddddddddddddddddddd",
"ddddb..cdddb.#dddddddddddddddd.bddddddddddddddddddddd#.addddddddddddc..#a#.#ddddddddddddddc.cdd.cddddddddddddd.......adddddddddddddd.bddddddddddddddddddddddb.adddddddddddddda.cddd..ddddddddddc.bdddddb.#ddddddddddddddddddddddddddddd",
"dddda..ddddc..dddddddddddddddd.cdddddddddddddddddddd#..cddddddddddddcaddddb.cddddddddddddda.ddd.bddddddddddddd..#cdca.bdddddddddddd#.##adddddddddddddddddddd#.dddddddddddddddc..#aa.addddddddddc.#dddddc.#ddddddddddddddddddddddddddddd",
"dddd#..ddddd..dddddddddddddddd.cdddddddddddddddddc#...bdddddddddddddddddddd##ddddddddddddd.addd.addddddddddddd#bddddda.dddddddddddd...##.#dddddddddddddddddc.#dddddddddddddddc......addddddddddd..dddddc.addddddddddddddddddddddddddddd",
"dddd#.#ddddd..dddddddddddddddd.cdddddddddddddddca...#bddddddddddddddddddddd..dddddddddddda.dddd.cddddddddddddddddddddd.adddddddddd#.#dddc.#dddddddddddddddd..dddddddddddddddda..ca...adddddddddd...bdda..cddddddddddddddddddddddddddddd",
"dddd#.#ddddda#dddddddddddddddc.cddddddddddddddc...#cddddddddddddddddddddddd..dddddddddddc.#dddb.addddddddddddddddddddb.adddddddddd.adddddb.cddddddddddddddd.#dddddddddddddddb.bddddb..ddddddddddb........dddddddddddddddddddddddddddddd",
"dddd#..dddddb.dddddddddddddddc.cdddddddddddddda.#cdddddddddddddddddddddddd#.bddddddddddd....#.....bddddddddddddddddddb.adddddddddc.ddddddd.bddddddddddddddc.addddddddddddddd#.ddddddb.cddddddddddc#.....bdddddddddddddddddddddddddddddd",
"ddddb..adddd.bdddddddddddddddd.cdddddddddddddd..abba####ddddddddddddddddd..#dddddddddddd#...#.....bddddddddddbcdddddd#.bdddddddddc.ddddddd.bddddddddddddddb.addddddddddddddd#.ddddddb.bddddddddddddcca..ddddddddddddddddddddddddddddddd",
"ddddd...bdc#.ddddddddddddddcba.bdbdddddddddddd#.........addddddddddddddc#..dddddddddddddddddddb.bdddddddddddd..#bddc...ddddddddddd.adddddb.bdddddddddddddda.addddddddddddddd#.cdddddb.bdddddddddddddc..bddddddddddddddddddddddddddddddd",
"ddddda......#dddddddddddddd.......addddddddddda.........bddddddddddddda...bdddddddddddddddddddc.addddddddddddb........cddddddddddd#.cdddc..ddddddddddddddd#.cddddddddddddddda..cdddc..dddddddddddddc..#dddddddddddddddddddddddddddddddd",
"ddddddb....#ddddddddddddddda#a##..#dddddddddddddddddddbcdddddddddddda....cddddddddddddddddddddb.adddddddddddddc......cddddddddddddd..###..addddddddddddddd..cdddddddddddddddd#..##...bdddddddddddd#..#ddddddddddddddddddddddddddddddddd",
"dddddddcaabddddddddddddddddddddddcddddddddddddddddddddddddddddddddd#...#ddddddddddddddddddddddd.bddddddddddddddddbaccddddddddddddddd.....bdddddddddddddddd..bddddddddddddddddda.....bddddddddddda...adddddddddddddddddddd#acddddddddddd",
"dddddddddddddddddddddddddddddddddddddddddddddddddddddddddddddddddddb.acddddddddddddddddddddddddcdddddddddddddddddddddddddddddddddddddcbbddddddddddddddddddb#dddddddddddddddddddddccddddddddddddc...bdddddddddddddddddddda..addddddddddd",
"dddddddddddddddddddddddddddddddddddddddddddddddddddddddddddddddddddddddddddddddddddddddddddddddddddddddddddddddddddddddddddddddddddddddddddddddddddddddddddddddddddddddddddddddddddddddddddddddc.#cddddddddddddddddddddd#..cddddddddddd",
"ddddddddddddddddddddddddddddddddddddddddddddddddddddddddddddddddddddddddddddddddddddddddddddddddddddddddddddddddddddddddddddddddddddddddddddddddddddddddddddddddddddddddddddddddddddddddddddddddddddddddddddddddddddddddc#cdddddddddddd",
"ddddddddddddddddddddddddddddddddddddddddddddddddddddddddddddddddddddddddddddddddddddddddddddddddddddddddddddddddddddddddddddddddddddddddddddddddddddddddddddddddddddddddddddddddddddddddddddddddddddddddddddddddddddddddddddddddddddddd",
"ddddddddddddddddddddddddddddddddddddddddddddddddddddddddddddddddddddddddddddddddddddddddddddddddddddddddddddddddddddddddddddddddddddddddddddddddddddddddddddddddddddddddddddddddddddddddddddddddddddddddddddddddddddddddddddddddddddddd",
"ddddddddddddddddddddddddddddddddddddddddddddddddddddddddddddddddddddddddddddddddddddddddddddddddddddddddddddddddddddddddddddddddddddddddddddddddddddddddddddddddddddddddddddddddddddddddddddddddddddddddddddddddddddddddddddddddddddddd"
};
SIMPLE  =                    T                                                  BITPIX  =                    8                                                  NAXIS   =                    2                                                  NAXIS1  =                  231                                                  NAXIS2  =                   27                                                  HISTORY Written by XV 3.10a(PNG)                                                END                                                                                                                                                                                                                                                                                                                                                                                                                                                                                                                                                                                                                                                                                                                                                                                                                                                                                                                                                                                                                                                                                                                                                                                                                                                                                                                                                                                                                                                                                                                                                                                                                                                                                                                                                                                                                                                                                                                                                                                                                                                                                                                                                                                                                                                                                                                                                                                                                                                                                             ÿÿÿÿÿÿÿÿÿÿÿÿÿÿÿÿÿÿÿÿÿÿÿÿÿÿÿÿÿÿÿÿÿÿÿÿÿÿÿÿÿÿÿÿÿÿÿÿÿÿÿÿÿÿÿÿÿÿÿÿÿÿÿÿÿÿÿÿÿÿÿÿÿÿÿÿÿÿÿÿÿÿÿÿÿÿÿÿÿÿÿÿÿÿÿÿÿÿÿÿÿÿÿÿÿÿÿÿÿÿÿÿÿÿÿÿÿÿÿÿÿÿÿÿÿÿÿÿÿÿÿÿÿÿÿÿÿÿÿÿÿÿÿÿÿÿÿÿÿÿÿÿÿÿÿÿÿÿÿÿÿÿÿÿÿÿÿÿÿÿÿÿÿÿÿÿÿÿÿÿÿÿÿÿÿÿÿÿÿÿÿÿÿÿÿÿÿÿÿÿÿÿÿÿÿÿÿÿÿÿÿÿÿÿÿÿÿÿÿÿÿÿÿÿÿÿÿÿÿÿÿÿÿÿÿÿÿÿÿÿÿÿÿÿÿÿÿÿÿÿÿÿÿÿÿÿÿÿÿÿÿÿÿÿÿÿÿÿÿÿÿÿÿÿÿÿÿÿÿÿÿÿÿÿÿÿÿÿÿÿÿÿÿÿÿÿÿÿÿÿÿÿÿÿÿÿÿÿÿÿÿÿÿÿÿÿÿÿÿÿÿÿÿÿÿÿÿÿÿÿÿÿÿÿÿÿÿÿÿÿÿÿÿÿÿÿÿÿÿÿÿÿÿÿÿÿÿÿÿÿÿÿÿÿÿÿÿÿÿÿÿÿÿÿÿÿÿÿÿÿÿÿÿÿÿÿÿÿÿÿÿÿÿÿÿÿÿÿÿÿÿÿÿÿÿÿÿÿÿÿÿÿÿÿÿÿÿÿÿÿÿÿÿÿÿÿÿÿÿÿÿÿÿÿÿÿÿÿÿÿÿÿÿÿÿÿÿÿÿÿÿÿÿÿÿÿÿÿÿÿÿÿÿÿÿÿÿÿÿÿÿÿÿÿÿÿÿÿÿÿÿÿÿÿÿÿÿÿÿÿÿÿÿÿÿÿÿÿÿÿÿÿÿÿÿÿÿÿÿÿÿÿÿÿÿÿÿÿÿÿÿÿÿÿÿÿÿÿÿÿÿÿÿÿÿÿÿÿÿÿÿÿÿÿÿÿÿÿÿÿÿÿÿÿÿÿÿÿÿÿÿÿÿÿÿÿÿÿÿÿÿÿÿÿÿÿÿÿÿÿÿÿÿÿÿÿÿÿÿÿÿÿÿÿÿÿÿÿÿÿÿÿÿÿÿÿÿÿÿÿÿÿÿÿÿÿÿÿÿÿÿÿÿÿÿÿÿÿÿÿÿÿÿÿÿÿÿÿÿÿÿÿÿÿÿÿÿÿÿÿÿÿÿÿÿÿÿÿÿÿÿÿÿÿÿÿÿÿÿÿÿÿÿÿÿÿÿÿÿÿÿÿÿÿÿÿÿÿÿÿÿÿÿÿÿÿÿÿÿÿÿÿÿÿÿÿÿÿÿÿÿÿÿÿÿÿÿÿÿÿÿÿÿÿÿÿÿÿÿÿÿÿÿÿÿÿÿÿÿÿÿÿÿÿÿÿÿÿÿÿÿÿÿÿÿÿÿÿÿÿÿÿÿÿÿÿÿÿÿÿÿÿÿÿÿÿÿÿÿÿÿÿÿÿÿÿÿÿÿÿÿÿÿÿÿÿÿÿÿÿÿÿÿÿÿÿÿÿÿÿÿÿÿÿÿÿÿÿÿÿÿÿÿÿÿÿÿÿÿÿÿÿÿÿÿÿÿÿÿÿÿÿÿÿÿÿÿÿÿÿÿÿÿÿÿÿÿÿÿÿÿÿÿÿÿÿÿÿÿÿÿÿÿÿÿÿÿÿÿÿÿÿÿÿÿÿÿÿÿÿÿÿÿÿÿÿÿÿÿÿÿÿÿÿÿÿÿÿÿçcçÿÿÿÿÿÿÿÿÿÿÿÿÿÿÿÿÿÿÿÿÿÿÿÿÿÿÿÿÿÿÿÿÿÿÿÿÿÿÿÿÿÿÿÿÿÿÿÿÿÿÿÿÿÿÿÿÿÿÿÿÿÿÿÿÿÿÿÿÿÿÿÿÿÿÿÿÿÿÿÿÿÿÿÿÿÿÿÿÿÿÿÿÿÿÿÿÿÿÿÿÿÿÿÿÿÿÿÿÿÿÿÿÿÿÿÿÿÿÿÿÿÿÿÿÿÿÿÿÿÿÿÿÿÿÿÿÿÿÿÿÿÿÿÿÿÿÿÿÿÿÿÿÿÿÿÿÿÿÿÿÿÿÿÿÿÿÿÿÿÿÿÿÿÿÿÿÿÿÿÿÿÿÿÿÿÿÿÿÿÿÿÿÿÿÿÿÿÿÿÿÿÿÿç cçÿÿÿÿÿÿÿÿÿÿÿÿÿÿÿÿÿÿÿÿÿc  çÿÿÿÿÿÿÿÿÿÿÿÿÿÿÿÿÿÿÿÿÿÿÿÿÿÿÿÿÿÿÿÿÿÿÿÿÿÿÿÿÿÿÿÿÿÿÿÿÿÿÿÿÿÿÿÿÿÿÿÿÿÿÿÿÿÿÿÿÿÿÿÿÿÿÿÿÿÿÆ œçÿÿÿÿÿÿÿÿÿÿÿÿÿÿÿÿÿÿÿÿÿÿÿÿçÿÿÿÿÿÿÿÿÿÿÿÿÿÿÿÿÿÿÿÿÿÿÿÿÿÿÿÿÿÿÿÿÿÿÿÿÿçÆÆÿÿÿÿÿÿÿÿÿÿÿÿÿÿÿÿÿÿÆcÿÿÿÿÿÿÿÿÿÿÿÿÿÿÿÿÿÿÿÿÿççÿÿÿÿÿÿÿÿÿÿÿÿç   Æÿÿÿÿÿÿÿÿÿÿÿÿÿÿÿÿÿÿÿÿœ  œÿÿÿÿÿÿÿÿÿÿÿÿÿÿÿÿÿÿçœœÆÿÿÿÿÿÿÿÿÿÿÿÿÿÿÿÿÿÿÿÿÿÿçÿÿÿÿÿÿÿÿÿÿÿÿÿÿÿÿÿÿÿÿÿÿÿÿÿÿÿÿÿÿÿÿÿc   cÿÿÿÿÿÿÿÿÿÿÿÿÿÿÿÿÿÿÿÿÿÿÿ ÆÿÿÿÿÿÿÿÿÿÿÿÿÿÿÿÿÆœççÿÿÿÿÿÿÿÿÿÿÿÿÿÿÿ     Æÿÿÿÿÿÿÿÿÿÿÿÿÿÿÿÿ  Æÿÿÿÿÿÿÿÿÿÿÿÿÿÿÿÿÿœ     Æÿÿÿÿÿÿÿÿÿÿÿœ   œÿÿÿÿÿÿÿÿÿÿÿÿÿÿÿÿÿÿÿÿcœçÿÿÿÿÿÿÿÿÿÿÿÿÿÿÿÿÿÆ    cÿÿÿÿÿÿÿÿÿÿÿÿÿÿÿœcœcc  cÿÿÿÿÿÿÿÿÿÿÿÿÿÿÿÿÿÿÿÆçÿÿÿÿÿÿÿÿÿÿÿÿœ    çÿÿÿÿÿÿÿÿÿÿÿÿÿÿÿÿÿÿÿÿÆ œÿÿÿÿÿÿÿÿÿÿÿÿÿç      çÿÿÿÿÿÿÿÿÿÿÿÿÿ  ccc  œÿÿÿÿÿÿÿÿÿÿÿÿÿÿÿ  çÿÿÿÿÿÿÿÿÿÿÿÿÿÿÿÿc  cc   Æÿÿÿÿÿÿÿÿÿÿÿÿc  cÿÿÿÿÿÿÿÿÿÿÿÿÿÿÿÿÿÿÿÿÿÿÿÿÿÿÿÿÿÿÿÿÿÿÿÿÿÿœ      cÿÿÿÿÿÿÿÿÿÿÿÿÿÿ       œÿÿÿÿÿÿÿÿÿÿÿœ         Æÿÿÿÿÿÿÿÿÿÿÿÿÿœ   Æÿÿÿÿÿÿÿÿÿÿÿÿÿÿÿÿÿÿÿç œÿÿÿÿÿÿÿÿÿÿÿÿÆ        çÿÿÿÿÿÿÿÿÿÿÿc çÿÿÿç  ÿÿÿÿÿÿÿÿÿÿÿÿÿÿÿc çÿÿÿÿÿÿÿÿÿÿÿÿÿÿÿœ  çÿÿÿç  ÿÿÿÿÿÿÿÿÿÿÿÿÿç  cÿÿÿÿÿÿÿÿÿÿÿÿÿÿÿÿÿÿÿÿÿÿÿÿÿÿÿÿÿÿÿÿÿÿÿÿÿ   Æÿçc ÿÿÿÿÿÿÿÿÿÿÿÿÿÿçÆœ ÆÿÆÿÿÿÿÿÿÿÿÿÿÿÿc         œÿÿÿÿÿÿÿÿÿÿÿÿÿÿçc  ÿÿÿÿÿÿÿÿÿÿÿÿÿÿÿÿÿÿÿÆ Æÿÿÿÿÿÿÿÿÿÿÿÿ  cÆÿÿç   ÿÿÿÿÿÿÿÿÿÿÿ œÿÿÿÿÿÆ Æÿÿÿÿÿÿÿÿÿÿÿÿÿÿœ œÿÿÿÿÿÿÿÿÿÿÿÿÿÿÿc çÿÿÿÿÿÆ Æÿÿÿÿÿÿÿÿÿÿÿÿÿç  ÆÿÿÿÿÿÿÿÿÿÿÿÿÿÿÿÿÿÿÿÿÿÿÿÿÿÿÿÿÿÿÿÿÿÿÿÆ  œÿÿÿÿ Æÿÿÿÿÿÿÿÿÿÿÿÿÿÿÿÿ çÿÿÿÿÿÿÿÿÿÿÿÿÿÿ  œÆÆœccccÿÿÿÿÿÿÿÿÿÿÿÿÿÿÿÿÿ  cÿÿÿÿÿÿÿÿÿÿÿÿc   c     ÆÿÿÿÿÿÿÿÿÿÿÆçÿÿÿÿÿÿc Æÿÿÿÿÿÿÿÿÿç ÿÿÿÿÿÿÿ ÆÿÿÿÿÿÿÿÿÿÿÿÿÿÿÆ œÿÿÿÿÿÿÿÿÿÿÿÿÿÿÿc ÿÿÿÿÿÿÆ Æÿÿÿÿÿÿÿÿÿÿÿÿççœ  ÿÿÿÿÿÿÿÿÿÿÿÿÿÿÿÿÿÿÿÿÿÿÿÿÿÿÿÿÿÿÿÿÿÿÿc  ÿÿÿÿÿÆ ÿÿÿÿÿÿÿÿÿÿÿÿÿÿÿç çÿÿÿÿÿÿÿÿÿÿÿÿÿÿœ cçÿÿÿÿÿÿÿÿÿÿÿÿÿÿÿÿÿÿÿÿÿÿÿÿc Æÿÿÿÿÿÿÿÿÿÿÿ    c     ÆÿÿÿÿÿÿÿÿÿÿÿÿÿÿÿÿÿÿÆ œÿÿÿÿÿÿÿÿÿç ÿÿÿÿÿÿÿ Æÿÿÿÿÿÿÿÿÿÿÿÿÿÿç œÿÿÿÿÿÿÿÿÿÿÿÿÿÿÿc ÿÿÿÿÿÿÆ çÿÿÿÿÿÿÿÿÿÿçc     Æÿÿÿÿÿÿÿÿÿÿÿÿÿÿÿÿÿÿÿÿÿÿÿÿÿÿÿÿÿÿÿÿÿÿc cÿÿÿÿÿœcÿÿÿÿÿÿÿÿÿÿÿÿÿÿÿç çÿÿÿÿÿÿÿÿÿÿÿÿÿÿç   cçÿÿÿÿÿÿÿÿÿÿÿÿÿÿÿÿÿÿÿÿÿÿÿ  ÿÿÿÿÿÿÿÿÿÿÿç cÿÿÿÆ œÿÿÿÿÿÿÿÿÿÿÿÿÿÿÿÿÿÿÿÿÆ œÿÿÿÿÿÿÿÿÿÿ œÿÿÿÿÿÆ çÿÿÿÿÿÿÿÿÿÿÿÿÿÿÿ cÿÿÿÿÿÿÿÿÿÿÿÿÿÿÿÆ ÆÿÿÿÿÆ  ÿÿÿÿÿÿÿÿÿÿÆ        ÿÿÿÿÿÿÿÿÿÿÿÿÿÿÿÿÿÿÿÿÿÿÿÿÿÿÿÿÿÿÿÿÿÿc cÿÿÿÿÿ  ÿÿÿÿÿÿÿÿÿÿÿÿÿÿÿÿ çÿÿÿÿÿÿÿÿÿÿÿÿÿÿÿçœ   cÆÿÿÿÿÿÿÿÿÿÿÿÿÿÿÿÿÿÿÿÿÿ  ÿÿÿÿÿÿÿÿÿÿÿÿœ ÿÿÿÿ çÿÿÿÿÿÿÿÿÿÿÿÿÿÿÿÿÿÿÿÿÿ œÿÿÿÿÿÿÿÿÿÿc cÿÿÿç cÿÿÿÿÿÿÿÿÿÿÿÿÿÿÿÿ  ÿÿÿÿÿÿÿÿÿÿÿÿÿÿÿÿœ  çœ   œÿÿÿÿÿÿÿÿÿÿ   Æÿÿœ  çÿÿÿÿÿÿÿÿÿÿÿÿÿÿÿÿÿÿÿÿÿÿÿÿÿÿÿÿÿÿÿÿÿc  ÿÿÿÿÿ  ÿÿÿÿÿÿÿÿÿÿÿÿÿÿÿÿ çÿÿÿÿÿÿÿÿÿÿÿÿÿÿÿÿÿçc   Æÿÿÿÿÿÿÿÿÿÿÿÿÿÿÿÿÿÿÿÿccÿÿÿÿÿÿÿÿÿÿÿÿÿ œÿÿÿ œÿÿÿÿÿÿÿÿÿÿÿÿÿcÆÿÿÿÿÿœ ÿÿÿÿÿÿÿÿÿÿÿÿ   cc cÿÿÿÿÿÿÿÿÿÿÿÿÿÿÿÿÿç cÿÿÿÿÿÿÿÿÿÿÿÿÿÿÿç      œÿÿÿÿÿÿÿÿÿÿÿ  ÿÿÿÿÿç œÿÿÿÿÿÿÿÿÿÿÿÿÿÿÿÿÿÿÿÿÿÿÿÿÿÿÿÿÿÿÿÿÿœ  ÿÿÿÿç  ÿÿÿÿÿÿÿÿÿÿÿÿÿÿÿÿ çÿÿÿÿÿÿÿÿÿÿÿÿÿÿÿÿÿÿÿÿc  çÿÿÿÿÿÿÿÿÿÿÿÿçœÿÿÿÿÆ çÿÿÿÿÿÿÿÿÿÿÿÿÿœ ÿÿÿ Æÿÿÿÿÿÿÿÿÿÿÿÿÿ  cçÿçœ Æÿÿÿÿÿÿÿÿÿÿÿÿc ccœÿÿÿÿÿÿÿÿÿÿÿÿÿÿÿÿÿÿÿÿc ÿÿÿÿÿÿÿÿÿÿÿÿÿÿÿç  cœœ œÿÿÿÿÿÿÿÿÿÿç cÿÿÿÿÿç cÿÿÿÿÿÿÿÿÿÿÿÿÿÿÿÿÿÿÿÿÿÿÿÿÿÿÿÿÿÿÿÿÿÆ  çÿÿÿÆ cÿÿÿÿÿÿÿÿÿÿÿÿÿÿÿÿ Æÿÿÿÿÿÿÿÿÿÿÿÿÿÿÿÿÿÿÿÿÿc œÿÿÿÿÿÿÿÿÿÿÿÿç  cœc cÿÿÿÿÿÿÿÿÿÿÿÿÿÿç çÿÿ çÿÿÿÿÿÿÿÿÿÿÿÿÿ       œÿÿÿÿÿÿÿÿÿÿÿÿÿÿ ÆÿÿÿÿÿÿÿÿÿÿÿÿÿÿÿÿÿÿÿÿÿÿÆ œÿÿÿÿÿÿÿÿÿÿÿÿÿÿœ çÿÿÿ  ÿÿÿÿÿÿÿÿÿÿç ÆÿÿÿÿÿÆ cÿÿÿÿÿÿÿÿÿÿÿÿÿÿÿÿÿÿÿÿÿÿÿÿÿÿÿÿÿÿÿÿÿÿ  Æÿÿÿ  ÿÿÿÿÿÿÿÿÿÿÿÿÿÿÿÿÿ çÿÿÿÿÿÿÿÿÿÿÿÿÿÿÆ ÿÿÿÿÿÆ œÿÿÿÿÿÿÿÿÿÿÿÿÿÆ  cÆçÿÿÿÿÿÿÿÿÿÿÿÿÿÿÿÿcçÿÿ çÿÿÿÿÿÿÿÿÿÿÿÿÿ ÆÿçÆÆÿÿÿÿÿÿÿÿÿÿÿÿÿÿÿÿÆ Æÿÿÿÿÿÿÿÿÿÿÿÿÿÿÿÿÿÿÿÿÿÿc ÿÿÿÿÿÿÿÿÿÿÿÿÿÿc ÿÿÿÿc ÿÿÿÿÿÿÿÿÿÿÿ  çÿÿÿç  œÿÿÿÿÿÿÿÿÿÿÿÿÿÿÿÿÿÿÿÿÿÿÿÿÿÿÿÿÿÿÿÿÿÿç cççœ cÿÿÿÿÿÿÿÿÿÿÿÿÿÿÿÿÿ œÿÿÿÿÿÿÿÿÿÿÿÿÿÿÆ Æÿÿÿÿœ Æÿÿÿÿÿÿÿÿÿÿÿÿÿÿç  ÿÿÿÿÿÿÿÿÿÿÿÿÿÿÿÿÿÿœœÿÿÿÿÿÿÿÿÿÿÿÿÿÿÿÿÿ çÿÿÿÿÿÿÿÿÿÿÿÿÿÿÿÿÿÿÿÿÿc œÿÿÿÿÿÿÿÿÿÿÿÿÿÿÿÿÿÿÿÿÿç ÆÿÿÿÿÿÿÿÿÿÿÿÿÿÆ œÿÿœ cÿÿÿÿÿÿÿÿÿÿÿc  ÆÿÆc  ÿÿÿÿÿÿÿÿÿÿÿÿÿÿÿÿÿÿÿÿÿÿÿÿÿÿÿÿÿÿÿÿÿÿÿÿÆ     Æÿÿÿÿÿÿÿÿÿÿÿÿÿÿcœc cÿÿÿÿÿÿÿÿÿÿÿÿÿÿÿ  œÿÿÆ  ÿÿÿÿÿÿÿÿÿÿÿÿÿÿÿÿÿ  çÿÿÿÿÿÿÿÿÿÿÿÿÿÿÿÿccÿÿÿÿÿÿÿÿÿÿÿÿÿÿÿÿÿ  œœœœcœÿÿÿÿÿÿÿÿÿÿÿÿÿÿÿÿœ  çÿÿÿÿÿÿÿÿÿÿÿÿÿÿÿÿÿÿÿÿc ÿÿÿÿÿÿÿÿÿÿÿÿÿÿc     œÿÿÿÿÿÿÿÿÿÿÿÿc      ÆÿÿÿÿÿÿÿÿÿÿÿÿÿÿÿÿÿÿÿÿÿÿÿÿÿÿÿÿÿÿÿÿÿÿÿÿÿÆÿÆçÿÿÿÿÿÿÿÿÿÿÿÿÿÿÿç    œÿÿÿÿÿÿÿÿÿÿÿÿÿÿÿçc     ÆÿÿÿÿÿÿÿÿÿÿÿÿÿÿÆççÆ  Æÿÿÿÿÿÿÿÿÿÿÿÿÿÿÿc ÿÿÿÿÿÿÿÿÿÿÿÿÿÿÿÿÿÆ      cÿÿÿÿÿÿÿÿÿÿÿÿÿÿÿÿÿç   ÿÿÿÿÿÿÿÿÿÿÿÿÿœÆÆœœœc  ÿÿÿÿÿÿÿÿÿÿÿÿÿÿc   cÿÿÿÿÿÿÿÿÿÿÿÿÿÿœ   cœÿÿÿÿÿÿÿÿÿÿÿÿÿÿÿÿÿÿÿÿÿÿÿÿÿÿÿÿÿÿÿÿÿÿÿÿÿÿÿÿÿÿÿÿÿÿÿÿÿÿÿÿÿÿÿÿÿÿœcÆÆÿÿÿÿÿÿÿÿÿÿÿÿÿÿÿÿÿÿÆ  cÆÿÿÿÿÿÿÿÿÿÿÿÿÿÿ        ÿÿÿÿÿÿÿÿÿÿÿÿÿÿÿc ÿÿÿÿÿÿÿÿÿÿÿÿÿÿÿÿÿÿÿÿÿÿÿÿÿÿÿÿÿÿÿÿÿÿÿÿÿÿÿÿÿÿÿÿc Æÿÿÿÿÿÿÿÿÿÿÿœ         ÿÿÿÿÿÿÿÿÿÿÿÿÿÿÿÿÿÿÿÿÿÿÿÿÿÿÿÿÿÿÿÿÿÿÿçÿÿÿÿÿÿÿÿÿÿÿÿÿÿÿÿÿÿÿÿÿÿÿÿÿÿÿÿÿÿÿÿÿÿÿÿÿÿÿÿÿÿÿÿÿÿÿÿÿÿÿÿÿÿÿÿÿÿÿÿÿÿÿÿÿÿÿÿÿÿÿÿÿÿÿÿÿÿÿÿÿÿÿÿÿÿÿÿÿÿÿÿÿÿÿÿÿÿÿÿÿÿÆcÆœçœœçÿÿÿÿÿÿÿÿÿÿÿÿÿÿÿçœÿÿÿÿÿÿÿÿÿÿÿÿÿÿÿÿÿÿÿÿÿÿÿÿÿÿÿÿÿÿÿÿÿÿÿÿÿÿÿÿÿÿÿÿÿÆÿÿÿÿÿÿÿÿÿÿÿÿç cœcœœœœçÿÿÿÿÿÿÿÿÿÿÿÿÿÿÿÿÿÿÿÿÿÿÿÿÿÿÿÿÿÿÿÿÿÿÿÿÿÿÿÿÿÿÿÿÿÿÿÿÿÿÿÿÿÿÿÿÿÿÿÿÿÿÿÿÿÿÿÿÿÿÿÿÿÿÿÿÿÿÿÿÿÿÿÿÿÿÿÿÿÿÿÿÿÿÿÿÿÿÿÿÿÿÿÿÿÿÿÿÿÿÿÿÿÿÿÿÿÿÿÿÿÿÿÿÿÿÿÿÿÿÿÿÿÿÿÿÿÿÿÿÿÿÿÿÿÿÿÿÿÿÿÿÿÿÿÿÿÿÿÿÿÿÿÿÿÿÿÿÿÿÿÿÿÿÿÿÿÿÿÿÿÿÿÿÿÿÿÿÿÿÿÿÿÿÿÿÿÿÿÿÿÿÿÿÿÿÿÿÿÿÿÿÿÿÿÿÿÿÿÿÿÿÿÿÿÿÿÿÿÿÿÿÿÿÿÿÿÿÿÿÿÿÿÿÿÿÿÿÿÿÿÿÿÿÿÿÿÿÿÿÿÿÿÿÿÿÿÿÿÿÿÿÿÿÿÿÿÿÿÿÿÿÿÿÿÿÿÿÿÿÿÿÿÿÿÿÿÿÿÿÿÿÿÿÿÿÿÿÿÿÿÿÿÿÿÿÿÿÿÿÿÿÿÿÿÿÿÿÿÿÿÿÿÿÿÿÿÿÿÿÿÿÿÿÿÿÿÿÿÿÿÿÿÿÿÿÿÿÿÿÿÿÿÿÿÿÿÿÿÿÿÿÿÿÿÿÿÿÿÿÿÿÿÿÿÿÿÿÿÿÿÿÿÿÿÿÿÿÿÿÿÿÿÿÿÿÿÿÿÿÿÿÿÿÿÿÿÿÿÿÿÿÿÿÿÿÿÿÿÿÿÿÿÿÿÿÿÿÿÿÿÿÿÿÿÿÿÿÿÿÿÿÿÿÿÿÿÿÿÿÿÿÿÿÿÿÿÿÿÿÿÿÿÿÿÿÿÿÿÿÿÿÿÿÿÿÿÿÿÿÿÿÿÿÿÿÿÿÿÿÿÿÿÿÿÿÿÿÿÿÿÿÿÿÿÿÿÿÿÿÿÿÿÿÿÿÿÿÿÿÿÿÿÿÿÿÿÿÿÿÿÿÿÿÿÿÿÿÿÿÿÿÿÿÿÿÿÿÿÿÿÿÿÿÿÿÿÿÿÿÿÿÿÿÿÿÿÿÿÿÿÿÿÿÿÿÿÿÿÿÿÿÿÿÿÿÿÿÿÿÿÿÿÿÿÿÿÿÿÿÿÿÿÿÿÿÿÿÿÿÿÿÿÿÿÿÿÿÿÿÿÿÿÿÿÿÿÿÿÿÿÿÿÿÿÿÿÿÿÿÿÿÿÿÿÿÿÿÿÿÿÿÿÿÿÿÿÿÿÿÿÿÿÿÿÿÿÿÿÿÿÿÿÿÿÿÿÿÿÿÿÿÿÿÿÿÿÿÿÿÿÿÿÿÿÿÿÿÿÿÿÿÿÿÿÿÿÿÿÿÿÿÿÿÿÿÿÿÿÿÿÿÿÿÿÿÿÿÿÿÿÿÿÿÿÿÿÿÿÿÿÿÿÿÿÿÿÿÿÿÿÿÿÿÿÿÿÿÿÿÿÿÿÿÿÿÿÿÿÿÿÿÿÿÿÿÿÿÿÿÿÿÿÿÿÿÿÿÿÿÿÿÿÿÿÿÿÿÿÿÿÿÿÿÿÿÿÿÿÿÿÿÿÿÿÿÿÿÿÿÿÿÿÿÿÿÿÿÿÿÿÿÿÿÿÿÿÿÿÿÿÿÿÿÿÿÿÿÿÿÿÿÿÿÿÿÿÿÿÿÿÿÿÿÿÿÿÿÿÿÿÿÿÿÿÿÿÿÿÿÿÿÿÿÿÿÿÿÿÿÿÿÿÿÿÿÿÿÿÿÿÿÿÿÿÿÿÿÿÿÿÿÿÿÿÿÿÿÿÿÿÿÿÿÿÿÿÿÿÿÿÿÿÿÿÿÿÿÿÿÿÿÿÿÿÿÿÿÿÿÿÿÿÿÿÿÿÿÿÿÿÿÿÿÿÿÿÿÿÿÿÿÿÿÿÿÿÿÿÿÿÿÿÿ                                                                                                                                                                                                                                                                                                                                                                                                                                                                                                                                                                                                                                                                                                                                                                                                                                                                                                                                                                                                                                                                                                                                                                                                                                                                                                                                                                                                                                                                                                                                                                                                                                                                                                                                                                                                                                                                                                                                                                                                                                                                                                                                                                                                                                                                                                                                                                                                                                                                                                   