/* XPM */
static char * mpurple_xpm[] = {
"99 16 185 2",
"  	c None",
". 	c #FFFFFF",
"+ 	c #EBDFEA",
"@ 	c #C4A0C1",
"# 	c #C8A6C5",
"$ 	c #B485B0",
"% 	c #9E6199",
"& 	c #8A4184",
"* 	c #BF98BC",
"= 	c #63025B",
"- 	c #A1679D",
"; 	c #F7F2F7",
"> 	c #A973A4",
", 	c #8C4486",
"' 	c #C5A1C2",
") 	c #E9DBE8",
"! 	c #8D4587",
"~ 	c #E2D0E1",
"{ 	c #B180AD",
"] 	c #883F82",
"^ 	c #DCC6DA",
"/ 	c #F0E6EF",
"( 	c #C7A4C4",
"_ 	c #DAC2D8",
": 	c #AB77A7",
"< 	c #D2B6CF",
"[ 	c #7F2F78",
"} 	c #67085F",
"| 	c #6F1668",
"1 	c #BC92B8",
"2 	c #7D2C76",
"3 	c #6A0E63",
"4 	c #721A6A",
"5 	c #6E1467",
"6 	c #741E6D",
"7 	c #E0CDDF",
"8 	c #904A8A",
"9 	c #6A0D62",
"0 	c #B383AF",
"a 	c #85397E",
"b 	c #6F1567",
"c 	c #DBC4D9",
"d 	c #955390",
"e 	c #E8DAE7",
"f 	c #8B4385",
"g 	c #690C61",
"h 	c #6C1165",
"i 	c #985893",
"j 	c #965490",
"k 	c #721B6B",
"l 	c #B88CB4",
"m 	c #AC79A8",
"n 	c #772370",
"o 	c #C7A5C4",
"p 	c #71196A",
"q 	c #8E4889",
"r 	c #D8C0D6",
"s 	c #AC78A8",
"t 	c #D5BBD3",
"u 	c #82357C",
"v 	c #751F6E",
"w 	c #CAA9C7",
"x 	c #CEB0CC",
"y 	c #C29CBF",
"z 	c #B689B2",
"A 	c #FAF7FA",
"B 	c #AA75A6",
"C 	c #D7BED5",
"D 	c #D3B8D1",
"E 	c #D9C1D7",
"F 	c #64035C",
"G 	c #965591",
"H 	c #7B2A75",
"I 	c #7A2773",
"J 	c #64045C",
"K 	c #84387E",
"L 	c #66075E",
"M 	c #7F3079",
"N 	c #731C6C",
"O 	c #AD7AA9",
"P 	c #A974A5",
"Q 	c #AF7DAB",
"R 	c #F6F1F6",
"S 	c #883E82",
"T 	c #873D81",
"U 	c #7C2B75",
"V 	c #C49FC1",
"W 	c #E5D5E4",
"X 	c #D7BFD5",
"Y 	c #A56DA0",
"Z 	c #B181AD",
"` 	c #94518E",
" .	c #E3D2E2",
"..	c #F8F4F8",
"+.	c #9D6098",
"@.	c #FEFDFE",
"#.	c #B07FAC",
"$.	c #C29DBF",
"%.	c #65055D",
"&.	c #B587B1",
"*.	c #DCC5DA",
"=.	c #EDE2EC",
"-.	c #FEFEFE",
";.	c #DEC9DC",
">.	c #F2E9F1",
",.	c #863B80",
"'.	c #FDFBFC",
").	c #76216F",
"!.	c #BC93B9",
"~.	c #DDC8DC",
"{.	c #FBF9FB",
"].	c #CCACC9",
"^.	c #EEE4EE",
"/.	c #F5EEF4",
"(.	c #DFCADD",
"_.	c #782471",
":.	c #FDFCFD",
"<.	c #F0E7F0",
"[.	c #AE7CAA",
"}.	c #E5D4E3",
"|.	c #BA8FB6",
"1.	c #DFCBDE",
"2.	c #75206E",
"3.	c #7B2974",
"4.	c #894083",
"5.	c #985792",
"6.	c #D5BCD3",
"7.	c #ECE0EB",
"8.	c #8B4285",
"9.	c #9F639A",
"0.	c #A1669C",
"a.	c #F4EDF3",
"b.	c #E8D9E7",
"c.	c #7E2E77",
"d.	c #AB76A6",
"e.	c #670960",
"f.	c #7A2873",
"g.	c #C099BD",
"h.	c #E7D7E5",
"i.	c #E1CEDF",
"j.	c #65065E",
"k.	c #83377D",
"l.	c #863C80",
"m.	c #EFE5EE",
"n.	c #9A5B95",
"o.	c #EADCE8",
"p.	c #80327A",
"q.	c #701769",
"r.	c #81337B",
"s.	c #A2689D",
"t.	c #8F4989",
"u.	c #F6F0F5",
"v.	c #F1E8F0",
"w.	c #F2EAF1",
"x.	c #F3ECF3",
"y.	c #D0B3CD",
"z.	c #B384AF",
"A.	c #6D1366",
"B.	c #82347B",
"C.	c #BE96BB",
"D.	c #7D2D77",
"E.	c #F5EFF5",
"F.	c #DDC7DB",
"G.	c #E0CCDE",
"H.	c #803179",
"I.	c #FCFAFC",
"J.	c #CAAAC8",
"K.	c #AE7BA9",
"L.	c #BE95BA",
"M.	c #8D4687",
"N.	c #D1B5CF",
"O.	c #772270",
"P.	c #853A7F",
"Q.	c #904B8B",
"R.	c #BB91B8",
"S.	c #A66EA1",
"T.	c #9C5E97",
"U.	c #995994",
"V.	c #D2B7D0",
"W.	c #6C1064",
"X.	c #A46B9F",
"Y.	c #995A94",
"Z.	c #C19ABD",
"`.	c #E6D6E5",
" +	c #83367C",
". . . . . . . . . . . . . + @ . . . . . . . . . . . . . . . . . . . . . . . . . . . . . . . . . . . . . . . . . . . . . . . . . . . . . . . . . . . . . . . . . . . . . . . . . . . . . . . . . . . . ",
". . # $ $ $ $ . . . . . + % & . . . . * = = = = - ; . . > , , , , , ' . . . . . . ) ! ~ . . { = = = = = ] . . . ^ $ $ $ $ / . . ( $ $ $ $ $ _ . . . ^ $ $ $ $ / . . . ! ! ! ! : . . . . . . . . . . . ",
". < [ } } } | 1 . . . + % = & . . . . 2 3 4 4 5 6 7 . . 8 } = = = 9 0 . . . . . . a b c . . { = 4 4 4 4 d . . e f g } } h i . . j | } } } k l . . e f g } } h i . . m 3 = = = n o . . . . . . . . . . ",
". $ = > > > p q . . . r = = & . . . . = q @ @ s = t . . u v w x y = z . . . . A B = = C . . { = @ @ @ @ D . . E F G > > H = . . I J > > m = m . . E F G > > K L . . M N O O O = P . . . . . . . . . . ",
". Q = R R R S T . . . + % = & . . . . U V . . W = X . . - Y . . Z `  .. . . ..1 J +.= r . . { = . . . . . . . C = C @.@.c #.. . @ $.R R / %.&.. . t = C @.@.#.= . . & q . . . = { . . . . . . . . . . ",
". { = . . . f & . . . . r = & . . . . *.=.. -.t F r . . ;.7 >.&.,.e . . . '.x ).!.~.= r . . { = {.{.{.{.-.. . r = ].^.^./.. . . . . . . # k _ . . (.p ].^.^.> _.. . & & . . . = { . . . . . . . . . . ",
". { = . . . & & . . . . r = & . . . . {.:.. <.6 3 ~.. . . '.P } [.=.'.. . }.M |.. 1.= (.. . O = 2.2.2.3.^.. . r = 4.d d 5.6.. . . . . /.3.+.. . . 7.8.4.d d 2 9.. . & 8.. . . = { . . . . . . . . . . ",
". { = . . . & & . . . . r = & . . . . . . }.0.= Q a.. . . X = L = I b.. . X = n , [ = [ . . @ & c.c.c.= d.. . r = } e.e.F f.. . . . -.g.h h.. . . i.v } e.e.j.c.. . k.l.<.<.<.= { . . . . . . . . . . ",
". { = . . . & & . . . . r = & . . . . . m.n.= 0.>.. . . . o.P P P J $ . . (.p.f.6 q.= q.. . =.c r r r p.r.. . r = < ; ; m J . . . . m.s.H @.. . . r J < ; ; O J . . - L t.t.t.= { . . . . . . . . . . ",
". { = . . . & & . . . . r = & . . . . u.[.j.2.v.. . . . . -.w.w.w.= Q . . x.y.y.y.&.= &.. . . . . . . , & . . r = c . . z.= . . . . 1 A.o . . . . r = c . . z.= . . ~.B.).).).= { . . . . . . . . . . ",
". { = . . . f & . . . . r = & . . . . C.J D.;.. . . . . E.... . . = { . . . . . . *.= *.. . =.*.. . . & & . . r = c . . 0 = . . . . O = F.. . . . r = c . . 0 = . . . G.~ ~ ~ = { . . . . . . . . . . ",
". Q = R R R S T . . . . r = & . . . . 6 H.;.. I.J.w.. . K.: 1.1.1.= O . . . . . . *.= *.. . L.U . . . M.& . . C = N.R R m = . . . . { = r . . . . C = N.R R m = . . o.b.. . . = { . . . . . 7.. . . . ",
". $ = > > > p q . . . + % = O.@ . . . = P.' ( z.p.1.. . Q.= S S S = R.. . . . . . &.= &.. . S.= @ @ @ H B.. . E F G > > K L . . . . [.= C . . . . E F G > > K L . . T.U.V.V.V.= m . . . . 7.= 7.. . . ",
". < [ } } } | 1 . . . r = = = & . . . = b 6 4 h = 6.. . 6._.4 4 4 M. .. . . . . . q.= q.. . y W.4 4 4 } X.. . e f g } } h i . . . . l k *.. . . . e f g } } h i . . Y.= _._._.= Z.. . . . l k *.. . . ",
". . # $ $ $ $ . . . . + { { { @ . . . = = = = = = r . . . F.F.F.F.`.. . . . . . . [ P.[ . . m.u = = = = h.. . . ^ $ $ $ $ / . . . . _ $ 7.. . . . . ^ $ $ $ $ / . . ^  +2 2 2 i b.. . . . _ $ 7.. . . ",
". . . . . . . . . . . . . . . . . . . . . . . . . . . . . . . . . . . . . . . . . (.(.(.. . . . . . . . . . . . . . . . . . . . . . . . . . . . . . . . . . . . . . . (.(.(.(.b.. . . . . . . . . . . "};
