/* XPM */
static char * smplst_xpm[] = {
"99 20 103 2",
"  	c None",
". 	c #000000",
"+ 	c #3E3707",
"@ 	c #908011",
"# 	c #887910",
"$ 	c #2C2705",
"% 	c #3C3507",
"& 	c #5A500A",
"* 	c #8C7C11",
"= 	c #453D08",
"- 	c #413907",
"; 	c #928111",
"> 	c #2D2805",
", 	c #3B3407",
"' 	c #695D0C",
") 	c #60550B",
"! 	c #302A05",
"~ 	c #64590C",
"{ 	c #8B7B10",
"] 	c #332D06",
"^ 	c #584E0A",
"/ 	c #5E530B",
"( 	c #685C0C",
"_ 	c #2A2505",
": 	c #3D3607",
"< 	c #938211",
"[ 	c #FDE11E",
"} 	c #F6DA1D",
"| 	c #1B1803",
"1 	c #E1C81B",
"2 	c #F0D51D",
"3 	c #352F06",
"4 	c #2E2805",
"5 	c #3A3307",
"6 	c #FEE21E",
"7 	c #1A1703",
"8 	c #D4BC19",
"9 	c #1E1A03",
"0 	c #F3D81D",
"a 	c #FFE31F",
"b 	c #73660D",
"c 	c #FCE01E",
"d 	c #D0B919",
"e 	c #191603",
"f 	c #70630D",
"g 	c #5D520B",
"h 	c #484008",
"i 	c #796B0E",
"j 	c #665A0C",
"k 	c #978612",
"l 	c #544A0A",
"m 	c #DBC21A",
"n 	c #AC9914",
"o 	c #403807",
"p 	c #77690E",
"q 	c #342E06",
"r 	c #B5A116",
"s 	c #80710F",
"t 	c #6C600D",
"u 	c #72650D",
"v 	c #65590C",
"w 	c #C0AA17",
"x 	c #9A8912",
"y 	c #9D8B13",
"z 	c #1C1803",
"A 	c #9B8912",
"B 	c #7A6C0E",
"C 	c #B39F15",
"D 	c #CEB719",
"E 	c #B09C15",
"F 	c #DDC41A",
"G 	c #201C03",
"H 	c #DEC51A",
"I 	c #897910",
"J 	c #5B510B",
"K 	c #988712",
"L 	c #443C08",
"M 	c #574D0A",
"N 	c #D5BD19",
"O 	c #DCC31A",
"P 	c #514809",
"Q 	c #EDD21C",
"R 	c #BBA616",
"S 	c #E5CB1B",
"T 	c #958412",
"U 	c #F9DD1E",
"V 	c #BDA816",
"W 	c #242004",
"X 	c #EBD11C",
"Y 	c #E0C71B",
"Z 	c #C6B018",
"` 	c #151202",
" .	c #E4CA1B",
"..	c #A89514",
"+.	c #EAD01C",
"@.	c #A08E13",
"#.	c #A99614",
"$.	c #121002",
"%.	c #7C6E0F",
"&.	c #4C4309",
"*.	c #4D4409",
"=.	c #786A0E",
"-.	c #B6A216",
". . . . . . . . . . . . . . . . . . . . . . . . . . . . . . . . . . . . . . . . . . . . . . . . . . . . . . . . . . . . . . . . . . . . . . . . . . . . . . . . . . . . . . . . . . . . . . . . . . . ",
". . . . . . . . . . . . . . . . . . . . . . . . . . . . . . . . . . . . . . . . . . . . . . . . . . . . . . . . . . . . . . . . . . . . . . . . . . . . . . . . . . . . . . . . . . . . . . . . . . . ",
". . . . . . . . . . . . . . . . . . . . . . . . . . . . . . . . . . . . . . . . . . . . . . . . . . . . . . . . . . . . . . . . . . . . . . . . . . . . . . . . . . . . . . . . . . . . . . . . . . . ",
". . . + @ # $ . . . . . . % & . . . . . . + * * = . . . . . - ; # > . . . . . . , ' ) . . . . ! ) ~ ) ~ ! . . . . + { { ] . . . . ^ / ( / ( _ . . . . + @ # $ . . . . . : < # $ . . . . . . . . . . . ",
". . + [ } [ } | . . . . . 1 2 . . . . . 3 [ [ [ [ 4 . . . 5 6 } 6 } 7 . . . . . 8 } 6 9 . . . ) 0 a a a b . . . > 0 c c 0 > . . . d a a a a ( . . . + [ [ [ } e . . . : [ [ [ } | . . . . . . . . . . ",
". . # } f # [ g . . . h 2 [ 2 . . . . . i [ i * a ( . . . # 6 j k a l . . . . 9 6 m 6 . . . . ~ a n % o ! . . . p c p { c ( . . . q o o r a ^ . . . s [ t # [ g . . . # } u < a g . . . . . . . . . . ",
". . @ a v # [ f . . . h w [ 2 . . . . . x [ ( i a i . . . ; 6 j @ a j . . . . ' 6 w 6 9 . . . ~ a y . . . . . . { c p ( a p . . . . . . 8 a z . . . A [ g # [ B . . . < a v # [ u . . . . . . . . . . ",
". . @ [ g f a f . . . . . 2 2 . . . . . * a ) x [ ) . . . ; 6 ) @ a ) . . . . C D E } . . . . ) 0 @ . . . . . . p a t p c t . . . . . z a F . . . . @ [ g s a v . . . < [ g u a f . . . . . . . . . . ",
". . @ [ v # a f . . . . . 2 2 . . . . . G G . H a 3 . . . > l 7 k a l . . . . } I C 6 9 . . . ~ a y s b . . . . { a p J t > . . . . . ^ a K . . . . B a s A a L . . . < a v # a f . . . . . . . . . . ",
". . @ [ v f a f . . . . . 2 2 . . . . . . . M a N . . . . . . j } O 7 . . . P 6 L w 6 . . . . ~ a a a a ) . . . p a Q a 0 > . . . . . K a ( . . . . e R a [ # . . . . # a g s a f . . . . . . . . . . ",
". . @ [ v # a f . . . . . 2 2 . . . . . . . S a M . . . . . . # 6 R . . . . T } . w 6 9 . . . ! b ~ y a t . . . { U V V a ( . . . . . F a W . . . . $ X Y X S e . . . # a D F a f . . . . . . . . . . ",
". . @ [ g s a f . . . . . 2 2 . . . . . . i [ Z . . . . . 7 ! 7 k a ) . . . Y 8 L 8 6 L . . . ` ! ` b a b . . . p a t p a p . . . . z a  .. . . . . # [ v # a g . . . q } a F a f . . . . . . . . . . ",
". . @ a v s a f . . . . . 2 2 . . . . . . S [ = . . . . . k 6 ) k a ) . . . 6 6 6 6 6 Y . . . b a b b a t . . . { a t t a t . . . . / a ... . . . . A [ g s a t . . . : f : s a f . . . . . . . . . . ",
". . @ [ g s a f . . . . . 2 2 . . . . . = [ H . . . . . . # a ) # a ) . . . P P P +.6 P . . . b a t b a b . . . p a p t a p . . . . @.a ( . . . . . # a g s a B . . . # a g # a f . . . . . . . . . . ",
". . # a v # a v . . . . . 2 2 . . . . . { [ #.$.$.. . . . # a j k a ) . . . . . . Y 6 9 . . . ~ a b %.a ~ . . . p a p p a ( . . . .  .a _ . . . . . # a v # a g . . . # a v # } v . . . . ! v # . . . ",
". . &.a } } } $ . . . . . 2 2 . . . . . x [ a a a ( . . . *.a 2 } } > . . . . . . Y 6 . . . . o a 0 0 a ! . . . + a 0 0 a + . . . W a X . . . . . . &.a X } [ $ . . . &.a 2 } a $ . . . . &.2 } $ . . ",
". . . v R R &.. . . . . . =.=.. . . . . M i * i * 4 . . . . t R R l . . . . . . . f I . . . . . ~ R R M . . . . . ( V -.J . . . . _ s / . . . . . . . v R R &.. . . . . v R R &.. . . . . . R R . . . ",
". . . . . . . . . . . . . . . . . . . . . . . . . . . . . . . . . . . . . . . . . . . . . . . . . . . . . . . . . . . . . . . . . . . . . . . . . . . . . . . . . . . . . . . . . . . . . . . . . . . ",
". . . . . . . . . . . . . . . . . . . . . . . . . . . . . . . . . . . . . . . . . . . . . . . . . . . . . . . . . . . . . . . . . . . . . . . . . . . . . . . . . . . . . . . . . . . . . . . . . . . ",
". . . . . . . . . . . . . . . . . . . . . . . . . . . . . . . . . . . . . . . . . . . . . . . . . . . . . . . . . . . . . . . . . . . . . . . . . . . . . . . . . . . . . . . . . . . . . . . . . . . "};
