/* XPM */
static char * copy_xpm[] = {
"17 17 2 1",
" 	c None",
".	c #000000",
"                 ",
".. .. .. .. .. ..",
"                 ",
"       ...       ",
"       ...       ",
"       ...       ",
"     .......     ",
"      .....      ",
"       ...       ",
"        .        ",
"                 ",
"       ...       ",
"      .....      ",
"      .....      ",
"      .....      ",
"       ...       ",
"                 "};
