/* XPM */
static char *batmon-ac[] = {
/* width height num_colors chars_per_pixel */
"    42    42      144            2",
/* colors */
".. c #7c8684",
".# c #848684",
".a c #848a84",
".b c #848a8c",
".c c #848e8c",
".d c #8c8a7c",
".e c #8c8e8c",
".f c #8c927c",
".g c #8c928c",
".h c #8c9294",
".i c #8c9694",
".j c #949684",
".k c #949694",
".l c #949a84",
".m c #949a8c",
".n c #949a94",
".o c #949a9c",
".p c #949e9c",
".q c #9c7a5c",
".r c #9c7a64",
".s c #9c8274",
".t c #9c8674",
".u c #9c928c",
".v c #9c9e7c",
".w c #9c9e8c",
".x c #9c9e9c",
".y c #9ca27c",
".z c #9ca294",
".A c #9ca29c",
".B c #9ca2a4",
".C c #9ca6a4",
".D c #a47254",
".E c #a47654",
".F c #a48264",
".G c #a4866c",
".H c #a48a6c",
".I c #a48a7c",
".J c #a48e7c",
".K c #a48e84",
".L c #a49694",
".M c #a49e94",
".N c #a4a66c",
".O c #a4a684",
".P c #a4a6a4",
".Q c #a4aa94",
".R c #a4aaa4",
".S c #a4aaac",
".T c #a4aeac",
".U c #ac725c",
".V c #ac7a6c",
".W c #ac7e74",
".X c #ac826c",
".Y c #ac8674",
".Z c #ac8a6c",
".0 c #acaa74",
".1 c #acaa84",
".2 c #acae64",
".3 c #acae84",
".4 c #acaeac",
".5 c #acb2b4",
".6 c #b47254",
".7 c #b4725c",
".8 c #b47e4c",
".9 c #b48e74",
"#. c #b4927c",
"## c #b49a74",
"#a c #b4ae64",
"#b c #b4ae7c",
"#c c #b4b27c",
"#d c #b4b28c",
"#e c #bc5e44",
"#f c #bc6244",
"#g c #bc6644",
"#h c #bc6a3c",
"#i c #bc6a54",
"#j c #bc6e3c",
"#k c #bc7254",
"#l c #bc763c",
"#m c #bc8244",
"#n c #bc9a54",
"#o c #bcb664",
"#p c #bcb674",
"#q c #bcba74",
"#r c #c45634",
"#s c #c45a34",
"#t c #c46644",
"#u c #c46a44",
"#v c #c47634",
"#w c #c47a34",
"#x c #c47e44",
"#y c #c4ba64",
"#z c #c4ba6c",
"#A c #c4be64",
"#B c #c4c254",
"#C c #c4c264",
"#D c #cc4e24",
"#E c #cc5224",
"#F c #cc5a24",
"#G c #cc6e24",
"#H c #cc762c",
"#I c #ccaa54",
"#J c #ccc254",
"#K c #ccc264",
"#L c #d43614",
"#M c #d43a14",
"#N c #d43e14",
"#O c #d44214",
"#P c #d44614",
"#Q c #d44a14",
"#R c #d44e14",
"#S c #d45214",
"#T c #d4561c",
"#U c #d45a1c",
"#V c #d45e1c",
"#W c #d4621c",
"#X c #d4661c",
"#Y c #d46a1c",
"#Z c #d46e1c",
"#0 c #d4721c",
"#1 c #d4761c",
"#2 c #d47a24",
"#3 c #d47e2c",
"#4 c #d4862c",
"#5 c #d49634",
"#6 c #d4a23c",
"#7 c #d4c64c",
"#8 c #d4ca4c",
"#9 c #d4ce4c",
"a. c #dc8224",
"a# c #dc8624",
"aa c #dc9224",
"ab c #dc9e2c",
"ac c #dcca4c",
"ad c #dcce44",
"ae c #dcd244",
"af c #e4ae2c",
"ag c #e4ba34",
"ah c #e4c634",
"ai c #e4ca34",
"aj c #e4d23c",
"ak c #e4d644",
"al c #ecd63c",
"am c #ecda34",
"an c #ecda3c",
/* pixels */
".h.h.k.k.i.h.h.g.h.h.n.o.o.n.o.o.x.p.p.k.o.n.k.h.h.h.e...#.e.h.i.k.x.B.B.o.h.c.c.i.B",
".i.g.o.k.n.k.n.i.k.n.o.n.k.k.o.o.o.o.k.h.k.o.i.k.i.g.c.b.b.i.k.k.p.B.A.x.g.a.e.h.n.B",
".k.h.k.o.o.x.o.o.k.k.x.k.k.o.o.n.k.k.h.i.n.o.k.g.i.h.c.a.c.h.i.o.x.P.B.h.b.c.k.o.x.x",
".n.h.n.o.n.p.x.k.i.o.o.o.o.n.o.k.i.h.i.k.x.p.k.h.i.g.e.c.h.k.n.x.B.B.n.e.b.k.p.x.k.x",
".x.n.k.n.o.o.o.k.k.o.x.x.o.o.k.h.g.k.n.o.x.x.n.h.k.i.g.h.i.n.o.x.A.B.h.a.l#b.o.k.o.p",
".B.o.h.k.k.p.o.k.o.p.x.A.p.k.i.g.h.k.p.x.p.x.o.h.i.h.g.h.k.k.p.B.P.o.c#a#o.n.o.n.o.P",
".B.k.c.i.k.x.o.i.n.x.p.x.o.k.k.i.k.o.x.p.x.o.i.h.g.h.g.i.i.k.x.B.B.v#7#J.n.o.k.p.P.4",
".x.o.c.k.o.o.n.o.x.p.x.p.o.o.o.k.o.p.x.x.p.o.h.g.g.c.e.h.h.n.B.P#qakae.w.n.k.p.P.5.T",
".p.n.h.n.o.x.x.k.p.x.o.o.n.o.n.i.k.x.B.x.x.k.g.e.c.c.c.g.i.o#d#9amad.j.i.k.o.P.T.4.C",
".o.o.k.o.x.p.k.o.o.o.k.k.k.o.k.k.o.A.x.B.o.i.c.c.e.c.e.k.p#Kakamae.f.g.n.o.o.B.P.B.k",
".k.n.x.n.o.o.i.k.o.k.i.k.n.o.o.k.o.p.x.p.k.h.c.e.c.h.k.3aeamamal.N.c.k.o.o.C.P.C.x.i",
".h.i.x.o.k.h.h.k.o.n.o.o.x.A.o.i.o.o.x.k.i.g.h.h.g.m#Aamakamam.N.g.k.o.o.x.S.4.B.x.k",
".k.x.B.x.c.g.i.n.n.o.o.x.C.B.o.k.n.x.p.o.h.k.i.g.0aeamamamak.N.h.o.B.x.A.P.R.P.p.o.h",
".o.B.P.p.e.e.h.k.o.x.x.B.P.B.o.n.x.p.x.k.i.o.k.c.y#9amamaiaf#5#l#u#..Z.9.S.x.h.g.c.a",
".p.A.S.x.c.g.h.i.V#L#L#M#N#N#N#N.U.x.p.k.k.i.g.c.g.p###G#T#T#T#T#V#V#W#V#W.c.b.c.b.e",
".x.B.S.p.b.h.i.k.V#L#M#M#N#N#O#O#D.o.o.k.h.h.e.c.h#k#S#T#T#S#V#1#Y#V#V#W#W...c.g.h.p",
".x.R.P.o.a.c.h.k.j.W#e#N#N#N#O#O#O.X.o.k.i.i.g.c.6#S#T#S#U#3aiajajah#Y#W#X.a.e.i.k.x",
".B.S.P.i...b.g.k.o.x.W#N#O#O#O#P#P#s.o.h.k.h.e.s#S#T#T#Fa.ajajaj#C.l.E#W#X.c.i.k.n.o",
".B.S.A.b...e.i.k.p.B#i#O#N.U#P#O#D#Q.s.h.i.g.c#h#S#F#S#Uaiaj#A.Q.x.c.q#X#X.k.i.o.k.o",
".A.P.k.#.a.h.i.o.x.u#O#O.7.o#D#D#P#Q#s.c.g.v#8#W#T#U#U#1.2.j.p.P.p.a.d.t.H.j.o.k.o.o",
".x.x.o...b.k.k.o.x.7#O#O.L.o.U#P#D#R#D#nadamam#S#U#U#U#h.g.o.P.P.h.a.g.k.n.i.o.k.n.n",
".p.p.k.h.c.n.o.x.I#N#O.7.B.k.h#E#Q#R#S#Zamakaj#F#U#U#V#j.i.B.S.B.c.b.k.n.o.o.k.o.o.o",
".x.k.n.i.i.k.p.o#r#O#P#r#t#D#Q#R#D#R#E#Sagamam#0#V#F#V#V.n.B.P.n.b.g.k.o.n.o.n.o.n.o",
".o.h.o.k.h.o.x.I#O#P#P#P#D#P#Q#D#S#S#S#T#Gamakaa#U#V#V#W.J.A.S.p.c.h.n.o.k.o.k.o.o.n",
".n.i.o.k.k.o.o#D#P#P.B.B.x.g.c.a.D#S#T#T#T#I#Jah#W#F#W#W#H.3.R.x.k.i.k.o.n.o.n.o.n.o",
".n.k.o.n.h.o.7#O#P#f.p.x.o.h.c.a.r#S#T#S#V#G#c#8ab#W#W#X#X#x.M.o.o.k.i.k.u.k.k.n.o.x",
".k.k.x.o.o.o#P#P#P#D#u.K.o.h.c.D#F#T#U#U#F#F#2agaj#4#X#X#X#Y#Y#l.s.G.8#w#1.i.k.n.o.o",
".i.o.p.x.o.o#P#D#P#Q#Q.Y.k.e.a#e#T#S#U#U#V#V#V#6.2.m.F#G#Y#Y#Z#Z#Z#0#0#0#1.i.o.o.x.n",
".k.k.p.x.o.n#f#f#g#h#i.I.h.f.2#2a.#4a.#4a##2#l.t.i.n.n.i.H#l#v#Z#0#0#m.8.H.n.x.o.p.x",
".i.k.o.x.k.i.k.o.x.B.S#c#Balajamajajad#B.z.i.f.g.k.n.o.n.i.m.i.i.m.i.m.n.k.A.x.A.B.B",
".k.o.o.o.n.h.i.k.1#Cajamajamamaj#8#o.x.p.x.o.i.o.o.k.n.k.n.o.n.p.n.o.n.k.k.p.B.B.P.A",
".i.o.n.x.o.h.k.k.Q#Canamakamakam#7#c.x.x.n.k.n.o.k.o.o.n.k.o.n.o.n.o.k.o.o.k.k.k.i.h",
".k.n.o.o.o.k.n.o.x.A.p#p#8ajalajakalaj#z.O.k.k.p.n.o.o.o.n.o.k.o.k.k.n.k.k.o.i.c.a..",
".o.k.n.o.x.n.o.x.x.B.x.z#Jajamakalajac#y.O.k.o.o.o.x.p.n.o.k.n.k.o.k.i.o.i.k.i.e.c.e",
".o.k.o.k.p.o.o.A.p.x#pajajalajal#J#b.x.x.o.k.k.p.x.p.k.k.i.k.i.k.i.o.o.k.n.o.k.h.i.k",
".k.i.k.n.x.p.o.x.z#8akajam#7.2.k.x.p.p.o.n.k.i.x.x.o.k.h.h.h.k.i.k.o.n.k.o.k.n.k.k.n",
".k.k.i.k.o.x.n#palakaj#o.j.h.e.i.o.x.x.o.o.k.k.p.x.o.g.c.i.k.i.k.o.n.o.o.o.o.i.k.i.n",
".n.i.k.k.k.Qaeal#C.0.k.i.i.g.i.k.i.k.k.n.k.i.o.x.x.o.c.g.h.h.k.k.o.k.n.k.n.k.k.i.o.o",
".k.o.k.i#oac#c.A.P.p.o.k.h.i.k.k.k.p.o.i.k.o.k.o.o.o.g.h.g.i.k.i.o.k.i.k.o.k.i.k.k.o",
".o.o.w.0.z.A.P.C.B.o.k.i.g.h.i.k.o.x.x.k.o.o.n.i.k.k.i.h.i.k.i.k.k.i.k.k.o.k.k.o.o.x",
".n.k.k.i.x.R.P.P.x.k.i.e.c.h.i.k.k.o.B.B.n.o.k.h.i.o.n.h.k.i.k.o.k.o.k.o.o.o.p.p.x.x",
".i.h.i.n.P.S.P.B.o.i.e.c.b.e.h.k.o.p.A.B.o.i.k.h.k.x.p.k.i.k.o.o.n.o.o.o.o.x.B.A.x.p"
};
