/* XPM */
static char *batmon-bat[] = {
/* width height num_colors chars_per_pixel */
"    48    48      233            2",
/* colors */
".. c #242624",
".# c #8c927c",
".a c #dc221c",
".b c #c4c254",
".c c #a46a64",
".d c #bc5e3c",
".e c #bca674",
".f c #a4a66c",
".g c #bcc2c4",
".h c #bc7254",
".i c #545a54",
".j c #dc5a1c",
".k c #8c827c",
".l c #a48e7c",
".m c #c44a44",
".n c #a4a694",
".o c #e4c234",
".p c #949a84",
".q c #bc6644",
".r c #3c4244",
".s c #dcdedc",
".t c #a47a64",
".u c #bc5244",
".v c #bcbabc",
".w c #6c7674",
".x c #bcb664",
".y c #b4b294",
".z c #ccd2cc",
".A c #a4a684",
".B c #dcd244",
".C c #949a94",
".D c #d4ca4c",
".E c #ac765c",
".F c #b47a64",
".G c #343634",
".H c #d44e24",
".I c #7c827c",
".J c #d4c24c",
".K c #cc5a34",
".L c #e45e24",
".M c #444e4c",
".N c #e4b234",
".O c #d43224",
".P c #b46a4c",
".Q c #bc623c",
".R c #d4622c",
".S c #d4422c",
".T c #acaeac",
".U c #c4be64",
".V c #c4c264",
".W c #c4cac4",
".X c #d47e34",
".Y c #a4aeac",
".Z c #cc6634",
".0 c #acb2ac",
".1 c #dcdadc",
".2 c #acae84",
".3 c #ecd23c",
".4 c #9ca294",
".5 c #2c2e2c",
".6 c #8c9694",
".7 c #b4ae64",
".8 c #6c6e6c",
".9 c #9ca6a4",
"#. c #dcca4c",
"## c #9ca27c",
"#a c #a4826c",
"#b c #cc4e34",
"#c c #c4b664",
"#d c #d4dad4",
"#e c #b48264",
"#f c #848a84",
"#g c #545654",
"#h c #b4bab4",
"#i c #848e8c",
"#j c #dc923c",
"#k c #d45a2c",
"#l c #ac9a94",
"#m c #9c9a7c",
"#n c #eceaec",
"#o c #7c7e7c",
"#p c #cc664c",
"#q c #3c3e3c",
"#r c #dc561c",
"#s c #4c5654",
"#t c #d43a24",
"#u c #dc461c",
"#v c #b4ae7c",
"#w c #2c2a2c",
"#x c #dc2a1c",
"#y c #ccc254",
"#z c #a46e64",
"#A c #c45a3c",
"#B c #aca674",
"#C c #5c5e5c",
"#D c #948a84",
"#E c #c46e44",
"#F c #444a4c",
"#G c #c45644",
"#H c #747e7c",
"#I c #d4d2d4",
"#J c #e46624",
"#K c #9c9e9c",
"#L c #b47264",
"#M c #c46e5c",
"#N c #b47e74",
"#O c #3c3a3c",
"#P c #dc4e1c",
"#Q c #848684",
"#R c #949684",
"#S c #4c4e4c",
"#T c #bc6254",
"#U c #cccacc",
"#V c #b4b6b4",
"#W c #ecda34",
"#X c #a4a6a4",
"#Y c #dcca54",
"#Z c #ac826c",
"#0 c #8c8e8c",
"#1 c #dc9a34",
"#2 c #242a24",
"#3 c #ac665c",
"#4 c #c4c2c4",
"#5 c #c4865c",
"#6 c #b49e7c",
"#7 c #ac968c",
"#8 c #dcba44",
"#9 c #a48684",
"a. c #a4726c",
"a# c #cc5644",
"aa c #a4a294",
"ab c #c47244",
"ac c #cc4634",
"ad c #ac7e74",
"ae c #dc6a2c",
"af c #dc3e1c",
"ag c #ecf2f4",
"ah c #cc6234",
"ai c #e4922c",
"aj c #948284",
"ak c #e4e2e4",
"al c #747a74",
"am c #e4d23c",
"an c #c4664c",
"ao c #dc321c",
"ap c #ac7674",
"aq c #c46644",
"ar c #444244",
"as c #c44e44",
"at c #acaa84",
"au c #9c9e8c",
"av c #e49e34",
"aw c #c46244",
"ax c #dc622c",
"ay c #ccc264",
"az c #dc3a1c",
"aA c #9ca2a4",
"aB c #a4827c",
"aC c #b48274",
"aD c #949694",
"aE c #545e5c",
"aF c #dc5e1c",
"aG c #dce2e4",
"aH c #ac8a74",
"aI c #d46a3c",
"aJ c #949e9c",
"aK c #b47e5c",
"aL c #343a34",
"aM c #7c8684",
"aN c #d4c64c",
"aO c #b46e54",
"aP c #acb6b4",
"aQ c #6c7274",
"aR c #dcce44",
"aS c #c4ba64",
"aT c #ccc65c",
"aU c #c45e44",
"aV c #dc521c",
"aW c #4c524c",
"aX c #a4aaa4",
"aY c #8c9290",
"aZ c #ac6a54",
"a0 c #e4d644",
"a1 c #dc261c",
"a2 c #e4c634",
"a3 c #bcbebc",
"a4 c #d4ce4c",
"a5 c #bc6a54",
"a6 c #e46224",
"a7 c #ecd63c",
"a8 c #cc764c",
"a9 c #9c9e7c",
"b. c #dc4a1c",
"b# c #b4b27c",
"ba c #dc2e1c",
"bb c #acaa74",
"bc c #d4d6d4",
"bd c #cccecc",
"be c #c4c6c4",
"bf c #c47644",
"bg c #cc4a34",
"bh c #dc421c",
"bi c #dc361c",
"bj c #c46a44",
"bk c #444644",
"bl c #c45244",
"bm c #bcba74",
"bn c #545a5c",
"bo c #dc5a24",
"bp c #949a8c",
"bq c #ccd2d4",
"br c #949a9c",
"bs c #7c8284",
"bt c #bc6244",
"bu c #c4cacc",
"bv c #acb2b4",
"bw c #acae8c",
"bx c #9ca29c",
"by c #d4dadc",
"bz c #848a8c",
"bA c #b4babc",
"bB c #ccc25c",
"bC c #c45a44",
"bD c #dc4e24",
"bE c #ac8274",
"bF c #242a2c",
"bG c #747a7c",
"bH c #b47e64",
"bI c #343a3c",
"bJ c #d4c654",
"bK c #c4ba6c",
"bL c #4c5254",
"bM c #a4aaac",
/* pixels */
".Wbua3a3a3a3a3a3bA.vbA.vbAa3a3a3a3a3a3a3a3a3.va3a3.g.g#4.ga3bA#V#h#V#V#VbAa3a3.gbebebea3aP.v.Y.T",
".vag#n#Ibqbqbqbd.zbcbqbcbcbqbcbcbybcbcbybcbybc.saGak.s.s.s.1#dbcbybcbyby.1.s.sakaG.s.sby.1#h#HbL",
".v.sbe.Y.T.Y.TbM#X.9#X.9#XbM.Y.T.YbM.T.Tbv.T.YaA#Kbr.CaDaY#i#QaMbz#iaYaYbr#KaA#Xbxbr#0#iaYbr.i#S",
"bAbcaXaYaYaDaD.6aYaYaYaYaY.Cbrbr.Cbrbr#KaJaJaD.CbraDaYaYaY#0aM#Q#0aY.6aD#KbxaAbraY#i#i.6aA#0#q#F",
"#VbybM.6aYbraDbraD.C.6aDbrbr.CaDaDbrbrbrbraDaYaDbr.6aD.6aY#ibzbz.6aDaDaJaAaA#KaY#f#0aYbrbxbz.rbk",
"#VbcbvaDaYaD.Cbr#KbrbraDaD#KaDaDbrbr.CaDaDaY.6brbraDaY.6aY#i#f#iaY.6br#K.naAaYbz#iaDbr#K#KaM#O#F",
"#Vby.0braYbrbr.CaJ#KaD.6brbrbrbr.CbraD.6aY.6aD#KaJaDaY.6aY#0#iaYaDbr#KaAaAbr#0#faDaJ#KaD#K#f.r#S",
"#Vby.T#K.CaD.CbrbrbraDaDbr#K#KbrbraDaYaYaD.Cbr#K#KbraYaD.6aYaY.6.Cbr#KaAaAaYbz.p#vbraDbraJbz.r#S",
"aPbc.TaAbraYaDaDaJbraDbraJ#KbxaJaD.6aYaYaDaJ#KaJ#KbraY.6aYaYaYaDaDaJaA#Xbr#i.7.xbr.Cbrbr#XaY#q#F",
"#Vby.YaAaD#i.6aD#Kbr.6.C#KaJ#KbraDaD.6aDbr#KaJ#Kbr.6aYaYaYaY.6.6aD#KaAbxauaN#ybr.CaDaJ#X.TaYbIar",
"aPbc.T#Kbr#iaDbrbr.Cbr#KaJ#KaJbrbrbraDbraJ#K#KaJbraYaYaY#i#0aYaYbrbx#Xbm#WaRau.CaDaJ#Xbv.Y#QaLbk",
"#VbcbMaJbraY.Cbr#K#KaDaJ#Kbrbr.Cbr.C.6aD#KaA#K#KaDaY#0#i#i#iaY.6br.ya4#W.B.#.6aDbr#X.Y.T.9#H#O.M",
"#Vby.T.CbraDbr#KaJaDbrbr.CaDaDaD.CaDaDbraA#KaAbr.6#i#i#0#i#0aDaJay#Wa0.B.#aYbrbrbraA#XaAaDbGaL#F",
"bAbcaXaDbr#K.Cbrbr.6aDbraD.6aDbrbrbraDbraJ#KaJaDaY#i#0#iaYaD.2.B#W#Wam#B#iaD.C#K.9#X.9#K.6al.Gbk",
"#hbcbMaY.6#KbraDaYaYaDbrbrbrbr#Kbxbr.6.Cbr#KaD.6aYaYaYaYbp.Ua0#W#Wa0.faYaDbrbr#KaX.TaA#KaDbG.Gbk",
"#Vby#XaD#KaA#K#iaY.6br.Cbr.C#K.9aAbraDbr#KaJbraYaD.6aYbb.B#W#W#W#W.faY.Cbx#Kbx#XbMaAaJbraYaQ.G#F",
"bAbcbMbrbx#XaJ#0#0aYaDbr#K#KaA#XaA.Cbr#KaJ#KaD.6braD#i##a4#W#Wa0#W#y.A.9bM#X.9#X#K.6aY#i#faQaLbL",
"#V#d#XaJaAa8#raVaV#Pb.#ubhbhafafazbibg#T.laJaDaD.6aY#iaYaJbwa4#Wa0#Wa7#Y.yaJ#Kbr#ibz#ibz#0#H#ObL",
"#Vbc#X#KaAab#r#r.H#Pb.#ubhafafazbiaoaobabaaBaDaYaY#0#iaY#KaAaJ##aNamama0a7.Ja9#i#Q#iaYaYaJ#f#qbL",
"#VbqbM#KaX#7.FaV#Pb.b.a5#Nad#N#N#baobaba#xasaDaY.6aY#ibraJaaaJbb#y#Wa7am.3#y#m.k.t#D.6aD#KaM#q#S",
"bvbq#XaAbM#X.6.Q#Pb.#uad.4bx.9aA#Kacba#x#x.m.6aDaY#0aY.C.nbmaRa7ama7a0.U.p.I#f.PaV.t.CbrbraM#O.M",
".0#IaXaAbMbx#f.Q#Pb.#uadaAaA#X#Xbxbl#x#xa1.maY.6aY#i#R.Ua7a7a0a7a0aS.nbx#0bs.taV#rbE.CaDbr#oaL#F",
"aP#I.Ybx#XaDaMbt#Pb.#uadbxbx.9aA#9ba#x#x.Oaj#i#0a9.XbDa1#xbaaobi.S.q#laJaZ#Ab.aV.H.Z#Eabbr.IbIbk",
"#V#d#X#KaJ.Cbz.Qb.b.#ubhafafbibiaoba#x.O.c#i.7.Ba0.L.aafax#k.ubibiaf#MaD.db.#PaV#r#r.jaF.Cbs#O#F",
".gby#KaAbraDaY.q#Pb.#ubhbhazazbiaoba#xa1a1bo#W#W#WaF.a#6bxaD#i#GazazaU#ibzaD.H#P#r#abrbrbr.IbI#F",
".g.1aAaJaDaD.6aq#Pb.#ua5#N#NaC#N.P#tba#xa1.a.Nama7a0#j#5apa.#3.SazafaU#QaYaD#PaVaV#Z.C.Cbr#obIbk",
"be#daAbr.6braD.q#Pb.#uad#K.9#X#K.6.E#x#x#xa1aF#Wa2az#x#xbabaaobiazafaU#i.6aD#PaVaV#Zbrbrbr#obI#S",
".g.1#K.CaD.CaDbj#Pb.b.#Z#KbxaAaJaY#zbaba#x#xblb#aI#x#xbaavavam.RazafaUaD.6.C#P.H#r#Zbr.Cbr.IaL#F",
"bebybraDaDbr.Cah#P#P#u#Z#K#K#KaJaY.uaobaba#xa5aAa##xbaa6am.3amaeazbhawaDaD.6#P#r#r#Z.Cbr#Kbs#O#F",
"be.1.CaDbrbH.Z.HaV#Pb..KawawaUbC.Sbibiaoaoba.eaT#Jbaba#u#8#caHazafbh.H.k#D#0.KaV#r.R#Z.lbr.IaL#F",
"bebyaD.6brab.j#raV#Pb.b.#ubhbhafazazbibiao#1ama7.Naoaobibiazazafbhbh#ub..6.6.haV.j.jaFbfbr.IbI#S",
"bebyaD.6aDbH#E#E.qbjaqaqan#paw#A#Aahaeai.oa7a7am#yaKbgazazbCaO#LaUaUawaqaD.C#DaO.ZaFbf#e#Kbs#qbL",
"be.1.6aDaDaJaJ.CaD.6br#KaA#Xb#.bam#Wamam#WaR.UaaaDaYaY.6.CbrbraD.CaDbrbr.Cbr.C.CbxaA#KaAaA#f.raW",
"be.saDaDbrbr#KaD.6aY.Cat.V.B#Wam#W#Wa7.D.x#K#KaJbr.6aD.CaDbr.6aDbrbr.CbraD.CaDaDaJaAaAbxaAaM#Obk",
"bu.1.6aDbr.CbrbraYaDaD.Aaya0#W#Wa0am#WbJb##KaJbraD.CbrbraDbr.Cbr.CbrbrbrbraDbrbraDaD.CaDaY.w.Gbk",
"be.sbr.CaDbr#KaJaDaDaJ#KaAbx.x.Dam#Wama0a7ambK.AaDbr#K.CbraJbraDbr.CaD.CaDbraDaDbr.6#iaM#faQ.Gbk",
"be.1aJbr.CaDbrbrbrbr#K#KaA#K.4bBa0a7ama7am#.aSat.6aDbrbr#K#KaDbr.CaD.6aDbraD.6.CaDaY#0#i#0#HbI#F",
"beby#KbraDaD.C#K.CbraAaJ#K.x.Bama7ama7bB#v#KaJbraDaD#KaJbrbraYaD.6aD.6aDaD.CbraDbraD.6.6.6#H#O#F",
"beby#K.6aD.6brbr#Kbr#K.4.Da0a7a7aN.7.C#K#KaJ#KaD.6aDaJ#K#K.6aYaY.6aD.6brbrbraDbr.CaDaDaDaD#obI#F",
".g.1braD.6aDaDaJ#K.Cbmama7aR.x#RaY#i.6br#KbrbrbraDaDaJ#KbraY#iaYaD.6aDaDbraD.Cbrbr.6aD.6brbs#q#S",
"beby.CbraD.6aDaDat.Ba7.Vat.CaD.6aYaD.6aDaD.CaDbr.6aD#K#Kbr#iaYaY.6aDaDbrbraDbraDbr.6aDaDbr.IbI.M",
".g.1braDbraDaYaS.Db#bx#XaJ.C.6aY.6.6.CaDaJbr.6aDaDbrbraJaDaYaY.6aYaD.6br.6aD.6aDaDaD.6brbraM#q#S",
"be#d.Cbrbrau.2auaA#XaAaA#KaDaYaY.6aDaDbraJ#KaDbrbr.C.6aDaD.6aYaYaD.6aDaDaD.6brbraDaDbrbr#KbsbI#F",
"beby#KaD.CaY.6#K.9bM#X#KaD.6#0#iaYaYaDaDbraAaA.CbraDaY.6braD.6aD.6aDbraDbraD.Cbrbr#KaJ#K#KaM#q#S",
"be.saJaDaY.6#K.9bM#XaAbr.6#i#ibz#iaYbrbr.CaA#Xbr.6aDaYaD#KaJaD.6brbrbrbr.Cbrbrbr#KbxaA#KaJaM#q.M",
"#UbdaDaYaYaY#K#XaXbxaJaY#i#0#ibz#0aY.Cbrbr#KbxbraYaY.6aYaMbs#H#H#o.Ibs#o#H#o.IbsaMbsbsbs.I.8#O#F",
".g#Kbn.5.GbI#O#q#O.G#w#2........#2bFbF#w.5bF#w#2bF..bF#wbI#O.G.GbI.G.G.GbIbI.GaLbI.G.G.G.G.5bF#S",
"aM#gbLbk#F#S#SbL.MaW#gbL#gbL#sbL#g.i.ibn.iaEbn.ibn#g#g.ibnaE#Cbnbnbnbn#gbn.ibnbn#C.ibnaEbn#sbk#C"
};
