/* XPM */
static char *batmon-bat[] = {
/* width height num_colors chars_per_pixel */
"    42    42      176            2",
/* colors */
".. c #7c827c",
".# c #7c8284",
".a c #7c8684",
".b c #848684",
".c c #848a84",
".d c #848a8c",
".e c #848e8c",
".f c #8c827c",
".g c #8c8e8c",
".h c #8c927c",
".i c #8c9290",
".j c #8c9694",
".k c #948284",
".l c #948a84",
".m c #949684",
".n c #949694",
".o c #949a84",
".p c #949a8c",
".q c #949a94",
".r c #949a9c",
".s c #949e9c",
".t c #9c9a7c",
".u c #9c9e7c",
".v c #9c9e8c",
".w c #9c9e9c",
".x c #9ca27c",
".y c #9ca294",
".z c #9ca29c",
".A c #9ca2a4",
".B c #9ca6a4",
".C c #a46a64",
".D c #a46e64",
".E c #a4726c",
".F c #a47a64",
".G c #a4826c",
".H c #a4827c",
".I c #a48684",
".J c #a48e7c",
".K c #a4a294",
".L c #a4a66c",
".M c #a4a684",
".N c #a4a694",
".O c #a4a6a4",
".P c #a4aaa4",
".Q c #a4aaac",
".R c #a4aeac",
".S c #ac665c",
".T c #ac6a54",
".U c #ac765c",
".V c #ac7674",
".W c #ac7e74",
".X c #ac826c",
".Y c #ac8274",
".Z c #ac8a74",
".0 c #ac968c",
".1 c #ac9a94",
".2 c #aca674",
".3 c #acaa74",
".4 c #acaa84",
".5 c #acae84",
".6 c #acae8c",
".7 c #acaeac",
".8 c #acb2b4",
".9 c #b46a4c",
"#. c #b46e54",
"## c #b47264",
"#a c #b47a64",
"#b c #b47e5c",
"#c c #b47e64",
"#d c #b47e74",
"#e c #b48264",
"#f c #b48274",
"#g c #b49e7c",
"#h c #b4ae64",
"#i c #b4ae7c",
"#j c #b4b27c",
"#k c #b4b294",
"#l c #bc5244",
"#m c #bc5e3c",
"#n c #bc623c",
"#o c #bc6244",
"#p c #bc6254",
"#q c #bc6644",
"#r c #bc6a54",
"#s c #bc7254",
"#t c #bca674",
"#u c #bcb664",
"#v c #bcba74",
"#w c #c44a44",
"#x c #c44e44",
"#y c #c45244",
"#z c #c45644",
"#A c #c45a3c",
"#B c #c45a44",
"#C c #c45e44",
"#D c #c46244",
"#E c #c46644",
"#F c #c4664c",
"#G c #c46a44",
"#H c #c46e44",
"#I c #c46e5c",
"#J c #c47244",
"#K c #c47644",
"#L c #c4865c",
"#M c #c4b664",
"#N c #c4ba64",
"#O c #c4ba6c",
"#P c #c4be64",
"#Q c #c4c254",
"#R c #c4c264",
"#S c #cc4634",
"#T c #cc4a34",
"#U c #cc4e34",
"#V c #cc5644",
"#W c #cc5a34",
"#X c #cc6234",
"#Y c #cc6634",
"#Z c #cc664c",
"#0 c #cc764c",
"#1 c #ccc254",
"#2 c #ccc25c",
"#3 c #ccc264",
"#4 c #ccc65c",
"#5 c #d43224",
"#6 c #d43a24",
"#7 c #d4422c",
"#8 c #d44e24",
"#9 c #d45a2c",
"a. c #d4622c",
"a# c #d46a3c",
"aa c #d47e34",
"ab c #d4c24c",
"ac c #d4c64c",
"ad c #d4c654",
"ae c #d4ca4c",
"af c #d4ce4c",
"ag c #dc221c",
"ah c #dc261c",
"ai c #dc2a1c",
"aj c #dc2e1c",
"ak c #dc321c",
"al c #dc361c",
"am c #dc3a1c",
"an c #dc3e1c",
"ao c #dc421c",
"ap c #dc461c",
"aq c #dc4a1c",
"ar c #dc4e1c",
"as c #dc4e24",
"at c #dc521c",
"au c #dc561c",
"av c #dc5a1c",
"aw c #dc5a24",
"ax c #dc5e1c",
"ay c #dc622c",
"az c #dc6a2c",
"aA c #dc923c",
"aB c #dc9a34",
"aC c #dcba44",
"aD c #dcca4c",
"aE c #dcca54",
"aF c #dcce44",
"aG c #dcd244",
"aH c #e45e24",
"aI c #e46224",
"aJ c #e46624",
"aK c #e4922c",
"aL c #e49e34",
"aM c #e4b234",
"aN c #e4c234",
"aO c #e4c634",
"aP c #e4d23c",
"aQ c #e4d644",
"aR c #ecd23c",
"aS c #ecd63c",
"aT c #ecda34",
/* pixels */
".i.i.n.n.j.i.i.i.i.i.q.r.r.q.r.r.w.s.s.n.q.r.n.i.i.i.g.a.b.g.i.j.n.w.z.A.r.i.e.e.j.A",
".j.i.r.n.r.n.q.j.n.r.r.q.n.n.r.r.r.r.n.i.n.r.j.n.j.i.e.d.d.j.n.n.s.A.A.w.i.c.g.i.r.z",
".n.i.n.q.r.w.r.r.n.n.w.n.n.r.r.q.n.n.i.j.r.r.n.i.j.i.e.c.e.i.j.r.w.N.A.i.d.e.n.r.w.w",
".r.i.r.r.q.s.w.n.j.r.r.r.r.q.r.n.j.i.j.n.w.s.n.i.j.i.g.e.i.n.r.w.A.A.r.g.c.n.s.w.n.w",
".w.q.n.q.r.r.r.n.n.r.w.w.r.r.n.i.i.n.q.r.w.w.r.i.n.j.i.i.j.q.r.w.A.A.i.d.o#i.r.n.r.s",
".A.r.i.n.n.s.r.n.r.s.w.z.s.n.j.i.i.n.s.w.s.w.r.i.j.i.i.i.n.n.s.A.O.r.e#h#u.r.q.r.r.O",
".A.n.e.j.n.w.r.j.q.w.s.w.r.n.n.j.n.r.w.s.w.r.j.i.i.i.i.j.j.n.w.A.z.vac#1.r.q.n.s.O.7",
".w.r.e.n.r.r.q.r.w.s.w.s.r.r.r.n.r.s.w.w.s.r.i.i.i.e.g.i.i.r.z.O#vaTaF.v.q.n.s.O.8.R",
".s.r.i.q.r.w.w.n.s.w.r.r.q.r.q.j.n.w.A.w.w.n.i.g.e.e.e.i.j.r#kafaTaG.h.j.n.r.O.R.7.B",
".q.r.n.r.w.s.n.r.r.q.n.n.n.q.n.n.r.A.w.A.r.j.e.e.g.e.g.n.s#3aTaQaG.h.i.r.r.r.A.O.A.n",
".n.r.w.q.r.r.j.n.r.n.j.n.r.r.r.n.r.s.w.s.n.i.e.g.e.i.n.5aGaTaTaP.2.e.n.q.w.B.O.B.w.j",
".i.j.w.r.n.i.i.n.r.r.r.r.w.z.r.j.q.r.w.n.j.i.i.i.i.p#PaQaTaTaQ.L.i.n.r.r.w.P.7.A.w.n",
".n.w.A.w.e.i.j.r.q.r.q.w.B.A.r.n.r.w.s.r.i.n.j.i.3aGaTaTaTaT.L.i.q.z.w.z.O.Q.A.s.r.i",
".r.z.O.s.g.g.i.n.r.w.w.A.O.A.q.r.w.s.w.n.j.r.n.e.xafaTaTaQaT#1.M.B.Q.O.B.O.w.j.i.e.c",
".s.A#0auatataraqapaoaoananamal#T#p.J.s.n.n.j.i.e.i.s.6afaTaQaTaSaE#k.s.w.r.e.d.e.d.g",
".w.A#Jauau#8araqapaoananamalakakajaj.H.n.i.i.g.e.i.w.A.s.xacaPaPaQaSab.u.e.b.e.i.i.s",
".w.P.0#aataraqaq#r#d.W#d#d#Uakajajai#x.n.i.j.i.e.r.s.K.s.3#1aTaSaPaR#1.t.f.F.l.j.n.w",
".A.Q.O.j#naraqap.W.y.z.B.A.w#Sajaiai#w.j.n.i.g.i.q.N#vaFaSaPaSaQ#P.o...c.9at.F.q.r.r",
".A.Q.z.c#naraqap.W.A.A.O.O.z#yaiaiah#w.i.j.i.e.m#PaSaSaQaSaQ#N.N.z.g.#.Fatau.Y.q.n.r",
".z.O.n.a#oaraqap.W.z.z.B.A.Iajaiai#5.k.e.g.uaaasahaiajakal#7#q.1.s.T#Aaqat#8#Y#H#J.r",
".w.s.q.d#naqaqapaoananalalakajai#5.C.e#haGaQaHaganay#9#lalalan#I.n#maqaratauauavax.q",
".A.r.n.i#qaraqapaoaoamamalakajaiahahawaTaTaTaxag#g.z.n.e#zamam#C.e.d.n#8arau.G.r.r.r",
".s.n.n.j#Earaqap#r#d#d#f#d.9#6ajaiahagaMaPaSaQaA#L.V.E.S#7aman#C.b.i.naratat.X.q.q.r",
".r.j.r.n#qaraqap.W.w.B.O.w.j.UaiaiaiahaxaTaOamaiaiajajakalaman#C.e.j.naratat.X.r.r.r",
".q.n.q.n#Garaqaq.X.w.z.A.s.i.Dajajaiai#y#ja#aiaiajaLaLaPa.aman#C.n.j.qar#8au.X.r.q.r",
".n.n.r.q#Xararap.X.w.w.w.s.i#lakajajai#r.A#VaiajaIaPaRaPazamao#D.n.n.jarauau.X.q.r.w",
".n.r#c#Y#8ataraq#W#D#D#C#B#7alalakakaj#t#4aJajajapaC#M.Zamanao#8.f.l.g#Wataua..X.J.r",
".j.r#JavauataraqaqapaoaoanamamalalakaBaPaSaMakakalalamamanaoaoapaq.j.j#satavavax#K.r",
".j.n#c#H#H#q#G#E#E#F#Z#D#A#A#XazaKaNaSaSaP#1#b#Tamam#B#.###C#C#D#E.n.q.l#.#Yax#K#e.w",
".n.n.s.s.q.n.j.r.w.A.O#j#QaPaTaPaPaTaF#P.K.n.i.i.j.q.r.r.n.q.n.r.r.q.r.q.q.z.A.w.A.A",
".n.r.r.w.n.j.i.q.4#RaGaTaPaTaTaSae#u.w.w.s.r.j.n.q.n.r.j.n.r.r.q.r.n.q.n.n.s.A.A.z.A",
".n.r.q.r.r.i.n.n.M#3aQaTaTaQaPaTad#j.w.s.r.n.q.r.r.n.r.q.r.q.r.r.r.r.n.r.r.n.n.q.n.i",
".q.n.r.w.s.n.n.s.w.A.z#uaeaPaTaPaQaSaP#O.M.n.r.w.q.r.s.r.n.r.q.n.q.n.r.n.n.r.j.e.a.c",
".r.q.n.r.r.r.r.w.w.A.w.y#2aQaSaPaSaPaD#N.4.j.n.r.r.w.w.n.r.q.n.j.n.r.n.j.q.n.i.g.e.g",
".r.n.n.q.w.q.r.A.s.w#uaGaPaSaPaS#2#i.w.s.r.n.n.w.s.r.r.i.n.j.n.j.n.n.q.r.n.r.n.j.j.j",
".j.n.j.r.r.w.r.w.yaeaQaSaSac#h.q.w.w.s.w.n.j.n.s.w.w.j.i.i.j.n.j.r.r.r.n.r.q.n.n.n.n",
".n.j.n.n.s.w.q#vaPaSaF#u.m.i.e.j.r.w.r.r.r.n.n.s.w.r.i.e.i.n.j.n.n.r.n.q.r.r.j.n.j.r",
".r.n.j.n.n.4aGaS#R.4.q.n.j.i.n.j.n.n.q.n.r.j.n.w.w.r.e.i.i.j.n.n.r.r.n.r.n.r.j.n.n.r",
".n.r.n.i#Nae#j.z.O.s.q.j.i.j.j.q.n.s.r.j.n.n.r.r.s.n.i.i.j.i.n.j.r.j.n.j.n.n.n.j.r.r",
".r.r.v.5.v.A.O.A.A.w.n.i.i.j.n.n.r.s.w.n.r.r.q.j.n.n.j.i.i.n.j.n.n.n.j.r.r.n.n.r.r.w",
".n.q.i.j.w.B.Q.O.w.n.j.g.e.i.i.n.n.r.A.A.q.r.n.i.j.r.n.j.n.j.n.r.n.r.n.q.r.r.w.s.w.w",
".n.i.j.w.B.Q.O.A.r.j.e.e.d.e.i.r.r.q.A.O.r.j.n.i.n.w.s.n.j.r.r.r.r.q.r.r.r.w.z.A.w.s"
};
