/* XPM */
static char * batmon_bat_xpm[] = {
"26 32 18 1",
"  	s mask c none",
".	c #5A5A5F5F5959",
"X	c #AAAA76761717",
"o	c #D2D292921C1C",
"O	c #6A6A6F6F6969",
"+	c #80807A7A5F5F",
"@	c #B1B188883636",
"#	c #898967672727",
"$	c #BEBE84841919",
"%	c #BCBC82821919",
"&	c #535339390B0B",
"*	c #000000000000",
"=	c #6F6F4D4D0E0E",
"-	c #060604040000",
";	c #8B8B61611212",
":	c #222218180404",
">	c #A7A774741616",
",	c #3E3E2B2B0808",
"                          ",
"                          ",
"      . Xo                ",
"    O+@oooo               ",
"    #oooooo               ",
"   $oooooooo              ",
"   oooooooooo             ",
"   oooooooooo             ",
"    oooooooooo            ",
"     ooooooooo            ",
"     oooooooooo           ",
"      ooooooo%&*          ",
"      oooooo=-**          ",
"       ooo;:*****         ",
"       o>,****o**         ",
"        *******o**        ",
"         ******o**        ",
"         *******o**       ",
"          ******o***      ",
"          *******o**      ",
"           ******o***     ",
"           *******o**     ",
"            **********    ",
"             *********    ",
"             **********   ",
"              **********  ",
"              **********  ",
"               *********  ",
"                *******   ",
"                *****     ",
"                 **       ",
"                 *        "};
