/* XPM */
static char * Default_black_xpm[] = {
"150 20 65 1",
" 	c None",
".	c #585C58",
"+	c #606460",
"@	c #686868",
"#	c #707070",
"$	c #585858",
"%	c #484848",
"&	c #383838",
"*	c #202420",
"=	c #181818",
"-	c #181C18",
";	c #282828",
">	c #282C28",
",	c #202020",
"'	c #080C08",
")	c #303430",
"!	c #606060",
"~	c #101410",
"{	c #505050",
"]	c #383C38",
"^	c #808480",
"/	c #909090",
"(	c #707470",
"_	c #303030",
":	c #F8FCF8",
"<	c #989C98",
"[	c #C8C8C8",
"}	c #404040",
"|	c #484C48",
"1	c #B8B8B8",
"2	c #D0D4D0",
"3	c #787878",
"4	c #F0F0F0",
"5	c #B8BCB8",
"6	c #686C68",
"7	c #909490",
"8	c #E0E4E0",
"9	c #A0A0A0",
"0	c #404440",
"a	c #E0E0E0",
"b	c #101010",
"c	c #888C88",
"d	c #C0C4C0",
"e	c #A8ACA8",
"f	c #D0D0D0",
"g	c #A8A8A8",
"h	c #888888",
"i	c #989898",
"j	c #C0C0C0",
"k	c #F0F4F0",
"l	c #D8DCD8",
"m	c #E8ECE8",
"n	c #A0A4A0",
"o	c #B0B4B0",
"p	c #B0B0B0",
"q	c #F8F8F8",
"r	c #E8E8E8",
"s	c #080808",
"t	c #C8CCC8",
"u	c #808080",
"v	c #787C78",
"w	c #D8D8D8",
"x	c #000400",
"y	c #505450",
"z	c #000000",
".+@#$%&*====-;>.+@#$%&*====-;>.+@#$%&*====-;>.+@#$%&*====-;>.+@#$%&*====-;>.+@#$%&*====-;>.+@#$%&*====-;>.+@#$%&*====-;>.+@#$%&*====-;>.+@#$%&*====-;>",
"+=-,,,,,,,,,-')+=-,,,,,,,,,-')+=-,,,,,,,,,-')+=-,,,,,,,,,-')+=-,,,,,,,,,-')+=-,,,,,,,,,-')+=-,,,,,,,,,-')+=-,,,,,,,,,-')+=-,,,,,,,,,-')+=-,,,,,,,,,-')",
"!-,,,,,,,,,,,~)!-,,,,,,,,,,,~)!-,,,,,,,,,,,~)!-,,,,,,,,,,,~)!-,,,,,,,,,,,~)!-,,,,,,,,,,,~)!-,,,,,,,,,,,~)!-,,,,,,,,,,,~)!-,,,,,,,,,,,~)!-,,,,,,,,,,,~)",
"{-,**]^/(_**,~){-,****]::**,~){-,*]<[[/}**,~){-,*********,~){-,*********,~){-,*********,~){-,*********,~){-,*********,~){-,*|1::2@**,~){-,*********,~)",
"{,**3::::4{,='&{,***;)5::;,='&{,*|4::::4{,='&{,**.5::26;,='&{,***;;3[[3,='&{,**/777773,='&{,***78:87),='&{,*//777777(='&{,*|4:::::^,='&{,**}9[[^);,='&",
"0*;0::[78:a=~b&0*;;3[::::-=~b&0*;2:8662:a=~b&0*;!::::::+=~b&0*;;>>&4::c=~b&0*;&::::::d=~b&0*;;5:::::<=~b&0*;::::::::d~b&0*;e:20;e:a=~b&0*;{4::::2>=~b&",
"%>>9:8,-)::.~b&%>>>7:::::~~~b&%>0::3,-!::}~b&%>>5:1>;a:f~~b&%>>>;*g:::h~~b&%>>!:8/cch6~~b&%>>!::(-c::*~b&%>>77//ci::h~b&%>>[:/,-{::~~b&%>>jkl!!m:h~~b&",
"}**[:g~~~a:h~b&}***-=~h::~~~b&}*{[d0~~{::|~b&}**::{~~h::~~b&}***-0:n::h~~b&}**@:g~~~~~~~b&}**e:d~~*||,~b&}***-=~~o:o~~b&}**/:a_~n:p~~b&}*}44.~~@:a~~b&",
"_==4:h~~~d:o~b&_===~~~h::~~~b&_===~~~~n::,~b&_=={{*~~n:f~~b&_===~dm_::h~~b&_==hq^_|_~~~~b&_==d:h|h3_~~~b&_===~~~@qm,~~b&_==*5kkkk2]~~b&_={44|~~|q:,~b&",
";~~::h~~~d:db'&;~~~~~~h::~~b'&;~~~~~~3::n~b'&;~~~~~hn:m|~b'&;~~~@q^~qq^~b'&;~~/42444e,~b'&;~~::mqqqm@~b'&;~~~~~,am@~~b'&;~~%lrrrrri~b'&;~]44@~~@kq|b'&",
"_b~::h~~~d:j's&_b~~~~~^kkbb's&_b~~~,9kkt,b's&_b~~~~::ql]b's&_b~,22,~44ub's&_b~144dd44<b's&_b~kkke^8k8-'s&_b~~~~v8t~bb's&_b~w85,~788&'s&_b~242$$amm%'s&",
"_s'4:hbbbj:pxx&_s'bbbbv88sxxx&_s'b>jrrn-sxxx&_s'bbb|+242xxx&_s'vr+bbmmvxxx&_s'+vybbnrr~xx&_s'441bb%44.xx&_s'bbbw86'sxxx&_s0al0bb-aa(xx&_s'$mmrr8rr}xx&",
")zxj:9xxxl:uzz&)zxxsxx#wwzzzz&)zx~2aa$xxzzzz&)z~00~xx|44]zz&)zxp8eee88[uzz&)zxxsxxx&ll&zz&)zxtr3xxxrr(zz&)zxxs|88bxzzzz&)z&ww%xxbww!zz&)zxx_/gcyaa-zz&",
"&zzc:lzz,::{zz)&zzzzzz6wwzzzz)&zznll;zzzzzzz)&z]k4]zz&rr&zz)&zze8aaaaaagzz)&z-66-zz)ww;zz)&zz<avzz'aayzz)&zzzzhlozzzzzz)&zztwp''hww=zz)&zzzzzzz{wtzzz)",
"&zz,::5ul:lzzz)&zzzzzz6wwzzzz)&z=wwwwwwww)zz)&zzwag''oa2zzz)&zz;&)))wwh;zz)&z'w26zz/2[zzz)&zz{lt)zhll-zz)&zzzz5w6zzzzzz)&zz{wwwwww3zzz)&zzjwhz'pwhzzz)",
")zzz!::::m_zzz))zzzzzz{99zzzz))z)wwwwwwww)zz))zz!lwwwwlyzzz))zzzzzzzww6zzz))zz(ffgoff.zzz))zzzpwwwww3zzz))zzzzww{zzzzzz))zzz09wwp{zzzz))zz6wwp5wt=zzz)",
",zzzz,#u!bzzzz),zzzzzzzzzzzzz),zzzzzzzzzzzzz),zzz09ww90zzzz),zzzzzzzww6zzz),zz'(tttj@zzzz),zzz'h5w5!zzzz),zzz)ww)zzzzzz),zzzzzzzzzzzzz),zzz3www5;zzzz)",
",zzzzzzzzzzzzz_,zzzzzzzzzzzzz_,zzzzzzzzzzzzz_,zzzzzzzzzzzzz_,zzzzzzzzzzzzz_,zzzz'))zzzzzz_,zzzzzzzzzzzzz_,zzzzzzzzzzzzz_,zzzzzzzzzzzzz_,zzzz'&;zzzzzz_",
"*zzzzzzzzzzzzz**zzzzzzzzzzzzz**zzzzzzzzzzzzz**zzzzzzzzzzzzz**zzzzzzzzzzzzz**zzzzzzzzzzzzz**zzzzzzzzzzzzz**zzzzzzzzzzzzz**zzzzzzzzzzzzz**zzzzzzzzzzzzz*",
"*&}}]]]]&))_>,~*&}}]]]]&))_>,~*&}}]]]]&))_>,~*&}}]]]]&))_>,~*&}}]]]]&))_>,~*&}}]]]]&))_>,~*&}}]]]]&))_>,~*&}}]]]]&))_>,~*&}}]]]]&))_>,~*&}}]]]]&))_>,~"};
