/* XPM */
static char * slashsplash_xpm[] = {
"240 40 32 1",
" 	c None",
".	c #FFFFFF",
"+	c #073A3C",
"@	c #0A5A54",
"#	c #0C6261",
"$	c #026664",
"%	c #064A44",
"&	c #2E7A7C",
"*	c #628E8C",
"=	c #6AA6A4",
"-	c #428A8C",
";	c #1A1E1C",
">	c #CAD2D4",
",	c #FEFEFC",
"'	c #E2E6E4",
")	c #8DB3B2",
"!	c #AACAC4",
"~	c #929A9C",
"{	c #072A2C",
"]	c #868A84",
"^	c #020404",
"/	c #B2B6BC",
"(	c #262A2C",
"_	c #5A5E5C",
":	c #A6AAA4",
"<	c #2E6A64",
"[	c #464A4C",
"}	c #363A3C",
"|	c #4A7674",
"1	c #646664",
"2	c #325A54",
"3	c #2E4A4C",
"...................+@#$$$$$$$$$$$$$$$$$$$$$$$$$$$$$$$$$$$$$$$$$$$$$$$$$$$$$$$$$$$$$$$$$$$$$$$$$$$$$$$$$$$$$$$$$$$$$$$$$$$$$$$$$$$$$$$$$$$$$$$$$$$$$$$$$$$$$$$$$$$$$$$$$$$$$$$$$$$$$$$$$$$$$$$$$$$$$$$$$$$$$$$$$$$$$$$$$$$$$$$$$$$$$$$$$$$$$$$$$$",
"...............%#$$$$$$$$$$$$$$$$$$$$$$$$$$$$$$$$$$$$$$$$$$$$$$$$$$$$$$$$$$$$$$$$$$$$$$$$$$$$$$$$$$$$$$$$$$$$$$$$$$$$$$$$$$$$$$$$$$$$$$$$$$$$$$$$$$$$$$$$$$$$$$$$$$$$$$$$$$$$$$$$$$$$$$$$$$$$$$$$$$$$$$$$$$$$$$$$$$$$$$$$$$$$$$$$$$$$$$$$$$$$$$$",
".............#$$$$$$$$$$$$$$$$$$$$$$$$$$$$$$$$$$$$$$$$$$$$$$$$$$$$$$$$$$$$$$$$$$$$$$$$$$$$$$$$$$$$$$$$$$$$$$$$$$$$$$$$$$$$$$$$$$$$$$$$$$$$$$$$$$$$$$$$$$$$$$$$$$$$$$$$$$$$$$$$$$$$$$$$$$$$$$$$$$$$$$$$$$$$$$$$$$$$$$$$$$$$$$$$$$$$$$$$$$$$$$$$$$",
"...........@$$$$$$$$$$$$$$$$$$$$$$$$$$$$$$$$$$$$$$$$$$$$$$$$$$$$$$$$$$$$$$$$$$$$$$$$$$$$$$$$$$$$$$$$$$$$$$$$$$$$$$$$$$$$$$$$$$$$$$$$$$$$$$$$$$$$$$$$$$$$$$$$$$$$$$$$$$$$$$$$$$$$$$$$$$$$$$$$$$$$$$$$$$$$$$$$$$$$$$$$$$$$$$$$$$$$$$$$$$$$$$$$$$$$",
".........@$$$$&&*==-&&$$$$$&&&&&&&&$$$$$$$$$$$$$$$$$$$$$$$$$$$$$$$$$$$$$&&&&&&&&&$$$$$$$$$$$$$$$$$$$$$$&&&&&&&&&$$$$$$$$$$$$$$$$$$$$$$$$$$$$$$$&$$$$$$$$$$$$$$$$$$$$$$$$$$$$$$$$$$$$$$$$$$$$$$$$$$$$$$$$$$$$$$$$$$$$$$$$$$$$$$$$$$$$$$$$$$$$$$$$",
"........;$$$$->,,,,,'>)$$&!>>>>>>>>$$$$$$$$$$$$$$$$$$$$$$$$$$$$$$$$$$$$*>>>>>>>>>=$$$$$$$$$$$$$$$$$$$$$>>>>>>>>>!$$$$$$$$$$$$$$$$$$$$$$$$$$$$-!>!$$$$$$$$$$$$$$$$$$$$$$$$$$$$$$$$$$$$$$$$$$$$$$$$$$$$$$$$$$$$$$$$$$$$$$$$$$$$$$$$$$$$$$$$$$$$$$$",
".......+$$$$',,,,,,,,,,%$-',,,,,,,,%$$$$$$$$$$$$$$$$$$$$$$$$$$$$$$$$$$$=,,,,,,,,,~$$$$$$$$$$$$$$$$$$$$$,,,,,,,,,'%$$$$$$$$$$$$$$$$$$$$$$$$$$$',,'{$$$$$$$$$$$$$$$$$$$$$$$$$$$$$$$$$$$$$$$$$$$$$$$$$$$$$$$$$$$$$$$$$$$$$$$$$$$$$$$$$$$$$$$$$$$$$$",
"......+$$$$),,,,,,,,,,]{$-',,,,,,,,;$$$$$$$$$$$$$$$$$$$$$$$$$$$$$$$$$$$=,,,,,,,,,]$$$$$$$$$$$$$$$$$$$$$,,,,,,,,,'{$$$$$$$$$$$$$$$$$$$$$$$$$$>,,,'^$$$$$$$$$$$$$$$$$$$$$$$$$$$$$$$$$$$$$$$$$$$$$$$$$$$$$$$$$$$$$$$$$$$$$$$$$$$$$$$$$$$$$$$$$$$$$$",
".....;$$$$$),,,,,,,,/(^{$-',,,,,,,,;$$$$$$$$$$$$$$$$$$$$$$$$$$$$$$$$$$$=,,,,,,,,,]$$$$$$$$$$$$$$$$$$$$$,,,,,,,,,'{$$$$$$$$$$$$$$$$$$$$$$$$&',,,,'^$$$$$$$$$$$$$$$$$$$$$$$$$$$$$$$$$$$$$$$$$$$$$$$$$$$$$$$$$$$$$$$$$$$$$$$$$$$$$$$$$$$$$$$$$$$$$$",
"....@$$$$$$),,,,,,,,>($$$-',,,,,,,,;$$$$$&&=>',,,')-&$$$$$$$&&---&&$$$$=,,,,,,,,,~*>,,,,,,*$$$$$$&=>',,,,,,,,,,,'{$$$$$&=)>>>=-&$$$$$$&*),,,,,,,'($$$$$$$$$$$$$$$$$$$$$$$$$$$$$$$$$$$$$$$$$$$$$$$$$$$$$$$$$$$$$$$$$$$$$$$$$$$$$$$$$$$$$$$$$$$$$$",
"....$$$$$$$),,,,,,,,,_$$$-',,,,,,,,;$$$$=>',,,,,,,,,'*$$$$$*!>,,,'>)=$$=,,,,,,,,,',,,,,,,,,&$$$$->,,,,,,,,,,,,,,'{$$$$&!,,,,,,,)&$$$$$>,,,,,,,,,,>$$$$$$$$$$$$$$$$$$$$$$$$$$$$$$$$$$$$$$$$$$$$$$$$$$$$$$$$$$$$$$$$$$$$$$$$$$$$$$$$$$$$$$$$$$$$$$",
"...@$$$$$$$*,,,,,,,,,,$$$-',,,,,,,,;$$$$,,,,,,,,,,,,,,,-$!,,,,,,,,,,,;$=,,,,,,,,,,,,,,,,,,,'$$$!,,,,,,,,,,,,,,,,'{$$$!,,,,':,,,,,)$$$$,,,,,,,,,,,,+$$$$$$$$$$$$$$$$$$$$$$$$$$$$$$$$$$$$$$$$$$$$$$$$$$$$$$$$$$$$$$$$$$$$$$$$$$$$$$$$$$$$$$$$$$$$$",
"...$$$$$$$$@,,,,,,,,,,*$$-',,,,,,,,;$$$$(;;^^;>,,,,,,,,,&,,,,,,,,,:;;^$=,,,,,,,,,>;/,,,,,,,,<$),,,,,,,,,,,,,,,,,'{$$',,,,,[^~,,,,,!&$$,,,,,,,,,,,,;@$$$$$$$$$$$$$$$$$$$$$$$$$$$$$$$$$$$$$$$$$$$$$$$$$$$$$$$$$$$$$$$$$$$$$$$$$$$$$$$$$$$$$$$$$$$$",
"..#$$$$$$$$$),,,,,,,,,,$$-',,,,,,,,;$$$$$$$$&&!,,,,,,,,,;,,,,,,,,,]$$$$=,,,,,,,,,]$!,,,,,,,,;),,,,,,,(^,,,,,,,,,'{$!,,,,,,}$),,,,,,'$$$~,,,,,,,,'^^@$$$$$$$$$$$$$$$$$$$$$$$$$$$$$$$$$$$$$$$$$$$$$$$$$$$$$$$$$$$$$$$$$$$$$$$$$$$$$$$$$$$$$$$$$$$$",
"..$$$$$$$$$$$,,,,,,,,,,)$-',,,,,,,,;$$$&)',,,,,,,,,,,,,,;,,,,,,,,,,&$$$=,,,,,,,,,]$!,,,,,,,,;',,,,,,,^$,,,,,,,,,'{!,,,,,,,}$),,,,,,,_$$),,,,,,,,'^$$$$$$$$$$$$$$$$$$$$$$$$$$$$$$$$$$$$$$$$$$$$$$$$$$$$$$$$$$$$$$$$$$$$$$$$$$$$$$$$$$$$$$$$$$$$$$",
"..$$$$$$$$$$$,,,,,,,,,,>$-',,,,,,,,;$$&!,,,,,,,,,,,,,,,,;>,,,,,,,,,=$$$=,,,,,,,,,]$!,,,,,,,,;',,,,,,,^$,,,,,,,,,'{>,,,,,,,}$),,,,,,,]@$),,,,,,,,'^$$$$$$$$$$$$$$$$$$$$$$$$$$$$$$$$$$$$$$$$$$$$$$$$$$$$$$$$$$$$$$$$$$$$$$$$$$$$$$$$$$$$$$$$$$$$$$",
".#$$$$$$$$$$$[,,,,,,,,,,&-',,,,,,,,;$$',,,,,,,',,,,,,,,,;$),,,,,,,,,/$$=,,,,,,,,,]$!,,,,,,,,;,,,,,,,,^$,,,,,,,,,'{,,,,,,,,}$),,,,,,,>@$),,,,,,,,'^$$$$$$$$$$$$$$$$$$$$$$$$$$$$$$$$$$$$$$$$$$$$$$$$$$$$$$$$$$$$$$$$$$$$$$$$$$$$$$$$$$$$$$$$$$$$$$",
".$$$$$$$$$$$$$,,,,,,,,,,!-',,,,,,,,;$=,,,,,,,^],,,,,,,,,;$$,,,,,,,,,,*$=,,,,,,,,,]$!,,,,,,,,;,,,,,,,,^$,,,,,,,,,'{,,,,,,,,}$),,,,,,,>^$),,,,,,,,'^$$$$$$$$$$$$$$$$$$$$$$$$$$$$$$$$$$$$$$$$$$$$$$$$$$$$$$$$$$$$$$$$$$$$$$$$$$$$$$$$$$$$$$$$$$$$$$",
".$$$$$$$$$$$$$],,,,,,,,,,-',,,,,,,,;&),,,,,,,{),,,,,,,,,;$$*,,,,,,,,,,&=,,,,,,,,,]$!,,,,,,,,;',,,,,,,^$,,,,,,,,,'{',,,,,,,}$),,,,,,,~^$),,,,,,,,'^$$$$$$$$$$$$$$$$$$$$$$$$$$$$$$$$$$$$$$$$$$$$$$$$$$$$$$$$$$$$$$$$$$$$$$$$$$$$$$$$$$$$$$$$$$$$$$",
"+$$$$$$$$$$$$$&,,,,,,,,,,|',,,,,,,,;&),,,,,,,{),,,,,,,,,;$$$>,,,,,,,,,]=,,,,,,,,,]$!,,,,,,,,;!,,,,,,,^$,,,,,,,,,'{=',,,,,,}$),,,,,,,}{$),,,,,,,,'^$$$$$$$$$$$$$$$$$$$$$$$$$$$$$$$$$$$$$$$$$$$$$$$$$$$$$$$$$$$$$$$$$$$$$$$$$$$$$$$$$$$$$$$$$$$$$$",
"<$$$$$$$$$$$$$*,,,,,,,,,'|',,,,,,,,;&),,,,,,,{),,,,,,,,,;$$$),,,,,,,,,/=,,,,,,,,,]$!,,,,,,,,;-',,,,,,^$,,,,,,,,,'{&!,,,,,,}$),,,,,,'^@$),,,,,,,,'^$$$$$$$$$$$$$$$$$$$$$$$$$$$$$$$$$$$$$$$$$$$$$$$$$$$$$$$$$$$$$$$$$$$$$$$$$$$$$$$$$$$$$$$$$$$$$$",
"$$$$$$$$$$$$-!,,,,,,,,,,_|',,,,,,,,;$|,,,,,,,!!,,,,,,,,,;$$$),,,,,,,,,1=,,,,,,,,,]$!,,,,,,,,;$<,,,,,,>),,,,,,,,,'{$$,,,,,,}$),,,,,/(^$$),,,,,,,,'^$$$$$$$$$$$$$$$$$$$$$$$$$$$$$$$$$$$$$$$$$$$$$$$$$$$$$$$$$$$$$$$$$$$$$$$$$$$$$$$$$$$$$$$$$$$$$$",
"$$$$$$$$$$$$,,,,,,,,,,,1^-',,,,,,,,;$$:,,,,,,,,,,,,,,,,,;!,,,,,,,,,,,/^=,,,,,,,,,]$!,,,,,,,,;$$@>,,,,,,,,,,,,,,,'{$$$!,,,,'>,,,,,~^^$$$),,,,,,,,'^$$$$$$$$$$$$$$$$$$$$$$$$$$$$$$$$$$$$$$$$$$$$$$$$$$$$$$$$$$$$$$$$$$$$$$$$$$$$$$$$$$$$$$$$$$$$$$",
"$$$$$$$$$$$$/>',,,,>/]^^$->''''''''^$$$}:>>''''''''''''';)>',,,,,'>1(^{='''''''''1$)'''''''';$$$%;1/>>''''''''''>{$$$$}/,,,,,,':;^+$$$$)''''''''>^$$$$$$$$$$$$$$$$$$$$$$$$$$$$$$$$$$$$$$$$$$$$$$$$$$$$$$$$$$$$$$$$$$$$$$$$$$$$$$$$$$$$$$$$$$$$$$",
"$$$$$$$$$$$$%^^^^^^^^{+$$$%^^^^^^^^^$$$$+{^^^^^^^^^^^^^^^$+^^^^^^^^^+@$$^^^^^^^^^^$%^^^^^^^^^$$$$$+++^^^^^^^^^^^^{$$$$$%^^(((^^^{$$$$$$$@^^^^^^^^^$$$$$$$$$$$$$$$$$$$$$$$$$$$$$$$$$$$$$$$$$$$$$$$$$$$$$$$$$$$$$$$$$$$$$$$$$$$$$$$$$$$$$$$$$$$$$$",
"$$$$$$$$$$$$$%%%%%%%%@$$$$$%%%%%%%%%$$$$$@%%%%%%%%%%%%%%%$$%%%%%%%%%$$$$%%%%%%%%%%$$%%%%%%%%%$$$$$$$$%%%%%%%%%%%%@$$$$$$%%{^^^^%@$$$$$$$$%%%%%%%%%$$$$$$$$$$$$$$$$$$$$$$$$$$$$$$$$$$$$$$$$$$$$$$$$$$$$$$$$$$$$$$$$$$$$$$$$$$$$$$$$$$$$$$$$$$$$$$",
"$$$$$$$$$$$$$$$$$$$$$$$$$$$$$$$$$$$$$$$$$$$$$$$$$$$$$$$$$$$$$$$$$$$$$$$$$$$$$$$$$$$$$$$$$$$$$$$$$$$$$$$$$$$$$$$$$$$$$$$$$$$$$$$$$$$$$$$$$$$$$$$$$$$$$$$$$$$$$$$$$$$$$$$$$$$$$$$$$$$$$$$$$$$$$$$$$$$$$$$$$$$$$$$$$$$$$$$$$$$$$$$$$$$$$$$$$$$$$$$$",
",,,,,,,,,,,,,,,,,,,,,,,,,,,,,,,,,,,,,,,,,,,,,,,,,,,,,,,,,,,,,,,,,,,,,,,,,,,,,,,,,,,,,,,,,,,,,,,,,,,,,,,,,,,,,,,,,,,,,,,,,,,,,,,,,,,,,,,,,,,,,,,,,,,,,,,.........................................................................................",
",,,,,,,,,,,,,,,,,,,,,,,,,,,,,,,,,,,,,,,,,,,,,,,,,,,,,,,,,,,,,,,,,,,,,,,,,,,,,,,,,,,,,,,,,,,,,,,,,,,,,,,,,,,,,,,,,,,,,,,,,,,,,,,,,,,,,,,,,,,,,,,,,,,,,,,.........................................................................................",
",,,,,,,,,$-,,$>,,,,,,,,,,,,,,,,,'@1,,,,,,,,,,$/,,$/,,,,,,,,,,><:,,,,,,,,,,,-$%-),-',,,,,'&%'$[,,'*,$2,,,,,,,,-),,,,,,,,,,,,,,=*,!/,,,,,,,,,,,,,,,,,,,,,.........................................................................................",
",,,,,,,,,$@,,$>,,,,,,,,,,,,,,,,,'%~,,,,,,,,,,$*',$~,,,,,,,,,,>%],,,,,,,,,,'${]@@,$:,,,,,>&['@],,'@,$+,,,,,,,,$+,,,,,,,,,,,,,,-@>)3,,,,,,,,,,,,,,,,,,,,,.........................................................................................",
",,,,,,,,,@+*,$>&$$>&/,$>*|$@<,,,-@1-<$),$$|,,@@&,$~-$$)'$$_)@$%]&2<,,,,,,,'$<''/!$3*$,-]-$%=@[,,*@_$@<&,-$$)!$%),>$&$<$'>$$<,$@1&%:!<$'!$$]$@*',,,,,,,,.........................................................................................",
",,,,,,,,,@3&>$)%{>@)1)%1@*&|]/,,'%'$~'$'@~>,,@]-:$]$+>@>@~>$1!%1@*1>,,,,,,,>_@$=,@~*$,-1>&1'@',,'%,$+'$>:+*%,${,,>+1$}*2,1*$>-@>){>$}!$!$_>@)_],,,,,,,,.........................................................................................",
",,,,,,,,,@3'@$)%323>@$(@%>)~$),,'%'$,,$>@,,,,@:,$$]@+22~@',@/>%]~|$/,,,,,,)>,,=$'@~*$,-1>&1'@',,'%,$+,$:@+1%,${,,>+]$[*2&@[$>-@>){>$323!$:,*|$*,,,,,,,,.........................................................................................",
",,,,,,,,,@3,)$>&$=@>-@!$[>&-$},,'%'&--{'@,,,,@:,!$~-$=@)@',=&$%]$*$}!),,,,'@&=${'$)>&=$1>&1'@',,'@,$+,$/$<$@,$%,,>+]$[*2&@-$>-@!)%,)<-%!$:,$=$;=!,,,,,,.........................................................................................",
",,,,,,,,,@[,,%>:2<;'=+,&],)@%1,,'+'>%2(,+,,,,<:,,%~>2<^!%','%+{]=@%]>{,,,,,2%<;(,|2,/@21'-1'%',,,@1&{,</-%+%>*%/,'+]*[)[>@2+]>@|,%/'%<;>&:,<@{()_,,,,,,.........................................................................................",
",,,,,,,,,,,,,,,,,,,,,,,,,,,,,,,,,,,,,,,,,,,,,,,,,,,,,,,,,,,,,,,,,,,,,,,,,,,,,,,,,,,,,,,,,,,,,,,,,,,,,,,,,,,,,,,,,,,,,,,,,,,,,,,,,,,,,,,,,,,,,,,,,,,,,,,.........................................................................................",
",,,,,,,,,,,,,,,,,,,,,,,,,,,,,,,,,,,,,,,,,,,,,,,,,,,,,,,,,,,,,,,,,,,,,,,,,,,,,,,,,,,,,,,,,,,,,,,,,,,,,,,,,,,,,,,,,,,,,,,,,,,,,,,,,,,,,,,,,,,,,,,,,,,,,,,.........................................................................................",
",,,,,,,,,,,,,,,,,,,,,,,,,,,,,,,,,,,,,,,,,,,,,,,,,,,,,,,,,,,,,,,,,,,,,,,,,,,,,,,,,,,,,,,,,,,,,,,,,,,,,,,,,,,,,,,,,,,,,,,,,,,,,,,,,,,,,,,,,,,,,,,,,,,,,,,.........................................................................................",
",,,,,,,,,,,,,,,,,,,,,,,,,,,,,,,,,,,,,,,,,,,,,,,,,,,,,,,,,,,,,,,,,,,,,,,,,,,,,,,,,,,,,,,,,,,,,,,,,,,,,,,,,,,,,,,,,,,,,,,,,,,,,,,,,,,,,,,,,,,,,,,,,,,,,,,........................................................................................."};
