/* XPM */
static char * cdburn_h_out_xpm[] = {
"40 10 41 1",
" 	c None",
".	c #DEDBDE",
"+	c #BDBEBD",
"@	c #737573",
"#	c #000000",
"$	c #4A0000",
"%	c #520000",
"&	c #590000",
"*	c #6B0000",
"=	c #850000",
"-	c #9E0000",
";	c #B80000",
">	c #C81C0A",
",	c #D73B15",
"'	c #E3521D",
")	c #EC6624",
"!	c #F6792B",
"~	c #FE8F30",
"{	c #FBBA23",
"]	c #F8E117",
"^	c #F8F144",
"/	c #F8F48C",
"(	c #F8F6D1",
"_	c #F9F6D4",
":	c #006900",
"<	c #4B0000",
"[	c #5A0000",
"}	c #6C0000",
"|	c #860000",
"1	c #9F0000",
"2	c #B90000",
"3	c #C81D0A",
"4	c #D83C15",
"5	c #E3531D",
"6	c #ED6624",
"7	c #F67A2C",
"8	c #FE9130",
"9	c #FBBB22",
"0	c #F8E316",
"a	c #F8F147",
"b	c #F8F48F",
".......................................+",
".++++++++++++++++++++++++++++++++++++++@",
".+@@@@@@@@@@@@@@@@@@@@@@@@@@@@@@@@@@@@+@",
".+@##################################.+@",
".+@##################################.+@",
".+....................................+@",
".+++++++++$%&*=-;>,')!~{]^/(___++:::+++@",
".+++@++@++<%[}|1234567890ab____++:::+++@",
".++++.++.++++++++++++++++++++++++++++++@",
"+@@@@@@@@@@@@@@@@@@@@@@@@@@@@@@@@@@@@@@@"};
