/* XPM */
static char * cdburn_v_in_xpm[] = {
"10 40 54 1",
" 	c None",
".	c #BDBEBD",
"+	c #DEDBDE",
"@	c #737573",
"#	c #000000",
"$	c #4C0000",
"%	c #510000",
"&	c #520000",
"*	c #580000",
"=	c #590000",
"-	c #530000",
";	c #5A0000",
">	c #5C0000",
",	c #540000",
"'	c #620000",
")	c #550000",
"!	c #8B0000",
"~	c #6C0000",
"{	c #570000",
"]	c #9C0000",
"^	c #790000",
"/	c #B20000",
"(	c #C81C0A",
"_	c #A60000",
":	c #E04C1B",
"<	c #F6792B",
"[	c #EA6123",
"}	c #F9D819",
"|	c #F8F5B1",
"1	c #F8F4A2",
"2	c #FAD01C",
"3	c #B41608",
"4	c #F8F157",
"5	c #F4752A",
"6	c #B81A0A",
"7	c #FE8A31",
"8	c #E85D21",
"9	c #B91F0E",
"0	c #FD9D2C",
"a	c #E2501D",
"b	c #C51608",
"c	c #FA822E",
"d	c #ED6725",
"e	c #DE481A",
"f	c #DA4217",
"g	c #E4561F",
"h	c #D73B15",
"i	c #D53713",
"j	c #DF4C1B",
"k	c #D33312",
"l	c #D23011",
"m	c #D12E10",
"n	c #D02C0F",
"o	c #00FF00",
".+++++++++",
"@........+",
"@...+@@@.+",
"@...+##@.+",
"@.@.+##@.+",
"@+..+#$@.+",
"@...##$@.+",
"@.@.#%$@.+",
"@+.##&$@.+",
"@..#*&$@.+",
"@..#=-$@.+",
"@..#;-$@.+",
"@..#>,$@.+",
"@.##')$@.+",
"@.#!~{$@.+",
"@.#]^=$@.+",
"@.#/!>$@.+",
"@.#(_~$@.+",
"@.#:(!$@.+",
"@.#<[($@.+",
"@.#}}}^@.+",
"@.#|123@.+",
"@.#4256@.+",
"@.#2789@.+",
"@.#05ab@.+",
"@.#cdeb@.+",
"@.##8fb@.+",
"@..#ghb@.+",
"@..#aib@.+",
"@..#jkb@.+",
"@..#elb@.+",
"@..##mb@.+",
"@...#nb@.+",
"@.oo##b@.+",
"@.oo+#b@.+",
"@.oo+##@.+",
"@...+##@.+",
"@...+++@.+",
"@........+",
"@@@@@@@@@."};
