/* XPM */
static char * cdburn_v_out_xpm[] = {
"10 40 41 1",
" 	c None",
".	c #BDBEBD",
"+	c #DEDBDE",
"@	c #737573",
"#	c #000000",
"$	c #4B0000",
"%	c #4A0000",
"&	c #520000",
"*	c #5A0000",
"=	c #590000",
"-	c #6C0000",
";	c #6B0000",
">	c #860000",
",	c #850000",
"'	c #9F0000",
")	c #9E0000",
"!	c #B90000",
"~	c #B80000",
"{	c #C81D0A",
"]	c #C81C0A",
"^	c #D83C15",
"/	c #D73B15",
"(	c #E3531D",
"_	c #E3521D",
":	c #ED6624",
"<	c #EC6624",
"[	c #F67A2C",
"}	c #F6792B",
"|	c #FE9130",
"1	c #FE8F30",
"2	c #FBBB22",
"3	c #FBBA23",
"4	c #F8E316",
"5	c #F8E117",
"6	c #F8F147",
"7	c #F8F144",
"8	c #F8F48F",
"9	c #F8F48C",
"0	c #F9F6D4",
"a	c #F8F6D1",
"b	c #006900",
".+++++++++",
"@........+",
"@...+@@@.+",
"@...+##@.+",
"@.@.+##@.+",
"@+..+##@.+",
"@...+##@.+",
"@.@.+##@.+",
"@+..+##@.+",
"@...+##@.+",
"@.$%+##@.+",
"@.&&+##@.+",
"@.*=+##@.+",
"@.-;+##@.+",
"@.>,+##@.+",
"@.')+##@.+",
"@.!~+##@.+",
"@.{]+##@.+",
"@.^/+##@.+",
"@.(_+##@.+",
"@.:<+##@.+",
"@.[}+##@.+",
"@.|1+##@.+",
"@.23+##@.+",
"@.45+##@.+",
"@.67+##@.+",
"@.89+##@.+",
"@.0a+##@.+",
"@.00+##@.+",
"@.00+##@.+",
"@.00+##@.+",
"@...+##@.+",
"@...+##@.+",
"@.bb+##@.+",
"@.bb+##@.+",
"@.bb+##@.+",
"@...+##@.+",
"@...+++@.+",
"@........+",
"@@@@@@@@@."};
