/* XPM */
static char * cdburn_h_in_xpm[] = {
"40 10 54 1",
" 	c None",
".	c #DEDBDE",
"+	c #BDBEBD",
"@	c #737573",
"#	c #000000",
"$	c #4C0000",
"%	c #790000",
"&	c #B41608",
"*	c #B81A0A",
"=	c #B91F0E",
"-	c #C51608",
";	c #510000",
">	c #520000",
",	c #530000",
"'	c #540000",
")	c #550000",
"!	c #570000",
"~	c #590000",
"{	c #5C0000",
"]	c #6C0000",
"^	c #8B0000",
"/	c #C81C0A",
"(	c #F9D819",
"_	c #FAD01C",
":	c #F4752A",
"<	c #E85D21",
"[	c #E2501D",
"}	c #DE481A",
"|	c #DA4217",
"1	c #D73B15",
"2	c #D53713",
"3	c #D33312",
"4	c #D23011",
"5	c #D12E10",
"6	c #D02C0F",
"7	c #580000",
"8	c #5A0000",
"9	c #620000",
"0	c #A60000",
"a	c #EA6123",
"b	c #F8F4A2",
"c	c #FE8A31",
"d	c #ED6725",
"e	c #E4561F",
"f	c #DF4C1B",
"g	c #9C0000",
"h	c #B20000",
"i	c #E04C1B",
"j	c #F6792B",
"k	c #F8F5B1",
"l	c #F8F157",
"m	c #FD9D2C",
"n	c #FA822E",
"o	c #00FF00",
".......................................+",
".++++++++++++++++++++++++++++++++++++++@",
".+@@@@@@@@@@@@@@@@@@@@@@@@@@@@@@@@@@@@+@",
".+@##$$$$$$$$$$$$$$$%&*=-----------##.+@",
".+@####;>>,,')!~{]^/(_:<[}|123456####.+@",
".+....###7~8{9]%^0/a(b_c:d<e[f}###....+@",
".+++++++######^gh/ij(kl_mn######+ooo+++@",
".+++@++@+++++##############++++++ooo+++@",
".++++.++.++++++++++++++++++++++++++++++@",
"+@@@@@@@@@@@@@@@@@@@@@@@@@@@@@@@@@@@@@@@"};
