/* XPM */
static char * cdrom_h_in_xpm[] = {
"40 10 8 1",
" 	c None",
".	c #DBDBDB",
"+	c #BCBCBC",
"@	c #757575",
"#	c #000000",
"$	c #999999",
"%	c #B7B7B7",
"&	c #00E003",
".......................................+",
".++++++++++++++++++++++++++++++++++++++@",
".+@@@@@@@@@@@@@@@@@@@@@@@@@@@@@@@@@@@@+@",
".+@##$$$$$$$$....%%%$@@#$$%%%%%%%%%##.+@",
".+@####$$$$....%%%%%$$@@#$$$%%%%%####.+@",
".+....###.....%%%%%%$$@@##$$$%%###....+@",
".+++++++######%%%%%%$$@@@#######+&&&+++@",
".+++@++@+++++##############++++++&&&+++@",
".++++.++.++++++++++++++++++++++++++++++@",
"+@@@@@@@@@@@@@@@@@@@@@@@@@@@@@@@@@@@@@@@"};
