/* XPM */
static char * cdrom_v_in_xpm[] = {
"10 40 8 1",
" 	c None",
".	c #DBDBDB",
"+	c #BCBCBC",
"@	c #757575",
"#	c #000000",
"$	c #999999",
"%	c #B7B7B7",
"&	c #00E003",
".........+",
".++++++++@",
".+++@@@@+@",
".+++@##.+@",
"..++@##.+@",
".+@+@#$.+@",
".+++##$.+@",
"..++#$$.+@",
".+@##$$.+@",
".++#.$$.+@",
".++#.$$.+@",
".++#..$.+@",
".++#..$.+@",
".+##....+@",
".+#%%...+@",
".+#%%%..+@",
".+#%%%..+@",
".+#%%%%.+@",
".+#%%%%.+@",
".+#%%%%.+@",
".+#$$$$.+@",
".+#$$$@.+@",
".+#@@@@.+@",
".+#@@@#.+@",
".+#@##$.+@",
".+###$$.+@",
".+##$$%.+@",
".++#$$%.+@",
".++#$%%.+@",
".++#%%%.+@",
".++#%%%.+@",
".++##%%.+@",
".+++#%%.+@",
".+&&##%.+@",
".+&&@#%.+@",
".+&&@##.+@",
".+++@##.+@",
".+++....+@",
".++++++++@",
"+@@@@@@@@@"};
