/* XPM */
static char * cdrom_v_out_xpm[] = {
"10 40 6 1",
" 	c None",
".	c #DBDBDB",
"+	c #BCBCBC",
"@	c #757575",
"#	c #000000",
"$	c #006800",
".........+",
".++++++++@",
".+++@@@@+@",
".+++@##.+@",
"..++@##.+@",
".+@+@##.+@",
".+++@##.+@",
"..++@##.+@",
".+@+@##.+@",
".+++@##.+@",
".+++@##.+@",
".+++@##.+@",
".+++@##.+@",
".+++@##.+@",
".+++@##.+@",
".+++@##.+@",
".+++@##.+@",
".+++@##.+@",
".+++@##.+@",
".+++@##.+@",
".+++@##.+@",
".+++@##.+@",
".+++@##.+@",
".+++@##.+@",
".+++@##.+@",
".+++@##.+@",
".+++@##.+@",
".+++@##.+@",
".+++@##.+@",
".+++@##.+@",
".+++@##.+@",
".+++@##.+@",
".+++@##.+@",
".+$$@##.+@",
".+$$@##.+@",
".+$$@##.+@",
".+++@##.+@",
".+++....+@",
".++++++++@",
"+@@@@@@@@@"};
