/* XPM */
static char * floppy_h_out_xpm[] = {
"40 10 9 1",
" 	c None",
".	c #DBDBDB",
"+	c #BCBCBC",
"@	c #757575",
"#	c #606060",
"$	c #000000",
"%	c #006800",
"&	c #919191",
"*	c #FFFFFF",
".......................................+",
".++++++++++++@@@@@@@@@@@@@@++++++++++++@",
".+@@@@@@@@@@@@############.@@@@@@@@@@@+@",
".+@$$$$$$$$$$$$$$$$$$$$$$$$$$$$$$$$$$.+@",
".+@$$$$$$$$$$$$$$$$$$$$$$$$$$$$$$$$$$.+@",
".+@$$$$$$$$$$$$$$$$$$$$$$$$$$$$$$$$$$.+@",
".+............############............+@",
".+++++%%%++++@&&&&&&&&&&&&.++++++***+++@",
".+++++%%%++++@.............+++++++@@@++@",
"+@@@@@@@@@@@@@@@@@@@@@@@@@@@@@@@@@@@@@@@"};
