/* XPM */
static char * floppy_v_out_xpm[] = {
"10 40 10 1",
" 	c None",
".	c #DBDBDB",
"+	c #BCBCBC",
"@	c #757575",
"#	c #000000",
"$	c #006800",
"%	c #919191",
"&	c #606060",
"*	c #FFFFFF",
"=	c #7F7F7F",
".........+",
".++++++++@",
".++@@@@@+@",
".++@###.+@",
".++@###.+@",
".++@###.+@",
".$$@###.+@",
".$$@###.+@",
".$$@###.+@",
".++@###.+@",
".++@###.+@",
".++@###.+@",
".++@###.+@",
".@@@###..@",
".@%&###&.@",
".@%&###&.@",
".@%&###&.@",
".@%&###&.@",
".@%&###&.@",
".@%&###&.@",
".@%&###&.@",
".@%&###&.@",
".@%&###&.@",
".@%&###&.@",
".@%&###&.@",
".@%&###&.@",
".@..###..@",
".++@###.+@",
".++@###.+@",
".++@###.+@",
".++@###.+@",
".++@###.+@",
".*+@###.+@",
".*=@###.+@",
".*=@###.+@",
".+=@###.+@",
".++@###.+@",
".++@....+@",
".++++++++@",
"+@@@@@@@@@"};
