/* XPM */
static char * floppy_v_in_xpm[] = {
"10 40 12 1",
" 	c None",
".	c #DBDBDB",
"+	c #BCBCBC",
"@	c #757575",
"#	c #007BFF",
"$	c #0045F4",
"%	c #003FBF",
"&	c #00E003",
"*	c #919191",
"=	c #606060",
"-	c #FFFFFF",
";	c #7F7F7F",
".........+",
".++++++++@",
".++@@@@@+@",
".++@##$.+@",
".++@#$%.+@",
".++@#$%.+@",
".&&@#$%.+@",
".&&@#$%.+@",
".&&@#$%.+@",
".++@#$%.+@",
".++@#$%.+@",
".++@#$%.+@",
".++@#$%.+@",
".@@@#$%..@",
".@*=#$%=.@",
".@*=#$%=.@",
".@*=#$%=.@",
".@*=#$%=.@",
".@*=#$%=.@",
".@*=#$%=.@",
".@*=#$%=.@",
".@*=#$%=.@",
".@*=#$%=.@",
".@*=#$%=.@",
".@*=#$%=.@",
".@*=#$%=.@",
".@..#$%..@",
".++@#$%.+@",
".++@#$%.+@",
".++@#$%.+@",
".++@#$%.+@",
".++@#$%.+@",
".-+@#$%.+@",
".-;@#$%.+@",
".-;@#$%.+@",
".+;@#$%.+@",
".++@$%%.+@",
".++.....+@",
".++++++++@",
"+@@@@@@@@@"};
