/* XPM */
static char * harddisk_h_out_xpm[] = {
"40 10 6 1",
" 	c None",
".	c #DBDBDB",
"+	c #D30000",
"@	c #BCBCBC",
"#	c #757575",
"$	c #006800",
".......+++..................+++........@",
".@@@@@@++++@@@@@@@@@@@@@@@+++++@@@@@@@@#",
".@@@@@@@@+++++@@@@@@@@@++++++@@@@@@@@@@#",
".@@@@@@@@@@@+++++@@@++++++@@@@@@@@@@@@@#",
".@@@@@@@@@@@@@@++++++++@@@@@@@@@@@@@@@@#",
".@##############++++++####@@@@@@@@@@@@@#",
".@.........++++++....+++++@@@@@@@$$$@@@#",
".@#######++++++#########+++++@@@@$$$@@@#",
".@.....+++++..............+++++@@@@@@@@#",
"@######+++##################+++#########"};
