/* XPM */
static char * harddisk_v_in_xpm[] = {
"10 40 5 1",
" 	c None",
".	c #DBDBDB",
"+	c #BCBCBC",
"@	c #757575",
"#	c #00E003",
".........+",
".++++++++@",
"..@.@++++@",
"..@.@++++@",
"..@.@++++@",
"..@.@++++@",
"..@.@++++@",
"..@.@++++@",
"..@.@++++@",
"..@.@++++@",
"..@.@++++@",
"..@.@++++@",
"..@.@++++@",
"..@.@++++@",
"..@.@++++@",
"..@.@++++@",
"..@.@++++@",
"..@.@++++@",
"..@.@++++@",
"..@.@++++@",
"..@.@++++@",
"..@.@++++@",
"..@.@++++@",
"..@.@++++@",
"..@.@++++@",
"..@.@++++@",
".++++++++@",
".++++++++@",
".++++++++@",
".++++++++@",
".++++++++@",
".++++++++@",
".++++++++@",
".+##+++++@",
".+##+++++@",
".+##+++++@",
".++++++++@",
".++++++++@",
".++++++++@",
"+@@@@@@@@@"};
