/* XPM */
static char * harddisk_v_out_xpm[] = {
"10 40 6 1",
" 	c None",
".	c #DBDBDB",
"+	c #BCBCBC",
"@	c #757575",
"#	c #D30000",
"$	c #006800",
".........+",
".++++++++@",
"..@.@++++@",
"..@.@++++@",
"..@.@++++@",
"..@.@++++@",
"..@.@++++@",
"##@.@+++##",
"##@.@+++##",
"###.@++###",
".##.@++##@",
".###@++#+@",
"..##@+##+@",
"..##@+##+@",
"..##@+#++@",
"..@#@##++@",
"..@####++@",
"..@.##+++@",
"..@.##+++@",
"..@.##+++@",
"..@.###++@",
"..@####++@",
"..@#@##++@",
"..@#@+##+@",
"..##@+##+@",
"..##@+##+@",
".##++++##@",
".##++++##@",
"###++++###",
"##++++++##",
"##++++++##",
".++++++++@",
".++++++++@",
".+$$+++++@",
".+$$+++++@",
".+$$+++++@",
".++++++++@",
".++++++++@",
".++++++++@",
"+@@@@@@@@@"};
