/* XPM */
static char * harddisk_h_in_xpm[] = {
"40 10 5 1",
" 	c None",
".	c #DBDBDB",
"+	c #BCBCBC",
"@	c #757575",
"#	c #00E003",
".......................................+",
".++++++++++++++++++++++++++++++++++++++@",
".++++++++++++++++++++++++++++++++++++++@",
".++++++++++++++++++++++++++++++++++++++@",
".++++++++++++++++++++++++++++++++++++++@",
".+@@@@@@@@@@@@@@@@@@@@@@@@+++++++++++++@",
".+........................+++++++###+++@",
".+@@@@@@@@@@@@@@@@@@@@@@@@+++++++###+++@",
".+........................+++++++++++++@",
"+@@@@@@@@@@@@@@@@@@@@@@@@@@@@@@@@@@@@@@@"};
