/* XPM */
static char * jazdrive_v_in_xpm[] = {
"10 40 91 1",
"       c None",
".      c #013D05",
"+      c #438445",
"@      c #0D6310",
"#      c #000000",
"$      c #C6BABA",
"%      c #E38E8E",
"&      c #CACACA",
"*      c #C8B2B2",
"=      c #D61818",
"-      c #CA8080",
";      c #CBCBCB",
">      c #BAA0A0",
",      c #CEC8C8",
"'      c #BEBEBE",
")      c #C4C4C4",
"!      c #B7B7B7",
"~      c #BABABA",
"{      c #C7C7C7",
"]      c #B4B4B4",
"^      c #ACACAC",
"/      c #BFBFBF",
"(      c #010101",
"_      c #B0B0B0",
":      c #020302",
"<      c #AAAAAA",
"[      c #D3D3D3",
"}      c #D1D1D1",
"|      c #030503",
"1      c #A9A9A9",
"2      c #013C05",
"3      c #060806",
"4      c #C3C3C3",
"5      c #BDBDBD",
"6      c #023B05",
"7      c #090C09",
"8      c #C5C5C5",
"9      c #010201",
"0      c #033B05",
"a      c #0C100C",
"b      c #A4A4A4",
"c      c #C1C1C1",
"d      c #BCBCBC",
"e      c #020202",
"f      c #033B06",
"g      c #0F1410",
"h      c #A2A3A2",
"i      c #BBBBBB",
"j      c #033A06",
"k      c #111611",
"l      c #B2B2B2",
"m      c #111711",
"n      c #B3B3B3",
"o      c #101410",
"p      c #B5B5B5",
"q      c #023B06",
"r      c #0C100D",
"s      c #B1B1B1",
"t      c #C2C2C2",
"u      c #CCCCCC",
"v      c #010202",
"w      c #050705",
"x      c #C8C8C8",
"y      c #A6A6A6",
"z      c #000100",
"A      c #A5A5A5",
"B      c #9A9A9A",
"C      c #858585",
"D      c #595959",
"E      c #878787",
"F      c #D5D5D5",
"G      c #131313",
"H      c #6B6B6B",
"I      c #D9D9D9",
"J      c #0C5E0F",
"K      c #18631B",
"L      c #09470B",
"M      c #2B342B",
"N      c #00E003",
"O      c #0B5A0E",
"P      c #2B2B2B",
"Q      c #070707",
"R      c #314032",
"S      c #155218",
"T      c #165118",
"U      c #2F3E30",
"V      c #325433",
"W      c #0B580E",
"X      c #003A04",
"Y      c #002C03",
"Z      c #003603",
".+++++++++",
".@.......+",
".@.#####.+",
".@.#$%&#.+",
".@.#*=-#.+",
".@.#;>,#.+",
".@.#;')#.+",
".@.#!~~#.+",
".@.#!{'#.+",
".@.#!~]#.+",
".@.#^)/#.+",
".@.#^);#.+",
".@.(_{;#.+",
".@.:<[}#.+",
".@.|1[}#.+",
".@23145(.+",
".@67<859.+",
".@0abcde.+",
".@fghcie.+",
".@jkl)ie.+",
".@jmn)ie.+",
".@fop'ie.+",
".@qrl5de.+",
".@67stuv.+",
".@2wlxn#.+",
".@.|yx]#.+",
".@.elc1#.+",
".@.zA8~#.+",
".@.#B/~#.+",
".@.#CDE#.+",
".@.#FGl#.+",
".@.#/HI#.+",
".@.#####.+",
".@.#####.+",
".@.......+",
".@@@@JKJ@+",
".@@@JLMLNN",
".@@@OPQRS+",
".@@@JTUVW+",
".....XYZ.."};

