/* XPM */
static char * jazdrive_h_in_xpm[] = {
"40 10 91 1",
" 	c None",
".	c #438445",
"+	c #00E003",
"@	c #013D05",
"#	c #0D6310",
"$	c #155218",
"%	c #0B580E",
"&	c #000000",
"*	c #010101",
"=	c #010201",
"-	c #020202",
";	c #010202",
">	c #0C5E0F",
",	c #09470B",
"'	c #314032",
")	c #325433",
"!	c #003603",
"~	c #CACACA",
"{	c #CA8080",
"]	c #CEC8C8",
"^	c #C4C4C4",
"/	c #BABABA",
"(	c #BEBEBE",
"_	c #B4B4B4",
":	c #BFBFBF",
"<	c #CBCBCB",
"[	c #D1D1D1",
"}	c #BDBDBD",
"|	c #BCBCBC",
"1	c #BBBBBB",
"2	c #CCCCCC",
"3	c #B3B3B3",
"4	c #A9A9A9",
"5	c #878787",
"6	c #B2B2B2",
"7	c #D9D9D9",
"8	c #18631B",
"9	c #2B342B",
"0	c #070707",
"a	c #2F3E30",
"b	c #002C03",
"c	c #E38E8E",
"d	c #D61818",
"e	c #BAA0A0",
"f	c #C7C7C7",
"g	c #D3D3D3",
"h	c #C3C3C3",
"i	c #C5C5C5",
"j	c #C1C1C1",
"k	c #C2C2C2",
"l	c #C8C8C8",
"m	c #595959",
"n	c #131313",
"o	c #6B6B6B",
"p	c #2B2B2B",
"q	c #165118",
"r	c #003A04",
"s	c #C6BABA",
"t	c #C8B2B2",
"u	c #B7B7B7",
"v	c #ACACAC",
"w	c #B0B0B0",
"x	c #AAAAAA",
"y	c #A4A4A4",
"z	c #A2A3A2",
"A	c #B5B5B5",
"B	c #B1B1B1",
"C	c #A6A6A6",
"D	c #A5A5A5",
"E	c #9A9A9A",
"F	c #858585",
"G	c #D5D5D5",
"H	c #0B5A0E",
"I	c #020302",
"J	c #030503",
"K	c #060806",
"L	c #090C09",
"M	c #0C100C",
"N	c #0F1410",
"O	c #111611",
"P	c #111711",
"Q	c #101410",
"R	c #0C100D",
"S	c #050705",
"T	c #000100",
"U	c #013C05",
"V	c #023B05",
"W	c #033B05",
"X	c #033B06",
"Y	c #033A06",
"Z	c #023B06",
"....................................+..@",
".@@@@@@@@@@@@@@@@@@@@@@@@@@@@@@@@@@#+$%@",
".@&&&&&&&&&&&&&*=------;&&&&&&&&&&@>,')!",
".@&~{]^/(_:<<[[}}|1111|23_4//567&&@890ab",
".@&cde(/f/^^fgghijj^^(}kllji:mno&&@>,pqr",
".@&st<<uuuvvwx44xyz63A6B6C6DEFG:&&@#>H>@",
".@&&&&&&&&&&*IJKLMNOPQRLSJ-T&&&&&&@####@",
".@@@@@@@@@@@@@@UVWXYYXZVU@@@@@@@@@@####@",
".######################################@",
"@@@@@@@@@@@@@@@@@@@@@@@@@@@@@@@@@@@@@@@@"};
