/* XPM */
static char * jazdrive_v_out_xpm[] = {
"10 40 73 1",
" 	c None",
".	c #013D05",
"+	c #438445",
"@	c #0D6310",
"#	c #013A02",
"$	c #013403",
"%	c #012301",
"&	c #012201",
"*	c #012101",
"=	c #012401",
"-	c #012901",
";	c #002C01",
">	c #002A01",
",	c #012501",
"'	c #002E01",
")	c #003001",
"!	c #002101",
"~	c #003101",
"{	c #002001",
"]	c #003D04",
"^	c #012601",
"/	c #002901",
"(	c #002F01",
"_	c #013C04",
":	c #012F01",
"<	c #001F01",
"[	c #012701",
"}	c #011E01",
"|	c #011C01",
"1	c #012C01",
"2	c #011F01",
"3	c #002701",
"4	c #002B01",
"5	c #012001",
"6	c #002601",
"7	c #013B04",
"8	c #013A03",
"9	c #002401",
"0	c #001E01",
"a	c #002801",
"b	c #001C01",
"c	c #023A05",
"d	c #012A01",
"e	c #033A06",
"f	c #033B06",
"g	c #001D01",
"h	c #023B06",
"i	c #023B05",
"j	c #012801",
"k	c #013C05",
"l	c #012B01",
"m	c #013101",
"n	c #013001",
"o	c #011D01",
"p	c #013B03",
"q	c #0C5E0F",
"r	c #18631B",
"s	c #09470B",
"t	c #2B342B",
"u	c #031C04",
"v	c #254926",
"w	c #0B5A0E",
"x	c #2B2B2B",
"y	c #070707",
"z	c #314032",
"A	c #155218",
"B	c #165118",
"C	c #2F3E30",
"D	c #325433",
"E	c #0B580E",
"F	c #003A04",
"G	c #002C03",
"H	c #003603",
".+++++++++",
".@.####$.+",
".@.%&&&*.+",
".@.=-;>*.+",
".@.,%')!.+",
".@.,%;~{]+",
".@.^*/({.+",
".@_^&>:{.+",
".@_^&>)<.+",
".@.^&,(<.+",
".@.[},'<.+",
".@.[|,1{.+",
".@.=234{.+",
".@.%564{.+",
".@.%266{.+",
".@7%2^><.+",
".@8%2[90.+",
".@#%*[a0.+",
".@#%*[3b.+",
".@c%&d!b.+",
".@e%&d3b.+",
".@f%&dag.+",
".@h%5-/b.+",
".@i%2[jb.+",
".@k=2[&b.+",
".@.%2[,}.+",
".@.55[l|.+",
".@.*}-m&.+",
".@.}*jn5.+",
".@.}*[:5.+",
".@.o&1n|.+",
".@.||,n&.+",
".@.|[*-2.+",
".@.||||*.+",
".@..._pp.+",
".@@@@qrq@+",
".@@@qstsuv",
".@@@wxyzA+",
".@@@qBCDE+",
".....FGH.."};
