/* XPM */
static char * jazdrive_h_out_xpm[] = {
"40 10 73 1",
" 	c None",
".	c #438445",
"+	c #254926",
"@	c #013D05",
"#	c #003D04",
"$	c #0D6310",
"%	c #031C04",
"&	c #155218",
"*	c #0B580E",
"=	c #013403",
"-	c #012101",
";	c #002101",
">	c #002001",
",	c #001F01",
"'	c #001E01",
")	c #001C01",
"!	c #001D01",
"~	c #011E01",
"{	c #011C01",
"]	c #012201",
"^	c #012001",
"/	c #011F01",
"(	c #013B03",
"_	c #0C5E0F",
":	c #09470B",
"<	c #314032",
"[	c #325433",
"}	c #003603",
"|	c #013A02",
"1	c #002A01",
"2	c #003001",
"3	c #003101",
"4	c #002F01",
"5	c #012F01",
"6	c #002E01",
"7	c #012C01",
"8	c #002B01",
"9	c #002601",
"0	c #002401",
"a	c #002801",
"b	c #002701",
"c	c #002901",
"d	c #012801",
"e	c #012501",
"f	c #012B01",
"g	c #013101",
"h	c #013001",
"i	c #012901",
"j	c #18631B",
"k	c #2B342B",
"l	c #070707",
"m	c #2F3E30",
"n	c #002C03",
"o	c #002C01",
"p	c #012601",
"q	c #012701",
"r	c #012A01",
"s	c #013C04",
"t	c #2B2B2B",
"u	c #165118",
"v	c #003A04",
"w	c #012301",
"x	c #0B5A0E",
"y	c #012401",
"z	c #011D01",
"A	c #013B04",
"B	c #013A03",
"C	c #023A05",
"D	c #033A06",
"E	c #033B06",
"F	c #023B06",
"G	c #023B05",
"H	c #013C05",
"....................................+..@",
".@@@@#@@@@@@@@@@@@@@@@@@@@@@@@@@@@@$%&*@",
".=--;>>>,,,>>>>,'')))!)))~{]^^{]/-(_:<[}",
".|]12345246788910ab;bacd]efgh5hhi{(jklmn",
".|]o6oc11eeeb99pqqqrrriqqqqidq7e-{s_:tuv",
".|]iww-]]]~{/^///--]]]^///^~--]{q{@$_x_@",
".|wyeeppppqqywwwwwwwwwwwyw^-~~z{{{@$$$$@",
".@@@@@@ss@@@@@@AB||CDEFGH@@@@@@@@@@$$$$@",
".$$$$$$$$$$$$$$$$$$$$$$$$$$$$$$$$$$$$$$@",
"@@@@@@@@@@@@@@@@@@@@@@@@@@@@@@@@@@@@@@@@"};
