/* XPM */
static char * usbstick_h_out_xpm[] = {
"40 10 71 1",
" 	c None",
".	c #DCDAD5",
"+	c #DAD8D3",
"@	c #7F7E7A",
"#	c #2B2B2A",
"$	c #000000",
"%	c #060606",
"&	c #151514",
"*	c #3B3A39",
"=	c #8E8C89",
"-	c #9A9995",
";	c #060505",
">	c #20201F",
",	c #121212",
"'	c #0C0C0C",
")	c #040404",
"!	c #757471",
"~	c #B2B0AC",
"{	c #BBB9B5",
"]	c #C1BFBB",
"^	c #C6C4C0",
"/	c #C9C8C3",
"(	c #CFCDC8",
"_	c #D3D1CC",
":	c #D7D5D0",
"<	c #DBD9D4",
"[	c #191818",
"}	c #0C0000",
"|	c #780000",
"1	c #C40000",
"2	c #EE0000",
"3	c #FE0000",
"4	c #FF0000",
"5	c #3D3D3B",
"6	c #40403E",
"7	c #9E9C99",
"8	c #D8D6D1",
"9	c #D10000",
"0	c #D6D4CF",
"a	c #010101",
"b	c #DF0000",
"c	c #FFB5B5",
"d	c #FFC2C2",
"e	c #FFD9D9",
"f	c #FFC5C5",
"g	c #FFADAD",
"h	c #FFA4A4",
"i	c #FF8F8F",
"j	c #CCCAC5",
"k	c #D5D4CF",
"l	c #050505",
"m	c #FFEDED",
"n	c #FFCCCC",
"o	c #FFCFCF",
"p	c #FFF5F5",
"q	c #FFF0F0",
"r	c #FFEEEE",
"s	c #0A0A0A",
"t	c #0F0F0F",
"u	c #646361",
"v	c #131313",
"w	c #10100F",
"x	c #0E0E0E",
"y	c #292928",
"z	c #51504F",
"A	c #B1B0AC",
"B	c #BAB8B4",
"C	c #D6D4D0",
"D	c #7E7E7B",
"E	c #2F2F2E",
"F	c #3C3B3A",
".....+@#$$$$$$$$$%&*=...................",
"...-;$>,$''$$$$$$$$$$$)!~{]^/(_:+<......",
"...$$[$}|12344321|}$$$$$$$$$567_8<......",
"...$[}94444444444449}$$$$$$$$$$(0+......",
"...$ab44cdeedfghi444b$$$$$$$$$$jk+......",
"...$lb44mneeopqrm444b$$$$$$$$$$jk+......",
"...$s}94444444444449}$$$$$$$$$$(0+......",
"...$t$$}|12344321|}&$$$$$$$$567_8<......",
"...u;$$$$vwx$$$$$y$$$$)zAB]^/(_:+<......",
".....CDE$l$$$$$$$lvF~...<..............."};
