/* XPM */
static char * usbstick_h_in_xpm[] = {
"40 10 78 1",
" 	c None",
".	c #DCDAD5",
"+	c #DAD8D3",
"@	c #7F7E7A",
"#	c #2B2B2A",
"$	c #000000",
"%	c #060606",
"&	c #151514",
"*	c #3B3A39",
"=	c #8E8C89",
"-	c #9A9995",
";	c #060505",
">	c #20201F",
",	c #121212",
"'	c #0C0C0C",
")	c #040404",
"!	c #757471",
"~	c #B2B0AC",
"{	c #BBB9B5",
"]	c #C1BFBB",
"^	c #C6C4C0",
"/	c #C9C8C3",
"(	c #CFCDC8",
"_	c #D3D1CC",
":	c #D7D5D0",
"<	c #DBD9D4",
"[	c #191818",
"}	c #0C0000",
"|	c #780000",
"1	c #C40000",
"2	c #EE0000",
"3	c #FE0000",
"4	c #FF0000",
"5	c #A5A4A0",
"6	c #ADABA7",
"7	c #B3B1AD",
"8	c #B9B7B3",
"9	c #C2C0BB",
"0	c #CBC9C5",
"a	c #D8D6D1",
"b	c #D10000",
"c	c #FFFFFF",
"d	c #C2C1BC",
"e	c #D6D4CF",
"f	c #010101",
"g	c #DF0000",
"h	c #FFB5B5",
"i	c #FFC2C2",
"j	c #FFD9D9",
"k	c #FFC5C5",
"l	c #FFADAD",
"m	c #FFA4A4",
"n	c #FF8F8F",
"o	c #AFAFAF",
"p	c #BCBBB6",
"q	c #CCCAC5",
"r	c #D5D4CF",
"s	c #050505",
"t	c #FFEDED",
"u	c #FFCCCC",
"v	c #FFCFCF",
"w	c #FFF5F5",
"x	c #FFF0F0",
"y	c #FFEEEE",
"z	c #0A0A0A",
"A	c #0F0F0F",
"B	c #646361",
"C	c #131313",
"D	c #10100F",
"E	c #0E0E0E",
"F	c #292928",
"G	c #51504F",
"H	c #B1B0AC",
"I	c #BAB8B4",
"J	c #D6D4D0",
"K	c #7E7E7B",
"L	c #2F2F2E",
"M	c #3C3B3A",
".....+@#$$$$$$$$$%&*=...................",
"...-;$>,$''$$$$$$$$$$$)!~{]^/(_:+<......",
"...$$[$}|12344321|}$$$$$$567890_a<......",
"...$[}b444444444444b}$$$$cccccd(e+......",
"...$fg44hijjiklmn444g$$$$cccocpqr+......",
"...$sg44tujjvwxyt444g$$$$cccocpqr+......",
"...$z}b444444444444b}$$$$cccccd(e+......",
"...$A$$}|12344321|}&$$$$$567890_a<......",
"...B;$$$$CDE$$$$$F$$$$)GHI]^/(_:+<......",
".....JKL$s$$$$$$$sCM~...<..............."};
