/* XPM */
static char * usbstick_v_out_xpm[] = {
"10 40 71 1",
" 	c None",
".	c #DCDAD5",
"+	c #DBD9D4",
"@	c #DAD8D3",
"#	c #D8D6D1",
"$	c #D6D4CF",
"%	c #D5D4CF",
"&	c #D7D5D0",
"*	c #D3D1CC",
"=	c #CFCDC8",
"-	c #CCCAC5",
";	c #9E9C99",
">	c #000000",
",	c #40403E",
"'	c #C9C8C3",
")	c #3D3D3B",
"!	c #C6C4C0",
"~	c #C1BFBB",
"{	c #BBB9B5",
"]	c #BAB8B4",
"^	c #B2B0AC",
"/	c #B1B0AC",
"(	c #757471",
"_	c #51504F",
":	c #040404",
"<	c #8E8C89",
"[	c #0C0000",
"}	c #DF0000",
"|	c #3B3A39",
"1	c #D10000",
"2	c #FF0000",
"3	c #151514",
"4	c #3C3B3A",
"5	c #131313",
"6	c #060606",
"7	c #780000",
"8	c #292928",
"9	c #050505",
"0	c #C40000",
"a	c #FF8F8F",
"b	c #FFEDED",
"c	c #EE0000",
"d	c #FFA4A4",
"e	c #FFEEEE",
"f	c #FE0000",
"g	c #FFADAD",
"h	c #FFF0F0",
"i	c #FFC5C5",
"j	c #FFF5F5",
"k	c #FFC2C2",
"l	c #FFCFCF",
"m	c #FFD9D9",
"n	c #0E0E0E",
"o	c #0C0C0C",
"p	c #10100F",
"q	c #FFCCCC",
"r	c #FFB5B5",
"s	c #2B2B2A",
"t	c #121212",
"u	c #2F2F2E",
"v	c #7F7E7A",
"w	c #20201F",
"x	c #7E7E7B",
"y	c #191818",
"z	c #D6D4D0",
"A	c #060505",
"B	c #010101",
"C	c #0A0A0A",
"D	c #0F0F0F",
"E	c #9A9995",
"F	c #646361",
"..........",
"..........",
"..........",
"..........",
"..........",
"..........",
".++@@@@++.",
".@#$%%$#@.",
".&*=--=*&.",
".*;>>>>;*.",
".=,>>>>,=.",
".')>>>>)'.",
".!>>>>>>!.",
".~>>>>>>~.",
".{>>>>>>].",
".^>>>>>>/+",
".(>>>>>>_.",
".:>>>>>>:.",
".>>>>>>>>.",
"<>>[}}[>>^",
"|>>12213>4",
"3>[2222[>5",
"6>72222789",
">>02ab20>>",
">>c2de2c>>",
">>f2gh2f>>",
">>22ij22>>",
">>22kl22>>",
">>f2mm2fn>",
">oc2mm2cp>",
">o02kq2059",
">>72rb27>>",
"st[2222[>u",
"vw>1221>>x",
"@>y[}}[>>z",
".A>yB9CDA.",
".E>>>>>>F.",
"..........",
"..........",
".........."};
