/* XPM */
static char * zipdrive_h_in_xpm[] = {
"40 10 11 1",
" 	c None",
".	c #AD9CC1",
"+	c #9A83B2",
"@	c #6D5388",
"#	c #A3A3A3",
"$	c #8E8E8E",
"%	c #5E5E5E",
"&	c #5F4976",
"*	c #7F619E",
"=	c #C5B8D3",
"-	c #00E003",
".......................................+",
".++++++++++++++++++++++++++++++++++++++@",
".+@@@@@@@@@@@@@@@@@@@@@@@@@@@@@@@@@@@@+@",
".+@#################################$.+@",
".+@#$$$$$$$$$$$$$$$$$$$$$$$$$$$$$$$$%.+@",
".+@$%%%%%%%%%%%%%%%%%%%%%%%%%%%%%%%%%.+@",
".+............&&&&&&&&&&&&............+@",
".++++++++++++....******....+++==++---++@",
".+++++++++++++++........+++++++@@+---++@",
"+@@@@@@@@@@@@@@@@@@@@@@@@@@@@@@@@@@@@@@@"};
