/* XPM */
static char * zipdrive_v_out_xpm[] = {
"10 40 9 1",
" 	c None",
".	c #AD9CC1",
"+	c #9A83B2",
"@	c #6D5388",
"#	c #000000",
"$	c #5F4976",
"%	c #7F619E",
"&	c #C5B8D3",
"*	c #006800",
".........+",
".++++++++@",
".++@@@@@+@",
".++@###.+@",
".++@###.+@",
".++@###.+@",
".++@###.+@",
".++@###.+@",
".++@###.+@",
".++@###.+@",
".++@###.+@",
".++@###.+@",
".++@###.+@",
".+@@###.+@",
".+@@###.+@",
".+@$###.+@",
".@@$###.+@",
".@%$###.+@",
".@%$###.+@",
".@%$###.+@",
".@%$###.+@",
".@%$###.+@",
".@%$###.+@",
".@@$###.+@",
".+@$###.+@",
".+@$###.+@",
".+@@###.+@",
".++@###.+@",
".++@###.+@",
".++@###.+@",
".&+@###.+@",
".&@@###.+@",
".+@@###.+@",
".++@###.+@",
".**@###.+@",
".**@###.+@",
".**@###.+@",
".++.....+@",
".++++++++@",
"+@@@@@@@@@"};
