/* XPM */
static char * noimage_xpm[] = {
"20 20 4 1",
" 	c None",
".	c #000000",
"+	c #E24444",
"@	c #FFFFFF",
"....................",
".++@@@@@@@@@@@@@@++.",
".+++@@@@@@@@@@@@+++.",
".@+++@@@@@@@@@@+++@.",
".@@+++@@@@@@@@+++@@.",
".@@@+++@@@@@@+++@@@.",
".@@@@+++@@@@+++@@@@.",
".@@@@@+++@@+++@@@@@.",
".@@@@@@++++++@@@@@@.",
".@@@@@@@++++@@@@@@@.",
".@@@@@@@++++@@@@@@@.",
".@@@@@@++++++@@@@@@.",
".@@@@@+++@@+++@@@@@.",
".@@@@+++@@@@+++@@@@.",
".@@@+++@@@@@@+++@@@.",
".@@+++@@@@@@@@+++@@.",
".@+++@@@@@@@@@@+++@.",
".+++@@@@@@@@@@@@+++.",
".++@@@@@@@@@@@@@@++.",
"...................."};
