/* XPM */
static char * clock_xpm[] = {
"64 64 44 1",
" 	c #CF3CCF3CCF3C",
".	c #30C230C230C2",
"X	c #5555659571C6",
"o	c #AAAAAAAAAAAA",
"O	c #AAAA9A69B2CA",
"+	c #9A699A69AAAA",
"@	c #9E799A699A69",
"#	c #9A698A28A699",
"$	c #8A289A699A69",
"%	c #8A288A289A69",
"&	c #82078A288207",
"*	c #861775D69E79",
"=	c #659561856DB6",
"-	c #9248AEBACF3C",
";	c #8E389A69BAEA",
":	c #96588617AEBA",
">	c #820786179E79",
",	c #75D68A288A28",
"<	c #000000000000",
"1	c #28A228A228A2",
"2	c #596555555965",
"3	c #FFFFFFFFFFFF",
"4	c #861775D679E7",
"5	c #38E359655555",
"6	c #555545145965",
"7	c #69A675D69A69",
"8	c #75D675D68A28",
"9	c #75D675D675D6",
"0	c #3CF345145D75",
"q	c #6DB665959248",
"w	c #659565958A28",
"e	c #4514555538E3",
"r	c #451445144514",
"t	c #410330C24514",
"y	c #4D344D344D34",
"u	c #38E3451434D3",
"i	c #6595659571C6",
"p	c #30C230C24514",
"a	c #6595555575D6",
"s	c #208130C230C2",
"d	c #30C21C712CB2",
"f	c #4D34596579E7",
"g	c #2081208130C2",
"h	c #208120812081",
"                                                               .",
"                                                              X.",
"  ooooOoOoOoOoO+OoO+O+O+++O++@#@#@#@#$#$#$#%#$#%#%#%%&%%%&*&*&=.",
"  oooo-ooooooOoOo;o+o+o+o+o+;+++$+$+$#$#$:$#$:$%$%$%%%%%>%>%,%X.",
"  oo<<<<<<<<<<<<<<<<<<<<<<<<<<<<<<<<<<<<<<<<<<<<<<<<<<<<<<1&*&2.",
"  -o<111111111111111111111111111111111111111111111111111113*,*1.",
"  Oo<111111111111111111111111111111111111111111111111111113&*,2.",
"  oo<111111111111111111111111111111111111111111111111111113%,*1.",
"  Oo<111111111111111111111111111111111111111111111111111113,4,2.",
"  oO<111111111111111111111111111111111111111111111111111113*,*5.",
"  Oo<111111111111111111111111111111111111111111111111111113,*,6.",
"  oo<111111111111111111111111111111111111111111111111111113*,75.",
"  Oo<111111111111111111111111111111111111111111111111111113,486.",
"  oO<1111111111111111111111111111111111111111111111111111137,85.",
"  O+<1111111111111111111111111111111111111111111111111111138486.",
"  oO<1111111111111111111111111111111111111111111111111111138,85.",
"  Oo<1111111111111111111111111111111111111111111111111111138486.",
"  o;<1111111111111111111111111111111111111111111111111111137,85.",
"  O+<1111111111111111111111111111111111111111111111111111138886.",
"  o+<1111111111111111111111111111111111111111111111111111138885.",
"  O+<1111111111111111111111111111111111111111111111111111139896.",
"  ++13333333333333333333333333333333333333333333333333333338880.",
"  O++@+@+@#@#$#@#$#%#$#%#%#%%%%%%&*&*&*&*,*,*,484848884889q8896.",
"  o+++++$+;+$#$+$:$#$:$%$%$%%%%%>%>%,%,%,*,*,7,*,7,8,8,88888w8e.",
"  +@+@+@#@#@#@333333333333333333333333333333333,484848898989q90.",
"  ++++$+;+$#$#333333333333333333333333333333333<,888888888w8w8r.",
"  #@+@#@#$#$#$333333333333333333333333333333333<<84889q8q9q9q9t.",
"  ++$+$+$#$#$:333333333333333333333333333333333<<<,8w88898w89qr.",
"  +@#@#$#@#$#$333333333333333333333333333333333<<<y98989q9q9q9r.",
"  $+;+$#$#$#$#333333333333333333333333333333333<<<yy88w8w89q9qu.",
"  #@#$#$#$#%#$333333333333333333333333333333333<<<yyy9q9q9q9q9t.",
"  $+$#$#$:$#$:333333333333333333333333333333333<<<yyyy989q989qu.",
"  #$#$#$#$#$#%333333333333333333333333333333333<<<yyyyq9q9q999t.",
"  $#$#$#$#$:$%333333333333333333333333333333333<<<yyyy9q9q9q9qu.",
"  #$#$#%#$#%%%333333333333333333333333333333333<<<yyyyq9q99iqit.",
"  $#$:$#$:$%$%333333333333333333333333333333333<<<yyyy989w9q9wu.",
"  #$#$#$#%#%#%333333333333333333333333333333333<<<yyyyq999999it.",
"  $#$#$:$%%%$%333333333333333333333333333333333<<<yyyy9q9q9w9iu.",
"  #%#%#%%%#%%&333333333333333333333333333333333<<<yyyy9iqi9iiit.",
"  $#$:$%$%$%%%333333333333333333333333333333333<<<yyyy9w9w9i9iu.",
"  #$#%#%#%%&%&333333333333333333333333333333333<<<yyyy999i9i9it.",
"  $:$%%%%%%%%%333333333333333333333333333333333<<<yyyy9w9iiiii..",
"  #%%%#%%&*&*&333333333333333333333333333333333<<<yyyy9iiiiii=p.",
"  $%%%$%>%%%,%333333333333333333333333333333333<<<yyyy9iii9iXiu.",
"  #&#%%&*&%&*&333333333333333333333333333333333<<<yyyy9i9ii=a=p.",
"  %%%%%%%%,%>%333333333333333333333333333333333<<<yyyyiiiiiiiis.",
"  %%%&*&*&*&*,333333333333333333333333333333333<<<yyyyiii=a=a=d.",
"  %%>%>%,%,%,*333333333333333333333333333333333<<<yyyyiiXiXiXis.",
"  %&*&%&*&*,4,333333333333333333333333333333333<<<yyyyi=a=i=a=..",
"  %%%%,%>%,*,*333333333333333333333333333333333<<<yyyyXiiiXaXis.",
"  *&*&*&*,*,*,333333333333333333333333333333333<<<yyyya=a=a=aXd.",
"  >%,%,%,*,*,3333333333333333333333333333333333<<<yyyyXiXiXiXas.",
"  %&*&*,4,*,43333333333333333333333333333333333<<<yyyyi=a=aXa=d.",
"  ,*,%,*,*,*,3333333333333333333333333333333331<<<yyyyXaXiXaXas.",
"  *&*,*,*,4833333333333333333333333333333333331<<<yyyya=aXaXaXd.",
"  ,%,*,*,7,333333333333333333333333333333333311<<<yyyyXiXaXaXfs.",
"  *,4,*,484848111111111111111111111111111111111<<<yyyyaXa=aX=2d.",
"  ,*,*,*,*,7,8ooooooooooooooooooooooooooooooooo<<<yyyyXaXaXfXas.",
"  *,*,48484888<<<<<<<<<<<<<<<<<<<<<<<<<<<<<<<<<<<<yyyyaXaX=2=2d.",
"  ,*,7,8,8,8888<<<<<<<<<<<<<<<<<<<<<<<<<<<<<<<<<<<yyyyXaXfXfXfs.",
"  *,484848484889yyyyyyyyyyyyyyyyyyyyyyyyyyyyyyyyyyyyyyaX=2=2=2g.",
"  ,7,*,7,88888888898w89q9q9q9q9w9iii9iiiiiXiXiXaXaXaXaXfXf2fX2h.",
"  =12121216165656e606r6r0rtr0rtrtututut.p.p.p.d.d.d.dsdgdhdhghg.",
" ..............................................................."};
