/* XPM */
static char * month_xpm[] = {
"24 120 123 2",
"  	c None",
". 	c #B4B6A4",
"+ 	c #B4B4AC",
"@ 	c #9C9A8C",
"# 	c #949A8C",
"$ 	c #BCB6B2",
"% 	c #C4C6B4",
"& 	c #C4C6BC",
"* 	c #C4C2B4",
"= 	c #949289",
"- 	c #7C7E73",
"; 	c #44423C",
"> 	c #24261C",
", 	c #64665B",
"' 	c #949A94",
") 	c #A4A28D",
"! 	c #9C9D94",
"~ 	c #9CA294",
"{ 	c #A49E9C",
"] 	c #ACAA9C",
"^ 	c #8C8B7A",
"/ 	c #4C4E3A",
"( 	c #747267",
"_ 	c #949684",
": 	c #5C5C54",
"< 	c #5C5A4C",
"[ 	c #646A5A",
"} 	c #84867A",
"| 	c #BCBAB1",
"1 	c #6C6E69",
"2 	c #2C2E2B",
"3 	c #545651",
"4 	c #6C726A",
"5 	c #3C3E34",
"6 	c #1C1A1C",
"7 	c #4C4A43",
"8 	c #343227",
"9 	c #54524B",
"0 	c #9C9E8C",
"a 	c #A4A6A1",
"b 	c #9C9692",
"c 	c #646258",
"d 	c #544E4C",
"e 	c #444636",
"f 	c #3C3A2E",
"g 	c #8C8B85",
"h 	c #5C625C",
"i 	c #B4B2A4",
"j 	c #242A20",
"k 	c #545642",
"l 	c #84827A",
"m 	c #94968E",
"n 	c #7C7A71",
"o 	c #A4AA95",
"p 	c #444A44",
"q 	c #34362B",
"r 	c #848A7C",
"s 	c #ACB2A2",
"t 	c #ACAEA3",
"u 	c #C4C6C4",
"v 	c #7C8275",
"w 	c #BCBEB4",
"x 	c #5C564F",
"y 	c #6C6C5C",
"z 	c #141A1A",
"A 	c #8C9283",
"B 	c #4C4E44",
"C 	c #2C322C",
"D 	c #1C1E17",
"E 	c #443E3C",
"F 	c #ACAAA5",
"G 	c #74766A",
"H 	c #4C5653",
"I 	c #848A85",
"J 	c #BCBEAC",
"K 	c #747A70",
"L 	c #B4AEAB",
"M 	c #5C5E49",
"N 	c #645E5C",
"O 	c #343A32",
"P 	c #948E89",
"Q 	c #A4A29E",
"R 	c #ACA69C",
"S 	c #646664",
"T 	c #4C4644",
"U 	c #9CA2A0",
"V 	c #7C7C7C",
"W 	c #8C8684",
"X 	c #1C2216",
"Y 	c #847E79",
"Z 	c #2C2A2A",
"` 	c #C4BEB4",
" .	c #3C4224",
"..	c #3C3A2F",
"+.	c #848279",
"@.	c #747674",
"#.	c #4C4E38",
"$.	c #8C9282",
"%.	c #7C8276",
"&.	c #ACB2AC",
"*.	c #BCBEAB",
"=.	c #BCBEBD",
"-.	c #B4BAA6",
";.	c #6C6A66",
">.	c #545A54",
",.	c #7C7A70",
"'.	c #949288",
").	c #2C2E24",
"!.	c #444637",
"~.	c #3C4341",
"{.	c #4C524F",
"].	c #4C4E39",
"^.	c #3C3E3A",
"/.	c #5C625B",
"(.	c #34362A",
"_.	c #7C7674",
":.	c #2C2A24",
"<.	c #746E6C",
"[.	c #545A53",
"}.	c #646A66",
"|.	c #BCC2AC",
"1.	c #6C6664",
"2.	c #242425",
". + @ # $ % % & % & % % & % & % & % & & & * * & ",
"= - ; > , ' ) ! ) ! ) ! ) ! ) ! ) ~ { ~ ) ~ ~ ) ",
". ] ^ / ( + _ : < [ + * - } < [ | % % & & * * & ",
"= # 1 2 3 _ , , 4 ; 5 # 6 7 4 8 9 0 ! a 0 a a ~ ",
"+ % b / ( . = c d e / a f ^ g h c i & * & * * * ",
"= ~ - 2 3 = j e [ k 2 - 6 4 l e 5 ^ ~ ~ ) ~ ~ ) ",
". % m e n . f l g , / @ f ^ o c c o & * & * * & ",
"m j j 5 1 @ p > 2 q 2 - 6 4 ^ 5 ; g ) 0 0 a a 0 ",
"+ ^ ^ ^ ) * ^ ^ ^ ^ ^ ) r b s g ^ t & & u * * & ",
"0 ) ~ ) ~ ) 0 ) ~ ) ~ ) 0 ) ~ ) ~ ) 0 ~ ~ ) ) ~ ",
"% @ _ _ m t % % & % & % c | % % & % & * & & & * ",
"~ 6 ; ; e , ) ~ ) ~ ) ~ 6 v ) ~ ) ~ ) a ) ) ) ~ ",
"% f ^ ^ g ! w n x , i * 5 y : 1 w * & * * & & * ",
") z 3 : c A e e ( B C _ D 9 4 8 B @ ) ) ~ ) ) 0 ",
"% f c h y + E h c c f 0 f ^ ^ ( B F & & * * * & ",
"~ 6 4 ( G A 6 k H 9 k - 6 4 I k 2 v ~ ! ) ~ ~ ) ",
"% f ^ a i J / c ^ ^ K ] f ^ L M N 0 % & * * * & ",
"~ 6 4 ) ! ) [ 8 > j 8 A 6 2 j O [ ^ ~ { ) a a 0 ",
"% ^ _ & % & P g ^ g ^ t ^ ^ ^ ^ b w % % * * * & ",
"{ r = ~ ) ~ m } n K } # - G n } m 0 ~ % ) ~ ~ ) ",
"& @ t * % * @ t * & % % & % & % & % & % & * * & ",
"~ 6 C m 0 , D 7 m ~ ) ~ ) ~ ) ~ ) ~ ) ~ ) a a 0 ",
"% f k l t k k c t = : x , + * - Q - ] * * * * u ",
"0 D M 8 , q ; e ^ , , 4 ; 5 _ D 2 ; G ) ~ ) ) ~ ",
"& f ^ B / ( h c a = c k e B R f ^ ^ a * & * * & ",
"~ 6 4 9 2 1 e ; ^ j ; , k 2 - D 4 ^ m ~ ~ ~ ~ * ",
"* f ^ ^ ^ ^ : c o f } ^ S / m f ^ & % & * * * & ",
"~ 6 4 A g v e e ^ T > 2 q 2 - 6 ( ~ ! ) U a a 0 ",
"% ^ m & * s g I t ^ ^ ^ ^ ^ ) r m % & & % * * & ",
"{ r = ) ~ @ A g 0 I n - V } # W _ ~ { ~ ) ~ ~ ) ",
"& % * t o * % & % & % & % % & % & % & * & * * & ",
") ~ _ 8 D } ~ ! ) ! ) ! ) ! ) ! ) ! ) ~ ) a a 0 ",
"& * g 5 < y | & - } < 4 w & - a - ] & * & * * u ",
"~ m e 5 B 8 g ) 6 B 4 8 / @ D 2 e G ) 0 ) ) ) ~ ",
"& ] e n r 5 m % f ^ g ( 7 t f ^ ^ Q & & * * * & ",
") [ 6 2 2 X p @ z ( r k 2 Y z ( r m ) ~ ~ ) ) ~ ",
"* c < ^ ^ y 9 t f ^ t : c 0 f ^ & & & * & * * & ",
"~ j M ( 4 ( D G D 2 Z O [ ^ 6 4 ~ { ~ a ) ~ ~ ) ",
"* g g + ` _ ^ @ f r ^ ^ m J ^ m % % % * & * * & ",
") r = 0 ~ m r A 6 ( n } @ ! r = ) ! ) ) ) 0 0 a ",
". @ t * % * @ t * & % % & % & % & % & % & * & * ",
"= 6 C m 0 , D 7 m ~ ) ~ ) ~ ) ~ ) ~ ) ~ ) ~ ) ~ ",
".  .k Y t k 3 c t = : x , + * - F * w W ) * & * ",
"= 6 : 8 , q ; e ^ , , 4 e ..# 5 7 # +.X @.a 0 a ",
"+ 5 ^ #.B ( M c o = c d e B R - ; ~ , x = * & * ",
"= 6 4 9 2 4 e ; ^ j e [ k 2 - 4 8 7 j M +.~ ) ~ ",
". ..^ ^ ^ ^ : c o ..+.g , #.@ @ ( ; #.g . * & * ",
"_ 6 4 $.g %.e ; ^ 7 > 2 O 2 n $.4 > B n ! a 0 a ",
"+ ^ m % * &.g r t g ^ ^ ^ ^ Q *.- ; ^ t % * u * ",
"= r = ) ~ @ g $.@ r - n - } m # q ; 4 ! ) ) ~ ) ",
"& + @ # $ % % & % & % % & % & % & % & % & * & * ",
") - ; > , 0 ! ) ! ) ! ) ! ) ! ) ! ) ! ) ) ~ ) ~ ",
"& ] ^ 7 ( + +.w * # @ =.%.+.< [ w & & & & * & * ",
"~ _ 4 2 k _ D r _ p 7 _ 6 7 4 8 9 @ ) ~ ) 0 a ~ ",
"* & b #.( + ..g t c c ]  .W ^ h c s & % * & * & ",
") ~ - 2 k = D 4 ^ e e r 6 4 %.; ; ^ ~ { ~ ) ~ ) ",
"& * m e n . 5 } ) 3 N o ..^ ] h c o * % * & * & ",
") j Z ..4 # ; > 2 C ; ^ D 1 ^ e ; g ~ ) a 0 a ~ ",
"* g ^ ^ ) * ^ ^ ^ ^ ^ t ^ m L r ^ t & & * & * * ",
") %.n I @ ~ I n n %.g 0 } _ @ $.g @ ) ~ ~ ) ~ ) ",
"% + @ # $ % % & % & % & c | % % & * & * & & * & ",
") - ; > , ' ) ! ) ! ) ~ 6 %.~ ) ~ ~ ) ~ ) 0 a 0 ",
"& ] ^ 7 ( -.+.w * # @ ` ..^ & * & * & * & u * & ",
"~ _ 4 2 k = 6 r = 7 p _ D 4 ) U ) 0 a 0 a ~ ) ~ ",
"% & b #.( . ..$.] c M t ..^ * & * & * & * & * & ",
"{ ~ - 2 3 _ 6 ( r ; e ^ 6 1 ~ ) ~ ) ~ ) ~ 0 a ~ ",
"% % b e K . 5 } o 3 c o ..^ & * & & * & * & * * ",
") j j ..( _ e > Z q 5 ^ D 1 ) U ) 0 a 0 a ) ~ ) ",
"& ^ ^ ^ Q * ^ W ^ ^ g t g m % * & & * & * & * & ",
"~ Y K ^ # ~ ^ K n %.g @ r = U ) ~ ) ~ ) ~ 0 a 0 ",
"% & * t o * & % & % & % & % & % & % & % * & * & ",
") ~ _ 8 D } ~ ! ) ! ) ! ) ! ) ! ) ! ) ! ~ ) ~ ) ",
"* * g 5 < y | & +.w * # @ * + K < ;.} w * & * & ",
"~ m e 5 B 8 ^ ~ 6 r = 7 p = e ; ( e 2 g a 0 a ~ ",
"& ] e n r 5 m % ..$.] c h ] 5 } ^ ( #.! * & * * ",
") [ 6 2 2 X p @ 6 ( r ; e ^ 6 ( r 3 2 - ~ ) ~ ) ",
"* c < ^ ^ y 9 ]  .+.a k c o e ( t y #.b * & * & ",
"~ j : ( 4 ( D K ; > 2 q 5 g M Z C 8 2 n a 0 a 0 ",
"* g ^ + ` _ ^ @ ^ ^ ^ ^ g s +.^ ^ , >.@ * u * & ",
") r = 0 ~ m r $.g K n %.g @ B > 2 2 [ W ) ~ ) ~ ",
". * ^ ,.,.~ * % & % & % & % & % & % & % * & & * ",
"'.p ).9 p ).y ! ~ ) ~ ) ~ ) ~ ) ~ ) ~ ) ~ ) ) ~ ",
". ..^ g ^ ^ '.| w ,.x , + * - +.< 1 w * & * & * ",
"m ).).3 G v g 0 !.~.( {.)._ D B 4 8 B @ ) ~ ) 0 ",
"+ } c 9 ; ].t * ^.c c N  .@ ..g ^ ( B F & * * & ",
"'.K ( 4 4 ^.!.@ 6 k H k 9 - 6 ( r 3 ).- ~ ) ~ ) ",
". ,.o @ ^ 9 , i ].c ^ ^ K ] ..r L M /.! & * * & ",
"m (.> 8 j ; ( $.[ 8 j > 8 $.D ).j (.y ^ ~ ) a 0 ",
"+ ^ ^ } ^ ^ ! ` g g ^ g g t ..^ ^ g m | & * * & ",
"'.} K ,.- g @ ~ # } ,.K } # 6 4 ,.} # { ~ ) ~ ) ",
"% % + } _.} J & % & % & % & % & % & % & % & * & ",
") G > p k !.).^ { ~ ) ~ ) ~ ) @ k 3 @ ) ~ ) a 0 ",
"* 9 , ^ ^ I x , J w ,.x , ! * F B ].1 ] & * * u ",
"~ D ;.- g G ].).^ !.(.( M 3 # +.(.(.3 v ) ~ ) ~ ",
"* ..^ w % t ( B ! ^.} g g ! | ~ c c ^ t * & * & ",
"~ > , ! ) $.; O - 6 ( _ # _ 0 } ; ; v @ ) ~ ~ * ",
"* c B + & @ ; ( ) ]., w * ] * ] /.M a & & * * & ",
") 4 !.).8 j B 4 _ : ).).8 : # ^ c :.).K ) U a 0 ",
"* { ^ ^ g ^ ^ a ` g ^ g r m + J g ^ ^ Q * % * & ",
") # g - ,.v g 0 ~ '.v - +.g 0 ! m v v '.~ ) ~ ) ",
"& @ t * * i t * % & % & % % & % & % & % & & * & ",
") 6 j _ # ].{.m ) ~ ) ~ ) ~ ) ~ ) ~ ) ~ ) ) a 0 ",
"% ..c <.o c c t + _.[._.i * - F * w W ) * & * u ",
"~ 6 [ j G ; !.^ ..; 4 !.^.# O 7 # ^ X 1 ~ ) ) ~ ",
"% ..^ c , c /.]  .g ^ ^ ^.) - ; ) }.x g % * * & ",
"~ D 1 y j ; ; r D 1 _ 4 6 G ( ).3 8 3 - ) ~ ) ~ ",
"% ..^ g c ; M ] 9 y | ( k g m , ].; ^ + & & * & ",
"~ 6 ( r [ X !.r M ).).).< +.^ ( D p G ! ~ ) ~ ) ",
"& ^ m | ^ g ^ L g ^ g r g + |.'.^ g ] & % & * & ",
") } _ ~ '.+.r # '.v ,.+._ ! ! m } ^ @ ~ ) ) 0 a ",
"% @ _ m t * & % % & % & % & % & % & % & % * & * ",
"~ 6 !.; (.(.g ! ) ~ ) ~ ) ~ ) ~ ) ~ ) ~ ) ~ ) ~ ",
"& ..^ ^ ^ , 9 -.w ,.x , + * w ,.3 1.! * * * & * ",
"~ 6 4 } G 1 > 1.!.~.( {.).m !.(.( M [.m ~ a 0 a ",
"% ..^ & ` ^ ].( ..c c M ..! E } ^ g 0 | % * & * ",
"~ 6 ( ~ ~ K 2.[ D k k 3 k - 6 4 m # m @ ~ ~ ) ~ ",
"% ..^ * | x < ^ B /.g ^ K ] ]., ` * R * & * & * ",
") z ).8 j !.4 } y 8 > j 8 $.: ).).).M m ~ a 0 a ",
"& ^ ^ I ^ ^ ! w g g ^ g ^ t g ^ g ^ m | % * u * ",
"~ - K - - I @ ) # } K ,.} @ $.+.- +.g @ ~ ) ~ ) "};
