/* XPM */
static char *weekday_xpm[] = {
/* width height num_colors chars_per_pixel */
"    20    42        4            1",
/* colors */
"X c #000000",
"# c #555555",
"a c #aaaaaa",
". c #ffffff",
/* pixels */
"....................",
".X...X..XXXX..X...X.",
".XX.XX.X....X.XX..X.",
".X.X.X.X....X.X.X.X.",
".X...X.X....X.X..XX.",
".X...X..XXXX..X...X.",
"....................",
".XXXXX.X....X.XXXXX.",
"...X...X....X.X.....",
"...X...X....X.XXXX..",
"...X...X....X.X.....",
"...X....XXXX..XXXXX.",
"....................",
".X....X.XXXXX.XXXX..",
".X....X.X.....X...X.",
".X.XX.X.XXXX..X...X.",
".XX..XX.X.....X...X.",
".X....X.XXXXX.XXXX..",
"....................",
".XXXXX.X...X.XXXXX..",
"...X...X...X.X....X.",
"...X...XXXXX.XXXXX..",
"...X...X...X.X...X..",
"...X...X...X.X....X.",
"....................",
".XXXXX.XXXXX..XXXXX.",
".X.....X....X...X...",
".XXXX..XXXXX....X...",
".X.....X...X....X...",
".X.....X....X.XXXXX.",
"....................",
"..XXXX...XX...XXXXX.",
".X......X..X....X...",
"..XXX...X..X....X...",
".....X.XXXXXX...X...",
".XXXX..X....X...X...",
"....................",
"..XXXX.X....X.X...X.",
".X.....X....X.XX..X.",
"..XXX..X....X.X.X.X.",
".....X.X....X.X..XX.",
".XXXX...XXXX..X...X."
};
