/* XPM */
static char * root_icon_xpm[] = {
"16 14 15 1",
" 	c None",
".	c #555555",
"+	c #B8B8B8",
"@	c #A2A2A2",
"#	c #C2C2C2",
"$	c #202020",
"%	c #000000",
"&	c #D6D6D6",
"*	c #C9C9C9",
"=	c #2B2B2B",
"-	c #818181",
";	c #568E56",
">	c #9C9C9C",
",	c #959595",
"'	c #848484",
" .............  ",
".+@@@@@@@@@@@#$ ",
".@%%%%%%%%%%%&$ ",
".@%%%%%%%%%%%&$ ",
".@%%%%%%%%%%%&$ ",
".@%%%%%%%%%%%&$ ",
".@%%%%%%%%%%%&$ ",
".@%%%%%%%%%%%&$ ",
".@%%%%%%%%%%%&$ ",
".@%%%%%%%%%%%&$ ",
".#&&&&&&&&&&&*$ ",
" =---------;-=  " ,
"   %>,,,,,'%    ",
"    =$$$$$$     "};
