/* XPM */
static char * icon2_xpm[] = {
"16 16 56 1",
" 	c None",
".	c #FFFF00",
"+	c #FEFE00",
"@	c #CECAB6",
"#	c #646213",
"$	c #D8D53B",
"%	c #474442",
"&	c #A99E95",
"*	c #1B1816",
"=	c #2C2724",
"-	c #060506",
";	c #26221E",
">	c #020202",
",	c #554F4B",
"'	c #999796",
")	c #6F6964",
"!	c #12100F",
"~	c #D3CEC9",
"{	c #AA9E95",
"]	c #84786F",
"^	c #0E0C0B",
"/	c #98928D",
"(	c #211E1B",
"_	c #BCB9B7",
":	c #A69A90",
"<	c #9A8C81",
"[	c #4F4640",
"}	c #000001",
"|	c #C8C800",
"1	c #BDB7B1",
"2	c #998D83",
"3	c #342F2B",
"4	c #A19A94",
"5	c #918379",
"6	c #080707",
"7	c #95918D",
"8	c #CAC2BC",
"9	c #453F3A",
"0	c #655F5A",
"a	c #97897E",
"b	c #352F2A",
"c	c #A5998F",
"d	c #161312",
"e	c #908277",
"f	c #97887D",
"g	c #B0A59D",
"h	c #D5CFCA",
"i	c #7F756E",
"j	c #010102",
"k	c #312B27",
"l	c #7C6F65",
"m	c #908378",
"n	c #201C1A",
"o	c #0B0908",
"p	c #0D0B0B",
"q	c #000000",
"   .   ..       ",
"   ..  ..   .   ",
"    .+ @#  ..   ",
"     $%&* ..    ",
" ..  =-;>       ",
" ...,  ')     . ",
"    ! ~{]^  ... ",
"   /(_:<[} ...  ",
" ..| 123>       ",
"...  456 789    ",
"     0ab  cd... ",
"   .. efghij    ",
" ...  klamn     ",
" ..    odpq..   ",
"     ..  .  ..  ",
"    ..   .   .  "};
