#define stripe_width 4
#define stripe_height 4
static char stripe_bits[] = {
  0x08, 0x04, 0x02, 0x01, };
