/* XPM */
static char * clock_xpm[] = {
/* width height num_colors chars_per_pixel */
"    55    57        6            1",
/* colors */
". c None",
"# c #aaaaaa",
"a c #000000",
"b c #282828",
"c c #ffffff",
"d c #4d4d4d",
/* pixels */
"aaaaaaaaaaaaaaaaaaaaaaaaaaaaaaaaaaaaaaaaaaaaaaaaaaaaaab",
"abbbbbbbbbbbbbbbbbbbbbbbbbbbbbbbbbbbbbbbbbbbbbbbbbbbbbc",
"abbbbbbbbbbbbbbbbbbbbbbbbbbbbbbbbbbbbbbbbbbbbbbbbbbbbbc",
"abbbbbbbbbbbbbbbbbbbbbbbbbbbbbbbbbbbbbbbbbbbbbbbbbbbbbc",
"abbbbbbbbbbbbbbbbbbbbbbbbbbbbbbbbbbbbbbbbbbbbbbbbbbbbbc",
"abbbbbbbbbbbbbbbbbbbbbbbbbbbbbbbbbbbbbbbbbbbbbbbbbbbbbc",
"abbbbbbbbbbbbbbbbbbbbbbbbbbbbbbbbbbbbbbbbbbbbbbbbbbbbbc",
"abbbbbbbbbbbbbbbbbbbbbbbbbbbbbbbbbbbbbbbbbbbbbbbbbbbbbc",
"abbbbbbbbbbbbbbbbbbbbbbbbbbbbbbbbbbbbbbbbbbbbbbbbbbbbbc",
"abbbbbbbbbbbbbbbbbbbbbbbbbbbbbbbbbbbbbbbbbbbbbbbbbbbbbc",
"abbbbbbbbbbbbbbbbbbbbbbbbbbbbbbbbbbbbbbbbbbbbbbbbbbbbbc",
"abbbbbbbbbbbbbbbbbbbbbbbbbbbbbbbbbbbbbbbbbbbbbbbbbbbbbc",
"abbbbbbbbbbbbbbbbbbbbbbbbbbbbbbbbbbbbbbbbbbbbbbbbbbbbbc",
"abbbbbbbbbbbbbbbbbbbbbbbbbbbbbbbbbbbbbbbbbbbbbbbbbbbbbc",
"abbbbbbbbbbbbbbbbbbbbbbbbbbbbbbbbbbbbbbbbbbbbbbbbbbbbbc",
"abbbbbbbbbbbbbbbbbbbbbbbbbbbbbbbbbbbbbbbbbbbbbbbbbbbbbc",
"abbbbbbbbbbbbbbbbbbbbbbbbbbbbbbbbbbbbbbbbbbbbbbbbbbbbbc",
"bcccccccccccccccccccccccccccccccccccccccccccccccccccccc",
".......................................................",
".......................................................",
"..........ccccccccccccccccccccccccccccccccc............",
"..........ccccccccccccccccccccccccccccccccca...........",
"..........cccccccccccccccccccccccccccccccccaa..........",
"..........cccccccccccccccccccccccccccccccccaaa.........",
"..........cccccccccccccccccccccccccccccccccaaad........",
"..........cccccccccccccccccccccccccccccccccaaadd.......",
"..........cccccccccccccccccccccccccccccccccaaaddd......",
"..........cccccccccccccccccccccccccccccccccaaadddd.....",
"..........cccccccccccccccccccccccccccccccccaaadddd.....",
"..........cccccccccccccccccccccccccccccccccaaadddd.....",
"..........cccccccccccccccccccccccccccccccccaaadddd.....",
"..........cccccccccccccccccccccccccccccccccaaadddd.....",
"..........cccccccccccccccccccccccccccccccccaaadddd.....",
"..........cccccccccccccccccccccccccccccccccaaadddd.....",
"..........cccccccccccccccccccccccccccccccccaaadddd.....",
"..........cccccccccccccccccccccccccccccccccaaadddd.....",
"..........cccccccccccccccccccccccccccccccccaaadddd.....",
"..........cccccccccccccccccccccccccccccccccaaadddd.....",
"..........cccccccccccccccccccccccccccccccccaaadddd.....",
"..........cccccccccccccccccccccccccccccccccaaadddd.....",
"..........cccccccccccccccccccccccccccccccccaaadddd.....",
"..........cccccccccccccccccccccccccccccccccaaadddd.....",
"..........cccccccccccccccccccccccccccccccccaaadddd.....",
"..........cccccccccccccccccccccccccccccccccaaadddd.....",
"..........cccccccccccccccccccccccccccccccccaaadddd.....",
"..........cccccccccccccccccccccccccccccccccaaadddd.....",
"..........cccccccccccccccccccccccccccccccccaaadddd.....",
".........ccccccccccccccccccccccccccccccccccaaadddd.....",
".........ccccccccccccccccccccccccccccccccccaaadddd.....",
".........cccccccccccccccccccccccccccccccccbaaadddd.....",
"........ccccccccccccccccccccccccccccccccccbaaadddd.....",
".......ccccccccccccccccccccccccccccccccccbbaaadddd.....",
"..........bbbbbbbbbbbbbbbbbbbbbbbbbbbbbbbbbaaadddd.....",
"..........#################################aaadddd.....",
"..........aaaaaaaaaaaaaaaaaaaaaaaaaaaaaaaaaaaadddd.....",
"...........aaaaaaaaaaaaaaaaaaaaaaaaaaaaaaaaaaadddd.....",
"............dddddddddddddddddddddddddddddddddddddd....."
};
