/* XPM */
static char *date[] = {
/* width height num_colors chars_per_pixel */
"    50     6        3            1",
/* colors */
". c #410902",
"# c #822b25",
"a c #cdbebc",
/* pixels */
"#aa#..#a#.#aa#.aaaa.a..a.aaaa.#aaa.aaaa.#aa#.#aa#.",
"a##a..#a#.a##a.###a.a##a.a##..a###..##a.a##a.a##a.",
"a##a..#a#...#a...a#.aaaa.aaa#.aaa#...#a.#aa#.a##a.",
"a##a..#a#..#a#...#a..##a...#a.a##a...a#.a##a.#aaa.",
"a##a..#a#.#a#..a##a...#a.a##a.a##a...a..a##a...#a.",
"#aa#..#a#.aaaa.#aa#....a.#aa#.#aa#...a..#aa#....a."
};
