/* XPM */
static char * date_xpm[] = {
"55 6 4 1",
" 	c None",
".	c #410902",
"+	c #822B25",
"@	c #CDBEBC",
".+@+.+@@+.@@@@.@..@.@@@@.+@@@.@@@@.+@@+.+@@+.+@@+......",
".+@+.@++@.+++@.@++@.@++..@+++..++@.@++@.@++@.@++@.@+...",
".+@+...+@...@+.@@@@.@@@+.@@@+...+@.+@@+.@++@.@++@.++...",
".+@+..+@+...+@..++@...+@.@++@...@+.@++@.+@@@.@++@......",
".+@+.+@+..@++@...+@.@++@.@++@...@..@++@...+@.@++@.@+...",
".+@+.@@@@.+@@+....@.+@@+.+@@+...@..+@@+....@.+@@+.++..."};
