/* XPM */
static char * led_xpm[] = {
"105 9 5 1",
" 	c None",
".	c #000000",
"+	c #395B63",
"@	c #C6DEFF",
"#	c #294242",
".+@@@+......+..+@@@+..+@@@+..+...+..+@@@+..+@@@+..+@@@+..+@@@+..+@@@+....................................",
".@+#+@.....#@...##+@...##+@..@..#@..@+##...@+##....##+@..@+#+@..@+#+@....................................",
".@#.#@.....#@.....#@.....#@..@..#@..@#.....@#........#@..@#.#@..@#.#@..@#.......##...#...#...###...#...#.",
".@#.#@.....#@...##+@...##+@..@##+@..@+##...@+##......#@..@+#+@..@+#+@..#+......+@@+.#@+.+@#.#@@@+##@+.+@#",
".+...+......+..+@@@+..+@@@+...@@@+..+@@@+..+@@@+......+..+@@@+..+@@@+.........#@++@+#@@+@@#.#@++@+#@@+@@#",
".@#.#@.....#@..@+#+....##+@...##+@...+#+@..@+#+@.....#@..@+#+@...+#+@..@#.....#@@@@+#@+@+@#.#@@@++#@+@+@#",
".@#.#@.....#@..@#........#@.....#@.....#@..@#.#@.....#@..@#.#@.....#@..#+.....#@++@+#@+.+@#.#@++#.#@..+@#",
".@+#+@.....#@..@+##....##+@.....+@...##+@..@+#+@.....#@..@+#+@.....#@.........#@++@+#@+.+@#.#@+...#@..+@#",
".+@@@+......+..+@@@+..+@@@+......+..+@@@+..+@@@+......+..+@@@+......+..........+..+..+...+...+.....+...+."};
