/* XPM */
static char * month_xpm[] = {
"14 72 71 1",
" 	c None",
".	c #7B0800",
"+	c #CDBEBC",
"@	c #760800",
"#	c #822B25",
"$	c #620801",
"%	c #540801",
"&	c #7A0800",
"*	c #750801",
"=	c #6C0801",
"-	c #550801",
";	c #490802",
">	c #720801",
",	c #6E0801",
"'	c #690801",
")	c #600801",
"!	c #660801",
"~	c #610801",
"{	c #540802",
"]	c #3F0802",
"^	c #470802",
"/	c #3D0802",
"(	c #640801",
"_	c #4E0802",
":	c #580802",
"<	c #460802",
"[	c #410802",
"}	c #500802",
"|	c #4C0802",
"1	c #440802",
"2	c #420802",
"3	c #740800",
"4	c #5D0801",
"5	c #680801",
"6	c #510802",
"7	c #5B0801",
"8	c #450802",
"9	c #4F0802",
"0	c #430802",
"a	c #580801",
"b	c #550802",
"c	c #6F0801",
"d	c #6B0801",
"e	c #630801",
"f	c #5E0801",
"g	c #570802",
"h	c #520802",
"i	c #500801",
"j	c #710801",
"k	c #5A0802",
"l	c #5A0801",
"m	c #5D0802",
"n	c #4A0802",
"o	c #DCBEBC",
"p	c #DABEBC",
"q	c #D9BEBC",
"r	c #D8BEBC",
"s	c #D7BEBC",
"t	c #D3BEBC",
"u	c #D2BEBC",
"v	c #D1BEBC",
"w	c #D1BEBD",
"x	c #D6BEBC",
"y	c #D4BEBC",
"z	c #D3BEBD",
"A	c #D2BEBD",
"B	c #CEBEBD",
"C	c #CCBEBD",
"D	c #D4BEBD",
"E	c #D0BEBD",
"F	c #CFBEBD",
"...+@#++#$+#%+",
".&*+=+##+-++;+",
">,'+)+##+;++#+",
"!~#+{++++]+#++",
"+##+^+##+/+/++",
"#++#]+##+/+/#+",
"++++@++++$+++#",
"+###=+###-+##+",
"+++()+++_;+++#",
"+##:{+#<[]+##+",
"+#}|^+###/+##+",
"+#12]++++/+++#",
"+##+3#++#4+++#",
"++++5+##+6+##+",
"+##+7+##+8+##+",
"+##+9++++/+++#",
"+}|+0+##+/+##+",
"+12+/+##+/+##+",
"#++#@+++#$+++#",
"+##+=+##+-+##+",
"+##+)+##+;+##+",
"++++{+++#]+++#",
"+##+^+##//+##+",
"+##+]+#///+##+",
"+##+@#++#+4a%+",
"++++=+##++#|#+",
"+##+)+##+#+#+#",
"+##+{++++]#+#/",
"+b}+^+##+//+//",
"+;1+]+##+//+//",
"...+@+cd+$+#%+",
".&*+=+ef+-++;+",
">,'+)+gh+;++#+",
"!~#+{+##+]+#++",
"+##+^+##+/+/++",
"#++#]#++#/+/#+",
"...+@+cd+$+a%i",
".&*+=+ef+-+|;^",
">,'+)+gh+;+0[]",
"!~#+{+##+]+///",
"+##+^+##+/+##/",
"#++#]#++#/++++",
"#++#@+cd+$#+++",
"+##+=+ef+-+###",
"+##+)+gh+;+#[]",
"++++{+##+]+#++",
"+##+^+##+/+##+",
"+##+]#++#/#+++",
"#+++@++++$+++#",
"+#*j=+###-+##+",
"++#()+++_;+##+",
"##++{+#<[]+++#",
"kb#+^+###/+##/",
"+++#]++++/+#//",
"#++#@#++#+++++",
"+##+=+##l##+##",
"+,'+)+gh_;#+#]",
"+~m+{+n<[]/+//",
"+##+^+##///+//",
"#++#]#+++//+//",
"+#.+@#++#+4a%+",
"++*+=+##++6|;+",
"++#+)+gh++#0#+",
"+#++{+n<+#+#+#",
"+b++^+##+/#+#/",
"+;#+]#++#//+//",
"ooo#@pqrs$#tuv",
"o##p=s###-w##^",
"p,'x)yzA_;B0[]",
"s~mz{w#<[]C///",
"D##E^B###/C##/",
"EFB#]CCCC/#CCC"};
