/* XPM */
static char * weekday_xpm[] = {
"17 42 5 1",
" 	c None",
".	c #000000",
"+	c #212929",
"@	c #547891",
"#	c #395263",
".++++..++++.+++..",
"+@@##++#@@#+@@#+.",
"+@+@#@+@++@+@++#+",
"+@+#+@+@++@+@++@+",
"+@+.+@+#@@#+@++@+",
".+...++++++++..+.",
".+++++.+..+.++++.",
"+@@@@@+@++@+@@@#+",
".++@+++@++@+@@+++",
"..+@+.+@++@+@+++.",
"..+@+.+#@@#+@@@#+",
"...+...+++++++++.",
".+...++++++.+++..",
"+@+.+@+@@@#+@@#+.",
"+@+#+@+@@+++@++@+",
"+@#@#@+@++++@++@+",
"++@#@++@@@#+@@#++",
"..+++..++++++..+.",
".+++++.+..+.++++.",
"+@@@@@+@++@+@@@#+",
".++@+++@##@+@+@#+",
"..+@+.+@##@+@##++",
"..+@+.+@++@+@++@+",
"...+...+..+.++.++",
".++++..++++...+..",
"+@@@@#+@@@#+.+@+.",
"+@+++++@+@#+.+@+.",
"+@@#..+@##++.+@+.",
"+@++..+@++@+.+@+.",
".++....++.+++.+..",
".++++..+++++++++.",
"+#@@#.#@@#+@@@@@+",
"+@@+++@++@+++@++.",
"+++@@+@@@@+.+@+..",
".#@@#+@++@+.+@+..",
".++++.+..+...+...",
".++++..+..+.+++..",
"+#@@#.+@++@+@@#+.",
"+@@++++@++@+@++#+",
"+++@@++@++@+@++@+",
".#@@#++#@@#+@++@+",
".++++.+++++++..+."};
