/* XPM */
static char *clock_xpm[] = {
/* width height num_colors chars_per_pixel */
"    64    64       63            1",
/* colors */
". c #0c0a0c",
"# c #646264",
"a c #b402b4",
"b c #343634",
"c c #949294",
"d c #4c4e4c",
"e c #24221c",
"f c #7c7a7c",
"g c #44423c",
"h c #acaaac",
"i c #141614",
"j c #2c2e2c",
"k c #5c5a54",
"l c #6c6e6c",
"m c #3c3e3c",
"n c #9c9e9c",
"o c #848684",
"p c #4c4a44",
"q c #b4b6b4",
"r c #2c2a2c",
"s c #241a1c",
"t c #3c3a34",
"u c #545654",
"v c #24262c",
"w c #44464c",
"x c #1c1e1c",
"y c #141214",
"z c #6c6a6c",
"A c #ec02ec",
"B c #9c9a9c",
"C c #54524c",
"D c #242624",
"E c #848284",
"F c #444644",
"G c #b4b2b4",
"H c #343234",
"I c #5c5e5c",
"J c #747674",
"K c #a4a6a4",
"L c #8c8e8c",
"M c #bcbebc",
"N c #0c0e0c",
"O c #646664",
"P c #34363c",
"Q c #949694",
"R c #242224",
"S c #7c7e7c",
"T c #444244",
"U c #acaeac",
"V c #3c1e34",
"W c #1c1a1c",
"X c #2c2e34",
"Y c #5c5a5c",
"Z c #747274",
"0 c #3c3e44",
"1 c #a4a2a4",
"2 c #8c8a8c",
"3 c #4c4a4c",
"4 c #bcbabc",
"5 c #3c3a3c",
"6 c #1c1e24",
"7 c None",
"8 c #545254",
/* pixels */
"7777KnQccQBQQcoooo2LQL2oESES22LcLcLLLQ2Q2LccL2ocoEL2BQ2L2L2J7777",
"7711ncoSEfSfSoEZfSEoEfSfSfJJllZzZzZlZlOZOlzZSlJZZ#llZJZlSEE2Ez77",
"7h1LO8ddT3d33mbRbHmFgT5mjDeRxRvRXDHb5bTbTrmF8TmFmr5m5mj55TrFdJZ7",
"71BHgmTb55m555bRjj55b5m5brDyiDRDHRHbjrgjmrTmFTFTHD5DH5jbTF5FTTH7",
"ncHryyyyNiyNiyi.yNyNNyNyyiyyNy..NNNyyiNyyxWWWWWiNyyiWiyxxWjHFHbr",
"1#jriHrDvrrrjHjjrrDrrjrjHHjHjDDrvRjrjHrrrjHjbjHHj6jHjjHjHb2dmTjR",
"ncr6ijDrrDDjrHjHrrDRRDHrHjbHHrjHjDrHjHjDjHHbHbbbHDrjHHj5HjQ8dFrR",
"BoDHyDHrjrDrjjjrrrDjDDDHjbbjrbHbHHrbbHHbrHHHj5bjrrjHHjbH5HcYd8bR",
"cSmjyDjrrrrrrrDDjjHrHrHbHHbjrmHbHbrbHbHjDbHbbHjHrjbbbj5bbbcFYdbR",
"cfHHyerjDrjjrDjHHjjjjjHbbb5bHHbbbbrbHjHjrHbbHHbjHHHbHHH55mcuTdHD",
"cJrXiDrrrDjjrrHjHHjHjjjHb5HbHbbb5HjrjHHbDHjbHjHbmbbHHbrbbbcFFg5R",
"QJjjyRrjrjrrDrjHHbbHj5bbHHbbjH5bbHjrHHjrjHjHbTHtPt5mtHjHH5LT3uTD",
"QSHHirDDrrDjrrrjbHbHb55Tbbb5jHb55bjjDjjHjrrjbbHH55b5PbHj5bQmdI3r",
"BfRDiDRDDjjrjbjrrrHr5mm5m5555bbHHjHjrjH5brrjjHHHbtP5tmbH5mQ#d83r",
"BSRxNDrDrHjHHjbjjHbtHP5t5PgbHb5HbbjrrHbHbHDbtHbbHPgT05mjmTnY3dT6",
"LJjDyDrDrrHjbHHjHHPm5HH55mT0bb5bbHrrjjHbHjrHjPHmH5FmTg5Hm5Q#d#Fj",
"LZrRNrRDjDjHHHjbHbt5bbjj55mtHHbHjDHjjHj5Hrrjbtbmbm5mmTmbTbB#d#3j",
"2lRrNDDrrHjrjjHbHmPm5jHHbmbHX5b5bHb5bHbbHDjHH5P55T0t0Tmb55Bu83bR",
"2zDDyrrDrjjHjrHHbbm5Hb555jjHbbmm5Hb5b5Hbjrrjb5bbm5m5TF55mmQuF35R",
"2zDDyrrDrrjjjjjHjjrjjb5mb5Hb5bmTmHHb5bbjHjrjHHHj5g5bT5mj5Tc3IdmR",
"2OjRiDjRrrjHjrHHjtPHrHb55btHbHg5m5jHbbjHHjbrbbtPm5mH5mbHbjcdzOdD",
"okXxroESSEoEEL22cL2oEooooBKGqqqqUncBQLoEoo2o2cLcQQQQQcLcccUd#Y8r",
"EYDWTtHjDexrjmbdm5HDWTJ1UqGU1EJJ#ud#uOYF3TjrRm3uu8TYud8udd8Tz8FR",
"cIbj03TPHrWrb55m5RD#LG4GnfELfZZO8OYYuY#TgFTubWrb3m3YuTkd38CwmmDi",
"LlFtdFdm5DRrrHrDDlhUqnQE#YJfffJfYOOY8mu3uF838IPWeFwd8mwFudTFdCHi",
"Qz3m333gHDxjjHD8hqMGQfOlIlOlJzZYzfIO#35Y88lOduIddH8k3mHFT3m888Fx",
"Lz3TFF3bjXbHjjfKq4G2SlJ2SflIffSEOSl8ubm88IllZ#Y#O8XH3drtPHF#dumR",
"cOdbHmbmHmtvg1KGqnJZlf22QfZ#lJlfzzlI8HF0dY#OOIYzldCDbFT6eF3u#8mr",
"fItmgXgwHmjTK4GcSl#uIEE2LofuzZlJSzY8ubYCduYzzlIzOl8YjrHHHm8d#Y5D",
"L8T30m3gHrgKqqcI8T8YYfoofzIdI#S#ZO8Ym5YOudTI8YO#l8IIurRbmTddYImW",
"oIdFp5m5DXnGhLzmYIlJ2lZllYTTYI8Iu8TmHFd8u80bF#l#uYzd88RDmd3F8d5x",
"LYmTPF5bWEG1Eu3duzlZSSZlu#udHuu##IIY5b3TF55HTd33dYd3uOd65333d8jR",
"oz5mgmrDuhnlbmb38OZJZESEOZ#8uYOYuYOud8#8YduuTOIITu#d#Y#brFTdTHjR",
"2OH5mPbj1Go85FTuTd#lSZofJz#8u#88#uYu#YuuYu#O8uuYu3uI8OCdRb5bHbxx",
"oIFTdpHzUcIu5#3TIO#J##zO#l#8dl#uud8#uFOzYIlOdzOzzY8Z#8d8jHXdTwjr",
"LzCdFFj1Kzu8mT8TIoEfI#u8dYIuuzOOJOuOOuOOJ#u8ufZlIIIIIYId8xrmTgrW",
"oZ38353K2OzYId5b8OZzlOZ#0uF3u8lzJz8##YIzzIY#YJOZO8u3Yl8udRjtHX5x",
"LOY5mHO1EZlJII8Il##OYzl#CTY3II##JO88I#duu8IZY8IJzlOOYdY3FRDb5gjR",
"E#TTbHo2O#llZlY#zzIdIz#I8m8T3d3d#llYIuYzIYIzOTlf#l#zYlOu3rD0m3FR",
"S#ddTHollOOzzOdzlOZI3JOO#dudw8m8ZfIzz#dOIzldu8#2zlllIO#3THrbTd5D",
"o#ddTbSzYuz##8YOlZl#YIZIdTFdpm8#lYfzIO8uZul8#zOO#llZldF8ujxrbw5R",
"EzuY3Tld3Y#dYd#Zzl8Izz##dP8dT5FIYYl8IdT8z#Y3IOz#dflzZzmu8HDmHpPR",
"2luYwtIdY#OI#uOzdYllOluuFF555FmIIzuI#TTduIudOYOl#IZlIYm#FrDTHFPR",
"ozdddF3wO##8O#d8OzlZz#8u##d3TF38dF38FTddzOYYYuO#3TOu#TTbTDD0gmHR",
"2Z8TTHgu#IIIu8#uI#OOl#8##O#uu335bmvgTd8dYlI#8uIY3#Fd3TFbjWRt0Fji",
"SYddpwT3u8#u#u8uuYYII#uzl#OY88pwddTTdYdYd3OI#8Iu3dT#IY8b5ir5mFjy",
"SlzYYumIuuuYd3uTd#IIu3muOOuuFw#YpwFm3dIu#8IOY#I#duuu#IOtjWHbHreN",
"2ZlIzOF8d3u8TudFb5838II33IT3uOI#dF3T3Yu#Y#8II#OOYZzd8#dHW6jjHbHi",
"cfOuIO8b#33uYOIYOmz#I#Iz83Izll#l8FpdudI#Il8Yu#l8OOzI8dPHiHjr5w5x",
"oJzYYTT5uuO#YlZYYFOlJ#IOzuOOZzIIuTd8YF3#Oz3IuYZl#OOOuTHWebr5F3mR",
"E8dYOJ3dbuYOzllf83YlJfzOOdlZZ#YYuFT3TdT3OOII#uIYIOYOTrHiRrbm5T5R",
"LSd#OlFTTHuYOOOFuF#zzJOYO3z#Ou8F3m33uY#bd8YY38dm3uu8HDiRrrb3dT5D",
"2JT3###8PrHuu#YOz3d#OzluITIY#Iu88TduuI##mF5mrb3dYFHrxiRjbHFF3wbx",
"EOOuI8#udmXp#8Y#Yd88z#l8TuOOI8IYd8IYY8uuumTrjm3d33jRyWrHbbFd3F5x",
"EYOuOOuCdmmHHu8IYIITmIY8FY#O888I8dY8IYT38FmmbTd5T5jixiDHm35b55be",
"Slu8I8Yd83dFbjOI8OuO#3dT8zzOYFdIdTu#uuYuYId55b5mbjWxRRbTddmmFd5r",
"fuY88dYu8YdY3EbluO##uudTuIlIY#TTm8IIzYII#Yd3jDxHiiRRDHjT3FTTdFTR",
"ZuYuIOuFI#IIY8YHD8#Yuu3T3#YY#F8FT3uuYIu#I883HrWHxrjjb5mmTddT8F5D",
"#z8Td333#lJZO#F35HDd8d3I#uu#8d8Fmmd8FuT8uFbryjRDHH5m5TFd8dmddTFR",
"d3wd#O#TIJzl8Om3d5Fm5HdYI88mddmT5j5mTTmbHrNxDRjj5mTdTIOOY3m8mFmR",
"7IImOO#3YzlzITTud38YuTmHrbF883FTHHrrrjrRjRDWRDHbmFFT3I#IYTFYmTr7",
"7lz8#llzImmYd8Ilz#II#dYzjjDrxxWxxxixxxPtHexyjHbTd883uz#OO33YFDR7",
"77fd5dTd5mFF3F33ddmmm5u#IuF885bg5T5gT0HbvRvRWrH5mTbCIzO#Y33Fjr77",
"7777bjDrRHjHjjXHrrHHRrH5bHtXrDx6DRDrrjxrexWWWWxs6jVjFO#Y3FTj7777"
};
