/* XPM */
static char *date[] = {
/* width height num_colors chars_per_pixel */
"    90    13        4            1",
/* colors */
". c #ffffff",
"# c #cbcbcb",
"a c #959595",
"b c #636363",
/* pixels */
"bbb....bbbbbbb..bbbbbba..abbbb....abbbbbbb..bbbb......bbbbba...bbb......bbba..abbbbb...abb",
"bb..aa..bbbbb#..bbbbb.....abb..bb..abbbbba..bbba.....bbbba...bbbb.......bba.bb.abbb..a...b",
"bb.abba.bbbb....bbbb..bba..bb.bbbb..bbbba...bbba.bbbbbbba..bbbbbb.bbba.abb..bb..bba.abb..a",
"ba.bbbb.abbbbb..bbbb.bbbb..bbbbbba.abbbb....bbb..bbbbbbb..bbbbbbbbbbb..bbb..bb..bb..bbbb..",
"b..bbbb..bbbbb..bbbbbbbbb..bbbbba..bbbba.b..bbb....abbba..bbbbbbbbbba.abbba..b.abb..bbbb..",
"b..bbbb..bbbbb..bbbbbbbbb..bbbb...bbbba.ab..bbbaaa...bb......abbbbbb..bbbbb....bbb..bbbb..",
"b..bbbb..bbbbb..bbbbbbbba.abbbb....bbb..bb..bbbbbbb..ab..bbb..abbbbb.abbbbb....bbba..bbb..",
"b..bbbb..bbbbb..bbbbbbbb..bbbbbbb..aba.bbb..bbbbbbbb..b..bbbb..bbbba.bbbbb..b...bbb.......",
"b..bbbb..bbbbb..bbbbbbb..bbbbbbbbb..b.aaaa..abbbbbbb..b..bbbb..bbbb..bbbba.abb..abbba.a..a",
"ba.bbbb.abbbbb..bbbbbb..bbbbbbbbbb..b........bbbbbbb..b..bbbb..bbbb.abbbb..bbbb..bbbbba..b",
"bb.abba.bbbbbb..bbbbb..bbbabbbbbba.abbbbbb..bbbabbba.ab..abbb.abbba.bbbbba.bbbb.abbbba..ab",
"bb..aa..bbbbba..abbba.aaaa.bb.aba..bbbbbbb..bbb.aaa..bbb...a..bbbb..bbbbbb..aa..bbba...bbb",
"bbb....bbbbb......bb.......bb....abbbbbbbb..bbb....abbbbb....bbbbb..bbbbbbba..abbb...abbbb"
};
