/* XPM */
static char *led_xpm[] = {
/* width height num_colors chars_per_pixel */
"   135    11        3            1",
/* colors */
". c #313131",
"O c #00df00",
"/ c #004300",
/* pixels */
"....OOOO........O.....OOOO.....OOOO....O....O.....OOOO.....OOOO....OOOO.....OOOO.....OOOO..............................................",
"...O....O.......O.........O........O...O....O....O........O............O...O....O...O....O.............................................",
"../O.../O....../O......../O......./O../O.../O.../O......./O.........../O../O.../O../O.../O.............................................",
"..O/...O/......O/........O/.......O/..O/...O/...O/.......O/...........O/..O/...O/..O/...O/..O..........................................",
"..O....O.......O.........O........O...O....O....O........O............O...O....O...O....O...O..........................................",
"..O...O........O....OOOOO.....OOOO.....OOOO......OOOO....OOOOO........O...OOOOO....OOOOO..............O...O...O.......OOO..O...O.......",
".O....O.......O....O.............O........O.........O...O....O.......O...O....O........O............./O...OO.OO.......O..O.OO.OO.......",
"/O.../O....../O.../O............/O......./O......../O../O.../O....../O../O.../O......./O..O..........O.O..O.O.O.......O..O.O.O.O.......",
"O/...O/......O/...O/............O/.......O/........O/..O/...O/......O/..O/...O/.......O/..O.........O..O./O../O....../OOO./O../O.......",
"O....O.......O....O.............O........O.........O...O....O.......O...O....O........O.............OOOO.O/..O/......O/...O/..O/.......",
".OOOO........O.....OOOO.....OOOO.........O.....OOOO.....OOOO........O....OOOO.....OOOO.............O...O.O...O.......O....O...O........"
};
