/* XPM */
static char *month_xpm[] = {
/* width height num_colors chars_per_pixel */
"    22    72        4            1",
/* colors */
". c #606060",
"# c #fdfdfd",
"a c #626262",
"b c #7d7d7d",
/* pixels */
"......................",
".....#...#....#....#..",
"....b#...#...b##..b#..",
"....#b..#.#..#b.#.#b..",
".#..#..####.b#...##...",
"..##..#...#.#.....#...",
"......................",
"..a#####..#####..####a",
"..#......b#.....b#...#",
".b#####..#####..#####.",
".#.......#......#...#.",
"#.......a####..a####..",
"......................",
"..#....#....#....#####",
"..#...##....#b...#...#",
".#.#.#.#...#.#..#####.",
".#..#..#..####..#...#.",
"#......#.#...#.#....#.",
"......................",
"....#....#####..#####.",
"....#b..b#...#..#...#.",
"...#.#..#####..#####..",
"..####..#......#...#..",
".#...#.#......#....#..",
"......................",
"...#....#....#..#...#.",
"..b#...##....#...#.#..",
"..#b#.#.#...#.#..b#...",
".b#..#..#..####..#....",
".#......#.#...#..#....",
"......................",
".....#..#..b#..#....#.",
"....b#.b#..#..b##..b#.",
"....#b.#b.b#..#..#.#b.",
".#..#..#..#b.b#...##..",
"..##...a###..#.....#..",
"......................",
"......#..#..b#..#.....",
".....b#.b#..#..b#.....",
".....#b.#b.b#..#b.....",
"..#..#..#..#...#......",
"...##...a##...a####...",
"......................",
"....#...#..b#.b####...",
"....#b.b#..#..#.......",
"...#.#.#b.b#.b#.###...",
"..####.#..#b.#b..#....",
".#...#.a##....###.....",
"......................",
".b####..#####..a###a..",
".#.....b#.....b#...#..",
".b##b..####...#####...",
"....#..#.....b#.......",
"####b.a####..#........",
"......................",
"...###...###.#####....",
"..#...#.#.....b#......",
"..#..#..#.....#b......",
".#..b#.#.....b#.......",
".####..####..#........",
"......................",
"..#....#..b###..#...#.",
".b##..b#..#...#.#b.#b.",
".#..#.#b.b#..#b.b#.#..",
"b#...##..#...#...##...",
"#.....#..####....#....",
"......................",
"...a###...####..###...",
"..b#...#.b#....#......",
"..#....#.####..#......",
"..#...#..#....#.......",
".a####..a####.#####..."
};
