/* XPM */
static char * backgrnd_s_xpm[] = {
"40 10 6 1",
" 	c None",
".	c #7F7F7F",
"+	c #606060",
"@	c #004D00",
"#	c #BCBCBC",
"$	c #4C4C4C",
"...++++......++++................++++...",
"..+@@@@+....+@@@@+..............+@@@@+..",
".#@@@@@@+..#@@@@@@+..$$.$$.$$..#@@@@@@+.",
"#@@@@@@@@+#@@@@@@@@+.$$.$$.$$.#@@@@@@@@+",
"#@@@@@@@@+#@@@@@@@@+..........#@@@@@@@@+",
"#@@@@@@@@+#@@@@@@@@+..........#@@@@@@@@+",
"#@@@@@@@@+#@@@@@@@@+.$$.$$.$$.#@@@@@@@@+",
".#@@@@@@+..#@@@@@@+..$$.$$.$$..#@@@@@@+.",
"..#@@@@#....#@@@@#..............#@@@@#..",
"...####......####................####..."};
