/* XPM */
static char * backgrnd_xpm[] = {
"20 30 7 1",
" 	c None",
".	c #FFFFFF",
"+	c #000000",
"@	c #7F7F7F",
"#	c #BCBCBC",
"$	c #004D00",
"%	c #606060",
"...................+",
".@@@###@@@@@@###@@@+",
".@@#$$$#@@@@#$$$#@@+",
".@#$$$$$%@@#$$$$$%@+",
".#$$$$$$$%#$$$$$$$%+",
".#$$$$$$$%#$$$$$$$%+",
".#$$$$$$$%#$$$$$$$%+",
".@#$$$$$%@@#$$$$$%@+",
".@@%$$$%@@@@%$$$%@@+",
".@@@%%%@@@@@@%%%@@@+",
".@@@@@@@@@@@@@@@@@@+",
".%%%%%%%%%%%%%%%%%%+",
".%++++++++++++++++#+",
".%++++++++++++++++#+",
".%++++++++++++++++#+",
".%++++++++++++++++#+",
".%++++++++++++++++#+",
".%++++++++++++++++#+",
".%++++++++++++++++#+",
".%++++++++++++++++#+",
".%++++++++++++++++#+",
".%++++++++++++++++#+",
".%++++++++++++++++#+",
".%++++++++++++++++#+",
".%++++++++++++++++#+",
".%++++++++++++++++#+",
".%++++++++++++++++#+",
".%++++++++++++++++#+",
".##################+",
".@@@@@@@@@@@@@@@@@@+"};
