/* XPM */
static char * backgrnd_a_xpm[] = {
"30 46 8 1",
" 	c None",
".	c #FFFFFF",
"+	c #000000",
"@	c #606060",
"#	c #7F7F7F",
"$	c #BCBCBC",
"%	c #605F5F",
"&	c #004D00",
".............................+",
".@@@@@@@@@@@@@@@@@@####$$$###+",
".%++++++++++++++++$###$&&&$##+",
".@++++++++++++++++$##$&&&&&@#+",
".@++++++++++++++++$#$&&&&&&&@+",
".@++++++++++++++++$#$&&&&&&&@+",
".@++++++++++++++++$#$&&&&&&&@+",
".@++++++++++++++++$##$&&&&&@#+",
".@++++++++++++++++$###@&&&@##+",
".@++++++++++++++++$####@@@###+",
".@++++++++++++++++$####$$$###+",
".@++++++++++++++++$###$&&&$##+",
".@++++++++++++++++$##$&&&&&@#+",
".@++++++++++++++++$#$&&&&&&&@+",
".@++++++++++++++++$#$&&&&&&&@+",
".@++++++++++++++++$#$&&&&&&&@+",
".@++++++++++++++++$##$&&&&&@#+",
".@++++++++++++++++$###@&&&@##+",
".@++++++++++++++++$####@@@###+",
".@++++++++++++++++$##########+",
".$$$$$$$$$$$$$$$$$$##########+",
".############################+",
".@@@@@@@@@@@@@@@@@@@@@@@@@@@@+",
".@++++++++++++++++++++++++++$+",
".@+&&&&+&&&&+&&&&+&&&&++++++$+",
".@+&++&+&++&+&++&+&++&++++++$+",
".@+&++&+&++&+&++&+&++&++&&&+$+",
".@+&&&&+&&&&+&&&&+&&&&++&+&+$+",
".@+&++&+&++&+&++&+&++&++&&&+$+",
".@+&++&+&++&+&++&+&++&++&+&+$+",
".@+&&&&+&&&&+&&&&+&&&&++&&&+$+",
".@++++++++++++++++++++++++++$+",
".@$$$$$$$$$$$$$$$$$$$$$$$$$$$+",
".############################+",
".@@@@@@@@@@@@@@@@@@@@@@@@@@@@+",
".@++++++++++++++++++++++++++$+",
".@+&&&&+&&&&++++++&&&&+&&&&+$+",
".@+&++&+&++&++&&++&++&+&++&+$+",
".@+&++&+&++&++&&++&++&+&++&+$+",
".@+&&&&+&&&&++++++&&&&+&&&&+$+",
".@+&++&+&++&++&&++&++&+&++&+$+",
".@+&++&+&++&++&&++&++&+&++&+$+",
".@+&&&&+&&&&++++++&&&&+&&&&+$+",
".@++++++++++++++++++++++++++$+",
".@$$$$$$$$$$$$$$$$$$$$$$$$$$$+",
"++++++++++++++++++++++++++++++"};
