/* XPM */
static char * backgrnd_s_xpm[] = {
"30 20 7 1",
" 	c None",
".	c #FFFFFF",
"+	c #000000",
"@	c #7F7F7F",
"#	c #606060",
"$	c #BCBCBC",
"%	c #004D00",
".............................+",
"@##################@@@@$$$@@@+",
"@#++++++++++++++++$@@@$%%%$@@+",
"@#++++++++++++++++$@@$%%%%%#@+",
"@#++++++++++++++++$@$%%%%%%%#+",
"@#++++++++++++++++$@$%%%%%%%#+",
"@#++++++++++++++++$@$%%%%%%%#+",
"@#++++++++++++++++$@@$%%%%%#@+",
"@#++++++++++++++++$@@@#%%%#@@+",
"@#++++++++++++++++$@@@@###@@@+",
"@#++++++++++++++++$@@@@$$$@@@+",
"@#++++++++++++++++$@@@$%%%$@@+",
"@#++++++++++++++++$@@$%%%%%#@+",
"@#++++++++++++++++$@$%%%%%%%#+",
"@#++++++++++++++++$@$%%%%%%%#+",
"@#++++++++++++++++$@$%%%%%%%#+",
"@#++++++++++++++++$@@$%%%%%#@+",
"@#++++++++++++++++$@@@#%%%#@@+",
"@$$$$$$$$$$$$$$$$$$@@@@###@@@+",
"++++++++++++++++++++++++++++++"};
