/* XPM */
static char * digits_xpm[] = {
"80 7 4 1",
" 	c None",
".	c #000000",
"+	c #00FF00",
"@	c #004D00",
".++++.@@@+.++++.++++.+@@+.++++.++++.++++.++++.++++.@@@@.........................",
".+..+.@..+.@..+.@..+.+..+.+..@.+..@.@..+.+..+.+..+.@..@.................@@...++.",
".+..+.@..+.@..+.@..+.+..+.+..@.+..@.@..+.+..+.+..+.@..@..@@@..+@+..++@..@@...++.",
".+@@+.@@@+.++++.++++.++++.++++.++++.@@@+.++++.++++.@@@@..@.@..+.+..+.+..........",
".+..+.@..+.+..@.@..+.@..+.@..+.+..+.@..+.+..+.@..+.@..@..@@@..++@..++@..@@...++.",
".+..+.@..+.+..@.@..+.@..+.@..+.+..+.@..+.+..+.@..+.@..@..@.@..+.+..+.+..@@...++.",
".++++.@@@+.++++.++++.@@@+.++++.++++.@@@+.++++.++++.@@@@..@@@..+@+..++@.........."};
