/* XPM */
static char * lights_xpm[] = {
"10 20 6 1",
" 	c None",
".	c #7F7F7F",
"+	c #BCBCBC",
"@	c #004D00",
"#	c #606060",
"$	c #00FF00",
"...++++...",
"..+@@@@+..",
".+@@@@@@#.",
"+@@@@@@@@#",
"+@@@@@@@@#",
"+@@@@@@@@#",
"+@@@@@@@@#",
".+@@@@@@#.",
"..#@@@@#..",
"...####...",
"...++++...",
"..+$$$$+..",
".+$$$$$$#.",
"+$$$$$$$$#",
"+$$$$$$$$#",
"+$$$$$$$$#",
"+$$$$$$$$#",
".+$$$$$$#.",
"..#$$$$#..",
"...####..."};
