/* XPM */
static char * back_v_xpm[] = {
"48 18 7 1",
" 	c None",
".	c #878787",
"+	c #004906",
"@	c #FFFFFF",
"#	c #000000",
"$	c #4D4F2B",
"%	c #492929",
"................................................",
".++@.++#++#++#++#++#++#++#$$#$$#$$#$$#%%#%%#%%#@",
".++@.++#++#++#++#++#++#++#$$#$$#$$#$$#%%#%%#%%#@",
".++@.++#++#++#++#++#++#++#$$#$$#$$#$$#%%#%%#%%#@",
".++@.++#++#++#++#++#++#++#$$#$$#$$#$$#%%#%%#%%#@",
".++@.++#++#++#++#++#++#++#$$#$$#$$#$$#%%#%%#%%#@",
".++@.++#++#++#++#++#++#++#$$#$$#$$#$$#%%#%%#%%#@",
".++@.++#++#++#++#++#++#++#$$#$$#$$#$$#%%#%%#%%#@",
".++@.@@@@@@@@@@@@@@@@@@@@@@@@@@@@@@@@@@@@@@@@@@@",
".++@...........................................@",
".++@.++#++#++#++#++#++#++#$$#$$#$$#$$#%%#%%#%%#@",
".++@.++#++#++#++#++#++#++#$$#$$#$$#$$#%%#%%#%%#@",
".++@.++#++#++#++#++#++#++#$$#$$#$$#$$#%%#%%#%%#@",
".++@.++#++#++#++#++#++#++#$$#$$#$$#$$#%%#%%#%%#@",
".++@.++#++#++#++#++#++#++#$$#$$#$$#$$#%%#%%#%%#@",
".++@.++#++#++#++#++#++#++#$$#$$#$$#$$#%%#%%#%%#@",
".++@.++#++#++#++#++#++#++#$$#$$#$$#$$#%%#%%#%%#@",
"@@@@@@@@@@@@@@@@@@@@@@@@@@@@@@@@@@@@@@@@@@@@@@@@"};
