/* XPM */
static char * back_h_xpm[] = {
"18 48 7 1",
" 	c None",
".	c #878787",
"+	c #000000",
"@	c #FFFFFF",
"#	c #492929",
"$	c #4D4F2B",
"%	c #004906",
"..................",
".+++++++@.+++++++@",
".#######@.#######@",
".#######@.#######@",
".+++++++@.+++++++@",
".#######@.#######@",
".#######@.#######@",
".+++++++@.+++++++@",
".#######@.#######@",
".#######@.#######@",
".+++++++@.+++++++@",
".$$$$$$$@.$$$$$$$@",
".$$$$$$$@.$$$$$$$@",
".+++++++@.+++++++@",
".$$$$$$$@.$$$$$$$@",
".$$$$$$$@.$$$$$$$@",
".+++++++@.+++++++@",
".$$$$$$$@.$$$$$$$@",
".$$$$$$$@.$$$$$$$@",
".+++++++@.+++++++@",
".$$$$$$$@.$$$$$$$@",
".$$$$$$$@.$$$$$$$@",
".+++++++@.+++++++@",
".%%%%%%%@.%%%%%%%@",
".%%%%%%%@.%%%%%%%@",
".+++++++@.+++++++@",
".%%%%%%%@.%%%%%%%@",
".%%%%%%%@.%%%%%%%@",
".+++++++@.+++++++@",
".%%%%%%%@.%%%%%%%@",
".%%%%%%%@.%%%%%%%@",
".+++++++@.+++++++@",
".%%%%%%%@.%%%%%%%@",
".%%%%%%%@.%%%%%%%@",
".+++++++@.+++++++@",
".%%%%%%%@.%%%%%%%@",
".%%%%%%%@.%%%%%%%@",
".+++++++@.+++++++@",
".%%%%%%%@.%%%%%%%@",
".%%%%%%%@.%%%%%%%@",
".+++++++@.+++++++@",
".%%%%%%%@.%%%%%%%@",
".%%%%%%%@.%%%%%%%@",
"@@@@@@@@@@@@@@@@@@",
"..................",
".%%%%%%%%%%%%%%%%@",
".%%%%%%%%%%%%%%%%@",
"@@@@@@@@@@@@@@@@@@"};
