/* XPM */
static char * status_v_xpm[] = {
"2 64 5 1",
" 	c None",
".	c #9E1717",
"+	c #A9AD5F",
"@	c #004DA0",
"#	c #00A502",
"..",
"..",
"..",
"..",
"..",
"..",
"..",
"..",
"..",
"..",
"..",
"..",
"..",
"..",
"..",
"..",
"++",
"++",
"++",
"++",
"++",
"++",
"++",
"++",
"++",
"++",
"++",
"++",
"++",
"++",
"++",
"++",
"@@",
"@@",
"@@",
"@@",
"@@",
"@@",
"@@",
"@@",
"@@",
"@@",
"@@",
"@@",
"@@",
"@@",
"@@",
"@@",
"##",
"##",
"##",
"##",
"##",
"##",
"##",
"##",
"##",
"##",
"##",
"##",
"##",
"##",
"##",
"##"};
