/* XPM */
static char * backgrnd_xpm[] = {
"48 46 7 1",
" 	c None",
".	c #949594",
"+	c #000000",
"@	c #FFFFFF",
"#	c #004D00",
"$	c #00FF00",
"%	c #590000",
"................................................",
".++++++++++++++++++++++++++++++++++++++++++++++@",
".+++++++++++++++++++++++++++++++++++++++++++++.@",
".+++++++++++++++++++++++++++++++++++++++++++++.@",
".+++#####+#+++#####+#++++++#####+#+++#####+#++.@",
".++######+##+######+##++++######+##+######+##+.@",
".+++++++++##++++++++##+++++++++++##++++++++##+.@",
".++##+++++##+##+++++##++++##+++++##+##+++++##+.@",
".++##+++++##+##+++++##+$$+##+++++##+##+++++##+.@",
".++##+++++##+##+++++##+$$+##+++++##+##+++++##+.@",
".++##+++++##+##+++++##++++##+++++##+##+++++##+.@",
".++#++###++#+#++###++#++++#++###++#+#++###++#+.@",
".++++#####+++++#####++++++++#####+++++#####+++.@",
".++#+++++++#+#+++++++#++++#+++++++#+#+++++++#+.@",
".++##+++++##+##+++++##+$$+##+++++##+##+++++##+.@",
".++##+++++##+##+++++##+$$+##+++++##+##+++++##+.@",
".++##+++++##+##+++++##++++##+++++##+##+++++##+.@",
".++##++++++++##+++++++++++##++++++++##++++++++.@",
".++##+######+##+######++++##+######+##+######+.@",
".+++#+#####+++#+#####++++++#+#####+++#+#####++.@",
".+++++++++++++++++++++++++++++++++++++++++++++.@",
".+++++++++++++++++++++++++++++++++++++++++++++.@",
".+++++++++++++++++++++++++++++++++++++++++++++.@",
".+++%%%%%%%%%%%%%%%%%%%%%%%%%%%%%%%%%%%%%%%%++.@",
".++%+%%%%%%%%%%%%%%%%%%%%%%%%%%%%%%%%%%%%%%+%+.@",
".++%%+%%%%%%%%%%%%%%%%%%%%%%%%%%%%%%%%%%%%+%%+.@",
".++%%%+%%%%%%%%%%%%%%%%%%%%%%%%%%%%%%%%%%+%%%+.@",
".++%%%%+%%%%%%%%%%%%%%%%%%%%%%%%%%%%%%%%+%%%%+.@",
".++%%%%%+%%%%%%%%%%%%%%%%%%%%%%%%%%%%%%+%%%%%+.@",
".++%%%%%%+%%%%%%%%%%%%%%%%%%%%%%%%%%%%+%%%%%%+.@",
".++%%%%%%%+%%%%%%%%%%%%%%%%%%%%%%%%%%+%%%%%%%+.@",
".++%%%%%%%%+%%%%%%%%%%%%%%%%%%%%%%%%+%%%%%%%%+.@",
".++%%%%%%%%++%%%%%%%%%%%%%%%%%%%%%%++%%%%%%%%+.@",
".++%%%%%%%+%%+%%%%%%%%%%%%%%%%%%%%+%%+%%%%%%%+.@",
".++%%%%%%+%%%%++%%%%%%%%%%%%%%%%++%%%%+%%%%%%+.@",
".++%%%%%+%%%%%%%+++%%%%%%%%%%+++%%%%%%%+%%%%%+.@",
".++%%%%+%%%%%%%%%%%++++++++++%%%%%%%%%%%+%%%%+.@",
".++%%%+%%%%%%%%%%%%%%%%%%%%%%%%%%%%%%%%%%+%%%+.@",
".++%%+%%%%%%%%%%%%%%%%%%%%%%%%%%%%%%%%%%%%+%%+.@",
".++%+%%%%%%%%%%%%%%%%%%%%%%%%%%%%%%%%%%%%%%+%+.@",
".+++%%%%%%%%%%%%%%%%%%%%%%%%%%%%%%%%%%%%%%%%++.@",
".+++++++++++++++++++++++++++++++++++++++++++++.@",
".+++++++++++++++++++++++++++++++++++++++++++++.@",
".+++++++++++++++++++++++++++++++++++++++++++++.@",
".+.............................................@",
".@@@@@@@@@@@@@@@@@@@@@@@@@@@@@@@@@@@@@@@@@@@@@@@"};
