/* XPM */
static char * backgrnd_tiny_xpm[] = {
"94 24 135 2",
"  	c None",
". 	c #C5C8C7",
"+ 	c #C7CAC9",
"@ 	c #BBBEBE",
"# 	c #BABDBD",
"$ 	c #B9BCBC",
"% 	c #B8BBBB",
"& 	c #B7BABA",
"* 	c #BDC0C0",
"= 	c #BCBFBF",
"- 	c #BEC1C1",
"; 	c #C0C3C3",
"> 	c #BFC2C2",
", 	c #B6B9B9",
"' 	c #B2B7B6",
") 	c #B3B8B7",
"! 	c #B1B6B5",
"~ 	c #C1C4C3",
"{ 	c #C3C6C5",
"] 	c #A8ADAC",
"^ 	c #A9AEAD",
"/ 	c #EFF0F0",
"( 	c #E9EAEA",
"_ 	c #D1D4D3",
": 	c #CFD2D1",
"< 	c #CDD0CF",
"[ 	c #CED1D0",
"} 	c #D2D5D4",
"| 	c #D3D6D5",
"1 	c #D4D7D6",
"2 	c #D5D8D7",
"3 	c #DEDFDF",
"4 	c #E0E1E1",
"5 	c #DFE0E0",
"6 	c #DCDDDD",
"7 	c #DBDCDC",
"8 	c #D8DBDA",
"9 	c #D6D9D8",
"0 	c #D7DAD9",
"a 	c #DADBDB",
"b 	c #DDDEDE",
"c 	c #757C7A",
"d 	c #4E5352",
"e 	c #AAAEAD",
"f 	c #A1A6A5",
"g 	c #9DA2A1",
"h 	c #9FA4A3",
"i 	c #A0A5A4",
"j 	c #9EA3A2",
"k 	c #9CA1A0",
"l 	c #9A9F9E",
"m 	c #999E9D",
"n 	c #989D9C",
"o 	c #979C9B",
"p 	c #959A99",
"q 	c #949998",
"r 	c #939897",
"s 	c #919695",
"t 	c #909695",
"u 	c #909594",
"v 	c #8F9594",
"w 	c #929796",
"x 	c #8F9493",
"y 	c #555A59",
"z 	c #484D4C",
"A 	c #3D4040",
"B 	c #464949",
"C 	c #8D9392",
"D 	c #434646",
"E 	c #393C3B",
"F 	c #454848",
"G 	c #494E4D",
"H 	c #3E4141",
"I 	c #8C9290",
"J 	c #4C5150",
"K 	c #8D9291",
"L 	c #383B3A",
"M 	c #000000",
"N 	c #8B918F",
"O 	c #323534",
"P 	c #414444",
"Q 	c #C4C7C6",
"R 	c #969B9A",
"S 	c #8B908F",
"T 	c #333635",
"U 	c #8C9291",
"V 	c #373A39",
"W 	c #C2C5C4",
"X 	c #8C9190",
"Y 	c #464B4A",
"Z 	c #8B9190",
"` 	c #8A908F",
" .	c #474C4B",
"..	c #868C8B",
"+.	c #838A89",
"@.	c #838988",
"#.	c #3B3E3E",
"$.	c #848A89",
"%.	c #3A3D3C",
"&.	c #C8CBCA",
"*.	c #CBCECD",
"=.	c #8A918F",
"-.	c #7D8483",
";.	c #767D7C",
">.	c #777E7D",
",.	c #79807F",
"'.	c #7B8281",
").	c #7A8180",
"!.	c #787F7E",
"~.	c #7C8382",
"{.	c #7E8584",
"].	c #6A6F6E",
"^.	c #303332",
"/.	c #343736",
"(.	c #272A29",
"_.	c #252827",
":.	c #242726",
"<.	c #262928",
"[.	c #282B2A",
"}.	c #363938",
"|.	c #353837",
"1.	c #2C2F2E",
"2.	c #292C2B",
"3.	c #808786",
"4.	c #525756",
"5.	c #4A4F4E",
"6.	c #4B504F",
"7.	c #4F5453",
"8.	c #545958",
"9.	c #565B5A",
"0.	c #575C5B",
"a.	c #535857",
"b.	c #515655",
"c.	c #595E5D",
"d.	c #505554",
". + @ # # # @ $ % % & & $ $ $ # * = @ @ = $ $ @ @ * - ; > @ , ' ) ! ! ' , $ * - ~ { { * = @ @ = $ @ $ % % & & $ $ $ # * = @ @ * = @ @ = @ @ = $ - ; > @ , ' ) ! ! ' , $ * - ~ { { $ ! % ] ^ ",
"$ / ( _ : : : < [ _ _ _ } } | 1 1 1 | 1 2 2 1 3 4 4 5 6 7 8 2 2 2 2 9 0 a 6 b 5 5 5 b 1 1 | 1 2 2 : < [ _ _ _ } } | 1 1 1 | 1 1 1 | 1 1 | 1 2 2 5 6 7 8 2 2 2 2 9 0 a 6 b 5 5 5 b 0 0 , c d ",
"% 3 e f g h f i j k k k k l m n o o o o n n n p q q r s s t u v u s s w r o l l m r v o o o o n n f i j k k k k l m n o o o o o o o o o o o n n r s s t u v u s s w r o l l m r v x s r y z ",
") 2 m r r r r r r r r r r r r r r r r r r r r r r r r r r r r r r r r r r r r r r r r r r r r r r r r r r r r r r r r r r r r r r r r r r r r r r r r r r r r r r r r r r r r r r r r x A B ",
"' 2 m r r r r r r r r r r r r r r r r r r r r r r r r r r r r r r r r r r r r r r r r r r r r r r r r r r r r r r r r r r r r r r r r r r r r r r r r r r r r r r r r r r r r r r r r C A D ",
"' 2 r r r r r r r r r r r r r r r r r r r r r r r r r r r r r r r r r r r r r r r r r r r r r r r r r r r r r r r r r r r r r r r r r r r r r r r r r r r r r r r r r r r r r r r r r r E F ",
"' 2 r r r r r r r r r r r r r r r r r r r r r r r r r r r r r r r r r r r r r r r r r r r r r r r r r r r r r r r r r r r r r r r r r r r r r r r r r r r r r r r r r r r r r r r r r r A G ",
"! 2 r r r r r r r r r r r r r r r r r r r r r r r r r r r r r r r r r r r r r r r r r r r r r r r r r r r r r r r r r r r r r r r r r r r r r r r r r r r r r r r r r r r r r r r r r r H G ",
"{ 8 u r r r r r r r r r r r r r r r r r r r r r r r r r r r r r r r r r r r r r r r r r r r r r r r r r r r r r r r r r r r r r r r r r r r r r r r r r r r r r r r r r r r r r r r r I A J ",
". a r r r r r r r r r r r r r r r r r r r r r r r r r r r r r r r r r r r r r r r r r r r r r r r r r r r r r r r r r r r r r r r r r r r r r r r r r r r r r r r r r r r r r r r r r K L F ",
". a r r r r r r r r r r r r r r r r r r r r r M M r r r r r r r r r r r r r r r r r r r r r r r r r r r r r r r r r r r r r r r r r r r r r r r r r r r r r r r r r r r r r r r r r r N O P ",
"Q a R r r r r r r r r r r r r r r r r r r r r M M r r r r r r r r r r r r r r r r r r r r r r r r r r r r r r r r r r r r r r r r r r r r r r r r r r r r r r r r r r r r r r r r r r S T D ",
"{ a m r r r r r r r r r r r r r r r r r r r r r r r r r r r r r r r r r r r r r r r r r r r r r r r r r r r r r r r r r r r r r r r r r r r r r r r r r r r r r r r r r r r r r r r r U V B ",
"W 8 m r r r r r r r r r r r r r r r r r r r r r r r r r r r r r r r r r r r r r r r r r r r r r r r r r r r r r r r r r r r r r r r r r r r r r r r r r r r r r r r r r r r r r r r r X V Y ",
"~ 8 o r r r r r r r r r r r r r r r r r r r r r r r r r r r r r r r r r r r r r r r r r r r r r r r r r r r r r r r r r r r r r r r r r r r r r r r r r r r r r r r r r r r r r r r r Z L B ",
"~ 8 o r r r r r r r r r r r r r r r r r r r r r r r r r r r r r r r r r r r r r r r r r r r r r r r r r r r r r r r r r r r r r r r r r r r r r r r r r r r r r r r r r r r r r r r r ` E  .",
"~ 8 p r r r r r r r r r r r r r r r r r r r r M M r r r r r r r r r r r r r r r r r r r r r r r r r r r r r r r r r r r r r r r r r r r r r r r r r r r r r r r r r r r r r r r r r r ..E z ",
"~ 0 r r r r r r r r r r r r r r r r r r r r r M M r r r r r r r r r r r r r r r r r r r r r r r r r r r r r r r r r r r r r r r r r r r r r r r r r r r r r r r r r r r r r r r r r r +.E  .",
"W 8 q r r r r r r r r r r r r r r r r r r r r r r r r r r r r r r r r r r r r r r r r r r r r r r r r r r r r r r r r r r r r r r r r r r r r r r r r r r r r r r r r r r r r r r r r @.E  .",
"W 8 n r r r r r r r r r r r r r r r r r r r r r r r r r r r r r r r r r r r r r r r r r r r r r r r r r r r r r r r r r r r r r r r r r r r r r r r r r r r r r r r r r r r r r r r r ..#.G ",
"Q 7 o r r r r r r r r r r r r r r r r r r r r r r r r r r r r r r r r r r r r r r r r r r r r r r r r r r r r r r r r r r r r r r r r r r r r r r r r r r r r r r r r r r r r r r r r $.%.z ",
"&.*.r =.-.;.>.,.'.).!.!.,.,.~.{.-.'.).,.!.,.,.~.{.-.'.).,.-.;.>.,.'.).!.!.,.,.~.{.-.'.-.'.).,.!.,.>.,.'.).!.!.,.,.~.{.-.'.).,.-.'.).,.'.).,.!.,.'.).,.-.;.>.,.'.).!.!.,.,.~.{.-.'.).,.].L B ",
"- l y ^.O /.L %.E /.(._.:.:.:.:._.<.(.[.[.[.[.(.<._.<.[.}.}././.|.|./././.|.|.|.}.|./._.<.(.[.[.[.L %.E /.(._.:.:.:.:._.<.(.[._.<.(.[.<.(.[.[.[.<.[.}.}././.|.|./././.|.|.|.}.|./././.1.2.B ",
"3.4.5.P F G 6.J 5.5.4.7.d d d d 4.8.8.9.9.0.9.8.a.b.4.y 9.c.c.9.9.8.a.a.8.y 9.9.9.y 9.9.8.d.P F G 6.J 5.5.4.7.d d d d 4.8.8.9.9.0.9.8.0.9.8.a.b.4.y 9.c.c.9.9.8.a.a.8.y 9.9.9.y 9.9.8.d.D c."};
