/* XPM */
static char * backgrnd_xpm[] = {
"46 42 5 1",
" 	c None",
".	c #000000",
"+	c #004D00",
"@	c #00FF00",
"#	c #590000",
"..............................................",
"..............................................",
"...+++++.+...+++++.+......+++++.+...+++++.+...",
"..++++++.++.++++++.++....++++++.++.++++++.++..",
".........++........++...........++........++..",
"..++.....++.++.....++....++.....++.++.....++..",
"..++.....++.++.....++.@@.++.....++.++.....++..",
"..++.....++.++.....++.@@.++.....++.++.....++..",
"..++.....++.++.....++....++.....++.++.....++..",
"..+..+++..+.+..+++..+....+..+++..+.+..+++..+..",
"....+++++.....+++++........+++++.....+++++....",
"..+.......+.+.......+....+.......+.+.......+..",
"..++.....++.++.....++.@@.++.....++.++.....++..",
"..++.....++.++.....++.@@.++.....++.++.....++..",
"..++.....++.++.....++....++.....++.++.....++..",
"..++........++...........++........++.........",
"..++.++++++.++.++++++....++.++++++.++.++++++..",
"...+.+++++...+.+++++......+.+++++...+.+++++...",
"..............................................",
"..............................................",
"..............................................",
"...########################################...",
"..#.######################################.#..",
"..##.####################################.##..",
"..###.##################################.###..",
"..####.################################.####..",
"..#####.##############################.#####..",
"..######.############################.######..",
"..#######.##########################.#######..",
"..########.########################.########..",
"..########..######################..########..",
"..#######.##.####################.##.#######..",
"..######.####..################..####.######..",
"..#####.#######...##########...#######.#####..",
"..####.###########..........###########.####..",
"..###.##################################.###..",
"..##.####################################.##..",
"..#.######################################.#..",
"...########################################...",
"..............................................",
"..............................................",
".............................................."};
