/* XPM */
static char * button_tiny_v_xpm[] = {
"24 219 263 2",
"  	c None",
". 	c #C5C8C7",
"+ 	c #C7CAC9",
"@ 	c #BBBEBE",
"# 	c #BABDBD",
"$ 	c #B9BCBC",
"% 	c #B8BBBB",
"& 	c #B7BABA",
"* 	c #BDC0C0",
"= 	c #BCBFBF",
"- 	c #C3C6C5",
"; 	c #B1B6B5",
"> 	c #A8ADAC",
", 	c #A9AEAD",
"' 	c #EFF0F0",
") 	c #E9EAEA",
"! 	c #D1D4D3",
"~ 	c #CFD2D1",
"{ 	c #CDD0CF",
"] 	c #CED1D0",
"^ 	c #D2D5D4",
"/ 	c #D3D6D5",
"( 	c #D4D7D6",
"_ 	c #DDDEDE",
": 	c #D7DAD9",
"< 	c #B6B9B9",
"[ 	c #757C7A",
"} 	c #4E5352",
"| 	c #DEDFDF",
"1 	c #AAAEAD",
"2 	c #A1A6A5",
"3 	c #9DA2A1",
"4 	c #9FA4A3",
"5 	c #A0A5A4",
"6 	c #9EA3A2",
"7 	c #9CA1A0",
"8 	c #9A9F9E",
"9 	c #999E9D",
"0 	c #989D9C",
"a 	c #979C9B",
"b 	c #8F9594",
"c 	c #8F9493",
"d 	c #919695",
"e 	c #939897",
"f 	c #555A59",
"g 	c #484D4C",
"h 	c #B3B8B7",
"i 	c #D5D8D7",
"j 	c #3D4040",
"k 	c #464949",
"l 	c #B2B7B6",
"m 	c #8D9392",
"n 	c #434646",
"o 	c #393C3B",
"p 	c #454848",
"q 	c #494E4D",
"r 	c #3E4141",
"s 	c #AFB4B3",
"t 	c #D6D9D8",
"u 	c #383B3A",
"v 	c #404343",
"w 	c #B0B5B4",
"x 	c #363938",
"y 	c #424545",
"z 	c #373A39",
"A 	c #323534",
"B 	c #444747",
"C 	c #333635",
"D 	c #B5B8B8",
"E 	c #464B4A",
"F 	c #4B504F",
"G 	c #4C5150",
"H 	c #D0D3D2",
"I 	c #3C3F3F",
"J 	c #ADB2B1",
"K 	c #474C4B",
"L 	c #ABB0AF",
"M 	c #000000",
"N 	c #909594",
"O 	c #BEC1C1",
"P 	c #959A99",
"Q 	c #C0C3C3",
"R 	c #969B9A",
"S 	c #C1C4C3",
"T 	c #D8DBDA",
"U 	c #8D9291",
"V 	c #C2C5C4",
"W 	c #8C9291",
"X 	c #8B9190",
"Y 	c #8B908F",
"Z 	c #4D5251",
"` 	c #8C9290",
" .	c #DADBDB",
"..	c #8B918F",
"+.	c #414444",
"@.	c #C4C7C6",
"#.	c #8C9190",
"$.	c #8A908F",
"%.	c #868C8B",
"&.	c #838A89",
"*.	c #949998",
"=.	c #838988",
"-.	c #3B3E3E",
";.	c #DBDCDC",
">.	c #848A89",
",.	c #3A3D3C",
"'.	c #C8CBCA",
").	c #CBCECD",
"!.	c #8A918F",
"~.	c #7D8483",
"{.	c #767D7C",
"].	c #777E7D",
"^.	c #79807F",
"/.	c #7B8281",
"(.	c #7A8180",
"_.	c #787F7E",
":.	c #7C8382",
"<.	c #7E8584",
"[.	c #6A6F6E",
"}.	c #303332",
"|.	c #343736",
"1.	c #272A29",
"2.	c #252827",
"3.	c #242726",
"4.	c #262928",
"5.	c #2C2F2E",
"6.	c #292C2B",
"7.	c #808786",
"8.	c #525756",
"9.	c #4A4F4E",
"0.	c #4F5453",
"a.	c #545958",
"b.	c #565B5A",
"c.	c #505554",
"d.	c #595E5D",
"e.	c #535857",
"f.	c #353837",
"g.	c #787D7C",
"h.	c #858B8A",
"i.	c #878D8C",
"j.	c #898F8E",
"k.	c #888E8D",
"l.	c #8B9290",
"m.	c #8E9392",
"n.	c #8D9391",
"o.	c #8E9492",
"p.	c #A3A8A7",
"q.	c #ACB1B0",
"r.	c #A7ACAB",
"s.	c #A5AAA9",
"t.	c #A2A7A6",
"u.	c #DFE0E0",
"v.	c #DCDDDD",
"w.	c #CED0D0",
"x.	c #CECFCF",
"y.	c #CDCECE",
"z.	c #CCCECE",
"A.	c #CBCECE",
"B.	c #CFD2D2",
"C.	c #CED1D1",
"D.	c #D4D5D4",
"E.	c #C0C4C3",
"F.	c #C1C5C4",
"G.	c #F3F3F3",
"H.	c #EEEFEF",
"I.	c #DDDFDE",
"J.	c #DCDEDD",
"K.	c #DBDDDC",
"L.	c #DBDDDD",
"M.	c #DEE0DF",
"N.	c #DEE1E0",
"O.	c #DFE2E1",
"P.	c #E6E7E7",
"Q.	c #E2E4E3",
"R.	c #CACDCD",
"S.	c #9DA2A0",
"T.	c #6B6E6E",
"U.	c #E7E8E8",
"V.	c #9FA3A3",
"W.	c #9EA2A2",
"X.	c #9CA0A0",
"Y.	c #9BA09F",
"Z.	c #9EA3A1",
"`.	c #A0A4A4",
" +	c #A4A8A7",
".+	c #707473",
"++	c #656A69",
"@+	c #C8CCCB",
"#+	c #E0E2E2",
"$+	c #989E9C",
"%+	c #5C5F5F",
"&+	c #636666",
"*+	c #C7CBCA",
"=+	c #959B9A",
"-+	c #616363",
";+	c #595B5A",
">+	c #626565",
",+	c #666B6A",
"'+	c #5D6060",
")+	c #C6C9C8",
"!+	c #E1E3E2",
"~+	c #585A5A",
"{+	c #5F6161",
"]+	c #C7C9C9",
"^+	c #565958",
"/+	c #616262",
"(+	c #575A59",
"_+	c #535554",
":+	c #626464",
"<+	c #535655",
"[+	c #C9CCCC",
"}+	c #636867",
"|+	c #686C6B",
"1+	c #696D6C",
"2+	c #5B5E5E",
"3+	c #C4C7C7",
"4+	c #646968",
"5+	c #C3C7C6",
"6+	c #9CA09F",
"7+	c #909595",
"8+	c #D0D2D2",
"9+	c #999D9C",
"0+	c #D2D4D4",
"a+	c #8E9494",
"b+	c #8D9493",
"c+	c #E2E4E4",
"d+	c #999D9D",
"e+	c #D3D4D4",
"f+	c #929796",
"g+	c #6A6E6D",
"h+	c #969C9B",
"i+	c #E4E4E4",
"j+	c #606262",
"k+	c #D4D6D5",
"l+	c #8E9594",
"m+	c #9A9E9D",
"n+	c #5A5D5D",
"o+	c #E4E5E5",
"p+	c #5A5C5B",
"q+	c #D7D9D9",
"r+	c #D9DBDB",
"s+	c #A3A7A6",
"t+	c #9AA09F",
"u+	c #8B9291",
"v+	c #8C9392",
"w+	c #828685",
"x+	c #B7BAB9",
"y+	c #525353",
"z+	c #545756",
"A+	c #4A4C4B",
"B+	c #484A4A",
"C+	c #474A49",
"D+	c #494B4A",
"E+	c #4E5150",
"F+	c #4B4E4D",
"G+	c #A4A9A9",
"H+	c #6E7271",
"I+	c #676B6B",
"J+	c #6B6F6E",
"K+	c #6F7373",
"L+	c #717574",
"M+	c #6C706F",
"N+	c #737877",
". + @ # # # @ $ % % & & $ $ $ # * = - $ ; % > , ",
"$ ' ) ! ~ ~ ~ { ] ! ! ! ^ ^ / ( ( ( _ : : < [ } ",
"% | 1 2 3 4 2 5 6 7 7 7 7 8 9 0 a a b c d e f g ",
"h i 9 e e e e e e e e e e e e e e e e e e c j k ",
"l i 9 e e e e e e e e e e e e e e e e e e m j n ",
"l i e e e e e e e e e e e e e e e e e e e e o p ",
"l i e e e e e e e e e e e e e e e e e e e e j q ",
"; i e e e e e e e e e e e e e e e e e e e e r q ",
"s t e e e e e e e e e e e e e e e e e e e e j p ",
"s i e e e e e e e e e e e e e e e e e e e e u v ",
"w i e e e e e e e e e e e e e e e e e e e e x y ",
"l i e e e e e e e e e e e e e e e e e e e e z g ",
"l t e e e e e e e e e e e e e e e e e e e e x k ",
"h i e e e e e e e e e e e e e e e e e e e e A B ",
"h i e e e e e e e e e e e e e e e e e e e e C B ",
"D i e e e e e e e e e e e e e e e e e e e e C E ",
"< i e e e e e e e e e e e e e e e e e e e e x F ",
"D i e e e e e e e e e e e e e e e e e e e e o } ",
"l ^ e e e e e e e e e e e e e e e e e e e e j G ",
"; H e e e e e e e e e e e e e e e e e e e e I q ",
"J ] e e e e e e e e e e e e e e e e e e e e u K ",
"L ~ e e e e e e e e e e e e e e e e e e e e x p ",
"w H e e e e e M M e e e e e M M e e e e e e z B ",
"D i a e e e e M M e e e e e M M e e e e e N z k ",
"O t P e e e e e e e e e e e e e e e e e e N z k ",
"Q : R e e e e e e e e e e e e e e e e e e N z p ",
"S : 9 e e e e e e e e e e e e e e e e e e c z k ",
"S T 0 e e e e e e e e e e e e e e e e e e U z E ",
"V T R e e e e e e e e e e e e e e e e e e W u E ",
"V T e e e e e e e e e e e e e e e e e e e X z k ",
"V T e e e e e e e e e e e e e e e e e e e Y u K ",
"- T N e e e e e e e e e e e e e e e e e e X I Z ",
"- T N e e e e e e e e e e e e e e e e e e ` j G ",
".  .e e e e e e e e e e e e e e e e e e e U u p ",
".  .e e e e e e e e e e e e e e e e e e e ..A +.",
"@. .R e e e e e e e e e e e e e e e e e e Y C n ",
"-  .9 e e e e e e e e e e e e e e e e e e W z k ",
"V T 9 e e e e e e e e e e e e e e e e e e #.z E ",
"S T a e e e e e e e e e e e e e e e e e e X u k ",
"S T a e e e e e e e e e e e e e e e e e e $.o K ",
"D i e e e e e e e e e e e e e e e e e e e e C E ",
"< i e e e e e e e e e e e e e e e e e e e e x F ",
"D i e e e e e e e e e e e e e e e e e e e e o } ",
"l ^ e e e e e e e e e e e e e e e e e e e e j G ",
"; H e e e e e e e e e e e e e e e e e e e e I q ",
"J ] e e e e e e e e e e e e e e e e e e e e u K ",
"L ~ e e e e e e e e e e e e e e e e e e e e x p ",
"w H e e e e e e e e e e e e e e e e e e e e z B ",
"D i a e e e e e e e e e e e e e e e e e e N z k ",
"O t P e e e e e e e e e e e e e e e e e e N z k ",
"Q : R e e e e e e e e e e e e e e e e e e N z p ",
"S : 9 e e e e e e e e e e e e e e e e e e c z k ",
"S T 0 e e e e e e e e e e e e e e e e e e U z E ",
"V T R e e e e e e e e e e e e e e e e e e W u E ",
"V T e e e e e e e e e e e e e e e e e e e X z k ",
"V T e e e e e e e e e e e e e e e e e e e Y u K ",
"- T N e e e e e e e e e e e e e e e e e e X I Z ",
"- T N e e e e e e e e e e e e e e e e e e ` j G ",
".  .e e e e e e e e e e e e e e e e e e e U u p ",
".  .e e e e e e e e e e e e e e e e e e e ..A +.",
"@. .R e e e e e e e e e e e e e e e e e e Y C n ",
"-  .9 e e e e e e e e e e e e e e e e e e W z k ",
"V T 9 e e e e e e e e e e e e e e e e e e #.z E ",
"S T a e e e e e e e e e e e e e e e e e e X u k ",
"S T a e e e e e e e e e e e e e e e e e e $.o K ",
"S T P e e e e e e e e e e e e e e e e e e %.o g ",
"S : e e e e e e e e e e e e e e e e e e e &.o K ",
"V T *.e e e e e e e e e e e e e e e e e e =.o K ",
"V T 0 e e e e e e e e e e e e e e e e e e %.-.q ",
"@.;.a e e e e e e e e e e e e e e e e e e >.,.g ",
"'.).e !.~.{.].^./.(._._.^.^.:.<.~././.(.^.[.u k ",
"O 8 f }.A |.u ,.o |.1.2.3.3.3.3.2.4.|.|.|.5.6.k ",
"7.8.9.+.p q F G 9.9.8.0.} } } } 8.a.b.b.a.c.n d.",
"d.n c.a.b.b.f b.b.b.f a.e.e.a.b.b.d.d.p +.9.8.7.",
"k 6.5.|.|.|.f.x f.f.f.|.|.|.f.f.|.|.x A }.f 8 O ",
"k u g.=.h.>.i.j.j.j.$.$.$.$.X Y j.k.X m l.e ).'.",
"g ,.$.e e e e e e e e e e e e e e e e e e R ;.@.",
"q -.c e e e e e e e e e e e e e e e e e e 0 T V ",
"K o e e e e e e e e e e e e e e e e e e e e T V ",
"K o e e e e e e e e e e e e e e e e e e e e : S ",
"g o e e e e e e e e e e e e e e e e e e e e T S ",
"K o e e e e e e e e e e e e e e e e e e e e T S ",
"k u e e e e e e e e e e e e e e e e e e e e T S ",
"E z e e e e e e e e e e e e e e e e e e e e T V ",
"k z e e e e e e e e e e e e e e e e e e e e  .- ",
"n C e e e e e e e e e e e e e e e e e e e e  .@.",
"+.A e e e e e e e e e e e e e e e e e e e e  .. ",
"p u e e e e e e e e e e e e e e e e e e e e  .. ",
"G j e e e e e e e e e e e e e e e e e e e e T - ",
"Z I e e e e e e e e e e e e e e e e e e e e T - ",
"K u e e e e e e e e e e e e e e e e e e e e T V ",
"k z e e e e e e e e e e e e e e e e e e e e T V ",
"E u e e e e e e e e e e e e e e e e e e e e T V ",
"E z e e e e e e e e e e e e e e e e e e e e T S ",
"k z e e e e e e e e e e e e e e e e e e e e : S ",
"p z e e e e e M M e e e e e M M e e e e e e : Q ",
"k z m.e e e e M M e e e e e M M e e e e e a t O ",
"k z c e e e e e e e e e e e e e e e e e e 0 i D ",
"B z U e e e e e e e e e e e e e e e e e e 9 H w ",
"p x X e e e e e e e e e e e e e e e e e e 0 ~ L ",
"K u j.e e e e e e e e e e e e e e e e e e a ] J ",
"q I X e e e e e e e e e e e e e e e e e e a H ; ",
"G j #.e e e e e e e e e e e e e e e e e e a ^ l ",
"} o $.e e e e e e e e e e e e e e e e e e a i D ",
"F x W e e e e e e e e e e e e e e e e e e a i < ",
"E C U e e e e e e e e e e e e e e e e e e 0 i D ",
"B C U e e e e e e e e e e e e e e e e e e a i h ",
"B A #.e e e e e e e e e e e e e e e e e e a i h ",
"k x #.e e e e e e e e e e e e e e e e e e 0 t l ",
"g z $.e e e e e e e e e e e e e e e e e e 0 i l ",
"y x $.e e e e e e e e e e e e e e e e e e 0 i w ",
"v u ` e e e e e e e e e e e e e e e e e e 0 i s ",
"p j m e e e e e e e e e e e e e e e e e e 0 t s ",
"q r n.e e e e e e e e e e e e e e e e e e 8 i ; ",
"q j m.e e e e e e e e e e e e e e e e e e 3 i l ",
"p o m.e e e e e e e e e e e e e e e e e e 5 i l ",
"n j o.e e e e e e e e e e e e e e e e e e 4 i l ",
"E u e e e e e e e e e e e e e e e e e e e e T V ",
"E z e e e e e e e e e e e e e e e e e e e e T S ",
"k z e e e e e e e e e e e e e e e e e e e e : S ",
"p z e e e e e e e e e e e e e e e e e e e e : Q ",
"k z m.e e e e e e e e e e e e e e e e e e a t O ",
"k z c e e e e e e e e e e e e e e e e e e 0 i D ",
"B z U e e e e e e e e e e e e e e e e e e 9 H w ",
"p x X e e e e e e e e e e e e e e e e e e 0 ~ L ",
"K u j.e e e e e e e e e e e e e e e e e e a ] J ",
"q I X e e e e e e e e e e e e e e e e e e a H ; ",
"G j #.e e e e e e e e e e e e e e e e e e a ^ l ",
"} o $.e e e e e e e e e e e e e e e e e e a i D ",
"F x W e e e e e e e e e e e e e e e e e e a i < ",
"E C U e e e e e e e e e e e e e e e e e e 0 i D ",
"B C U e e e e e e e e e e e e e e e e e e a i h ",
"B A #.e e e e e e e e e e e e e e e e e e a i h ",
"k x #.e e e e e e e e e e e e e e e e e e 0 t l ",
"g z $.e e e e e e e e e e e e e e e e e e 0 i l ",
"y x $.e e e e e e e e e e e e e e e e e e 0 i w ",
"v u ` e e e e e e e e e e e e e e e e e e 0 i s ",
"p j m e e e e e e e e e e e e e e e e e e 0 t s ",
"q r n.e e e e e e e e e e e e e e e e e e 8 i ; ",
"q j m.e e e e e e e e e e e e e e e e e e 3 i l ",
"p o m.e e e e e e e e e e e e e e e e e e 5 i l ",
"n j o.e e e e e e e e e e e e e e e e e e 4 i l ",
"k j m e e e e e e e e e e e e e e e e e e p.i h ",
"g f e c 7 , L q., > r.> , r.s.t.5 5 5 r., S | % ",
"} [ < : : _ u.u.u._ v. .: t i i i i T ~ ! ) ' $ ",
", > % ; $ - - S O * $ < l ; ; h l < @ # # @ + . ",
"( t w.x.x.x.w.y.z.z.A.A.y.y.y.x.B.C.D.y.+ z.E.F.",
"y.G.H.I.J.J.J.K.L.I.I.I.M.M.N.O.O.O.P.Q.Q.R.S.T.",
"z.U.1 t.2 t.2 6 3 3 V.W.X.Y.Y.7 3 3 Z.S.`. +.+++",
"@+#+7 e e e e e e e e e e e e e e e e e e $+%+&+",
"*+#+5 e e e e e e e e e e e e e e e e e e =+%+-+",
"*+#+9 e e e e e e e e e e e e e e e e e e e ;+>+",
"*+#+9 e e e e e e e e e e e e e e e e e e e %+,+",
"+ #+Y.e e e e e e e e e e e e e e e e e e e '+,+",
")+!+7 e e e e e e e e e e e e e e e e e e e %+>+",
")+#+7 e e e e e e e e e e e e e e e e e e e ~+{+",
"]+#+7 e e e e e e e e e e e e e e e e e e e ^+/+",
"*+#+Y.e e e e e e e e e e e e e e e e e e e (+++",
"*+!+8 e e e e e e e e e e e e e e e e e e e ^+&+",
"@+#+9 e e e e e e e e e e e e e e e e e e e _+:+",
"@+#+8 e e e e e e e e e e e e e e e e e e e <+:+",
"[+#+8 e e e e e e e e e e e e e e e e e e e <+}+",
"R.#+8 e e e e e e e e e e e e e e e e e e e ^+|+",
"[+#+8 e e e e e e e e e e e e e e e e e e e ;+T.",
"*+M.8 e e e e e e e e e e e e e e e e e e e %+1+",
"+ _ 8 e e e e e e e e e e e e e e e e e e e 2+,+",
"3+L.9 e e e e e e e e e e e e e e e e e e e ~+4+",
"5+J.0 e e e e e e e e e e e e e e e e e e e ^+>+",
"]+_ a e e e e M M e e e e e M M e e e e e e (+:+",
"[+#+6+e e e e M M e e e e e M M e e e e e 7+(+&+",
"8+!+9+e e e e e e e e e e e e e e e e e e b (+&+",
"0+Q.0 e e e e e e e e e e e e e e e e e e a+(+>+",
"0+Q.9+e e e e e e e e e e e e e e e e e e b+(+&+",
"0+c+d+e e e e e e e e e e e e e e e e e e b (+}+",
"e+c+9 e e e e e e e e e e e e e e e e e e 7+~+}+",
"e+c+9+e e e e e e e e e e e e e e e e e e b (+&+",
"e+c+9+e e e e e e e e e e e e e e e e e e a+~+4+",
"D.c+9+e e e e e e e e e e e e e e e e e e f+2+g+",
"D.c+9 e e e e e e e e e e e e e e e e e e h+%+1+",
"( i+9 e e e e e e e e e e e e e e e e e e e ~+>+",
"( i+9+e e e e e e e e e e e e e e e e e e m._+j+",
"k+i+9 e e e e e e e e e e e e e e e e e e W <+-+",
"D.i+d+e e e e e e e e e e e e e e e e e e m.(+&+",
"e+c+0 e e e e e e e e e e e e e e e e e e l+(+}+",
"0+c+0 e e e e e e e e e e e e e e e e e e l+~+&+",
"0+c+0 e e e e e e e e e e e e e e e e e e 7+;+4+",
"0+c+m+e e e e e e e e e e e e e e e e e e d ;+++",
"0+Q.m+e e e e e e e e e e e e e e e e e e f+;+4+",
"e+c+Y.e e e e e e e e e e e e e e e e e e f+;+4+",
"*+M.8 e e e e e e e e e e e e e e e e e e e %+1+",
"+ _ 8 e e e e e e e e e e e e e e e e e e e 2+,+",
"3+L.9 e e e e e e e e e e e e e e e e e e e ~+4+",
"5+J.0 e e e e e e e e e e e e e e e e e e e ^+>+",
"]+_ a e e e e e e e e e e e e e e e e e e e (+:+",
"[+#+6+e e e e e e e e e e e e e e e e e e 7+(+&+",
"8+!+9+e e e e e e e e e e e e e e e e e e b (+&+",
"0+Q.0 e e e e e e e e e e e e e e e e e e a+(+>+",
"0+Q.9+e e e e e e e e e e e e e e e e e e b+(+&+",
"0+c+d+e e e e e e e e e e e e e e e e e e b (+}+",
"e+c+9 e e e e e e e e e e e e e e e e e e 7+~+}+",
"e+c+9+e e e e e e e e e e e e e e e e e e b (+&+",
"e+c+9+e e e e e e e e e e e e e e e e e e a+~+4+",
"D.c+9+e e e e e e e e e e e e e e e e e e f+2+g+",
"D.c+9 e e e e e e e e e e e e e e e e e e h+%+1+",
"( i+9 e e e e e e e e e e e e e e e e e e e ~+>+",
"( i+9+e e e e e e e e e e e e e e e e e e m._+j+",
"k+i+9 e e e e e e e e e e e e e e e e e e W <+-+",
"D.i+d+e e e e e e e e e e e e e e e e e e m.(+&+",
"e+c+0 e e e e e e e e e e e e e e e e e e l+(+}+",
"0+c+0 e e e e e e e e e e e e e e e e e e l+~+&+",
"0+c+0 e e e e e e e e e e e e e e e e e e 7+;+4+",
"0+c+m+e e e e e e e e e e e e e e e e e e d ;+++",
"0+Q.m+e e e e e e e e e e e e e e e e e e f+;+4+",
"e+c+Y.e e e e e e e e e e e e e e e e e e f+;+4+",
"e+c+3 e e e e e e e e e e e e e e e e e e *.n+,+",
"k+o+4 e e e e e e e e e e e e e e e e e e f+p+++",
"q+r+s+t+e f+u+v+a+7+b b+b+a+a+d e f+7+b a+w+~+&+",
"8+x+.+y+_+z+~+p+;+z+A+B+C+C+C+C+B+D+z+z+z+E+F+&+",
"G+H+I+j+>+,+|+1+I+I+H+J+T.T.T.T.H+K+L+L+K+M+-+N+"};
