/* XPM */
static char * button_xpm[] = {
"48 144 283 2",
"  	c None",
". 	c #C5C8C7",
"+ 	c #C7CAC9",
"@ 	c #BBBEBE",
"# 	c #BABDBD",
"$ 	c #B9BCBC",
"% 	c #B8BBBB",
"& 	c #B7BABA",
"* 	c #BDC0C0",
"= 	c #BCBFBF",
"- 	c #BEC1C1",
"; 	c #C0C3C3",
"> 	c #BFC2C2",
", 	c #B6B9B9",
"' 	c #B2B7B6",
") 	c #B3B8B7",
"! 	c #B1B6B5",
"~ 	c #C1C4C3",
"{ 	c #C3C6C5",
"] 	c #A8ADAC",
"^ 	c #A9AEAD",
"/ 	c #EFF0F0",
"( 	c #E9EAEA",
"_ 	c #D1D4D3",
": 	c #CFD2D1",
"< 	c #CDD0CF",
"[ 	c #CED1D0",
"} 	c #D2D5D4",
"| 	c #D3D6D5",
"1 	c #D4D7D6",
"2 	c #D5D8D7",
"3 	c #DEDFDF",
"4 	c #E0E1E1",
"5 	c #DFE0E0",
"6 	c #DCDDDD",
"7 	c #DBDCDC",
"8 	c #D8DBDA",
"9 	c #D6D9D8",
"0 	c #D7DAD9",
"a 	c #DADBDB",
"b 	c #DDDEDE",
"c 	c #757C7A",
"d 	c #4E5352",
"e 	c #AAAEAD",
"f 	c #A1A6A5",
"g 	c #9DA2A1",
"h 	c #9FA4A3",
"i 	c #A0A5A4",
"j 	c #9EA3A2",
"k 	c #9CA1A0",
"l 	c #9A9F9E",
"m 	c #999E9D",
"n 	c #989D9C",
"o 	c #979C9B",
"p 	c #959A99",
"q 	c #949998",
"r 	c #939897",
"s 	c #919695",
"t 	c #909695",
"u 	c #909594",
"v 	c #8F9594",
"w 	c #929796",
"x 	c #8F9493",
"y 	c #555A59",
"z 	c #484D4C",
"A 	c #3D4040",
"B 	c #464949",
"C 	c #8D9392",
"D 	c #434646",
"E 	c #393C3B",
"F 	c #454848",
"G 	c #494E4D",
"H 	c #3E4141",
"I 	c #AFB4B3",
"J 	c #383B3A",
"K 	c #404343",
"L 	c #B0B5B4",
"M 	c #000000",
"N 	c #363938",
"O 	c #424545",
"P 	c #373A39",
"Q 	c #323534",
"R 	c #444747",
"S 	c #333635",
"T 	c #B5B8B8",
"U 	c #464B4A",
"V 	c #4B504F",
"W 	c #4C5150",
"X 	c #D0D3D2",
"Y 	c #3C3F3F",
"Z 	c #ADB2B1",
"` 	c #474C4B",
" .	c #ABB0AF",
"..	c #969B9A",
"+.	c #8D9291",
"@.	c #C2C5C4",
"#.	c #8C9291",
"$.	c #8B9190",
"%.	c #8B908F",
"&.	c #4D5251",
"*.	c #8C9290",
"=.	c #8B918F",
"-.	c #414444",
";.	c #C4C7C6",
">.	c #8C9190",
",.	c #8A908F",
"'.	c #868C8B",
").	c #838A89",
"!.	c #838988",
"~.	c #3B3E3E",
"{.	c #848A89",
"].	c #3A3D3C",
"^.	c #C8CBCA",
"/.	c #CBCECD",
"(.	c #8A918F",
"_.	c #7D8483",
":.	c #767D7C",
"<.	c #777E7D",
"[.	c #79807F",
"}.	c #7B8281",
"|.	c #7A8180",
"1.	c #787F7E",
"2.	c #7C8382",
"3.	c #7E8584",
"4.	c #6A6F6E",
"5.	c #303332",
"6.	c #343736",
"7.	c #272A29",
"8.	c #252827",
"9.	c #242726",
"0.	c #262928",
"a.	c #282B2A",
"b.	c #353837",
"c.	c #2C2F2E",
"d.	c #292C2B",
"e.	c #808786",
"f.	c #525756",
"g.	c #4A4F4E",
"h.	c #4F5453",
"i.	c #545958",
"j.	c #565B5A",
"k.	c #575C5B",
"l.	c #535857",
"m.	c #515655",
"n.	c #595E5D",
"o.	c #505554",
"p.	c #787D7C",
"q.	c #858B8A",
"r.	c #878D8C",
"s.	c #898F8E",
"t.	c #888E8D",
"u.	c #8F9593",
"v.	c #909694",
"w.	c #888F8D",
"x.	c #8E9492",
"y.	c #8B9290",
"z.	c #8E9392",
"A.	c #8D9391",
"B.	c #A3A8A7",
"C.	c #ACB1B0",
"D.	c #A7ACAB",
"E.	c #A5AAA9",
"F.	c #A2A7A6",
"G.	c #CED0D0",
"H.	c #CECFCF",
"I.	c #CDCECE",
"J.	c #CCCECE",
"K.	c #CBCECE",
"L.	c #CFD2D2",
"M.	c #CED1D1",
"N.	c #D0D2D2",
"O.	c #D2D4D4",
"P.	c #D1D3D3",
"Q.	c #CACDCD",
"R.	c #C7CBCA",
"S.	c #C8CCCB",
"T.	c #D4D5D4",
"U.	c #C0C4C3",
"V.	c #C1C5C4",
"W.	c #F3F3F3",
"X.	c #EEEFEF",
"Y.	c #DDDFDE",
"Z.	c #DCDEDD",
"`.	c #DBDDDC",
" +	c #DBDDDD",
".+	c #DEE0DF",
"++	c #DEE1E0",
"@+	c #DFE2E1",
"#+	c #E0E2E2",
"$+	c #E7E8E8",
"%+	c #E8E9E9",
"&+	c #E8E8E8",
"*+	c #E5E6E6",
"=+	c #E4E5E5",
"-+	c #E2E4E4",
";+	c #E1E3E2",
">+	c #E2E4E3",
",+	c #E4E4E4",
"'+	c #E6E7E7",
")+	c #9DA2A0",
"!+	c #6B6E6E",
"~+	c #9FA3A3",
"{+	c #9EA2A2",
"]+	c #9CA0A0",
"^+	c #9BA09F",
"/+	c #9CA09F",
"(+	c #9DA1A1",
"_+	c #9DA1A0",
":+	c #9EA3A1",
"<+	c #A0A4A4",
"[+	c #A4A8A7",
"}+	c #707473",
"|+	c #656A69",
"1+	c #989E9C",
"2+	c #5C5F5F",
"3+	c #636666",
"4+	c #959B9A",
"5+	c #616363",
"6+	c #595B5A",
"7+	c #626565",
"8+	c #666B6A",
"9+	c #5D6060",
"0+	c #C6C9C8",
"a+	c #585A5A",
"b+	c #5F6161",
"c+	c #C7C9C9",
"d+	c #565958",
"e+	c #616262",
"f+	c #575A59",
"g+	c #535554",
"h+	c #626464",
"i+	c #535655",
"j+	c #C9CCCC",
"k+	c #636867",
"l+	c #686C6B",
"m+	c #696D6C",
"n+	c #5B5E5E",
"o+	c #C4C7C7",
"p+	c #646968",
"q+	c #C3C7C6",
"r+	c #909595",
"s+	c #999D9C",
"t+	c #8E9494",
"u+	c #8D9493",
"v+	c #999D9D",
"w+	c #D3D4D4",
"x+	c #6A6E6D",
"y+	c #969C9B",
"z+	c #606262",
"A+	c #D4D6D5",
"B+	c #8E9594",
"C+	c #9A9E9D",
"D+	c #5A5D5D",
"E+	c #5A5C5B",
"F+	c #D7D9D9",
"G+	c #D9DBDB",
"H+	c #A3A7A6",
"I+	c #9AA09F",
"J+	c #8B9291",
"K+	c #8C9392",
"L+	c #828685",
"M+	c #B7BAB9",
"N+	c #525353",
"O+	c #545756",
"P+	c #4A4C4B",
"Q+	c #484A4A",
"R+	c #474A49",
"S+	c #494B4A",
"T+	c #4A4D4C",
"U+	c #555857",
"V+	c #4E5150",
"W+	c #4B4E4D",
"X+	c #A4A9A9",
"Y+	c #6E7271",
"Z+	c #676B6B",
"`+	c #6B6F6E",
" @	c #6F7373",
".@	c #717574",
"+@	c #727675",
"@@	c #6E7372",
"#@	c #6D7170",
"$@	c #737877",
"%@	c #6C706F",
". + @ # # # @ $ % % & & $ $ $ # * = @ @ = $ $ @ @ * - ; > @ , ' ) ! ! ' , $ * - ~ { { $ ! % ] ^ ",
"$ / ( _ : : : < [ _ _ _ } } | 1 1 1 | 1 2 2 1 3 4 4 5 6 7 8 2 2 2 2 9 0 a 6 b 5 5 5 b 0 0 , c d ",
"% 3 e f g h f i j k k k k l m n o o o o n n n p q q r s s t u v u s s w r o l l m r v x s r y z ",
") 2 m r r r r r r r r r r r r r r r r r r r r r r r r r r r r r r r r r r r r r r r r r r x A B ",
"' 2 m r r r r r r r r r r r r r r r r r r r r r r r r r r r r r r r r r r r r r r r r r r C A D ",
"' 2 r r r r r r r r r r r r r r r r r r r r r r r r r r r r r r r r r r r r r r r r r r r r E F ",
"' 2 r r r r r r r r r r r r r r r r r r r r r r r r r r r r r r r r r r r r r r r r r r r r A G ",
"! 2 r r r r r r r r r r r r r r r r r r r r r r r r r r r r r r r r r r r r r r r r r r r r H G ",
"I 9 r r r r r r r r r r r r r r r r r r r r r r r r r r r r r r r r r r r r r r r r r r r r A F ",
"I 2 r r r r r r r r r r r r r r r r r r r r r r r r r r r r r r r r r r r r r r r r r r r r J K ",
"L 2 r r r r r r r r r r r r r r r r r r r r r M M r r r r r r r r r r r r r r r r r r r r r N O ",
"' 2 r r r r r r r r r r r r r r r r r r r r r M M r r r r r r r r r r r r r r r r r r r r r P z ",
"' 9 r r r r r r r r r r r r r r r r r r r r r r r r r r r r r r r r r r r r r r r r r r r r N B ",
") 2 r r r r r r r r r r r r r r r r r r r r r r r r r r r r r r r r r r r r r r r r r r r r Q R ",
") 2 r r r r r r r r r r r r r r r r r r r r r r r r r r r r r r r r r r r r r r r r r r r r S R ",
"T 2 r r r r r r r r r r r r r r r r r r r r r r r r r r r r r r r r r r r r r r r r r r r r S U ",
", 2 r r r r r r r r r r r r r r r r r r r r r M M r r r r r r r r r r r r r r r r r r r r r N V ",
"T 2 r r r r r r r r r r r r r r r r r r r r r M M r r r r r r r r r r r r r r r r r r r r r E d ",
"' } r r r r r r r r r r r r r r r r r r r r r r r r r r r r r r r r r r r r r r r r r r r r A W ",
"! X r r r r r r r r r r r r r r r r r r r r r r r r r r r r r r r r r r r r r r r r r r r r Y G ",
"Z [ r r r r r r r r r r r r r r r r r r r r r r r r r r r r r r r r r r r r r r r r r r r r J ` ",
" .: r r r r r r r r r r r r r r r r r r r r r r r r r r r r r r r r r r r r r r r r r r r r N F ",
"L X r r r r r r r r r r r r r r r r r r r r r r r r r r r r r r r r r r r r r r r r r r r r P R ",
"T 2 o r r r r r r r r r r r r r r r r r r r r r r r r r r r r r r r r r r r r r r r r r r u P B ",
"- 9 p r r r r r r r r r r r r r r r r r r r r r r r r r r r r r r r r r r r r r r r r r r u P B ",
"; 0 ..r r r r r r r r r r r r r r r r r r r r r r r r r r r r r r r r r r r r r r r r r r u P F ",
"~ 0 m r r r r r r r r r r r r r r r r r r r r r r r r r r r r r r r r r r r r r r r r r r x P B ",
"~ 8 n r r r r r r r r r r r r r r r r r r r r r r r r r r r r r r r r r r r r r r r r r r +.P U ",
"@.8 ..r r r r r r r r r r r r r r r r r r r r r r r r r r r r r r r r r r r r r r r r r r #.J U ",
"@.8 r r r r r r r r r r r r r r r r r r r r r r r r r r r r r r r r r r r r r r r r r r r $.P B ",
"@.8 r r r r r r r r r r r r r r r r r r r r r r r r r r r r r r r r r r r r r r r r r r r %.J ` ",
"{ 8 u r r r r r r r r r r r r r r r r r r r r r r r r r r r r r r r r r r r r r r r r r r $.Y &.",
"{ 8 u r r r r r r r r r r r r r r r r r r r r r r r r r r r r r r r r r r r r r r r r r r *.A W ",
". a r r r r r r r r r r r r r r r r r r r r r r r r r r r r r r r r r r r r r r r r r r r +.J F ",
". a r r r r r r r r r r r r r r r r r r r r r r r r r r r r r r r r r r r r r r r r r r r =.Q -.",
";.a ..r r r r r r r r r r r r r r r r r r r r r r r r r r r r r r r r r r r r r r r r r r %.S D ",
"{ a m r r r r r r r r r r r r r r r r r r r r r r r r r r r r r r r r r r r r r r r r r r #.P B ",
"@.8 m r r r r r r r r r r r r r r r r r r r r r r r r r r r r r r r r r r r r r r r r r r >.P U ",
"~ 8 o r r r r r r r r r r r r r r r r r r r r r r r r r r r r r r r r r r r r r r r r r r $.J B ",
"~ 8 o r r r r r r r r r r r r r r r r r r r r r r r r r r r r r r r r r r r r r r r r r r ,.E ` ",
"~ 8 p r r r r r r r r r r r r r r r r r r r r r r r r r r r r r r r r r r r r r r r r r r '.E z ",
"~ 0 r r r r r r r r r r r r r r r r r r r r r r r r r r r r r r r r r r r r r r r r r r r ).E ` ",
"@.8 q r r r r r r r r r r r r r r r r r r r r r r r r r r r r r r r r r r r r r r r r r r !.E ` ",
"@.8 n r r r r r r r r r r r r r r r r r r r r r r r r r r r r r r r r r r r r r r r r r r '.~.G ",
";.7 o r r r r r r r r r r r r r r r r r r r r r r r r r r r r r r r r r r r r r r r r r r {.].z ",
"^./.r (._.:.<.[.}.|.1.1.[.[.2.3._.}.|.[.1.[.[.2.3._.}.|.[._.:.<.[.}.|.1.1.[.[.2.3._.}.|.[.4.J B ",
"- l y 5.Q 6.J ].E 6.7.8.9.9.9.9.8.0.7.a.a.a.a.7.0.8.0.a.N N 6.6.b.b.6.6.6.b.b.b.N b.6.6.6.c.d.B ",
"e.f.g.-.F G V W g.g.f.h.d d d d f.i.i.j.j.k.j.i.l.m.f.y j.n.n.j.j.i.l.l.i.y j.j.j.y j.j.i.o.D n.",
"n.D o.i.j.j.y j.j.j.y i.l.l.i.j.j.n.n.j.y f.m.l.i.j.k.j.j.i.i.f.d d d d h.f.g.g.W V G F -.g.f.e.",
"B d.c.6.6.6.b.N b.b.b.6.6.6.b.b.6.6.N N a.0.8.0.7.a.a.a.a.7.0.8.9.9.9.9.8.7.6.E ].J 6.Q 5.y l - ",
"B J p.!.q.{.r.s.s.s.,.,.,.,.$.%.s.t.$.,.u.s t v.q p q q r r v.#.w.w.(.x.s q p ..o p s C y.r /.^.",
"z ].,.r r r r r r r r r r r r r r r r r r r r r r r r r r r r r r r r r r r r r r r r r r ..7 ;.",
"G ~.x r r r r r r r r r r r r r r r r r r r r r r r r r r r r r r r r r r r r r r r r r r n 8 @.",
"` E r r r r r r r r r r r r r r r r r r r r r r r r r r r r r r r r r r r r r r r r r r r r 8 @.",
"` E r r r r r r r r r r r r r r r r r r r r r r r r r r r r r r r r r r r r r r r r r r r r 0 ~ ",
"z E r r r r r r r r r r r r r r r r r r r r r r r r r r r r r r r r r r r r r r r r r r r r 8 ~ ",
"` E r r r r r r r r r r r r r r r r r r r r r r r r r r r r r r r r r r r r r r r r r r r r 8 ~ ",
"B J r r r r r r r r r r r r r r r r r r r r r r r r r r r r r r r r r r r r r r r r r r r r 8 ~ ",
"U P r r r r r r r r r r r r r r r r r r r r r M M r r r r r r r r r r r r r r r r r r r r r 8 @.",
"B P r r r r r r r r r r r r r r r r r r r r r M M r r r r r r r r r r r r r r r r r r r r r a { ",
"D S r r r r r r r r r r r r r r r r r r r r r r r r r r r r r r r r r r r r r r r r r r r r a ;.",
"-.Q r r r r r r r r r r r r r r r r r r r r r r r r r r r r r r r r r r r r r r r r r r r r a . ",
"F J r r r r r r r r r r r r r r r r r r r r r r r r r r r r r r r r r r r r r r r r r r r r a . ",
"W A r r r r r r r r r r r r r r r r r r r r r r r r r r r r r r r r r r r r r r r r r r r r 8 { ",
"&.Y r r r r r r r r r r r r r r r r r r r r r M M r r r r r r r r r r r r r r r r r r r r r 8 { ",
"` J r r r r r r r r r r r r r r r r r r r r r M M r r r r r r r r r r r r r r r r r r r r r 8 @.",
"B P r r r r r r r r r r r r r r r r r r r r r r r r r r r r r r r r r r r r r r r r r r r r 8 @.",
"U J r r r r r r r r r r r r r r r r r r r r r r r r r r r r r r r r r r r r r r r r r r r r 8 @.",
"U P r r r r r r r r r r r r r r r r r r r r r r r r r r r r r r r r r r r r r r r r r r r r 8 ~ ",
"B P r r r r r r r r r r r r r r r r r r r r r r r r r r r r r r r r r r r r r r r r r r r r 0 ~ ",
"F P r r r r r r r r r r r r r r r r r r r r r r r r r r r r r r r r r r r r r r r r r r r r 0 ; ",
"B P z.r r r r r r r r r r r r r r r r r r r r r r r r r r r r r r r r r r r r r r r r r r o 9 - ",
"B P x r r r r r r r r r r r r r r r r r r r r r r r r r r r r r r r r r r r r r r r r r r n 2 T ",
"R P +.r r r r r r r r r r r r r r r r r r r r r r r r r r r r r r r r r r r r r r r r r r m X L ",
"F N $.r r r r r r r r r r r r r r r r r r r r r r r r r r r r r r r r r r r r r r r r r r n :  .",
"` J s.r r r r r r r r r r r r r r r r r r r r r r r r r r r r r r r r r r r r r r r r r r o [ Z ",
"G Y $.r r r r r r r r r r r r r r r r r r r r r r r r r r r r r r r r r r r r r r r r r r o X ! ",
"W A >.r r r r r r r r r r r r r r r r r r r r r r r r r r r r r r r r r r r r r r r r r r o } ' ",
"d E ,.r r r r r r r r r r r r r r r r r r r r r r r r r r r r r r r r r r r r r r r r r r o 2 T ",
"V N #.r r r r r r r r r r r r r r r r r r r r r r r r r r r r r r r r r r r r r r r r r r o 2 , ",
"U S +.r r r r r r r r r r r r r r r r r r r r r r r r r r r r r r r r r r r r r r r r r r n 2 T ",
"R S +.r r r r r r r r r r r r r r r r r r r r r r r r r r r r r r r r r r r r r r r r r r o 2 ) ",
"R Q >.r r r r r r r r r r r r r r r r r r r r r r r r r r r r r r r r r r r r r r r r r r o 2 ) ",
"B N >.r r r r r r r r r r r r r r r r r r r r r r r r r r r r r r r r r r r r r r r r r r n 9 ' ",
"z P ,.r r r r r r r r r r r r r r r r r r r r r r r r r r r r r r r r r r r r r r r r r r n 2 ' ",
"O N ,.r r r r r r r r r r r r r r r r r r r r r r r r r r r r r r r r r r r r r r r r r r n 2 L ",
"K J *.r r r r r r r r r r r r r r r r r r r r r r r r r r r r r r r r r r r r r r r r r r n 2 I ",
"F A C r r r r r r r r r r r r r r r r r r r r r r r r r r r r r r r r r r r r r r r r r r n 9 I ",
"G H A.r r r r r r r r r r r r r r r r r r r r r r r r r r r r r r r r r r r r r r r r r r l 2 ! ",
"G A z.r r r r r r r r r r r r r r r r r r r r r r r r r r r r r r r r r r r r r r r r r r g 2 ' ",
"F E z.r r r r r r r r r r r r r r r r r r r r r r r r r r r r r r r r r r r r r r r r r r i 2 ' ",
"D A x.r r r r r r r r r r r r r r r r r r r r r r r r r r r r r r r r r r r r r r r r r r h 2 ' ",
"B A C r r r r r r r r r r r r r r r r r r r r r r r r r r r r r r r r r r r r r r r r r r B.2 ) ",
"z y r x k ^  .C.^ ] D.] ^ D.E.F.i i i B.E.D.] D.^ ^  .C.^ ] D.] ^ D.E.F.i i i B.E.D.] D.^ ~ 3 % ",
"d c , 0 0 b 5 5 5 b 6 a 0 9 2 2 2 2 8 7 6 5 4 4 3 1 2 2 1 | 1 1 1 | } } _ _ _ [ < : : : _ ( / $ ",
"^ ] % ! $ { { ~ - * $ , ' ! ! ) ' , @ > ; - * @ @ $ $ = @ @ = * # $ $ $ & & % % $ @ # # # @ + . ",
"1 9 G.H.H.H.G.I.J.J.K.K.I.I.I.H.L.M.G.G.M.I.I.G.G.L.N.O.P.G.Q.R.S.+ + R.Q.I.L.N.O.T.T.I.+ J.U.V.",
"I.W.X.Y.Z.Z.Z.`. +Y.Y.Y..+.+++@+@+@+++@+#+#+@+$+%+%+&+*+=+-+#+#+#+#+;+>+,+*+'+&+&+&+'+>+>+Q.)+!+",
"J.$+e F.f F.f j g g ~+{+]+^+^+k g g j g g /+^+k (+g _+k ^+l n n m n n m l ^+^+g k k :+)+<+[+}+|+",
"S.#+k r r r r r r r r r r r r r r r r r r r r r r r r r r r r r r r r r r r r r r r r r r 1+2+3+",
"R.#+i r r r r r r r r r r r r r r r r r r r r r r r r r r r r r r r r r r r r r r r r r r 4+2+5+",
"R.#+m r r r r r r r r r r r r r r r r r r r r r r r r r r r r r r r r r r r r r r r r r r r 6+7+",
"R.#+m r r r r r r r r r r r r r r r r r r r r r r r r r r r r r r r r r r r r r r r r r r r 2+8+",
"+ #+^+r r r r r r r r r r r r r r r r r r r r r r r r r r r r r r r r r r r r r r r r r r r 9+8+",
"0+;+k r r r r r r r r r r r r r r r r r r r r r r r r r r r r r r r r r r r r r r r r r r r 2+7+",
"0+#+k r r r r r r r r r r r r r r r r r r r r r r r r r r r r r r r r r r r r r r r r r r r a+b+",
"c+#+k r r r r r r r r r r r r r r r r r r r r M M r r r r r r r r r r r r r r r r r r r r r d+e+",
"R.#+^+r r r r r r r r r r r r r r r r r r r r M M r r r r r r r r r r r r r r r r r r r r r f+|+",
"R.;+l r r r r r r r r r r r r r r r r r r r r r r r r r r r r r r r r r r r r r r r r r r r d+3+",
"S.#+m r r r r r r r r r r r r r r r r r r r r r r r r r r r r r r r r r r r r r r r r r r r g+h+",
"S.#+l r r r r r r r r r r r r r r r r r r r r r r r r r r r r r r r r r r r r r r r r r r r i+h+",
"j+#+l r r r r r r r r r r r r r r r r r r r r r r r r r r r r r r r r r r r r r r r r r r r i+k+",
"Q.#+l r r r r r r r r r r r r r r r r r r r r M M r r r r r r r r r r r r r r r r r r r r r d+l+",
"j+#+l r r r r r r r r r r r r r r r r r r r r M M r r r r r r r r r r r r r r r r r r r r r 6+!+",
"R..+l r r r r r r r r r r r r r r r r r r r r r r r r r r r r r r r r r r r r r r r r r r r 2+m+",
"+ b l r r r r r r r r r r r r r r r r r r r r r r r r r r r r r r r r r r r r r r r r r r r n+8+",
"o+ +m r r r r r r r r r r r r r r r r r r r r r r r r r r r r r r r r r r r r r r r r r r r a+p+",
"q+Z.n r r r r r r r r r r r r r r r r r r r r r r r r r r r r r r r r r r r r r r r r r r r d+7+",
"c+b o r r r r r r r r r r r r r r r r r r r r r r r r r r r r r r r r r r r r r r r r r r r f+h+",
"j+#+/+r r r r r r r r r r r r r r r r r r r r r r r r r r r r r r r r r r r r r r r r r r r+f+3+",
"N.;+s+r r r r r r r r r r r r r r r r r r r r r r r r r r r r r r r r r r r r r r r r r r v f+3+",
"O.>+n r r r r r r r r r r r r r r r r r r r r r r r r r r r r r r r r r r r r r r r r r r t+f+7+",
"O.>+s+r r r r r r r r r r r r r r r r r r r r r r r r r r r r r r r r r r r r r r r r r r u+f+3+",
"O.-+v+r r r r r r r r r r r r r r r r r r r r r r r r r r r r r r r r r r r r r r r r r r v f+k+",
"w+-+m r r r r r r r r r r r r r r r r r r r r r r r r r r r r r r r r r r r r r r r r r r r+a+k+",
"w+-+s+r r r r r r r r r r r r r r r r r r r r r r r r r r r r r r r r r r r r r r r r r r v f+3+",
"w+-+s+r r r r r r r r r r r r r r r r r r r r r r r r r r r r r r r r r r r r r r r r r r t+a+p+",
"T.-+s+r r r r r r r r r r r r r r r r r r r r r r r r r r r r r r r r r r r r r r r r r r w n+x+",
"T.-+m r r r r r r r r r r r r r r r r r r r r r r r r r r r r r r r r r r r r r r r r r r y+2+m+",
"1 ,+m r r r r r r r r r r r r r r r r r r r r r r r r r r r r r r r r r r r r r r r r r r r a+7+",
"1 ,+s+r r r r r r r r r r r r r r r r r r r r r r r r r r r r r r r r r r r r r r r r r r z.g+z+",
"A+,+m r r r r r r r r r r r r r r r r r r r r r r r r r r r r r r r r r r r r r r r r r r #.i+5+",
"T.,+v+r r r r r r r r r r r r r r r r r r r r r r r r r r r r r r r r r r r r r r r r r r z.f+3+",
"w+-+n r r r r r r r r r r r r r r r r r r r r r r r r r r r r r r r r r r r r r r r r r r B+f+k+",
"O.-+n r r r r r r r r r r r r r r r r r r r r r r r r r r r r r r r r r r r r r r r r r r B+a+3+",
"O.-+n r r r r r r r r r r r r r r r r r r r r r r r r r r r r r r r r r r r r r r r r r r r+6+p+",
"O.-+C+r r r r r r r r r r r r r r r r r r r r r r r r r r r r r r r r r r r r r r r r r r s 6+|+",
"O.>+C+r r r r r r r r r r r r r r r r r r r r r r r r r r r r r r r r r r r r r r r r r r w 6+p+",
"w+-+^+r r r r r r r r r r r r r r r r r r r r r r r r r r r r r r r r r r r r r r r r r r w 6+p+",
"w+-+g r r r r r r r r r r r r r r r r r r r r r r r r r r r r r r r r r r r r r r r r r r q D+8+",
"A+=+h r r r r r r r r r r r r r r r r r r r r r r r r r r r r r r r r r r r r r r r r r r w E+|+",
"F+G+H+I+r w J+K+t+r+v u+u+t+t+s r w r+v t+u+u+t+t+s r w r+v t+K+t+r+v u+u+t+t+s r w r+v t+L+a+3+",
"N.M+}+N+g+O+a+E+6+O+P+Q+R+R+R+R+Q+S+P+T+T+T+T+P+S+Q+S+T+d+d+O+O+U+U+O+O+O+U+U+U+d+U+O+O+O+V+W+3+",
"X+Y+Z+z+7+8+l+m+Z+Z+Y+`+!+!+!+!+Y+ @ @.@.@+@.@ @@@#@Y+}+.@$@$@.@.@ @@@@@ @}+.@.@.@}+.@.@ @%@5+$@"};
