/* XPM */
static char * button_tiny_xpm[] = {
"94 72 271 2",
"  	c None",
". 	c #C5C8C7",
"+ 	c #C7CAC9",
"@ 	c #BBBEBE",
"# 	c #BABDBD",
"$ 	c #B9BCBC",
"% 	c #B8BBBB",
"& 	c #B7BABA",
"* 	c #BDC0C0",
"= 	c #BCBFBF",
"- 	c #BEC1C1",
"; 	c #C0C3C3",
"> 	c #BFC2C2",
", 	c #B6B9B9",
"' 	c #B2B7B6",
") 	c #B3B8B7",
"! 	c #B1B6B5",
"~ 	c #C1C4C3",
"{ 	c #C3C6C5",
"] 	c #A8ADAC",
"^ 	c #A9AEAD",
"/ 	c #EFF0F0",
"( 	c #E9EAEA",
"_ 	c #D1D4D3",
": 	c #CFD2D1",
"< 	c #CDD0CF",
"[ 	c #CED1D0",
"} 	c #D2D5D4",
"| 	c #D3D6D5",
"1 	c #D4D7D6",
"2 	c #D5D8D7",
"3 	c #DEDFDF",
"4 	c #E0E1E1",
"5 	c #DFE0E0",
"6 	c #DCDDDD",
"7 	c #DBDCDC",
"8 	c #D8DBDA",
"9 	c #D6D9D8",
"0 	c #D7DAD9",
"a 	c #DADBDB",
"b 	c #DDDEDE",
"c 	c #757C7A",
"d 	c #4E5352",
"e 	c #AAAEAD",
"f 	c #A1A6A5",
"g 	c #9DA2A1",
"h 	c #9FA4A3",
"i 	c #A0A5A4",
"j 	c #9EA3A2",
"k 	c #9CA1A0",
"l 	c #9A9F9E",
"m 	c #999E9D",
"n 	c #989D9C",
"o 	c #979C9B",
"p 	c #959A99",
"q 	c #949998",
"r 	c #939897",
"s 	c #919695",
"t 	c #909695",
"u 	c #909594",
"v 	c #8F9594",
"w 	c #929796",
"x 	c #8F9493",
"y 	c #555A59",
"z 	c #484D4C",
"A 	c #3D4040",
"B 	c #464949",
"C 	c #8D9392",
"D 	c #434646",
"E 	c #393C3B",
"F 	c #454848",
"G 	c #494E4D",
"H 	c #3E4141",
"I 	c #AFB4B3",
"J 	c #8C9290",
"K 	c #8D9291",
"L 	c #383B3A",
"M 	c #404343",
"N 	c #B0B5B4",
"O 	c #000000",
"P 	c #8B918F",
"Q 	c #323534",
"R 	c #424545",
"S 	c #8B908F",
"T 	c #333635",
"U 	c #8C9291",
"V 	c #373A39",
"W 	c #8C9190",
"X 	c #444747",
"Y 	c #8B9190",
"Z 	c #B5B8B8",
"` 	c #8A908F",
" .	c #464B4A",
"..	c #868C8B",
"+.	c #4B504F",
"@.	c #838A89",
"#.	c #C2C5C4",
"$.	c #838988",
"%.	c #474C4B",
"&.	c #3B3E3E",
"*.	c #C4C7C6",
"=.	c #848A89",
"-.	c #3A3D3C",
";.	c #C8CBCA",
">.	c #CBCECD",
",.	c #8A918F",
"'.	c #7D8483",
").	c #767D7C",
"!.	c #777E7D",
"~.	c #79807F",
"{.	c #7B8281",
"].	c #7A8180",
"^.	c #787F7E",
"/.	c #7C8382",
"(.	c #7E8584",
"_.	c #6A6F6E",
":.	c #303332",
"<.	c #343736",
"[.	c #272A29",
"}.	c #252827",
"|.	c #242726",
"1.	c #262928",
"2.	c #282B2A",
"3.	c #363938",
"4.	c #353837",
"5.	c #2C2F2E",
"6.	c #292C2B",
"7.	c #808786",
"8.	c #525756",
"9.	c #4A4F4E",
"0.	c #414444",
"a.	c #4C5150",
"b.	c #4F5453",
"c.	c #545958",
"d.	c #565B5A",
"e.	c #575C5B",
"f.	c #535857",
"g.	c #515655",
"h.	c #595E5D",
"i.	c #505554",
"j.	c #787D7C",
"k.	c #858B8A",
"l.	c #878D8C",
"m.	c #898F8E",
"n.	c #888E8D",
"o.	c #8F9593",
"p.	c #909694",
"q.	c #888F8D",
"r.	c #8E9492",
"s.	c #969B9A",
"t.	c #8B9290",
"u.	c #4D5251",
"v.	c #3C3F3F",
"w.	c #8E9392",
"x.	c #A3A8A7",
"y.	c #ABB0AF",
"z.	c #ACB1B0",
"A.	c #A7ACAB",
"B.	c #A5AAA9",
"C.	c #A2A7A6",
"D.	c #CED0D0",
"E.	c #CECFCF",
"F.	c #CDCECE",
"G.	c #CCCECE",
"H.	c #CBCECE",
"I.	c #CFD2D2",
"J.	c #CED1D1",
"K.	c #D0D2D2",
"L.	c #D2D4D4",
"M.	c #D1D3D3",
"N.	c #CACDCD",
"O.	c #C7CBCA",
"P.	c #C8CCCB",
"Q.	c #D4D5D4",
"R.	c #C0C4C3",
"S.	c #C1C5C4",
"T.	c #F3F3F3",
"U.	c #EEEFEF",
"V.	c #DDDFDE",
"W.	c #DCDEDD",
"X.	c #DBDDDC",
"Y.	c #DBDDDD",
"Z.	c #DEE0DF",
"`.	c #DEE1E0",
" +	c #DFE2E1",
".+	c #E0E2E2",
"++	c #E7E8E8",
"@+	c #E8E9E9",
"#+	c #E8E8E8",
"$+	c #E5E6E6",
"%+	c #E4E5E5",
"&+	c #E2E4E4",
"*+	c #E1E3E2",
"=+	c #E2E4E3",
"-+	c #E4E4E4",
";+	c #E6E7E7",
">+	c #9DA2A0",
",+	c #6B6E6E",
"'+	c #9FA3A3",
")+	c #9EA2A2",
"!+	c #9CA0A0",
"~+	c #9BA09F",
"{+	c #9CA09F",
"]+	c #9DA1A1",
"^+	c #9DA1A0",
"/+	c #9EA3A1",
"(+	c #A0A4A4",
"_+	c #A4A8A7",
":+	c #707473",
"<+	c #656A69",
"[+	c #989E9C",
"}+	c #5C5F5F",
"|+	c #636666",
"1+	c #959B9A",
"2+	c #616363",
"3+	c #595B5A",
"4+	c #626565",
"5+	c #666B6A",
"6+	c #5D6060",
"7+	c #C6C9C8",
"8+	c #585A5A",
"9+	c #5F6161",
"0+	c #C7C9C9",
"a+	c #565958",
"b+	c #616262",
"c+	c #575A59",
"d+	c #535554",
"e+	c #626464",
"f+	c #535655",
"g+	c #C9CCCC",
"h+	c #636867",
"i+	c #686C6B",
"j+	c #D3D4D4",
"k+	c #646968",
"l+	c #5A5D5D",
"m+	c #D4D6D5",
"n+	c #5A5C5B",
"o+	c #D7D9D9",
"p+	c #D9DBDB",
"q+	c #A3A7A6",
"r+	c #9AA09F",
"s+	c #8B9291",
"t+	c #8C9392",
"u+	c #8E9494",
"v+	c #909595",
"w+	c #8D9493",
"x+	c #828685",
"y+	c #B7BAB9",
"z+	c #525353",
"A+	c #545756",
"B+	c #4A4C4B",
"C+	c #484A4A",
"D+	c #474A49",
"E+	c #494B4A",
"F+	c #4A4D4C",
"G+	c #555857",
"H+	c #4E5150",
"I+	c #4B4E4D",
"J+	c #A4A9A9",
"K+	c #6E7271",
"L+	c #676B6B",
"M+	c #606262",
"N+	c #696D6C",
"O+	c #6B6F6E",
"P+	c #6F7373",
"Q+	c #717574",
"R+	c #727675",
"S+	c #6E7372",
"T+	c #6D7170",
"U+	c #737877",
"V+	c #6C706F",
". + @ # # # @ $ % % & & $ $ $ # * = @ @ = $ $ @ @ * - ; > @ , ' ) ! ! ' , $ * - ~ & $ $ $ # * = @ @ = % % & & $ $ $ & $ $ $ # * = @ @ = @ @ = * - ; > @ , ' ) ! ! ' , $ * - ~ { { $ ! % ] ^ ",
"$ / ( _ : : : < [ _ _ _ } } | 1 1 1 | 1 2 2 1 3 4 4 5 6 7 8 2 2 2 2 9 0 a 6 b 5 5 _ } } | 1 1 1 | 1 2 [ _ _ _ } } | _ } } | 1 1 1 | 1 2 | 1 2 4 5 6 7 8 2 2 2 2 9 0 a 6 b 5 5 5 b 0 0 , c d ",
"% 3 e f g h f i j k k k k l m n o o o o n n n p q q r s s t u v u s s w r o l l m k k l m n o o o o n j k k k k l m k k l m n o o o o n o o n q r s s t u v u s s w r o l l m r v x s r y z ",
") 2 m r r r r r r r r r r r r r r r r r r r r r r r r r r r r r r r r r r r r r r r r r r r r r r r r r r r r r r r r r r r r r r r r r r r r r r r r r r r r r r r r r r r r r r r r x A B ",
"' 2 m r r r r r r r r r r r r r r r r r r r r r r r r r r r r r r r r r r r r r r r r r r r r r r r r r r r r r r r r r r r r r r r r r r r r r r r r r r r r r r r r r r r r r r r r C A D ",
"' 2 r r r r r r r r r r r r r r r r r r r r r r r r r r r r r r r r r r r r r r r r r r r r r r r r r r r r r r r r r r r r r r r r r r r r r r r r r r r r r r r r r r r r r r r r r r E F ",
"' 2 r r r r r r r r r r r r r r r r r r r r r r r r r r r r r r r r r r r r r r r r r r r r r r r r r r r r r r r r r r r r r r r r r r r r r r r r r r r r r r r r r r r r r r r r r r A G ",
"! 2 r r r r r r r r r r r r r r r r r r r r r r r r r r r r r r r r r r r r r r r r r r r r r r r r r r r r r r r r r r r r r r r r r r r r r r r r r r r r r r r r r r r r r r r r r r H G ",
"I 9 r r r r r r r r r r r r r r r r r r r r r r r r r r r r r r r r r r r r r r r r r r r r r r r r r r r r r r r r r r r r r r r r r r r r r r r r r r r r r r r r r r r r r r r r r J A F ",
"I 2 r r r r r r r r r r r r r r r r r r r r r r r r r r r r r r r r r r r r r r r r r r r r r r r r r r r r r r r r r r r r r r r r r r r r r r r r r r r r r r r r r r r r r r r r r K L M ",
"N 2 r r r r r r r r r r r r r r r r r r r r r O O r r r r r r r r r r r r r r r r r r r r r r r r r r r r r r r r r r r r r r r r r r r r r r r r r r r r r r r r r r r r r r r r r r P Q R ",
"' 2 r r r r r r r r r r r r r r r r r r r r r O O r r r r r r r r r r r r r r r r r r r r r r r r r r r r r r r r r r r r r r r r r r r r r r r r r r r r r r r r r r r r r r r r r r S T z ",
"' 9 r r r r r r r r r r r r r r r r r r r r r r r r r r r r r r r r r r r r r r r r r r r r r r r r r r r r r r r r r r r r r r r r r r r r r r r r r r r r r r r r r r r r r r r r r U V B ",
") 2 r r r r r r r r r r r r r r r r r r r r r r r r r r r r r r r r r r r r r r r r r r r r r r r r r r r r r r r r r r r r r r r r r r r r r r r r r r r r r r r r r r r r r r r r r W V X ",
") 2 r r r r r r r r r r r r r r r r r r r r r r r r r r r r r r r r r r r r r r r r r r r r r r r r r r r r r r r r r r r r r r r r r r r r r r r r r r r r r r r r r r r r r r r r r Y L X ",
"Z 2 r r r r r r r r r r r r r r r r r r r r r r r r r r r r r r r r r r r r r r r r r r r r r r r r r r r r r r r r r r r r r r r r r r r r r r r r r r r r r r r r r r r r r r r r r ` E  .",
", 2 r r r r r r r r r r r r r r r r r r r r r O O r r r r r r r r r r r r r r r r r r r r r r r r r r r r r r r r r r r r r r r r r r r r r r r r r r r r r r r r r r r r r r r r r r ..E +.",
"Z 2 r r r r r r r r r r r r r r r r r r r r r O O r r r r r r r r r r r r r r r r r r r r r r r r r r r r r r r r r r r r r r r r r r r r r r r r r r r r r r r r r r r r r r r r r r @.E d ",
"#.8 q r r r r r r r r r r r r r r r r r r r r r r r r r r r r r r r r r r r r r r r r r r r r r r r r r r r r r r r r r r r r r r r r r r r r r r r r r r r r r r r r r r r r r r r r $.E %.",
"#.8 n r r r r r r r r r r r r r r r r r r r r r r r r r r r r r r r r r r r r r r r r r r r r r r r r r r r r r r r r r r r r r r r r r r r r r r r r r r r r r r r r r r r r r r r r ..&.G ",
"*.7 o r r r r r r r r r r r r r r r r r r r r r r r r r r r r r r r r r r r r r r r r r r r r r r r r r r r r r r r r r r r r r r r r r r r r r r r r r r r r r r r r r r r r r r r r =.-.z ",
";.>.r ,.'.).!.~.{.].^.^.~.~./.(.'.{.].~.^.~.~./.(.'.{.].~.'.).!.~.{.].^.^.~.~./.(.^.~.~./.(.'.{.].~.^.{.].^.^.~.~./.^.~.~./.(.'.{.].~.^.].~.^.'.{.].~.'.).!.~.{.].^.^.~.~./.(.'.{.].~._.L B ",
"- l y :.Q <.L -.E <.[.}.|.|.|.|.}.1.[.2.2.2.2.[.1.}.1.2.3.3.<.<.4.4.<.<.<.4.4.4.3.}.|.|.|.|.}.1.[.2.2.E <.[.}.|.|.|.}.|.|.|.|.}.1.[.2.2.[.2.2.}.1.2.3.3.<.<.4.4.<.<.<.4.4.4.3.4.<.<.<.5.6.B ",
"7.8.9.0.F G +.a.9.9.8.b.d d d d 8.c.c.d.d.e.d.c.f.g.8.y d.h.h.d.d.c.f.f.c.y d.d.d.b.d d d d 8.c.c.d.d.9.9.8.b.d d d b.d d d d 8.c.c.d.d.c.d.d.g.8.y d.h.h.d.d.c.f.f.c.y d.d.d.y d.d.c.i.D h.",
"h.D i.c.d.d.y d.d.d.y c.f.f.c.d.d.h.h.d.y 8.g.f.c.d.e.d.d.c.c.8.d d d d b.8.9.9.a.c.f.f.c.d.d.h.h.d.y d.d.y c.f.f.c.c.f.f.c.d.d.h.h.d.y h.d.y d.e.d.d.c.c.8.d d d d b.8.9.9.a.+.G F 0.9.8.7.",
"B 6.5.<.<.<.4.3.4.4.4.<.<.<.4.4.<.<.3.3.2.1.}.1.[.2.2.2.2.[.1.}.|.|.|.|.}.[.<.E -.<.<.<.4.4.<.<.3.3.2.4.4.4.<.<.<.4.<.<.<.4.4.<.<.3.3.2.3.3.2.2.2.2.2.[.1.}.|.|.|.|.}.[.<.E -.L <.Q :.y l - ",
"B L j.$.k.=.l.m.m.m.` ` ` ` Y S m.n.Y ` o.s t p.q p q q r r p.U q.q.,.r.s q p s.o ` ` ` Y S m.n.Y ` o.m.m.` ` ` ` Y ` ` ` Y S m.n.Y ` o.Y ` o.p q q r r p.U q.q.,.r.s q p s.o p s C t.r >.;.",
"z -.` r r r r r r r r r r r r r r r r r r r r r r r r r r r r r r r r r r r r r r r r r r r r r r r r r r r r r r r r r r r r r r r r r r r r r r r r r r r r r r r r r r r r r r r r s.7 *.",
"G &.x r r r r r r r r r r r r r r r r r r r r r r r r r r r r r r r r r r r r r r r r r r r r r r r r r r r r r r r r r r r r r r r r r r r r r r r r r r r r r r r r r r r r r r r r n 8 #.",
"%.E r r r r r r r r r r r r r r r r r r r r r r r r r r r r r r r r r r r r r r r r r r r r r r r r r r r r r r r r r r r r r r r r r r r r r r r r r r r r r r r r r r r r r r r r r r 8 #.",
"%.E r r r r r r r r r r r r r r r r r r r r r r r r r r r r r r r r r r r r r r r r r r r r r r r r r r r r r r r r r r r r r r r r r r r r r r r r r r r r r r r r r r r r r r r r r r 0 ~ ",
"z E r r r r r r r r r r r r r r r r r r r r r r r r r r r r r r r r r r r r r r r r r r r r r r r r r r r r r r r r r r r r r r r r r r r r r r r r r r r r r r r r r r r r r r r r r o 2 ~ ",
"%.E r r r r r r r r r r r r r r r r r r r r r r r r r r r r r r r r r r r r r r r r r r r r r r r r r r r r r r r r r r r r r r r r r r r r r r r r r r r r r r r r r r r r r r r r r o 2 ~ ",
"B L r r r r r r r r r r r r r r r r r r r r r r r r r r r r r r r r r r r r r r r r r r r r r r r r r r r r r r r r r r r r r r r r r r r r r r r r r r r r r r r r r r r r r r r r r n 2 ~ ",
" .V r r r r r r r r r r r r r r r r r r r r r O O r r r r r r r r r r r r r r r r r r r r r r r r r r r r r r r r r r r r r r r r r r r r r r r r r r r r r r r r r r r r r r r r r r o 2 #.",
"B V r r r r r r r r r r r r r r r r r r r r r O O r r r r r r r r r r r r r r r r r r r r r r r r r r r r r r r r r r r r r r r r r r r r r r r r r r r r r r r r r r r r r r r r r r o 2 { ",
"D T r r r r r r r r r r r r r r r r r r r r r r r r r r r r r r r r r r r r r r r r r r r r r r r r r r r r r r r r r r r r r r r r r r r r r r r r r r r r r r r r r r r r r r r r r n 9 *.",
"0.Q r r r r r r r r r r r r r r r r r r r r r r r r r r r r r r r r r r r r r r r r r r r r r r r r r r r r r r r r r r r r r r r r r r r r r r r r r r r r r r r r r r r r r r r r r n 2 . ",
"F L r r r r r r r r r r r r r r r r r r r r r r r r r r r r r r r r r r r r r r r r r r r r r r r r r r r r r r r r r r r r r r r r r r r r r r r r r r r r r r r r r r r r r r r r r n 2 . ",
"a.A r r r r r r r r r r r r r r r r r r r r r r r r r r r r r r r r r r r r r r r r r r r r r r r r r r r r r r r r r r r r r r r r r r r r r r r r r r r r r r r r r r r r r r r r r n 2 { ",
"u.v.r r r r r r r r r r r r r r r r r r r r r O O r r r r r r r r r r r r r r r r r r r r r r r r r r r r r r r r r r r r r r r r r r r r r r r r r r r r r r r r r r r r r r r r r r n 9 { ",
"G A w.r r r r r r r r r r r r r r r r r r r r O O r r r r r r r r r r r r r r r r r r r r r r r r r r r r r r r r r r r r r r r r r r r r r r r r r r r r r r r r r r r r r r r r r r l 2 ' ",
"F E w.r r r r r r r r r r r r r r r r r r r r r r r r r r r r r r r r r r r r r r r r r r r r r r r r r r r r r r r r r r r r r r r r r r r r r r r r r r r r r r r r r r r r r r r r g 2 ' ",
"D A r.r r r r r r r r r r r r r r r r r r r r r r r r r r r r r r r r r r r r r r r r r r r r r r r r r r r r r r r r r r r r r r r r r r r r r r r r r r r r r r r r r r r r r r r r i 2 ' ",
"B A C r r r r r r r r r r r r r r r r r r r r r r r r r r r r r r r r r r r r r r r r r r r r r r r r r r r r r r r r r r r r r r r r r r r r r r r r r r r r r r r r r r r r r r r r x.2 ) ",
"z y r x k ^ y.z.^ ] A.] ^ A.B.C.i i i x.B.A.] A.^ ^ y.z.^ ] A.] ^ A.B.C.i i i x.B.] ^ A.B.C.i i i x.B.^ ] A.] ^ A.B.] ^ A.B.C.i i i x.B.i x.B.^ y.z.^ ] A.] ^ A.B.C.i i i x.B.A.] A.^ ~ 3 % ",
"d c , 0 0 b 5 5 5 b 6 a 0 9 2 2 2 2 8 7 6 5 4 4 3 1 2 2 1 | 1 1 1 | } } _ _ _ [ < a 0 9 2 2 2 2 8 7 6 5 b 6 a 0 9 2 a 0 9 2 2 2 2 8 7 6 8 7 6 1 2 2 1 | 1 1 1 | } } _ _ _ [ < : : : _ ( / $ ",
"^ ] % ! $ { { ~ - * $ , ' ! ! ) ' , @ > ; - * @ @ $ $ = @ @ = * # $ $ $ & & % % $ , ' ! ! ) ' , @ > ; - * $ , ' ! ! , ' ! ! ) ' , @ > ; @ > ; $ $ = @ @ = * # $ $ $ & & % % $ @ # # # @ + . ",
"1 9 D.E.E.E.D.F.G.G.H.H.F.F.F.E.I.J.D.D.J.F.F.D.D.I.K.L.M.D.N.O.P.+ + O.N.F.I.K.L.H.F.F.F.E.I.J.D.D.J.G.G.H.H.F.F.F.H.F.F.F.E.I.J.D.D.J.D.D.J.I.K.L.M.D.N.O.P.+ + O.N.F.I.K.L.Q.Q.F.+ G.R.S.",
"F.T.U.V.W.W.W.X.Y.V.V.V.Z.Z.`. + + +`. +.+.+ +++@+@+#+$+%+&+.+.+.+.+*+=+-+$+;+#+#+V.Z.Z.`. + + +`. +.+Y.V.V.V.Z.Z.`.V.Z.Z.`. + + +`. +.+`. +.+@+#+$+%+&+.+.+.+.+*+=+-+$+;+#+#+#+;+=+=+N.>+,+",
"G.++e C.f C.f j g g '+)+!+~+~+k g g j g g {+~+k ]+g ^+k ~+l n n m n n m l ~+~+g k )+!+~+~+k g g j g g g g '+)+!+~+~+)+!+~+~+k g g j g g j g g g ^+k ~+l n n m n n m l ~+~+g k k /+>+(+_+:+<+",
"P..+k r r r r r r r r r r r r r r r r r r r r r r r r r r r r r r r r r r r r r r r r r r r r r r r r r r r r r r r r r r r r r r r r r r r r r r r r r r r r r r r r r r r r r r r r [+}+|+",
"O..+i r r r r r r r r r r r r r r r r r r r r r r r r r r r r r r r r r r r r r r r r r r r r r r r r r r r r r r r r r r r r r r r r r r r r r r r r r r r r r r r r r r r r r r r r 1+}+2+",
"O..+m r r r r r r r r r r r r r r r r r r r r r r r r r r r r r r r r r r r r r r r r r r r r r r r r r r r r r r r r r r r r r r r r r r r r r r r r r r r r r r r r r r r r r r r r r 3+4+",
"O..+m r r r r r r r r r r r r r r r r r r r r r r r r r r r r r r r r r r r r r r r r r r r r r r r r r r r r r r r r r r r r r r r r r r r r r r r r r r r r r r r r r r r r r r r r r }+5+",
"+ .+~+r r r r r r r r r r r r r r r r r r r r r r r r r r r r r r r r r r r r r r r r r r r r r r r r r r r r r r r r r r r r r r r r r r r r r r r r r r r r r r r r r r r r r r r r r 6+5+",
"7+*+k r r r r r r r r r r r r r r r r r r r r r r r r r r r r r r r r r r r r r r r r r r r r r r r r r r r r r r r r r r r r r r r r r r r r r r r r r r r r r r r r r r r r r r r r r }+4+",
"7+.+k r r r r r r r r r r r r r r r r r r r r r r r r r r r r r r r r r r r r r r r r r r r r r r r r r r r r r r r r r r r r r r r r r r r r r r r r r r r r r r r r r r r r r r r r r 8+9+",
"0+.+k r r r r r r r r r r r r r r r r r r r r O O r r r r r r r r r r r r r r r r r r r r r r r r r r r r r r r r r r r r r r r r r r r r r r r r r r r r r r r r r r r r r r r r r r r a+b+",
"O..+~+r r r r r r r r r r r r r r r r r r r r O O r r r r r r r r r r r r r r r r r r r r r r r r r r r r r r r r r r r r r r r r r r r r r r r r r r r r r r r r r r r r r r r r r r r c+<+",
"O.*+l r r r r r r r r r r r r r r r r r r r r r r r r r r r r r r r r r r r r r r r r r r r r r r r r r r r r r r r r r r r r r r r r r r r r r r r r r r r r r r r r r r r r r r r r r a+|+",
"P..+m r r r r r r r r r r r r r r r r r r r r r r r r r r r r r r r r r r r r r r r r r r r r r r r r r r r r r r r r r r r r r r r r r r r r r r r r r r r r r r r r r r r r r r r r r d+e+",
"P..+l r r r r r r r r r r r r r r r r r r r r r r r r r r r r r r r r r r r r r r r r r r r r r r r r r r r r r r r r r r r r r r r r r r r r r r r r r r r r r r r r r r r r r r r r r f+e+",
"g+.+l r r r r r r r r r r r r r r r r r r r r r r r r r r r r r r r r r r r r r r r r r r r r r r r r r r r r r r r r r r r r r r r r r r r r r r r r r r r r r r r r r r r r r r r r r f+h+",
"N..+l r r r r r r r r r r r r r r r r r r r r O O r r r r r r r r r r r r r r r r r r r r r r r r r r r r r r r r r r r r r r r r r r r r r r r r r r r r r r r r r r r r r r r r r r r a+i+",
"g+.+l r r r r r r r r r r r r r r r r r r r r O O r r r r r r r r r r r r r r r r r r r r r r r r r r r r r r r r r r r r r r r r r r r r r r r r r r r r r r r r r r r r r r r r r r r 3+,+",
"j+&+~+r r r r r r r r r r r r r r r r r r r r r r r r r r r r r r r r r r r r r r r r r r r r r r r r r r r r r r r r r r r r r r r r r r r r r r r r r r r r r r r r r r r r r r r r w 3+k+",
"j+&+g r r r r r r r r r r r r r r r r r r r r r r r r r r r r r r r r r r r r r r r r r r r r r r r r r r r r r r r r r r r r r r r r r r r r r r r r r r r r r r r r r r r r r r r r q l+5+",
"m+%+h r r r r r r r r r r r r r r r r r r r r r r r r r r r r r r r r r r r r r r r r r r r r r r r r r r r r r r r r r r r r r r r r r r r r r r r r r r r r r r r r r r r r r r r r w n+<+",
"o+p+q+r+r w s+t+u+v+v w+w+u+u+s r w v+v u+w+w+u+u+s r w v+v u+t+u+v+v w+w+u+u+s r w+w+u+u+s r w v+v u+u+v+v w+w+u+u+w+w+u+u+s r w v+v u+v+v u+s r w v+v u+t+u+v+v w+w+u+u+s r w v+v u+x+8+|+",
"K.y+:+z+d+A+8+n+3+A+B+C+D+D+D+D+C+E+B+F+F+F+F+B+E+C+E+F+a+a+A+A+G+G+A+A+A+G+G+G+a+C+D+D+D+D+C+E+B+F+F+3+A+B+C+D+D+D+C+D+D+D+D+C+E+B+F+F+B+F+F+C+E+F+a+a+A+A+G+G+A+A+A+G+G+G+a+G+A+A+A+H+I+|+",
"J+K+L+M+4+5+i+N+L+L+K+O+,+,+,+,+K+P+P+Q+Q+R+Q+P+S+T+K+:+Q+U+U+Q+Q+P+S+S+P+:+Q+Q+Q+O+,+,+,+,+K+P+P+Q+Q+L+L+K+O+,+,+,+O+,+,+,+,+K+P+P+Q+Q+P+Q+Q+T+K+:+Q+U+U+Q+Q+P+S+S+P+:+Q+Q+Q+:+Q+Q+P+V+2+U+"};
