/* XPM */
static char * button_xpm[] = {
"48 144 308 2",
"  	c None",
". 	c #C5C8C7",
"+ 	c #C7CAC9",
"@ 	c #BBBEBE",
"# 	c #BABDBD",
"$ 	c #B9BCBC",
"% 	c #B8BBBB",
"& 	c #B7BABA",
"* 	c #BDC0C0",
"= 	c #BCBFBF",
"- 	c #BEC1C1",
"; 	c #C0C3C3",
"> 	c #BFC2C2",
", 	c #B6B9B9",
"' 	c #B2B7B6",
") 	c #B3B8B7",
"! 	c #B1B6B5",
"~ 	c #C1C4C3",
"{ 	c #C3C6C5",
"] 	c #A8ADAC",
"^ 	c #A9AEAD",
"/ 	c #EFF0F0",
"( 	c #E9EAEA",
"_ 	c #D1D4D3",
": 	c #CFD2D1",
"< 	c #CDD0CF",
"[ 	c #CED1D0",
"} 	c #D2D5D4",
"| 	c #D3D6D5",
"1 	c #D4D7D6",
"2 	c #D5D8D7",
"3 	c #DEDFDF",
"4 	c #E0E1E1",
"5 	c #DFE0E0",
"6 	c #DCDDDD",
"7 	c #DBDCDC",
"8 	c #D8DBDA",
"9 	c #D6D9D8",
"0 	c #D7DAD9",
"a 	c #DADBDB",
"b 	c #DDDEDE",
"c 	c #757C7A",
"d 	c #4E5352",
"e 	c #A7ACAB",
"f 	c #A5AAA9",
"g 	c #A3A8A7",
"h 	c #A0A5A4",
"i 	c #A2A7A6",
"j 	c #ACB1B0",
"k 	c #ABB0AF",
"l 	c #9CA1A0",
"m 	c #999E9D",
"n 	c #979C9B",
"o 	c #939897",
"p 	c #909594",
"q 	c #8C9391",
"r 	c #878E8C",
"s 	c #818887",
"t 	c #7E8584",
"u 	c #828987",
"v 	c #8A918F",
"w 	c #8F9493",
"x 	c #959A99",
"y 	c #9A9F9E",
"z 	c #9EA3A2",
"A 	c #9DA2A1",
"B 	c #89908E",
"C 	c #858C8A",
"D 	c #555A59",
"E 	c #484D4C",
"F 	c #8D9492",
"G 	c #929796",
"H 	c #8B9290",
"I 	c #969B9A",
"J 	c #949998",
"K 	c #989D9C",
"L 	c #919695",
"M 	c #868D8B",
"N 	c #3D4040",
"O 	c #464949",
"P 	c #838A88",
"Q 	c #848B89",
"R 	c #434646",
"S 	c #393C3B",
"T 	c #454848",
"U 	c #494E4D",
"V 	c #3E4141",
"W 	c #AFB4B3",
"X 	c #383B3A",
"Y 	c #404343",
"Z 	c #B0B5B4",
"` 	c #000000",
" .	c #363938",
"..	c #424545",
"+.	c #373A39",
"@.	c #323534",
"#.	c #444747",
"$.	c #333635",
"%.	c #B5B8B8",
"&.	c #464B4A",
"*.	c #4B504F",
"=.	c #4C5150",
"-.	c #D0D3D2",
";.	c #3C3F3F",
">.	c #ADB2B1",
",.	c #474C4B",
"'.	c #A1A6A5",
").	c #9BA09F",
"!.	c #888F8D",
"~.	c #7B8281",
"{.	c #9FA4A3",
"].	c #A4A9A8",
"^.	c #7A8180",
"/.	c #79807F",
"(.	c #787F7E",
"_.	c #C2C5C4",
":.	c #7D8483",
"<.	c #4D5251",
"[.	c #6F7674",
"}.	c #414444",
"|.	c #C4C7C6",
"1.	c #808786",
"2.	c #6C7371",
"3.	c #747B79",
"4.	c #7C8382",
"5.	c #7F8685",
"6.	c #3B3E3E",
"7.	c #3A3D3C",
"8.	c #C8CBCA",
"9.	c #CBCECD",
"0.	c #767D7C",
"a.	c #777E7D",
"b.	c #6A6F6E",
"c.	c #303332",
"d.	c #343736",
"e.	c #272A29",
"f.	c #252827",
"g.	c #242726",
"h.	c #262928",
"i.	c #282B2A",
"j.	c #353837",
"k.	c #2C2F2E",
"l.	c #292C2B",
"m.	c #525756",
"n.	c #4A4F4E",
"o.	c #4F5453",
"p.	c #545958",
"q.	c #565B5A",
"r.	c #575C5B",
"s.	c #535857",
"t.	c #515655",
"u.	c #595E5D",
"v.	c #505554",
"w.	c #6B7270",
"x.	c #717876",
"y.	c #727977",
"z.	c #A6ABAA",
"A.	c #C5C8C8",
"B.	c #C5C7C7",
"C.	c #C4C6C6",
"D.	c #C3C5C5",
"E.	c #C2C5C5",
"F.	c #C7CACA",
"G.	c #C6C9C9",
"H.	c #C8CACA",
"I.	c #CACCCC",
"J.	c #C9CBCB",
"K.	c #C1C4C4",
"L.	c #BDC2C1",
"M.	c #BEC3C2",
"N.	c #BDC1C0",
"O.	c #CACDCC",
"P.	c #CCCECD",
"Q.	c #B5BAB9",
"R.	c #B6BBBA",
"S.	c #F1F1F1",
"T.	c #ECEDED",
"U.	c #D6D8D7",
"V.	c #D5D7D6",
"W.	c #D5D7D7",
"X.	c #D9DCDB",
"Y.	c #DADDDC",
"Z.	c #DBDDDD",
"`.	c #E3E4E4",
" +	c #E4E5E5",
".+	c #E4E4E4",
"++	c #E1E2E2",
"@+	c #DDE0DF",
"#+	c #DCDEDD",
"$+	c #DDDFDE",
"%+	c #E2E3E3",
"&+	c #8B918F",
"*+	c #6B6E6E",
"=+	c #B4B9B8",
"-+	c #B3B7B6",
";+	c #B1B5B4",
">+	c #AFB3B2",
",+	c #B0B4B4",
"'+	c #B9BDBD",
")+	c #B8BDBC",
"!+	c #ACB0AF",
"~+	c #A9ADAC",
"{+	c #A4A8A7",
"]+	c #A2A5A4",
"^+	c #9EA4A2",
"/+	c #9AA09E",
"(+	c #959B9A",
"_+	c #959C9A",
":+	c #9CA2A1",
"<+	c #A1A4A4",
"[+	c #AAAEAD",
"}+	c #ADB1B0",
"|+	c #ACB0B0",
"1+	c #9CA2A0",
"2+	c #989E9C",
"3+	c #707473",
"4+	c #656A69",
"5+	c #989E9D",
"6+	c #9A9E9E",
"7+	c #9DA1A0",
"8+	c #979E9C",
"9+	c #969D9B",
"0+	c #9EA2A1",
"a+	c #A2A6A6",
"b+	c #9CA09F",
"c+	c #939997",
"d+	c #8D9493",
"e+	c #9B9F9E",
"f+	c #A6AAA9",
"g+	c #929896",
"h+	c #5C5F5F",
"i+	c #636666",
"j+	c #8E9593",
"k+	c #8F9594",
"l+	c #959B99",
"m+	c #979D9C",
"n+	c #616363",
"o+	c #595B5A",
"p+	c #626565",
"q+	c #A3A7A6",
"r+	c #666B6A",
"s+	c #5D6060",
"t+	c #BCBFBE",
"u+	c #585A5A",
"v+	c #5F6161",
"w+	c #BDC0BF",
"x+	c #565958",
"y+	c #616262",
"z+	c #575A59",
"A+	c #535554",
"B+	c #626464",
"C+	c #535655",
"D+	c #636867",
"E+	c #686C6B",
"F+	c #696D6C",
"G+	c #D7D9D8",
"H+	c #5B5E5E",
"I+	c #646968",
"J+	c #B0B4B3",
"K+	c #A5A9A8",
"L+	c #909695",
"M+	c #949A98",
"N+	c #AAAFAE",
"O+	c #ABAFAF",
"P+	c #909595",
"Q+	c #ABAFAE",
"R+	c #919795",
"S+	c #8E9494",
"T+	c #CBCDCD",
"U+	c #6A6E6D",
"V+	c #868B8A",
"W+	c #606262",
"X+	c #CDCFCE",
"Y+	c #8C9392",
"Z+	c #838988",
"`+	c #8A908E",
" @	c #A8ACAC",
".@	c #5A5D5D",
"+@	c #AEB2B1",
"@@	c #5A5C5B",
"#@	c #D3D5D5",
"$@	c #9DA3A2",
"%@	c #B2B6B5",
"&@	c #9BA19F",
"*@	c #999F9D",
"=@	c #8B9291",
"-@	c #828685",
";@	c #525353",
">@	c #545756",
",@	c #4A4C4B",
"'@	c #484A4A",
")@	c #474A49",
"!@	c #494B4A",
"~@	c #4A4D4C",
"{@	c #555857",
"]@	c #4E5150",
"^@	c #4B4E4D",
"/@	c #949A99",
"(@	c #6E7271",
"_@	c #676B6B",
":@	c #6B6F6E",
"<@	c #6F7373",
"[@	c #717574",
"}@	c #727675",
"|@	c #6E7372",
"1@	c #6D7170",
"2@	c #737877",
"3@	c #6C706F",
". + @ # # # @ $ % % & & $ $ $ # * = @ @ = $ $ @ @ * - ; > @ , ' ) ! ! ' , $ * - ~ { { $ ! % ] ^ ",
"$ / ( _ : : : < [ _ _ _ } } | 1 1 1 | 1 2 2 1 3 4 4 5 6 7 8 2 2 2 2 9 0 a 6 b 5 5 5 b 0 0 , c d ",
"% 3 ~ ^ e ] e f g h h h i f e ^ ] e ] ^ j k ^ l m n o p q r s t u r v w x y z h A x B C w o D E ",
") 2 g F w G G w q H H q w o I x J J I K K I o J J L w F H r s s r F p G K l z n F M M F A B N O ",
"' 2 e F F o o o o G L L o x J o o J x I x L F G o p w F H r u P q L G I l z K B u r w x A Q N R ",
"' 2 o o o o o o o o o o o o o o o o o o o o o J I o o o o o o o o o o o o o o o o o o o o o S T ",
"' 2 o o o o o o o o o o o o o o o o o o o o o K m o o o o o o o o o o o o o o o o o o o o o N U ",
"! 2 o o o o o o o o o o o o o o o o o o o o o y y o o o o o o o o o o o o o o o o o o o o o V U ",
"W 9 o o o o o o o o o o o o o o o o o o o o o y m o o o o o o o o o o o o o o o o o o o o o N T ",
"W 2 o o o o o o o o o o o o o o o o o o o o o K I o o o o o o o o o o o o o o o o o o o o o X Y ",
"Z 2 o o o o o o o o o o o o o o o o o o o o o ` ` o o o o o o o o o o o o o o o o o o o o o  ...",
"' 2 o o o o o o o o o o o o o o o o o o o o o ` ` o o o o o o o o o o o o o o o o o o o o o +.E ",
"' 9 o o o o o o o o o o o o o o o o o o o o o n F o o o o o o o o o o o o o o o o o o o o o  .O ",
") 2 o o o o o o o o o o o o o o o o o o o o o L v o o o o o o o o o o o o o o o o o o o o o @.#.",
") 2 o o o o o o o o o o o o o o o o o o o o o F q o o o o o o o o o o o o o o o o o o o o o $.#.",
"%.2 o o o o o o o o o o o o o o o o o o o o o w L o o o o o o o o o o o o o o o o o o o o o $.&.",
", 2 o o o o o o o o o o o o o o o o o o o o o ` ` o o o o o o o o o o o o o o o o o o o o o  .*.",
"%.2 o o o o o o o o o o o o o o o o o o o o o ` ` o o o o o o o o o o o o o o o o o o o o o S d ",
"' } o o o o o o o o o o o o o o o o o o o o o F F o o o o o o o o o o o o o o o o o o o o o N =.",
"! -.o o o o o o o o o o o o o o o o o o o o o w F o o o o o o o o o o o o o o o o o o o o o ;.U ",
">.[ o o o o o o o o o o o o o o o o o o o o o L w o o o o o o o o o o o o o o o o o o o o o X ,.",
"k : o o o o o o o o o o o o o o o o o o o o o F H o o o o o o o o o o o o o o o o o o o o o  .T ",
"Z -.o o o o o o o o o o o o o o o o o o o o o B r o o o o o o o o o o o o o o o o o o o o o +.#.",
"%.2 '.).y G P Q p o n m l A A l I F H B !.!.r r r B L y h K v v n '.i p u F o J o o o J x ~.+.O ",
"- 9 ).y I o v !.G x K m y z {.A J B r r M r !.B H w I A z L !.p l ].l r P L J J o o J x I ^.+.O ",
"; 0 A K L o w F o n K K m z i z G r M C Q r v q L I ).z n H B J A g I u v o J x J J J x x /.+.T ",
"~ 0 l I F J G w x K K K m z '.).w r C Q C v w o K A z K F !.w n z g K r F o J J J J x x x (.+.O ",
"~ 8 m x w x o w o K ).m y A A K q r Q P !.p x m z {.y w !.q J y '.g ).L L o J J J o J x I ^.+.&.",
"_.8 I o L x o p J x K m K y ).n H M Q C F I y z {.l G r v o n y h h I o L w o o o o o I n ~.X &.",
"_.8 o G o K n o I x J n K ).l I H M C r p K A z z n v r p J n K n o r r F B F L G o o I I ^.+.O ",
"_.8 o L J m m I I x n m l A A G r u P r G l {.{.l G !.F o J x J G q C M F w q w G o I K I /.X ,.",
"{ 8 p w o K K x o G I m z h K H P P C v J A {.A n q B p J J J o L p p L G x p F x I I K K :.;.<.",
"{ 8 p p o I n o p p x m z g K r C r v L n y l m o q o o o o o o o o o o o o o o o o o o o Q N =.",
". a o L x I n o F w o K A '.m M r B F o n m y K o L o o o o o o o o o o o o o o o o o o o t X T ",
". a o L J x n J F w o K l z ).!.u r q o n m m I G o o o o o o o o o o o o o o o o o o o o [.@.}.",
"|.a I G o x I n G o I m l ).m q 1.Q H o n K K x L J o o o o o o o o o o o o o o o o o o o 2.$.R ",
"{ a m x o J x K J I m y l y n L u Q F J n K K I L o o o o o o o o o o o o o o o o o o o o 3.+.O ",
"_.8 m J G o o K x I ).K y K o F !.!.G I K K K x L o o o o o o o o o o o o o o o o o o o o (.+.&.",
"~ 8 n G p G o K K x m n n x F !.r r J l m K I x L L o o o o o o o o o o o o o o o o o o o (.X O ",
"~ 8 n G p p G K K x y y n o F v v v F x K I I J L L o o o o o o o o o o o o o o o o o o o ~.S ,.",
"~ 8 x G L L p o K K A {.K o p F F p L p o J o o L o o o o o o o o o o o o o o o o o o o o 4.S E ",
"~ 0 o o J o F G K l z {.K o L F F L o o n I F G o o o o o o o o o o o o o o o o o o o o o :.S ,.",
"_.8 J J x o F J A h {.A n G F H F w o o K y o o I o o o o o o o o o o o o o o o o o o o o :.S ,.",
"_.8 K J o w L m i g '.y o F !.r v F G o I A l x x o F w I o F L L o o o o o J x x K m y y 5.6.U ",
"|.7 n L w F x '.f g A x F !.M Q r q G x I A {.x F p F p y K p L o J x J J x x I m l l y m :.7.E ",
"8.9.o v H p y ].g A n w !.M C Q !.F o x I m A n v q w H t :.0.a./.~.^.(.(././.4.t :.~.^./.b.X O ",
"- y D c.@.d.X 7.S d.e.f.g.g.g.g.f.h.e.i.i.i.i.e.h.f.h.i. . .d.d.j.j.d.d.d.j.j.j. .j.d.d.d.k.l.O ",
"1.m.n.}.T U *.=.n.n.m.o.d d d d m.p.p.q.q.r.q.p.s.t.m.D q.u.u.q.q.p.s.s.p.D q.q.q.D q.q.p.v.R u.",
"u.R v.p.q.q.D q.q.q.D p.s.s.p.q.q.u.u.q.D m.t.s.p.q.r.q.q.p.p.m.d d d d o.m.n.n.=.*.U T }.n.m.1.",
"O l.k.d.d.d.j. .j.j.j.d.d.d.j.j.d.d. . .i.h.f.h.e.i.i.i.i.e.h.f.g.g.g.g.f.e.d.S 7.X d.@.c.D y - ",
"O X b./.^.~.:.t 4././.(.(.^.~./.a.0.:.t H w q v n A m I x o F !.Q C M !.w n A g ].y p H v o 9.8.",
"E 7.:.F w G G w q H H q w o I x J J I K K I o J J L w F H r s s r F p G K l z n F M M F A n 7 |.",
"U 6.5.F F o o o o G L L o x J o o J x I x L F G o p w F H r u P q L G I l z K B u r w x A K 8 _.",
",.S o o o o o o o o o o o o o o o o o o o o o J I o o o o o o o o o o o o o o o o o o o o o 8 _.",
",.S o o o o o o o o o o o o o o o o o o o o o K m o o o o o o o o o o o o o o o o o o o o o 0 ~ ",
"E S o o o o o o o o o o o o o o o o o o o o o y y o o o o o o o o o o o o o o o o o o o o o 8 ~ ",
",.S o o o o o o o o o o o o o o o o o o o o o y m o o o o o o o o o o o o o o o o o o o o o 8 ~ ",
"O X o o o o o o o o o o o o o o o o o o o o o K I o o o o o o o o o o o o o o o o o o o o o 8 ~ ",
"&.+.o o o o o o o o o o o o o o o o o o o o o ` ` o o o o o o o o o o o o o o o o o o o o o 8 _.",
"O +.o o o o o o o o o o o o o o o o o o o o o ` ` o o o o o o o o o o o o o o o o o o o o o a { ",
"R $.o o o o o o o o o o o o o o o o o o o o o n F o o o o o o o o o o o o o o o o o o o o o a |.",
"}.@.o o o o o o o o o o o o o o o o o o o o o L v o o o o o o o o o o o o o o o o o o o o o a . ",
"T X o o o o o o o o o o o o o o o o o o o o o F q o o o o o o o o o o o o o o o o o o o o o a . ",
"=.N o o o o o o o o o o o o o o o o o o o o o w L o o o o o o o o o o o o o o o o o o o o o 8 { ",
"<.;.o o o o o o o o o o o o o o o o o o o o o ` ` o o o o o o o o o o o o o o o o o o o o o 8 { ",
",.X o o o o o o o o o o o o o o o o o o o o o ` ` o o o o o o o o o o o o o o o o o o o o o 8 _.",
"O +.o o o o o o o o o o o o o o o o o o o o o F F o o o o o o o o o o o o o o o o o o o o o 8 _.",
"&.X o o o o o o o o o o o o o o o o o o o o o w F o o o o o o o o o o o o o o o o o o o o o 8 _.",
"&.+.o o o o o o o o o o o o o o o o o o o o o L w o o o o o o o o o o o o o o o o o o o o o 8 ~ ",
"O +.o o o o o o o o o o o o o o o o o o o o o F H o o o o o o o o o o o o o o o o o o o o o 0 ~ ",
"T +.o o o o o o o o o o o o o o o o o o o o o B r o o o o o o o o o o o o o o o o o o o o o 0 ; ",
"O +.^.).y G P Q p o n m l A A l I F H B !.!.r r r B L y h K v v n '.i p u F o J o o o J x ).9 - ",
"O +.~.y I o v !.G x K m y z {.A J B r r M r !.B H w I A z L !.p l ].l r P L J J o o J x I '.2 %.",
"#.+.^.K L o w F o n K K m z i z G r M C Q r v q L I ).z n H B J A g I u v o J x J J J x x e -.Z ",
"T  .(.I F J G w x K K K m z '.).w r C Q C v w o K A z K F !.w n z g K r F o J J J J x x x f : k ",
",.X 4.x w x o w o K ).m y A A K q r Q P !.p x m z {.y w !.q J y '.g ).L L o J J J o J x I g [ >.",
"U ;.s o L x o p J x K m K y ).n H M Q C F I y z {.l G r v o n y h h I o L w o o o o o I n i -.! ",
"=.N s G o K n o I x J n K ).l I H M C r p K A z z n v r p J n K n o r r F B F L G o o I I g } ' ",
"d S a.L J m m I I x n m l A A G r u P r G l {.{.l G !.F o J x J G q C M F w q w G o I K I g 2 %.",
"*. .w.w o K K x o G I m z h K H P P C v J A {.A n q B p J J J o L p p L G x p F x I I K K g 2 , ",
"&.$.w.p o I n o p p x m z g K r C r v L n y l m o q o o o o o o o o o o o o o o o o o o o g 2 %.",
"#.$.x.L x I n o F w o K A '.m M r B F o n m y K o L o o o o o o o o o o o o o o o o o o o g 2 ) ",
"#.@.y.L J x n J F w o K l z ).!.u r q o n m m I G o o o o o o o o o o o o o o o o o o o o f 2 ) ",
"O  .3.G o x I n G o I m l ).m q 1.Q H o n K K x L J o o o o o o o o o o o o o o o o o o o e 9 ' ",
"E +./.x o J x K J I m y l y n L u Q F J n K K I L o o o o o o o o o o o o o o o o o o o o z.2 ' ",
".. .s J G o o K x I ).K y K o F !.!.G I K K K x L o o o o o o o o o o o o o o o o o o o o z.2 Z ",
"Y X B G p G o K K x m n n x F !.r r J l m K I x L L o o o o o o o o o o o o o o o o o o o ] 2 W ",
"T N v G p p G K K x y y n o F v v v F x K I I J L L o o o o o o o o o o o o o o o o o o o ^ 9 W ",
"U V C G L L p o K K A {.K o p F F p L p o J o o L o o o o o o o o o o o o o o o o o o o o k 2 ! ",
"U N u o J o F G K l z {.K o L F F L o o n I F G o o o o o o o o o o o o o o o o o o o o o j 2 ' ",
"T S 5.J x o F J A h {.A n G F H F w o o K y o o I o o o o o o o o o o o o o o o o o o o o j 2 ' ",
"R N Q J o w L m i g '.y o F !.r v F G o I A l x x o F w I o F L L o o o o o J x x K m y y e 2 ' ",
"O N B L w F x '.f g A x F !.M Q r q G x I A {.x F p F p y K p L o J x J J x x I m l l y m g 2 ) ",
"E D o w C B x A h z y x w v r u t s r q p o n m l ^ k j ^ ] e ] ^ e f i h h h g f e ] e ^ ~ 3 % ",
"d c , 0 0 b 5 5 5 b 6 a 0 9 2 2 2 2 8 7 6 5 4 4 3 1 2 2 1 | 1 1 1 | } } _ _ _ [ < : : : _ ( / $ ",
"^ ] % ! $ { { ~ - * $ , ' ! ! ) ' , @ > ; - * @ @ $ $ = @ @ = * # $ $ $ & & % % $ @ # # # @ + . ",
"< : A.B.B.B.A.C.D.D.E.E.C.C.C.B.F.G.A.A.G.C.C.A.A.F.H.I.J.A.K.L.M.N.N.L.K.C.F.H.O.P.P.C.N.D.Q.R.",
"C.S.T.0 U.U.U.V.W.0 0 0 8 8 X.Y.Y.Y.X.Y.Z.Z.Y.`. + +.+++4 @+Z.Z.Z.Z.#+$+5 ++%+.+.+.+%+$+$+K.&+*+",
"D.`.O.R.=+Q.=+-+;+>+>+>+,+-+=+R.Q.=+Q.R.'+)+R.!+~+e {+]+^+/+(+o _+/+:+<+f [+}+>+|+f 1+2+<+{+3+4+",
"M.Z.;+5+6+7+7+6+8+9+9+8+6+0+h {.z z h a+a+h 0+z z b+6+5+9+c+d+d+c+5+e+7+a+f+e '.5+g+g+5+z.1+h+i+",
"L.Z.=+5+5+0+0+0+0+7+b+b+0+{.z 0+0+z {.h {.b+5+7+0+e+6+5+9+c+j+k+8+b+7+h f+e a+l+j+c+6+{.z.m+h+n+",
"L.Z.o o o o o o o o o o o o o o o o o o o o o z h o o o o o o o o o o o o o o o o o o o o o o+p+",
"L.Z.o o o o o o o o o o o o o o o o o o o o o a+q+o o o o o o o o o o o o o o o o o o o o o h+r+",
"N.Z.o o o o o o o o o o o o o o o o o o o o o {+{+o o o o o o o o o o o o o o o o o o o o o s+r+",
"t+#+o o o o o o o o o o o o o o o o o o o o o {+q+o o o o o o o o o o o o o o o o o o o o o h+p+",
"t+Z.o o o o o o o o o o o o o o o o o o o o o a+h o o o o o o o o o o o o o o o o o o o o o u+v+",
"w+Z.o o o o o o o o o o o o o o o o o o o o o ` ` o o o o o o o o o o o o o o o o o o o o o x+y+",
"L.Z.o o o o o o o o o o o o o o o o o o o o o ` ` o o o o o o o o o o o o o o o o o o o o o z+4+",
"L.#+o o o o o o o o o o o o o o o o o o o o o '.5+o o o o o o o o o o o o o o o o o o o o o x+i+",
"M.Z.o o o o o o o o o o o o o o o o o o o o o b+_+o o o o o o o o o o o o o o o o o o o o o A+B+",
"M.Z.o o o o o o o o o o o o o o o o o o o o o 5+8+o o o o o o o o o o o o o o o o o o o o o C+B+",
"; Z.o o o o o o o o o o o o o o o o o o o o o 6+b+o o o o o o o o o o o o o o o o o o o o o C+D+",
"K.Z.o o o o o o o o o o o o o o o o o o o o o ` ` o o o o o o o o o o o o o o o o o o o o o x+E+",
"; Z.o o o o o o o o o o o o o o o o o o o o o ` ` o o o o o o o o o o o o o o o o o o o o o o+*+",
"L.8 o o o o o o o o o o o o o o o o o o o o o 5+5+0+o o o o o o o o o o o o o o o o o o o o h+F+",
"N.G+o o o o o o o o o o o o o o o o o o o o o 6+5+0+o o o o o o o o o o o o o o o o o o o o H+r+",
"# W.o o o o o o o o o o o o o o o o o o o o o b+6+0+o o o o o o o o o o o o o o o o o o o o u+I+",
")+U.o o o o o o o o o o o o o o o o o o o o o 5+9+0+o o o o o o o o o o o o o o o o o o o o x+p+",
"w+G+o o o o o o o o o o o o o o o o o o o o o l+c+0+o o o o o o o o o o o o o o o o o o o o z+B+",
"; Z.J+K+{+7+k+L+e+0+'.q+f+z.z.f+h 5+9+l+M+M+c+c+c+l+b+{+^ a+_+_+'.N+O+e+j+5+0+z 0+0+0+z {.P+z+i+",
"H.#+Q+{+h 0+_+M+7+{.a+q+{+e ] z.z l+c+c+g+c+M+l+9+6+h z.e b+M+e+f+}+f+c+k+b+z z 0+0+z {.h k+z+i+",
"I.$+|+a+b+0+6+5+0+'.a+a+q+e O+e 7+c+g+R+L+c+_+8+b+h K+e '.9+l+z z.!+h j+_+0+z {.z z z {.{.S+z+p+",
"O.$+!+h 5+z 7+6+{.a+a+a+q+e N+K+6+c+R+L+R+_+6+0+a+z.e a+5+M+6+'.e !+a+c+5+0+z z z z {.{.{.d+z+i+",
"O.@+~+{.6+{.0+6+0+a+K+q+{+z.z.a+8+c+L+k+M+e+{.q+e ] {+6+M+8+z {+N+!+K+b+b+0+z z z 0+z {.h k+z+D+",
"T+@+z.0+b+{.0+e+z {.a+q+a+{+K+'.9+g+L+R+5+h {+e ] f+7+c+_+0+'.{+^ ^ h 0+b+6+0+0+0+0+0+h '.P+u+D+",
"T+@+{+7+0+a+'.0+h {.z '.a+K+f+h 9+g+R+c+e+a+z.e e '._+c+e+z '.a+'.0+c+c+5+l+5+b+7+0+0+h h k+z+i+",
"T+@+{+b+z q+q+h h {.'.q+f+z.z.7+c+j+k+c+7+f+] ] f+7+M+5+0+z {.z 7+8+R+g+5+6+8+6+7+0+h a+h S+u+I+",
"P.@+]+6+0+a+a+{.0+7+h q+e ^ a+9+k+k+R+_+z z.] z.'.8+l+e+z z z 0+b+e+e+b+7+{.e+5+{.h h a+a+G H+U+",
"P.@+]+e+0+h '.0+e+e+{.q+e !+a+c+R+c+_+b+'.{+f+q+0+8+0+0+o o o o o o o o o o o o o o o o o m+h+F+",
"< 5 {+b+{.h '.0+5+6+0+a+z.N+q+g+c+l+5+0+'.q+{+a+0+b+0+0+o o o o o o o o o o o o o o o o o o u+p+",
"< 5 {+b+z {.'.z 5+6+0+a+f+e K+M+j+c+8+0+'.q+q+h 7+0+0+0+o o o o o o o o o o o o o o o o o V+A+W+",
"X+5 z.7+0+{.h '.7+0+h q+f+K+q+8+Y+L+9+0+'.a+a+{.b+z 0+0+o o o o o o o o o o o o o o o o o Z+C+n+",
"P.5 ~+{.0+z {.a+z h q+{+f+{+'.b+j+L+5+z '.a+a+h b+0+0+0+o o o o o o o o o o o o o o o o o `+z+i+",
"T+@+~+z 7+0+0+a+{.h K+a+{+a+0+5+M+M+7+h a+a+a+{.b+0+0+0+o o o o o o o o o o o o o o o o o d+z+D+",
"O.@+e 7+e+7+0+a+a+{.q+'.'.{.5+M+c+c+z f+q+a+h {.b+b+0+0+o o o o o o o o o o o o o o o o o d+u+i+",
"O.@+e 7+e+e+7+a+a+{.{+{+'.0+5+_+_+_+5+{.a+h h z b+b+0+0+o o o o o o o o o o o o o o o o o P+o+I+",
"O.@+f 7+b+b+e+0+a+a+z.] a+0+e+5+5+e+b+e+0+z 0+0+b+0+0+0+o o o o o o o o o o o o o o o o o L o+4+",
"O.$+{+0+z 0+5+7+a+f+e ] a+0+b+5+5+b+0+0+'.h 5+7+0+0+0+0+o o o o o o o o o o o o o o o o o G o+I+",
"T+@+].z {.0+5+z z.^ ] z.'.7+5+9+5+6+0+0+a+{+0+0+h 0+0+0+o o o o o o o o o o o o o o o o o G o+I+",
"T+@+ @z 0+6+b+q+O+!+N+{+0+5+M+c+_+5+7+0+h z.f+{.{.0+5+6+h 0+5+b+b+0+0+0+0+0+z {.{.a+q+{+{+J .@r+",
"X+4 e b+6+5+{.N++@!+z.{.5+M+g+L+c+8+7+{.h z.] {.5+e+5+e+{+a+e+b+0+z {.z z {.{.h q+f+f+{+q+G @@4+",
"-.#@{+:+$@]+[+%@;+|+e <+&@*@2+m+&@{.{+f z.~+|+e :+^+<+$@o G =@Y+S+P+k+d+d+S+S+L o G P+k+S+-@u+i+",
"H.[+3+;@A+>@u+@@o+>@,@'@)@)@)@)@'@!@,@~@~@~@~@,@!@'@!@~@x+x+>@>@{@{@>@>@>@{@{@{@x+{@>@>@>@]@^@i+",
"/@(@_@W+p+r+E+F+_@_@(@:@*+*+*+*+(@<@<@[@[@}@[@<@|@1@(@3+[@2@2@[@[@<@|@|@<@3+[@[@[@3+[@[@<@3@n+2@"};
