/* XPM */
static char * digmed_xpm[] = {
"110 16 4 1",
" 	c None",
".	c #000000",
"+	c #00FF00",
"@	c #004D00",
".+++++.+...@@@@@.+...+++++.+...+++++.+...@@@@@.+...+++++.@...+++++.@...+++++.+...+++++.+...+++++.+...@@@@@.@..",
"++++++.++.@@@@@@.++.++++++.++.++++++.++.@@@@@@.++.++++++.@@.++++++.@@.++++++.++.++++++.++.++++++.++.@@@@@@.@@.",
".......++........++........++........++........++........@@........@@........++........++........++........@@.",
"++.....++.@@.....++.@@.....++.@@.....++.++.....++.++.....@@.++.....@@.@@.....++.++.....++.++.....++.@@.....@@.",
"++.....++.@@.....++.@@.....++.@@.....++.++.....++.++.....@@.++.....@@.@@.....++.++.....++.++.....++.@@.....@@.",
"++.....++.@@.....++.@@.....++.@@.....++.++.....++.++.....@@.++.....@@.@@.....++.++.....++.++.....++.@@.....@@.",
"++.....++.@@.....++.@@.....++.@@.....++.++.....++.++.....@@.++.....@@.@@.....++.++.....++.++.....++.@@.....@@.",
"+..@@@..+.@..@@@..+.@..+++..+.@..+++..+.+..+++..+.+..+++..@.+..+++..@.@..@@@..+.+..+++..+.+..+++..+.@..@@@..@.",
"..@@@@@.....@@@@@.....+++++.....+++++.....+++++.....+++++.....+++++.....@@@@@.....+++++.....+++++.....@@@@@...",
"+.......+.@.......+.+.......@.@.......+.@.......+.@.......+.+.......+.@.......+.+.......+.@.......+.@.......@.",
"++.....++.@@.....++.++.....@@.@@.....++.@@.....++.@@.....++.++.....++.@@.....++.++.....++.@@.....++.@@.....@@.",
"++.....++.@@.....++.++.....@@.@@.....++.@@.....++.@@.....++.++.....++.@@.....++.++.....++.@@.....++.@@.....@@.",
"++.....++.@@.....++.++.....@@.@@.....++.@@.....++.@@.....++.++.....++.@@.....++.++.....++.@@.....++.@@.....@@.",
"++........@@........++........@@........@@........@@........++........@@........++........@@........@@........",
"++.++++++.@@.@@@@@@.++.++++++.@@.++++++.@@.@@@@@@.@@.++++++.++.++++++.@@.@@@@@@.++.++++++.@@.++++++.@@.@@@@@@.",
".+.+++++...@.@@@@@...+.+++++...@.+++++...@.@@@@@...@.+++++...+.+++++...@.@@@@@...+.+++++...@.+++++...@.@@@@@.."};
