/* XPM */
static char * digmed_xpm[] = {
"110 16 3 1",
" 	c None",
".	c #939897",
"+	c #000000",
".+++++++.........+...+++++++...+++++++.........+...++++++....++++++....+++++++...+++++++...+++++++............",
"+++++++++........++.+++++++++.+++++++++........++.+++++++...+++++++...+++++++++.+++++++++.+++++++++...........",
"++.....++........++........++........++.++.....++.++........++...............++.++.....++.++.....++...........",
"++.....++........++........++........++.++.....++.++........++...............++.++.....++.++.....++...........",
"++.....++........++........++........++.++.....++.++........++...............++.++.....++.++.....++...........",
"++.....++........++........++........++.++.....++.++........++...............++.++.....++.++.....++...........",
"++.....++........++........++........++.++.....++.++........++...............++.++.....++.++.....++...........",
"+.......+.........+...+++++.+...+++++.+.+.+++++.+.+.+++++...+.+++++...........+.+.+++++.+.+.+++++.+...........",
".....................+++++++...+++++++...+++++++...+++++++...+++++++.............+++++++...+++++++............",
"+.......+.........+.+.................+.........+.........+.+.......+.........+.+.......+.........+...........",
"++.....++........++.++...............++........++........++.++.....++........++.++.....++........++...........",
"++.....++........++.++...............++........++........++.++.....++........++.++.....++........++...........",
"++.....++........++.++...............++........++........++.++.....++........++.++.....++........++...........",
"++.....++........++.++...............++........++........++.++.....++........++.++.....++........++...........",
"+++++++++...........+++++++++...+++++++.............+++++++.+++++++++...........+++++++++...+++++++...........",
".+++++++.............+++++++....++++++..............++++++...+++++++.............+++++++....++++++............"};
