/* XPM */
static char * digsml_xpm[] = {
"66 11 3 1",
" 	c None",
".	c #939897",
"+	c #000000",
"..................................................................",
"..+++.........+++...+++.........+++...+++...+++...+++...+++.......",
".+...+...+.......+.....+.+...+.+.....+.........+.+...+.+...+......",
".+...+...+.......+.....+.+...+.+.....+.........+.+...+.+...+......",
".+...+...+.......+.....+.+...+.+.....+.........+.+...+.+...+......",
"..............+++...+++...+++...+++...+++.........+++...+++.......",
".+...+...+...+.........+.....+.....+.+...+.....+.+...+.....+......",
".+...+...+...+.........+.....+.....+.+...+.....+.+...+.....+......",
".+...+...+...+.........+.....+.....+.+...+.....+.+...+.....+......",
"..+++.........+++...+++.........+++...+++.........+++...+++.......",
".................................................................."};
