/* XPM */
static char * mailpics_xpm[] = {
"22 130 132 2",
"  	c None",
". 	c #2B0000",
"+ 	c #570000",
"@ 	c #580000",
"# 	c #590000",
"$ 	c #460000",
"% 	c #3D0000",
"& 	c #350000",
"* 	c #4D0000",
"= 	c #2F0000",
"- 	c #540000",
"; 	c #400000",
"> 	c #420000",
", 	c #1D0000",
"' 	c #4E0000",
") 	c #3C0000",
"! 	c #310000",
"~ 	c #4A0000",
"{ 	c #230000",
"] 	c #3B0000",
"^ 	c #520000",
"/ 	c #360000",
"( 	c #2A0000",
"_ 	c #220000",
": 	c #4F0000",
"< 	c #3E0000",
"[ 	c #7D0000",
"} 	c #7E0000",
"| 	c #7F0000",
"1 	c #640000",
"2 	c #4C0000",
"3 	c #6E0000",
"4 	c #430000",
"5 	c #770000",
"6 	c #5C0000",
"7 	c #5E0000",
"8 	c #6F0000",
"9 	c #560000",
"0 	c #790000",
"a 	c #6A0000",
"b 	c #320000",
"c 	c #750000",
"d 	c #760000",
"e 	c #700000",
"f 	c #680000",
"g 	c #D30000",
"h 	c #D50000",
"i 	c #A80000",
"j 	c #930000",
"k 	c #D60000",
"l 	c #810000",
"m 	c #BA0000",
"n 	c #710000",
"o 	c #CA0000",
"p 	c #9C0000",
"q 	c #9F0000",
"r 	c #470000",
"s 	c #BC0000",
"t 	c #920000",
"u 	c #CC0000",
"v 	c #B40000",
"w 	c #8E0000",
"x 	c #C60000",
"y 	c #820000",
"z 	c #650000",
"A 	c #530000",
"B 	c #C70000",
"C 	c #BE0000",
"D 	c #7C0000",
"E 	c #FB0000",
"F 	c #FF0000",
"G 	c #C90000",
"H 	c #AF0000",
"I 	c #FE0000",
"J 	c #990000",
"K 	c #DE0000",
"L 	c #870000",
"M 	c #F00000",
"N 	c #E00000",
"O 	c #AE0000",
"P 	c #8D0000",
"Q 	c #F30000",
"R 	c #A90000",
"S 	c #EC0000",
"T 	c #9B0000",
"U 	c #780000",
"V 	c #630000",
"W 	c #ED0000",
"X 	c #E20000",
"Y 	c #A70000",
"Z 	c #860000",
"` 	c #740000",
" .	c #AA0000",
"..	c #660000",
"+.	c #940000",
"@.	c #5A0000",
"#.	c #A00000",
"$.	c #380000",
"%.	c #950000",
"&.	c #A20000",
"*.	c #8F0000",
"=.	c #9D0000",
"-.	c #670000",
";.	c #500000",
">.	c #9E0000",
",.	c #970000",
"'.	c #7C7C7C",
").	c #FBFBFB",
"!.	c #FFFFFF",
"~.	c #C9C9C9",
"{.	c #AFAFAF",
"].	c #FEFEFE",
"^.	c #999999",
"/.	c #DEDEDE",
"(.	c #878787",
"_.	c #F0F0F0",
":.	c #BABABA",
"<.	c #BEBEBE",
"[.	c #545454",
"}.	c #E0E0E0",
"|.	c #AEAEAE",
"1.	c #8D8D8D",
"2.	c #F3F3F3",
"3.	c #D6D6D6",
"4.	c #656565",
"5.	c #A9A9A9",
"6.	c #ECECEC",
"7.	c #9B9B9B",
"8.	c #787878",
"9.	c #636363",
"0.	c #EDEDED",
"a.	c #E2E2E2",
". + @ @ @ # # # # # # # # # # # # # @ @ + . ",
"$ % # @ @ # # # # # # # # # # # # # @ @ % $ ",
"@ & * @ @ # # # # # # # # # # # # # @ * & @ ",
"@ # = - @ # # # # # # # # # # # # # - = @ @ ",
"@ # * & @ # # # # # # # # # # # # # & * @ @ ",
"@ @ # ; > # # # # # # # # # # # # > ; @ @ @ ",
"# @ @ @ , ' # # # # # # # # # # ' , @ @ @ @ ",
"@ # # ; ) ! - # # # # # # # # - ! ) ; @ @ @ ",
"# @ * & @ ~ { ] * # # # # * ] { ~ # & * @ @ ",
"@ @ = - @ # ^ / ( _ _ _ _ ( / ^ # # - = @ @ ",
"# & * @ @ # # # ^ : : : : ^ # # # # @ * & @ ",
"$ % @ @ @ # # # # # # # # # # # # # @ @ % $ ",
". + @ @ @ # # # # # # # # # # # # # @ @ + . ",
"< [ } | } | | | | | | | | | | | | | } } [ < ",
"1 + } | } | | | | | | | | | | | | | } } + 1 ",
"} 2 3 | | | | | | | | | | | | | | | } 3 2 } ",
"} } 4 5 } | | | | | | | | | | | | | 5 4 } } ",
"} } 3 2 } | | | | | | | | | | | | | 2 3 } } ",
"} } } 6 7 | | | | | | | | | | | | 7 6 } } } ",
"} } } } ( 8 | | | | | | | | | | 8 ( } } } } ",
"} } } 6 9 $ 0 | | | | | | | | 0 $ 9 6 } } } ",
"} } 3 2 | a b - 3 | | | | 3 - b a | 2 3 } } ",
"} | 4 5 } | c * ) ! ! ! ! ) * c | | 5 4 } } ",
"} 2 3 | } | | | d e e e e d | | | | } 3 2 } ",
"1 + } | | | | | | | | | | | | | | | } } + 1 ",
"< [ } } } | | | | | | | | | | | | | } } [ < ",
"f g h h h h h h h h h h h h h h h h h h g f ",
"i j k k k k k k k k k k k k k k k k h h j i ",
"k l m k k k k k k k k k k k k k k k h m l h ",
"k k n o k k k k k k k k k k k k k k o n h h ",
"k k m l k k k k k k k k k k k k k k l m h h ",
"k k h p q k k k k k k k k k k k k q p h h h ",
"k k k k r s k k k k k k k k k k s r h h h h ",
"k k h p t d u k k k k k k k k u d t p h h h ",
"k k m l k v - w m k k k k m w - v k l m h h ",
"k k n o k k x y z A A A A z y x k k o n h h ",
"k l m k k k k k B C C C C B k k k k h m l h ",
"i j k k k k k k k k k k k k k k k k h h j i ",
"f g k h k k k k k k k k k k k k k k h h g f ",
"D E F F F F F F F F F F F F F F F F F F E D ",
"G H I I F F F F F F F F F F F F F F I I H G ",
"I J K F F F F F F F F F F F F F F F I K J I ",
"F F L M F F F F F F F F F F F F F F M L I I ",
"F I K J F F F F F F F F F F F F F F J K I I ",
"I F F m C F F F F F F F F F F F F C m I I I ",
"F F F F - N F F F F F F F F F F N - I I I I ",
"F I F m O P Q F F F F F F F F Q P O m I I I ",
"I F K J I k z R K F F F F K R z k F J K I I ",
"F F L M F F S T U V V V V U T S F F M L I I ",
"F J K F I F F F W X X X X W F F F F I K J I ",
"G H F I F F F F F F F F F F F F F F I I H G ",
"D E F F F F F F F F F F F F F F F F I I E D ",
"D E I I I F F F F F F F F F F F F F I I E D ",
"G H F I I F F F F F F F F F F F F F I I H G ",
"F J K F F F F F F F F F F F F F F F I K J I ",
"I F L M F F F F F F F F F F F F F F M L I I ",
"I F K J I F F F F F F F F F F F F F J K I I ",
"F I I m C F F F F F F F F F F F F C m I I I ",
"F I I F - N F F F F F F F F F F N - I I I I ",
"F I I m O P Q F F F F F F F F Q P O m I I I ",
"I I K J I k z R K F F F F K R z k F J K I I ",
"I F L M F F S T U V V V V U T S F F M L I I ",
"F J K I F F F F W X X X X W F F F F I K J I ",
"G H F F F F F F F F F F F F F F F F I I H G ",
"D E I F I F F F F F F F F F F F F F I I E D ",
"f g h h h h h h h h h h h h h h h h h h g f ",
"i j k k k k k k k k k k k k k k k k h h j i ",
"k l m k k k k k k k k k k k k k k k h m l h ",
"k k n o k k k k k k k k k k k k k k o n h h ",
"k k m l k k k k k k k k k k k k k k l m h h ",
"k k h p q k k k k k k k k k k k k q p h h h ",
"k k k k r s k k k k k k k k k k s r h h h h ",
"k k k p t d u k k k k k k k k u d t p h h h ",
"k k m l k v - w m k k k k m w - v k l m h h ",
"k k n o k k x y z A A A A z y x k k o n h h ",
"k l m h k k k k B C C C C B k k k k h m l h ",
"i j k h k k k k k k k k k k k k k k h h j i ",
"f g k k k k k k k k k k k k k k k k h h g f ",
"A Y R R R R R R R R R R R R R R R R R R Y A ",
"Z `  .R  . . . . . . . . . . . . . .R R ` Z ",
" ...+. . . . . . . . . . . . . . . .R +...R ",
" .R @.#. . . . . . . . . . . . . . .#.@.R R ",
" . .+...R  . . . . . . . . . . . . ...+.R R ",
" . . .D }  . . . . . . . . . . . .} D R R R ",
"R  .R  .$.%. . . . . . . . . . .%.$.R R R R ",
" . . .D ` 7 &. . . . . . . . .&.7 ` D R R R ",
" . .+... .*.4 n +. . . . .+.n 4 *. ...+.R R ",
" . .@.#.R  .=.-.;.> > > > ;.-.=. . .#.@.R R ",
" ...+. .R  . . .>.,.,.,.,.>. . . . .R +...R ",
"Z `  . . . . . . . . . . . . . . . .R R ` Z ",
"A Y  . . . . . . . . . . . . . . . .R R Y A ",
"< [ } } } } } } } } } } } } } } } } } } [ < ",
"1 + } | } | | | | | | | | | | | | | } } + 1 ",
"| 2 3 | | | | | | | | | | | | | | | } 3 2 } ",
"} } 4 5 | | | | | | | | | | | | | | 5 4 } } ",
"} } 3 2 | | | | | | | | | | | | | | 2 3 } } ",
"} } } 6 7 | | | | | | | | | | | | 7 6 } } } ",
"} } } | ( 8 | | | | | | | | | | 8 ( } } } } ",
"} } } 6 9 $ 0 | | | | | | | | 0 $ 9 6 } } } ",
"| | 3 2 | a b - 3 | | | | 3 - b a | 2 3 } } ",
"} } 4 5 | | c * ) ! ! ! ! ) * c | | 5 4 } } ",
"} 2 3 | | | | | d e e e e d | | | | } 3 2 } ",
"1 + } } | | | | | | | | | | | | | | } } + 1 ",
"< [ } } | | | | | | | | | | | | | | } } [ < ",
". + @ @ @ @ @ @ @ @ @ @ @ @ @ @ @ @ @ @ + . ",
"$ % @ # # # # # # # # # # # # # # # @ @ % $ ",
"@ & * @ @ # # # # # # # # # # # # # @ * & @ ",
"@ @ = - # # # # # # # # # # # # # # - = @ @ ",
"@ # * & @ # # # # # # # # # # # # # & * @ @ ",
"@ @ # ; > # # # # # # # # # # # # > ; @ @ @ ",
"@ @ @ @ , ' # # # # # # # # # # ' , @ @ @ @ ",
"@ # @ ; ) ! - # # # # # # # # - ! ) ; @ @ @ ",
"# @ * & @ ~ { ] * # # # # * ] { ~ # & * @ @ ",
"# # = - # # ^ / ( _ _ _ _ ( / ^ # # - = @ @ ",
"@ & * @ # # # # ^ : : : : ^ # # # # @ * & @ ",
"$ % # # @ # # # # # # # # # # # # # @ @ % $ ",
". + @ # # # # # # # # # # # # # # # @ @ + . ",
"'.).!.!.!.!.!.!.!.!.!.!.!.!.!.!.!.!.!.!.).'.",
"~.{.!.!.!.!.!.!.!.!.!.!.!.!.!.!.!.!.].].{.~.",
"].^./.!.!.!.!.!.!.!.!.!.!.!.!.!.!.!.]./.^.].",
"!.!.(._.].!.!.!.!.!.!.!.!.!.!.!.!.!._.(.].].",
"!.!./.^.!.!.!.!.!.!.!.!.!.!.!.!.!.!.^./.].].",
"!.].!.:.<.!.!.!.!.!.!.!.!.!.!.!.!.<.:.].].].",
"].!.!.].[.}.!.!.!.!.!.!.!.!.!.!.}.[.].].].].",
"!.].!.:.|.1.2.!.!.!.!.!.!.!.!.2.1.|.:.].].].",
"!.!./.^.!.3.4.5./.!.!.!.!./.5.4.3.!.^./.].].",
"!.!.(._.!.!.6.7.8.9.9.9.9.8.7.6.!.!._.(.].].",
"!.^./.!.!.!.!.!.0.a.a.a.a.0.!.!.!.!.]./.^.].",
"~.{.!.!.!.!.!.!.!.!.!.!.!.!.!.!.!.!.].].{.~.",
"'.).!.!.].!.!.!.!.!.!.!.!.!.!.!.!.!.].].).'."};
