/* XPM */
static char * mailpics_xpm[] = {
"42 180 8 1",
" 	c None",
".	c #000000",
"+	c #590000",
"@	c #7F0000",
"#	c #D60000",
"$	c #FF0000",
"%	c #AA0000",
"&	c #FFFFFF",
".++++++++++++++++++++++++++++++++++++++++.",
"+.++++++++++++++++++++++++++++++++++++++.+",
"++.++++++++++++++++++++++++++++++++++++.++",
"+++.++++++++++++++++++++++++++++++++++.+++",
"++++.++++++++++++++++++++++++++++++++.++++",
"+++++.++++++++++++++++++++++++++++++.+++++",
"++++++.++++++++++++++++++++++++++++.++++++",
"+++++++.++++++++++++++++++++++++++.+++++++",
"++++++++.++++++++++++++++++++++++.++++++++",
"++++++++..++++++++++++++++++++++..++++++++",
"+++++++.++.++++++++++++++++++++.++.+++++++",
"++++++.++++..++++++++++++++++..++++.++++++",
"+++++.+++++++...++++++++++...+++++++.+++++",
"++++.+++++++++++..........+++++++++++.++++",
"+++.++++++++++++++++++++++++++++++++++.+++",
"++.++++++++++++++++++++++++++++++++++++.++",
"+.++++++++++++++++++++++++++++++++++++++.+",
".++++++++++++++++++++++++++++++++++++++++.",
".@@@@@@@@@@@@@@@@@@@@@@@@@@@@@@@@@@@@@@@@.",
"@.@@@@@@@@@@@@@@@@@@@@@@@@@@@@@@@@@@@@@@.@",
"@@.@@@@@@@@@@@@@@@@@@@@@@@@@@@@@@@@@@@@.@@",
"@@@.@@@@@@@@@@@@@@@@@@@@@@@@@@@@@@@@@@.@@@",
"@@@@.@@@@@@@@@@@@@@@@@@@@@@@@@@@@@@@@.@@@@",
"@@@@@.@@@@@@@@@@@@@@@@@@@@@@@@@@@@@@.@@@@@",
"@@@@@@.@@@@@@@@@@@@@@@@@@@@@@@@@@@@.@@@@@@",
"@@@@@@@.@@@@@@@@@@@@@@@@@@@@@@@@@@.@@@@@@@",
"@@@@@@@@.@@@@@@@@@@@@@@@@@@@@@@@@.@@@@@@@@",
"@@@@@@@@..@@@@@@@@@@@@@@@@@@@@@@..@@@@@@@@",
"@@@@@@@.@@.@@@@@@@@@@@@@@@@@@@@.@@.@@@@@@@",
"@@@@@@.@@@@..@@@@@@@@@@@@@@@@..@@@@.@@@@@@",
"@@@@@.@@@@@@@...@@@@@@@@@@...@@@@@@@.@@@@@",
"@@@@.@@@@@@@@@@@..........@@@@@@@@@@@.@@@@",
"@@@.@@@@@@@@@@@@@@@@@@@@@@@@@@@@@@@@@@.@@@",
"@@.@@@@@@@@@@@@@@@@@@@@@@@@@@@@@@@@@@@@.@@",
"@.@@@@@@@@@@@@@@@@@@@@@@@@@@@@@@@@@@@@@@.@",
".@@@@@@@@@@@@@@@@@@@@@@@@@@@@@@@@@@@@@@@@.",
".########################################.",
"#.######################################.#",
"##.####################################.##",
"###.##################################.###",
"####.################################.####",
"#####.##############################.#####",
"######.############################.######",
"#######.##########################.#######",
"########.########################.########",
"########..######################..########",
"#######.##.####################.##.#######",
"######.####..################..####.######",
"#####.#######...##########...#######.#####",
"####.###########..........###########.####",
"###.##################################.###",
"##.####################################.##",
"#.######################################.#",
".########################################.",
".$$$$$$$$$$$$$$$$$$$$$$$$$$$$$$$$$$$$$$$$.",
"$.$$$$$$$$$$$$$$$$$$$$$$$$$$$$$$$$$$$$$$.$",
"$$.$$$$$$$$$$$$$$$$$$$$$$$$$$$$$$$$$$$$.$$",
"$$$.$$$$$$$$$$$$$$$$$$$$$$$$$$$$$$$$$$.$$$",
"$$$$.$$$$$$$$$$$$$$$$$$$$$$$$$$$$$$$$.$$$$",
"$$$$$.$$$$$$$$$$$$$$$$$$$$$$$$$$$$$$.$$$$$",
"$$$$$$.$$$$$$$$$$$$$$$$$$$$$$$$$$$$.$$$$$$",
"$$$$$$$.$$$$$$$$$$$$$$$$$$$$$$$$$$.$$$$$$$",
"$$$$$$$$.$$$$$$$$$$$$$$$$$$$$$$$$.$$$$$$$$",
"$$$$$$$$..$$$$$$$$$$$$$$$$$$$$$$..$$$$$$$$",
"$$$$$$$.$$.$$$$$$$$$$$$$$$$$$$$.$$.$$$$$$$",
"$$$$$$.$$$$..$$$$$$$$$$$$$$$$..$$$$.$$$$$$",
"$$$$$.$$$$$$$...$$$$$$$$$$...$$$$$$$.$$$$$",
"$$$$.$$$$$$$$$$$..........$$$$$$$$$$$.$$$$",
"$$$.$$$$$$$$$$$$$$$$$$$$$$$$$$$$$$$$$$.$$$",
"$$.$$$$$$$$$$$$$$$$$$$$$$$$$$$$$$$$$$$$.$$",
"$.$$$$$$$$$$$$$$$$$$$$$$$$$$$$$$$$$$$$$$.$",
".$$$$$$$$$$$$$$$$$$$$$$$$$$$$$$$$$$$$$$$$.",
".$$$$$$$$$$$$$$$$$$$$$$$$$$$$$$$$$$$$$$$$.",
"$.$$$$$$$$$$$$$$$$$$$$$$$$$$$$$$$$$$$$$$.$",
"$$.$$$$$$$$$$$$$$$$$$$$$$$$$$$$$$$$$$$$.$$",
"$$$.$$$$$$$$$$$$$$$$$$$$$$$$$$$$$$$$$$.$$$",
"$$$$.$$$$$$$$$$$$$$$$$$$$$$$$$$$$$$$$.$$$$",
"$$$$$.$$$$$$$$$$$$$$$$$$$$$$$$$$$$$$.$$$$$",
"$$$$$$.$$$$$$$$$$$$$$$$$$$$$$$$$$$$.$$$$$$",
"$$$$$$$.$$$$$$$$$$$$$$$$$$$$$$$$$$.$$$$$$$",
"$$$$$$$$.$$$$$$$$$$$$$$$$$$$$$$$$.$$$$$$$$",
"$$$$$$$$..$$$$$$$$$$$$$$$$$$$$$$..$$$$$$$$",
"$$$$$$$.$$.$$$$$$$$$$$$$$$$$$$$.$$.$$$$$$$",
"$$$$$$.$$$$..$$$$$$$$$$$$$$$$..$$$$.$$$$$$",
"$$$$$.$$$$$$$...$$$$$$$$$$...$$$$$$$.$$$$$",
"$$$$.$$$$$$$$$$$..........$$$$$$$$$$$.$$$$",
"$$$.$$$$$$$$$$$$$$$$$$$$$$$$$$$$$$$$$$.$$$",
"$$.$$$$$$$$$$$$$$$$$$$$$$$$$$$$$$$$$$$$.$$",
"$.$$$$$$$$$$$$$$$$$$$$$$$$$$$$$$$$$$$$$$.$",
".$$$$$$$$$$$$$$$$$$$$$$$$$$$$$$$$$$$$$$$$.",
".########################################.",
"#.######################################.#",
"##.####################################.##",
"###.##################################.###",
"####.################################.####",
"#####.##############################.#####",
"######.############################.######",
"#######.##########################.#######",
"########.########################.########",
"########..######################..########",
"#######.##.####################.##.#######",
"######.####..################..####.######",
"#####.#######...##########...#######.#####",
"####.###########..........###########.####",
"###.##################################.###",
"##.####################################.##",
"#.######################################.#",
".########################################.",
".%%%%%%%%%%%%%%%%%%%%%%%%%%%%%%%%%%%%%%%%.",
"%.%%%%%%%%%%%%%%%%%%%%%%%%%%%%%%%%%%%%%%.%",
"%%.%%%%%%%%%%%%%%%%%%%%%%%%%%%%%%%%%%%%.%%",
"%%%.%%%%%%%%%%%%%%%%%%%%%%%%%%%%%%%%%%.%%%",
"%%%%.%%%%%%%%%%%%%%%%%%%%%%%%%%%%%%%%.%%%%",
"%%%%%.%%%%%%%%%%%%%%%%%%%%%%%%%%%%%%.%%%%%",
"%%%%%%.%%%%%%%%%%%%%%%%%%%%%%%%%%%%.%%%%%%",
"%%%%%%%.%%%%%%%%%%%%%%%%%%%%%%%%%%.%%%%%%%",
"%%%%%%%%.%%%%%%%%%%%%%%%%%%%%%%%%.%%%%%%%%",
"%%%%%%%%..%%%%%%%%%%%%%%%%%%%%%%..%%%%%%%%",
"%%%%%%%.%%.%%%%%%%%%%%%%%%%%%%%.%%.%%%%%%%",
"%%%%%%.%%%%..%%%%%%%%%%%%%%%%..%%%%.%%%%%%",
"%%%%%.%%%%%%%...%%%%%%%%%%...%%%%%%%.%%%%%",
"%%%%.%%%%%%%%%%%..........%%%%%%%%%%%.%%%%",
"%%%.%%%%%%%%%%%%%%%%%%%%%%%%%%%%%%%%%%.%%%",
"%%.%%%%%%%%%%%%%%%%%%%%%%%%%%%%%%%%%%%%.%%",
"%.%%%%%%%%%%%%%%%%%%%%%%%%%%%%%%%%%%%%%%.%",
".%%%%%%%%%%%%%%%%%%%%%%%%%%%%%%%%%%%%%%%%.",
".@@@@@@@@@@@@@@@@@@@@@@@@@@@@@@@@@@@@@@@@.",
"@.@@@@@@@@@@@@@@@@@@@@@@@@@@@@@@@@@@@@@@.@",
"@@.@@@@@@@@@@@@@@@@@@@@@@@@@@@@@@@@@@@@.@@",
"@@@.@@@@@@@@@@@@@@@@@@@@@@@@@@@@@@@@@@.@@@",
"@@@@.@@@@@@@@@@@@@@@@@@@@@@@@@@@@@@@@.@@@@",
"@@@@@.@@@@@@@@@@@@@@@@@@@@@@@@@@@@@@.@@@@@",
"@@@@@@.@@@@@@@@@@@@@@@@@@@@@@@@@@@@.@@@@@@",
"@@@@@@@.@@@@@@@@@@@@@@@@@@@@@@@@@@.@@@@@@@",
"@@@@@@@@.@@@@@@@@@@@@@@@@@@@@@@@@.@@@@@@@@",
"@@@@@@@@..@@@@@@@@@@@@@@@@@@@@@@..@@@@@@@@",
"@@@@@@@.@@.@@@@@@@@@@@@@@@@@@@@.@@.@@@@@@@",
"@@@@@@.@@@@..@@@@@@@@@@@@@@@@..@@@@.@@@@@@",
"@@@@@.@@@@@@@...@@@@@@@@@@...@@@@@@@.@@@@@",
"@@@@.@@@@@@@@@@@..........@@@@@@@@@@@.@@@@",
"@@@.@@@@@@@@@@@@@@@@@@@@@@@@@@@@@@@@@@.@@@",
"@@.@@@@@@@@@@@@@@@@@@@@@@@@@@@@@@@@@@@@.@@",
"@.@@@@@@@@@@@@@@@@@@@@@@@@@@@@@@@@@@@@@@.@",
".@@@@@@@@@@@@@@@@@@@@@@@@@@@@@@@@@@@@@@@@.",
".++++++++++++++++++++++++++++++++++++++++.",
"+.++++++++++++++++++++++++++++++++++++++.+",
"++.++++++++++++++++++++++++++++++++++++.++",
"+++.++++++++++++++++++++++++++++++++++.+++",
"++++.++++++++++++++++++++++++++++++++.++++",
"+++++.++++++++++++++++++++++++++++++.+++++",
"++++++.++++++++++++++++++++++++++++.++++++",
"+++++++.++++++++++++++++++++++++++.+++++++",
"++++++++.++++++++++++++++++++++++.++++++++",
"++++++++..++++++++++++++++++++++..++++++++",
"+++++++.++.++++++++++++++++++++.++.+++++++",
"++++++.++++..++++++++++++++++..++++.++++++",
"+++++.+++++++...++++++++++...+++++++.+++++",
"++++.+++++++++++..........+++++++++++.++++",
"+++.++++++++++++++++++++++++++++++++++.+++",
"++.++++++++++++++++++++++++++++++++++++.++",
"+.++++++++++++++++++++++++++++++++++++++.+",
".++++++++++++++++++++++++++++++++++++++++.",
".&&&&&&&&&&&&&&&&&&&&&&&&&&&&&&&&&&&&&&&&.",
"&.&&&&&&&&&&&&&&&&&&&&&&&&&&&&&&&&&&&&&&.&",
"&&.&&&&&&&&&&&&&&&&&&&&&&&&&&&&&&&&&&&&.&&",
"&&&.&&&&&&&&&&&&&&&&&&&&&&&&&&&&&&&&&&.&&&",
"&&&&.&&&&&&&&&&&&&&&&&&&&&&&&&&&&&&&&.&&&&",
"&&&&&.&&&&&&&&&&&&&&&&&&&&&&&&&&&&&&.&&&&&",
"&&&&&&.&&&&&&&&&&&&&&&&&&&&&&&&&&&&.&&&&&&",
"&&&&&&&.&&&&&&&&&&&&&&&&&&&&&&&&&&.&&&&&&&",
"&&&&&&&&.&&&&&&&&&&&&&&&&&&&&&&&&.&&&&&&&&",
"&&&&&&&&..&&&&&&&&&&&&&&&&&&&&&&..&&&&&&&&",
"&&&&&&&.&&.&&&&&&&&&&&&&&&&&&&&.&&.&&&&&&&",
"&&&&&&.&&&&..&&&&&&&&&&&&&&&&..&&&&.&&&&&&",
"&&&&&.&&&&&&&...&&&&&&&&&&...&&&&&&&.&&&&&",
"&&&&.&&&&&&&&&&&..........&&&&&&&&&&&.&&&&",
"&&&.&&&&&&&&&&&&&&&&&&&&&&&&&&&&&&&&&&.&&&",
"&&.&&&&&&&&&&&&&&&&&&&&&&&&&&&&&&&&&&&&.&&",
"&.&&&&&&&&&&&&&&&&&&&&&&&&&&&&&&&&&&&&&&.&",
".&&&&&&&&&&&&&&&&&&&&&&&&&&&&&&&&&&&&&&&&."};
