/* XPM */
static char * netwatch_modem_down_xpm[] = {
"22 44 75 1",
" 	c None",
".	c #B6DAA28971C6",
"X	c #DF7DC71B8E38",
"o	c #D75CC71B8E38",
"O	c #CF3CBAEA8617",
"+	c #D75CC30B8E38",
"@	c #C71BB2CA8617",
"#	c #AEBA9A6969A6",
"$	c #D75CBEFB8E38",
"%	c #A6999A6969A6",
"&	c #8E387DF75965",
"*	c #BEFBAEBA79E7",
"=	c #082008200000",
"-	c #000000000000",
";	c #5144492430C2",
":	c #79E76DB65144",
">	c #082000000000",
",	c #AEBA9E7971C6",
"<	c #AEBA9A6971C6",
"1	c #A699965869A6",
"2	c #C71BB6DA8617",
"3	c #C71BAEBA79E7",
"4	c #CF3CBEFB8E38",
"5	c #51444D3438E3",
"6	c #965886176185",
"7	c #61855D754103",
"8	c #104000000000",
"9	c #000004100000",
"0	c #618559654103",
"q	c #186104100000",
"w	c #4924451430C2",
"e	c #30C230C22081",
"r	c #30C22CB22081",
"t	c #186114511040",
"y	c #082008200820",
"u	c #08200C300820",
"i	c #28A224921861",
"p	c #79E771C65144",
"a	c #104010400820",
"s	c #30C208200820",
"d	c #28A228A21861",
"f	c #5965555538E3",
"g	c #CF3CB6DA8617",
"h	c #38E338E328A2",
"j	c #96588A286185",
"k	c #41033CF328A2",
"l	c #28A20C300820",
"z	c #A6999A6979E7",
"x	c #96588E3879E7",
"c	c #AEBA9E798617",
"v	c #BEFBB6DAB6DA",
"b	c #9E79965879E7",
"n	c #965892489658",
"m	c #A699A699A699",
"M	c #A6999A698617",
"N	c #BEFBA69979E7",
"B	c #AEBA9E7979E7",
"V	c #965896589658",
"C	c #A699A289A699",
"Z	c #9E7996588617",
"A	c #B6DAA6998617",
"S	c #BEFBBAEABEFB",
"D	c #B6DAB2CAB6DA",
"F	c #C71BC71BC71B",
"G	c #A699965871C6",
"H	c #A6999E798617",
"J	c #B6DAB6DAB6DA",
"K	c #9658924879E7",
"L	c #CF3CBAEA8E38",
"P	c #BEFBBEFBBEFB",
"I	c #C71BBEFBBEFB",
"U	c #9E79924879E7",
"Y	c #B6DAAAAA8E38",
"T	c #8E38861771C6",
"R	c #9E798A286185",
"                      ",
"                      ",
"                      ",
"    .XXXXoooooooO     ",
"    +XXXXoooooooo@    ",
"    XXo.#$%&&&.+oo    ",
"    XX*=-------;+o:   ",
"    XX#---->----,o    ",
"    XX<---------1o    ",
"    XX.---------2o    ",
"    XX3=--------4o    ",
"    XXo5--------4o6   ",
"    Xoo7--8-----4o<   ",
"    XXX7--->---9$o<   ",
"    XXX0--qq>---4o<   ",
"    XXX7--------4o<   ",
"    XXow--------4o<   ",
"    XXXe--------4o<   ",
"    XXXr-------9$o<   ",
"    XXXr--------4o6   ",
"    oXor-------94o:   ",
"    XX$t-------y$o:   ",
"    XXOu-------ioop   ",
"    XX$a----s--doo2   ",
"    XXoe-------dooo   ",
"    XXXf-------dooo   ",
"   gXXX7--q----hooo   ",
"   XXXXj----->-jooo   ",
"   @ooXo1kl--i:oooo   ",
"    XXXXXg@@goooooo   ",
"    XXXXXzx+ooooooo   ",
"    XXXXXcvb4oooooo   ",
"   %XXXXXcnmM2ooooN   ",
"   <XXXooBVVCZ$ooo:   ",
"   <XXXooASmDFGooo:   ",
"   <XXXooHJCVKLooo:   ",
"   1XXXXXzFPZ4oooo:   ",
"    XXXXXAIU+ooooo    ",
"    XXXoXYT+oooooo    ",
"    4XXoX++ooooooo    ",
"     XXoXoooooooo$    ",
"          RRRR6       ",
"                      ",
"                      "};
