/* XPM */
static char * netwatch_modem_up_xpm[] = {
"22 44 100 2",
"  	c None",
". 	c #B6DAA28971C6",
"X 	c #DF7DC71B8E38",
"o 	c #D75CC71B8E38",
"O 	c #CF3CBAEA8617",
"+ 	c #D75CC30B8E38",
"@ 	c #C71BB2CA8617",
"# 	c #AEBA9A6969A6",
"$ 	c #D75CBEFB8E38",
"% 	c #A6999A6969A6",
"& 	c #8E387DF75965",
"* 	c #BEFBAEBA79E7",
"= 	c #082008200000",
"- 	c #000000000000",
"; 	c #104014510820",
": 	c #71C618611861",
"> 	c #B6DA24922081",
", 	c #28A208200820",
"< 	c #5144492430C2",
"1 	c #79E76DB65144",
"2 	c #C71B28A228A2",
"3 	c #DF7D2CB228A2",
"4 	c #69A614511040",
"5 	c #AEBA9E7971C6",
"6 	c #AEBA9A6971C6",
"7 	c #49240C300820",
"8 	c #861718611861",
"9 	c #186104100000",
"0 	c #A699965869A6",
"q 	c #104004100000",
"w 	c #514410401040",
"e 	c #C71BB6DA8617",
"r 	c #C71BAEBA79E7",
"t 	c #96581C711861",
"y 	c #9E791C711861",
"u 	c #CF3CBEFB8E38",
"i 	c #51444D3438E3",
"p 	c #D75C2CB228A2",
"a 	c #71C614511040",
"s 	c #965886176185",
"d 	c #61855D754103",
"f 	c #082000000000",
"g 	c #C71B24922081",
"h 	c #618514511040",
"j 	c #000004100000",
"k 	c #618559654103",
"l 	c #CF3C28A228A2",
"z 	c #41030C300820",
"x 	c #4924451430C2",
"c 	c #30C230C22081",
"v 	c #30C22CB22081",
"b 	c #186114511040",
"n 	c #082008200820",
"m 	c #08200C300820",
"M 	c #28A224921861",
"N 	c #79E771C65144",
"B 	c #104010400820",
"V 	c #30C208200820",
"C 	c #28A228A21861",
"Z 	c #9E7920812081",
"A 	c #A69920812081",
"S 	c #5965555538E3",
"D 	c #492410401040",
"F 	c #CF3CB6DA8617",
"G 	c #8E381C711861",
"H 	c #596510401040",
"J 	c #38E338E328A2",
"K 	c #96588A286185",
"L 	c #41033CF328A2",
"P 	c #28A20C300820",
"I 	c #AEBA24922081",
"U 	c #79E71C711861",
"Y 	c #A6999A6979E7",
"T 	c #96588E3879E7",
"R 	c #AEBA9E798617",
"E 	c #BEFBB6DAB6DA",
"W 	c #9E79965879E7",
"Q 	c #965892489658",
"! 	c #A699A699A699",
"~ 	c #A6999A698617",
"^ 	c #BEFBA69979E7",
"/ 	c #AEBA9E7979E7",
"( 	c #965896589658",
") 	c #A699A289A699",
"_ 	c #9E7996588617",
"` 	c #B6DAA6998617",
"' 	c #BEFBBAEABEFB",
"] 	c #B6DAB2CAB6DA",
"[ 	c #C71BC71BC71B",
"{ 	c #A699965871C6",
"} 	c #A6999E798617",
"| 	c #B6DAB6DAB6DA",
" .	c #9658924879E7",
"..	c #CF3CBAEA8E38",
"X.	c #BEFBBEFBBEFB",
"o.	c #C71BBEFBBEFB",
"O.	c #9E79924879E7",
"+.	c #B6DAAAAA8E38",
"@.	c #8E38861771C6",
"#.	c #9E798A286185",
"                                            ",
"                                            ",
"                                            ",
"        . X X X X o o o o o o o O           ",
"        + X X X X o o o o o o o o @         ",
"        X X o . # $ % & & & . + o o         ",
"        X X * = - ; : > , - - < + o 1       ",
"        X X # - - - 2 3 4 - - - 5 o         ",
"        X X 6 - - - 7 8 9 - - - 0 o         ",
"        X X . - - - q w 9 - - - e o         ",
"        X X r = - - t 3 y - - - u o         ",
"        X X o i - - 4 p a - - - u o s       ",
"        X o o d - - , 4 f - - - u o 6       ",
"        X X X d - - g 3 h - - j $ o 6       ",
"        X X X k - - t l z - - - u o 6       ",
"        X X X d - - - f - - - - u o 6       ",
"        X X o x - - - - - - - - u o 6       ",
"        X X X c - - - - - - - - u o 6       ",
"        X X X v - - - - - - - j $ o 6       ",
"        X X X v - - - - - - - - u o s       ",
"        o X o v - - - - - - - j u o 1       ",
"        X X $ b - - - - - - - n $ o 1       ",
"        X X O m - - - - - - - M o o N       ",
"        X X $ B - - V t V - - C o o e       ",
"        X X o c - - Z 3 A - - C o o o       ",
"        X X X S - - 7 > D - - C o o o       ",
"      F X X X d - - 9 G H - - J o o o       ",
"      X X X X K - - 4 3 l f - K o o o       ",
"      @ o o X o 0 L P I U M 1 o o o o       ",
"        X X X X X F @ @ F o o o o o o       ",
"        X X X X X Y T + o o o o o o o       ",
"        X X X X X R E W u o o o o o o       ",
"      % X X X X X R Q ! ~ e o o o o ^       ",
"      6 X X X o o / ( ( ) _ $ o o o 1       ",
"      6 X X X o o ` ' ! ] [ { o o o 1       ",
"      6 X X X o o } | ) (  ...o o o 1       ",
"      0 X X X X X Y [ X._ u o o o o 1       ",
"        X X X X X ` o.O.+ o o o o o         ",
"        X X X o X +.@.+ o o o o o o         ",
"        u X X o X + + o o o o o o o         ",
"          X X o X o o o o o o o o $         ",
"                    #.#.#.#.s               ",
"                                            ",
"                                            "};
