/* XPM */
static char * netwatch_modem_down_xpm[] = {
"22 44 96 2",
"  	c None",
". 	c #FFFFFFFFFFFF",
"X 	c #FFFFFBEEFFFF",
"o 	c #F7DEF7DEF7DE",
"O 	c #F7DEF3CEF7DE",
"+ 	c #EFBEEFBEEFBE",
"@ 	c #EFBEEBADEFBE",
"# 	c #E79DE79DE79D",
"$ 	c #E79DE38DE79D",
"% 	c #DF7DDF7DDF7D",
"& 	c #DF7DDB6CDF7D",
"* 	c #D75CD75CD75C",
"= 	c #79E77DF779E7",
"- 	c #000004100000",
"; 	c #000008200000",
": 	c #8E388A288E38",
"> 	c #D75CD34CD75C",
", 	c #CF3CCF3CCF3C",
"< 	c #30C238E31040",
"1 	c #618555551861",
"2 	c #38E345141861",
"3 	c #08200C300000",
"4 	c #CF3CCB2BCF3C",
"5 	c #208124920820",
"6 	c #A69982072081",
"7 	c #EFBEB2CA2081",
"8 	c #BEFB92482081",
"9 	c #30C23CF31861",
"0 	c #DF7DE38DDF7D",
"q 	c #C71BC71BC71B",
"w 	c #28A234D31040",
"e 	c #D75CA2892081",
"r 	c #FFFFBEFB28A2",
"t 	c #E79DAAAA2081",
"y 	c #492455552081",
"u 	c #C71BC30BC71B",
"i 	c #BEFBBEFBBEFB",
"p 	c #186118610820",
"a 	c #8E3871C61861",
"s 	c #D75C9E792081",
"d 	c #965879E72081",
"f 	c #208128A21040",
"g 	c #BEFBBAEABEFB",
"h 	c #000000000000",
"j 	c #104014510000",
"k 	c #28A220810000",
"l 	c #186118610000",
"z 	c #B6DAB6DAB6DA",
"x 	c #B6DAB2CAB6DA",
"c 	c #AEBAAEBAAEBA",
"v 	c #AEBAAAAAAEBA",
"b 	c #A699A699A699",
"n 	c #A699A289A699",
"m 	c #9E799E799E79",
"M 	c #082000000000",
"N 	c #9E799A699E79",
"B 	c #B6DAAAAAAEBA",
"V 	c #186100000000",
"C 	c #C71BBEFBBEFB",
"Z 	c #965896589658",
"A 	c #965892489658",
"S 	c #B6DAA289A699",
"D 	c #104000000000",
"F 	c #C71BB6DAB6DA",
"G 	c #8E388E388E38",
"H 	c #AEBA9E799E79",
"J 	c #C71BB2CAB6DA",
"K 	c #861786178617",
"L 	c #A6999E799E79",
"P 	c #861782078617",
"I 	c #A69992489658",
"U 	c #BEFBAAAAAEBA",
"Y 	c #9E798E388E38",
"T 	c #208100000000",
"R 	c #79E779E779E7",
"E 	c #96588E388E38",
"W 	c #208104100000",
"Q 	c #28A208200820",
"! 	c #71C675D671C6",
"~ 	c #69A65D755965",
"^ 	c #30C208200820",
"/ 	c #28A204100000",
"( 	c #618551445144",
") 	c #71C671C671C6",
"_ 	c #9E7996589658",
"` 	c #AEBAA289A699",
"' 	c #69A66DB669A6",
"] 	c #69A669A669A6",
"[ 	c #618565956185",
"{ 	c #618561856185",
"} 	c #596559655965",
"| 	c #492449244924",
" .	c #59655D755965",
"..	c #514455555144",
"X.	c #49244D344924",
"o.	c #514451445144",
"                                            ",
"                                            ",
"                  . X o o                   ",
"                X o o O O +                 ",
"              X o O O + @ @ #               ",
"            o o O + + @ # # $ %             ",
"          o O O + @ @ # $ $ % & &           ",
"          O + @ @ # $ $ % % & * *           ",
"        + + @ # = - ; - : $ * > , ,         ",
"        @ @ # $ - < 1 2 3 # > , 4 4         ",
"        # # $ % 5 6 7 8 9 0 , 4 q q         ",
"      # $ % % & w e r t y % 4 q u u i       ",
"      $ % & & * p a s d f & u u i g g       ",
"      % & * * > h j k l h & i i g z z       ",
"      * * > > , h h h h h * g g z x x       ",
"    * > > , 4 4 h h h h h * z z x c c v     ",
"    > , , 4 q q h h h h h > x c c v b b     ",
"    , 4 4 q u u h h h h h , c v v b n n     ",
"    4 q u u i i h h h h h , v b b n m m     ",
"    q u i i g z h h h h M 4 b n n m N N     ",
"    u i g g z B M h h h V C n m N N Z A     ",
"    i g z z x S D h h h V F m N Z Z A G     ",
"    z z x c c H M h h h V J N Z A A G :     ",
"    x x c v v b M h h h D i A A G G : K     ",
"    c c v b b L M h h h D g G G : K K P     ",
"    v v b n n I V h h h V U : : K P P =     ",
"    b n n m N Y T h h h V U K K P = = R     ",
"    n m m N Z E W M h M Q B K = = R R !     ",
"    m N N Z A A ~ Q ^ / ( c = R R ! ) )     ",
"      Z Z A G G : _ H ` i K R ! ! ) '       ",
"      A G G : K K P P = R R ! ) ) ' ]       ",
"      G : : K P P = R R ! ) ) ' ] ] [       ",
"      : K K P = P N N P ) ' ' ] [ [ {       ",
"        P P = R Z : R ) } ] ] [ { {         ",
"        = R R ! m R ' [ | [ [ {  . .        ",
"        R ! ! ) P ! [ ..| {  . .} ..        ",
"          ) ) ' ] { X.| }  .} } ..          ",
"          ' ' ] [ [ {  . .} ....o.          ",
"            [ [ {  . .} } ..o.o.            ",
"              {  .} } ..o.o.X.              ",
"                } ....o.X.X.                ",
"                  o.o.X.|                   ",
"                                            ",
"                                            "};
