/* XPM */
static char * netwatch_net_down_xpm[] = {
"22 44 4 1",
" 	c None",
".	c #C71BB2CAB6DA",
"X	c #FFFFFFFFBEFB",
"o	c #EFBEF7DE0000",
"                      ",
"                      ",
"                      ",
"                      ",
"     ..X.X.X.X..      ",
"     ..X.X.X.X..      ",
"     ..X.X.X.X..      ",
"     ..X.X.X.X..      ",
"     .....o.....      ",
"     ....o.o....      ",
"     .....o.....      ",
"     ....o.o....      ",
"     .....o.....      ",
"     ....ooo....      ",
"         ooo          ",
"         ooo          ",
"         ooo          ",
"          o           ",
"                      ",
"                      ",
"                      ",
"                      ",
"                      ",
"                      ",
"                      ",
"                      ",
"                      ",
"                      ",
"                      ",
"                      ",
"                      ",
"                      ",
"                      ",
"         oo           ",
"         ooo          ",
"         ooo          ",
"         ooo          ",
"         ooo          ",
"         ooo          ",
"                      ",
"                      ",
"                      ",
"                      ",
"                      "};
