/* XPM */
static char * browser_mini_xpm[] = {
"6 6 2 1",
" 	c NONE",
".	c #000000000000",
"   .  ",
"   .. ",
"......",
"......",
"   .. ",
"   .  "};
