/* XPM */
static char * lamp_small_xpm[] = {
"14 14 8 1",
" 	c None",
".	c #5E5246",
"+	c #A2968A",
"@	c #000000",
"#	c #808080",
"$	c #EFDBC9",
"%	c #C0C0C0",
"&	c #FFFFFF",
"              ",
"       ..     ",
"      .+@@  @ ",
"     .+@#@ @  ",
"    .+$@%&@   ",
" @..+$+@%&@   ",
" @.+$+$@@&@   ",
" @..+$+@@&@@@ ",
" @@@.+$@%&@   ",
"    @.+@%&@   ",
"     @.@#@ @  ",
"      @.@@  @ ",
"       @@     ",
"              "};
