/* XPM */
static char * lamp_small_xpm[] = {
"14 14 62 1",
" 	c None",
".	c #000000",
"+	c #4D4D4D",
"@	c #AFAFAF",
"#	c #B9B9B9",
"$	c #AEAEAE",
"%	c #949494",
"&	c #737373",
"*	c #AAAAAA",
"=	c #CECECE",
"-	c #E1E1E1",
";	c #CCCCCC",
">	c #A8A8A8",
",	c #828282",
"'	c #5B5B5B",
")	c #646464",
"!	c #D5D5D5",
"~	c #F1F1F1",
"{	c #D3D3D3",
"]	c #ACACAC",
"^	c #858585",
"/	c #5D5D5D",
"(	c #222222",
"_	c #777777",
":	c #A0A0A0",
"<	c #BEBEBE",
"[	c #CBCBCB",
"}	c #BCBCBC",
"|	c #9E9E9E",
"1	c #7B7B7B",
"2	c #555555",
"3	c #2B2B2B",
"4	c #606060",
"5	c #868686",
"6	c #9B9B9B",
"7	c #A3A3A3",
"8	c #9A9A9A",
"9	c #848484",
"0	c #676767",
"a	c #454545",
"b	c #1D1D1D",
"c	c #666666",
"d	c #767676",
"e	c #757575",
"f	c #4C4C4C",
"g	c #2F2F2F",
"h	c #696969",
"i	c #414141",
"j	c #4F4F4F",
"k	c #535353",
"l	c #2D2D2D",
"m	c #131313",
"n	c #484848",
"o	c #1E1E1E",
"p	c #2C2C2C",
"q	c #282828",
"r	c #090909",
"s	c #0D0D0D",
"t	c #363636",
"u	c #3F3F3F",
"v	c #242424",
"w	c #151515",
"              ",
"              ",
"     ..+..    ",
"    .@#$%&.   ",
"   .*=-;>,'.  ",
"   )@!~{]^/(  ",
"  ._:<[}|123. ",
"  .4567890ab. ",
"  ..cd1e)fg.. ",
"  .hijkjilm.. ",
"   n/opqbrs.  ",
"   .tuu.vs..  ",
"    .wws...   ",
"              "};
