/* XPM */
static char * lamp_small_red_xpm[] = {
"14 14 9 1",
" 	c None",
".	c #5E5246",
"+	c #C61111",
"@	c #A2968A",
"#	c #000000",
"$	c #808080",
"%	c #EFDBC9",
"&	c #FFFFFF",
"*	c #C0C0C0",
"              ",
"       ..  ++ ",
"      .@##+++ ",
"     .@#$+++  ",
"    .@%#+++   ",
" #..@%@+++#   ",
" #.@%@+++&#   ",
" #..@+++#&#   ",
" ###+++#*&#   ",
"   +++@#*&#   ",
"  +++#.#$#    ",
" +++  #.##    ",
" ++    ##     ",
"              "};
