/* XPM */
static char *br[] = {
/* width height num_colors chars_per_pixel */
"    60    40       31            1",
/* colors */
". c #ffffff",
"# c #dede84",
"a c #f7f710",
"b c #ffff00",
"c c #dee721",
"d c #848c00",
"e c #4a5200",
"f c #d6ef00",
"g c #bdde00",
"h c #9cbd10",
"i c #84c600",
"j c #4a7b00",
"k c #9cbd73",
"l c #d6ffad",
"m c #527b29",
"n c #6bbd18",
"o c #52ad10",
"p c #adde94",
"q c #7bad63",
"r c #397b21",
"s c #089c00",
"t c #009c00",
"u c #e7fff7",
"v c #cef7ff",
"w c #63848c",
"x c #adceff",
"y c #5a84c6",
"z c #10398c",
"A c #1042a5",
"B c #003194",
"C c #00319c",
/* pixels */
"rttttttttttttttttttttttttttttttttttttttttttttttttttttttttttt",
"tttttttttttttttttttttttttttttttttttttttttttttttttttttttttttt",
"tttttttttttttttttttttttttttttttttttttttttttttttttttttttttttt",
"tttttttttttttttttttttttttttttttttttttttttttttttttttttttttttt",
"tttttttttttttttttttttttttttttttttttttttttttttttttttttttttttt",
"tttttttttttttttttttttttttttttttttttttttttttttttttttttttttttt",
"ttttttttttttttttttttttttttttibbbtttttttttttttttttttttttttttt",
"tttttttttttttttttttttttttttbbbbbbbtttttttttttttttttttttttttt",
"tttttttttttttttttttttttttbbbbbbbbbbttttttttttttttttttttttttt",
"tttttttttttttttttttttttnbbbbbbbbbbbbbttttttttttttttttttttttt",
"ttttttttttttttttttttttbbbbbbbdedbbbbbbbttttttttttttttttttttt",
"ttttttttttttttttttttgbbbbbBCCCCCCCBbbbbbtttttttttttttttttttt",
"tttttttttttttttttttbbbbbCCCCCCCCCCCCCbbbbbtttttttttttttttttt",
"tttttttttttttttttbbbbbbCBCCCCCCCCCCCBCbbbbbbtttttttttttttttt",
"tttttttttttttttbbbbbbbCCCCCCCCCCCCCCCCCbbbbbbotttttttttttttt",
"ttttttttttttttbbbbbbbzBCCCCCCCCCCCCCCCCCbbbbbbbttttttttttttt",
"ttttttttttttbbbbbbbbbkjqlmpm.ACCCCCCCCCCbbbbbbbbbttttttttttt",
"tttttttttthbbbbbbbbbCCCCCCxvullqxyCCCCCCdbbbbbbbbbottttttttt",
"ttttttttsbbbbbbbbbbbCyCCCCCCCCClkpkCCCCCCbbbbbbbbbbbsttttttt",
"tttttttfbbbbbbbbbbbbCCCCCCCCCCCCCxq#uCCCCbbbbbbbbbbbbftttttt",
"tttttobbbbbbbbbbbbbbCCCCCCACCCCCCCCyurzCCbbbbbbbbbbbbbbttttt",
"tttttttfbbbbbbbbbbbbCCCCCCCCCCyCCCCCCuruCbbbbbbbbbbbbftttttt",
"ttttttttsbbbbbbbbbbbCCCCCCCCCCCCCCCCCCyl.bbbbbbbbbbbtttttttt",
"ttttttttttfbbbbbbbbbCACCCCCCCCCCCCCCCCCBabbbbbbbbbtttttttttt",
"ttttttttttttbbbbbbbbaCCCyCCCCCBCCCCCCCCCbbbbbbbbbttttttttttt",
"ttttttttttttttbbbbbbbCCCCCyCCCCCCCCCCxCBbbbbbbbttttttttttttt",
"tttttttttttttttfbbbbbbCCCCCCCCCCCCCCCCCbbbbbbstttttttttttttt",
"tttttttttttttttttfbbbbbCCCCCCCCCCvCCCCbbbbbbtttttttttttttttt",
"tttttttttttttttttttbbbbbzCCCCCCCCCCCzbbbbbtttttttttttttttttt",
"ttttttttttttttttttttsbbbb#CCCCCCCCCbbbbbtttttttttttttttttttt",
"ttttttttttttttttttttttfbbbbbcwAwcbbbbbbttttttttttttttttttttt",
"ttttttttttttttttttttttttbbbbbbbbbbbbbttttttttttttttttttttttt",
"tttttttttttttttttttttttttfbbbbbbbbbotttttttttttttttttttttttt",
"tttttttttttttttttttttttttttbbbbbbbtttttttttttttttttttttttttt",
"tttttttttttttttttttttttttttttbbbtttttttttttttttttttttttttttt",
"tttttttttttttttttttttttttttttttttttttttttttttttttttttttttttt",
"tttttttttttttttttttttttttttttttttttttttttttttttttttttttttttt",
"tttttttttttttttttttttttttttttttttttttttttttttttttttttttttttt",
"tttttttttttttttttttttttttttttttttttttttttttttttttttttttttttt",
"tttttttttttttttttttttttttttttttttttttttttttttttttttttttttttt"
};
