/* XPM */
static char *ca60x40[] = {
/* width height num_colors chars_per_pixel */
"    60    40        2            1",
/* colors */
". c #ffffff",
"# c #ff0033",
/* pixels */
"###############..............................###############",
"###############..............................###############",
"###############..............................###############",
"###############..............................###############",
"###############..............##..............###############",
"###############..............##..............###############",
"###############.............####.............###############",
"###############.............####.............###############",
"###############.............####.............###############",
"###############..........#.######.#..........###############",
"###############..........##########..........###############",
"###############..........##########..........###############",
"###############..........##########..........###############",
"###############.......#...########...#.......###############",
"###############.......#...########...#.......###############",
"###############...##.###..########..###.##...###############",
"###############....######.########.######....###############",
"###############....######.########.######....###############",
"###############....######################....###############",
"###############.....####################.....###############",
"###############....######################....###############",
"###############...########################...###############",
"###############....######################....###############",
"###############.....####################.....###############",
"###############......##################......###############",
"###############.......################.......###############",
"###############........##############........###############",
"###############........##############........###############",
"###############.........############.........###############",
"###############........#####.##.#####........###############",
"###############........##....##....##........###############",
"###############..............##..............###############",
"###############..............##..............###############",
"###############..............##..............###############",
"###############..............##..............###############",
"###############..............##..............###############",
"###############..............##..............###############",
"###############..............##..............###############",
"###############..............................###############",
"###############..............................###############"
};
