/* XPM */
static char * fr_xpm[] = {
"60 40 4 1",
" 	c None",
".	c #0000FF",
"+	c #FFFFFF",
"@	c #FF0000",
"....................+++++++++++++++++++++@@@@@@@@@@@@@@@@@@@",
"....................+++++++++++++++++++++@@@@@@@@@@@@@@@@@@@",
"....................+++++++++++++++++++++@@@@@@@@@@@@@@@@@@@",
"....................+++++++++++++++++++++@@@@@@@@@@@@@@@@@@@",
"....................+++++++++++++++++++++@@@@@@@@@@@@@@@@@@@",
"....................+++++++++++++++++++++@@@@@@@@@@@@@@@@@@@",
"....................+++++++++++++++++++++@@@@@@@@@@@@@@@@@@@",
"....................+++++++++++++++++++++@@@@@@@@@@@@@@@@@@@",
"....................+++++++++++++++++++++@@@@@@@@@@@@@@@@@@@",
"....................+++++++++++++++++++++@@@@@@@@@@@@@@@@@@@",
"....................+++++++++++++++++++++@@@@@@@@@@@@@@@@@@@",
"....................+++++++++++++++++++++@@@@@@@@@@@@@@@@@@@",
"....................+++++++++++++++++++++@@@@@@@@@@@@@@@@@@@",
"....................+++++++++++++++++++++@@@@@@@@@@@@@@@@@@@",
"....................+++++++++++++++++++++@@@@@@@@@@@@@@@@@@@",
"....................+++++++++++++++++++++@@@@@@@@@@@@@@@@@@@",
"....................+++++++++++++++++++++@@@@@@@@@@@@@@@@@@@",
"....................+++++++++++++++++++++@@@@@@@@@@@@@@@@@@@",
"....................+++++++++++++++++++++@@@@@@@@@@@@@@@@@@@",
"....................+++++++++++++++++++++@@@@@@@@@@@@@@@@@@@",
"....................+++++++++++++++++++++@@@@@@@@@@@@@@@@@@@",
"....................+++++++++++++++++++++@@@@@@@@@@@@@@@@@@@",
"....................+++++++++++++++++++++@@@@@@@@@@@@@@@@@@@",
"....................+++++++++++++++++++++@@@@@@@@@@@@@@@@@@@",
"....................+++++++++++++++++++++@@@@@@@@@@@@@@@@@@@",
"....................+++++++++++++++++++++@@@@@@@@@@@@@@@@@@@",
"....................+++++++++++++++++++++@@@@@@@@@@@@@@@@@@@",
"....................+++++++++++++++++++++@@@@@@@@@@@@@@@@@@@",
"....................+++++++++++++++++++++@@@@@@@@@@@@@@@@@@@",
"....................+++++++++++++++++++++@@@@@@@@@@@@@@@@@@@",
"....................+++++++++++++++++++++@@@@@@@@@@@@@@@@@@@",
"....................+++++++++++++++++++++@@@@@@@@@@@@@@@@@@@",
"....................+++++++++++++++++++++@@@@@@@@@@@@@@@@@@@",
"....................+++++++++++++++++++++@@@@@@@@@@@@@@@@@@@",
"....................+++++++++++++++++++++@@@@@@@@@@@@@@@@@@@",
"....................+++++++++++++++++++++@@@@@@@@@@@@@@@@@@@",
"....................+++++++++++++++++++++@@@@@@@@@@@@@@@@@@@",
"....................+++++++++++++++++++++@@@@@@@@@@@@@@@@@@@",
"....................+++++++++++++++++++++@@@@@@@@@@@@@@@@@@@",
"....................+++++++++++++++++++++@@@@@@@@@@@@@@@@@@@"};
