/* XPM */
static char * il_xpm[] = {
"60 40 2 1",
" 	c #FFFFFFFFFFFF",
".	c #00000000FFFF",
"                                                            ",
"                                                            ",
"                                                            ",
"                                                            ",
"                                                            ",
"............................................................",
"............................................................",
"............................................................",
"............................................................",
"                           ..                               ",
"                          ....                              ",
"                         ..  ..                             ",
"                        ..    ..                            ",
"                       ..      ..                           ",
"              .............................                 ",
"              .............................                 ",
"               ..     ..         ..     ..                  ",
"                ..   ..           ..   ..                   ",
"                 .. ..             .. ..                    ",
"                  ...               ...                     ",
"                  ...               ...                     ",
"                 .. ..             .. ..                    ",
"                ..   ..           ..   ..                   ",
"               ..     ..         ..     ..                  ",
"              .............................                 ",
"              .............................                 ",
"                       ..      ..                           ",
"                        ..    ..                            ",
"                         ..  ..                             ",
"                          ....                              ",
"                           ..                               ",
"............................................................",
"............................................................",
"............................................................",
"............................................................",
"                                                            ",
"                                                            ",
"                                                            ",
"                                                            ",
"                                                            "};
