/* XPM */
static char * sk_xpm[] = {
"60 40 17 1",
" 	c None",
".	c #070382",
"+	c #979A9D",
"@	c #A51A33",
"#	c #A56767",
"$	c #544E87",
"%	c #F40709",
"&	c #12FE24",
"*	c #6E0A32",
"=	c #DA2A37",
"-	c #D9CBEC",
";	c #EA9398",
">	c #E7605F",
",	c #553483",
"'	c #6E6F97",
")	c #FDFDFB",
"!	c #EAB1C0",
"''*.....................................................&.$.",
"'-))))))))))))))))))))))))))))))))))))))))))))))))))))))))+$",
"'-))))))))))))))))))))))))))))))))))))))))))))))))))))))))+$",
"'-))))))))))))))))))))))))))))))))))))))))))))))))))))))))+$",
"'!))))))))))))))))))))))))))))))))))))))))))))))))))))))))+$",
"+-))))))))))))))))))))))))))))))))))))))))))))))))))))))))+$",
"'-))))))))))))))))))))))))))))))))))))))))))))))))))))))))+$",
"'-))))))))))))))))))))))))))))))))))))))))))))))))))))))))+$",
"'-))))))))))))))))))))))))))))))))))))))))))))))))))))))))+$",
"'-))))));;;;;;;;;!;;;)))))))))))))))))))))))))))))))))))))+$",
"'-)))))-*@%%@***@%%%*;))))))))))))))))))))))))))))))))))))+$",
"+-))))))@%%%%!)-=%%%%!))))))))))))))))))))))))))))))))))))+$",
"+-))))))@%%@*>)-@%%%%!))))))))))))))))))))))))))))))))))))!$",
"'+-----)*%%;=;)!=>!%@!-!----------------------------------+$",
"'',....)@%%))))))))%%-,.....................................",
"''$....)@%%-!-))!-)%%-$...................................,.",
"''$....)@%%=*#)!*@=%%-$...................................,.",
"''$....)@%%@*#)!*@@%%-$...................................,.",
"''$....)@@>;;!)-#;-%%-$...................................,.",
"''$....)@@>))))))))@@-$...................................,.",
"''$....#!*%@*>)!*@@%=!....................................,.",
"''$....,-%%%@!))=%%@>!....................................,.",
"''$....,)=%=@*,,*=%@)+....................................,.",
"''$.....!;***....**,).....................................,.",
"''$.....!).........;).....................................,.",
"'',......),........)*.....................................,.",
"'##@*@*@*!)........-@*@@@@@@@@@@@@@@@@@@@@@@@@@@@@@@@@@@@@,*",
"##>=%%%%%=;$......-=%%%%%%%%%%%%%%%%%%%%%%%%%%%%%%%%%%%%==@*",
"##>%%%%%%%@),....--%%%%%%%%%%%%%%%%%%%%%%%%%%%%%%%%%%%%%%=@*",
"##>=%%%%%%%;)-$!)!=%%%%%%%%%%%%%%%%%%%%%%%%%%%%%%%%%%%%%%%@*",
"##>=%%%%%%%%@!)->@%%%%%%%%%%%%%%%%%%%%%%%%%%%%%%%%%%%%%%%%@*",
"##>%%%%%%%%%%%%%%%%%%%%%%%%%%%%%%%%%%%%%%%%%%%%%%%%%%%%%%=@*",
"##>%%%%%%%%%%%%%%%%%%%%%%%%%%%%%%%%%%%%%%%%%%%%%%%%%%%%%%=@*",
"##>%%%%%%%%%%%%%%%%%%%%%%%%%%%%%%%%%%%%%%%%%%%%%%%%%%%%%%=@*",
"##>%%%%%%%%%%%%%%%%%%%%%%%%%%%%%%%%%%%%%%%%%%%%%%%%%%%%%%=@*",
"##=%%%%%%%%%%%%%%%%%%%%%%%%%%%%%%%%%%%%%%%%%%%%%%%%%%%%%%%@*",
"##>=%%%%%%%%%%%%%%%%%%%%%%%%%%%%%%%%%%%%%%%%%%%%%%%%%%%%%=@*",
"##>=%=%=============%==================================%%=@*",
"##=@@@=@@@@@@@@@@@@@@@@@@@@@@@@@@@@@@@@@@@@@@@@@@@@@@@@@@=@*",
"............................................................"};
