/* XPM */
static char *un[] = {
/* width height num_colors chars_per_pixel */
"    60    40        5            1",
/* colors */
". c #31b5eb",
"# c #54b7e7",
"a c #9cbdce",
"b c #d6dee7",
"c c #ffffff",
/* pixels */
"cccccccccccccccccccccccccccccccccccccccccccccccccccccccccccc",
"cccccccccccccccccccccccccccccccccccccccccccccccccccccccccccc",
"cccccccccccccccccccccccccccccccccccccccccccccccccccccccccccc",
"cccccccccccccccccccccccccccccccccccccccccccccccccccccccccccc",
"cccccccccccccccccccccccccccccccccccccccccccccccccccccccccccc",
"cccccccccccccccccccccccccccbbbbc#ccbbbcccccccccccccccccccccc",
"ccccccccccccccccccccbcccccbccccc#bbccccbccc##ccccccccccccccc",
"cccccccccccccccccccc.ccb##cccb####bbcccc#ccc.ccccccccccccccc",
"ccccccccccccccccccc#ccb#ccc#bcccbcccbb.#c#bcc##bcccccccccccc",
"ccccccccccccccccc#cbcb#c##bccccc#ccccc#.#cbcbbb.cccccccccccc",
"ccccccccccccccccc#b.cbcc###cb#ccbccb##c##cc#c.c#bbcccccccccc",
"cccccccccccccccbb#ccbccbccc#cccb#bcccc#c#bcc#c##bb#ccccccccc",
"ccccccccccccccc###bc#cccccbc#c#b#bbc###cc#ccbcc#bb#ccccccccc",
"ccccccccccccccc##bbccc#cccbcc#cc#cc#ccc#cc#ccc.b###ccccccccc",
"ccccccccccccccc##bbccc#cccbcc#cc#cc#ccc#cc#ccc.b###ccccccccc",
"ccccccccccccccc##.cccc#ccccb.#b###b#..cccc#ccc#.###ccccccccc",
"cccccccccccccccc#bcbcb#cbbb.##.bc#.#...#bcbccbcc##cbcccccccc",
"ccccccccccccccccbbcb#######b.#cccc.##########b#bbbcbcccccccc",
"ccccccccccccccc#c#cbcbbcbbc###b#cc....#bbcbccbc.ccbccccccccc",
"ccccccccccccccc.b#ccccb.##bb#b#bb.#####bbc#cccc#bb.ccccccccc",
"cccccccccccccccb#bbcb.#.###cc#cc..#.##cbccbccccc##bccccccccc",
"cccccccccccccccc#cbcb.##...c##bccbb#..c#c#ccbc#cbbcccccccccc",
"ccccccccccccccc.cc#c#cc.####ccc..#..###cccccbc#ccc.ccccccccc",
"ccccccccccccccc#.c#cccc#....#cc...#...b#bcc#cc#c###ccccccccc",
"ccccccccccccccccb##cc#cc###ccb##...###cb#ccccc##bbcccccccccc",
"ccccccccccccccccbc#c#cbbccc#bccccc#...bcc#bc.bbcbbcccccccccc",
"ccccccccccccccccbbbb.cc#cccc#bbccc.###cccbcb.bccbbcccccccccc",
"ccccccccccccccccbbbb.cc#cccc#bbccc.###cccbcb.bccbbcccccccccc",
"cccccccccccccccccb.#bcbccc#cccccccccccc#cbb.c#.bcccccccccccc",
"cccccccccccccccccc#.bbccccbbcccccccccc#cc.cbb.cccccccccccccc",
"cccccccccccccccccccbcbb#..cccb###bbbcccc.cbccbcccccccccccccc",
"cccccccccccccccccccc#...##bcc#bbbb#bccb##...#ccccccccccccccc",
"cccccccccccccccccccccbbbccc##bc##bc###ccbb#ccccccccccccccccc",
"ccccccccccccccccccccccb....bc#bccc##cc#..#bccccccccccccccccc",
"ccccccccccccccccccccccca##accbcccccbcccb#ccccccccccccccccccc",
"cccccccccccccccccccccccccccccccccccccccccccccccccccccccccccc",
"cccccccccccccccccccccccccccccccccccccccccccccccccccccccccccc",
"cccccccccccccccccccccccccccccccccccccccccccccccccccccccccccc",
"cccccccccccccccccccccccccccccccccccccccccccccccccccccccccccc"
"cccccccccccccccccccccccccccccccccccccccccccccccccccccccccccc"
};
