/* XPM */
static char * uy_xpm[] = {
"60 40 17 1",
" 	c None",
".	c #222284",
"+	c #A99D25",
"@	c #DCD30B",
"#	c #C5B71D",
"$	c #786227",
"%	c #C3BC99",
"&	c #907F40",
"*	c #F7F404",
"=	c #BDA123",
"-	c #6A4A19",
";	c #FEFEFC",
">	c #D8D6C7",
",	c #AC8819",
"'	c #3E364C",
")	c #A39F8A",
"!	c #986C18",
";;;;;;;;;;;;;;;;;;;;;;;;;;;;;;;;;;;;;;;;;;;;;;;;;;;;;;;;;;;;",
";;;;;;;;;;;;;;;;;;;;;;;;;;;;;;;;;;;;;;;;;;;;;;;;;;;;;;;;;;;;",
";;;;;;;;;;;;;;;;;;;;;;;;;;;;;;;;;;;;;;;;;;;;;;;;;;;;;;;;;;;;",
";;;;;;;;%;;%;;>;;;;;;;;;;;;;;;;;;;;;;;;;;;;;;;;;;;;;;;;;;;;;",
";;;;;;;;=%;&;%);;;;;;;......................................",
";;;;;%;;##>-%@%;>;;;;;......................................",
";;;;;>$%++,-,#>&);;;;;......................................",
";;;>>%%-$#,-=&!&;;;;;;......................................",
";;;;%##$!$=#!!-=##);;;......................................",
";;;;;%,@-!#@!-=+#%;;;;;;;;;;;;;;;;;;;;;;;;;;;;;;;;;;;;;;;;;;",
";;;;>%!==#**#@&!)>>;;;;;;;;;;;;;;;;;;;;;;;;;;;;;;;;;;;;;;;;;",
";;;%)&$-,*#=*@'-$)%;;;;;;;;;;;;;;;;;;;;;;;;;;;;;;;;;;;;;;;;;",
";;;;>%,#!*@=*,=,,;;;;;;;;;;;;;;;;;;;;;;;;;;;;;;;;;;;;;;;;;;;",
";;;>=#,,!-#+,-!#@+%;;;......................................",
";;;;>;%$'=,-=&-%>>>;;;......................................",
";;;;;;&)#,,-==)$>;;;;;......................................",
";;;;;>%>@=%$##;;);;;;;......................................",
";;;;;;;>+;>&>#>;;;;;;;......................................",
";;;;;;;>>;;);>>;;;;;;;;;;;;;;;;;;;;;;;;;;;;;;;;;;;;;;;;;;;;;",
";;;;;;;;;;;;;;;;;;;;;;;;;;;;;;;;;;;;;;;;;;;;;;;;;;;;;;;;;;;;",
";;;;;;;;;;;;;;;;;;;;;;;;;;;;;;;;;;;;;;;;;;;;;;;;;;;;;;;;;;;;",
";;;;;;;;;;;;;;;;;;;;;;;;;;;;;;;;;;;;;;;;;;;;;;;;;;;;;;;;;;;;",
"............................................................",
"............................................................",
"............................................................",
"............................................................",
"............................................................",
";;;;;;;;;;;;;;;;;;;;;;;;;;;;;;;;;;;;;;;;;;;;;;;;;;;;;;;;;;;;",
";;;;;;;;;;;;;;;;;;;;;;;;;;;;;;;;;;;;;;;;;;;;;;;;;;;;;;;;;;;;",
";;;;;;;;;;;;;;;;;;;;;;;;;;;;;;;;;;;;;;;;;;;;;;;;;;;;;;;;;;;;",
";;;;;;;;;;;;;;;;;;;;;;;;;;;;;;;;;;;;;;;;;;;;;;;;;;;;;;;;;;;;",
"............................................................",
"............................................................",
"............................................................",
"............................................................",
"............................................................",
";;;;;;;;;;;;;;;;;;;;;;;;;;;;;;;;;;;;;;;;;;;;;;;;;;;;;;;;;;;;",
";;;;;;;;;;;;;;;;;;;;;;;;;;;;;;;;;;;;;;;;;;;;;;;;;;;;;;;;;;;;",
";;;;;;;;;;;;;;;;;;;;;;;;;;;;;;;;;;;;;;;;;;;;;;;;;;;;;;;;;;;;",
";;;;;;;;;;;;;;;;;;;;;;;;;;;;;;;;;;;;;;;;;;;;;;;;;;;;;;;;;;;;"};
