/* XPM */
static char * yu_xpm[] = {
"60 40 4 1",
" 	c #00000000FFFF",
".	c #FFFFFFFF0000",
"X	c #FFFF00000000",
"o	c #FFFFFFFFFFFF",
"                                                            ",
"                                                            ",
"                                                            ",
"                                                            ",
"                             .                              ",
"                            ...                             ",
"                           ..X..                            ",
"                           .XXX.                            ",
"                          ..XXX..                           ",
"                          .XXXXX.                           ",
"                         ..XXXXX..                          ",
"              ............XXXXXXX...........                ",
"              ............XXXXXXX............               ",
"              ..XXXXXXXXXXXXXXXXXXXXXXXXXXX..               ",
"ooooooooooooooo...XXXXXXXXXXXXXXXXXXXXXXX...oooooooooooooooo",
"ooooooooooooooooo..XXXXXXXXXXXXXXXXXXXXX..oooooooooooooooooo",
"oooooooooooooooooo..XXXXXXXXXXXXXXXXXXX..ooooooooooooooooooo",
"ooooooooooooooooooo..XXXXXXXXXXXXXXXXX..oooooooooooooooooooo",
"oooooooooooooooooooo...XXXXXXXXXXXXX...ooooooooooooooooooooo",
"oooooooooooooooooooooo..XXXXXXXXXXX..ooooooooooooooooooooooo",
"ooooooooooooooooooooooo.XXXXXXXXXXX.oooooooooooooooooooooooo",
"oooooooooooooooooooooo..XXXXXXXXXXX..ooooooooooooooooooooooo",
"oooooooooooooooooooooo.XXXXXXXXXXXXX.ooooooooooooooooooooooo",
"ooooooooooooooooooooo..XXXXXX.XXXXXX..oooooooooooooooooooooo",
"oooooooooooooooooooo..XXXXX.....XXXXX..ooooooooooooooooooooo",
"oooooooooooooooooooo..XXXX...o...XXXX..ooooooooooooooooooooo",
"ooooooooooooooooooo..XXXX...ooo...XXXX..oooooooooooooooooooo",
"XXXXXXXXXXXXXXXXXXX..XXX..XXXXXXX..XXX..XXXXXXXXXXXXXXXXXXXX",
"XXXXXXXXXXXXXXXXXX..XXX..XXXXXXXXX..XXX..XXXXXXXXXXXXXXXXXXX",
"XXXXXXXXXXXXXXXXX..XXX..XXXXXXXXXXX..XXX..XXXXXXXXXXXXXXXXXX",
"XXXXXXXXXXXXXXXXX.XXX..XXXXXXXXXXXXX..XXX.XXXXXXXXXXXXXXXXXX",
"XXXXXXXXXXXXXXXXX.....XXXXXXXXXXXXXXX.....XXXXXXXXXXXXXXXXXX",
"XXXXXXXXXXXXXXXXXXXXXXXXXXXXXXXXXXXXXXXXXXXXXXXXXXXXXXXXXXXX",
"XXXXXXXXXXXXXXXXXXXXXXXXXXXXXXXXXXXXXXXXXXXXXXXXXXXXXXXXXXXX",
"XXXXXXXXXXXXXXXXXXXXXXXXXXXXXXXXXXXXXXXXXXXXXXXXXXXXXXXXXXXX",
"XXXXXXXXXXXXXXXXXXXXXXXXXXXXXXXXXXXXXXXXXXXXXXXXXXXXXXXXXXXX",
"XXXXXXXXXXXXXXXXXXXXXXXXXXXXXXXXXXXXXXXXXXXXXXXXXXXXXXXXXXXX",
"XXXXXXXXXXXXXXXXXXXXXXXXXXXXXXXXXXXXXXXXXXXXXXXXXXXXXXXXXXXX",
"XXXXXXXXXXXXXXXXXXXXXXXXXXXXXXXXXXXXXXXXXXXXXXXXXXXXXXXXXXXX",
"XXXXXXXXXXXXXXXXXXXXXXXXXXXXXXXXXXXXXXXXXXXXXXXXXXXXXXXXXXXX"};
