/* XPM */
static char * disconnect_xpm[] = {
"10 10 52 1",
" 	c None",
".	c #180801",
"+	c #88360E",
"@	c #E47F4E",
"#	c #DA5A1C",
"$	c #CC4C0F",
"%	c #C2460F",
"&	c #0A0300",
"*	c #82340F",
"=	c #E75A13",
"-	c #C94F10",
";	c #E95B13",
">	c #D65112",
",	c #AC3F0C",
"'	c #B6400E",
")	c #6A2408",
"!	c #DE7A4A",
"~	c #E85B13",
"{	c #FFFFFF",
"]	c #DEB39D",
"^	c #A38272",
"/	c #AA3A0D",
"(	c #100500",
"_	c #D04E10",
":	c #E05713",
"<	c #B18771",
"[	c #E7B39C",
"}	c #B43F0D",
"|	c #A8390C",
"1	c #0D0400",
"2	c #C4470F",
"3	c #CE4D0F",
"4	c #B18D7D",
"5	c #EBC8B9",
"6	c #AD3B0D",
"7	c #A2360B",
"8	c #0E0400",
"9	c #B9420E",
"0	c #97360B",
"a	c #E5B29C",
"b	c #E2B19B",
"c	c #A6380C",
"d	c #7C2807",
"e	c #050100",
"f	c #B44B1F",
"g	c #B03D0D",
"h	c #A4370C",
"i	c #6C2106",
"j	c #5A1E06",
"k	c #9F350B",
"l	c #661F05",
"m	c #080200",
"    ..    ",
"  +@#$%&  ",
" *=-;>,') ",
" !~{]^{'/ ",
"(_:<{{[}|(",
"1234{{5678",
" 90{ab{cd ",
" efgg/hie ",
"  jhhkle  ",
"    mm    "};
