/* XPM */
static char * disconnect_xpm[] = {
"12 12 90 1",
" 	c None",
".	c #200C02",
"+	c #200B02",
"@	c #773717",
"#	c #C45E2E",
"$	c #DA6630",
"%	c #D2602A",
"&	c #AE4110",
"*	c #652408",
"=	c #9E451A",
"-	c #E66E32",
";	c #E55A13",
">	c #E05613",
",	c #D55012",
"'	c #C94A0F",
")	c #BD440E",
"!	c #802D09",
"~	c #733112",
"{	c #E36D32",
"]	c #D85714",
"^	c #AC5D34",
"/	c #D45312",
"(	c #D45212",
"_	c #B1623C",
":	c #B84715",
"<	c #B33E0E",
"[	c #5B1F07",
"}	c #BE5E32",
"|	c #DD5612",
"1	c #C96A39",
"2	c #FFFFFF",
"3	c #DAAA92",
"4	c #BB8C76",
"5	c #F6F6F6",
"6	c #D48664",
"7	c #B23E0E",
"8	c #8E300A",
"9	c #180801",
"0	c #D1602B",
"a	c #D65112",
"b	c #D55212",
"c	c #CF997E",
"d	c #E8B7A2",
"e	c #C45C30",
"f	c #B03D0D",
"g	c #98330A",
"h	c #160701",
"i	c #160801",
"j	c #CA5C2A",
"k	c #CC4C10",
"l	c #C84C10",
"m	c #CA977F",
"n	c #E6B8A3",
"o	c #B84413",
"p	c #AC3A0D",
"q	c #882D08",
"r	c #130600",
"s	c #A9481E",
"t	c #C1460F",
"u	c #A45938",
"v	c #E5B29B",
"w	c #E3AE98",
"x	c #C87C5E",
"y	c #A3370C",
"z	c #6B2206",
"A	c #612C15",
"B	c #B84818",
"C	c #B04010",
"D	c #C67553",
"E	c #BA4817",
"F	c #B94E20",
"G	c #C67656",
"H	c #AD4A21",
"I	c #8C2E09",
"J	c #3E1403",
"K	c #792E10",
"L	c #B2491E",
"M	c #AD3C0D",
"N	c #AC3B0D",
"O	c #A8390C",
"P	c #A3360C",
"Q	c #862B08",
"R	c #521904",
"S	c #541C06",
"T	c #852C09",
"U	c #94310A",
"V	c #822B08",
"W	c #652006",
"X	c #421503",
"Y	c #0E0400",
"     .+     ",
"   @#$%&*   ",
"  =-;>,')!  ",
" ~{]^/(_:<[ ",
" }|12345678 ",
"90abc22defgh",
"ijklm22nopqr",
" stu2vw2xyz ",
" ABCDEFGHIJ ",
"  KLMNOPQR  ",
"   STUVWX   ",
"     YY     "};
