/* XPM */
static char * ethernet_xpm[] = {
"16 20 80 1",
" 	c None",
".	c #030303",
"+	c #F2F4F1",
"@	c #D0D3C8",
"#	c #C9CDC0",
"$	c #C1C6B6",
"%	c #BEC2B1",
"&	c #D4D8CD",
"*	c #5C7255",
"=	c #FFFFFF",
"-	c #5D635B",
";	c #5B6058",
">	c #35432F",
",	c #707B55",
"'	c #ABABAB",
")	c #949C80",
"!	c #D3D7CC",
"~	c #ACACAC",
"{	c #A4A4A4",
"]	c #9D9D9D",
"^	c #959595",
"/	c #C6B887",
"(	c #5B6445",
"_	c #ADA7C8",
":	c #C3AF68",
"<	c #646A62",
"[	c #BBBBBB",
"}	c #6A6A6A",
"|	c #373936",
"1	c #C6C6C6",
"2	c #A2A2A2",
"3	c #888888",
"4	c #808080",
"5	c #5F5F5F",
"6	c #FAFAFA",
"7	c #BEBEBE",
"8	c #3D4B37",
"9	c #E2DBC4",
"0	c #3B3D3A",
"a	c #DED6BB",
"b	c #373837",
"c	c #242B21",
"d	c #000000",
"e	c #596541",
"f	c #C7CDBE",
"g	c #848257",
"h	c #939165",
"i	c #B1B091",
"j	c #9E9E77",
"k	c #6B6942",
"l	c #4A5138",
"m	c #3C422D",
"n	c #6E7954",
"o	c #343A21",
"p	c #2B311C",
"q	c #474D2B",
"r	c #2C321D",
"s	c #2D311C",
"t	c #848B74",
"u	c #A2A796",
"v	c #A0A595",
"w	c #7D8074",
"x	c #A0A95E",
"y	c #D1CC84",
"z	c #8B9752",
"A	c #BBBB75",
"B	c #989E55",
"C	c #CAC77F",
"D	c #91A054",
"E	c #CFCB83",
"F	c #27361C",
"G	c #10140D",
"H	c #0B0D09",
"I	c #B8B078",
"J	c #DDD58F",
"K	c #A5A161",
"L	c #D4CD84",
"M	c #ADA772",
"N	c #D7D088",
"O	c #DAD38B",
"              . ",
"             .  ",
"             .  ",
" .............  ",
".+@###$$$$$$%.  ",
".&*=-=;>,=,').  ",
".!=~{]^/(_(:(.  ",
".!<~'[}|(1(2(...",
".!=2345/(((((.67",
".!890abc(,,,,.d.",
".!,,,,,,ef(,,.  ",
".!ghijk(l,mn(.  ",
".!opqrs(,,tuv.  ",
".wxyzABCDEFGH.  ",
" .IJKLMNKO.  .  ",
" ..........  .  ",
"                ",
"                ",
"                ",
"                "};
