/* XPM */
static char * netspeed_applet_xpm[] = {
"48 48 733 2",
"  	c None",
". 	c #3A3A3A",
"+ 	c #000000",
"@ 	c #181818",
"# 	c #F9F9F9",
"$ 	c #E1E1E1",
"% 	c #C5C5C5",
"& 	c #BABABA",
"* 	c #E0E0E0",
"= 	c #CECECE",
"- 	c #454545",
"; 	c #63775D",
"> 	c #B5DEAD",
", 	c #91AD85",
"' 	c #8EAD84",
") 	c #B1BE91",
"! 	c #A5C99B",
"~ 	c #9EC195",
"{ 	c #BECE9D",
"] 	c #96B78D",
"^ 	c #C1CF9D",
"/ 	c #91B088",
"( 	c #B5C192",
"_ 	c #95B48B",
": 	c #C0CF9D",
"< 	c #8DAB84",
"[ 	c #BDCA99",
"} 	c #A3C79A",
"| 	c #B8C694",
"1 	c #87A17A",
"2 	c #96A87E",
"3 	c #A3AA80",
"4 	c #A2AA80",
"5 	c #A2A87E",
"6 	c #A1AA7E",
"7 	c #979E76",
"8 	c #979F76",
"9 	c #99A178",
"0 	c #989F76",
"a 	c #83936C",
"b 	c #989E76",
"c 	c #979E74",
"d 	c #979E75",
"e 	c #979D74",
"f 	c #828F69",
"g 	c #697F5C",
"h 	c #637A58",
"i 	c #697761",
"j 	c #A4C496",
"k 	c #88A57D",
"l 	c #688061",
"m 	c #647A5C",
"n 	c #748564",
"o 	c #929872",
"p 	c #63795B",
"q 	c #909670",
"r 	c #637A5C",
"s 	c #949A74",
"t 	c #627859",
"u 	c #8F966F",
"v 	c #62785A",
"w 	c #8F956F",
"x 	c #617858",
"y 	c #929871",
"z 	c #5F7657",
"A 	c #8D936C",
"B 	c #5C7152",
"C 	c #898E69",
"D 	c #55694C",
"E 	c #53654A",
"F 	c #526549",
"G 	c #53674B",
"H 	c #878B66",
"I 	c #556A4D",
"J 	c #586C4E",
"K 	c #596D4F",
"L 	c #898E68",
"M 	c #586C4D",
"N 	c #566A4B",
"O 	c #556949",
"P 	c #868B65",
"Q 	c #526445",
"R 	c #4F6245",
"S 	c #697860",
"T 	c #94B188",
"U 	c #6E8667",
"V 	c #617959",
"W 	c #617859",
"X 	c #4D6047",
"Y 	c #4C5E45",
"Z 	c #4C5D45",
"` 	c #4B5D44",
" .	c #4B5C44",
"..	c #4A5C43",
"+.	c #495C42",
"@.	c #495A42",
"#.	c #47583F",
"$.	c #364230",
"%.	c #41513A",
"&.	c #3F4E38",
"*.	c #4B5D43",
"=.	c #4A5C42",
"-.	c #4B5D42",
";.	c #838762",
">.	c #516347",
",.	c #9BA795",
"'.	c #425239",
").	c #273122",
"!.	c #516646",
"~.	c #516447",
"{.	c #A0AB9B",
"].	c #404F37",
"^.	c #262E20",
"/.	c #4C5F42",
"(.	c #4A5C40",
"_.	c #66755D",
":.	c #849F7B",
"<.	c #647B5D",
"[.	c #62795B",
"}.	c #607859",
"|.	c #4B5E45",
"1.	c #EBEBEB",
"2.	c #4A5D44",
"3.	c #4A5D43",
"4.	c #495C41",
"5.	c #495B41",
"6.	c #46583E",
"7.	c #41523A",
"8.	c #3A4933",
"9.	c #3A4833",
"0.	c #44553B",
"a.	c #44563C",
"b.	c #7E825E",
"c.	c #4D5F43",
"d.	c #46593E",
"e.	c #2E3A28",
"f.	c #425338",
"g.	c #4B5E41",
"h.	c #4A5D3F",
"i.	c #44563B",
"j.	c #2B3725",
"k.	c #3E4E35",
"l.	c #46583B",
"m.	c #46573A",
"n.	c #63725B",
"o.	c #9EA77E",
"p.	c #647B5C",
"q.	c #61785A",
"r.	c #DBDBDB",
"s.	c #495C43",
"t.	c #485A41",
"u.	c #3E4E38",
"v.	c #475940",
"w.	c #45583E",
"x.	c #405139",
"y.	c #374531",
"z.	c #2A3626",
"A.	c #3F5038",
"B.	c #405038",
"C.	c #7C7F5C",
"D.	c #46583C",
"E.	c #E8E8E8",
"F.	c #777777",
"G.	c #525252",
"H.	c #46573C",
"I.	c #415237",
"J.	c #3E4F34",
"K.	c #637159",
"L.	c #BFBFBF",
"M.	c #A0A87F",
"N.	c #4E6049",
"O.	c #3D4B38",
"P.	c #D9D9D9",
"Q.	c #939393",
"R.	c #E2E2E2",
"S.	c #909090",
"T.	c #8C8C8C",
"U.	c #DEDEDE",
"V.	c #8A8A8A",
"W.	c #DDDDDD",
"X.	c #797979",
"Y.	c #8B8B8B",
"Z.	c #D7D7D7",
"`.	c #878787",
" +	c #D5D5D5",
".+	c #7F7F7F",
"++	c #828282",
"@+	c #232C1F",
"#+	c #293424",
"$+	c #3D4D35",
"%+	c #797C59",
"&+	c #D2D2D2",
"*+	c #858585",
"=+	c #424242",
"-+	c #43543A",
";+	c #415339",
">+	c #C4C4C4",
",+	c #3F4F34",
"'+	c #3B4B31",
")+	c #606E56",
"!+	c #CACACA",
"~+	c #7C9472",
"{+	c #4F6149",
"]+	c #959595",
"^+	c #AFAFAF",
"/+	c #A9A9A9",
"(+	c #A7A7A7",
"_+	c #A4A4A4",
":+	c #A2A2A2",
"<+	c #9C9C9C",
"[+	c #9A9A9A",
"}+	c #969696",
"|+	c #949494",
"1+	c #8D8D8D",
"2+	c #898989",
"3+	c #868686",
"4+	c #434343",
"5+	c #C1C1C1",
"6+	c #2E3A29",
"7+	c #787B59",
"8+	c #D2CBB2",
"9+	c #C2AE68",
"0+	c #443D23",
"a+	c #415238",
"b+	c #3E4F35",
"c+	c #D7D1BB",
"d+	c #3C4C32",
"e+	c #39482F",
"f+	c #606F57",
"g+	c #BCBCBC",
"h+	c #7A9472",
"i+	c #42523D",
"j+	c #9E9E9E",
"k+	c #ACACAC",
"l+	c #DCDCDC",
"m+	c #D8D8D8",
"n+	c #D4D4D4",
"o+	c #7D7D7D",
"p+	c #D0D0D0",
"q+	c #727272",
"r+	c #656565",
"s+	c #383838",
"t+	c #2F3B29",
"u+	c #2E3A27",
"v+	c #3E4E36",
"w+	c #3F5036",
"x+	c #3E4D35",
"y+	c #323E2A",
"z+	c #2F3D27",
"A+	c #B9B9B9",
"B+	c #A0A77E",
"C+	c #F4F4F4",
"D+	c #8E8E8E",
"E+	c #999999",
"F+	c #848484",
"G+	c #808080",
"H+	c #D3D3D3",
"I+	c #CFCFCF",
"J+	c #6E6E6E",
"K+	c #616161",
"L+	c #363636",
"M+	c #B2B2B2",
"N+	c #2D3827",
"O+	c #787A57",
"P+	c #CDCDCD",
"Q+	c #979797",
"R+	c #353535",
"S+	c #3F4F36",
"T+	c #3C4D33",
"U+	c #CBCBCB",
"V+	c #303D28",
"W+	c #2E3B27",
"X+	c #5F6D55",
"Y+	c #7C9675",
"Z+	c #DFDFDF",
"`+	c #989898",
" @	c #A8A8A8",
".@	c #D6D6D6",
"+@	c #7B7B7B",
"@@	c #CCCCCC",
"#@	c #676767",
"$@	c #5F5F5F",
"%@	c #252F20",
"&@	c #2A3424",
"*@	c #2A3624",
"=@	c #3A4932",
"-@	c #D9B8AF",
";@	c #B53518",
">@	c #401107",
",@	c #3A4931",
"'@	c #D4AFA6",
")@	c #313E29",
"!@	c #2E3B26",
"~@	c #7C9573",
"{@	c #767676",
"]@	c #747474",
"^@	c #707070",
"/@	c #6C6C6C",
"(@	c #696969",
"_@	c #5D5D5D",
":@	c #585858",
"<@	c #303030",
"[@	c #293423",
"}@	c #394831",
"|@	c #34422C",
"1@	c #3D4D33",
"2@	c #313D28",
"3@	c #2E3A26",
"4@	c #5F6E55",
"5@	c #A1A880",
"6@	c #485843",
"7@	c #3A4634",
"8@	c #485941",
"9@	c #505050",
"0@	c #4F4F4F",
"a@	c #4D4D4D",
"b@	c #4B4B4B",
"c@	c #484848",
"d@	c #464646",
"e@	c #3D3D3D",
"f@	c #3B3B3B",
"g@	c #2A2A2A",
"h@	c #232D1F",
"i@	c #273222",
"j@	c #747654",
"k@	c #9F9F9F",
"l@	c #373737",
"m@	c #3D4D34",
"n@	c #303C27",
"o@	c #2D3A26",
"p@	c #5C6B53",
"q@	c #53664D",
"r@	c #41503B",
"s@	c #303D2C",
"t@	c #333F2D",
"u@	c #3A4934",
"v@	c #323E2C",
"w@	c #2C3827",
"x@	c #293324",
"y@	c #283323",
"z@	c #252F21",
"A@	c #212A1D",
"B@	c #222B1E",
"C@	c #2C3826",
"D@	c #313D2A",
"E@	c #747655",
"F@	c #4C4C4C",
"G@	c #34422D",
"H@	c #2F3C27",
"I@	c #2D3925",
"J@	c #5E6C55",
"K@	c #8CAB83",
"L@	c #6D8563",
"M@	c #495C44",
"N@	c #3C4B36",
"O@	c #253022",
"P@	c #2D3928",
"Q@	c #273223",
"R@	c #222A1D",
"S@	c #1F271B",
"T@	c #151B13",
"U@	c #1C2319",
"V@	c #273121",
"W@	c #717252",
"X@	c #405036",
"Y@	c #435639",
"Z@	c #293323",
"`@	c #303D29",
" #	c #36442E",
".#	c #232C1C",
"+#	c #323F29",
"@#	c #2F3C26",
"##	c #2B3723",
"$#	c #5E6C54",
"%#	c #90AD86",
"&#	c #718B67",
"*#	c #5C7153",
"=#	c #4A5E44",
"-#	c #35412F",
";#	c #2A3525",
">#	c #1B2219",
",#	c #1B2318",
"'#	c #161C14",
")#	c #141A12",
"!#	c #161B13",
"~#	c #11150E",
"{#	c #11150F",
"]#	c #10150F",
"^#	c #10140E",
"/#	c #10140D",
"(#	c #0F140D",
"_#	c #0B0F0A",
":#	c #171D14",
"<#	c #6E6E4F",
"[#	c #415338",
"}#	c #44573A",
"|#	c #34432C",
"1#	c #141911",
"2#	c #425337",
"3#	c #3F4F35",
"4#	c #3E4E34",
"5#	c #2B3724",
"6#	c #13180F",
"7#	c #35432B",
"8#	c #5B6752",
"9#	c #90AC84",
"0#	c #708967",
"a#	c #5B7154",
"b#	c #566B4E",
"c#	c #43543C",
"d#	c #727353",
"e#	c #283224",
"f#	c #68674B",
"g#	c #656348",
"h#	c #1E261A",
"i#	c #646146",
"j#	c #1C2418",
"k#	c #605D44",
"l#	c #181E15",
"m#	c #5F5B42",
"n#	c #161D14",
"o#	c #605C44",
"p#	c #1F2619",
"q#	c #717151",
"r#	c #36452E",
"s#	c #485A3C",
"t#	c #485C3D",
"u#	c #7E815B",
"v#	c #435539",
"w#	c #415236",
"x#	c #3C4D31",
"y#	c #777855",
"z#	c #36462D",
"A#	c #38472E",
"B#	c #5C6852",
"C#	c #708A67",
"D#	c #5B7153",
"E#	c #566C4F",
"F#	c #4F6547",
"G#	c #7F835F",
"H#	c #45563D",
"I#	c #7A7D5B",
"J#	c #3E4E37",
"K#	c #777857",
"L#	c #394832",
"M#	c #747555",
"N#	c #36442F",
"O#	c #737555",
"P#	c #36452F",
"Q#	c #737554",
"R#	c #35432E",
"S#	c #747554",
"T#	c #3B4B33",
"U#	c #7C7F5B",
"V#	c #5C6948",
"W#	c #80845E",
"X#	c #65724F",
"Y#	c #4A5E3F",
"Z#	c #7F845D",
"`#	c #45573A",
" $	c #596545",
".$	c #7A7E59",
"+$	c #4E5B3D",
"@$	c #777A55",
"#$	c #38462D",
"$$	c #39482D",
"%$	c #5B6952",
"&$	c #8DAA83",
"*$	c #718C67",
"=$	c #8B916B",
"-$	c #868D66",
";$	c #838763",
">$	c #4A5D42",
",$	c #45573E",
"'$	c #42543B",
")$	c #7A7C5A",
"!$	c #3C4C35",
"~$	c #3C4B34",
"{$	c #777A58",
"]$	c #3C4C34",
"^$	c #3B4B34",
"/$	c #777957",
"($	c #767857",
"_$	c #787B58",
":$	c #797B59",
"<$	c #7B7F5A",
"[$	c #7D815C",
"}$	c #7F845E",
"|$	c #81855F",
"1$	c #4D6141",
"2$	c #828760",
"3$	c #82875F",
"4$	c #4A5F3F",
"5$	c #7E825C",
"6$	c #ADADAD",
"7$	c #838383",
"8$	c #7A7A7A",
"9$	c #8BA981",
"0$	c #6E8765",
"a$	c #8A906A",
"b$	c #52674B",
"c$	c #4D6144",
"d$	c #47593F",
"e$	c #43553C",
"f$	c #415239",
"g$	c #3D4E36",
"h$	c #3D4C35",
"i$	c #787A58",
"j$	c #777A57",
"k$	c #425439",
"l$	c #475A3D",
"m$	c #495D3F",
"n$	c #4C6041",
"o$	c #4F6342",
"p$	c #838961",
"q$	c #4E6342",
"r$	c #4C6140",
"s$	c #A4AE9E",
"t$	c #C7CBBF",
"u$	c #494949",
"v$	c #666666",
"w$	c #B5B5B5",
"x$	c #C8C8C8",
"y$	c #AAAAAA",
"z$	c #8CA882",
"A$	c #6E8763",
"B$	c #888D68",
"C$	c #B5AE96",
"D$	c #746B48",
"E$	c #757756",
"F$	c #35422E",
"G$	c #435439",
"H$	c #4B5F40",
"I$	c #4E6242",
"J$	c #6D7954",
"K$	c #848961",
"L$	c #506443",
"M$	c #4D6241",
"N$	c #4D603F",
"O$	c #4B5F3E",
"P$	c #737373",
"Q$	c #555555",
"R$	c #6A6A6A",
"S$	c #ABA49A",
"T$	c #B1B1B1",
"U$	c #8AA67E",
"V$	c #6A8462",
"W$	c #868C66",
"X$	c #B4AC8F",
"Y$	c #B0A06A",
"Z$	c #394833",
"`$	c #6A694B",
" %	c #475A3C",
".%	c #4C6040",
"+%	c #848A61",
"@%	c #6E7A54",
"#%	c #506543",
"$%	c #4F6442",
"%%	c #4E6140",
"&%	c #899680",
"*%	c #B4BCAF",
"=%	c #7C7C7C",
"-%	c #ABA7A0",
";%	c #89A67F",
">%	c #6A8261",
",%	c #868A65",
"'%	c #847A51",
")%	c #323F2C",
"!%	c #21291C",
"~%	c #666347",
"{%	c #3F5136",
"]%	c #506544",
"^%	c #4F6441",
"/%	c #4D6240",
"(%	c #4B603E",
"_%	c #475A3A",
":%	c #606060",
"<%	c #7C9673",
"[%	c #6C8461",
"}%	c #868B66",
"|%	c #706F52",
"1%	c #68664B",
"2%	c #615D44",
"3%	c #625F45",
"4%	c #666247",
"5%	c #68664A",
"6%	c #6B6A4D",
"7%	c #615E44",
"8%	c #6A684B",
"9%	c #737553",
"0%	c #7A7D59",
"a%	c #81865F",
"b%	c #83875F",
"c%	c #4D6140",
"d%	c #96A18E",
"e%	c #B2BAAD",
"f%	c #A1A1A1",
"g%	c #758E6B",
"h%	c #6B8563",
"i%	c #54684B",
"j%	c #4E6245",
"k%	c #797C5A",
"l%	c #2E3B28",
"m%	c #33402C",
"n%	c #303C2A",
"o%	c #717152",
"p%	c #323E2B",
"q%	c #303D2A",
"r%	c #706F51",
"s%	c #2E3927",
"t%	c #676549",
"u%	c #293322",
"v%	c #2D3B26",
"w%	c #45563A",
"x%	c #495D3E",
"y%	c #83885F",
"z%	c #81855E",
"A%	c #7F835C",
"B%	c #7B7E59",
"C%	c #5B5B5B",
"D%	c #131313",
"E%	c #77906E",
"F%	c #768E69",
"G%	c #627958",
"H%	c #516648",
"I%	c #808560",
"J%	c #687151",
"K%	c #43553B",
"L%	c #7B7E5A",
"M%	c #626B4C",
"N%	c #405138",
"O%	c #7A7D5A",
"P%	c #626B4B",
"Q%	c #636C4D",
"R%	c #616A4B",
"S%	c #7A7E5A",
"T%	c #67704E",
"U%	c #6B7752",
"V%	c #838960",
"W%	c #4E6341",
"X%	c #4C603E",
"Y%	c #495B3C",
"Z%	c #455939",
"`%	c #3F5034",
" &	c #313D27",
".&	c #2B3622",
"+&	c #242D1D",
"@&	c #1E2618",
"#&	c #1A2115",
"$&	c #6A8161",
"%&	c #7D9D73",
"&&	c #77966B",
"*&	c #708E63",
"=&	c #57694A",
"-&	c #828761",
";&	c #4A5D40",
">&	c #485B3F",
",&	c #7F835E",
"'&	c #495C3E",
")&	c #485B3E",
"!&	c #7E835D",
"~&	c #7F835D",
"{&	c #485B3D",
"]&	c #4E6241",
"^&	c #4F6341",
"/&	c #82875E",
"(&	c #495C3C",
"_&	c #324029",
":&	c #33412A",
"<&	c #2E3A25",
"[&	c #293420",
"}&	c #252E1D",
"|&	c #202819",
"1&	c #1C2316",
"2&	c #313F2A",
"3&	c #739066",
"4&	c #93956C",
"5&	c #92946B",
"6&	c #4F6445",
"7&	c #9C9B70",
"8&	c #91926A",
"9&	c #4E6244",
"0&	c #9B996F",
"a&	c #4D6042",
"b&	c #919269",
"c&	c #919169",
"d&	c #4C5F41",
"e&	c #909068",
"f&	c #919168",
"g&	c #919268",
"h&	c #929368",
"i&	c #909066",
"j&	c #485C3B",
"k&	c #161B11",
"l&	c #769368",
"m&	c #B2AA7D",
"n&	c #B2AA7C",
"o&	c #526848",
"p&	c #B1A97C",
"q&	c #B1A97B",
"r&	c #B0A87A",
"s&	c #4C603F",
"t&	c #B0A779",
"u&	c #AFA679",
"v&	c #465839",
"w&	c #2E3925",
"x&	c #718E64",
"y&	c #DEC995",
"z&	c #506546",
"A&	c #4F6443",
"B&	c #4D6142",
"C&	c #4A5D3D",
"D&	c #445537",
"E&	c #2C3824",
"F&	c #65805A",
"G&	c #4D6143",
"H&	c #495C3D",
"I&	c #475A3B",
"J&	c #415335",
"K&	c #556C4B",
"L&	c #AFA77A",
"M&	c #AEA67A",
"N&	c #475A3E",
"O&	c #AEA679",
"P&	c #AEA579",
"Q&	c #465A3C",
"R&	c #AEA578",
"S&	c #46583A",
"T&	c #455739",
"U&	c #455738",
"V&	c #ADA477",
"W&	c #3F4F33",
"X&	c #313E26",
"                                                                                                ",
"                                                                                                ",
"                                                                                                ",
"                                                                              . + + + + +       ",
"                                                                            @ # $ % % & & +     ",
"                                                                            + * + + + + +       ",
"                                                                            + = +               ",
"                                                                            + % +               ",
"                                                                            + & +               ",
"                                                                            + & +               ",
"                                                                            + & +               ",
"                                                                            + & +               ",
"                                                                              & +               ",
"                                                                              & +               ",
"      + + + + + + + + + + + + + + + + + + + + + + + + + + + + + + + + + + + - & +               ",
"    ; > , ' ) ! ~ { ] ^ / ( _ : < [ } | 1 2 3 4 5 6 7 8 9 0 a b c d e f g h i & +               ",
"  + j k l m n o p q r s t u v w x y z A B C D E F G H I J K L M M N O P Q R S & +               ",
"  + T U m V W X Y Y Y Z Y `  .....+.@.#.$.%.&.*.=.-.;.>.,.'.).!.~.{.].^./.(._.& +               ",
"  + :.<.[.}.|.1.2.1.3.1...1.4.1.5.1.6.1.7.1.8.9.0.a.b.c.d.e.f.g.h.i.j.k.l.m.n.& + +             ",
"  + o.p.q.Y |.r.s.r.+.& t.& u.& v.& w.& x.& y.z.A.B.C.D.E.F.G.D.H.E.F.G.I.J.K.& + L.+           ",
"  + M.N.O.|.P.Q.R.S.R.T.U.V.W.X.r.Y.Z.`. +.+++@+#+$+%+0.&+*+=+-+;+>+*+=+,+'+)+& + !++           ",
"  + ~+{+1.r.]+^+/+/+(+_+:+<+[+[+}+|+1+2+3+X.4+5+:+6+7+-+8+9+0+a+b+c+9+0+d+e+f+& + g++           ",
"  + h+{+i+|.R.:+j+k+l+r.|+P.m+Z.3+n+o+p+q+r+s+t+u+u+v+a+c+9+0+w+x+c+9+0+y+z+f+& + A++           ",
"  + B+N.C+r.D+j+}+r.P.E+Y.2+ +F+G+H+p+I+J+K+L+M+3+N+O+a+P+Q+R+S+T+U+Q+R+V+W+X+& + ]++           ",
"  + Y+p.Y 2.Z+`+1+ @Z..@++G+H++@X.p+J+@@#@$@L+%@&@*@=@w+-@;@>@,@T+'@;@>@)@!@f+& + |++           ",
"  + ~@{+1.r.F+1+++G+o+X.{@{@]@^@/@(@r+K+_@:@<@M+3+[@}@k.'@;@>@|@1@'@;@>@2@3@4@& + |++           ",
"  + 5@6@7@8@G+_@9@0@a@b@c@d@- d@4+4+e@e@f@s+g@@+h@i@j@k.P+k@l@|@m@P+k@l@n@o@p@& + `++           ",
"  + ~@q@r@s@t@& u@& v@& w@& x@& y@& z@& h@& A@B@C@D@E@k.Y.F.F@G@m@Y.F.F@H@I@J@& + G.+           ",
"  + K@L@M@N@O@{@P@{@Q@{@Q@{@z@{@@+{@R@{@S@{@T@U@V@W@}@X@Y@Z@`@ #1@d+.#+#@###$#& + +             ",
"  + %#&#*#=#-#;#>#,#'#)#'#!#~#{#]#]#]#^#/#(#_#:#[@<#,@[#}#|#1#2#3#4#5#6#7#+#8#& +               ",
"  + 9#0#a#b#c#d#e#f#B@g#h#i#j#k#l#k#:#m#n#o#l#p#u+q#r#l.s#t#u#v#w#,+x#y#z#A#B#& +               ",
"  + 9#C#D#E#F#G#H#I#J#K#L#M#N#O#P#Q#N#Q#R#S#}@T#w+U#V#W#X#Y#Z#`# $.$+$@$#$$$%$& +               ",
"  + &$*$=$-$;$>$,$'$)$v+!$~${$]$^$]$/$($^$_$:$<$[$}$|$1$2$3$4$Z#5$6$7$7$7$7$8$& + + + + +       ",
"  + 9$0$a$b$c$d$e$f$7+g$h$!$i$$+h$k.T#j$m@%+k$l$m$n$o$p$o$q$r$s$t$V.u$u$u$u$v$& + w$x$@@y$+ +   ",
"  + z$A$B$g+C$D$7+g+C$D$E$g+C$D$/$g+C$D$F$_$G$l$H$I$J$K$L$o$M$N$O$++u$P$Q$R$v$& + S$T$& E+++ @+ ",
"  + U$V$W$X$Y$+ Z$X$Y$+ F$X$Y$+ e.X$Y$+ `$T#I. %.%q$+%@%#%$%%%&%*%=%u$u$u$u$v$& + -%w$& E+`+& & ",
"  + ;%>%,%'%+ + A@'%+ + )%'%+ + !%'%+ + ~%,@{%D.4$I$K$]%#%^%/%(%_%++u$:%R$:%v$& + (+& & E++ + & ",
"  + <%[%}%|%1%2%3%4%f#5%f#6%f#5%3%7%m#k#8%9%0%5$a%b%p$K$$%/%c%d%e%=%u$u$u$u$v$& + E+E+E+f%+   + ",
"  + g%h%i%j%k%l%m%6%n%n%o%p%q%r%s%A@t%u%v%%+w%x%3$q$#%$%y%3$z%A%B%v$+ + + + C%& + D%+ + +       ",
"  + E%F%G%H%I%J%K%L%M%N%O%P%a+L%Q%I.R%S%k$T%Z#.%U%V%$%W%3$X%Y%Z%`%A# &.&+&@&#&& +               ",
"  + $&%&&&*&=&-&g.;&}$>&h.,&'&)&!&l$ %~&{&Y#a%]&o$K$^&]&/&(&_&!@:&<&[&}&|&1&+ & +               ",
"    + + 2&3&4&5&6&7&8&9&0&8&a&b&c&d&e&e&H$e&f&]&g&h&/%b%i&j&H@k&+ + + + + + + & +               ",
"        + l&m&n&o&p&p&!.q&q&6&q&q&q$r&r&1$r&r&]&r&r&s&t&u&v&w&+ +           + & +               ",
"        + x&y&y&z&y&y&6&y&y&A&y&y&B&y&y&.%y&y&s&y&y&C&y&y&D&E&+             + & +               ",
"        + F&y&y&G&y&y&n$y&y&H$y&y&Y#y&y&H&y&y& %y&y&I&y&y&J&@#+             + & +               ",
"        + K&L&L&h.M&u&N&O&O& %O&P&Q&R&R&S&R&R&T&R&R&U&V&V&W&X&+             + & +               ",
"          + + + + + + + + + + + + + + + + + + + + + + + + + +               + & +               ",
"                                                                              +                 "};
