/* XPM */
static char * out_arrow_xpm[] = {
"10 12 21 1",
" 	c None",
".	c #000000",
"+	c #ECD6A4",
"@	c #FAF7E9",
"#	c #D1940C",
"$	c #F9F5E5",
"%	c #FAF5E5",
"&	c #FAF5E3",
"*	c #F5EBC4",
"=	c #EED680",
"-	c #F7EECD",
";	c #E4C379",
">	c #AC7A09",
",	c #765305",
"'	c #B69B5C",
")	c #9E7009",
"!	c #825C06",
"~	c #8E6407",
"{	c #684905",
"]	c #BC850A",
"^	c #624504",
"    .     ",
"    ..    ",
"    .+.   ",
".....@#.  ",
".$%%&*=#. ",
".-======#.",
".;>#>#>#,.",
".')!~>#{. ",
".....]{.  ",
"    .^.   ",
"    ..    ",
"    .     "};
