/* XPM */
/* created by gandalf@pobox.com */
static char *gnotes_xpm[] = {
/* width height num_colors chars_per_pixel */
"    40    40       98            2",
/* colors */
".. c #aeacae",
"., c #aeacae",
".# c #848284",
".a c #c4c2c4",
".b c #e4e2dc",
".c c #a4a294",
".d c #d4d2cc",
".e c #c4b6a4",
".f c #a4aebc",
".g c #f4f2e4",
".h c #94928c",
".i c #bcb2a4",
".j c #746e64",
".k c #e4d2c4",
".l c #a4968c",
".m c #d4c2ac",
".n c #b4a69c",
".o c #d4beac",
".p c #eceae4",
".q c #c4beb4",
".r c #5c5a54",
".s c #fcfaec",
".t c #9c9a94",
".u c #d4cabc",
".v c #e4dacc",
".w c #acaeac",
".x c #ccb6a4",
".y c #9c9284",
".z c #f4e6dc",
".A c #acaeac",
".B c #dcdad4",
".C c #fcf2ec",
".D c #bcbebc",
".E c #7c7e74",
".F c #a4aea4",
".G c #ecdacc",
".H c #948a84",
".I c #ece2d4",
".J c #aca294",
".K c #dcd2c4",
".L c #bcb6a4",
".M c #a49e94",
".N c #d4c6bc",
".O c #f4eadc",
".P c #fcfefc",
".Q c #dccabc",
".R c #a4a6a4",
".S c #9c9694",
".T c #ccc2b4",
".U c #c4baac",
".V c #f4f2f4",
".W c #74726c",
".X c #e4d6c4",
".Y c #d4c6b4",
".Z c #b4aa9c",
".0 c #ccbeac",
".1 c #fcfef4",
".2 c #ccbaa4",
".3 c #9c968c",
".4 c #aca6a4",
".5 c #ecdecc",
".6 c #ece6d4",
".7 c #f4eee4",
".8 c #dccebc",
".9 c #a4a6a4",
"#. c #8c827c",
"## c #d4d6d4",
"#a c #c4b6ac",
"#b c #a4a2ac",
"#c c #f4f2ec",
"#d c #94968c",
"#e c #bcb2ac",
"#f c #746e6c",
"#g c #a49a8c",
"#h c #d4c2b4",
"#i c #acaeac",
"#j c #fcfaf4",
"#k c #9c9a9c",
"#l c #e4ded4",
"#m c #a4a2a4",
"#n c #9c928c",
"#o c #545654",
"#p c #fcf6ec",
"#q c #bcaea4",
"#r c #948e84",
"#s c #aca69c",
"#t c #dcd6c4",
"#u c #bcb6ac",
"#v c #ac9e94",
"#w c #f4eae4",
"#x c #acaaac",
"#y c #e4d6cc",
"#z c #b4aaa4",
"#A c #ccbeb4",
"#B c #ccbaac",
"#C c #ecded4",
"#D c #ece6dc",
"#E c #dccec4",
/* pixels */
".,.,.,.,.,.,.,.,.,.,.,.,.,.,.,.,.,.,.,.,.,.,.,.,.,.,.,.,.,.,.,.,.,.,.,.,.,.,.,.,",
".,.,.,.,.,.,.,.,.,.,.,.,.,.,.,.,.,.,.,.,.,.,.,.,.,.,.,.,.,.,.,.,.,.,.,.,.,.,.,.,",
".,.,.,.,.,.,.,.,.,.,.,.,.,.,.,.,.,.,.,.,.,.,.,.,.,.,.,.,.,.,.,.,.,.,.,.,.,.,.,.,",
".,.,.,.,.,.,.,.,.,.,.,.,.,.,.,.,.,.,.,.,.,.,.,.,.,.,.,.,.,.,.,.,.,.,.,.,.,.,.,.,",
".,.,.,.,.,.,.,.,.,.,.,.,.,.,.,.,.,.,.,.,.,.,.,.,.,.,.,.,.,.,.,.,.,.,.,.,.,.,.,.,",
".,.,.,.,.,.,.,.,.,.,.,.,.,.,.,.,.,.,.,.,.,.,.,.,.,.,.,.,.,.,.,.,.,.,.,.,.,.,.,.,",
".,.,.,.,.,.,.,.,.,.,.,.,.,.,.,.,.,.,.,.,#..i.u.f.,.,.,.,.,.,.,.,.,.,.,.,.,.,.,.,",
".,.,.,.,.,.,.,.,.,.,.,.,.,.,.,.w#i.e.T.v.X.X.X.y.,.,.,.,.,.,.,.,.,.,.,.,.,.,.,.,",
".,.,.,.,.,.,.,.,.,.,#b#b#g#g.v.5.G.v.v.v#y#y.X.u.9.,.,.,.,.,.,.,.,.,.,.,.,.,.,.,",
".,.,.,.,.,.,.,#o.8.K.X#y.v#C#l.G.v.v.G.v.v.X#y.X.j.,.,.,.,.,.,.,.,.,.,.,.,.,.,.,",
".,.,.,.,.,.,.,.T.8.Q.8.k.v.v.v.v.G.v.v#y.X.X.X.X#A.9.,.,.,.,.,.,.,.,.,.,.,.,.,.,",
".,.,.,.,.,.,.c.7.X#h.Y.8.X.X.G.v.X.v.X.X#y.X#y.X.X#b.,.,.,.,.,.,.,.,.,.,.,.,.,.,",
".,.,.,.,.,.h.7.7.v.0.m.Q.k#y.X.X.X.X.v#y.X#y.X#y#y.J.9.,.,.,.,.,.,.,.,.,.,.,.,.,",
".,.,.,.,.r#D.7.7#w.2#B.Y.Q.K.X#y.X#y.X.X.X.0.Z#q.0#y#b.,.,.,.,.,.,.,.,.,.,.,.,.,",
".,.,.,.,#s#c.5.k#B.x.2.m.Q.8.k.H.u.Q.i.X#A.M.0#s.3.Y.n.9.,.,.,.,.,.,.,.,.,.,.,.,",
".,.,.,.,#s.m.x.e.2.2.0#h.Q.8.K.Q.M#v#q#y.n#q.J#A.k#y.v#b.,.,.,.,.,.,.,.,.,.,.,.,",
".,.,.,.,.H.Y.o.0.m.o.e.Y.8.Q.Y.n.J#n.v.u#s#q.K#y.v.v.v.n.9.,.,.,.,.,.,.,.,.,.,.,",
".,.,.,.,.r#E.0.Y#h.Y.y.0#E#q#r.M.K#q.U.0.q.v.G.0.L.G.v.v.j.,.,.,.,.,.,.,.,.,.,.,",
".,.,.,.,#x#y.3#q#A.Y#h.Z#q#q.u.Z#a#C#r.Y#r.n#r#s#E#l.G.5.T.9.,.,.,.,.,.,.,.,.,.,",
".,.,.,.,.w.5.X#q.J#s.U.J#g#l.5#E#s.I.N#u#y.8#C.5#C.5#C#l.5#f.,.,.,.,.,.,.,.,.,.,",
".,.,.,.,.9.F.I.T#A#t#A.l.#.Z#z.J#t.6.I.u.v.I.I.I.I.5.I#C#C.K.9.,.,.,.,.,.,.,.,.,",
".,.,.,.,.9#e#D.K#u.I.I#C.i.T#D#D.z#D.z#D#D.I#D.I.I.I.I.I.I#C#g.,.,.,.,.,.,.,.,.,",
".,.,.,.,.,.S#w#D#z#D.z#D.O.p.O.O.z.O.p.z.O.z#D.z#D#D.I.I.I.I.I#b.,.,.,.,.,.,.,.,",
".,.,.,.,.,.9.g.C#l.O.7.7.O.7#w.7.7.O.O.O.p.O.O#D.z.6.z#D.I.I.I.U.,.,.,.,.,.,.,.,",
".,.,.,.,.,.9.p.g.C.g.C.g.7.7.7.7.7.7.7.7.7.O.O.O.O.p.z#D.z#D.I.I.W.,.,.,.,.,.,.,",
".,.,.,.,.,.9.d#p#p#c.C.g.C.g.C.7.g.7.g.7.7.7.7.O.p.O.O#D.z.6.z.6#t.9.,.,.,.,.,.,",
".,.,.,.,.,.,.t#j#j.s#c#p#p.g.C.g.C.C.g.C.g.7.7.7.O.O.O.O.p.z#D.z.I.U.,.,.,.,.,.,",
".,.,.,.,.,.,#i.P#j#j#j#p#c#p#c#p.g#c.C.g.C.7.7.7.7.7.O.O.O#D.z#D.v.H.,.,.,.,.,.,",
".,.,.,.,.,.,.9.b.P#j#j#j#j#j.s#p#p#p#p#c.C.g.C.g.7#w.7.O.O.O.p.i#o.w.9.,.,.,.,.,",
".,.,.,.,.,.,.w.a.1.P.1#j#j#j#j#c#j.s#c#p#c#p.g.C.7.g.7#w.O.F.4...9.w.w.,.,.,.,.,",
".,.,.,.,.,.,.9.#.P.P.P.P.1#j#j#j#j#p.s#p#p.g.C.g.C.g.7#u#o.....9#m#m.9.,.,.,.,.,",
".,.,.,.,.,.,.,#m.P.P.P.P.P.P.1#j#j#j#j#c.s#p#c.C.b#s.......9.w.R#m.w.,.,.,.,.,.,",
".,.,.,.,.,.,.,.w##.P.P.P.P.P.P.P#j#j#j#j.V#p.B#d.......9.w.R#m.w.9.,.,.,.,.,.,.,",
".,.,.,.,.,.,.,.9#k.P.P.P.P.P.P.1#j.1#j.s.D.E.......9.w.w#m.w.9.,.,.,.,.,.,.,.,.,",
".,.,.,.,.,.,.,.,.w.P.P.P.P.P.P.P.P#l.A.....9.9.w.w.w.w.9.,.,.,.,.,.,.,.,.,.,.,.,",
".,.,.,.,.,.,.,.,.9##.P.P.P.P.V.a.#.......w.w#m.w.w.9.9.,.,.,.,.,.,.,.,.,.,.,.,.,",
".,.,.,.,.,.,.,.,.9.#.P.V.a#k.....9.9.w.w.w.w#m.w.9.,.,.,.,.,.,.,.,.,.,.,.,.,.,.,",
".,.,.,.,.,.,.,.,.,.w#m.w.9.9.9.w.R.R#m.w.9.9.,.,.,.,.,.,.,.,.,.,.,.,.,.,.,.,.,.,",
".,.,.,.,.,.,.,.,.,.,.,.,.,.,.,.,.,.,.,.,.,.,.,.,.,.,.,.,.,.,.,.,.,.,.,.,.,.,.,.,",
".,.,.,.,.,.,.,.,.,.,.,.,.,.,.,.,.,.,.,.,.,.,.,.,.,.,.,.,.,.,.,.,.,.,.,.,.,.,.,.,"
};
