/* XPM */
static char *date_xpm[] = {
/* width height num_colors chars_per_pixel */
"    60    10      192            2",
/* colors */
".. c #1a1c10",
".# c #1e2014",
".a c #202215",
".b c #232418",
".c c #27291c",
".d c #27291d",
".e c #292b1f",
".f c #2c2e22",
".g c #2d2e22",
".h c #2d2f23",
".i c #303225",
".j c #313226",
".k c #313327",
".l c #323426",
".m c #353629",
".n c #36382c",
".o c #3b3b2f",
".p c #3b3c31",
".q c #3b3d2f",
".r c #3f3f34",
".s c #414336",
".t c #424437",
".u c #434338",
".v c #454739",
".w c #47473c",
".x c #474a3c",
".y c #48493e",
".z c #484a3d",
".A c #4b4d3f",
".B c #4d4d42",
".C c #4d4f41",
".D c #4d4f44",
".E c #4e5042",
".F c #4e5043",
".G c #4e5142",
".H c #4f4f44",
".I c #515146",
".J c #535447",
".K c #535548",
".L c #53554a",
".M c #57574b",
".N c #57574c",
".O c #5b5b50",
".P c #5c5c50",
".Q c #5c5d52",
".R c #5d5f51",
".S c #616156",
".T c #626458",
".U c #66685a",
".V c #67675d",
".W c #67695b",
".X c #67695d",
".Y c #686a60",
".Z c #696a61",
".0 c #6a6d5f",
".1 c #6c6c60",
".2 c #6c6c61",
".3 c #6e6e62",
".4 c #707167",
".5 c #707268",
".6 c #717266",
".7 c #727268",
".8 c #727466",
".9 c #73746a",
"#. c #737568",
"## c #76776d",
"#a c #77776a",
"#b c #77796b",
"#c c #77796e",
"#d c #78786a",
"#e c #78786b",
"#f c #78796f",
"#g c #787a6f",
"#h c #79796f",
"#i c #797a70",
"#j c #7a7a6c",
"#k c #7a7b70",
"#l c #7a7c71",
"#m c #7b7b6d",
"#n c #7b7c72",
"#o c #7b7d72",
"#p c #7c7e71",
"#q c #7d7e73",
"#r c #7d7f72",
"#s c #7d7f74",
"#t c #7e7e75",
"#u c #7f7f72",
"#v c #7f8075",
"#w c #7f8173",
"#x c #7f8176",
"#y c #808176",
"#z c #808277",
"#A c #828378",
"#B c #828478",
"#C c #838579",
"#D c #848476",
"#E c #84847b",
"#F c #84857a",
"#G c #858577",
"#H c #85867b",
"#I c #85877b",
"#J c #87887d",
"#K c #87897d",
"#L c #888a7e",
"#M c #898a7e",
"#N c #8a8a81",
"#O c #8a8c80",
"#P c #8b8b82",
"#Q c #8b8c7f",
"#R c #8b8d81",
"#S c #8c8d81",
"#T c #8c8e82",
"#U c #8d8d7f",
"#V c #8d8d84",
"#W c #8d8f82",
"#X c #8e8e85",
"#Y c #8e9083",
"#Z c #8f8f85",
"#0 c #8f9184",
"#1 c #8f9185",
"#2 c #909086",
"#3 c #909087",
"#4 c #919286",
"#5 c #919386",
"#6 c #929487",
"#7 c #94928c",
"#8 c #94948a",
"#9 c #94948b",
"a. c #949689",
"a# c #94968c",
"aa c #959587",
"ab c #969688",
"ac c #96988a",
"ad c #96988b",
"ae c #97978d",
"af c #97998c",
"ag c #99998b",
"ah c #99998f",
"ai c #999b8d",
"aj c #999b8e",
"ak c #9a9c8e",
"al c #9b9b8c",
"am c #9b9b91",
"an c #9b9d8f",
"ao c #9c9c92",
"ap c #9c9e90",
"aq c #9d9e91",
"ar c #9e9e93",
"as c #9e9e94",
"at c #9ea092",
"au c #9f9f94",
"av c #9f9f95",
"aw c #9fa193",
"ax c #a1a194",
"ay c #a1a196",
"az c #a1a197",
"aA c #a6a69b",
"aB c #a7a79c",
"aC c #a8a89d",
"aD c #a9a99e",
"aE c #aaaa9f",
"aF c #abab9d",
"aG c #acaca0",
"aH c #adada2",
"aI c #aeaea2",
"aJ c #afafa3",
"aK c #b0b0a1",
"aL c #b0b0a5",
"aM c #b1b1a2",
"aN c #b1b1a5",
"aO c #b2b2a7",
"aP c #b3b3a7",
"aQ c #b4b4a8",
"aR c #b4b6a4",
"aS c #b4b6ac",
"aT c #b5b5a9",
"aU c #b6b6aa",
"aV c #b7b7ab",
"aW c #b8b8ac",
"aX c #b9b9ac",
"aY c #babaae",
"aZ c #bbbbaf",
"a0 c #bcbcaf",
"a1 c #bdbdb1",
"a2 c #bfbfb2",
"a3 c #c0c0b3",
"a4 c #c0c0b4",
"a5 c #c1c1b4",
"a6 c #c2c2b5",
"a7 c #c3c3b7",
"a8 c #c4c4b7",
"a9 c #c5c5b8",
/* pixels */
"aRa2#G#jaba5a9a8aXaMa7a9aF#j#jaxa6a9aF#j#jaba5a9a9a9a7aKaKa7#G#d#a#jaba5a8aT#D#maFa7agaaaaaaaga5a5ab#j#DaTa8a3#U#jaba5a9",
"#7.C.n.L.c.Uap.0.l.Cadaw.s.y.D.b.Wap.s.y.L.c.Ranawaq#..a.Aad.f.t.L.L.6af#w.e.y.L#ban.z.t.t.t..#T.G.k.L.t.ja..v.n.L.f.Eaj",
"aR.w#t#N.V.PaT.S.B.SaIa9#V#N#N.S.SaU#V#N#N.P.SaQa8aD.w.M.SaI.B.7#N#2aAa1.N.V#N#ZaEa3#Z#N#N.S.Mah.B.2#N#N.oas.r#E#N#t.uaE",
"#7...4#c.L.f#I.4.t.t#Maw#W#O.9.f.y#S#S.8.p.n.Y#0#Q.g.Q.t.t#M.f.c.f.Ja.at.#.p.f.q#pap#Y#K.Z.#.T#B.D.b.t.t.t#f.#.Y#C.4..#f",
"aS.o#NaN.7.Bamae.S.SaDa9a9a2.1.B#NaOa4au.7.B.2aV.O.V#N.S.SaD#t#N#t.w#ua3.o#h#N.V.HaUa9a0.S.M#NaW.V.P.V.B.Pav.S.w.3.M.o#N",
"#7.#.4#6.L.k#o#M.t.t#Mawak.K.c.Y#kakap#S.4.L.f#W.#.f.f.b.b.F#q.9.4.t.t#5...4.5.4..#xat#r.#.T#yat.#.Y.4.4.c.X.4.T.L.Q.c.5",
"aR.I.2aG.P.SasaD.S.SaDa9#e.w#E#PaWa9alaZaz.S.May#N#N#N.S.S#Naga1ao.B.2aH.I.VaO.7.w#Za0.S.M#NaWa9.u.7as#E.u#taB#X#N.I.Vae",
"a#.Q.c.f.f.Y#R.h.b.b.had...f.f.g.xai.m.d.c.k.Y#J#x#g.4.t.t#k.m.d.c.p.4#5.Y.f.f.f.Q#q#r.#.T#yataw.Q.c.g.f.y.5.0.i.f.t.4#R",
"aS#N#N#N#N#9a0#N#N#N#NaJ#N#N#N#N#VaT#N#N#N#N#8aYa9a9aL#N#NaL#N#N#N#Nava3#3#N#N#N#NaPar#N#NaWa9a9#N#N#N#N#NaCas#N#N#Naya2",
"#7#4#y#l#Fa.at#B#####Bad#s#f#n#s#Mai#H#i#i#Facatawawaj#Y#Yaj#H#i#n#Laiawa.#F#n#A#5aq#6#I#4atawaw#4#y#l#x#Tak#1#z#v#Rajaw"
};
