/* XPM */
static char * hour_xpm[] = {
"5 11 3 1",
" 	c None   ",
".      c #596b5e",
"x      c #000000",
" ... ",
" .x. ",
" .x. ",
" .x. ",
" .x. ",
" .x. ",
" .x. ",
" .x. ",
" .x. ",
" .x. ",
" ... "};


