/* XPM */
static char *led_xpm[] = {
/* width height num_colors chars_per_pixel */
"   180    12      242            2",
/* colors */
".. c #9fa193",
".# c #9a9c8e",
".a c #5a5c4e",
".b c #313226",
".c c #1b1d11",
".d c #1a1c10",
".e c #323326",
".f c #626556",
".g c #9b9d8f",
".h c #9ea092",
".i c #98998c",
".j c #404234",
".k c #1d1f12",
".l c #47483b",
".m c #999b8e",
".n c #505244",
".o c #1c1d11",
".p c #25271a",
".q c #595b4d",
".r c #97998c",
".s c #393b2d",
".t c #24261a",
".u c #515345",
".v c #8d8f81",
".w c #383b2d",
".x c #585a4c",
".y c #9c9e90",
".z c #6e7061",
".A c #323426",
".B c #303124",
".C c #1c1e11",
".D c #696b5d",
".E c #949689",
".F c #26281b",
".G c #898b7d",
".H c #6b6e60",
".I c #38392c",
".J c #1a1c11",
".K c #2b2d1f",
".L c #626455",
".M c #8f9182",
".N c #2a2c1f",
".O c #c4c4b7",
".P c #b0b0a4",
".Q c #525246",
".R c #3b3b2f",
".S c #4d4d42",
".T c #3f3f34",
".U c #7f7f72",
".V c #c0c0b3",
".W c #c5c5b8",
".X c #a5a59a",
".Y c #434338",
".Z c #6c6c61",
".0 c #afafa3",
".1 c #5c5c50",
".2 c #aeaea2",
".3 c #a7a79c",
".4 c #515146",
".5 c #47473c",
".6 c #a8a89d",
".7 c #c3c3b7",
".8 c #a4a497",
".9 c #7e7e75",
"#. c #a2a298",
"## c #67675d",
"#a c #545448",
"#b c #8b8b82",
"#c c #96968d",
"#d c #97978d",
"#e c #9c9c8f",
"#f c #adada1",
"#g c #9a9a8d",
"#h c #96988b",
"#i c #36382c",
"#j c #27291c",
"#k c #626458",
"#l c #707167",
"#m c #686a60",
"#n c #232418",
"#o c #313327",
"#p c #8e9083",
"#q c #65665b",
"#r c #8c8e82",
"#s c #2c2e22",
"#t c #7f8176",
"#u c #87887d",
"#v c #3b3c31",
"#w c #1e2014",
"#x c #75776c",
"#y c #9d9e91",
"#z c #737568",
"#A c #5c5d52",
"#B c #96988a",
"#C c #7a7c71",
"#D c #48493e",
"#E c #7e8074",
"#F c #424437",
"#G c #7d7e73",
"#H c #94928c",
"#I c #89897e",
"#J c #8a8a81",
"#K c #909087",
"#L c #94948a",
"#M c #a1a196",
"#N c #bebeb2",
"#O c #bbbbaf",
"#P c #bdbdb1",
"#Q c #a9a99e",
"#R c #9b9b91",
"#S c #98988e",
"#T c #99998f",
"#U c #95958b",
"#V c #919188",
"#W c #bfbfb2",
"#X c #7a7a6e",
"#Y c #616156",
"#Z c #57574b",
"#0 c #8e8e85",
"#1 c #b9b9ac",
"#2 c #9e9e93",
"#3 c #87877c",
"#4 c #84847b",
"#5 c #929288",
"#6 c #a4a499",
"#7 c #babaae",
"#8 c #b8b8ac",
"#9 c #a3a398",
"a. c #79796f",
"a# c #b6b6aa",
"aa c #9d9d92",
"ab c #b4b6a4",
"ac c #949485",
"ad c #5f5f52",
"ae c #57574a",
"af c #68685b",
"ag c #b2b2a6",
"ah c #7e7e70",
"ai c #848477",
"aj c #5a5a4d",
"ak c #6f6f62",
"al c #aaaa9e",
"am c #939385",
"an c #c1c1b4",
"ao c #707062",
"ap c #8f9184",
"aq c #7d7f74",
"ar c #76786e",
"as c #525345",
"at c #888a7e",
"au c #222417",
"av c #86887c",
"aw c #999b8d",
"ax c #414336",
"ay c #808277",
"az c #898b7f",
"aA c #77796b",
"aB c #202215",
"aC c #47493b",
"aD c #4a4c3f",
"aE c #8c8d81",
"aF c #84857a",
"aG c #53554a",
"aH c #8e8f83",
"aI c #78796f",
"aJ c #4d4f44",
"aK c #8a8c7f",
"aL c #525545",
"aM c #3c3e30",
"aN c #3b3d2f",
"aO c #4b4d3f",
"aP c #9b9b90",
"aQ c #9f9f95",
"aR c #6c6c60",
"aS c #8c8c82",
"aT c #b2b2a5",
"aU c #545449",
"aV c #b5b5a9",
"aW c #79796d",
"aX c #bcbcaf",
"aY c #5e5e51",
"aZ c #acaca0",
"a0 c #c2c2b5",
"a1 c #abab9f",
"a2 c #b2b2a7",
"a3 c #aaaa9f",
"a4 c #b4b6ac",
"a5 c #93938a",
"a6 c #727268",
"a7 c #acaca1",
"a8 c #919286",
"a9 c #8f9185",
"b. c #919386",
"b# c #7b7d72",
"ba c #444639",
"bb c #88897c",
"bc c #383b2e",
"bd c #8a8c80",
"be c #46483c",
"bf c #85877b",
"bg c #27291d",
"bh c #818377",
"bi c #7f8075",
"bj c #7c7c70",
"bk c #a1a197",
"bl c #96968c",
"bm c #909086",
"bn c #94948b",
"bo c #5b5b4f",
"bp c #b9b9ad",
"bq c #a0a095",
"br c #b0b0a5",
"bs c #2e3023",
"bt c #343527",
"bu c #484a3c",
"bv c #303225",
"bw c #7b7c72",
"bx c #303224",
"by c #717268",
"bz c #525445",
"bA c #363729",
"bB c #94968c",
"bC c #898a7e",
"bD c #9c9c92",
"bE c #b1b1a5",
"bF c #b7b7ab",
"bG c #828478",
"bH c #909285",
"bI c #76776d",
"bJ c #9b9d90",
"bK c #95978a",
"bL c #929487",
"bM c #727469",
"bN c #87897d",
"bO c #84867a",
"bP c #939487",
"bQ c #b4b4a8",
"bR c #8c8c83",
"bS c #8f8f85",
"bT c #adada2",
"bU c #c4c6bc",
"bV c #c4c2b4",
/* pixels */
".....#.a.b.c.d.c.e.f.g.....h.......i.j.k.l...h.....m.n.o.d.d.d.d.d.p.q.#...r.s.c.d.d.d.d.t.u.m.h...........h.v.w.c.o.x.h...r.s.c.d.d.d.d.d.c.s.h.....y.z.n.A.B.c.d.C.D.....E.F.d.d.d.d.d.d.d.k.G...y.H.I.c.d.d.d.J.K.L.g...h.M.u.N.J.d.J.K.L.g...............h.....h.....h.....h.......h.h...h.....h.....h.....h.......h.h...h.....h.....h.....h.....h.....h.......h.h..",
".O.P.Q.R.R.S.S.T.R.R.U.V.W.W.W.W.W.X.Y.R.Z.W.W.W.W.0.1.S.S.S.S.S.R.R.S.2.W.3.4.S.S.S.5.R.R.R.6.W.W.W.W.W.7.8.5.R.R.R.9.W.W#..T.R.5.S.S.S.S.S##.W.O.P#a.R.R.S.S.S.S.S#b.W.O#c.S.S.S.S.S.S.T.R.S#d.7#e.R.R.5.S.S.S.R.R.Y.2.O#f.5.R.T.S.S.T.R.R#g.7.W.W.W.W.W.W.W.W.W.W.W.W.W.W.W.W.W.W.W.W.W.W.W.W.W.W.W.W.W.W.W.W.W.W.W.W.W.W.W.W.W.W.W.W.W.W.W.W.W.W.W.W.W.W.W.W.W.W.W.W",
"#h#i.d#j#k#l#l#m#n.d#o#p.........h#q.d.d#m........#r#l#l#l#l#l#l#i.d#s#t..#u#l#l#l#l#l#v.d#w#x........#y#z#w.d#s.d#n#l..#y#A.d.d#m#l#l#l#l#l#l..#B#o.d#o#m#l#l#l#l#l#C...h#t#l#l#l#l#l#D.d#w#k#E.E#i.d#F#l#l#l#l#v.d#s#G#h#i.d#s#m#l#l#m#n.d#F#h........................#H..............................................................................................",
"#I.R.R.9#J#K#L#J.1.R.S#M.W#N.W.W#O##.R.5#J.W#N.W.W#P#Q#R#S#S#d.9.Y.R.1#R.W#O.X#T#S#U.9.Y.R.1#V#N.W.W#W#X.R.R###Y.R#Z#0#N#1#Y.R.5#J#U#S#S#S#2.2#N#3.R.T#4#J#5#S#S#S#6#7.W.O#8#9#S#S#5##.R.Ta.#Ja#.3.4.R#Y#J#d#d.9.Y.R.Zaa.X.Y.R.4#J#L#L#J.S.R#Y.2.W.W.W.W.W.W#N.W.W#N.W.Wabacadaeafag.Oahaiajakalafajaman.W.W.W#N.W.W.W#Nahaiajao#P.Wahaiajakalafajaman.W.W#N.W.W.W#N#N.W",
"#v.d#i#lap.h.haq#o.d#F#t........#r#i.d#var.........mas.N.J.d.d.d.d#n#mat...Eau.d.d.d.d.d#v#lav....awax.d#w#A#l#s.d#Day..az#o.d.d.d.d.d.c.AaA#y..#v.d.d.d.d.d.daBaCaw.............maD.d#w#A#laE.haFaG.d.d.d.d.d.d#w#D#laHaI#n.d.d.d.d.d.d.d.daJaK...maLaM.r..............#H#q#k#l#FaN#h.d#D#l#o#o#k#A#naH.................daJ#l#oaO.m.d#D#l#o#o#k#A#naH..................",
".5.R.ZaP.7.W.WaP.T.R.Z.3.W#N.W.WaQ.Y.R.Z#9.W#N.W#NaR.R.R.5.S.S.S#Y#4#J#O.7aS.S.S.S.Y.R.R.4#b#P#NaTaU.R.5.9#J#J.R.R.9.2#NaQ.4.S.S.S.S.T.R.R.4aV#N.5.R.5.S.S.S.Y.R.RaW.V.W.W.W.WaXaY.R.Ta.#JaZa0.Wa1.1.R.Y.S.S.5.R.R#Y#S.V#R.9.1.S.S.S.S.Y.R.R.9a2.Wa3.Y.4.3.W#N.W.W#N.W.Wa4a5#Y.4.5.S.3.R#J#J#Y#Y#J#J.R#d.W.W.W#N.W.W.W#N.R#J#Ja6.Sa7.R#J#J#Y#Y#J#J.R#d.W.W#N.W.W.W#N#N.W",
".d.daG#r.....m#F.d#w#ma8...h...h#q.d.d#ma9...h..at#w.d#F#l#l#l#l#l#lb..h.yb##l#l#l#l#v.d.db#...h#o.d.d#v#Fba#i.d.d#Fbb.h#u#l#l#l#l#l#l#j.d#saF.h.d.daG#l#l#laG.d.daG.E.......ibc.d#w#A#lbd#y....be.d#n#m#l#l#l#j.d#sbf..b.#l#l#l#l#l#l#s.d#s#l.i..aF#l#l#u...h.....h....#Hbg#F#maG#s#G.d#lbh#F#Fay#l.d#l.......h.......h.d#lazaG#sbi.d#lbh#F#Fay#l.d#l.....h.......h.h..",
".T.R#Z.0.W.Vbj.T.R###J#N.W.W.W#O##.R.5#J#N.W.W.Wa6.R.R#4#J#d#Saaa1aX.O.W.7a#bk#Sbl#J.S.R.5bm.W.W.T.R.R.R.R.R.R.R.R.T#9.W#O.X#T#S#Sbn#4.T.R#Y#2.W.R.R#Y#J#S#J#Y.R.T#J#8.W.WaXbo.R.Ta.#JaZa0.W.W.W.Y.R.1#Jbnbl#4.T.R.1aQ.W.7bp.6#R#S#V#Y.R.Ra.#T.7.W#8bq#9#O.W.W.W.W.W.W.Wab.R#4#J##.S#S.R#J#Q#Y#Y#Q#J.R#J.W.W.W.W.W.W.W.W.R#Jbr.1#Yaa.R#J#Q#Y#Y#Q#J.R#J.W.W.W.W.W.W.W.W.W",
"#v.d.d#n.B#n.d.d#F#lat.h......#r#i.d#var.h......#F.d#w#sbs.b.b.bbtaA#y..bu.A.b.bbv#n.d.daJbw....aGaGaGaGaGaG#j.d#F#Abi..bu.A.b.b.b.B#w.d#n#maK..#v.d.d#jbx#n.d.daJby.y...ibc.d#w#A#lbd#y........#w.d.d#jbv.B#w.d.d#A#u..bz.A.b.bbx#w.d#w#D#lb....mbzbA#h................bB#D#n#s#i#sbw.d#lbC#F#FbC#l.d#l.................d#s#j#i#maK.d#lbC#F#FbC#l.d#l..................",
"#J#Y.Y.R.R.Y#Za6#JbD#W.W.W.W.WaQ.Y.R.Z#9.W.W.W.W.S.R.R.R.R.R.R.R.RaS#N.W.T.R.R.R.R.R.5.Z#J.0.W.W#J#J#J#J#J#J.R.R.9#JbE.W.T.R.R.R.R.R.Y#Z#4#JaX.W#4.1.T.R.R.Y#Z.9#Ja7.W.Wbo.R.Ta.#JaZa0.W.W.W.W.W##.Y.R.R.R.R.S.4a.#JbF.W.5.R.R.Y.S#Z#Y#4#J#6a0.Wa1.5.S#6.W.W.W.W.W.W.W.Wa4#J#J#J#J#J#6#J#dbr#J#Jbr#d#J#d.W.W.W.W.W.W.W.W.R#J#J#J#SaX#J#dbr#J#Jbr#d#J#d.W.W.W.W.W.W.W.W.W",
"#C#l#l#l#l#l#l#lay.m..........bG#l#l#lbH........#l#l#l#l#l#l#l#l#lbIbJ..#l#l#l#l#l#l#l#lbG.g....bKbLbLbLbLbM#l#l#lbL#y..#l#l#l#l#l#l#l#l#lb..h..#x#l#l#l#l#l#l#lbN.g....#l#l#l#lbd#y............#l#l#l#l#l#l#l#l#laz#y..#l#l#l#l#l#l#l#lat.#....bf#l#lbO................#Hbdb#bwbibf#h#ubP.m#p#p.mbP#ubP.................d#lbwbf#h.h#ubP.m#p#p.mbP#ubP..................",
"#Na3bn#J#J#5bkbQan.W.W.W.W.W.W#8#RbnaZ.V.W.W.W.WaQbR#J#J#J#J#J#JblbQ.O.W#T#J#J#J#J#b#S.0.V.W.W.W.W.W.W.W.Wa##d#Ua2.7.W.W#T#J#J#J#J#J#5.X#7.O.W.W#O.X#V#J#J#5#9#8.7.W.W.W#9bS#dbEa0.W.W.W.W.W.W.WaZ#U#J#J#JbR#U#9aVa0.W.Waa#b#Jbm#S#MbTaX.O.W.W.W#1bk#.#7.W.W.W.W.W.W.W.Wa4bUbVbUbVbUbVbUbVbUbVbUbVbUbVbUbVbU.W.W.W.W.W.WbVbUbVbUbVbUbVbUbVbUbVbUbVbUbVbUbV.W.W.W.W.W.W.W"
};
