/* XPM */
static char * minute_xpm[] = {
"5 15 3 1",
" 	c None   ",
"+      c #596b5e",
"x      c #000000",
" +++ ",
" +x+ ",
" +x+ ",
" +x+ ",
" +x+ ",
" +x+ ",
" +x+ ",
" +x+ ",
" +x+ ",
" +x+ ",
" +x+ ",
" +x+ ",
" +x+ ",
" +x+ ",
" +x+ ",
" +++ "};
