/* XPM */
static char * second_xpm[] = {
"5 20 2 1",
" 	c None   ",
"+	c #0C110D",
"  ++ ",
" +  +",
" +  +",
"  ++ ",
"     ",
"     ",
"     ",
"     ",
"     ",
"     ",
"     ",
"     ",
"     ",
"     ",
"     ",
"     ",
"     ",
"     ",
"     ",
"     ",
"     "};

