/* XPM */
static char *weekday_xpm[] = {
/* width height num_colors chars_per_pixel */
"    60    70      110            2",
/* colors */
".. c #c4c2b4",
".# c #c4c6bc",
".a c #9ca294",
".b c #a4a28d",
".c c #9c9e8e",
".d c #a4a69b",
".e c #a4a6a4",
".f c #4c4e44",
".g c #54524b",
".h c #b4b6aa",
".i c #9c9a8f",
".j c #acaea3",
".k c #74766a",
".l c #bcbcac",
".m c #9c9a84",
".n c #949288",
".o c #949684",
".p c #c4bebb",
".q c #1c1e18",
".r c #2c322c",
".s c #64665b",
".t c #4c4a43",
".u c #949a8c",
".v c #5c5b4b",
".w c #2c2e2b",
".x c #8c8a84",
".y c #444a44",
".z c #44423c",
".A c #3c3a2f",
".B c #545642",
".C c #847e79",
".D c #646258",
".E c #b4b2a4",
".F c #7c7c72",
".G c #545651",
".H c #848479",
".I c #646a5a",
".J c #bcbcb4",
".K c #4c4e38",
".L c #5c5c54",
".M c #b4b1ad",
".N c #8c8a79",
".O c #8c8e81",
".P c #7c8275",
".Q c #545a54",
".R c #6c6664",
".S c #645e5c",
".T c #747a70",
".U c #5c564f",
".V c #acaa9c",
".W c #343227",
".X c #444636",
".Y c #3c3e34",
".Z c #6c726a",
".0 c #94968f",
".1 c #1c2216",
".2 c #9ca2a0",
".3 c #848a7c",
".4 c #747267",
".5 c #5c625c",
".6 c #443e3c",
".7 c #6c6c68",
".8 c #242a20",
".9 c #3c4341",
"#. c #141a1a",
"## c #646a66",
"#a c #646664",
"#b c #6c6c5c",
"#c c #a4aa95",
"#d c #7c7674",
"#e c #8c9283",
"#f c #343a32",
"#g c #24261c",
"#h c #3c3634",
"#i c #746e6c",
"#j c #acb2a2",
"#k c #b4aea4",
"#l c #848a84",
"#m c #acafac",
"#n c #7c7c7c",
"#o c #343534",
"#p c #949a84",
"#q c #c4c7c5",
"#r c #bcbdb4",
"#s c #2c2e24",
"#t c #544e4c",
"#u c #bcbabc",
"#v c #a4a29c",
"#w c #444637",
"#x c #4c5653",
"#y c #4c4644",
"#z c #acaaa4",
"#A c #2c2a24",
"#B c #b4baa6",
"#C c #bcb6b2",
"#D c #848484",
"#E c #949289",
"#F c #5c5c4b",
"#G c #646259",
"#H c #8c9282",
"#I c #1c2217",
"#J c #3c4224",
"#K c #9c9e8d",
"#L c #949a8d",
"#M c #8c8a85",
"#N c #545652",
"#O c #7c8276",
"#P c #1c1d18",
"#Q c #242a21",
"#R c #2c3634",
/* pixels */
"...#.#.#.#.#...#.#.#.h.i.j...#...i.j...#.#.#.#...#...#.#.#...#...#...c.k.l.#.#.#.#...#...#.#.#...#...#...#.#.#.#.#...#.#",
".a.b.c.b.c.b.a.b.c.b.n.q.r.n.c.s.q.t.u.c.b.c.b.a.b.a.b.c.b.a.b.a.b.u.v.w.x.c.b.c.b.a.b.a.b.c.b.a.b.a.b.a.b.c.b.c.b.a.b.c",
"...#.#.#.#.#...#.#.#.h.A.B.C.j.B.B.D.j.E.F.G.F.E...F.H.v.I.J...h.k.g.g.K.i.o.L.v.s.M...F.j...J.N.b...#...#.#.#.#.#...#.#",
".b.a.b.c.b.a.b.a.b.c.n.q.v.W.s.W.X.z.N.Y.z.Z.z.Y.u.q.t.Z.W.g.i.X.z.Z.t.w.F.s.s.Z.z.Y.u.Y.t.0.H.1.k.b.a.b.a.b.c.b.a.b.a.b",
"...#.#.#...#...#.#.#.h.A.N.f.K.4.5.5.V.Y.N.N.N.Y.b.A.3.x.D.5.E.Y.H.N.4.K.i.n.D.g.X.K.V.F.X.c.R.G.n...#...#.#.#...#...#.#",
".a.b.c.d.c.e.a.b.c.d.n.q.Z.B.w.7.X.z.N.q.Z.0.7.q.k.q.Z.H.Y.X.N.q.4.3.g.w.F.8.z.I.B.w.F.Z.W.t.8.v.P.a.b.a.b.c.d.c.e.a.b.c",
"...#.....#.....#.....h.A.N.x.N.x.5.D.d.B#b.l.4.f.O.A.N.V.5.D#c.X.4.j.7.K.0.A.H.x.s.f.i.i.4.z.K.x.h...#...#.....#.....#..",
".b.c.e.a.b.a.b.c.e.a.o.q.Z#e.N.P.X.z.N.v.w.w.w.L.P.q.4.3.X.z.x.L.8.W#f.w.F.X#g.w#h.w.F#e.Z#g.f.F.c.b.c.b.c.e.a.b.a.b.c.e",
".#.#.....#...#.#.....h.N.0.#.#.j.N.3#j.x.N.N.N.x.h.N.0#k.N#l.E.N.x.N.N.N.d.x.N.N.3.N.b.p.F.z.N.j.#.#.#.#.#.....#...#.#..",
".b.a.b.c.e.a.b.a.b.c.n.H.n.b.a.c.O#e.i.n.P.F.H.n.c.3.n.c.O#e.u.n.P#n.P.H.u.3.F.F.H.H.u.o#o.X.4.c.c.b.a.b.a.b.c.e.a.b.a.b",
"...#...#...#...#.#.m.n.o.o.o.i.p.#...#.#.#...#...#.#.#...#...#.#.#...#...c.k.l.#...#.#.#.#...#...#.#.#.....#...#...#...#",
".d.c.e.a.b.c.d.c.b.y.z.w.w.z.y.n.b.a.b.c.b.a.b.a.b.c.b.a.b.a.b.c.b.a.b.u.v.w.x.b.a.b.c.b.a.b.a.b.c.b.a.d.d.c.e.a.b.c.d.c",
"...#.#.#.#.#...#.#.O.N.D.D.N.O.h.P.l...i.u.p.J.F.Q.R.E...c.S.Q.F.l.M.T.g.g.K.i.n.L.U.I.E...F.V...J.N.b.....#.#.#.#.#...#",
".a.b.c.b.c.b.a.b.b.O.k.X.Y.k.O.m.q.3.n.t.y.o.X.z.4.K.r.0.1.v.I.z.O.X.z.4.y.w.F.s.s.Z.z.Y.u.Y.t.u.H.1.k.a.a.b.c.b.c.b.a.b",
"...#.#.#.#.#...#.#.#.V.D.D.V.#.#.A.n.V.5.D.V.Y.5.D.5.A.c.z.v.4.H.j.6.H.3.4.K.0.n.D.B.X.t.V.F.X.c.R.G.n.....#.#.#.#.#...#",
".b.a.b.c.b.a.b.a.c.b.3.X.9.N.c.b#..4.3.X.z.N.q.B.B.B.B.F##.X.W.1.H.q.Z.N.B.w.F.8.z#a.B.w.F.Z.W.t.8.v.H.b.b.a.b.c.b.a.b.a",
"...#.#.#...#...#.#...V.L.D#c.#.#.Y.H.d.B.D#c.t.D.x.x#d.V.4.N.x.X.k.X.4.j.7.K.i.A.H.N.s.f.i.i.4.z.K.x.h.....#.#.#...#...#",
".a.b.c.d.c.e.a.b.b.a.N.X.X.x.c.b.X.1.w.W.9.N#b.r#g.8.W#e.W.8.8.Y.4.v.8.W.W.w.F.X#g.w#f.w.F#e.Z#g.f.F.c.a.a.b.c.d.c.e.a.b",
"...#.....#.....#.#..#m.x.N.j.#.#.N.N.N.N.x#j.O.x.N.x.3.j.N.x.N.x.a.x.N.O.x.N.d.N.N.N.N.N.b.J.C.z.3.j.#.....#.....#.....#",
".b.c.e.a.b.a.b.c.b.a.c.O#e.i.b.a.x.F.F.P.O.i.i.H.T.F.H.i.H.T.F.3.i.n.P.F.P.H.u#l.F.F.P.H.u#p#o.X.4.c.c.b.b.c.e.a.b.a.b.c",
".#.h.i.......c.......i...#.#...#...#.#.#...c.k.l.#.#...#...#.#.#...#...#.#.#...#...#.#...b.4#r.#.#.#...#...#.#.#...#...#",
".a.n#s.s.c.7.q.Z.c.Z#s.O.c.b.a.b.a.b.c.b.u.L#s.N.b.a.b.a.b.c.b.a.b.a.b.c.b.a.b.a.b.a.b.0.L#s.N.c.b.a.b.a.b.c.b.a.b.a.e.a",
".#.h.v.D#c.D.K.S.j.D.v.b#r.F.U.s.E.#.M.T.g#t.K.i.F.H.U#b#u.##r.F.U.s.M.#.c.S.G.F.l.M.F.f.g.K.i.0.L.U.s.E...F.V..#r.N.#.#",
".c.n.G#s.4.W.G#s.k.W.f.H#w.9.4.f#s.o#w.z.4.y#s.F.q.t.Z#o.K.c#w.z.Z.f.W.o.1.v#b#w.O#w.z.4.y#s.F.s.s.Z#w.Y.u.Y.K.0.H.q.c.b",
".#.h.x.Y.O#w.x.y.N.Y.x.E.Y.D.D.D.Y.c.Y.H.N.4.K.0.A.3.N.D.D.E.Y.D.D.5.A.c.z.v.4.H.j.Y.H.N.4.f.i.n.D#t#w.f.V.F.z.a.s.U.#.#",
".c.n.4#s.t#f.4#f.f#s.Z.c.q.B#x.g.B.F.q.4.3.G#s.F.q.4.P#w.Y.O#..B.B.B.B.F#b.9.W.1.H.q.4#l.B#s.F.8#w.I.B#s.F.Z.W.t.8.L.b.c",
".#.h.i.5.z.s.N.s#y.D.i.#.t.5.N.N.T.V#w.4.j#b.f.0.A.N#z.5.D.V.K.D#l.x#d.V.Z.N.x#w.k#w.4.j.7.t.0.A.H.x.s.f.i.i.4.z.K.N.#.#",
".a.0.N.v.q.D.F.D.q.B.3.a.I.W#A.8.W#e.L.8.W#o#s.F.q.7.3#w.z.3#b#s#A.8.W#e.W.8.8.Y.4.v.8.W#f#s.F.t#g#s#o#s.F#e.Z#g.f.F.c.d",
".#.h#B.x.N.3.E.3.N.3#C...n.N.3.N.x.j.N.x.N.N.N.b.x.u#k.N.N.j.n.x.N.N.x.j.N.x.N.x.c.x.N.N.N.N.b.3.N.N.N.x.b#r.C.z.3#k....",
".b.n.c#e.H.n.c#e.H.O.c.a.0.H.F.F.H.u.n.P.P.P#D.u.H.o.i#e#e.i.0.H.F.T.H.u.H.T.F.3.c.n.P#n.P.H.0.O.F.F.P.H.u.u.W#w.4.c.a.b",
".#.#.#...#.#...i.n.o.o.o.i.p.5.l.#.#...#...#.#.#...#...#.#.#...#...#.#.#.....c.k.l.#...#...#.#.#...#.....#.#.#.#.#.#...#",
".b.c.b.a.b.c.b.y#w#s#s#w#w.n.q.F.b.a.b.a.b.c.b.a.b.a.b.c.b.a.b.a.b.c.b.a.b.u.L#s.x.b.a.b.a.b.c.b.a.b.a.b.c.b.c.b.c.b.a.b",
".#.#.#...#.#...O.N.D.D.N#e.E.A#b.v.s#u.#.H#r...0.i.p.F.d.F.V.c.S.Q.F.l.M.T.g.g.K.i.n.L.U.I.M.#.F.V..#r...#.#.#.#.#.#...#",
".b.a.a.b.a.b.b#e.k.Y.z.k.O.c#..t.Z.W.g.m.q.H.o.t#w.o.q#s#w.k.1.v.I.z#e.z#w#i.y#s.F.s.s.Z.z.Y.u.Y.K.0.H.q.k.b.a.b.a.a.b.a",
"...#.#...#.#...##z.D.5.V.#.#.A.N.N.5.D#j.A#e.j.D.5.V.A.N.x.d.z.v.4.H.j.6.H.3.4.K.0.n.D.B#w.K.V.F.z.a.R.B.n...#...#.#...#",
".a.b.e.a.b.c.2.b.3#w.z.3.b.c.q.Z.P.z#w.N.q.4.3#w.z.N.q.Z.N.0.I#w.W.1.H.q.Z.N.G#s.F.8.z.I.g#s.F.Z.W.t.8.L.H.a.b.a.b.e.a.b",
".#.#.....#...#..#z.D.5.V.#.#.A.N.V.5.D#c.Y.H.b.G.D#c.A.N.#.#.4.x.N#w.k#w.4.j#b.K.i.A.H.x.s.f.i.i.4.z.K.N.h.#.#.#.#.....#",
".b.c.a.b.c.e.a.b.3.z.z.3.b.c.q.4.3#w.z.N.z#g#s.W.z.3.q.Z.b.a.W.8.8.Y.4.v.8.W#o#s.F.y#g#s#o#s.F#e.Z#g.f.F.c.b.c.b.c.a.b.c",
".#.#...#.#.....##k.N.N#j...#.N.0#k.N.3#j.x.N.x.3.N.E.N.0...#.N.x.N.x.c.x.N.N.x.N#v.N.N.N.N.x.b#r.C.z.3.j.#.#.#.#.#...#.#",
".b.c.a.b.a.b.a.b.u#e#e.i.a.b.3.n.c.O#e.i.3.F.T.H.O.u.3.n.b.a.H.T.F.3.c.n.P.P.P.H.u#l.F.F.P.H.u.u.W#w.4.c.a.b.c.b.c.a.b.a",
".#.#.#...#.#.#.#.#...#.#.##q...#.h.i#E.o.o.j.#...#...c...#.....c.k.l.#...#...#.#.#...#...#.#.#.#.#...#.#.#.#.#...#.#.##q",
".b.c.b.a.b.c.b.c.b.a.b.c.b.c.c.b#E.q#w.z#y.s.a.b.a.b.W.O.a.b.u#F.w.N.a.b.a.b.c.b.a.b.a.b.c.b.b.c.b.a.b.c.b.c.b.a.b.c.b.c",
".#.#.#...#.#.#.#.#...#.#.#.#.#.#.h.A.3.N.N.c.C.b.F.j#G.d.M.T.g.g.K.i#E.L.U.I.M...F.V...J.N.b.#.#.#...#.#.#.#.#...#.#.#.#",
".b.a.a.b.a.b.c.b.a.b.a.b.c.b.b.a#E.q.B.L#G#H.q.w#w.k.q.F#w#w.7.t.w.F.s.s.Z.z.Y.u.Y.t.u.H#I.k.b.a.a.b.a.b.c.b.a.b.a.b.c.b",
"...#.#...#.#.#...#...#.#.#.....#.h.A.L#G#b.h.A.N.3.d.A#H.6.H.N.4.K.i#E#G.B#w.K.V.F.z.a.R.G#E...#.#...#.#.#...#...#.#.#..",
".a.b.e.a.b.c.d.c.e.a.b.c.d.c.c.e#E.q.4.Z.k#E.q.Z.N.o.q.4#..4#l.B.w.F.8.z#a.B.w.F.Z.W.t.8#F.P.a.b.e.a.b.c.d.c.e.a.b.c.d.c",
".#.#.....#.....#.....#.....#.#...h.A.3.V.j.l.A.N.#.#.A.N#w.4.j.7.K.0.A.H.N.s.f.i.i.4.z.K.x.h.#.#.....#.....#.....#.....#",
".b.c.a.b.c.e.a.b.a.b.c.e.a.b.b.a.o.q#i.a.b.a.q.Z.a.b#..4#F.8.W.W.w.F.y#g.w#h.w.F#H.Z#g.f.F.c.b.c.a.b.c.e.a.b.a.b.c.e.a.b",
".#.#...#.#.....#...#.#.....#.#...h.N.0.#.#.#.N.0.#.#.N.u.x.N.O.N.N.d.N.N.N.3.N.b.p.F.z.N.j.#.#.#...#.#.....#...#.#.....#",
".b.c.a.b.a.b.c.e.a.b.a.b.c.e.e.a#E.H.o.c.b.c.N#E.a.b.H.o#E.P.F.P.H.u#l.F.F.H.H.u.o#f.9.4.c.b.b.c.a.b.a.b.c.e.a.b.a.b.c.e",
".#.#.#...#.#.....O#d.F.c...#.#.#...#...#.#.#...#...#.#.#...#...#.#.#...#.....a.k.l...#.#.#.#...#...#.#.#...#.#.#.#...#.#",
".b.c.b.a.b.c.b#w.w.B#w.w#b.c.b.a.b.a.b.a.i.B.B.i.b.c.b.a.b.a.b.c.b.a.b.a.b.u#F.w.x.b.c.b.c.b.a.b.a.b.c.b.a.b.b.c.b.a.b.c",
".#.#.#...#.#.#.A.O.N.x.N#E.l#E.L.G.R.E.#.V.f.f.7.j.H.l.p.u.i.J.H.b.F.V.M.T.g#t.K.i.0.L#F.s.M...F.V...J.N.b.#.#.#.#...#.#",
".b.a.a.b.a.b.b.w.w.G.k.P.O.c.s.s.4#J.Y.o.H#o#f.B.F.q.3#E.K.y#E.q.w#w.k#w.z.4#w.w.F.s#G.Z.z.Y.u.Y.t.u.H#I.k.b.b.a.a.b.a.b",
"...#.#...#.#.#.H#G.B.z.f.j..#E.5.g#w.f.d.b#G#G.N.j.A.O.j.S#G.V.A.3.N.d.Y.H.N.4.K.u#E#G.g#w.K.V.F.z.a.R.G#E.....#.#...#.#",
".a.b.e.a.b.c.a.T.4.7.Z.Y#w.u.8.z#b.B.w.F.3.9.z.P.i.q.4.3.z#w.3.q.Z.x.o.q.4.3.G.w.F.8.z.I.B.w.F.Z.W#y.8#F.H.a.a.b.e.a.b.c",
".#.#.....#...#.F.b.c.N.g.s.E.A.H.N#a.K.i.V#G#F#c.#.Y.H.d.B#G.V.A.N.#.##w.4.j#b.K.i.A.H.N#a.K.i.i.4.z.K.x.h.#.#.#.....#..",
".b.c.a.b.c.e.b.W#g.W.8.z.Z#E.y#g.w#f.w.F.O#G.8.w.T.z#g.w.W.Y.N#..4.c.b#F.8.W#o.w.F#w#g.w#o.w.F#H.Z#g.f.F.c.b.b.c.a.b.c.e",
".#.#...#.#...#.N.x.N.N.N.b.J.N.N.N.N.N#v.l.O.N.N.b.N.N.N.N.O#j.N.0.#.#.x.N.x.N.N#v.x.N.N.N.N#v.l.C.z.3.j.#.#.#.#...#.#..",
".b.c.a.b.a.b.a.H.F.T.F#l.i.a.O.F.F.P.H.u.c#E.H.P#E#l.F.F.P.O.i.3#E.b.a#E.P.P.P.H.u#l.F.F.P.H.u.u.W#w.4.c.a.b.b.c.a.b.a.b",
"..#q.#...#...#...#...#.h.p.O#d.F.a.....#...#.#.#...#...#.#.#...#.....a.k.l...#.#.#.#...#...#.#.#....#q..#q.#...#...#...#",
".a.b.c.d.c.e.a.b.c.e.a#E#w.w.B#w.w#b#K.a.b#K.b.a.b.a.b#K.b.a.b.a.b#L#F.w#M.b#K.b#K.b.a.b.a.b#K.b.a.a.b.a.b.c.d.c.e.a.b.c",
".#.#.#...#.#.#.#.#...#.h.A.O.N.N.N#E.J.H.J..#L.i.J.F.H#F.s.J...M.T.g#t.K.i.0.L#F.s.M...F.V...J.N.b.#.#.#.#.#...#.#.#.#.#",
".b.c.b.a.b.c.b.c.b.a.b#E.w.w#N.k#O.O.m#P.3#E.y.t.o#P.t.Z.W.g#K#w.z.4#w.w.F.s#G.Z.z.Y#L.Y.t#L.H#I.k.b.c.b.c.b.a.b.c.b.c.b",
".#.#.#...#.#.#.#.#...#.h.H#G.B.z.f.j...A.O.j.S#G.V.A.N#M.5#G#j.Y.H.N.4.K#L#E#G.g#w.K.V.F.z.a.R#N#E.#.#.#.#.#...#.#.#.#.#",
".c.b.a.b.a.b.c.b.a.b.c#E.T.4.Z.7.Y#w#L#P.Z.N.z#w.3#P.Z#O#w.z.N#P.4.3#N.w.F#Q.z.I.B.w.F.Z.W#y#Q#F.H.c.b.c.b.a.b.a.b.c.b.a",
".#...#...#.#.#...#...#.h.F.b#K.N.g.s.E.Y.H.d.B#G#c.A.N.V#G.5.V#w.4.j#b.K.i.A.H.N#a.K.i.i.4.z.K.N.h.#...#...#...#.#.#...#",
".d.c.e.a.b.c.d.c.e.a.d.o.W#g.W#Q.z.Z#E#w#I.w#R.z.N#P.4.3.z.z.3#F#Q.W#o.w.F#w#g.w#o.w.F#H.Z#g.f.F#K.d.c.d.c.e.a.b.c.d.c.e",
"...#.....#.....#.......h#M.N.3.N.N.b.J.N.N.N.N.N.j.N.0#j.N.N#j#M.N#M.N.N#v#M.N.N.N.N#v.l.C.z.3.j.#...#...#.....#.....#..",
".a.b.a.b.c.e.a.b.a.b.a#E.3.T.F.F.O.i.a#M.F.F#O.O#K.H.o.i#H#H.i#E#O#O#O.H#L#l.F.F#O.H#L#p#o#w.4#K.a.a.b.a.b.a.b.c.e.a.b.a"
};
