/* XPM */
static char * clock_xpm[] = {
"41 41 4 1",
" 	c None",
".	c #000000",
"+	c #430752",
"@	c #B3B3B3",
"                                         ",
"                 .......                 ",
"             ...............             ",
"           ......+++@@++.....            ",
"          ....++++++@@+++++....          ",
"        ....@@++++++@@+++++++...         ",
"       ....+@@@+++++@@++++++@@...        ",
"      ...++++@+++++++++++++@@@++..       ",
"     ...++++++++++++++++++++@++++..      ",
"     ..+++++++++++++++++++++++++++..     ",
"    ..@@++++++++++++++++++++++++++...    ",
"    ..@@@++++++++++++++++++++++++@@..    ",
"   ...+@++++++++++++++++++++++++@@@...   ",
"   ..++++++++++++++++++++++++++++@++...  ",
"  ..+++++++++++++++++++++++++++++++++..  ",
"  ..+++++++++++++++++++++++++++++++++..  ",
" ...+++++++++++++++++++++++++++++++++..  ",
" ..+++++++++++++++++++++++++++++++++++.. ",
" ..+++++++++++++++++++++++++++++++++++.. ",
" ..@@@@+++++++++++++++++++++++++++@@@@.. ",
" ..@@@@+++++++++++++++++++++++++++@@@@.. ",
" ..+++++++++++++++++++++++++++++++++++.. ",
" ..+++++++++++++++++++++++++++++++++++.. ",
" ..++++++++++++++++++++++++++++++++++... ",
"  ..+++++++++++++++++++++++++++++++++..  ",
"  ..+++++++++++++++++++++++++++++++++..  ",
"  ..+++++++++++++++++++++++++++++++++..  ",
"  ...++@++++++++++++++++++++++++++@+...  ",
"   ..+@@@++++++++++++++++++++++++@@@..   ",
"   ...@@++++++++++++++++++++++++++@@..   ",
"    ...+++++++++++++++++++++++++++...    ",
"     ..+++++++++++++++++++++++++++..     ",
"     ...+++++@++++++++++++++@++++...     ",
"      ...+++@@@++++++++++++@@@++...      ",
"       ...++@@++++++@@++++++@@....       ",
"        .....+++++++@@++++++.....        ",
"         .....++++++@@+++++....          ",
"           ......+++@@++......           ",
"             ..............              ",
"                 ........                ",
"                                         "};
