/* XPM */
static char * another_clock_xpm[] = {
"41 41 119 2",
"  	c None",
". 	c #C7C7C7",
"+ 	c #C3C3C3",
"@ 	c #C0C0C0",
"# 	c #2B2B2B",
"$ 	c #2C2C2C",
"% 	c #BCBCBC",
"& 	c #2F2F2F",
"* 	c #303030",
"= 	c #B8B8B8",
"- 	c #343434",
"; 	c #353535",
"> 	c #B5B5B5",
", 	c #383838",
"' 	c #393939",
") 	c #B1B1B1",
"! 	c #3C3C3C",
"~ 	c #3D3D3D",
"{ 	c #3E3E3E",
"] 	c #ADADAD",
"^ 	c #414141",
"/ 	c #424242",
"( 	c #A9A9A9",
"_ 	c #454545",
": 	c #464646",
"< 	c #474747",
"[ 	c #A6A6A6",
"} 	c #494949",
"| 	c #4A4A4A",
"1 	c #4B4B4B",
"2 	c #A2A2A2",
"3 	c #4E4E4E",
"4 	c #4F4F4F",
"5 	c #505050",
"6 	c #9E9E9E",
"7 	c #525252",
"8 	c #535353",
"9 	c #545454",
"0 	c #9B9B9B",
"a 	c #565656",
"b 	c #575757",
"c 	c #585858",
"d 	c #595959",
"e 	c #979797",
"f 	c #5B5B5B",
"g 	c #5C5C5C",
"h 	c #5D5D5D",
"i 	c #939393",
"j 	c #5F5F5F",
"k 	c #606060",
"l 	c #616161",
"m 	c #909090",
"n 	c #636363",
"o 	c #646464",
"p 	c #656565",
"q 	c #666666",
"r 	c #8C8C8C",
"s 	c #686868",
"t 	c #696969",
"u 	c #6A6A6A",
"v 	c #888888",
"w 	c #6C6C6C",
"x 	c #6D6D6D",
"y 	c #6E6E6E",
"z 	c #6F6F6F",
"A 	c #858585",
"B 	c #717171",
"C 	c #727272",
"D 	c #737373",
"E 	c #818181",
"F 	c #757575",
"G 	c #767676",
"H 	c #777777",
"I 	c #7D7D7D",
"J 	c #797979",
"K 	c #7A7A7A",
"L 	c #7B7B7B",
"M 	c #7C7C7C",
"N 	c #7E7E7E",
"O 	c #7F7F7F",
"P 	c #808080",
"Q 	c #828282",
"R 	c #838383",
"S 	c #848484",
"T 	c #878787",
"U 	c #898989",
"V 	c #8B8B8B",
"W 	c #8D8D8D",
"X 	c #6B6B6B",
"Y 	c #8F8F8F",
"Z 	c #919191",
"` 	c #929292",
" .	c #676767",
"..	c #949494",
"+.	c #959595",
"@.	c #969696",
"#.	c #989898",
"$.	c #999999",
"%.	c #9A9A9A",
"&.	c #9D9D9D",
"*.	c #9F9F9F",
"=.	c #A1A1A1",
"-.	c #A3A3A3",
";.	c #A7A7A7",
">.	c #A8A8A8",
",.	c #AAAAAA",
"'.	c #ABABAB",
").	c #ACACAC",
"!.	c #515151",
"~.	c #AEAEAE",
"{.	c #AFAFAF",
"].	c #B0B0B0",
"^.	c #4D4D4D",
"/.	c #B3B3B3",
"(.	c #B4B4B4",
"_.	c #B9B9B9",
":.	c #BDBDBD",
"<.	c #C1C1C1",
"[.	c #3B3B3B",
"                                                                                  ",
"                                  . . . . . . .                                   ",
"                          + + + + + + + + + + + + + + +                           ",
"                      @ @ @ @ @ @ # # # @ @ $ $ @ @ @ @ @                         ",
"                    % % % % & & * * * * % % * * * * * % % % %                     ",
"                = = = = = = - - - - - - = = - - ; ; ; ; ; = = =                   ",
"              > > > > , > > > , , , , ' > > ' ' ' ' ' ' > > > > >                 ",
"            ) ) ) ! ! ! ! ) ~ ~ ~ ~ ~ ~ ~ ~ ~ ~ ~ ~ ~ ) ) ) { { ) )               ",
"          ] ] ] ^ ^ ^ ^ ^ ^ ^ ^ ^ ^ ^ ^ ^ / / / / / / / ] / / / / ] ]             ",
"          ( ( _ _ _ _ _ _ _ _ _ : : : : : : : : : : : : : < < < < < ( (           ",
"        [ [ [ [ } } } | | | | | | | | | | | | | 1 1 1 1 1 1 1 1 1 1 [ [ [         ",
"        2 2 2 2 2 3 3 3 3 3 3 3 3 3 3 4 4 4 4 4 4 4 4 4 4 4 4 4 5 2 2 2 2         ",
"      6 6 6 7 6 7 7 7 7 7 7 8 8 8 8 8 8 8 8 8 8 8 8 8 9 9 9 9 9 6 6 6 6 6 6       ",
"      0 0 a a a a b b b b b b b b b b b b b c c c c c c c c c c c 0 c d 0 0 0     ",
"    e e f f f f f f f f f f f f f g g g g g g g g g g g g g h h h h h h h e e     ",
"    i i j j j j j j j k k k k k k k k k k k k k k l l l l l l l l l l l l i i     ",
"  m m m n n o o o o o o o o o o o o o p p p p p p p p p p p p p p q q q q m m     ",
"  r r s s s s s s s s s s s t t t t t t t t t t t t t u u u u u u u u u u u r r   ",
"  v v w w w w w w x x x x x x x x x x x x x y y y y y y y y y y y y y z z z v v   ",
"  A A A A A A B B B B B B B B B B C C C C C C C C C C C C C D D D D A A A A A A   ",
"  E E E E E E F F F F F G G G G G G G G G G G G G H H H H H H H H H E E E E E E   ",
"  I I J J J K K K K K K K K K K K K K K L L L L L L L L L L L L L M M M M M I I   ",
"  J J N N N N N N N N N N N O O O O O O O O O O O O O O P P P P P P P P P P J J   ",
"  G G Q Q Q Q Q Q R R R R R R R R R R R R R S S S S S S S S S S S S S S A G G G   ",
"    C C T T T T T T T T T T T T T v v v v v v v v v v v v v U U U U U U U C C     ",
"    y y V V V V V V V V r r r r r r r r r r r r r W W W W W W W W W W W W y y     ",
"    X X Y Y Y m m m m m m m m m m m m m Z Z Z Z Z Z Z Z Z Z Z Z Z ` ` ` ` X X     ",
"     . . ..... ...............+.+.+.+.+.+.+.+.+.+.+.+.+.@.@.@.@.@.@. .@. . . .    ",
"      n n #.n n n #.$.$.$.$.$.$.$.$.$.$.$.$.$.%.%.%.%.%.%.%.%.%.%.n n n n n       ",
"      k k k k k &.&.&.&.&.&.&.&.&.6 6 6 6 6 6 6 6 6 6 6 6 6 6 *.*.*.k k k k       ",
"        g g g =.=.=.=.=.2 2 2 2 2 2 2 2 2 2 2 2 2 -.-.-.-.-.-.-.-.-.g g g         ",
"          c c [ [ [ [ [ [ [ [ [ [ [ [ [ ;.;.;.;.;.;.;.;.;.;.;.;.;.>.c c           ",
"          9 9 9 ,.,.,.,.,.9 ,.'.'.'.'.'.'.'.'.'.'.'.'.'.9 ).).).).9 9 9           ",
"            !.!.!.~.{.{.!.!.!.{.{.{.{.{.{.{.{.].].].].!.!.!.].].!.!.!.            ",
"              ^.^.^././.^.^././././.(.(.^.^.(.(.(.(.(.(.^.^.^.^.^.^.              ",
"                } } } } } = = = = = = = } } = = = = _._.} } } } }                 ",
"                  : : : : : % % % % % % : : :.:.:.:.:.: : : :                     ",
"                      / / / / / / <.<.<./ / <.<./ / / / / /                       ",
"                          { { { { { { { { { { { { { {                             ",
"                                  [.[.[.[.[.[.[.[.                                ",
"                                                                                  "};
