/* XPM */
static char *eject_xpm[] = {
/* columns rows colors chars-per-pixel */
"9 10 2 1",
". c Black",
"  None",
"    .    ",
"   ...   ",
"  .....  ",
" ....... ",
".........",
".........",
"         ",
"         ",
".........",
"........."
};
