/* XPM */
static char *play_pause_xpm[] = {
/* columns rows colors chars-per-pixel */
"22 10 2 1",
". c Black",
"  None",
"..            ...  ...",
"....          ...  ...",
"......        ...  ...",
"........      ...  ...",
"..........    ...  ...",
"..........    ...  ...",
"........      ...  ...",
"......        ...  ...",
"....          ...  ...",
"..            ...  ..."
};
