/* XPM */
static char * jp_xpm[] = {
"60 40 2 1",
" 	c #FFFFFFFFFFFF",
".	c #FFFF00000000",
"                                                            ",
"                                                            ",
"                                                            ",
"                                                            ",
"                                                            ",
"                                                            ",
"                                                            ",
"                                                            ",
"                         .......                            ",
"                       ............                         ",
"                     ...............                        ",
"                    .................                       ",
"                   ...................                      ",
"                  .....................                     ",
"                 .......................                    ",
"                 .......................                    ",
"                 .......................                    ",
"                .........................                   ",
"                .........................                   ",
"                .........................                   ",
"                .........................                   ",
"                .........................                   ",
"                .........................                   ",
"                 .......................                    ",
"                 .......................                    ",
"                 .......................                    ",
"                  .....................                     ",
"                   ...................                      ",
"                    .................                       ",
"                     ...............                        ",
"                       ...........                          ",
"                         .......                            ",
"                                                            ",
"                                                            ",
"                                                            ",
"                                                            ",
"                                                            ",
"                                                            ",
"                                                            ",
"                                                            "};
