/* XPM */
static char * no_xpm[] = {
"60 40 3 1",
" 	c #FFFF00000000",
".	c #FFFFFFFFFFFF",
"X	c #00000000FFFF",
"                ...XX...                                    ",
"                ...XX...                                    ",
"                ...XX...                                    ",
"                ...XX...                                    ",
"                ...XX...                                    ",
"                ...XX...                                    ",
"                ...XX...                                    ",
"                ...XX...                                    ",
"                ...XX...                                    ",
"                ...XX...                                    ",
"                ...XX...                                    ",
"                ...XX...                                    ",
"                ...XX...                                    ",
"                ...XX...                                    ",
"                ...XX...                                    ",
"                ...XX...                                    ",
"...................XX.......................................",
"...................XX.......................................",
"...................XX.......................................",
"XXXXXXXXXXXXXXXXXXXXXXXXXXXXXXXXXXXXXXXXXXXXXXXXXXXXXXXXXXXX",
"XXXXXXXXXXXXXXXXXXXXXXXXXXXXXXXXXXXXXXXXXXXXXXXXXXXXXXXXXXXX",
"...................XX.......................................",
"...................XX.......................................",
"...................XX.......................................",
"                ...XX...                                    ",
"                ...XX...                                    ",
"                ...XX...                                    ",
"                ...XX...                                    ",
"                ...XX...                                    ",
"                ...XX...                                    ",
"                ...XX...                                    ",
"                ...XX...                                    ",
"                ...XX...                                    ",
"                ...XX...                                    ",
"                ...XX...                                    ",
"                ...XX...                                    ",
"                ...XX...                                    ",
"                ...XX...                                    ",
"                ...XX...                                    ",
"                ...XX...                                    "};
