/* XPM */
static char * qc_xpm[] = {
"60 40 2 1",
" 	c #00000000FFFF",
".	c #FFFFFFFFFFFF",
"                         .........                          ",
"                         .........                          ",
"          .              .........            .             ",
"         ...             .........           ...            ",
"         ...             .........           ...            ",
"       . ... .           .........         . ... .          ",
"      .........          .........        .........         ",
"      .........          .........        .........         ",
"       . ... .           .........         . ... .          ",
"          .              .........            .             ",
"          .              .........            .             ",
"         ...             .........           ...            ",
"                         .........                          ",
"                         .........                          ",
"                         .........                          ",
"                         .........                          ",
"............................................................",
"............................................................",
"............................................................",
"............................................................",
"............................................................",
"............................................................",
"............................................................",
"............................................................",
"                         .........                          ",
"                         .........                          ",
"                         .........                          ",
"          .              .........            .             ",
"         ...             .........           ...            ",
"         ...             .........           ...            ",
"       . ... .           .........         . ... .          ",
"      .........          .........        .........         ",
"      .........          .........        .........         ",
"       . ... .           .........         . ... .          ",
"          .              .........            .             ",
"          .              .........            .             ",
"         ...             .........           ...            ",
"                         .........                          ",
"                         .........                          ",
"                         .........                          "};
