/* XPM */
static char * t0_xpm[] = {
"12 50 582 2",
"  	c None",
". 	c #0D0026",
"+ 	c #14002A",
"@ 	c #120025",
"# 	c #0C0120",
"$ 	c #0E041E",
"% 	c #130622",
"& 	c #18061E",
"* 	c #26061E",
"= 	c #1E001B",
"- 	c #18001D",
"; 	c #0C0029",
"> 	c #050032",
", 	c #070024",
"' 	c #08001D",
") 	c #0B0020",
"! 	c #210A27",
"~ 	c #37142E",
"{ 	c #3F1B32",
"] 	c #41172F",
"^ 	c #34132B",
"/ 	c #210621",
"( 	c #11001C",
"_ 	c #080023",
": 	c #040026",
"< 	c #010020",
"[ 	c #030A19",
"} 	c #16151D",
"| 	c #3A1725",
"1 	c #4F0C1D",
"2 	c #4F0415",
"3 	c #4C0512",
"4 	c #401621",
"5 	c #321925",
"6 	c #1E1524",
"7 	c #07041C",
"8 	c #050019",
"9 	c #000019",
"0 	c #17161D",
"a 	c #2C1F20",
"b 	c #401317",
"c 	c #52040B",
"d 	c #5A000A",
"e 	c #5F0812",
"f 	c #450A11",
"g 	c #3B151B",
"h 	c #301F29",
"i 	c #150F20",
"j 	c #050118",
"k 	c #000018",
"l 	c #201A1A",
"m 	c #341D14",
"n 	c #400706",
"o 	c #5A0605",
"p 	c #690304",
"q 	c #670002",
"r 	c #570407",
"s 	c #460D11",
"t 	c #3F1E20",
"u 	c #1E121E",
"v 	c #04020F",
"w 	c #090919",
"x 	c #3D1618",
"y 	c #480800",
"z 	c #4E0B04",
"A 	c #D58178",
"B 	c #CB726C",
"C 	c #700300",
"D 	c #710000",
"E 	c #69070B",
"F 	c #540509",
"G 	c #3A1D25",
"H 	c #100B10",
"I 	c #0E0915",
"J 	c #421416",
"K 	c #500B08",
"L 	c #520905",
"M 	c #893F32",
"N 	c #90332E",
"O 	c #6F0502",
"P 	c #760000",
"Q 	c #6E0108",
"R 	c #5D040C",
"S 	c #401E24",
"T 	c #120D0D",
"U 	c #100910",
"V 	c #47161A",
"W 	c #550908",
"X 	c #510802",
"Y 	c #4F0601",
"Z 	c #5A0303",
"` 	c #6B0201",
" .	c #740000",
"..	c #670004",
"+.	c #5B0306",
"@.	c #381818",
"#.	c #101110",
"$.	c #060506",
"%.	c #381519",
"&.	c #430C0E",
"*.	c #4D0B09",
"=.	c #540B07",
"-.	c #620A0A",
";.	c #640404",
">.	c #600000",
",.	c #530606",
"'.	c #4C0F0F",
").	c #2C1413",
"!.	c #0B0B06",
"~.	c #010201",
"{.	c #241513",
"].	c #3C1B1C",
"^.	c #501413",
"/.	c #5C040D",
"(.	c #640008",
"_.	c #5B0000",
":.	c #510500",
"<.	c #431108",
"[.	c #3D2015",
"}.	c #1C0C0B",
"|.	c #080100",
"1.	c #040000",
"2.	c #221110",
"3.	c #3F1216",
"4.	c #500B0F",
"5.	c #560E0E",
"6.	c #530D0D",
"7.	c #401A0D",
"8.	c #361009",
"9.	c #2A160E",
"0.	c #060603",
"a.	c #0A0003",
"b.	c #0C0000",
"c.	c #060200",
"d.	c #030406",
"e.	c #180C0E",
"f.	c #2C1616",
"g.	c #30211E",
"h.	c #2B221F",
"i.	c #191F15",
"j.	c #1E0A0E",
"k.	c #210309",
"l.	c #000B0C",
"m.	c #17030D",
"n.	c #080000",
"o.	c #030800",
"p.	c #030A00",
"q.	c #170001",
"r.	c #2B0303",
"s.	c #300706",
"t.	c #290907",
"u.	c #230503",
"v.	c #140101",
"w.	c #0A0100",
"x.	c #000F01",
"y.	c #03080A",
"z.	c #090500",
"A.	c #0E0804",
"B.	c #250C0E",
"C.	c #3A1212",
"D.	c #411A17",
"E.	c #3E1D15",
"F.	c #301710",
"G.	c #170A06",
"H.	c #0F0803",
"I.	c #020B00",
"J.	c #000203",
"K.	c #060000",
"L.	c #0F0000",
"M.	c #270812",
"N.	c #3D131A",
"O.	c #540C16",
"P.	c #55080F",
"Q.	c #580809",
"R.	c #5F131B",
"S.	c #481213",
"T.	c #35070E",
"U.	c #0D0103",
"V.	c #010400",
"W.	c #220E10",
"X.	c #421E23",
"Y.	c #440B13",
"Z.	c #53040D",
"`.	c #59010A",
" +	c #66020A",
".+	c #5B0006",
"++	c #540711",
"@+	c #4F111A",
"#+	c #230815",
"$+	c #0B0001",
"%+	c #100204",
"&+	c #2D1714",
"*+	c #3E1E1A",
"=+	c #370A06",
"-+	c #97544D",
";+	c #954542",
">+	c #5C0402",
",+	c #5B0101",
"'+	c #4F0405",
")+	c #460E0E",
"!+	c #2D1919",
"~+	c #090505",
"{+	c #1D080B",
"]+	c #421114",
"^+	c #490908",
"/+	c #52130F",
"(+	c #BA7E71",
"_+	c #B57A68",
":+	c #4B0C03",
"<+	c #4B0800",
"[+	c #470A04",
"}+	c #431006",
"|+	c #411C1C",
"1+	c #1B0707",
"2+	c #150909",
"3+	c #51161D",
"4+	c #5E0910",
"5+	c #4F0603",
"6+	c #935148",
"7+	c #8F4D44",
"8+	c #4B0A02",
"9+	c #580D00",
"0+	c #530808",
"a+	c #470805",
"b+	c #401615",
"c+	c #1B0607",
"d+	c #190909",
"e+	c #4C1013",
"f+	c #640510",
"g+	c #600408",
"h+	c #5C0C09",
"i+	c #550602",
"j+	c #5B0201",
"k+	c #620100",
"l+	c #5B0505",
"m+	c #570409",
"n+	c #4D171B",
"o+	c #230607",
"p+	c #0B0705",
"q+	c #36181C",
"r+	c #440E12",
"s+	c #450B0B",
"t+	c #530404",
"u+	c #670305",
"v+	c #760204",
"w+	c #7B0000",
"x+	c #690005",
"y+	c #59040F",
"z+	c #2B1B1B",
"A+	c #080E07",
"B+	c #010500",
"C+	c #270F16",
"D+	c #431A26",
"E+	c #3C1010",
"F+	c #510905",
"G+	c #5C0502",
"H+	c #630202",
"I+	c #760009",
"J+	c #4C1114",
"K+	c #291F1E",
"L+	c #220D12",
"M+	c #090401",
"N+	c #050300",
"O+	c #0F0508",
"P+	c #270E1E",
"Q+	c #2C1711",
"R+	c #471106",
"S+	c #4E0901",
"T+	c #4F0402",
"U+	c #74051B",
"V+	c #341D1F",
"W+	c #03291F",
"X+	c #140105",
"Y+	c #040003",
"Z+	c #010004",
"`+	c #080B12",
" @	c #091E0D",
".@	c #2C1E10",
"+@	c #36200A",
"@@	c #3B1A0D",
"#@	c #3A1A19",
"$@	c #130F11",
"%@	c #000C0C",
"&@	c #030300",
"*@	c #050302",
"=@	c #000002",
"-@	c #030604",
";@	c #050A06",
">@	c #030900",
",@	c #2D0701",
"'@	c #380802",
")@	c #1D0803",
"!@	c #300303",
"~@	c #0F0402",
"{@	c #000702",
"]@	c #000700",
"^@	c #000C05",
"/@	c #000000",
"(@	c #010000",
"_@	c #090606",
":@	c #1C0809",
"<@	c #32120E",
"[@	c #3D1916",
"}@	c #3F1C15",
"|@	c #29170E",
"1@	c #0D0904",
"2@	c #020903",
"3@	c #000307",
"4@	c #00070D",
"5@	c #0A0000",
"6@	c #240D15",
"7@	c #3A1219",
"8@	c #511018",
"9@	c #510C11",
"0@	c #530A0C",
"a@	c #57161E",
"b@	c #3F0E12",
"c@	c #2A0B10",
"d@	c #0B0207",
"e@	c #02020D",
"f@	c #1B0C0F",
"g@	c #3E1923",
"h@	c #460B15",
"i@	c #54030E",
"j@	c #5D000B",
"k@	c #68010A",
"l@	c #5E020A",
"m@	c #550812",
"n@	c #4E111C",
"o@	c #200614",
"p@	c #060007",
"q@	c #0E0203",
"r@	c #2A1313",
"s@	c #3E1E1E",
"t@	c #380805",
"u@	c #88433D",
"v@	c #833632",
"w@	c #5C0702",
"x@	c #460D0C",
"y@	c #2B1818",
"z@	c #090404",
"A@	c #1E080C",
"B@	c #3E1113",
"C@	c #440C0A",
"D@	c #51130D",
"E@	c #BD7E72",
"F@	c #B77968",
"G@	c #4E0F00",
"H@	c #4D0600",
"I@	c #480904",
"J@	c #441108",
"K@	c #3E1D1D",
"L@	c #170808",
"M@	c #170909",
"N@	c #50161D",
"O@	c #5E0B11",
"P@	c #4C0602",
"Q@	c #A4655A",
"R@	c #9D5E51",
"S@	c #470A01",
"T@	c #541001",
"U@	c #401514",
"V@	c #1D0607",
"W@	c #160909",
"X@	c #4E1115",
"Y@	c #63050F",
"Z@	c #5F0408",
"`@	c #590A07",
" #	c #570702",
".#	c #5D0402",
"+#	c #5C0606",
"@#	c #560408",
"##	c #4C141B",
"$#	c #210607",
"%#	c #0E0806",
"&#	c #39191C",
"*#	c #490C12",
"=#	c #4A0A0B",
"-#	c #540605",
";#	c #650304",
">#	c #720204",
",#	c #770000",
"'#	c #5A0410",
")#	c #311C1F",
"!#	c #0D0E0A",
"~#	c #000600",
"{#	c #270E14",
"]#	c #451922",
"^#	c #3E0F0F",
"/#	c #530806",
"(#	c #5E0502",
"_#	c #660202",
":#	c #770007",
"<#	c #550C10",
"[#	c #34181C",
"}#	c #220F12",
"|#	c #050601",
"1#	c #000B00",
"2#	c #100A0B",
"3#	c #2E0F21",
"4#	c #321411",
"5#	c #4A0D03",
"6#	c #520500",
"7#	c #540101",
"8#	c #7B0019",
"9#	c #3A1E21",
"0#	c #052A23",
"a#	c #160208",
"b#	c #030400",
"c#	c #070000",
"d#	c #030006",
"e#	c #0A0E16",
"f#	c #0B2611",
"g#	c #2D1F10",
"h#	c #37210B",
"i#	c #3E1D0D",
"j#	c #3D1C1C",
"k#	c #140F13",
"l#	c #000E0F",
"m#	c #000003",
"n#	c #070001",
"o#	c #0B000B",
"p#	c #0B020A",
"q#	c #000E00",
"r#	c #2B0900",
"s#	c #370C03",
"t#	c #240C05",
"u#	c #360505",
"v#	c #150103",
"w#	c #000809",
"x#	c #000103",
"y#	c #0D0104",
"z#	c #080002",
"A#	c #0E0004",
"B#	c #0D0408",
"C#	c #0A0F04",
"D#	c #370B09",
"E#	c #3E1512",
"F#	c #381812",
"G#	c #320F09",
"H#	c #150302",
"I#	c #040202",
"J#	c #000403",
"K#	c #080105",
"L#	c #000300",
"M#	c #160100",
"N#	c #2B0B12",
"O#	c #3A151B",
"P#	c #4E141A",
"Q#	c #4E1113",
"R#	c #4E0D0E",
"S#	c #4E1D1C",
"T#	c #361211",
"U#	c #2E060B",
"V#	c #040502",
"W#	c #000100",
"X#	c #1B0A0D",
"Y#	c #3C1621",
"Z#	c #480C17",
"`#	c #560210",
" $	c #5F000C",
".$	c #68000A",
"+$	c #61030D",
"@$	c #560914",
"#$	c #4F111C",
"$$	c #1E0411",
"%$	c #050201",
"&$	c #0C0102",
"*$	c #26120F",
"=$	c #360905",
"-$	c #73302D",
";$	c #722823",
">$	c #5E0703",
",$	c #5C0201",
"'$	c #500303",
")$	c #450F0F",
"!$	c #2A1615",
"~$	c #080302",
"{$	c #1A0709",
"]$	c #3E1416",
"^$	c #40100D",
"/$	c #4B120C",
"($	c #BF8074",
"_$	c #BA7869",
":$	c #4F0C00",
"<$	c #4F0500",
"[$	c #490804",
"}$	c #44110A",
"|$	c #3B1D1B",
"1$	c #160908",
"2$	c #19090A",
"3$	c #4E151A",
"4$	c #5A0B10",
"5$	c #4C0903",
"6$	c #B37669",
"7$	c #A96E5F",
"8$	c #440B00",
"9$	c #501000",
"0$	c #490B07",
"a$	c #450B05",
"b$	c #3F1716",
"c$	c #1A0605",
"d$	c #4F1218",
"e$	c #64040E",
"f$	c #5E0408",
"g$	c #560705",
"h$	c #5A0802",
"i$	c #5D0502",
"j$	c #640300",
"k$	c #560407",
"l$	c #4C131A",
"m$	c #200507",
"n$	c #120A07",
"o$	c #3F1618",
"p$	c #4A0911",
"q$	c #4E090A",
"r$	c #510706",
"s$	c #620304",
"t$	c #6E0204",
"u$	c #730000",
"v$	c #650104",
"w$	c #5B040F",
"x$	c #381C20",
"y$	c #110D0B",
"z$	c #000200",
"A$	c #251012",
"B$	c #47191F",
"C$	c #441111",
"D$	c #560806",
"E$	c #600503",
"F$	c #690101",
"G$	c #790005",
"H$	c #5A080E",
"I$	c #3E1114",
"J$	c #231012",
"K$	c #050900",
"L$	c #000503",
"M$	c #160A11",
"N$	c #321225",
"O$	c #4D0903",
"P$	c #530500",
"Q$	c #550202",
"R$	c #790017",
"S$	c #381E1F",
"T$	c #062F25",
"U$	c #18040A",
"V$	c #040204",
"W$	c #060012",
"X$	c #08000A",
"Y$	c #100F1A",
"Z$	c #122713",
"`$	c #31230E",
" %	c #3B1D0A",
".%	c #3D150B",
"+%	c #4A1A1F",
"@%	c #1D1317",
"#%	c #011112",
"$%	c #050004",
"%%	c #02000D",
"&%	c #030017",
"*%	c #000110",
"=%	c #030A03",
"-%	c #2B0D04",
";%	c #341104",
">%	c #2C1107",
",%	c #330807",
"'%	c #160608",
")%	c #0C0110",
"!%	c #07001B",
"~%	c #02001F",
"{%	c #020021",
"]%	c #00061E",
"^%	c #00091E",
"/%	c #02041C",
"(%	c #100118",
"_%	c #0F0017",
":%	c #060017",
"<%	c #110018",
"[%	c #090119",
"}%	c #05001C",
"|%	c #020020",
"1%	c #00001C",
". + @ # $ % & * = - ; > ",
", ' ) ! ~ { ] ^ / ( _ : ",
"< [ } | 1 2 3 4 5 6 7 8 ",
"9 0 a b c d e f g h i j ",
"k l m n o p q r s t u v ",
"w x y z A B C D E F G H ",
"I J K L M N O P Q R S T ",
"U V W X Y Z `  ...+.@.#.",
"$.%.&.*.=.-.;.>.,.'.).!.",
"~.{.].^./.(._.:.<.[.}.|.",
"1.|.2.3.4.5.6.7.8.9.0.a.",
"b.c.d.e.f.g.h.i.j.k.l.m.",
"n.o.p.q.r.s.t.u.v.w.x.y.",
"n.z.A.B.C.D.E.F.G.H.I.J.",
"K.L.M.N.O.P.Q.R.S.T.U.V.",
"K.W.X.Y.Z.`. +.+++@+#+$+",
"%+&+*+=+-+;+>+,+'+)+!+~+",
"{+]+^+/+(+_+:+<+[+}+|+1+",
"2+3+4+5+6+7+8+9+0+a+b+c+",
"d+e+f+g+h+i+j+k+l+m+n+o+",
"p+q+r+s+t+u+v+w+x+y+z+A+",
"B+C+D+E+F+G+H+I+J+K+L+M+",
"N+O+P+Q+R+S+T+U+V+W+X+K.",
"Y+Z+`+ @.@+@@@#@$@%@&@*@",
"=@-@;@>@,@'@)@!@~@{@]@^@",
"/@(@_@:@<@[@}@|@1@2@3@4@",
"/@5@6@7@8@9@0@a@b@c@d@e@",
"(@f@g@h@i@j@k@l@m@n@o@p@",
"q@r@s@t@u@v@w@,+5+x@y@z@",
"A@B@C@D@E@F@G@H@I@J@K@L@",
"M@N@O@P@Q@R@S@T@K I@U@V@",
"W@X@Y@Z@`@ #.#H++#@###$#",
"%#&#*#=#-#;#>#,#..'#)#!#",
"~#{#]#^#/#(#_#:#<#[#}#|#",
"1#2#3#4#5#6#7#8#9#0#a#b#",
"c#d#e#f#g#h#i#j#k#l#m#q.",
"n#o#p#q#r#s#t#u#v#w#x#y#",
"z#A#B#C#D#E#F#G#H#I#J#K#",
"L#M#N#O#P#Q#R#S#T#U#V#]@",
"W#X#Y#Z#`# $.$+$@$#$$$%$",
"&$*$s@=$-$;$>$,$'$)$!$~$",
"{$]$^$/$($_$:$<$[$}$|$1$",
"2$3$4$5$6$7$8$9$0$a$b$c$",
"W@d$e$f$g$h$i$j$+#k$l$m$",
"n$o$p$q$r$s$t$u$v$w$x$y$",
"z$A$B$C$D$E$F$G$H$I$J$K$",
"L$M$N$4#O$P$Q$R$S$T$U$V$",
"W$X$Y$Z$`$ %.%+%@%#%$%%%",
"' &%*%=%-%;%>%,%'%)%!%~%",
"{%]%^%/%(%_%:%<%[%}%|%1%"};
