/* XPM */
static char * t1_xpm[] = {
"12 50 580 2",
"  	c None",
". 	c #0D0026",
"+ 	c #14002A",
"@ 	c #0F0025",
"# 	c #0F0120",
"$ 	c #0E041E",
"% 	c #130722",
"& 	c #18071E",
"* 	c #26061E",
"= 	c #1D001B",
"- 	c #18001D",
"; 	c #0D0029",
"> 	c #050032",
", 	c #070024",
"' 	c #08001D",
") 	c #0C0020",
"! 	c #270A27",
"~ 	c #38142E",
"{ 	c #3F1C32",
"] 	c #41192F",
"^ 	c #34132B",
"/ 	c #1F0621",
"( 	c #10041C",
"_ 	c #070023",
": 	c #040026",
"< 	c #010020",
"[ 	c #030A19",
"} 	c #16151D",
"| 	c #381725",
"1 	c #4B0C1D",
"2 	c #4F0415",
"3 	c #4C0512",
"4 	c #401621",
"5 	c #321925",
"6 	c #1F1724",
"7 	c #0A081C",
"8 	c #040019",
"9 	c #000019",
"0 	c #17161D",
"a 	c #2C1F20",
"b 	c #401317",
"c 	c #53040B",
"d 	c #5A000A",
"e 	c #5F0812",
"f 	c #430B11",
"g 	c #3B161B",
"h 	c #301F29",
"i 	c #160F20",
"j 	c #020118",
"k 	c #000018",
"l 	c #20161A",
"m 	c #302114",
"n 	c #400706",
"o 	c #590605",
"p 	c #690304",
"q 	c #670002",
"r 	c #540507",
"s 	c #3F1E20",
"t 	c #1D151E",
"u 	c #04020F",
"v 	c #0D0919",
"w 	c #3D1618",
"x 	c #480600",
"y 	c #510B04",
"z 	c #D78178",
"A 	c #CB726C",
"B 	c #700300",
"C 	c #710000",
"D 	c #6D040B",
"E 	c #520409",
"F 	c #3A1A25",
"G 	c #100910",
"H 	c #0B0915",
"I 	c #421416",
"J 	c #500C08",
"K 	c #520905",
"L 	c #8C3C32",
"M 	c #90332E",
"N 	c #6F0502",
"O 	c #760000",
"P 	c #6F0108",
"Q 	c #59040C",
"R 	c #401E24",
"S 	c #120D0D",
"T 	c #0C0910",
"U 	c #47161A",
"V 	c #560A08",
"W 	c #510802",
"X 	c #500501",
"Y 	c #5A0303",
"Z 	c #6B0201",
"` 	c #740000",
" .	c #680004",
"..	c #5B0306",
"+.	c #381818",
"@.	c #101110",
"#.	c #090606",
"$.	c #381419",
"%.	c #460B0E",
"&.	c #4B0B09",
"*.	c #540B07",
"=.	c #620A0A",
"-.	c #640404",
";.	c #600000",
">.	c #530606",
",.	c #4C0F0F",
"'.	c #2C1413",
").	c #0B0B06",
"!.	c #010201",
"~.	c #241513",
"{.	c #3C1B1C",
"].	c #4F0F13",
"^.	c #5B060D",
"/.	c #620408",
"(.	c #5D0000",
"_.	c #510500",
":.	c #431108",
"<.	c #3D2011",
"[.	c #1C0C0B",
"}.	c #080100",
"|.	c #040000",
"1.	c #080300",
"2.	c #220E10",
"3.	c #3F0F16",
"4.	c #500A0F",
"5.	c #560A0E",
"6.	c #530D0D",
"7.	c #401A0D",
"8.	c #36100C",
"9.	c #2A160F",
"0.	c #060603",
"a.	c #0A0003",
"b.	c #0C0000",
"c.	c #060000",
"d.	c #020606",
"e.	c #160C0E",
"f.	c #2C1616",
"g.	c #30211E",
"h.	c #28281F",
"i.	c #182015",
"j.	c #1E0A0C",
"k.	c #210308",
"l.	c #000B0C",
"m.	c #17030D",
"n.	c #080000",
"o.	c #030700",
"p.	c #030B00",
"q.	c #160001",
"r.	c #2C0303",
"s.	c #2F0706",
"t.	c #2C0A06",
"u.	c #230503",
"v.	c #140100",
"w.	c #0A0100",
"x.	c #001201",
"y.	c #03060A",
"z.	c #090200",
"A.	c #0E0B04",
"B.	c #250C0E",
"C.	c #3E1212",
"D.	c #3D1A18",
"E.	c #3E1D11",
"F.	c #301312",
"G.	c #170806",
"H.	c #0F0803",
"I.	c #020D00",
"J.	c #000403",
"K.	c #0F0000",
"L.	c #280B12",
"M.	c #420D1A",
"N.	c #510A16",
"O.	c #55080F",
"P.	c #580809",
"Q.	c #5F131D",
"R.	c #480E13",
"S.	c #390A0E",
"T.	c #0D0303",
"U.	c #010000",
"V.	c #411F23",
"W.	c #441213",
"X.	c #54050D",
"Y.	c #5C020A",
"Z.	c #68020A",
"`.	c #5B0006",
" +	c #530710",
".+	c #4E111A",
"++	c #250813",
"@+	c #080004",
"#+	c #100204",
"$+	c #2D1414",
"%+	c #3E1C1A",
"&+	c #390B06",
"*+	c #95574D",
"=+	c #954742",
"-+	c #5C0402",
";+	c #5B0201",
">+	c #4D0604",
",+	c #450E0E",
"'+	c #2D1919",
")+	c #090505",
"!+	c #1D080B",
"~+	c #421014",
"{+	c #490908",
"]+	c #52130F",
"^+	c #BA7E71",
"/+	c #B57A68",
"(+	c #4B0C03",
"_+	c #4B0700",
":+	c #470804",
"<+	c #440C0A",
"[+	c #3F1918",
"}+	c #1D0707",
"|+	c #150909",
"1+	c #51161D",
"2+	c #5E0910",
"3+	c #4F0403",
"4+	c #935048",
"5+	c #8F4D44",
"6+	c #4B0A02",
"7+	c #580D00",
"8+	c #530808",
"9+	c #4A0B05",
"0+	c #421616",
"a+	c #1C0705",
"b+	c #190D09",
"c+	c #491013",
"d+	c #680510",
"e+	c #600408",
"f+	c #5C0C09",
"g+	c #550602",
"h+	c #620100",
"i+	c #5B0505",
"j+	c #570709",
"k+	c #4D121B",
"l+	c #210607",
"m+	c #0B0305",
"n+	c #33181C",
"o+	c #480E12",
"p+	c #450B0B",
"q+	c #530404",
"r+	c #670305",
"s+	c #760204",
"t+	c #7B0000",
"u+	c #680005",
"v+	c #5B080F",
"w+	c #2B1B1B",
"x+	c #080E0B",
"y+	c #010500",
"z+	c #220F16",
"A+	c #431A26",
"B+	c #3C1010",
"C+	c #510905",
"D+	c #5C0502",
"E+	c #630202",
"F+	c #760009",
"G+	c #4A1114",
"H+	c #2C1F1E",
"I+	c #220F12",
"J+	c #090601",
"K+	c #050300",
"L+	c #0F0808",
"M+	c #270E1E",
"N+	c #2C1A11",
"O+	c #470F05",
"P+	c #4E0901",
"Q+	c #4F0402",
"R+	c #74051B",
"S+	c #341D1F",
"T+	c #02291F",
"U+	c #110105",
"V+	c #050000",
"W+	c #040003",
"X+	c #010004",
"Y+	c #080B12",
"Z+	c #09200D",
"`+	c #2A1D0A",
" @	c #39220A",
".@	c #3B1C0D",
"+@	c #3A1A19",
"@@	c #130F11",
"#@	c #000C0C",
"$@	c #060300",
"%@	c #020302",
"&@	c #000002",
"*@	c #030604",
"=@	c #050906",
"-@	c #050700",
";@	c #2D0600",
">@	c #360802",
",@	c #1D0803",
"'@	c #300303",
")@	c #0F0402",
"!@	c #000702",
"~@	c #000700",
"{@	c #000C05",
"]@	c #000000",
"^@	c #0B0406",
"/@	c #1C0809",
"(@	c #32120E",
"_@	c #3D1A16",
":@	c #2B120E",
"<@	c #020903",
"[@	c #000307",
"}@	c #00070D",
"|@	c #070000",
"1@	c #270D15",
"2@	c #3F1019",
"3@	c #4E0F18",
"4@	c #510E11",
"5@	c #500B0C",
"6@	c #59151E",
"7@	c #3E1012",
"8@	c #2A0B10",
"9@	c #0B0407",
"0@	c #02020D",
"a@	c #1D0C0F",
"b@	c #3D1B23",
"c@	c #440E15",
"d@	c #55030E",
"e@	c #5D010B",
"f@	c #68010A",
"g@	c #5F020A",
"h@	c #570712",
"i@	c #4E111C",
"j@	c #200914",
"k@	c #060107",
"l@	c #0E0203",
"m@	c #2A1313",
"n@	c #3E1C1E",
"o@	c #360F05",
"p@	c #85443B",
"q@	c #833832",
"r@	c #5B0101",
"s@	c #4E0303",
"t@	c #450C0C",
"u@	c #2B1818",
"v@	c #090404",
"w@	c #1E0C0C",
"x@	c #3F1113",
"y@	c #440B0A",
"z@	c #50160D",
"A@	c #BB7E71",
"B@	c #B7796C",
"C@	c #4E0F00",
"D@	c #4D0500",
"E@	c #490A04",
"F@	c #441208",
"G@	c #3A1D1D",
"H@	c #1B0808",
"I@	c #140909",
"J@	c #5E0B11",
"K@	c #4C0402",
"L@	c #A4635A",
"M@	c #9D5E51",
"N@	c #470A01",
"O@	c #540E00",
"P@	c #4D0808",
"Q@	c #480604",
"R@	c #411914",
"S@	c #190607",
"T@	c #170909",
"U@	c #4C1115",
"V@	c #66050F",
"W@	c #5F0408",
"X@	c #590A07",
"Y@	c #590702",
"Z@	c #5B0402",
"`@	c #630200",
" #	c #5E0606",
".#	c #570508",
"+#	c #4C171B",
"@#	c #0E0806",
"##	c #38191C",
"$#	c #451312",
"%#	c #4A0A0B",
"&#	c #540605",
"*#	c #650204",
"=#	c #720204",
"-#	c #770000",
";#	c #670004",
">#	c #5A0810",
",#	c #311C1F",
"'#	c #0C0E0A",
")#	c #000400",
"!#	c #270E14",
"~#	c #461622",
"{#	c #410F0F",
"]#	c #530806",
"^#	c #5E0202",
"/#	c #660202",
"(#	c #770007",
"_#	c #550C10",
":#	c #34181C",
"<#	c #221012",
"[#	c #050701",
"}#	c #000C00",
"|#	c #10080B",
"1#	c #2E0F21",
"2#	c #321411",
"3#	c #4A0903",
"4#	c #520500",
"5#	c #540101",
"6#	c #7B0019",
"7#	c #3A1E21",
"8#	c #042A23",
"9#	c #150308",
"0#	c #030006",
"a#	c #0A0E16",
"b#	c #0B2711",
"c#	c #2D1F0C",
"d#	c #39230B",
"e#	c #3E200D",
"f#	c #3D1D1C",
"g#	c #141213",
"h#	c #000E0F",
"i#	c #000003",
"j#	c #170001",
"k#	c #090001",
"l#	c #09000B",
"m#	c #0B020A",
"n#	c #000F00",
"o#	c #2C0A00",
"p#	c #390C03",
"q#	c #240C05",
"r#	c #360505",
"s#	c #150103",
"t#	c #000809",
"u#	c #000103",
"v#	c #090104",
"w#	c #090002",
"x#	c #0E0004",
"y#	c #0F0406",
"z#	c #0F0D00",
"A#	c #590300",
"B#	c #650E0B",
"C#	c #461907",
"D#	c #510205",
"E#	c #2A0000",
"F#	c #0B0001",
"G#	c #080105",
"H#	c #1F0300",
"I#	c #4D0603",
"J#	c #750308",
"K#	c #A8040B",
"L#	c #C6040E",
"M#	c #D70210",
"N#	c #A10B13",
"O#	c #7A0106",
"P#	c #570103",
"Q#	c #000A00",
"R#	c #000200",
"S#	c #380000",
"T#	c #720400",
"U#	c #B20409",
"V#	c #E30816",
"W#	c #F50214",
"X#	c #FC0116",
"Y#	c #E60512",
"Z#	c #A70A07",
"`#	c #690403",
" $	c #3A0A06",
".$	c #0B0200",
"+$	c #0F0400",
"@$	c #5E0900",
"#$	c #A20602",
"$$	c #DB0A0F",
"%$	c #EE3F32",
"&$	c #F8332E",
"*$	c #EF040B",
"=$	c #FE000A",
"-$	c #D00D09",
";$	c #9A0D03",
">$	c #650606",
",$	c #180800",
"'$	c #310203",
")$	c #950305",
"!$	c #E50404",
"~$	c #F00B0B",
"{$	c #FCC390",
"]$	c #F4A77A",
"^$	c #DE0800",
"/$	c #F90201",
"($	c #FE0306",
"_$	c #EF0007",
":$	c #8E0000",
"<$	c #291000",
"[$	c #3D0206",
"}$	c #7D0309",
"|$	c #C80E04",
"1$	c #EB0B0A",
"2$	c #E32114",
"3$	c #F12519",
"4$	c #EC0800",
"5$	c #EB0800",
"6$	c #ED0401",
"7$	c #E70906",
"8$	c #8B0000",
"9$	c #3A0200",
"0$	c #320408",
"a$	c #7D060B",
"b$	c #D01103",
"c$	c #EF0603",
"d$	c #ED0708",
"e$	c #EE0407",
"f$	c #F10607",
"g$	c #EA0C00",
"h$	c #EE0801",
"i$	c #E20404",
"j$	c #750604",
"k$	c #2F0202",
"l$	c #290709",
"m$	c #86090D",
"n$	c #D20404",
"o$	c #FD0210",
"p$	c #FA0209",
"q$	c #FB0205",
"r$	c #FB0405",
"s$	c #EE0700",
"t$	c #F40607",
"u$	c #E90202",
"v$	c #590C05",
"w$	c #1B0407",
"x$	c #4A0000",
"y$	c #930505",
"z$	c #CA0909",
"A$	c #F30303",
"B$	c #FB0200",
"C$	c #EF0700",
"D$	c #C40C03",
"E$	c #880801",
"F$	c #2A0400",
"G$	c #090500",
"H$	c #040009",
"I$	c #320003",
"J$	c #640304",
"K$	c #96050A",
"L$	c #C9060E",
"M$	c #DB0A0D",
"N$	c #E1070A",
"O$	c #CC090B",
"P$	c #9C0406",
"Q$	c #680502",
"R$	c #1E0205",
"S$	c #060206",
"T$	c #080012",
"U$	c #1C0008",
"V$	c #330003",
"W$	c #5C0108",
"X$	c #88020A",
"Y$	c #A0020C",
"Z$	c #A60107",
"`$	c #95010B",
" %	c #690004",
".%	c #410103",
"+%	c #120308",
"@%	c #04000E",
"#%	c #080021",
"$%	c #030019",
"%%	c #020013",
"&%	c #140218",
"*%	c #36041E",
"=%	c #40021E",
"-%	c #430019",
";%	c #380016",
">%	c #23000E",
",%	c #160011",
"'%	c #07001E",
")%	c #02001F",
"!%	c #020021",
"~%	c #00031F",
"{%	c #01051E",
"]%	c #08051D",
"^%	c #0C011C",
"/%	c #10001D",
"(%	c #10001C",
"_%	c #0E001B",
":%	c #0A0019",
"<%	c #06001C",
"[%	c #020020",
"}%	c #00001C",
". + @ # $ % & * = - ; > ",
", ' ) ! ~ { ] ^ / ( _ : ",
"< [ } | 1 2 3 4 5 6 7 8 ",
"9 0 a b c d e f g h i j ",
"k l m n o p q r f s t u ",
"v w x y z A B C D E F G ",
"H I J K L M N O P Q R S ",
"T U V W X Y Z `  ...+.@.",
"#.$.%.&.*.=.-.;.>.,.'.).",
"!.~.{.].^./.(._.:.<.[.}.",
"|.1.2.3.4.5.6.7.8.9.0.a.",
"b.c.d.e.f.g.h.i.j.k.l.m.",
"n.o.p.q.r.s.t.u.v.w.x.y.",
"n.z.A.B.C.D.E.F.G.H.I.J.",
"c.K.L.M.N.O.P.Q.R.S.T.U.",
"c.2.V.W.X.Y.Z.`. +.+++@+",
"#+$+%+&+*+=+-+;+>+,+'+)+",
"!+~+{+]+^+/+(+_+:+<+[+}+",
"|+1+2+3+4+5+6+7+8+9+0+a+",
"b+c+d+e+f+g+;+h+i+j+k+l+",
"m+n+o+p+q+r+s+t+u+v+w+x+",
"y+z+A+B+C+D+E+F+G+H+I+J+",
"K+L+M+N+O+P+Q+R+S+T+U+V+",
"W+X+Y+Z+`+ @.@+@@@#@$@%@",
"&@*@=@-@;@>@,@'@)@!@~@{@",
"]@U.^@/@(@_@E.:@A.<@[@}@",
"]@|@1@2@3@4@5@6@7@8@9@0@",
"U.a@b@c@d@e@f@g@h@i@j@k@",
"l@m@n@o@p@q@D+r@s@t@u@v@",
"w@x@y@z@A@B@C@D@E@F@G@H@",
"I@1+J@K@L@M@N@O@P@Q@R@S@",
"T@U@V@W@X@Y@Z@`@ #.#+#l+",
"@###$#%#&#*#=#-#;#>#,#'#",
")#!#~#{#]#^#/#(#_#:#<#[#",
"}#|#1#2#3#4#5#6#7#8#9#V+",
"|@0#a#b#c#d#e#f#g#h#i#j#",
"k#l#m#n#o#p#q#r#s#t#u#v#",
"w#x#y#z#A#B#C#D#E#F#u#G#",
")#H#I#J#K#L#M#N#O#P#Q#~@",
"R#S#T#U#V#W#X#Y#Z#`# $.$",
"+$@$#$$$%$&$*$=$-$;$>$,$",
"'$)$!$~${$]$^$/$($_$:$<$",
"[$}$|$1$2$3$4$5$6$7$8$9$",
"0$a$b$c$d$e$f$g$h$i$j$k$",
"l$m$n$o$p$q$r$s$t$u$v$w$",
"]@x$y$z$A$B$B$C$D$E$F$G$",
"H$I$J$K$L$M$N$O$P$Q$R$S$",
"T$U$V$W$X$Y$Z$`$ %.%+%@%",
"#%$%%%&%*%=%-%;%>%,%'%)%",
"!%~%{%]%^%/%(%_%:%<%[%}%"};
