/* XPM */
static char * t5_xpm[] = {
"12 50 587 2",
"  	c None",
". 	c #0D0026",
"+ 	c #14002A",
"@ 	c #0F0025",
"# 	c #0F0120",
"$ 	c #0E041E",
"% 	c #140722",
"& 	c #18071E",
"* 	c #26061E",
"= 	c #1D001B",
"- 	c #18001D",
"; 	c #0D0029",
"> 	c #050032",
", 	c #070024",
"' 	c #08001D",
") 	c #0C0020",
"! 	c #200C27",
"~ 	c #35152E",
"{ 	c #421C32",
"] 	c #41192F",
"^ 	c #34132B",
"/ 	c #1F0621",
"( 	c #10041C",
"_ 	c #070023",
": 	c #040026",
"< 	c #010020",
"[ 	c #070A16",
"} 	c #17151C",
"| 	c #391B25",
"1 	c #4F0E1D",
"2 	c #4F0415",
"3 	c #4C0711",
"4 	c #401621",
"5 	c #321925",
"6 	c #1F1627",
"7 	c #07051C",
"8 	c #050019",
"9 	c #000019",
"0 	c #17131F",
"a 	c #2A1C21",
"b 	c #411217",
"c 	c #51030B",
"d 	c #5A000A",
"e 	c #5F020F",
"f 	c #450B11",
"g 	c #3B131B",
"h 	c #311F25",
"i 	c #181020",
"j 	c #050018",
"k 	c #000018",
"l 	c #20111B",
"m 	c #331A10",
"n 	c #410606",
"o 	c #590505",
"p 	c #690304",
"q 	c #670002",
"r 	c #570607",
"s 	c #460F11",
"t 	c #3D1A20",
"u 	c #1E131E",
"v 	c #04000F",
"w 	c #090919",
"x 	c #3D1618",
"y 	c #480D04",
"z 	c #4E0704",
"A 	c #D58178",
"B 	c #CA786B",
"C 	c #700300",
"D 	c #710000",
"E 	c #6A050C",
"F 	c #540409",
"G 	c #3A1D25",
"H 	c #100D10",
"I 	c #0D0B15",
"J 	c #431616",
"K 	c #4F0708",
"L 	c #520805",
"M 	c #903B35",
"N 	c #8E312B",
"O 	c #6B0505",
"P 	c #750000",
"Q 	c #6C060A",
"R 	c #5D050A",
"S 	c #401B24",
"T 	c #120E0D",
"U 	c #0A0910",
"V 	c #45161A",
"W 	c #560C08",
"X 	c #510B02",
"Y 	c #510602",
"Z 	c #5A0303",
"` 	c #6A0202",
" .	c #740000",
"..	c #670104",
"+.	c #5B0409",
"@.	c #381718",
"#.	c #100E10",
"$.	c #070706",
"%.	c #361519",
"&.	c #460B0E",
"*.	c #4B0B09",
"=.	c #540B07",
"-.	c #620A0A",
";.	c #640404",
">.	c #610000",
",.	c #560606",
"'.	c #4D0F0F",
").	c #2C1313",
"!.	c #0B0C06",
"~.	c #010201",
"{.	c #241413",
"].	c #3C1B1C",
"^.	c #4F0F13",
"/.	c #5C060D",
"(.	c #640408",
"_.	c #5B0000",
":.	c #4C0800",
"<.	c #430E08",
"[.	c #3D2115",
"}.	c #180E0B",
"|.	c #080100",
"1.	c #040000",
"2.	c #0B0100",
"3.	c #221110",
"4.	c #3E1016",
"5.	c #500A0F",
"6.	c #560A0E",
"7.	c #530E0B",
"8.	c #43160E",
"9.	c #33150C",
"0.	c #28140D",
"a.	c #060203",
"b.	c #080003",
"c.	c #0C0000",
"d.	c #060200",
"e.	c #030406",
"f.	c #160E0E",
"g.	c #2B1616",
"h.	c #30211E",
"i.	c #2B241C",
"j.	c #181D18",
"k.	c #210E0E",
"l.	c #1E0209",
"m.	c #000A0B",
"n.	c #1B020E",
"o.	c #080000",
"p.	c #030800",
"q.	c #040A00",
"r.	c #180101",
"s.	c #2E0203",
"t.	c #340606",
"u.	c #2F0807",
"v.	c #260402",
"w.	c #150101",
"x.	c #0A0201",
"y.	c #001301",
"z.	c #04060B",
"A.	c #0B0500",
"B.	c #170400",
"C.	c #480200",
"D.	c #6A0106",
"E.	c #760A0A",
"F.	c #730D0D",
"G.	c #680403",
"H.	c #420000",
"I.	c #1E0100",
"J.	c #020D00",
"K.	c #000403",
"L.	c #160000",
"M.	c #370400",
"N.	c #8D0205",
"O.	c #A80A15",
"P.	c #C0151D",
"Q.	c #CC111D",
"R.	c #B50510",
"S.	c #7C0305",
"T.	c #470101",
"U.	c #0A0000",
"V.	c #010000",
"W.	c #0B0000",
"X.	c #4D0000",
"Y.	c #930502",
"Z.	c #E9010C",
"`.	c #C8100E",
" +	c #D00D0A",
".+	c #F9000A",
"++	c #FB0010",
"@+	c #DB0109",
"#+	c #A90001",
"$+	c #440100",
"%+	c #180000",
"&+	c #1A0405",
"*+	c #5E0507",
"=+	c #B30F0E",
"-+	c #F1010E",
";+	c #EB775E",
">+	c #EB644C",
",+	c #F80009",
"'+	c #F5040D",
")+	c #EB0614",
"!+	c #D2010B",
"~+	c #540200",
"{+	c #230000",
"]+	c #210507",
"^+	c #6F070A",
"/+	c #CB1613",
"(+	c #F9000B",
"_+	c #FEB68E",
":+	c #FE9776",
"<+	c #FB0805",
"[+	c #EB0805",
"}+	c #F1040C",
"|+	c #E7010F",
"1+	c #600C02",
"2+	c #2E0402",
"3+	c #240508",
"4+	c #81070B",
"5+	c #DF0E19",
"6+	c #F6020C",
"7+	c #DA7350",
"8+	c #E06446",
"9+	c #F40705",
"0+	c #EA0601",
"a+	c #F9050A",
"b+	c #ED0010",
"c+	c #700703",
"d+	c #430302",
"e+	c #210707",
"f+	c #7E090A",
"g+	c #DF0F1C",
"h+	c #F7000B",
"i+	c #E51109",
"j+	c #EA0E03",
"k+	c #F30201",
"l+	c #F40402",
"m+	c #FD070F",
"n+	c #EC0414",
"o+	c #670400",
"p+	c #460200",
"q+	c #170304",
"r+	c #700405",
"s+	c #C2050A",
"t+	c #E70B0E",
"u+	c #EB0305",
"v+	c #F50200",
"w+	c #F80700",
"x+	c #FB0002",
"y+	c #EA0209",
"z+	c #CA020B",
"A+	c #510A06",
"B+	c #390000",
"C+	c #090001",
"D+	c #530201",
"E+	c #890301",
"F+	c #BE130D",
"G+	c #EB0606",
"H+	c #F30202",
"I+	c #E60700",
"J+	c #F60005",
"K+	c #C60601",
"L+	c #7E0602",
"M+	c #2C1509",
"N+	c #060001",
"O+	c #1C0000",
"P+	c #3E0501",
"Q+	c #72080B",
"R+	c #AD0B17",
"S+	c #C90B1E",
"T+	c #D4101D",
"U+	c #BA0915",
"V+	c #8B0406",
"W+	c #590101",
"X+	c #1E0201",
"Y+	c #090000",
"Z+	c #020004",
"`+	c #0B0001",
" @	c #200503",
".@	c #3D0002",
"+@	c #6C0307",
"@@	c #780B0C",
"#@	c #7B0B09",
"$@	c #6B0404",
"%@	c #2A0300",
"&@	c #0D0300",
"*@	c #070302",
"=@	c #010005",
"-@	c #030302",
";@	c #070A04",
">@	c #0E0000",
",@	c #280202",
"'@	c #330706",
")@	c #2F0706",
"!@	c #1B0200",
"~@	c #080400",
"{@	c #000700",
"]@	c #000C05",
"^@	c #000000",
"/@	c #0B0406",
"(@	c #1A0809",
"_@	c #321212",
":@	c #401D13",
"<@	c #421D17",
"[@	c #1F160D",
"}@	c #0E0B04",
"|@	c #020903",
"1@	c #000306",
"2@	c #00070D",
"3@	c #070000",
"4@	c #260D14",
"5@	c #391217",
"6@	c #501318",
"7@	c #500C11",
"8@	c #510C09",
"9@	c #591619",
"0@	c #3E1514",
"a@	c #2D080D",
"b@	c #0B0208",
"c@	c #02020D",
"d@	c #1D0B0F",
"e@	c #3E1527",
"f@	c #420915",
"g@	c #54040E",
"h@	c #5D000B",
"i@	c #68040A",
"j@	c #5F0209",
"k@	c #580913",
"l@	c #4B0E1A",
"m@	c #200913",
"n@	c #060009",
"o@	c #0E0203",
"p@	c #2A1013",
"q@	c #3E1C1B",
"r@	c #360D05",
"s@	c #85433E",
"t@	c #833932",
"u@	c #5C0202",
"v@	c #5B0101",
"w@	c #4F0606",
"x@	c #460E0B",
"y@	c #2B1818",
"z@	c #090404",
"A@	c #1A080C",
"B@	c #3F1113",
"C@	c #44090A",
"D@	c #500F0D",
"E@	c #BB7D71",
"F@	c #B77C68",
"G@	c #4E0F00",
"H@	c #4A0900",
"I@	c #4A0704",
"J@	c #440C0B",
"K@	c #3D201B",
"L@	c #190906",
"M@	c #180909",
"N@	c #51161B",
"O@	c #5D0C11",
"P@	c #490702",
"Q@	c #A4635A",
"R@	c #9D5E51",
"S@	c #470201",
"T@	c #540D01",
"U@	c #4D0805",
"V@	c #470604",
"W@	c #3D1518",
"X@	c #190607",
"Y@	c #180B0B",
"Z@	c #4E1315",
"`@	c #66070F",
" #	c #5F0308",
".#	c #590707",
"+#	c #590402",
"@#	c #5B0402",
"##	c #630202",
"$#	c #5E0606",
"%#	c #570608",
"&#	c #4C0F1B",
"*#	c #210407",
"=#	c #0D0605",
"-#	c #391817",
";#	c #451311",
">#	c #4A0A09",
",#	c #540504",
"'#	c #650204",
")#	c #720204",
"!#	c #770000",
"~#	c #670004",
"{#	c #5A0810",
"]#	c #311A1F",
"^#	c #0C0D0A",
"/#	c #010600",
"(#	c #250E14",
"_#	c #451523",
":#	c #410D12",
"<#	c #530806",
"[#	c #5E0502",
"}#	c #660202",
"|#	c #770307",
"1#	c #550E10",
"2#	c #34181C",
"3#	c #210F12",
"4#	c #040601",
"5#	c #000B00",
"6#	c #110A0B",
"7#	c #2E0E21",
"8#	c #321111",
"9#	c #4A0D03",
"0#	c #520500",
"a#	c #540101",
"b#	c #760214",
"c#	c #3A1F21",
"d#	c #042A23",
"e#	c #140208",
"f#	c #040400",
"g#	c #030004",
"h#	c #060C17",
"i#	c #0B2711",
"j#	c #2B2210",
"k#	c #39210B",
"l#	c #3E1D0D",
"m#	c #3D1F1E",
"n#	c #141213",
"o#	c #00090F",
"p#	c #000303",
"q#	c #170001",
"r#	c #090009",
"s#	c #0B040C",
"t#	c #000F00",
"u#	c #2E0700",
"v#	c #390C03",
"w#	c #240C05",
"x#	c #360807",
"y#	c #150103",
"z#	c #000609",
"A#	c #000203",
"B#	c #090004",
"C#	c #090002",
"D#	c #0E0004",
"E#	c #0F0306",
"F#	c #0F0D00",
"G#	c #590300",
"H#	c #650E0B",
"I#	c #461907",
"J#	c #550205",
"K#	c #2A0000",
"L#	c #0B0101",
"M#	c #000103",
"N#	c #080105",
"O#	c #000400",
"P#	c #1F0300",
"Q#	c #4D0303",
"R#	c #750308",
"S#	c #A8040B",
"T#	c #C50510",
"U#	c #D80310",
"V#	c #A00A12",
"W#	c #7B0007",
"X#	c #570104",
"Y#	c #000A00",
"Z#	c #000200",
"`#	c #380000",
" $	c #720400",
".$	c #B20409",
"+$	c #E3081B",
"@$	c #F20314",
"#$	c #FB0214",
"$$	c #E50411",
"%$	c #A80607",
"&$	c #650304",
"*$	c #3A0A06",
"=$	c #0B0200",
"-$	c #0F0200",
";$	c #5E0600",
">$	c #A30703",
",$	c #DF0A11",
"'$	c #EE3731",
")$	c #F92F2E",
"!$	c #F0040F",
"~$	c #FE000C",
"{$	c #CF0D0C",
"]$	c #9A0D03",
"^$	c #650606",
"/$	c #180800",
"($	c #300603",
"_$	c #930905",
":$	c #E50104",
"<$	c #E50B0B",
"[$	c #FCC08E",
"}$	c #F3A77A",
"|$	c #DC0800",
"1$	c #F90301",
"2$	c #FA0506",
"3$	c #EE0007",
"4$	c #8E0000",
"5$	c #291000",
"6$	c #3D0306",
"7$	c #800409",
"8$	c #C80D03",
"9$	c #E90B08",
"0$	c #E32115",
"a$	c #F12618",
"b$	c #EB0800",
"c$	c #EC0900",
"d$	c #EF0801",
"e$	c #E70906",
"f$	c #8B0002",
"g$	c #3A0202",
"h$	c #320308",
"i$	c #7D040B",
"j$	c #CC0F03",
"k$	c #F00605",
"l$	c #ED0609",
"m$	c #EF0605",
"n$	c #EF0805",
"o$	c #EA0900",
"p$	c #EC0801",
"q$	c #E40403",
"r$	c #730403",
"s$	c #2D0202",
"t$	c #290609",
"u$	c #86080D",
"v$	c #D20404",
"w$	c #FC0210",
"x$	c #FA0209",
"y$	c #FB0505",
"z$	c #EF0700",
"A$	c #F6060A",
"B$	c #EA0203",
"C$	c #550E03",
"D$	c #1A0406",
"E$	c #4A0000",
"F$	c #930505",
"G$	c #CA0909",
"H$	c #F30303",
"I$	c #FE0200",
"J$	c #FB0200",
"K$	c #C40C03",
"L$	c #890901",
"M$	c #2E0903",
"N$	c #080500",
"O$	c #040009",
"P$	c #320003",
"Q$	c #640304",
"R$	c #91050A",
"S$	c #C6060E",
"T$	c #D90A0F",
"U$	c #E30709",
"V$	c #CC090B",
"W$	c #9C0406",
"X$	c #650202",
"Y$	c #1D0402",
"Z$	c #070206",
"`$	c #080012",
" %	c #1C0008",
".%	c #340003",
"+%	c #5D0108",
"@%	c #8C020A",
"#%	c #9D020D",
"$%	c #A40106",
"%%	c #96020B",
"&%	c #690104",
"*%	c #430003",
"=%	c #0F0008",
"-%	c #04000E",
";%	c #080021",
">%	c #030019",
",%	c #040013",
"'%	c #150218",
")%	c #34041E",
"!%	c #40021C",
"~%	c #430019",
"{%	c #3A0217",
"]%	c #250510",
"^%	c #160011",
"/%	c #07001E",
"(%	c #02001F",
"_%	c #020021",
":%	c #00061F",
"<%	c #000A1E",
"[%	c #03051D",
"}%	c #0B011C",
"|%	c #10001C",
"1%	c #13001C",
"2%	c #0E001B",
"3%	c #0A011B",
"4%	c #06001C",
"5%	c #020020",
"6%	c #00001C",
". + @ # $ % & * = - ; > ",
", ' ) ! ~ { ] ^ / ( _ : ",
"< [ } | 1 2 3 4 5 6 7 8 ",
"9 0 a b c d e f g h i j ",
"k l m n o p q r s t u v ",
"w x y z A B C D E F G H ",
"I J K L M N O P Q R S T ",
"U V W X Y Z `  ...+.@.#.",
"$.%.&.*.=.-.;.>.,.'.).!.",
"~.{.].^./.(._.:.<.[.}.|.",
"1.2.3.4.5.6.7.8.9.0.a.b.",
"c.d.e.f.g.h.i.j.k.l.m.n.",
"o.p.q.r.s.t.u.v.w.x.y.z.",
"o.A.B.C.D.E.F.G.H.I.J.K.",
"o.L.M.N.O.P.Q.R.S.T.U.V.",
"W.X.Y.Z.`. +.+++@+#+$+%+",
"&+*+=+-+;+>+,+'+)+!+~+{+",
"]+^+/+(+_+:+<+[+}+|+1+2+",
"3+4+5+6+7+8+9+0+a+b+c+d+",
"e+f+g+h+i+j+k+l+m+n+o+p+",
"q+r+s+t+u+v+w+x+y+z+A+B+",
"C+D+E+F+G+H+I+J+K+L+M+L.",
"N+O+P+Q+R+S+T+U+V+W+X+Y+",
"Z+`+ @.@+@@@#@$@d+%@&@*@",
"=@-@;@>@,@'@)@!@~@{@{@]@",
"^@V./@(@_@:@<@[@}@|@1@2@",
"^@3@4@5@6@7@8@9@0@a@b@c@",
"V.d@e@f@g@h@i@j@k@l@m@n@",
"o@p@q@r@s@t@u@v@w@x@y@z@",
"A@B@C@D@E@F@G@H@I@J@K@L@",
"M@N@O@P@Q@R@S@T@U@V@W@X@",
"Y@Z@`@ #.#+#@###$#%#&#*#",
"=#-#;#>#,#'#)#!#~#{#]#^#",
"/#(#_#:#<#[#}#|#1#2#3#4#",
"5#6#7#8#9#0#a#b#c#d#e#f#",
"3@g#h#i#j#k#l#m#n#o#p#q#",
"C+r#s#t#u#v#w#x#y#z#A#B#",
"C#D#E#F#G#H#I#J#K#L#M#N#",
"O#P#Q#R#S#T#U#V#W#X#Y#{@",
"Z#`# $.$+$@$#$$$%$&$*$=$",
"-$;$>$,$'$)$!$~${$]$^$/$",
"($_$:$<$[$}$|$1$2$3$4$5$",
"6$7$8$9$0$a$b$c$d$e$f$g$",
"h$i$j$k$l$m$n$o$p$q$r$s$",
"t$u$v$w$x$y$<+z$A$B$C$D$",
"^@E$F$G$H$I$J$z$K$L$M$N$",
"O$P$Q$R$S$T$U$V$W$X$Y$Z$",
"`$ %.%+%@%#%$%%%&%*%=%-%",
";%>%,%'%)%!%~%{%]%^%/%(%",
"_%:%<%[%}%|%1%2%3%4%5%6%"};
