/* XPM */
static char * t6_xpm[] = {
"12 50 594 2",
"  	c None",
". 	c #0D0026",
"+ 	c #14002A",
"@ 	c #0F0025",
"# 	c #0D0220",
"$ 	c #0D041E",
"% 	c #140722",
"& 	c #18071E",
"* 	c #26061E",
"= 	c #1D001B",
"- 	c #18001D",
"; 	c #0D0029",
"> 	c #050032",
", 	c #070024",
"' 	c #08001D",
") 	c #0B0120",
"! 	c #250E27",
"~ 	c #38152E",
"{ 	c #421C32",
"] 	c #41192F",
"^ 	c #34132B",
"/ 	c #1F0621",
"( 	c #10001C",
"_ 	c #070023",
": 	c #040026",
"< 	c #010020",
"[ 	c #030A19",
"} 	c #16151D",
"| 	c #381825",
"1 	c #4F0C1D",
"2 	c #4F0415",
"3 	c #4C0711",
"4 	c #401621",
"5 	c #321925",
"6 	c #1F1624",
"7 	c #09081C",
"8 	c #050019",
"9 	c #000019",
"0 	c #17161D",
"a 	c #2C1F20",
"b 	c #401317",
"c 	c #52040B",
"d 	c #5A000A",
"e 	c #61050F",
"f 	c #450911",
"g 	c #3B151B",
"h 	c #301F29",
"i 	c #150F20",
"j 	c #050118",
"k 	c #000018",
"l 	c #20131A",
"m 	c #302014",
"n 	c #400706",
"o 	c #5A0605",
"p 	c #650304",
"q 	c #680102",
"r 	c #570407",
"s 	c #460D11",
"t 	c #3F1F20",
"u 	c #1E141E",
"v 	c #04000F",
"w 	c #0D0919",
"x 	c #3D1618",
"y 	c #480600",
"z 	c #4E0B04",
"A 	c #D58178",
"B 	c #CC726C",
"C 	c #6D0303",
"D 	c #720000",
"E 	c #68040B",
"F 	c #530409",
"G 	c #3A1D25",
"H 	c #100B10",
"I 	c #0E0915",
"J 	c #421416",
"K 	c #500808",
"L 	c #520905",
"M 	c #903D35",
"N 	c #8F302B",
"O 	c #6D0202",
"P 	c #760000",
"Q 	c #6E0108",
"R 	c #5D040C",
"S 	c #401E24",
"T 	c #120D0D",
"U 	c #0E0910",
"V 	c #45161A",
"W 	c #550908",
"X 	c #510802",
"Y 	c #510502",
"Z 	c #5A0302",
"` 	c #6B0101",
" .	c #740000",
"..	c #670004",
"+.	c #5B0306",
"@.	c #381718",
"#.	c #101010",
"$.	c #060506",
"%.	c #381519",
"&.	c #430C0E",
"*.	c #4D0B09",
"=.	c #540B07",
"-.	c #630A0A",
";.	c #630404",
">.	c #600300",
",.	c #530606",
"'.	c #4C0F0F",
").	c #2C1211",
"!.	c #0B0C08",
"~.	c #010201",
"{.	c #241513",
"].	c #3C1B1C",
"^.	c #4E1113",
"/.	c #5A070D",
"(.	c #610408",
"_.	c #5A0000",
":.	c #500500",
"<.	c #431108",
"[.	c #3D2015",
"}.	c #1C0C0A",
"|.	c #080201",
"1.	c #040000",
"2.	c #080100",
"3.	c #221110",
"4.	c #3F1216",
"5.	c #500A0F",
"6.	c #58090E",
"7.	c #530D0D",
"8.	c #401A0D",
"9.	c #360D09",
"0.	c #2A150E",
"a.	c #060603",
"b.	c #0A0003",
"c.	c #0C0000",
"d.	c #060200",
"e.	c #030406",
"f.	c #180A0E",
"g.	c #2C1216",
"h.	c #321F1E",
"i.	c #28281F",
"j.	c #181F15",
"k.	c #1E080E",
"l.	c #210309",
"m.	c #000B0C",
"n.	c #17030D",
"o.	c #080000",
"p.	c #030800",
"q.	c #030A00",
"r.	c #170001",
"s.	c #2E0203",
"t.	c #340606",
"u.	c #2E0A06",
"v.	c #260502",
"w.	c #150301",
"x.	c #0A0100",
"y.	c #000F01",
"z.	c #03080A",
"A.	c #0B0500",
"B.	c #170400",
"C.	c #480200",
"D.	c #6A0707",
"E.	c #76070C",
"F.	c #750D09",
"G.	c #670405",
"H.	c #410000",
"I.	c #1D0100",
"J.	c #020B00",
"K.	c #000203",
"L.	c #160000",
"M.	c #370400",
"N.	c #8D0205",
"O.	c #AC0615",
"P.	c #C0151D",
"Q.	c #CD111D",
"R.	c #B60518",
"S.	c #800308",
"T.	c #470101",
"U.	c #0A0400",
"V.	c #010400",
"W.	c #0B0000",
"X.	c #4D0000",
"Y.	c #930502",
"Z.	c #EA010C",
"`.	c #C3080E",
" +	c #D00F08",
".+	c #F9020A",
"++	c #F7000E",
"@+	c #D9000A",
"#+	c #AC0403",
"$+	c #440000",
"%+	c #180000",
"&+	c #1A0405",
"*+	c #5E0507",
"=+	c #B20F0E",
"-+	c #F6010E",
";+	c #EB775E",
">+	c #EA644E",
",+	c #FA0209",
"'+	c #F0000A",
")+	c #EB0210",
"!+	c #D3000D",
"~+	c #540100",
"{+	c #230100",
"]+	c #210507",
"^+	c #6F070A",
"/+	c #CA1613",
"(+	c #F6000B",
"_+	c #FEB78E",
":+	c #FD9B76",
"<+	c #FB0505",
"[+	c #E80106",
"}+	c #F3070F",
"|+	c #E7020F",
"1+	c #600400",
"2+	c #2C0200",
"3+	c #240508",
"4+	c #81070B",
"5+	c #DF1019",
"6+	c #F6020C",
"7+	c #DA7550",
"8+	c #E06546",
"9+	c #F40905",
"0+	c #EA0701",
"a+	c #F9030A",
"b+	c #ED000E",
"c+	c #700905",
"d+	c #450303",
"e+	c #210707",
"f+	c #7E090A",
"g+	c #DF0C1C",
"h+	c #F7000B",
"i+	c #E51309",
"j+	c #EA0E03",
"k+	c #F30201",
"l+	c #F80203",
"m+	c #FA010E",
"n+	c #EB0416",
"o+	c #680700",
"p+	c #460200",
"q+	c #180104",
"r+	c #710205",
"s+	c #C2010A",
"t+	c #E70B0E",
"u+	c #ED0405",
"v+	c #F50200",
"w+	c #F80700",
"x+	c #FE0101",
"y+	c #ED0509",
"z+	c #CA020B",
"A+	c #510A06",
"B+	c #390000",
"C+	c #0A0001",
"D+	c #520001",
"E+	c #880201",
"F+	c #BE130D",
"G+	c #EE0806",
"H+	c #F60502",
"I+	c #E60700",
"J+	c #FC0303",
"K+	c #C60601",
"L+	c #810602",
"M+	c #2E1509",
"N+	c #170000",
"O+	c #080001",
"P+	c #1B0000",
"Q+	c #3E0601",
"R+	c #72080B",
"S+	c #AC0B17",
"T+	c #CB0C1E",
"U+	c #D00C1D",
"V+	c #B90A17",
"W+	c #88060B",
"X+	c #590102",
"Y+	c #1B0201",
"Z+	c #0A0000",
"`+	c #040004",
" @	c #0C0001",
".@	c #210803",
"+@	c #3F0002",
"@@	c #650004",
"#@	c #6E0002",
"$@	c #6C0200",
"%@	c #6A0206",
"&@	c #430100",
"*@	c #2A0300",
"=@	c #0D0300",
"-@	c #070302",
";@	c #000005",
">@	c #030602",
",@	c #040B00",
"'@	c #1B0002",
")@	c #41010A",
"!@	c #4B110F",
"~@	c #46120B",
"{@	c #320600",
"]@	c #160100",
"^@	c #010600",
"/@	c #000700",
"(@	c #000C05",
"_@	c #000000",
":@	c #100000",
"<@	c #340000",
"[@	c #850102",
"}@	c #9F0208",
"|@	c #AC080B",
"1@	c #B5060B",
"2@	c #AB0210",
"3@	c #790103",
"4@	c #3B0000",
"5@	c #010303",
"6@	c #00070D",
"7@	c #060000",
"8@	c #360000",
"9@	c #6C0300",
"0@	c #C50109",
"a@	c #B90412",
"b@	c #CD1413",
"c@	c #EC0B16",
"d@	c #DD0314",
"e@	c #B20109",
"f@	c #7D0101",
"g@	c #240201",
"h@	c #06020C",
"i@	c #110101",
"j@	c #500101",
"k@	c #9B0804",
"l@	c #F40213",
"m@	c #D62D28",
"n@	c #DC2720",
"o@	c #FC010D",
"p@	c #FA000E",
"q@	c #E4000F",
"r@	c #B90008",
"s@	c #4B0000",
"t@	c #180005",
"u@	c #210608",
"v@	c #6C080C",
"w@	c #C81712",
"x@	c #F80009",
"y@	c #FDB78D",
"z@	c #FA9D78",
"A@	c #FA0505",
"B@	c #E70006",
"C@	c #F10611",
"D@	c #E90210",
"E@	c #5D0300",
"F@	c #250400",
"G@	c #210407",
"H@	c #820609",
"I@	c #D71219",
"J@	c #F7020E",
"K@	c #FFB38D",
"L@	c #FF9C79",
"M@	c #F30705",
"N@	c #E80502",
"O@	c #F6050A",
"P@	c #EB010E",
"Q@	c #690602",
"R@	c #3C0301",
"S@	c #250708",
"T@	c #77090C",
"U@	c #E00F17",
"V@	c #F60009",
"W@	c #C11D03",
"X@	c #CB1501",
"Y@	c #F80703",
"Z@	c #F10602",
"`@	c #FB020D",
" #	c #ED0211",
".#	c #6C0703",
"+#	c #400201",
"@#	c #1E0405",
"##	c #810608",
"$#	c #DA0414",
"%#	c #F30009",
"&#	c #F10506",
"*#	c #F90602",
"=#	c #F80400",
"-#	c #FE0102",
";#	c #FA020D",
">#	c #E80313",
",#	c #620602",
"'#	c #3D0100",
")#	c #0E0002",
"!#	c #560103",
"~#	c #970404",
"{#	c #D31D18",
"]#	c #F30C0B",
"^#	c #F60300",
"/#	c #EA0700",
"(#	c #FD0101",
"_#	c #D00704",
":#	c #910604",
"<#	c #331408",
"[#	c #110504",
"}#	c #050200",
"|#	c #3B0200",
"1#	c #5E0300",
"2#	c #900706",
"3#	c #CB080D",
"4#	c #E40B14",
"5#	c #DF0B11",
"6#	c #DB090F",
"7#	c #A60506",
"8#	c #6D0402",
"9#	c #260D05",
"0#	c #050600",
"a#	c #000B00",
"b#	c #120200",
"c#	c #360A04",
"d#	c #650307",
"e#	c #95040E",
"f#	c #AB040F",
"g#	c #AE040B",
"h#	c #A30410",
"i#	c #730204",
"j#	c #460001",
"k#	c #140103",
"l#	c #070400",
"m#	c #070000",
"n#	c #030006",
"o#	c #010406",
"p#	c #0A0200",
"q#	c #300705",
"r#	c #44110F",
"s#	c #401107",
"t#	c #240E04",
"u#	c #0B0704",
"v#	c #000D0D",
"w#	c #000004",
"x#	c #0B0009",
"y#	c #0B020A",
"z#	c #030C00",
"A#	c #2E0500",
"B#	c #330300",
"C#	c #1A0300",
"D#	c #300200",
"E#	c #140101",
"F#	c #000805",
"G#	c #000105",
"H#	c #0D0105",
"I#	c #080005",
"J#	c #0E0003",
"K#	c #0D0308",
"L#	c #0A0C04",
"M#	c #370B09",
"N#	c #3E1512",
"O#	c #381412",
"P#	c #330E09",
"Q#	c #150302",
"R#	c #040205",
"S#	c #000403",
"T#	c #080102",
"U#	c #000300",
"V#	c #2B0A12",
"W#	c #3A191B",
"X#	c #4E161A",
"Y#	c #4C1113",
"Z#	c #4E0D0E",
"`#	c #521A1C",
" $	c #361211",
".$	c #2E090E",
"+$	c #040502",
"@$	c #000100",
"#$	c #1B0A0D",
"$$	c #3C1721",
"%$	c #480F17",
"&$	c #510510",
"*$	c #5A000C",
"=$	c #68000A",
"-$	c #61030D",
";$	c #560914",
">$	c #4A121D",
",$	c #1D0413",
"'$	c #060203",
")$	c #0C0102",
"!$	c #260F0F",
"~$	c #3E201A",
"{$	c #370805",
"]$	c #742F2D",
"^$	c #762523",
"/$	c #5E0703",
"($	c #5C0201",
"_$	c #500303",
":$	c #450E0E",
"<$	c #2A1516",
"[$	c #080302",
"}$	c #1A0709",
"|$	c #3E1416",
"1$	c #430E0D",
"2$	c #4D100C",
"3$	c #BF7F74",
"4$	c #BA7869",
"5$	c #4F0C00",
"6$	c #4F0400",
"7$	c #490904",
"8$	c #470D08",
"9$	c #3B1F1D",
"0$	c #160908",
"a$	c #19090A",
"b$	c #4A191A",
"c$	c #561010",
"d$	c #4C0703",
"e$	c #B37469",
"f$	c #A96E5F",
"g$	c #440B00",
"h$	c #500E00",
"i$	c #4C0C07",
"j$	c #420B05",
"k$	c #3F1516",
"l$	c #1A0505",
"m$	c #160909",
"n$	c #511218",
"o$	c #66040E",
"p$	c #5E0408",
"q$	c #560705",
"r$	c #5A0502",
"s$	c #5D0502",
"t$	c #640300",
"u$	c #5C0606",
"v$	c #560407",
"w$	c #4C141A",
"x$	c #200407",
"y$	c #100B07",
"z$	c #3E1818",
"A$	c #490911",
"B$	c #4E090A",
"C$	c #510706",
"D$	c #620202",
"E$	c #6E0202",
"F$	c #730000",
"G$	c #650104",
"H$	c #5B080F",
"I$	c #381D20",
"J$	c #110C0B",
"K$	c #010200",
"L$	c #2C0C12",
"M$	c #48151F",
"N$	c #441111",
"O$	c #560806",
"P$	c #600503",
"Q$	c #690101",
"R$	c #790005",
"S$	c #5A080E",
"T$	c #3E1114",
"U$	c #231012",
"V$	c #050900",
"W$	c #000503",
"X$	c #160A11",
"Y$	c #321125",
"Z$	c #321111",
"`$	c #4D0603",
" %	c #530500",
".%	c #550202",
"+%	c #790017",
"@%	c #381E1F",
"#%	c #062C25",
"$%	c #18040A",
"%%	c #040204",
"&%	c #060012",
"*%	c #07000A",
"=%	c #100F1A",
"-%	c #122713",
";%	c #31210D",
">%	c #3C1E0A",
",%	c #3D1A0B",
"'%	c #4A1A1F",
")%	c #1D1317",
"!%	c #011112",
"~%	c #050004",
"{%	c #02000D",
"]%	c #030017",
"^%	c #000110",
"/%	c #030A05",
"(%	c #280C03",
"_%	c #371204",
":%	c #2C1207",
"<%	c #330707",
"[%	c #140408",
"}%	c #0C0110",
"|%	c #07001B",
"1%	c #02001F",
"2%	c #020021",
"3%	c #00061E",
"4%	c #00091E",
"5%	c #02031E",
"6%	c #100319",
"7%	c #0F0017",
"8%	c #060017",
"9%	c #100018",
"0%	c #070019",
"a%	c #05001C",
"b%	c #020020",
"c%	c #00001C",
". + @ # $ % & * = - ; > ",
", ' ) ! ~ { ] ^ / ( _ : ",
"< [ } | 1 2 3 4 5 6 7 8 ",
"9 0 a b c d e f g h i j ",
"k l m n o p q r s t u v ",
"w x y z A B C D E F G H ",
"I J K L M N O P Q R S T ",
"U V W X Y Z `  ...+.@.#.",
"$.%.&.*.=.-.;.>.,.'.).!.",
"~.{.].^./.(._.:.<.[.}.|.",
"1.2.3.4.5.6.7.8.9.0.a.b.",
"c.d.e.f.g.h.i.j.k.l.m.n.",
"o.p.q.r.s.t.u.v.w.x.y.z.",
"o.A.B.C.D.E.F.G.H.I.J.K.",
"o.L.M.N.O.P.Q.R.S.T.U.V.",
"W.X.Y.Z.`. +.+++@+#+$+%+",
"&+*+=+-+;+>+,+'+)+!+~+{+",
"]+^+/+(+_+:+<+[+}+|+1+2+",
"3+4+5+6+7+8+9+0+a+b+c+d+",
"e+f+g+h+i+j+k+l+m+n+o+p+",
"q+r+s+t+u+v+w+x+y+z+A+B+",
"C+D+E+F+G+H+I+J+K+L+M+N+",
"O+P+Q+R+S+T+U+V+W+X+Y+Z+",
"`+ @.@+@@@#@$@%@&@*@=@-@",
";@>@,@'@)@!@~@{@]@^@/@(@",
"_@:@<@[@}@|@1@2@3@4@5@6@",
"7@8@9@0@a@b@c@d@e@f@g@h@",
"i@j@k@l@m@n@o@p@q@r@s@t@",
"u@v@w@x@y@z@A@B@C@D@E@F@",
"G@H@I@J@K@L@M@N@O@P@Q@R@",
"S@T@U@V@W@X@Y@Z@`@ #.#+#",
"@###$#%#&#*#=#-#;#>#,#'#",
")#!#~#{#]#^#/#(#_#:#<#[#",
"}#|#1#2#3#4#5#6#7#8#9#0#",
"a#b#c#d#e#f#g#h#i#j#k#l#",
"m#n#o#p#q#r#s#t#u#v#w#N+",
"m#x#y#z#A#B#C#D#E#F#G#H#",
"I#J#K#L#M#N#O#P#Q#R#S#T#",
"U#]@V#W#X#Y#Z#`# $.$+$/@",
"@$#$$$%$&$*$=$-$;$>$,$'$",
")$!$~${$]$^$/$($_$:$<$[$",
"}$|$1$2$3$4$5$6$7$8$9$0$",
"a$b$c$d$e$f$g$h$i$j$k$l$",
"m$n$o$p$q$r$s$t$u$v$w$x$",
"y$z$A$B$C$D$E$F$G$H$I$J$",
"K$L$M$N$O$P$Q$R$S$T$U$V$",
"W$X$Y$Z$`$ %.%+%@%#%$%%%",
"&%*%=%-%;%>%,%'%)%!%~%{%",
"' ]%^%/%(%_%:%<%[%}%|%1%",
"2%3%4%5%6%7%8%9%0%a%b%c%"};
