/* XPM */
static char * t7_xpm[] = {
"12 50 588 2",
"  	c None",
". 	c #0D0026",
"+ 	c #14002A",
"@ 	c #0E0025",
"# 	c #0C0120",
"$ 	c #0E041E",
"% 	c #120622",
"& 	c #17061E",
"* 	c #26061E",
"= 	c #1E001B",
"- 	c #18001D",
"; 	c #0C0029",
"> 	c #050032",
", 	c #070024",
"' 	c #08001D",
") 	c #0B0020",
"! 	c #210A27",
"~ 	c #37132D",
"{ 	c #3E182F",
"] 	c #40172F",
"^ 	c #340F28",
"/ 	c #210621",
"( 	c #11001C",
"_ 	c #080023",
": 	c #040026",
"< 	c #010020",
"[ 	c #030619",
"} 	c #1B141D",
"| 	c #3A1725",
"1 	c #4E0D1E",
"2 	c #4F0716",
"3 	c #500410",
"4 	c #411520",
"5 	c #321925",
"6 	c #1E1524",
"7 	c #07041C",
"8 	c #050019",
"9 	c #000019",
"0 	c #17161D",
"a 	c #291C20",
"b 	c #3F1317",
"c 	c #51070E",
"d 	c #5A0109",
"e 	c #5F0611",
"f 	c #450911",
"g 	c #3B131B",
"h 	c #2E1C29",
"i 	c #150F20",
"j 	c #050118",
"k 	c #000018",
"l 	c #20131A",
"m 	c #2F1E14",
"n 	c #410706",
"o 	c #590205",
"p 	c #690304",
"q 	c #670102",
"r 	c #570407",
"s 	c #460C11",
"t 	c #3D1920",
"u 	c #1E161E",
"v 	c #04020F",
"w 	c #090919",
"x 	c #3D1618",
"y 	c #4C0C04",
"z 	c #510B04",
"A 	c #D78178",
"B 	c #CB6E69",
"C 	c #6C0303",
"D 	c #710000",
"E 	c #6A0508",
"F 	c #540508",
"G 	c #381E25",
"H 	c #100910",
"I 	c #0E0915",
"J 	c #421416",
"K 	c #4F0B08",
"L 	c #4F0905",
"M 	c #903C35",
"N 	c #8E332E",
"O 	c #6D0502",
"P 	c #760000",
"Q 	c #6C0608",
"R 	c #5C050C",
"S 	c #3E1B24",
"T 	c #120D0D",
"U 	c #471619",
"V 	c #560A09",
"W 	c #500804",
"X 	c #510402",
"Y 	c #5A0303",
"Z 	c #6A0201",
"` 	c #740000",
" .	c #670104",
"..	c #5B0306",
"+.	c #381718",
"@.	c #100D10",
"#.	c #060506",
"$.	c #381516",
"%.	c #460C0D",
"&.	c #4B0B07",
"*.	c #540A06",
"=.	c #630A09",
"-.	c #660403",
";.	c #5E0000",
">.	c #530606",
",.	c #4F0C0F",
"'.	c #2C1511",
").	c #0B0D08",
"!.	c #010201",
"~.	c #241513",
"{.	c #3D1B1C",
"].	c #501313",
"^.	c #5A080D",
"/.	c #610407",
"(.	c #5B0000",
"_.	c #4F0500",
":.	c #431108",
"<.	c #3D2115",
"[.	c #1D0F0A",
"}.	c #060201",
"|.	c #040000",
"1.	c #080000",
"2.	c #211611",
"3.	c #3F1313",
"4.	c #53080F",
"5.	c #560B0E",
"6.	c #53100F",
"7.	c #411B0D",
"8.	c #380E09",
"9.	c #2A150E",
"0.	c #050503",
"a.	c #0C0003",
"b.	c #0C0000",
"c.	c #060000",
"d.	c #030404",
"e.	c #180E0E",
"f.	c #2E1316",
"g.	c #30211E",
"h.	c #2B271C",
"i.	c #192012",
"j.	c #1A0C0E",
"k.	c #230309",
"l.	c #00090C",
"m.	c #17030D",
"n.	c #030800",
"o.	c #040A00",
"p.	c #180100",
"q.	c #2E0304",
"r.	c #340606",
"s.	c #2B0807",
"t.	c #270402",
"u.	c #170101",
"v.	c #0A0100",
"w.	c #001201",
"x.	c #03060A",
"y.	c #0B0500",
"z.	c #170400",
"A.	c #480200",
"B.	c #6A040A",
"C.	c #760A0A",
"D.	c #730D0D",
"E.	c #680406",
"F.	c #420000",
"G.	c #1E0100",
"H.	c #020D00",
"I.	c #000403",
"J.	c #160000",
"K.	c #370400",
"L.	c #8D0205",
"M.	c #AC0A15",
"N.	c #C0151D",
"O.	c #CC111D",
"P.	c #B70516",
"Q.	c #7F0308",
"R.	c #470101",
"S.	c #0A0300",
"T.	c #010000",
"U.	c #0B0000",
"V.	c #4D0000",
"W.	c #930702",
"X.	c #E9000C",
"Y.	c #C60F0E",
"Z.	c #D00D0A",
"`.	c #FC000A",
" +	c #F8000E",
".+	c #D8010B",
"++	c #A80003",
"@+	c #440000",
"#+	c #180000",
"$+	c #1A0405",
"%+	c #5E0507",
"&+	c #B2120E",
"*+	c #F5000E",
"=+	c #EA765E",
"-+	c #EA644C",
";+	c #FA0209",
">+	c #F2010A",
",+	c #EB0612",
"'+	c #D3010A",
")+	c #570400",
"!+	c #230100",
"~+	c #210507",
"{+	c #6F070A",
"]+	c #CA1613",
"^+	c #F6000B",
"/+	c #FEB68E",
"(+	c #FD9776",
"_+	c #FB0505",
":+	c #E70305",
"<+	c #F1040C",
"[+	c #E7010E",
"}+	c #610A02",
"|+	c #2C0402",
"1+	c #240508",
"2+	c #81070B",
"3+	c #DF1019",
"4+	c #F6020C",
"5+	c #DA7650",
"6+	c #E06646",
"7+	c #F40705",
"8+	c #EC0701",
"9+	c #F7030A",
"0+	c #ED0010",
"a+	c #720503",
"b+	c #440302",
"c+	c #210707",
"d+	c #7E090A",
"e+	c #DF0C1C",
"f+	c #F7000B",
"g+	c #E51309",
"h+	c #EA0C03",
"i+	c #F30201",
"j+	c #F80302",
"k+	c #FC030F",
"l+	c #EC0414",
"m+	c #660600",
"n+	c #450200",
"o+	c #180104",
"p+	c #710205",
"q+	c #C2050A",
"r+	c #E70B0E",
"s+	c #ED0305",
"t+	c #F50200",
"u+	c #F80700",
"v+	c #FE0102",
"w+	c #ED0509",
"x+	c #CA020B",
"y+	c #510806",
"z+	c #390000",
"A+	c #0A0001",
"B+	c #520001",
"C+	c #880201",
"D+	c #BE130D",
"E+	c #EE0606",
"F+	c #F60202",
"G+	c #E60700",
"H+	c #FC0005",
"I+	c #C60601",
"J+	c #810502",
"K+	c #2B1309",
"L+	c #170000",
"M+	c #080001",
"N+	c #1B0000",
"O+	c #3E0601",
"P+	c #72080B",
"Q+	c #AB0B17",
"R+	c #CA0B1E",
"S+	c #D10C1D",
"T+	c #B90A16",
"U+	c #880608",
"V+	c #5A0101",
"W+	c #1E0201",
"X+	c #0A0000",
"Y+	c #040004",
"Z+	c #0C0001",
"`+	c #210603",
" @	c #410002",
".@	c #620004",
"+@	c #6B0002",
"@@	c #6F0200",
"#@	c #6A0203",
"$@	c #430100",
"%@	c #2A0300",
"&@	c #0D0300",
"*@	c #070302",
"=@	c #000005",
"-@	c #000602",
";@	c #030900",
">@	c #1C0002",
",@	c #3D080A",
"'@	c #4B0D0D",
")@	c #461211",
"!@	c #320605",
"~@	c #160100",
"{@	c #010600",
"]@	c #000700",
"^@	c #000C05",
"/@	c #000000",
"(@	c #140000",
"_@	c #330100",
":@	c #850102",
"<@	c #9F0408",
"[@	c #AC080B",
"}@	c #B1060B",
"|@	c #AE020C",
"1@	c #760103",
"2@	c #3B0000",
"3@	c #010303",
"4@	c #00070D",
"5@	c #360000",
"6@	c #6D0500",
"7@	c #C50109",
"8@	c #BD0D12",
"9@	c #CD1216",
"0@	c #EF0A16",
"a@	c #DD0314",
"b@	c #B20109",
"c@	c #810101",
"d@	c #240201",
"e@	c #06020C",
"f@	c #110101",
"g@	c #500101",
"h@	c #9C0804",
"i@	c #F20013",
"j@	c #D52E28",
"k@	c #DC271E",
"l@	c #FD000D",
"m@	c #FA000E",
"n@	c #E10412",
"o@	c #B90108",
"p@	c #490100",
"q@	c #160005",
"r@	c #210608",
"s@	c #6C080C",
"t@	c #C71712",
"u@	c #F60009",
"v@	c #FDBA90",
"w@	c #FA9B78",
"x@	c #FA0505",
"y@	c #E70206",
"z@	c #F1060F",
"A@	c #E9010D",
"B@	c #5F0701",
"C@	c #260201",
"D@	c #210407",
"E@	c #820609",
"F@	c #D71219",
"G@	c #F6020E",
"H@	c #FFB38D",
"I@	c #FF9979",
"J@	c #F30505",
"K@	c #EC0601",
"L@	c #F50309",
"M@	c #EB000E",
"N@	c #6A0403",
"O@	c #3D0202",
"P@	c #250708",
"Q@	c #77090C",
"R@	c #E10F17",
"S@	c #F70009",
"T@	c #C11E03",
"U@	c #CB1801",
"V@	c #F80703",
"W@	c #EF0302",
"X@	c #FC060D",
"Y@	c #ED0414",
"Z@	c #6B0402",
"`@	c #400201",
" #	c #1E0405",
".#	c #810608",
"+#	c #DA0814",
"@#	c #F20009",
"##	c #F10506",
"$#	c #F90302",
"%#	c #F80400",
"&#	c #FB0201",
"*#	c #FC030E",
"=#	c #E90011",
"-#	c #630602",
";#	c #3D0100",
">#	c #0E0002",
",#	c #550003",
"'#	c #970404",
")#	c #D31D18",
"!#	c #F3080B",
"~#	c #F60200",
"{#	c #EA0700",
"]#	c #FD0005",
"^#	c #D00704",
"/#	c #910604",
"(#	c #331108",
"_#	c #0D0904",
":#	c #050200",
"<#	c #380000",
"[#	c #600300",
"}#	c #900706",
"|#	c #CB070D",
"1#	c #E40814",
"2#	c #DF0B11",
"3#	c #DB060F",
"4#	c #A60506",
"5#	c #6C0602",
"6#	c #250B05",
"7#	c #070600",
"8#	c #000B00",
"9#	c #120200",
"0#	c #360A04",
"a#	c #650307",
"b#	c #91040E",
"c#	c #A8040F",
"d#	c #B3040B",
"e#	c #A4040C",
"f#	c #730204",
"g#	c #460401",
"h#	c #170003",
"i#	c #050400",
"j#	c #070000",
"k#	c #030006",
"l#	c #010406",
"m#	c #0A0200",
"n#	c #340B05",
"o#	c #44110F",
"p#	c #400D0B",
"q#	c #240A00",
"r#	c #0B0804",
"s#	c #00080D",
"t#	c #000004",
"u#	c #0B0009",
"v#	c #0B020A",
"w#	c #030C00",
"x#	c #2E0500",
"y#	c #330300",
"z#	c #1A0300",
"A#	c #300200",
"B#	c #140301",
"C#	c #000705",
"D#	c #000405",
"E#	c #0D0105",
"F#	c #080105",
"G#	c #0F0203",
"H#	c #120206",
"I#	c #100D00",
"J#	c #5A0300",
"K#	c #690F0B",
"L#	c #461707",
"M#	c #550205",
"N#	c #2A0003",
"O#	c #0B0105",
"P#	c #000201",
"Q#	c #080505",
"R#	c #000300",
"S#	c #1F0100",
"T#	c #4C0003",
"U#	c #760107",
"V#	c #A6030D",
"W#	c #C40511",
"X#	c #D70311",
"Y#	c #A00A12",
"Z#	c #7B0305",
"`#	c #570203",
" $	c #000A00",
".$	c #000200",
"+$	c #350000",
"@$	c #730800",
"#$	c #B20308",
"$$	c #E1071C",
"%$	c #F30315",
"&$	c #FC0211",
"*$	c #E50415",
"=$	c #AB0809",
"-$	c #660404",
";$	c #3A0A06",
">$	c #0B0200",
",$	c #0F0400",
"'$	c #610900",
")$	c #9E0502",
"!$	c #DA080F",
"~$	c #F23A32",
"{$	c #F92F2C",
"]$	c #F00411",
"^$	c #CD0D09",
"/$	c #9A0D03",
"($	c #650606",
"_$	c #180800",
":$	c #310303",
"<$	c #950505",
"[$	c #E70106",
"}$	c #EA0D0D",
"|$	c #FABD8C",
"1$	c #F3A77A",
"2$	c #DC0800",
"3$	c #F90201",
"4$	c #FE0306",
"5$	c #EF0007",
"6$	c #8E0000",
"7$	c #291000",
"8$	c #3D0206",
"9$	c #7D0309",
"0$	c #C90E03",
"a$	c #EA0C08",
"b$	c #E32718",
"c$	c #F12518",
"d$	c #EB0800",
"e$	c #EB0700",
"f$	c #ED0701",
"g$	c #E70A06",
"h$	c #8B0002",
"i$	c #3A0202",
"j$	c #320308",
"k$	c #7D040B",
"l$	c #D01203",
"m$	c #EF0405",
"n$	c #EF0205",
"o$	c #EF0705",
"p$	c #EB0B00",
"q$	c #F00601",
"r$	c #E20403",
"s$	c #750203",
"t$	c #2F0202",
"u$	c #290609",
"v$	c #86080D",
"w$	c #D20404",
"x$	c #FD0210",
"y$	c #FB0205",
"z$	c #EE0700",
"A$	c #F4060A",
"B$	c #E90103",
"C$	c #590903",
"D$	c #1B0406",
"E$	c #4A0000",
"F$	c #930505",
"G$	c #CA0909",
"H$	c #F30303",
"I$	c #FE0200",
"J$	c #FB0200",
"K$	c #EF0700",
"L$	c #C40C03",
"M$	c #880901",
"N$	c #2A0803",
"O$	c #090500",
"P$	c #040009",
"Q$	c #320003",
"R$	c #640004",
"S$	c #91050A",
"T$	c #C7060E",
"U$	c #DC0A0F",
"V$	c #E30709",
"W$	c #CC090B",
"X$	c #9C0406",
"Y$	c #680502",
"Z$	c #1E0202",
"`$	c #060206",
" %	c #080012",
".%	c #1C0008",
"+%	c #340003",
"@%	c #5C0108",
"#%	c #8C020A",
"$%	c #9E020D",
"%%	c #A40106",
"&%	c #95010B",
"*%	c #690004",
"=%	c #410103",
"-%	c #120008",
";%	c #04000E",
">%	c #080021",
",%	c #030019",
"'%	c #020013",
")%	c #120218",
"!%	c #35041E",
"~%	c #42021E",
"{%	c #470019",
"]%	c #3A0017",
"^%	c #220010",
"/%	c #160011",
"(%	c #07001E",
"_%	c #02001F",
":%	c #020021",
"<%	c #00061F",
"[%	c #000A1E",
"}%	c #04051D",
"|%	c #0B011C",
"1%	c #0E001D",
"2%	c #10001C",
"3%	c #0F001B",
"4%	c #09001B",
"5%	c #06001C",
"6%	c #020020",
"7%	c #00001C",
". + @ # $ % & * = - ; > ",
", ' ) ! ~ { ] ^ / ( _ : ",
"< [ } | 1 2 3 4 5 6 7 8 ",
"9 0 a b c d e f g h i j ",
"k l m n o p q r s t u v ",
"w x y z A B C D E F G H ",
"I J K L M N O P Q R S T ",
"H U V W X Y Z `  ...+.@.",
"#.$.%.&.*.=.-.;.>.,.'.).",
"!.~.{.].^./.(._.:.<.[.}.",
"|.1.2.3.4.5.6.7.8.9.0.a.",
"b.c.d.e.f.g.h.i.j.k.l.m.",
"1.n.o.p.q.r.s.t.u.v.w.x.",
"1.y.z.A.B.C.D.E.F.G.H.I.",
"1.J.K.L.M.N.O.P.Q.R.S.T.",
"U.V.W.X.Y.Z.`. +.+++@+#+",
"$+%+&+*+=+-+;+>+,+'+)+!+",
"~+{+]+^+/+(+_+:+<+[+}+|+",
"1+2+3+4+5+6+7+8+9+0+a+b+",
"c+d+e+f+g+h+i+j+k+l+m+n+",
"o+p+q+r+s+t+u+v+w+x+y+z+",
"A+B+C+D+E+F+G+H+I+J+K+L+",
"M+N+O+P+Q+R+S+T+U+V+W+X+",
"Y+Z+`+ @.@+@@@#@$@%@&@*@",
"=@-@;@>@,@'@)@!@~@{@]@^@",
"/@(@_@:@<@[@}@|@1@2@3@4@",
"c.5@6@7@8@9@0@a@b@c@d@e@",
"f@g@h@i@j@k@l@m@n@o@p@q@",
"r@s@t@u@v@w@x@y@z@A@B@C@",
"D@E@F@G@H@I@J@K@L@M@N@O@",
"P@Q@R@S@T@U@V@W@X@Y@Z@`@",
" #.#+#@###$#%#&#*#=#-#;#",
">#,#'#)#!#~#{#]#^#/#(#_#",
":#<#[#}#|#1#2#3#4#5#6#7#",
"8#9#0#a#b#c#d#e#f#g#h#i#",
"j#k#l#m#n#o#p#q#r#s#t#L+",
"j#u#v#w#x#y#z#A#B#C#D#E#",
"F#G#H#I#J#K#L#M#N#O#P#Q#",
"R#S#T#U#V#W#X#Y#Z#`# $]@",
".$+$@$#$$$%$&$*$=$-$;$>$",
",$'$)$!$~${$]$`.^$/$($_$",
":$<$[$}$|$1$2$3$4$5$6$7$",
"8$9$0$a$b$c$d$e$f$g$h$i$",
"j$k$l$m$w+n$o$p$q$r$s$t$",
"u$v$w$x$;+y$_+z$A$B$C$D$",
"/@E$F$G$H$I$J$K$L$M$N$O$",
"P$Q$R$S$T$U$V$W$X$Y$Z$`$",
" %.%+%@%#%$%%%&%*%=%-%;%",
">%,%'%)%!%~%{%]%^%/%(%_%",
":%<%[%}%|%1%2%3%4%5%6%7%"};
