/* XPM */
static char * t8_xpm[] = {
"12 50 589 2",
"  	c None",
". 	c #0D0026",
"+ 	c #140027",
"@ 	c #11011D",
"# 	c #12000C",
"$ 	c #2E0107",
"% 	c #370506",
"& 	c #2F0604",
"* 	c #2B0208",
"= 	c #1F0013",
"- 	c #18001C",
"; 	c #0D0029",
"> 	c #040032",
", 	c #07001F",
"' 	c #0D0012",
") 	c #1E0203",
"! 	c #580001",
"~ 	c #750203",
"{ 	c #7F0809",
"] 	c #7B0A06",
"^ 	c #7B0309",
"/ 	c #4E0001",
"( 	c #23030B",
"_ 	c #07001D",
": 	c #020026",
"< 	c #040011",
"[ 	c #1D0002",
"} 	c #470001",
"| 	c #990209",
"1 	c #AF0C16",
"2 	c #C6161E",
"3 	c #D8111E",
"4 	c #C20514",
"5 	c #8D0309",
"6 	c #550203",
"7 	c #10030C",
"8 	c #060017",
"9 	c #0B0003",
"0 	c #4D0000",
"a 	c #940501",
"b 	c #ED010E",
"c 	c #C91210",
"d 	c #D20F0B",
"e 	c #FA000B",
"f 	c #F90011",
"g 	c #DB000B",
"h 	c #AA0004",
"i 	c #410001",
"j 	c #11000D",
"k 	c #1B0606",
"l 	c #640909",
"m 	c #BA120D",
"n 	c #F6010C",
"o 	c #F18E6F",
"p 	c #F0785B",
"q 	c #FA0308",
"r 	c #ED000A",
"s 	c #EC0311",
"t 	c #DC010E",
"u 	c #5B0500",
"v 	c #1D0105",
"w 	c #220407",
"x 	c #710609",
"y 	c #CD1515",
"z 	c #F9010C",
"A 	c #FFB18D",
"B 	c #FF9B76",
"C 	c #FA0605",
"D 	c #EA0601",
"E 	c #F4010E",
"F 	c #EC000F",
"G 	c #620903",
"H 	c #2E0402",
"I 	c #260407",
"J 	c #7F0609",
"K 	c #E01017",
"L 	c #F4010B",
"M 	c #CD613C",
"N 	c #D55234",
"O 	c #F60905",
"P 	c #ED0801",
"Q 	c #F7030A",
"R 	c #EC0011",
"S 	c #6E0503",
"T 	c #410202",
"U 	c #200606",
"V 	c #800809",
"W 	c #DE0A1B",
"X 	c #F5000B",
"Y 	c #EE0E0A",
"Z 	c #F30B03",
"` 	c #F30200",
" .	c #F70401",
"..	c #FD060F",
"+.	c #EC0014",
"@.	c #670701",
"#.	c #3E0200",
"$.	c #150203",
"%.	c #680305",
"&.	c #B80209",
"*.	c #E41112",
"=.	c #EF0407",
"-.	c #F50200",
";.	c #F40700",
">.	c #FE0103",
",.	c #E60508",
"'.	c #BC030A",
").	c #490D06",
"!.	c #230300",
"~.	c #080000",
"{.	c #550300",
"].	c #840201",
"^.	c #BA0E09",
"/.	c #EC0404",
"(.	c #F60203",
"_.	c #E60700",
":.	c #FC0005",
"<.	c #C40501",
"[.	c #7C0502",
"}.	c #2C1409",
"|.	c #0B0000",
"1.	c #050000",
"2.	c #110000",
"3.	c #320802",
"4.	c #67080C",
"5.	c #9F0B18",
"6.	c #BA0B1E",
"7.	c #C70F1D",
"8.	c #AA0C18",
"9.	c #7D0508",
"0.	c #540101",
"a.	c #0D0202",
"b.	c #0C0003",
"c.	c #0E0000",
"d.	c #180402",
"e.	c #310001",
"f.	c #5C0707",
"g.	c #710D0E",
"h.	c #700D06",
"i.	c #570905",
"j.	c #370000",
"k.	c #270101",
"l.	c #020C0A",
"m.	c #17030D",
"n.	c #090000",
"o.	c #030800",
"p.	c #040A00",
"q.	c #140000",
"r.	c #280302",
"s.	c #310606",
"t.	c #2D0704",
"u.	c #220301",
"v.	c #120000",
"w.	c #080100",
"x.	c #000F01",
"y.	c #03080A",
"z.	c #090500",
"A.	c #0E0804",
"B.	c #250C0E",
"C.	c #3A1512",
"D.	c #411A17",
"E.	c #3E1D15",
"F.	c #301710",
"G.	c #170A06",
"H.	c #0C0503",
"I.	c #020B00",
"J.	c #000203",
"K.	c #060000",
"L.	c #0F0000",
"M.	c #270812",
"N.	c #3D131A",
"O.	c #540C16",
"P.	c #55080F",
"Q.	c #580809",
"R.	c #5F131B",
"S.	c #481213",
"T.	c #370A0E",
"U.	c #0D0103",
"V.	c #010400",
"W.	c #221010",
"X.	c #421F23",
"Y.	c #440B13",
"Z.	c #53040D",
"`.	c #59010A",
" +	c #66020A",
".+	c #5B0006",
"++	c #530811",
"@+	c #4E111A",
"#+	c #230815",
"$+	c #0B0001",
"%+	c #100204",
"&+	c #2D1514",
"*+	c #3E1E1A",
"=+	c #370A06",
"-+	c #97544D",
";+	c #954642",
">+	c #5C0602",
",+	c #5B0101",
"'+	c #4F0505",
")+	c #460E0E",
"!+	c #2D1919",
"~+	c #090505",
"{+	c #1D0A0B",
"]+	c #421314",
"^+	c #490908",
"/+	c #50130F",
"(+	c #B97E71",
"_+	c #B57B68",
":+	c #471003",
"<+	c #4B0800",
"[+	c #470B04",
"}+	c #441106",
"|+	c #411C1C",
"1+	c #1B0707",
"2+	c #150809",
"3+	c #51141D",
"4+	c #5E0910",
"5+	c #510603",
"6+	c #945148",
"7+	c #914D44",
"8+	c #4D0702",
"9+	c #580C00",
"0+	c #500908",
"a+	c #490805",
"b+	c #401415",
"c+	c #1B0607",
"d+	c #190D09",
"e+	c #4C1013",
"f+	c #640510",
"g+	c #600608",
"h+	c #5C0A09",
"i+	c #570602",
"j+	c #590201",
"k+	c #620100",
"l+	c #5B0405",
"m+	c #570309",
"n+	c #4D151B",
"o+	c #230607",
"p+	c #0B0305",
"q+	c #36181C",
"r+	c #440E12",
"s+	c #46090B",
"t+	c #500304",
"u+	c #670305",
"v+	c #760204",
"w+	c #7B0000",
"x+	c #690105",
"y+	c #59040F",
"z+	c #2B1B1B",
"A+	c #080E07",
"B+	c #010500",
"C+	c #240F11",
"D+	c #431A25",
"E+	c #3E1010",
"F+	c #520905",
"G+	c #5C0502",
"H+	c #630202",
"I+	c #760009",
"J+	c #4C1314",
"K+	c #29201E",
"L+	c #220D12",
"M+	c #090401",
"N+	c #050300",
"O+	c #0F050A",
"P+	c #270E1E",
"Q+	c #2C1811",
"R+	c #471106",
"S+	c #4E0901",
"T+	c #530502",
"U+	c #74051B",
"V+	c #341C1F",
"W+	c #03291F",
"X+	c #140105",
"Y+	c #040003",
"Z+	c #040004",
"`+	c #080C12",
" @	c #09210D",
".@	c #291C0D",
"+@	c #36220A",
"@@	c #3B1F0D",
"#@	c #3A1919",
"$@	c #130D11",
"%@	c #000C0C",
"&@	c #030300",
"*@	c #050302",
"=@	c #000002",
"-@	c #030304",
";@	c #050606",
">@	c #050900",
",@	c #310A00",
"'@	c #380802",
")@	c #210803",
"!@	c #310703",
"~@	c #120402",
"{@	c #000702",
"]@	c #000700",
"^@	c #000C05",
"/@	c #000000",
"(@	c #020000",
"_@	c #1A1111",
":@	c #35171D",
"<@	c #4A181C",
"[@	c #481516",
"}@	c #461110",
"|@	c #4A1920",
"1@	c #2C1411",
"2@	c #150D0B",
"3@	c #030207",
"4@	c #00070D",
"5@	c #170B0B",
"6@	c #38141E",
"7@	c #460C16",
"8@	c #570210",
"9@	c #5D010B",
"0@	c #660109",
"a@	c #580A14",
"b@	c #4C0F19",
"c@	c #180210",
"d@	c #05020D",
"e@	c #090001",
"f@	c #23110D",
"g@	c #3F1D20",
"h@	c #380907",
"i@	c #611D19",
"j@	c #641515",
"k@	c #610805",
"l@	c #5C0202",
"m@	c #520709",
"n@	c #470D0F",
"o@	c #271215",
"p@	c #070103",
"q@	c #190709",
"r@	c #3C1817",
"s@	c #421510",
"t@	c #47100B",
"u@	c #BF8678",
"v@	c #BE776D",
"w@	c #530900",
"x@	c #520300",
"y@	c #4A0704",
"z@	c #45110C",
"A@	c #391E1E",
"B@	c #140808",
"C@	c #1A080A",
"D@	c #4B1218",
"E@	c #570B0E",
"F@	c #4E0C04",
"G@	c #C38778",
"H@	c #B37D6E",
"I@	c #3E0C00",
"J@	c #4B0F00",
"K@	c #460C07",
"L@	c #420E04",
"M@	c #3E1916",
"N@	c #1A0707",
"O@	c #130B09",
"P@	c #51141B",
"Q@	c #61040E",
"R@	c #5D0508",
"S@	c #530404",
"T@	c #5B0803",
"U@	c #610703",
"V@	c #650400",
"W@	c #5D0407",
"X@	c #550407",
"Y@	c #4B1519",
"Z@	c #210507",
"`@	c #130908",
" #	c #3F1719",
".#	c #520911",
"+#	c #52070A",
"@#	c #580607",
"##	c #5F0303",
"$#	c #6A0103",
"%#	c #6F0000",
"&#	c #620104",
"*#	c #5B040E",
"=#	c #3C1B1E",
"-#	c #130C08",
";#	c #030201",
">#	c #2E0D12",
",#	c #471519",
"'#	c #430C0D",
")#	c #570706",
"!#	c #630404",
"~#	c #6E0101",
"{#	c #7A0003",
"]#	c #62070A",
"^#	c #4A0B10",
"/#	c #241314",
"(#	c #050B01",
"_#	c #000C00",
":#	c #190B11",
"<#	c #351528",
"[#	c #331412",
"}#	c #4A0C03",
"|#	c #530500",
"1#	c #560202",
"2#	c #770015",
"3#	c #371E1E",
"4#	c #063027",
"5#	c #1A050B",
"6#	c #060301",
"7#	c #000A00",
"8#	c #040406",
"9#	c #15111C",
"0#	c #192815",
"a#	c #3B1F11",
"b#	c #401C09",
"c#	c #401709",
"d#	c #541821",
"e#	c #21171A",
"f#	c #011714",
"g#	c #0A0004",
"h#	c #030000",
"i#	c #070000",
"j#	c #030004",
"k#	c #04010C",
"l#	c #250E00",
"m#	c #351505",
"n#	c #321509",
"o#	c #310B0A",
"p#	c #100407",
"q#	c #000C0D",
"r#	c #000003",
"s#	c #170001",
"t#	c #070001",
"u#	c #0B0009",
"v#	c #0B020C",
"w#	c #000F00",
"x#	c #360600",
"y#	c #3A0000",
"z#	c #3B0202",
"A#	c #170101",
"B#	c #000809",
"C#	c #000103",
"D#	c #0D0104",
"E#	c #080002",
"F#	c #0E0004",
"G#	c #0D0408",
"H#	c #0A0F04",
"I#	c #370B09",
"J#	c #3E1512",
"K#	c #381812",
"L#	c #320F09",
"M#	c #150302",
"N#	c #040205",
"O#	c #000102",
"P#	c #080102",
"Q#	c #000300",
"R#	c #160100",
"S#	c #2B0B12",
"T#	c #3A151B",
"U#	c #4C141A",
"V#	c #4E1113",
"W#	c #4E0D0E",
"X#	c #4E1C1C",
"Y#	c #361111",
"Z#	c #2E090B",
"`#	c #040502",
" $	c #000100",
".$	c #1B0D0D",
"+$	c #3C1721",
"@$	c #480C17",
"#$	c #540210",
"$$	c #5D000C",
"%$	c #66000A",
"&$	c #61030D",
"*$	c #560814",
"=$	c #4E111D",
"-$	c #1D0413",
";$	c #060203",
">$	c #0C0102",
",$	c #26120F",
"'$	c #3E1C1E",
")$	c #360905",
"!$	c #732F2D",
"~$	c #732523",
"{$	c #5F0803",
"]$	c #5C0201",
"^$	c #500603",
"/$	c #450C0F",
"($	c #271615",
"_$	c #060302",
":$	c #1A0809",
"<$	c #3E1616",
"[$	c #400E0D",
"}$	c #4B120C",
"|$	c #BF8074",
"1$	c #BB7969",
"2$	c #510D00",
"3$	c #4F0500",
"4$	c #490804",
"5$	c #44110A",
"6$	c #3B1D1B",
"7$	c #160908",
"8$	c #190A0A",
"9$	c #4E161A",
"0$	c #5A0B10",
"a$	c #4C0903",
"b$	c #B37669",
"c$	c #A96E5F",
"d$	c #440800",
"e$	c #500E00",
"f$	c #4C0C07",
"g$	c #460C05",
"h$	c #3F1716",
"i$	c #1A0605",
"j$	c #160909",
"k$	c #4F1218",
"l$	c #64040E",
"m$	c #5E0408",
"n$	c #560505",
"o$	c #5A0802",
"p$	c #5D0502",
"q$	c #640300",
"r$	c #5C0606",
"s$	c #560407",
"t$	c #4C131A",
"u$	c #200507",
"v$	c #120A07",
"w$	c #3F1618",
"x$	c #4A0911",
"y$	c #4E090A",
"z$	c #510606",
"A$	c #620304",
"B$	c #6E0204",
"C$	c #730000",
"D$	c #650104",
"E$	c #5B040F",
"F$	c #381C20",
"G$	c #110D0B",
"H$	c #000200",
"I$	c #250E10",
"J$	c #47191F",
"K$	c #441111",
"L$	c #560806",
"M$	c #600503",
"N$	c #690101",
"O$	c #790005",
"P$	c #5A0B0E",
"Q$	c #3E1214",
"R$	c #231012",
"S$	c #000503",
"T$	c #16080F",
"U$	c #321225",
"V$	c #321411",
"W$	c #4D0903",
"X$	c #550202",
"Y$	c #790017",
"Z$	c #381E1F",
"`$	c #062C25",
" %	c #18040A",
".%	c #040204",
"+%	c #060010",
"@%	c #08000C",
"#%	c #100F1A",
"$%	c #122713",
"%%	c #31220D",
"&%	c #3B1E0A",
"*%	c #3D1A0B",
"=%	c #4A1A1F",
"-%	c #1D1317",
";%	c #011112",
">%	c #050004",
",%	c #02000D",
"'%	c #080021",
")%	c #030017",
"!%	c #000010",
"~%	c #030805",
"{%	c #2B0C03",
"]%	c #341204",
"^%	c #2C1207",
"/%	c #330707",
"(%	c #140408",
"_%	c #0C0110",
":%	c #07001B",
"<%	c #02001F",
"[%	c #020021",
"}%	c #00061E",
"|%	c #000B1D",
"1%	c #02091B",
"2%	c #100319",
"3%	c #0F0017",
"4%	c #100018",
"5%	c #070019",
"6%	c #05001C",
"7%	c #020020",
"8%	c #00001C",
". + @ # $ % & * = - ; > ",
", ' ) ! ~ { ] ^ / ( _ : ",
"< [ } | 1 2 3 4 5 6 7 8 ",
"9 0 a b c d e f g h i j ",
"k l m n o p q r s t u v ",
"w x y z A B C D E F G H ",
"I J K L M N O P Q R S T ",
"U V W X Y Z `  ...+.@.#.",
"$.%.&.*.=.-.;.>.,.'.).!.",
"~.{.].^./.(._.:.<.[.}.|.",
"1.2.3.4.5.6.7.8.9.0.a.b.",
"c.|.d.e.f.g.h.i.j.k.l.m.",
"n.o.p.q.r.s.t.u.v.w.x.y.",
"~.z.A.B.C.D.E.F.G.H.I.J.",
"K.L.M.N.O.P.Q.R.S.T.U.V.",
"K.W.X.Y.Z.`. +.+++@+#+$+",
"%+&+*+=+-+;+>+,+'+)+!+~+",
"{+]+^+/+(+_+:+<+[+}+|+1+",
"2+3+4+5+6+7+8+9+0+a+b+c+",
"d+e+f+g+h+i+j+k+l+m+n+o+",
"p+q+r+s+t+u+v+w+x+y+z+A+",
"B+C+D+E+F+G+H+I+J+K+L+M+",
"N+O+P+Q+R+S+T+U+V+W+X+K.",
"Y+Z+`+ @.@+@@@#@$@%@&@*@",
"=@-@;@>@,@'@)@!@~@{@]@^@",
"/@(@_@:@<@[@}@|@1@2@3@4@",
"/@5@6@7@8@9@0@f+a@b@c@d@",
"e@f@g@h@i@j@k@l@m@n@o@p@",
"q@r@s@t@u@v@w@x@y@z@A@B@",
"C@D@E@F@G@H@I@J@K@L@M@N@",
"O@P@Q@R@S@T@U@V@W@X@Y@Z@",
"`@ #.#+#@###$#%#&#*#=#-#",
";#>#,#'#)#!#~#{#]#^#/#(#",
"_#:#<#[#}#|#1#2#3#4#5#6#",
"7#8#9#0#a#b#c#d#e#f#g#h#",
"i#j#k#_#l#m#n#o#p#q#r#s#",
"t#u#v#w#x#y#v.z#A#B#C#D#",
"E#F#G#H#I#J#K#L#M#N#O#P#",
"Q#R#S#T#U#V#W#X#Y#Z#`#]@",
" $.$+$@$#$$$%$&$*$=$-$;$",
">$,$'$)$!$~${$]$^$/$($_$",
":$<$[$}$|$1$2$3$4$5$6$7$",
"8$9$0$a$b$c$d$e$f$g$h$i$",
"j$k$l$m$n$o$p$q$r$s$t$u$",
"v$w$x$y$z$A$B$C$D$E$F$G$",
"H$I$J$K$L$M$N$O$P$Q$R$>@",
"S$T$U$V$W$|#X$Y$Z$`$ %.%",
"+%@%#%$%%%&%*%=%-%;%>%,%",
"'%)%!%~%{%]%^%/%(%_%:%<%",
"[%}%|%1%2%3%8 4%5%6%7%8%"};
