/* XPM */
static char * t9_xpm[] = {
"12 50 586 2",
"  	c None",
". 	c #0D0026",
"+ 	c #130027",
"@ 	c #12011E",
"# 	c #14000C",
"$ 	c #2E0105",
"% 	c #370506",
"& 	c #2E0604",
"* 	c #2B0008",
"= 	c #1F0013",
"- 	c #16001C",
"; 	c #0D0029",
"> 	c #040032",
", 	c #06001F",
"' 	c #0C000F",
") 	c #1D0205",
"! 	c #560001",
"~ 	c #750203",
"{ 	c #7F0809",
"] 	c #7C0A06",
"^ 	c #7B0009",
"/ 	c #4E0001",
"( 	c #20000B",
"_ 	c #05001D",
": 	c #020026",
"< 	c #030012",
"[ 	c #1E0003",
"} 	c #450501",
"| 	c #9B0508",
"1 	c #AE0C16",
"2 	c #C6161E",
"3 	c #D9111E",
"4 	c #C20514",
"5 	c #8D0309",
"6 	c #550103",
"7 	c #13030C",
"8 	c #020017",
"9 	c #0C0003",
"0 	c #4C0000",
"a 	c #940201",
"b 	c #EC010C",
"c 	c #C8120F",
"d 	c #D20F0B",
"e 	c #FA000B",
"f 	c #F80011",
"g 	c #D8010D",
"h 	c #AA0005",
"i 	c #420001",
"j 	c #11000D",
"k 	c #1C0306",
"l 	c #640409",
"m 	c #B9120D",
"n 	c #F5010C",
"o 	c #F18E6F",
"p 	c #EE785B",
"q 	c #F80304",
"r 	c #EE010A",
"s 	c #ED0612",
"t 	c #DB060B",
"u 	c #580500",
"v 	c #1F0105",
"w 	c #220607",
"x 	c #710809",
"y 	c #CD1515",
"z 	c #F9010C",
"A 	c #FFB18D",
"B 	c #FF9A76",
"C 	c #FA0509",
"D 	c #EA0802",
"E 	c #F4010E",
"F 	c #EC000F",
"G 	c #610903",
"H 	c #2F0402",
"I 	c #260408",
"J 	c #7F060B",
"K 	c #E01017",
"L 	c #F4010B",
"M 	c #CD613C",
"N 	c #D55134",
"O 	c #F60805",
"P 	c #ED0601",
"Q 	c #F7050A",
"R 	c #EC0011",
"S 	c #6E0601",
"T 	c #410401",
"U 	c #210607",
"V 	c #820809",
"W 	c #D60B17",
"X 	c #F5000B",
"Y 	c #EE0E0A",
"Z 	c #F30B03",
"` 	c #F30200",
" .	c #F70301",
"..	c #FD040F",
"+.	c #EB0014",
"@.	c #650703",
"#.	c #3E0301",
"$.	c #150203",
"%.	c #680305",
"&.	c #B90509",
"*.	c #E61112",
"=.	c #EF0707",
"-.	c #F50200",
";.	c #F40700",
">.	c #FE0303",
",.	c #E60508",
"'.	c #BC030A",
").	c #4B0D06",
"!.	c #250300",
"~.	c #080000",
"{.	c #550400",
"].	c #840201",
"^.	c #B80E09",
"/.	c #EC0604",
"(.	c #F60403",
"_.	c #E60500",
":.	c #FC0605",
"<.	c #C40501",
"[.	c #7C0502",
"}.	c #2C1409",
"|.	c #0B0000",
"1.	c #050000",
"2.	c #110000",
"3.	c #320802",
"4.	c #68060C",
"5.	c #9F0A18",
"6.	c #BA0B1E",
"7.	c #C70F1D",
"8.	c #AA0C18",
"9.	c #7D0508",
"0.	c #540101",
"a.	c #0D0202",
"b.	c #0E0000",
"c.	c #180402",
"d.	c #310101",
"e.	c #5C0807",
"f.	c #711110",
"g.	c #6E0D07",
"h.	c #580605",
"i.	c #390200",
"j.	c #270201",
"k.	c #020C0A",
"l.	c #17030D",
"m.	c #090000",
"n.	c #030800",
"o.	c #030A00",
"p.	c #140000",
"q.	c #280302",
"r.	c #310606",
"s.	c #300704",
"t.	c #220301",
"u.	c #100000",
"v.	c #080200",
"w.	c #001101",
"x.	c #03090A",
"y.	c #090500",
"z.	c #0E0804",
"A.	c #250C0E",
"B.	c #3A1512",
"C.	c #411817",
"D.	c #3E1A15",
"E.	c #311C10",
"F.	c #170A06",
"G.	c #0C0503",
"H.	c #020D00",
"I.	c #000403",
"J.	c #060000",
"K.	c #0F0000",
"L.	c #270812",
"M.	c #3D131A",
"N.	c #540C16",
"O.	c #55090F",
"P.	c #580609",
"Q.	c #5F151B",
"R.	c #470C13",
"S.	c #32080E",
"T.	c #0D0303",
"U.	c #010000",
"V.	c #220910",
"W.	c #421D23",
"X.	c #440B13",
"Y.	c #53040D",
"Z.	c #59010A",
"`.	c #66020A",
" +	c #5B0006",
".+	c #570A10",
"++	c #4E121B",
"@+	c #250814",
"#+	c #100204",
"$+	c #2D1514",
"%+	c #3E211A",
"&+	c #370A06",
"*+	c #97544D",
"=+	c #954642",
"-+	c #5C0602",
";+	c #5B0101",
">+	c #4F0604",
",+	c #430E13",
"'+	c #2D1719",
")+	c #090405",
"!+	c #1D0A0B",
"~+	c #421314",
"{+	c #490908",
"]+	c #52130D",
"^+	c #BA7D70",
"/+	c #B57B6C",
"(+	c #4B0F00",
"_+	c #4B0700",
":+	c #460604",
"<+	c #430F07",
"[+	c #3F1E18",
"}+	c #1B0907",
"|+	c #150809",
"1+	c #51141D",
"2+	c #5E0910",
"3+	c #4F0404",
"4+	c #935048",
"5+	c #8F4E42",
"6+	c #4B0502",
"7+	c #580C00",
"8+	c #500B08",
"9+	c #4A0805",
"0+	c #431117",
"a+	c #1B0607",
"b+	c #190D09",
"c+	c #4C1013",
"d+	c #640510",
"e+	c #600606",
"f+	c #600509",
"g+	c #550701",
"h+	c #5B0301",
"i+	c #620100",
"j+	c #5C0405",
"k+	c #4D171B",
"l+	c #230407",
"m+	c #0B0305",
"n+	c #36181C",
"o+	c #450E12",
"p+	c #440E0B",
"q+	c #520804",
"r+	c #670305",
"s+	c #760204",
"t+	c #7B0000",
"u+	c #690005",
"v+	c #59040F",
"w+	c #2A1D1B",
"x+	c #071007",
"y+	c #010500",
"z+	c #240F11",
"A+	c #431825",
"B+	c #3E1410",
"C+	c #510905",
"D+	c #5C0502",
"E+	c #630202",
"F+	c #760009",
"G+	c #4C1114",
"H+	c #291F1E",
"I+	c #220D12",
"J+	c #080401",
"K+	c #050300",
"L+	c #0F050A",
"M+	c #270D1A",
"N+	c #2C1511",
"O+	c #470D06",
"P+	c #4E0901",
"Q+	c #4F0502",
"R+	c #74051B",
"S+	c #331C1F",
"T+	c #03261F",
"U+	c #140405",
"V+	c #040003",
"W+	c #040006",
"X+	c #080C13",
"Y+	c #09220D",
"Z+	c #2C1A0D",
"`+	c #36210A",
" @	c #3B200D",
".@	c #391919",
"+@	c #110D11",
"@@	c #000E0C",
"#@	c #030300",
"$@	c #050302",
"%@	c #000005",
"&@	c #030304",
"*@	c #050506",
"=@	c #050900",
"-@	c #2F0600",
";@	c #380702",
">@	c #210903",
",@	c #310303",
"'@	c #120402",
")@	c #000902",
"!@	c #000700",
"~@	c #000C05",
"{@	c #000000",
"]@	c #020000",
"^@	c #1A1111",
"/@	c #35171D",
"(@	c #4A181C",
"_@	c #4A1516",
":@	c #481510",
"<@	c #4A1920",
"[@	c #2D1211",
"}@	c #140D0B",
"|@	c #040307",
"1@	c #00070D",
"2@	c #17050B",
"3@	c #38141E",
"4@	c #441116",
"5@	c #570210",
"6@	c #5D000B",
"7@	c #660009",
"8@	c #630410",
"9@	c #570914",
"0@	c #4A1019",
"a@	c #19040F",
"b@	c #04020E",
"c@	c #090001",
"d@	c #230C0D",
"e@	c #401D20",
"f@	c #3B0A07",
"g@	c #611D19",
"h@	c #641415",
"i@	c #610705",
"j@	c #5C0202",
"k@	c #510506",
"l@	c #430B11",
"m@	c #271215",
"n@	c #070103",
"o@	c #190709",
"p@	c #3C1817",
"q@	c #421510",
"r@	c #47100B",
"s@	c #BF8678",
"t@	c #BE796D",
"u@	c #530A00",
"v@	c #520300",
"w@	c #4A0604",
"x@	c #470C0B",
"y@	c #391D1B",
"z@	c #140808",
"A@	c #1A080A",
"B@	c #4B1218",
"C@	c #570B0E",
"D@	c #4E0C04",
"E@	c #C38778",
"F@	c #B37E6E",
"G@	c #3E0600",
"H@	c #4B0E00",
"I@	c #430D07",
"J@	c #430906",
"K@	c #3E1817",
"L@	c #1A0607",
"M@	c #130B09",
"N@	c #4F141B",
"O@	c #62030E",
"P@	c #5C0208",
"Q@	c #540204",
"R@	c #5B0A03",
"S@	c #650400",
"T@	c #5D0707",
"U@	c #550805",
"V@	c #4B1219",
"W@	c #210407",
"X@	c #130908",
"Y@	c #3D1719",
"Z@	c #540A11",
"`@	c #4E0A0A",
" #	c #580407",
".#	c #5F0303",
"+#	c #6A0103",
"@#	c #6F0000",
"##	c #620104",
"$#	c #5B050C",
"%#	c #3A1E1E",
"&#	c #120C08",
"*#	c #030101",
"=#	c #2E0F12",
"-#	c #47111A",
";#	c #450D10",
">#	c #580706",
",#	c #630404",
"'#	c #6E0101",
")#	c #7A0003",
"!#	c #62040A",
"~#	c #4A0A14",
"{#	c #261414",
"]#	c #070B05",
"^#	c #000B00",
"/#	c #191211",
"(#	c #351625",
"_#	c #331212",
":#	c #4A0C03",
"<#	c #530500",
"[#	c #560202",
"}#	c #770015",
"|#	c #371E1E",
"1#	c #063027",
"2#	c #1A070B",
"3#	c #060401",
"4#	c #000A00",
"5#	c #040406",
"6#	c #15101A",
"7#	c #192715",
"8#	c #3B1F11",
"9#	c #401C09",
"0#	c #401709",
"a#	c #521821",
"b#	c #1E171A",
"c#	c #011714",
"d#	c #0A0004",
"e#	c #030000",
"f#	c #070000",
"g#	c #030006",
"h#	c #00020E",
"i#	c #000F00",
"j#	c #250900",
"k#	c #351405",
"l#	c #321709",
"m#	c #30090A",
"n#	c #110407",
"o#	c #000C0D",
"p#	c #000003",
"q#	c #170001",
"r#	c #0B0009",
"s#	c #0B020A",
"t#	c #360400",
"u#	c #3A0200",
"v#	c #120000",
"w#	c #390002",
"x#	c #190101",
"y#	c #000809",
"z#	c #000103",
"A#	c #0D0104",
"B#	c #080005",
"C#	c #0F0003",
"D#	c #120306",
"E#	c #0F0D00",
"F#	c #590300",
"G#	c #650A0B",
"H#	c #461907",
"I#	c #550205",
"J#	c #2A0000",
"K#	c #0B0004",
"L#	c #000102",
"M#	c #080102",
"N#	c #000400",
"O#	c #1F0300",
"P#	c #4B0303",
"Q#	c #720308",
"R#	c #A8040B",
"S#	c #C50510",
"T#	c #D80310",
"U#	c #A00A12",
"V#	c #790005",
"W#	c #570103",
"X#	c #000200",
"Y#	c #380000",
"Z#	c #730400",
"`#	c #B10409",
" $	c #E3081B",
".$	c #F20316",
"+$	c #FB0216",
"@$	c #E50411",
"#$	c #A60606",
"$$	c #690303",
"%$	c #3A0A06",
"&$	c #0B0200",
"*$	c #0F0400",
"=$	c #5E0900",
"-$	c #A30703",
";$	c #DF0A11",
">$	c #EE3730",
",$	c #F92F2A",
"'$	c #F0040F",
")$	c #FE000C",
"!$	c #D00E0C",
"~$	c #9A0D03",
"{$	c #650606",
"]$	c #180800",
"^$	c #300303",
"/$	c #930405",
"($	c #E30205",
"_$	c #E80B0E",
":$	c #FABF8E",
"<$	c #F3A77A",
"[$	c #DC0800",
"}$	c #F90201",
"|$	c #FE0706",
"1$	c #EF0107",
"2$	c #8E0000",
"3$	c #291000",
"4$	c #3D0206",
"5$	c #800309",
"6$	c #C80D03",
"7$	c #EA0E08",
"8$	c #E32215",
"9$	c #F12618",
"0$	c #EB0800",
"a$	c #EB0700",
"b$	c #ED0401",
"c$	c #E70906",
"d$	c #8B0002",
"e$	c #3A0202",
"f$	c #320308",
"g$	c #7D040B",
"h$	c #CC0F03",
"i$	c #F00605",
"j$	c #ED0609",
"k$	c #EF0505",
"l$	c #EF0705",
"m$	c #EB0B00",
"n$	c #F00701",
"o$	c #E20503",
"p$	c #750403",
"q$	c #2F0202",
"r$	c #280409",
"s$	c #83060D",
"t$	c #D20404",
"u$	c #FC0210",
"v$	c #FA0209",
"w$	c #FB0205",
"x$	c #FB0505",
"y$	c #EE0700",
"z$	c #F4070A",
"A$	c #E90203",
"B$	c #590B03",
"C$	c #1B0406",
"D$	c #930505",
"E$	c #CA0909",
"F$	c #F30303",
"G$	c #FE0200",
"H$	c #FB0200",
"I$	c #EF0700",
"J$	c #C40C03",
"K$	c #890901",
"L$	c #2A0903",
"M$	c #080500",
"N$	c #000009",
"O$	c #320003",
"P$	c #610004",
"Q$	c #96050A",
"R$	c #C9060E",
"S$	c #D90A0F",
"T$	c #E30709",
"U$	c #CC090B",
"V$	c #9C0406",
"W$	c #650202",
"X$	c #1E0602",
"Y$	c #050206",
"Z$	c #090012",
"`$	c #190008",
" %	c #370004",
".%	c #5D0108",
"+%	c #8D020A",
"@%	c #9D020D",
"#%	c #A40106",
"$%	c #96010A",
"%%	c #690004",
"&%	c #400103",
"*%	c #120408",
"=%	c #04000E",
"-%	c #080021",
";%	c #030019",
">%	c #020213",
",%	c #130214",
"'%	c #36041D",
")%	c #43041C",
"!%	c #480119",
"~%	c #3B0016",
"{%	c #24000E",
"]%	c #160011",
"^%	c #06001E",
"/%	c #01001F",
"(%	c #020021",
"_%	c #00061F",
":%	c #000B1D",
"<%	c #05021F",
"[%	c #0C011C",
"}%	c #0F001C",
"|%	c #11001C",
"1%	c #0F001B",
"2%	c #09001B",
"3%	c #06001C",
"4%	c #020020",
"5%	c #00001C",
". + @ # $ % & * = - ; > ",
", ' ) ! ~ { ] ^ / ( _ : ",
"< [ } | 1 2 3 4 5 6 7 8 ",
"9 0 a b c d e f g h i j ",
"k l m n o p q r s t u v ",
"w x y z A B C D E F G H ",
"I J K L M N O P Q R S T ",
"U V W X Y Z `  ...+.@.#.",
"$.%.&.*.=.-.;.>.,.'.).!.",
"~.{.].^./.(._.:.<.[.}.|.",
"1.2.3.4.5.6.7.8.9.0.a.9 ",
"b.|.c.d.e.f.g.h.i.j.k.l.",
"m.n.o.p.q.r.s.t.u.v.w.x.",
"~.y.z.A.B.C.D.E.F.G.H.I.",
"J.K.L.M.N.O.P.Q.R.S.T.U.",
"J.V.W.X.Y.Z.`. +.+++@+9 ",
"#+$+%+&+*+=+-+;+>+,+'+)+",
"!+~+{+]+^+/+(+_+:+<+[+}+",
"|+1+2+3+4+5+6+7+8+9+0+a+",
"b+c+d+e+f+g+h+i+j+P.k+l+",
"m+n+o+p+q+r+s+t+u+v+w+x+",
"y+z+A+B+C+D+E+F+G+H+I+J+",
"K+L+M+N+O+P+Q+R+S+T+U+J.",
"V+W+X+Y+Z+`+ @.@+@@@#@$@",
"%@&@*@=@-@;@>@,@'@)@!@~@",
"{@]@^@/@(@_@:@<@[@}@|@1@",
"{@2@3@4@5@6@7@8@9@0@a@b@",
"c@d@e@f@g@h@i@j@k@l@m@n@",
"o@p@q@r@s@t@u@v@w@x@y@z@",
"A@B@C@D@E@F@G@H@I@J@K@L@",
"M@N@O@P@Q@R@G S@T@U@V@W@",
"X@Y@Z@`@ #.#+#@###$#%#&#",
"*#=#-#;#>#,#'#)#!#~#{#]#",
"^#/#(#_#:#<#[#}#|#1#2#3#",
"4#5#6#7#8#9#0#a#b#c#d#e#",
"f#g#h#i#j#k#l#m#n#o#p#q#",
"f#r#s#i#t#u#v#w#x#y#z#A#",
"B#C#D#E#F#G#H#I#J#K#L#M#",
"N#O#P#Q#R#S#T#U#V#W#4#!@",
"X#Y#Z#`# $.$+$@$#$$$%$&$",
"*$=$-$;$>$,$'$)$!$~${$]$",
"^$/$($_$:$<$[$}$|$1$2$3$",
"4$5$6$7$8$9$0$a$b$c$d$e$",
"f$g$h$i$j$k$l$m$n$o$p$q$",
"r$s$t$u$v$w$x$y$z$A$B$C$",
"{@0 D$E$F$G$H$I$J$K$L$M$",
"N$O$P$Q$R$S$T$U$V$W$X$Y$",
"Z$`$ %.%+%@%#%$%%%&%*%=%",
"-%;%>%,%'%)%!%~%{%]%^%/%",
"(%_%:%<%[%}%|%1%2%3%4%5%"};
