/* XPM */
static char * tbcolon_xpm[] = {
"4 50 52 1",
" 	c None",
".	c #04033A",
"+	c #000330",
"@	c #01053D",
"#	c #000118",
"$	c #01002E",
"%	c #01042B",
"&	c #010335",
"*	c #010218",
"=	c #010128",
"-	c #010425",
";	c #01022C",
">	c #020319",
",	c #060018",
"'	c #050012",
")	c #070019",
"!	c #05000F",
"~	c #01030C",
"{	c #000308",
"]	c #02020D",
"^	c #000109",
"/	c #010104",
"(	c #020202",
"_	c #000004",
":	c #000005",
"<	c #000000",
"[	c #010101",
"}	c #000001",
"|	c #000102",
"1	c #000306",
"2	c #01020A",
"3	c #030003",
"4	c #030000",
"5	c #000002",
"6	c #05000D",
"7	c #040007",
"8	c #050004",
"9	c #020003",
"0	c #0D0014",
"a	c #04000D",
"b	c #010215",
"c	c #030014",
"d	c #030010",
"e	c #010106",
"f	c #010814",
"g	c #04031E",
"h	c #04001D",
"i	c #010209",
"j	c #040A12",
"k	c #04021E",
"l	c #03001D",
"m	c #010109",
".+@#",
"$%&*",
"=-;>",
",')!",
"~{]^",
"/(_:",
"<<[<",
"<<<<",
"<<<<",
"<<<<",
"<<<<",
"<<<<",
"<<<<",
"<<<<",
"<<<<",
"<<<<",
"<<<<",
"<<<<",
"<<<<",
"<<<<",
"<<<<",
"<<<<",
"<<<<",
"<<<<",
"<<<<",
"<<<<",
"<<<<",
"<<<<",
"<<<<",
"<<<<",
"<<<<",
"<<<<",
"<<<<",
"<<<<",
"<<<<",
"<<<<",
"<<<<",
"<<<<",
"<<<<",
"<<<<",
"<<}}",
"<<<<",
"|<<<",
"1}<<",
"2345",
"6789",
"0a^9",
"bcde",
"fghi",
"jklm"};
