/* XPM */
static char * tcolon_xpm[] = {
"4 50 167 2",
"  	c None",
". 	c #010338",
"+ 	c #000233",
"@ 	c #01053A",
"# 	c #000016",
"$ 	c #00002D",
"% 	c #000430",
"& 	c #000435",
"* 	c #000118",
"= 	c #010128",
"- 	c #000429",
"; 	c #00032E",
"> 	c #000317",
", 	c #080020",
"' 	c #050016",
") 	c #08001D",
"! 	c #05000F",
"~ 	c #020518",
"{ 	c #01050B",
"] 	c #020111",
"^ 	c #010008",
"/ 	c #000912",
"( 	c #000707",
"_ 	c #03020C",
": 	c #000005",
"< 	c #000704",
"[ 	c #010203",
"} 	c #090108",
"| 	c #040002",
"1 	c #000300",
"2 	c #000900",
"3 	c #000600",
"4 	c #000200",
"5 	c #010100",
"6 	c #020000",
"7 	c #000700",
"8 	c #000500",
"9 	c #180000",
"0 	c #110000",
"a 	c #060000",
"b 	c #010006",
"c 	c #190000",
"d 	c #0F0003",
"e 	c #050002",
"f 	c #00000C",
"g 	c #140001",
"h 	c #0B0005",
"i 	c #030004",
"j 	c #000011",
"k 	c #000408",
"l 	c #000305",
"m 	c #00000B",
"n 	c #000402",
"o 	c #000703",
"p 	c #000301",
"q 	c #020007",
"r 	c #030401",
"s 	c #010600",
"t 	c #050000",
"u 	c #0B0000",
"v 	c #070000",
"w 	c #000007",
"x 	c #040C8A",
"y 	c #070A60",
"z 	c #030016",
"A 	c #000107",
"B 	c #04169B",
"C 	c #0B085B",
"D 	c #060017",
"E 	c #000306",
"F 	c #00024F",
"G 	c #060132",
"H 	c #03000C",
"I 	c #01010F",
"J 	c #080006",
"K 	c #000102",
"L 	c #000505",
"M 	c #060101",
"N 	c #040000",
"O 	c #000208",
"P 	c #020B01",
"Q 	c #050200",
"R 	c #030000",
"S 	c #000010",
"T 	c #000D02",
"U 	c #020401",
"V 	c #000000",
"W 	c #050012",
"X 	c #000902",
"Y 	c #000003",
"Z 	c #0A0012",
"` 	c #020703",
" .	c #000407",
"..	c #0F000A",
"+.	c #050003",
"@.	c #010304",
"#.	c #000202",
"$.	c #100001",
"%.	c #150004",
"&.	c #060601",
"*.	c #0A0001",
"=.	c #0F0024",
"-.	c #05051B",
";.	c #000207",
">.	c #000105",
",.	c #010C70",
"'.	c #060C5F",
").	c #000012",
"!.	c #000B00",
"~.	c #041CAA",
"{.	c #070D5C",
"].	c #00053B",
"^.	c #00000E",
"/.	c #010900",
"(.	c #000228",
"_.	c #000020",
":.	c #00000A",
"<.	c #0A0000",
"[.	c #01020E",
"}.	c #00040F",
"|.	c #000004",
"1.	c #0F0008",
"2.	c #020104",
"3.	c #000304",
"4.	c #000101",
"5.	c #0C000D",
"6.	c #060002",
"7.	c #000100",
"8.	c #000013",
"9.	c #0D0002",
"0.	c #050100",
"a.	c #00020D",
"b.	c #090002",
"c.	c #010107",
"d.	c #010003",
"e.	c #000001",
"f.	c #00030A",
"g.	c #010000",
"h.	c #000E04",
"i.	c #020502",
"j.	c #000803",
"k.	c #070201",
"l.	c #000D04",
"m.	c #010606",
"n.	c #0C0101",
"o.	c #090000",
"p.	c #000D0C",
"q.	c #0A0107",
"r.	c #020411",
"s.	c #080008",
"t.	c #0A0002",
"u.	c #070015",
"v.	c #09000D",
"w.	c #070006",
"x.	c #0E0017",
"y.	c #06000F",
"z.	c #01010A",
"A.	c #020217",
"B.	c #040015",
"C.	c #020114",
"D.	c #000008",
"E.	c #000716",
"F.	c #05021C",
"G.	c #020019",
"H.	c #000C12",
"I.	c #03021E",
"J.	c #02001C",
". + @ # ",
"$ % & * ",
"= - ; > ",
", ' ) ! ",
"~ { ] ^ ",
"/ ( _ : ",
"< [ } | ",
"1 2 3 4 ",
"5 2 3 4 ",
"6 7 8 4 ",
"6 9 0 a ",
"b c d e ",
"f g h i ",
"j : k l ",
"m n o p ",
"q r s 1 ",
"t u v 6 ",
"w x y z ",
"A B C D ",
"E F G H ",
"4 I J t ",
"K L M N ",
"O P Q R ",
"S T U V ",
"W X l Y ",
"Z `  .Y ",
"..+.@.#.",
"$.%.&.1 ",
"*.=.-.;.",
">.,.'.).",
"!.~.{.j ",
"!.].; ^.",
"/.(._.:.",
"<.[.}.|.",
"1.2.3.4.",
"5.6.5 7.",
"8.9.0.5 ",
"a.b.R V ",
"c.e d.e.",
"| Y f.>.",
"g.h.i.6 ",
"X j.k.a ",
"l.m.n.o.",
"p.q.$.<.",
"r.s.t.a ",
"u.v.w.6 ",
"x.y.z.Y ",
"A.B.C.D.",
"E.F.G.:.",
"H.I.J.f "};
