/* XPM */
char * beats_xpm[] = {
"108 11 3 1",
" 	c #282828",
"O	c #00df00",
"/	c #004300",
"    OOOO        O     OOOO     OOOO    O    O     OOOO     OOOO    OOOO     OOOO     OOOO     OOOOOO        ",
"   O    O       O         O        O   O    O    O        O            O   O    O   O    O  /O/     O       ",
"  /O   /O      /O        /O       /O  /O   /O   /O       /O           /O  /O   /O  /O   /O  O /OOOO  O      ",
"  O/   O/      O/        O/       O/  O/   O/   O/       O/           O/  O/   O/  O/   O/ O /O   O  O      ",
"  O    O       O         O        O   O    O    O        O            O   O    O   O    O  O O    O  O      ",
"  O   O        O    OOOOO     OOOO     OOOO      OOOO    OOOOO        O   OOOOO    OOOOO   O O   /O  O      ",
" O    O       O    O             O        O         O   O    O       O   O    O        O   O O   O  /O      ",
"/O   /O      /O   /O            /O       /O        /O  /O   /O      /O  /O   /O       /O   O  O /O /O       ",
"O/   O/      O/   O/            O/       O/        O/  O/   O/      O/  O/   O/       O/    O  OO OO        ",
"O    O       O    O             O        O         O   O    O       O   O    O        O     /O              ",
" OOOO        O     OOOO     OOOO         O     OOOO     OOOO        O    OOOO     OOOO        OOOOOO        "}; 
/*
 012345678012345678012345678012345678012345678012345678012345678012345678012345678012345678012^45678012345678 */
