/* XPM */
static char *date[] = {
/* width height num_colors chars_per_pixel */
"    90    13        4            1",
/* colors */
". c #000000",
"# c #555555",
"a c #aaaaaa",
"b c #ffffff",
/* pixels */
"bbb....bbbbbb..bbbbbba..abbbb....abbbbbbb..bbbb......bbbbba...bbb......bbba..abbbbb...abbb",
"bb..aa..bbbb#..bbbbb.....abb..bb..abbbbba..bbba.....bbbba...bbbb.......bba.bb.abbb..a...bb",
"bb.abba.bbb....bbbb..bba..bb.bbbb..bbbba...bbba.bbbbbbba..bbbbbb.bbba.abb..bb..bba.abb..ab",
"ba.bbbb.abbbb..bbbb.bbbb..bbbbbba.abbbb....bbb..bbbbbbb..bbbbbbbbbbb..bbb..bb..bb..bbbb..b",
"b..bbbb..bbbb..bbbbbbbbb..bbbbba..bbbba.b..bbb....abbba..bbbbbbbbbba.abbba..b.abb..bbbb..b",
"b..bbbb..bbbb..bbbbbbbbb..bbbb...bbbba.ab..bbbaaa...bb......abbbbbb..bbbbb....bbb..bbbb..b",
"b..bbbb..bbbb..bbbbbbbba.abbbb....bbb..bb..bbbbbbb..ab..bbb..abbbbb.abbbbb....bbba..bbb..b",
"b..bbbb..bbbb..bbbbbbbb..bbbbbbb..aba.bbb..bbbbbbbb..b..bbbb..bbbba.bbbbb..b...bbb.......b",
"b..bbbb..bbbb..bbbbbbb..bbbbbbbbb..b.aaaa..abbbbbbb..b..bbbb..bbbb..bbbba.abb..abbba.a..ab",
"ba.bbbb.abbbb..bbbbbb..bbbbbbbbbb..b........bbbbbbb..b..bbbb..bbbb.abbbb..bbbb..bbbbba..bb",
"bb.abba.bbbbb..bbbbb..bbbabbbbbba.abbbbbb..bbbabbba.ab..abbb.abbba.bbbbba.bbbb.abbbba..abb",
"bb..aa..bbbba..abbba.aaaa.bb.aba..bbbbbbb..bbb.aaa..bbb...a..bbbb..bbbbbb..aa..bbba...bbbb",
"bbb....bbbb......bb.......bb....abbbbbbbb..bbb....abbbbb....bbbbb..bbbbbbba..abbb...abbbbb"
};
