/* XPM */
static char * cloud_xpm[] = {
"48 48 356 2",
"  	c None",
". 	c #111111",
"+ 	c #474747",
"@ 	c #3B3B3B",
"# 	c #000000",
"$ 	c #282828",
"% 	c #383838",
"& 	c #CCCCCC",
"* 	c #EEEEEE",
"= 	c #F4F4F4",
"- 	c #D4D4D4",
"; 	c #484848",
"> 	c #101010",
", 	c #040404",
"' 	c #2A2A2A",
") 	c #909090",
"! 	c #F5F5F5",
"~ 	c #F1F1F1",
"{ 	c #E2E2E2",
"] 	c #D7D7D7",
"^ 	c #F3F3F3",
"/ 	c #F8F8F8",
"( 	c #FBFBFB",
"_ 	c #3F3F3F",
": 	c #121212",
"< 	c #1C1D1C",
"[ 	c #A5A5A5",
"} 	c #ECECEC",
"| 	c #EFEFEF",
"1 	c #E3E3E3",
"2 	c #D9D9D9",
"3 	c #D7DBD8",
"4 	c #CED3CF",
"5 	c #B8BCB9",
"6 	c #212121",
"7 	c #656565",
"8 	c #5D5D5D",
"9 	c #414141",
"0 	c #404040",
"a 	c #494949",
"b 	c #454545",
"c 	c #343434",
"d 	c #0C0C0C",
"e 	c #060606",
"f 	c #8E8F8E",
"g 	c #F2F2F2",
"h 	c #F0F0F0",
"i 	c #F7F7F7",
"j 	c #E5E5E5",
"k 	c #D2D2D2",
"l 	c #C5C5C5",
"m 	c #BFBFBF",
"n 	c #CACFCB",
"o 	c #CCD1CD",
"p 	c #CDD2CE",
"q 	c #404140",
"r 	c #444444",
"s 	c #2D2D2D",
"t 	c #202020",
"u 	c #363636",
"v 	c #B3B3B3",
"w 	c #E9E9E9",
"x 	c #EBEBEB",
"y 	c #E6E6E6",
"z 	c #E0E1E0",
"A 	c #4A4B4A",
"B 	c #0B0B0B",
"C 	c #EDEDED",
"D 	c #DDDDDD",
"E 	c #CECECE",
"F 	c #CFCFCF",
"G 	c #EBEDEC",
"H 	c #E5E7E6",
"I 	c #DDE0DE",
"J 	c #D2D6D2",
"K 	c #828582",
"L 	c #585959",
"M 	c #E8E8E8",
"N 	c #D6D6D6",
"O 	c #BDBDBD",
"P 	c #767676",
"Q 	c #2E2E2E",
"R 	c #070707",
"S 	c #232323",
"T 	c #B7B7B7",
"U 	c #F6F6F6",
"V 	c #E1E1E1",
"W 	c #D3D3D3",
"X 	c #DADADA",
"Y 	c #797979",
"Z 	c #DCDCDC",
"` 	c #E4E4E4",
" .	c #BABEBA",
"..	c #A4A5A4",
"+.	c #E7E7E7",
"@.	c #F9F9F9",
"#.	c #CACACA",
"$.	c #9A9A9A",
"%.	c #828382",
"&.	c #303030",
"*.	c #FCFCFC",
"=.	c #DBDBDB",
"-.	c #D0D0D0",
";.	c #C6C6C6",
">.	c #838383",
",.	c #C0C0C0",
"'.	c #999A99",
").	c #FAFAFA",
"!.	c #D5D5D5",
"~.	c #B7B9B7",
"{.	c #7F827F",
"].	c #1F1F1F",
"^.	c #D8D8D8",
"/.	c #DEDEDE",
"(.	c #BBBBBB",
"_.	c #E0E0E0",
":.	c #A8AAA9",
"<.	c #ADAFAD",
"[.	c #707371",
"}.	c #0A0A0A",
"|.	c #EAEAEA",
"1.	c #DFDFDF",
"2.	c #D1D1D1",
"3.	c #ADAFAE",
"4.	c #ACAFAD",
"5.	c #5A5C5B",
"6.	c #B0B0B0",
"7.	c #B8BBB9",
"8.	c #A0A3A0",
"9.	c #323332",
"0.	c #575857",
"a.	c #BEC1BE",
"b.	c #7E817E",
"c.	c #080808",
"d.	c #111211",
"e.	c #C1C1C1",
"f.	c #FEFEFE",
"g.	c #FDFDFD",
"h.	c #CDCDCD",
"i.	c #B1B3B1",
"j.	c #7A7D7A",
"k.	c #090909",
"l.	c #050505",
"m.	c #FFFFFF",
"n.	c #C9C9C9",
"o.	c #B1B2B1",
"p.	c #A3A5A4",
"q.	c #1E1F1F",
"r.	c #010101",
"s.	c #C4C4C4",
"t.	c #A4A4A4",
"u.	c #999B9A",
"v.	c #0A0B0B",
"w.	c #CACBCA",
"x.	c #B8B8B8",
"y.	c #B2B2B2",
"z.	c #9C9D9D",
"A.	c #979797",
"B.	c #CBCBCB",
"C.	c #EEEFEE",
"D.	c #CCCDCC",
"E.	c #C3C3C3",
"F.	c #B4B4B4",
"G.	c #AFAFAF",
"H.	c #A1A1A1",
"I.	c #989898",
"J.	c #969696",
"K.	c #C8C8C8",
"L.	c #C2C2C2",
"M.	c #BCBCBC",
"N.	c #B6B6B6",
"O.	c #AAABAA",
"P.	c #A7A7A7",
"Q.	c #A1A2A1",
"R.	c #929392",
"S.	c #A1A4A2",
"T.	c #E6E7E6",
"U.	c #C2C3C2",
"V.	c #C4C5C4",
"W.	c #B1B1B1",
"X.	c #A6A7A7",
"Y.	c #9E9F9E",
"Z.	c #9EA09E",
"`.	c #9FA09F",
" +	c #ACAEAC",
".+	c #808280",
"++	c #030303",
"@+	c #848684",
"#+	c #BBBCBB",
"$+	c #C7C7C7",
"%+	c #E2E3E2",
"&+	c #A9AAA9",
"*+	c #A5A6A6",
"=+	c #9D9E9D",
"-+	c #9FA19F",
";+	c #AAACAB",
">+	c #AEB1AF",
",+	c #4A4C4A",
"'+	c #454745",
")+	c #9FA1A0",
"!+	c #C0C2C0",
"~+	c #ADADAD",
"{+	c #D6D7D6",
"]+	c #DCDDDC",
"^+	c #DADBDA",
"/+	c #DBDCDB",
"(+	c #ACACAC",
"_+	c #9D9D9D",
":+	c #A2A3A2",
"<+	c #A0A1A0",
"[+	c #A8ABA8",
"}+	c #B6B8B6",
"|+	c #868987",
"1+	c #181918",
"2+	c #070808",
"3+	c #717472",
"4+	c #B6B7B6",
"5+	c #ACADAC",
"6+	c #BABABA",
"7+	c #D3D4D3",
"8+	c #C5C6C5",
"9+	c #CBCDCB",
"0+	c #D1D3D1",
"a+	c #CED0CE",
"b+	c #D5D6D5",
"c+	c #D8D9D8",
"d+	c #DFE0DF",
"e+	c #A3A3A3",
"f+	c #9B9B9B",
"g+	c #A6A7A6",
"h+	c #AFB2AF",
"i+	c #BBBEBC",
"j+	c #9DA09E",
"k+	c #282928",
"l+	c #2A2C2B",
"m+	c #7A7D7B",
"n+	c #ADB1AE",
"o+	c #B4B7B5",
"p+	c #B0B3B1",
"q+	c #ADB0AE",
"r+	c #B2B3B2",
"s+	c #ABABAB",
"t+	c #A5A6A5",
"u+	c #B4B5B4",
"v+	c #B7B8B7",
"w+	c #B3B4B3",
"x+	c #BDBFBD",
"y+	c #B8BAB8",
"z+	c #B4B7B4",
"A+	c #C4C6C4",
"B+	c #C8CAC8",
"C+	c #CDCECD",
"D+	c #C6C7C6",
"E+	c #C8C9C9",
"F+	c #A6A6A6",
"G+	c #9B9C9B",
"H+	c #9A9B9A",
"I+	c #9F9F9F",
"J+	c #A7A9A8",
"K+	c #B3B6B3",
"L+	c #B9BDBA",
"M+	c #AFB3B0",
"N+	c #2D2E2E",
"O+	c #787B79",
"P+	c #B1B5B2",
"Q+	c #B7BBB8",
"R+	c #B5B8B6",
"S+	c #B0B4B1",
"T+	c #A6A8A6",
"U+	c #A3A5A3",
"V+	c #A0A2A0",
"W+	c #9C9E9C",
"X+	c #989A98",
"Y+	c #AAACAA",
"Z+	c #ABADAB",
"`+	c #9FA2A0",
" @	c #B9BCBA",
".@	c #B0B1B0",
"+@	c #AEAFAE",
"@@	c #AFB0AF",
"#@	c #999999",
"$@	c #969796",
"%@	c #9C9D9C",
"&@	c #A4A6A4",
"*@	c #ADB0AD",
"=@	c #BFC3C0",
"-@	c #A7ABA8",
";@	c #494B49",
">@	c #757875",
",@	c #ABAFAC",
"'@	c #BABEBB",
")@	c #B2B6B3",
"!@	c #A1A4A1",
"~@	c #8E918E",
"{@	c #8A8D8B",
"]@	c #858886",
"^@	c #838683",
"/@	c #848784",
"(@	c #8C8F8D",
"_@	c #9C9F9D",
":@	c #A5A7A6",
"<@	c #A3A7A4",
"[@	c #9C9E9D",
"}@	c #9A9D9B",
"|@	c #949795",
"1@	c #949694",
"2@	c #999C9A",
"3@	c #9A9C9B",
"4@	c #929493",
"5@	c #8B8D8B",
"6@	c #969997",
"7@	c #A1A3A1",
"8@	c #A2A5A2",
"9@	c #A5A8A5",
"0@	c #AAADAA",
"a@	c #B5B9B6",
"b@	c #C4C9C5",
"c@	c #242525",
"d@	c #7B7E7C",
"e@	c #999D9A",
"f@	c #989D99",
"g@	c #838784",
"h@	c #585A59",
"i@	c #5D605E",
"j@	c #5E615F",
"k@	c #6C6F6D",
"l@	c #777B78",
"m@	c #818582",
"n@	c #8F9390",
"o@	c #989C99",
"p@	c #9B9E9B",
"q@	c #939693",
"r@	c #888B88",
"s@	c #787C79",
"t@	c #7E827F",
"u@	c #7F8280",
"v@	c #848785",
"w@	c #7D7F7D",
"x@	c #767876",
"y@	c #7E807E",
"z@	c #939694",
"A@	c #8A8D8A",
"B@	c #7F817F",
"C@	c #898D8A",
"D@	c #999E9A",
"E@	c #1B1C1B",
"F@	c #020302",
"G@	c #0B0C0B",
"H@	c #080909",
"I@	c #0F0F0F",
"J@	c #272927",
"K@	c #212321",
"L@	c #464846",
"M@	c #232423",
"N@	c #292B29",
"O@	c #060706",
"                                                                                                ",
"                                                                                                ",
"                                                                                                ",
"                                                                                                ",
"                                                                                                ",
"                                                                                                ",
"                                                                                                ",
"                                                                                                ",
"                                                                                                ",
"                                                                                                ",
"                                                                                                ",
"                                            . + @ # #                                           ",
"                                        $ % & * = - ; > ,                                       ",
"                                      ' ) ! ! ~ { ] ^ / ( _ :                                   ",
"                                    < [ } ! | 1 2 3 4 4 4 4 5 6                                 ",
"                7 8 9 0 a b c d # e f g h i j k l - m n o p 4 4 q     $ @ r s                   ",
"            t u v w h ~ h x y z A B 1 | ^ C D - E E F j G H I J K L m M w N O P Q R             ",
"          S T w ! U ! h V W F X N b Y V w 2 F F F F F E N Z `  ...+.@.^ C ] E #.$.%.Q           ",
"        &.F / *./ | { =.N - -.E E ;.>.,.D N N N N N N -.E E E '.h ).= V N N !.E F ~.{.].        ",
"      d [ / ( = } ^./.{ { /.2 - - - W #.{ { { { { { { 2 - - (.M = ! 1 =._.{ N F E :.<.[.}.      ",
"      7 |.^ = j ^./.|.C C |.` 1./.1.{ w C * * * * * * ` 1./._.x C V { y } y 2 2.E D 3.4.5.#     ",
"    . 6.C * | D _.|.! i i ! h |.|.x C ^ i i i i i i i h x |.C x } ` C g i ^ ` Z 2.E N 7.8.9.    ",
"    0._.x w +.V |.! ( *.*.( @.! = U i ).*.*.*.*.*.*.*.@.U = ! ~ h C i @./ ).* /.] 2.F 2.a.b.c.  ",
"  d.e.C { y x x U ( f.f.f.f.*.( ( *.*.g.f.f.f.f.f.f.f.*.*.( ).@./ i *.g.= *.@.1.^.W h.E & i.j.k.",
"  l.2 ] 2 +.* U ( f.f.f.g.).@./ *.*.*.*.g.f.f.f.f.f.m.f.f.g.g.g.*.*.f.f.~ / ~ D ^.k n.n.E o.p.q.",
"  r.#.h.N j | i *.f.f.f.g./ U = = U i @.( g.f.f.f.f.f.f.f.f.f.f.f.f.*.g.C g +.k X F s.,.h.t.u.v.",
"  # [ E W { ~ / ).*.*.*.( ^ ! i / i U @.).).( *.*.*.f.f.f.f.f.f.*.).@.| j C D w.!.h.O x.y.z.A.# ",
"  # B.B.k { g ~ = i i i = h = ^ / U @.@.C.* U / i @.( *.*.*.@.U U i U x /./.D.E.#.s.F.G.H.I.J.# ",
"  # '.K.E ^.w |.C * h g | h g h = i g C.M w h = = U @.).( @.@.i ! ~ ~ V W -.L.(.M.N.O.P.'.Q.R.# ",
"  # S.n.#.-.Z ` C * h * } } ^ ~ ~ |.y T.z +.~ ^ g ^ U / / i ).! ~ x { E U.V.x.W.v X.Y.Z.`. +.+++",
"  # @+#+& $+-.=.x |.|.| x w M y |.M %+z z T.~ ^ | x g g U = | w ` 1.E M.(.T &+O.*+`.=+-+;+>+,+  ",
"    '+)+!+~+E E - { V M 1 1 ] ` y {+]+^+/+%+M j { j M |.w |.1 { 2 -.O (+y._+:+..<+`.:+[+}+|+1+  ",
"    2+3+>+7.4+5+6+W D ] l E {+7+8+9+0+a+b+c+d+=.X c+^.W !.Z 2 ] E.G._+e+t.f+Q.:+..g+h+i+j+k+    ",
"      l+m+n+o+p+q+G.r+s+Q.t+u+v+w+x+y+z+A+B+b+C+D+E+h.& C+E s.v F+G+H+I+Z.:+O.J+O.K+L+M+Q       ",
"        N+O+P+Q+R+S+ +T+U+-+V+W+X+Y+Z+`+p+ @.@+@@@+@o.5+t+=+'.#@A.$@%@Q.&@:.Z+*@z+=@-@;@        ",
"          6 >@,@M+'@)@!@~@{@]@^@/@(@_@:@<@S.)+[@}@X+|@1@}@2@3@4@5@6@7@U+8@9@0@M+a@b@%           ",
"            ].c@d@e@f@g@h@i@j@k@[.l@m@n@o@p@q@r@s@j.t@s@u@v@w@x@y@z@~@A@B@m@C@D@E@r.            ",
"                # # # # # # # F@G@1+H@# # # # # # # R I@J@K@L@L@M@t N@O@# # # #                 ",
"                                                                                                ",
"                                                                                                ",
"                                                                                                ",
"                                                                                                ",
"                                                                                                ",
"                                                                                                ",
"                                                                                                ",
"                                                                                                ",
"                                                                                                ",
"                                                                                                "};
