/* XPM */
static char * fog_mini_xpm[] = {
"16 16 11 1",
" 	c None",
".	c #CFD4D0",
"+	c #BDC2BF",
"@	c #9A9F9D",
"#	c #ACB1AE",
"$	c #303638",
"%	c #777C7B",
"&	c #424749",
"*	c #535959",
"=	c #888D8C",
"-	c #656A6A",
"................",
"................",
"................",
"................",
"................",
".$$$$.$$$...$$..",
".$...$...$.$....",
".$$$.$...$.$.$$.",
".$...$...$.$..$.",
".$...$...$.$..$.",
".$....$$$...$$..",
"................",
"................",
"................",
"................",
"................"};
