/* XPM */
static char * fog_mini_xpm[] = {
"16 16 3 1",
" 	c None",
".	c #000000",
"+	c #E2E2E2",
"    ..          ",
"   .++.         ",
"  .+..+.        ",
" .+.  .+.    .  ",
"  . .. .+.  .+. ",
"   .++. .+..+.  ",
"  .+..+. .++.   ",
" .+.  .+. .. .  ",
"  . .. .+.  .+. ",
"   .++. .+..+.  ",
"  .+..+. .++.   ",
" .+.  .+. .. .  ",
"  .    .+.  .+. ",
"        .+..+.  ",
"         .++.   ",
"          ..    "};
