/* XPM */
static char * fog_xpm[] = {
"48 48 47 1",
" 	c None",
".	c #CC2828",
"+	c #CC3534",
"@	c #CC3535",
"#	c #B8D4D6",
"$	c #CC4A49",
"%	c #CD6564",
"&	c #CD8784",
"*	c #CCC569",
"=	c #CFC964",
"-	c #D1CB62",
";	c #CEC865",
">	c #D6D05E",
",	c #D7D15C",
"'	c #D6D05D",
")	c #CD6664",
"!	c #CC3131",
"~	c #D4CE60",
"{	c #DBD559",
"]	c #DDD856",
"^	c #D0C963",
"/	c #D9D35B",
"(	c #DED955",
"_	c #E1DC53",
":	c #D8D25B",
"<	c #CC5756",
"[	c #D0C964",
"}	c #E4DF4F",
"|	c #E8E44A",
"1	c #DAD459",
"2	c #D5CF5F",
"3	c #E6E24D",
"4	c #EAE649",
"5	c #DDD855",
"6	c #F4F03F",
"7	c #DCD756",
"8	c #CD908E",
"9	c #E0DB53",
"0	c #D6CF5D",
"a	c #CC6363",
"b	c #D2CC61",
"c	c #D9D359",
"d	c #CD8785",
"e	c #D4CE5F",
"f	c #414141",
"g	c #373737",
"h	c #2D2D2D",
"                                                ",
"                                                ",
"                                                ",
"                                                ",
"                                                ",
"                                                ",
"                                                ",
"                                                ",
"                                                ",
"                                                ",
"            ........................            ",
"           ++++++++++++++++++++++++++           ",
"           @@######################@@           ",
"          @@@######################@@@          ",
"          @@########################@@          ",
"          @@########################@@          ",
"          +@########################@+          ",
"         ++@########################@++         ",
"         ++##########################++         ",
"         ++##########################++         ",
"        @++##########################++@        ",
"       ++$$++++++++++++++++++++++++++$$++       ",
"       +$%%$$$$$$$$$$$$$$$$$$$$$$$$$$%%$+       ",
"      @+$%&*=-;%%%%%%%%%%%%%%%%%%->,'&)$+@      ",
"      @+$!*~{]{-!!!!!!!!!!!!!!!!^/(_(:<$+@      ",
"     @@+$![{}|}1<<<<<<<<<<<<<<<<2(3435<$+@@     ",
"     .+$%!-]|6|78888888888888888'_4649<)$++     ",
"     .@$)!;{}|}0aaaaaaaaaaaaaaaab(343c<d)$+     ",
"     .@$)!8-170888888888888888888e59:8<d)$+     ",
"     .@$d<<<<<<<<<<<<<<<<<<<<<<<<<<<<<<d)$+     ",
"     .@))))))))))))))))))))))))))))))))))$+     ",
"     .$$$$$$$$$$$$$$$$$$$$$$$$$$$$$$$$$$$$+     ",
"     ++++++++++++++++++++++++++++++++++++++     ",
"         fffg                      fffg         ",
"         fghg                      fghg         ",
"         fghg                      fghg         ",
"         fghg                      fghg         ",
"         fghg                      fghg         ",
"         fghg                      fghg         ",
"         fhhg                      fhhg         ",
"         gggg                      gggg         ",
"                                                ",
"                                                ",
"                                                ",
"                                                ",
"                                                ",
"                                                ",
"                                                "};
