/* XPM */
static char * fog_xpm[] = {
"48 48 3 1",
" 	c None",
".	c #000000",
"+	c #E2E2E2",
"                                                ",
"                                                ",
"                                                ",
"                                                ",
"                                                ",
"           .....                                ",
"         ..+++++..                              ",
"        .+++++++++..                            ",
"       .++++++++++++.                           ",
"      .++++++++++++++.                          ",
"     .+++++.....++++++.                         ",
"    .+++++.     .++++++.                        ",
"    .++++.       ..+++++.              ..       ",
"     .++.          .+++++.            .++.      ",
"      ..            .+++++.          .++++.     ",
"           .....     .+++++..       .+++++.     ",
"         ..+++++..    .++++++.     .+++++.      ",
"        .+++++++++..   .++++++.....+++++.       ",
"       .++++++++++++.   .++++++++++++++.        ",
"      .++++++++++++++.   .++++++++++++.         ",
"     .+++++.....++++++.   ..+++++++++.          ",
"    .+++++.     .++++++.    ..+++++..           ",
"    .++++.       ..+++++.     .....    ..       ",
"     .++.          .+++++.            .++.      ",
"      ..            .+++++.          .++++.     ",
"           .....     .+++++..       .+++++.     ",
"         ..+++++..    .++++++.     .+++++.      ",
"        .+++++++++..   .++++++.....+++++.       ",
"       .++++++++++++.   .++++++++++++++.        ",
"      .++++++++++++++.   .++++++++++++.         ",
"     .+++++.....++++++.   ..+++++++++.          ",
"    .+++++.     .++++++.    ..+++++..           ",
"    .++++.       ..+++++.     .....    ..       ",
"     .++.          .+++++.            .++.      ",
"      ..            .+++++.          .++++.     ",
"                     .+++++..       .+++++.     ",
"                      .++++++.     .+++++.      ",
"                       .++++++.....+++++.       ",
"                        .++++++++++++++.        ",
"                         .++++++++++++.         ",
"                          ..+++++++++.          ",
"                            ..+++++..           ",
"                              .....             ",
"                                                ",
"                                                ",
"                                                ",
"                                                ",
"                                                "};
