/* XPM */
static char * rain_mini_xpm[] = {
"16 16 69 1",
" 	c None",
".	c #000000",
"+	c #D8DCD9",
"@	c #CED3CF",
"#	c #E4E5E4",
"$	c #D8D8D8",
"%	c #CDCDCD",
"&	c #D2D3D2",
"*	c #DADCDA",
"=	c #E3E4E3",
"-	c #E0E0E0",
";	c #D9D9D9",
">	c #E1E1E1",
",	c #E2E2E2",
"'	c #DBDBDB",
")	c #D3D3D3",
"!	c #DEDEDE",
"~	c #D1D1D1",
"{	c #D6D6D6",
"]	c #DADADA",
"^	c #F2F2F2",
"/	c #FAFAFA",
"(	c #F4F4F4",
"_	c #F6F6F6",
":	c #FBFBFB",
"<	c #F7F7F7",
"[	c #F1F1F1",
"}	c #F0F0F0",
"|	c #F8F8F8",
"1	c #E6E6E6",
"2	c #CFCFCF",
"3	c #ECECEC",
"4	c #FCFCFC",
"5	c #F5F5F5",
"6	c #FDFDFD",
"7	c #FEFEFE",
"8	c #EBEBEB",
"9	c #D4D5D4",
"0	c #DDDDDD",
"a	c #EAEAEA",
"b	c #E7E7E7",
"c	c #D7D7D7",
"d	c #E5E5E5",
"e	c #EDEDED",
"f	c #E9E9E9",
"g	c #BBBBBB",
"h	c #C7CBC8",
"i	c #C0C1C0",
"j	c #CECECE",
"k	c #C8C8C8",
"l	c #AAAAAA",
"m	c #AFAFAF",
"n	c #C9C9C9",
"o	c #CACACA",
"p	c #9FA09F",
"q	c #ABADAB",
"r	c #C6CAC7",
"s	c #B7BAB7",
"t	c #B8BBB9",
"u	c #C4C8C5",
"v	c #C0C4C1",
"w	c #AFB1B0",
"x	c #B5B7B6",
"y	c #AFB0AF",
"z	c #A1A2A1",
"A	c #B3B6B4",
"B	c #C6CAC6",
"C	c #7AFFF6",
"D	c #3D7489",
"       ...      ",
"      .++@.     ",
"  ....#$%&*...  ",
" .=$-.;>,'.)!~. ",
".{]^/(_::<[}|12.",
".~34455:6764<8{.",
".90abccde55f]~g.",
".hijklmn~ccompq.",
" .rsqtuvwxyzAB. ",
"  ............CD",
"   CD      CDCD ",
"  CD   CD CD    ",
"      CD     CD ",
"    CD   CD CD  ",
"   CD   CD      ",
"                "};
