/* XPM */
static char * rain_mini_xpm[] = {
"16 16 81 1",
" 	c None",
".	c #CFD4D0",
"+	c #D8DCD9",
"@	c #CED3CF",
"#	c #D7DBD8",
"$	c #E2E4E3",
"%	c #D6D9D7",
"&	c #CCD0CC",
"*	c #D1D5D2",
"=	c #DDE0DD",
"-	c #D0D5D1",
";	c #DEE1DE",
">	c #DFDFDF",
",	c #D2D2D2",
"'	c #DBDBDB",
")	c #DCDCDC",
"!	c #D1D1D1",
"~	c #D6D6D6",
"{	c #DADBDA",
"]	c #E2E3E2",
"^	c #D4D4D4",
"/	c #CFD0CF",
"(	c #C7CBC7",
"_	c #D3D8D4",
":	c #E8E9E9",
"<	c #D9D9D9",
"[	c #EBEBEB",
"}	c #E0E0E0",
"|	c #E3E3E3",
"1	c #ECECEC",
"2	c #EDEDED",
"3	c #E5E5E5",
"4	c #E8E8E8",
"5	c #C0C2C1",
"6	c #CCD0CD",
"7	c #E1E3E2",
"8	c #E4E4E4",
"9	c #F8F8F8",
"0	c #FDFDFD",
"a	c #F9F9F9",
"b	c #FAFAFA",
"c	c #FCFCFC",
"d	c #F7F7F7",
"e	c #EEEEEE",
"f	c #C1C3C1",
"g	c #D0D4D1",
"h	c #FBFBFB",
"i	c #EFEFEF",
"j	c #E1E1E1",
"k	c #D3D3D3",
"l	c #A6A7A7",
"m	c #D0D1D0",
"n	c #DDDDDD",
"o	c #E2E2E2",
"p	c #BBBBBB",
"q	c #AAAAAA",
"r	c #ACAEAC",
"s	c #CACECB",
"t	c #BABDBB",
"u	c #BFC0BF",
"v	c #B5B6B5",
"w	c #9E9F9E",
"x	c #A8AAA8",
"y	c #C0C0C0",
"z	c #D0D0D0",
"A	c #B6B6B6",
"B	c #A1A2A1",
"C	c #B9BDBA",
"D	c #C9CDCA",
"E	c #CBD0CC",
"F	c #C3C7C4",
"G	c #BABEBB",
"H	c #C4C8C4",
"I	c #BCC0BD",
"J	c #B2B5B3",
"K	c #A9ABA9",
"L	c #ADB0AE",
"M	c #C0C4C1",
"N	c #CDD2CE",
"O	c #CCD1CD",
"P	c #3D7489",
"...++@#$%&@*=-@.",
"..;>,')!!~{]^/(@",
"_:<>[}|123)'4^56",
"7!890ab00c9dce^f",
"g![a922dh00aijkl",
"@m^>n!!'o12>kpqr",
".stuvwxuyz!ABrCD",
".@EFGHEDIJKLM6@@",
"...@@@..@NOO@...",
"........P.....P.",
"...P....P..P..P.",
"...P..P....P....",
"......P......P..",
"....P....P...P..",
"....P....P......",
"................"};
