/* XPM */
static char * rain_xpm[] = {
"48 48 361 2",
"  	c None",
". 	c #0E0E0E",
"+ 	c #424242",
"@ 	c #383838",
"# 	c #000000",
"$ 	c #282828",
"% 	c #373737",
"& 	c #CBCBCB",
"* 	c #EEEEEE",
"= 	c #F3F3F3",
"- 	c #D4D4D4",
"; 	c #484848",
"> 	c #101010",
", 	c #040404",
"' 	c #8C8C8C",
") 	c #F4F4F4",
"! 	c #F5F5F5",
"~ 	c #F1F1F1",
"{ 	c #E2E2E2",
"] 	c #D7D7D7",
"^ 	c #F8F8F8",
"/ 	c #FBFBFB",
"( 	c #3F3F3F",
"_ 	c #121212",
": 	c #1C1D1C",
"< 	c #A4A4A4",
"[ 	c #ECECEC",
"} 	c #EFEFEF",
"| 	c #E3E3E3",
"1 	c #D9D9D9",
"2 	c #D7DBD8",
"3 	c #CED3CF",
"4 	c #B8BCB9",
"5 	c #212121",
"6 	c #595959",
"7 	c #575757",
"8 	c #363636",
"9 	c #393939",
"0 	c #454545",
"a 	c #323232",
"b 	c #0B0B0B",
"c 	c #060606",
"d 	c #8E8F8E",
"e 	c #F2F2F2",
"f 	c #F0F0F0",
"g 	c #F7F7F7",
"h 	c #E5E5E5",
"i 	c #D2D2D2",
"j 	c #C5C5C5",
"k 	c #BFBFBF",
"l 	c #CACFCB",
"m 	c #CCD1CD",
"n 	c #CDD2CE",
"o 	c #404140",
"p 	c #020202",
"q 	c #262626",
"r 	c #3A3A3A",
"s 	c #434343",
"t 	c #292929",
"u 	c #202020",
"v 	c #353535",
"w 	c #B2B2B2",
"x 	c #E8E8E8",
"y 	c #EBEBEB",
"z 	c #E6E6E6",
"A 	c #DFE0DF",
"B 	c #4A4B4A",
"C 	c #EDEDED",
"D 	c #DDDDDD",
"E 	c #CECECE",
"F 	c #CFCFCF",
"G 	c #EBEDEC",
"H 	c #E5E7E6",
"I 	c #DDE0DE",
"J 	c #D2D6D2",
"K 	c #818481",
"L 	c #535454",
"M 	c #BBBBBB",
"N 	c #E7E7E7",
"O 	c #D5D5D5",
"P 	c #BDBDBD",
"Q 	c #767676",
"R 	c #2E2E2E",
"S 	c #070707",
"T 	c #B6B6B6",
"U 	c #F6F6F6",
"V 	c #E1E1E1",
"W 	c #D3D3D3",
"X 	c #DADADA",
"Y 	c #D6D6D6",
"Z 	c #777777",
"` 	c #E9E9E9",
" .	c #DCDCDC",
"..	c #E4E4E4",
"+.	c #B9BDB9",
"@.	c #A2A3A2",
"#.	c #F9F9F9",
"$.	c #CACACA",
"%.	c #9A9A9A",
"&.	c #828382",
"*.	c #303030",
"=.	c #FCFCFC",
"-.	c #DBDBDB",
";.	c #D0D0D0",
">.	c #C6C6C6",
",.	c #828282",
"'.	c #CDCDCD",
").	c #979897",
"!.	c #FAFAFA",
"~.	c #B7B9B7",
"{.	c #7F827F",
"].	c #1F1F1F",
"^.	c #0C0C0C",
"/.	c #D8D8D8",
"(.	c #DEDEDE",
"_.	c #BABABA",
":.	c #E0E0E0",
"<.	c #A8AAA9",
"[.	c #ADAFAD",
"}.	c #707371",
"|.	c #0A0A0A",
"1.	c #626262",
"2.	c #EAEAEA",
"3.	c #DFDFDF",
"4.	c #D1D1D1",
"5.	c #ADAFAE",
"6.	c #ACAFAD",
"7.	c #5A5C5B",
"8.	c #111111",
"9.	c #AFAFAF",
"0.	c #B8BBB9",
"a.	c #A0A3A0",
"b.	c #323332",
"c.	c #545554",
"d.	c #BEC1BE",
"e.	c #7E817E",
"f.	c #080808",
"g.	c #111211",
"h.	c #C1C1C1",
"i.	c #FEFEFE",
"j.	c #FDFDFD",
"k.	c #CCCCCC",
"l.	c #B1B3B1",
"m.	c #7A7D7A",
"n.	c #090909",
"o.	c #050505",
"p.	c #FFFFFF",
"q.	c #C9C9C9",
"r.	c #B1B2B1",
"s.	c #A3A5A4",
"t.	c #1E1F1F",
"u.	c #010101",
"v.	c #C4C4C4",
"w.	c #C0C0C0",
"x.	c #A3A3A3",
"y.	c #999B9A",
"z.	c #0A0B0B",
"A.	c #A5A5A5",
"B.	c #CACBCA",
"C.	c #B8B8B8",
"D.	c #9B9C9C",
"E.	c #979797",
"F.	c #EDEEED",
"G.	c #CCCDCC",
"H.	c #C3C3C3",
"I.	c #B4B4B4",
"J.	c #A0A0A0",
"K.	c #989898",
"L.	c #969696",
"M.	c #9A9B9A",
"N.	c #C8C8C8",
"O.	c #C2C2C2",
"P.	c #BCBCBC",
"Q.	c #AAABAA",
"R.	c #A6A6A6",
"S.	c #989998",
"T.	c #A1A2A1",
"U.	c #929392",
"V.	c #A1A4A2",
"W.	c #E5E6E5",
"X.	c #C2C3C2",
"Y.	c #C4C5C4",
"Z.	c #B1B1B1",
"`.	c #B3B3B3",
" +	c #A6A7A7",
".+	c #9D9E9D",
"++	c #9D9F9D",
"@+	c #9FA09F",
"#+	c #ACAEAC",
"$+	c #808280",
"%+	c #030303",
"&+	c #848684",
"*+	c #BBBCBB",
"=+	c #C7C7C7",
"-+	c #E1E2E1",
";+	c #B7B7B7",
">+	c #A8A9A8",
",+	c #A9AAA9",
"'+	c #A4A5A5",
")+	c #9E9F9E",
"!+	c #9C9D9C",
"~+	c #9FA19F",
"{+	c #AAACAB",
"]+	c #AEB1AF",
"^+	c #4A4C4A",
"/+	c #454745",
"(+	c #9FA1A0",
"_+	c #C0C2C0",
":+	c #ADADAD",
"<+	c #D5D6D5",
"[+	c #DADBDA",
"}+	c #D8D9D8",
"|+	c #ACACAC",
"1+	c #9C9C9C",
"2+	c #A3A4A3",
"3+	c #A0A1A0",
"4+	c #A8ABA8",
"5+	c #B6B8B6",
"6+	c #868987",
"7+	c #181918",
"8+	c #070808",
"9+	c #717472",
"0+	c #B5B6B5",
"a+	c #ACADAC",
"b+	c #D2D3D2",
"c+	c #CACCCA",
"d+	c #D0D2D0",
"e+	c #CDCFCD",
"f+	c #D4D5D4",
"g+	c #D7D8D7",
"h+	c #DEDFDE",
"i+	c #A2A2A2",
"j+	c #9B9B9B",
"k+	c #A4A5A4",
"l+	c #A6A7A6",
"m+	c #AFB2AF",
"n+	c #BBBEBC",
"o+	c #9DA09E",
"p+	c #282928",
"q+	c #2A2C2B",
"r+	c #7A7D7B",
"s+	c #ADB1AE",
"t+	c #B4B7B5",
"u+	c #B0B3B1",
"v+	c #ADB0AE",
"w+	c #AEAEAE",
"x+	c #ABABAB",
"y+	c #B3B4B3",
"z+	c #B6B7B6",
"A+	c #BCBEBC",
"B+	c #B8BAB8",
"C+	c #B4B7B4",
"D+	c #C3C5C3",
"E+	c #C7C9C7",
"F+	c #C5C6C5",
"G+	c #C7C8C8",
"H+	c #CDCECD",
"I+	c #999A99",
"J+	c #9E9E9E",
"K+	c #9EA09E",
"L+	c #A7A9A8",
"M+	c #B3B6B3",
"N+	c #B9BDBA",
"O+	c #AFB3B0",
"P+	c #2D2E2E",
"Q+	c #787B79",
"R+	c #B1B5B2",
"S+	c #B7BBB8",
"T+	c #B5B8B6",
"U+	c #B0B4B1",
"V+	c #A6A8A6",
"W+	c #A3A5A3",
"X+	c #A0A2A0",
"Y+	c #9C9E9C",
"Z+	c #989B99",
"`+	c #AAACAA",
" @	c #ABADAB",
".@	c #A0A3A1",
"+@	c #B9BCBA",
"@@	c #B0B1B0",
"#@	c #AEAFAE",
"$@	c #ADAEAD",
"%@	c #ABACAB",
"&@	c #999999",
"*@	c #969796",
"=@	c #A4A6A4",
"-@	c #ADB0AD",
";@	c #BFC3C0",
">@	c #A7ABA8",
",@	c #494B49",
"'@	c #757875",
")@	c #ABAFAC",
"!@	c #BABEBB",
"~@	c #B2B6B3",
"{@	c #A1A4A1",
"]@	c #8F928F",
"^@	c #8B8E8C",
"/@	c #848784",
"(@	c #858885",
"_@	c #8D908E",
":@	c #9CA09D",
"<@	c #A5A7A6",
"[@	c #A3A7A4",
"}@	c #A2A5A3",
"|@	c #A0A2A1",
"1@	c #9D9F9E",
"2@	c #9A9E9B",
"3@	c #989A98",
"4@	c #949795",
"5@	c #949694",
"6@	c #9A9D9B",
"7@	c #999C9A",
"8@	c #9A9C9B",
"9@	c #929493",
"0@	c #8C8E8C",
"a@	c #969997",
"b@	c #A1A3A1",
"c@	c #A2A5A2",
"d@	c #A5A8A5",
"e@	c #AAADAA",
"f@	c #B5B9B6",
"g@	c #C4C9C5",
"h@	c #242525",
"i@	c #7B7E7C",
"j@	c #999D9A",
"k@	c #989D99",
"l@	c #848885",
"m@	c #5F6260",
"n@	c #6C6F6D",
"o@	c #787C79",
"p@	c #828683",
"q@	c #8F9390",
"r@	c #989C99",
"s@	c #9B9E9B",
"t@	c #939793",
"u@	c #888B88",
"v@	c #797D7A",
"w@	c #7D807D",
"x@	c #7F8380",
"y@	c #808381",
"z@	c #858886",
"A@	c #7E807E",
"B@	c #7A7C7A",
"C@	c #939694",
"D@	c #8E928E",
"E@	c #8A8D8A",
"F@	c #818582",
"G@	c #898D8A",
"H@	c #999E9A",
"I@	c #1B1C1B",
"J@	c #010201",
"K@	c #090A09",
"L@	c #141514",
"M@	c #1B1D1B",
"N@	c #3B3D3B",
"O@	c #383938",
"P@	c #1D1D1D",
"Q@	c #282A28",
"R@	c #050605",
"S@	c #7AFFF6",
"T@	c #3D7489",
"                                            . + @ # #                                           ",
"                                        $ % & * = - ; > ,                                       ",
"                                      $ ' ) ! ~ { ] = ^ / ( _                                   ",
"                                    : < [ ! } | 1 2 3 3 3 3 4 5                                 ",
"                6 7 8 9 0 + a b # c d e f g h i j - k l m n 3 3 o   p q r s t                   ",
"            u v w x f ~ f y z A B b | } = C D - E E F h G H I J K L M N x O P Q R S             ",
"          u T x ! U ! f V W F X Y 0 Z V ` 1 F F F F F E Y  ...+.@.N #.= C ] E $.%.&.R           ",
"        *.E ^ =.^ } { -.Y - ;.E E >.,.k D Y Y Y Y Y Y ;.E E '.).f !.) V Y Y O E F ~.{.].        ",
"      ^.< ^ / ) [ /.(.{ { (.1 - - - W $.{ { { { { { { 1 - - _.x ) ! | -.:.{ Y F E <.[.}.|.      ",
"      1.2.= ) h /.(.2.C C 2...3.(.3.{ ` C * * * * * * ..3.(.:.y C V { z [ z 1 4.E D 5.6.7.#     ",
"    8.9.C * } D :.2.! g g ! f 2.2.y C = g g g g g g g f y 2.C y [ ..C e g = ..-.4.E Y 0.a.b.    ",
"    c.3.y x N V 2.! / =.=./ #.! ) U g !.=.=.=.=.=.=.=.#.U ) ! ~ f C g #.^ !.* (.] 4.E 4.d.e.f.  ",
"  g.h.C V h y y U / i.i.i.i.=./ / =.=.j.i.i.i.i.i.i.i.=.=./ !.#.^ g =.j.) =.#.3./.W '.E k.l.m.n.",
"  o.1 Y /.z * U / i.i.i.j.!.#.^ =.=.=.=.j.i.i.i.i.i.p.i.i.j.j.j.=.=.i.i.~ ^ ~ D /.i q.q.E r.s.t.",
"  u.$.'.Y h } g =.i.i.i.j.^ U ) ) U g #./ j.i.i.i.i.i.i.i.i.i.i.i.i.=.j.C e N i X F v.w.'.x.y.z.",
"  # A.E W { ~ ^ !.=.=.=./ = ! g ^ g U #.!.#./ =.=.=.i.i.i.i.i.i.=.!.#.} h C D B.O '.P C.w D.E.# ",
"  # & & i { e ~ ) g g g ) f ) = ^ U #.#.F.* U ^ g #./ =.=.=.#.U U g ! y (.(.G.H.$.v.I.9.J.K.L.# ",
"  # M.N.E /.` 2.C * f e } f e f ) g ~ F.N x f ) ) U #.!./ #.#.g ) f ~ V W ;.O.M P.T Q.R.S.T.U.# ",
"  # V.q.$.;. ...C * f * [ [ = ~ f ` h W.A z ~ = e = U ^ ^ U !.! ~ 2.V E X.Y.C.Z.`. +.+++@+#+$+%+",
"  # &+*+k.=+;.-.y 2.2.} y ` x z ` N -+A A W.~ = } y e e ! = } x | (.E P.M ;+>+,+'+)+!+~+{+]+^+  ",
"    /+(+_+:+E E - { V x | | ] ..h <+[+}+[+-+x ..V ..N ` x 2.{ V /.F P |+Z.1+T.2+3+@+@.4+5+6+7+  ",
"    8+9+]+0.0+a+_.W D ] j '.<+b+Y.c+d+e+f+g+h+X 1 g+] i - -./.Y H.9.1+i+x.j+T.@.k+l+m+n+o+p+    ",
"      q+r+s+t+u+v+w+r.x+3+k+y+z+y+A+B+C+D+E+f+G.F+G+k.k.H+E v.`.A.M.I+J+K+@.Q.L+Q.M+N+O+R       ",
"        P+Q+R+S+T+U+#+V+W+~+X+Y+Z+`+ @.@u++@@@#@#@$@@@%@k+!+I+&@E.*@!+T.=@<. @-@C+;@>@,@        ",
"          5 '@)@O+!@~@{@]@^@6+/@(@_@:@<@[@}@|@1@2@3@4@5@6@7@8@9@0@a@b@W+c@d@e@O+f@g@@           ",
"            ].h@i@j@k@l@7.m@m@n@9+o@p@q@r@s@t@u@v@w@x@v@y@z@A@B@$+C@D@E@$+F@G@H@I@u.            ",
"                # # # # # # # J@K@L@8+# # # # # # # o.n.: M@N@O@: P@Q@R@# # # #                 ",
"                    S@T@          S@T@                              S@T@    S@T@                ",
"                  S@T@                              S@T@          S@T@                          ",
"                  S@T@                            S@T@            S@T@      T@                  ",
"                            S@T@                  S@T@                    S@                    ",
"                          S@T@                              S@          S@T@                    ",
"                          S@T@            S@T@            S@T@          S@T@                    ",
"                                        S@T@              S@T@                                  ",
"                S@T@                    S@T@                                    S@T@            ",
"              S@T@                S@T@                            S@T@        S@T@              ",
"              S@T@              S@T@            S@T@            S@T@          S@T@              ",
"                                S@T@          S@T@              S@T@                            ",
"                                              S@T@                                              ",
"                        S@T@                                                                    ",
"                      S@T@                                S@T@                                  ",
"                      S@T@            S@T@              S@T@              S@T@                  ",
"                                    S@T@                S@T@            S@T@                    ",
"                                    S@T@                                S@T@                    ",
"                                                                                                ",
"                                                                                                ",
"                                                                                                ",
"                                                                                                "};
