/* XPM */
static char * rain_xpm[] = {
"48 48 180 2",
"  	c None",
". 	c #D8DCD9",
"+ 	c #F0F1F0",
"@ 	c #FDFDFD",
"# 	c #EFF1F0",
"$ 	c #D7DBD8",
"% 	c #CED3CF",
"& 	c #EBEDEB",
"* 	c #FFFFFF",
"= 	c #F1F1F1",
"- 	c #D5D5D5",
"; 	c #C5C5C5",
"> 	c #D4D4D4",
", 	c #BFBFBF",
"' 	c #CACFCB",
") 	c #CCD1CD",
"! 	c #CDD2CE",
"~ 	c #E1E4E2",
"{ 	c #F7F7F7",
"] 	c #F6F7F7",
"^ 	c #E1E4E1",
"/ 	c #F2F2F2",
"( 	c #DDDDDD",
"_ 	c #CFCFCF",
": 	c #DCDCDC",
"< 	c #E2E2E2",
"[ 	c #EDEFED",
"} 	c #F4F5F4",
"| 	c #E1E1E1",
"1 	c #CECECE",
"2 	c #E5E5E5",
"3 	c #EBEDEC",
"4 	c #E5E7E6",
"5 	c #DDE0DE",
"6 	c #D3D7D3",
"7 	c #EAEAEA",
"8 	c #D6D6D6",
"9 	c #D7D7D7",
"0 	c #CBCFCC",
"a 	c #CCD0CD",
"b 	c #DADADA",
"c 	c #E4E4E4",
"d 	c #ECECEC",
"e 	c #F6F6F6",
"f 	c #C8C8C8",
"g 	c #C4C8C4",
"h 	c #C9CDCA",
"i 	c #F3F4F3",
"j 	c #D0D0D0",
"k 	c #D3D3D3",
"l 	c #D1D1D1",
"m 	c #B6B9B6",
"n 	c #C0C4C1",
"o 	c #CACECA",
"p 	c #DCDFDD",
"q 	c #D9D9D9",
"r 	c #DEDEDE",
"s 	c #D2D2D2",
"t 	c #DBDBDB",
"u 	c #E0E0E0",
"v 	c #A8AAA9",
"w 	c #C4C8C5",
"x 	c #CBD0CC",
"y 	c #F2F3F2",
"z 	c #EFEFEF",
"A 	c #EDEDED",
"B 	c #DFDFDF",
"C 	c #E9E9E9",
"D 	c #EEEEEE",
"E 	c #D8D8D8",
"F 	c #E6E6E6",
"G 	c #ADAFAE",
"H 	c #BDC1BE",
"I 	c #C9CECA",
"J 	c #F8F8F8",
"K 	c #F5F5F5",
"L 	c #F0F0F0",
"M 	c #EBEBEB",
"N 	c #F3F3F3",
"O 	c #E8E8E8",
"P 	c #E3E3E3",
"Q 	c #B8BBB9",
"R 	c #C5C9C6",
"S 	c #FBFBFB",
"T 	c #FCFCFC",
"U 	c #F9F9F9",
"V 	c #F4F4F4",
"W 	c #FAFAFA",
"X 	c #BCBFBC",
"Y 	c #FEFEFE",
"Z 	c #CCCCCC",
"` 	c #BABDBB",
" .	c #C5C9C5",
"..	c #ACAFAD",
"+.	c #B8BBB8",
"@.	c #A0A1A0",
"#.	c #C7C7C7",
"$.	c #989898",
"%.	c #9E9F9E",
"&.	c #CDCDCD",
"*.	c #959595",
"=.	c #E7E7E7",
"-.	c #CBCBCB",
";.	c #949594",
">.	c #979897",
",.	c #D0D4D1",
"'.	c #ACAEAC",
").	c #B3B3B3",
"!.	c #949494",
"~.	c #969696",
"{.	c #989998",
"].	c #9B9B9B",
"^.	c #A1A2A1",
"/.	c #ABADAC",
"(.	c #BABDBA",
"_.	c #BFC2BF",
":.	c #ADADAD",
"<.	c #929292",
"[.	c #979797",
"}.	c #9F9F9F",
"|.	c #9D9E9E",
"1.	c #A2A3A2",
"2.	c #A6A7A6",
"3.	c #AFB1AF",
"4.	c #C7CBC8",
"5.	c #BBBFBC",
"6.	c #AFB2B0",
"7.	c #A5A7A6",
"8.	c #BDBDBD",
"9.	c #969796",
"0.	c #9C9D9C",
"a.	c #A4A6A5",
"b.	c #C2C2C2",
"c.	c #A4A5A4",
"d.	c #B4B7B5",
"e.	c #B8BCB9",
"f.	c #C6CAC7",
"g.	c #BEC2BF",
"h.	c #B6B9B7",
"i.	c #AEB0AE",
"j.	c #A7A9A7",
"k.	c #9B9C9B",
"l.	c #9A9B9A",
"m.	c #9C9C9C",
"n.	c #A0A2A1",
"o.	c #ABADAB",
"p.	c #B3B5B3",
"q.	c #B9BCBA",
"r.	c #B5B8B6",
"s.	c #ADB0AE",
"t.	c #9D9E9D",
"u.	c #AAAAAA",
"v.	c #A1A1A1",
"w.	c #BDC0BD",
"x.	c #C6CBC7",
"y.	c #CACECB",
"z.	c #B2B5B3",
"A.	c #A9ABA9",
"B.	c #AAACAB",
"C.	c #B1B3B1",
"D.	c #C2C6C3",
"E.	c #C7CCC8",
"F.	c #BCC0BD",
"G.	c #B3B6B4",
"H.	c #A3A4A3",
"I.	c #999A99",
"J.	c #999999",
"K.	c #A2A4A3",
"L.	c #B5B8B5",
"M.	c #C2C6C2",
"N.	c #C8CDC9",
"O.	c #C3C7C4",
"P.	c #BBBEBC",
"Q.	c #ADAFAD",
"R.	c #A7A8A7",
"S.	c #A8AAA8",
"T.	c #ACAEAD",
"U.	c #BFC3C0",
"V.	c #C8CCC9",
"W.	c #3D7489",
"                                                                                                ",
"                                          . + @ @ # $ % % %                                     ",
"                  . + @ @ # $ % % %   & * * = - ; ; > , ' ) ! %       ~ { * ] ^ % % %           ",
"                . @ / ( _ _ : < [ } * * | 1 1 1 1 1 1 _ 2 3 4 5 6 % @ * 7 8 1 8 9 0 a ) %       ",
"                + / _ 1 1 1 1 1 b ( 9 1 1 _ _ _ _ _ _ _ 1 8 : c d e * _ 1 1 _ 1 1 f g h ! %     ",
"            . i * ( 1 > 8 8 > j 1 1 1 _ k 8 8 8 8 8 8 8 j 1 1 1 1 1 1 1 l - 8 - 1 _ m n o !     ",
"        p @ * / q 1 > r < < r q > > > 8 ( < < < < < < < q > > s l _ _ 8 t u < 8 _ 1 v m w x     ",
"      y * z _ 1 1 > r 7 A A 7 c B r B < C A D D D D D D c B r : b E 8 < F d 2 q l 1 ( G H I !   ",
"    J * t 1 1 j > r 7 K { { K L 7 7 M A N { { { { { { { L M 7 O 2 P < A / e = 2 q l 1 8 Q R a ! ",
"  3 * > 1 l 8 q B 7 K S T T S U K V e { W T T T T T T T U e V N = z A { U T U = 2 q l 1 l X R x ",
"  T b 1 _ 8 < c M K S Y Y Y Y T S S T T @ Y Y Y Y Y Y Y T T S W U J { T @ Y @ S V C ( k 1 Z `  .",
"  T ; 1 _ 8 < D K S Y Y Y Y Y T T T T T T @ Y Y Y Y Y * Y Y @ @ @ T T Y Y T T { { A < 8 1 1 ..+.",
"  & ; 1 _ 8 < D { T Y Y Y @ T { { { { { J S @ Y Y Y Y Y Y Y Y Y Y Y Y T T { e D D A < 8 1 1 @.v ",
"  ! 9 1 _ 8 < D { U T T T S { D D D D D z V U T T T T Y Y Y Y Y Y T T { { D A < < < ( k 1 #.$.%.",
"  ! ' > 1 - u M D / { { { V D < < < < < P C N { { { U S T T T T T J { D D < | 8 8 8 > 1 &.*.$.%.",
"  % x + 1 _ 8 B < F D D D C < 8 8 8 8 8 9 ( =.D D D L e { { { { { L D < < 8 8 _ _ _ 1 -.;.>.@.v ",
"  % ! ,.8 1 j > 8 t < < < ( 8 _ _ _ _ _ _ k t < < < c M D D D D D c < 8 8 _ 1 1 1 1 1 *.>.@.'.+.",
"    % x ).l 1 1 _ l 8 8 8 k _ 1 1 1 1 1 1 1 l 8 8 8 q B < < < < < E 8 _ _ 1 &.!.;.~.{.].^./.(.g ",
"      ! h _.:.1 1 1 _ _ _ 1 1 <.*.[.$.{.}._ 1 _ _ _ j > 8 8 8 8 8 j _ 1 1 !.~.$.|.1.2.v 3.` R x ",
"      % x 4.5.6.7.8.1 1 1 #.!.9.0.^.a.2.2.7.b.1 &.1 1 1 _ _ _ _ _ 1 1 !.;.{.|.c.'.d.e.5.n f.) % ",
"        % x f.g.h.i.j.^.k.l.m.n.o.p.q.(.(.e.r.s.c.t.u.Z 1 1 1 1 1 v.;.{.t.c.'.r.w.g x.h y.) !   ",
"          ! x h w _.e.z./.A.B.C.(.D.x.E.E.E.g F.G.'.j.a.H.%.].I.J.I.0.K./.L.H  .o a ! ! % %     ",
"            % ! x I x.D.g.X H M.x.x ! ! ! ! x N.O.g.P.Q G.Q.A.R.j.S.T.d.w.O.N.a ! %             ",
"                % ! ) x I h I x ! %           ! a ' h E.O.U.w.P.P.5._.w N.x ! %                 ",
"                      % % ! ! %                   % % ! x ' I N.N.V.y.a ) %                     ",
"                                    W.                  % % ! ! ! ! % %       W.                ",
"                                    W.                                        W.                ",
"                    W.              W.                              W.        W.                ",
"                    W.                              W.              W.                          ",
"                    W.                              W.              W.                          ",
"                            W.                      W.                    W.                    ",
"                            W.                              W.            W.                    ",
"                            W.            W.                W.            W.                    ",
"                                          W.                W.                                  ",
"                W.                        W.                                    W.              ",
"                W.                W.                              W.            W.              ",
"                W.                W.            W.                W.            W.              ",
"                                  W.            W.                W.                            ",
"                                                W.                                              ",
"                        W.                                                                      ",
"                        W.                                W.                                    ",
"                        W.            W.                  W.              W.                    ",
"                                      W.                  W.              W.                    ",
"                                      W.                                  W.                    ",
"                                                                                                ",
"                                                                                                ",
"                                                                                                ",
"                                                                                                "};
