/* XPM */
static char * rain_mini_xpm[] = {
"16 16 79 1",
" 	c None",
".	c #D8DCD9",
"+	c #CED3CF",
"@	c #E2E4E3",
"#	c #D6D9D7",
"$	c #CCD0CC",
"%	c #D1D5D2",
"&	c #DDE0DD",
"*	c #D0D5D1",
"=	c #DEE1DE",
"-	c #DFDFDF",
";	c #D2D2D2",
">	c #DBDBDB",
",	c #DCDCDC",
"'	c #D1D1D1",
")	c #D6D6D6",
"!	c #DADBDA",
"~	c #E2E3E2",
"{	c #D4D4D4",
"]	c #CFD0CF",
"^	c #C7CBC7",
"/	c #D3D8D4",
"(	c #E8E9E9",
"_	c #D9D9D9",
":	c #EBEBEB",
"<	c #E0E0E0",
"[	c #E3E3E3",
"}	c #ECECEC",
"|	c #EDEDED",
"1	c #E5E5E5",
"2	c #E8E8E8",
"3	c #C0C2C1",
"4	c #CCD0CD",
"5	c #E1E3E2",
"6	c #E4E4E4",
"7	c #F8F8F8",
"8	c #FDFDFD",
"9	c #F9F9F9",
"0	c #FAFAFA",
"a	c #FCFCFC",
"b	c #F7F7F7",
"c	c #EEEEEE",
"d	c #C1C3C1",
"e	c #D0D4D1",
"f	c #FBFBFB",
"g	c #EFEFEF",
"h	c #E1E1E1",
"i	c #D3D3D3",
"j	c #A6A7A7",
"k	c #D0D1D0",
"l	c #DDDDDD",
"m	c #E2E2E2",
"n	c #BBBBBB",
"o	c #AAAAAA",
"p	c #ACAEAC",
"q	c #CACECB",
"r	c #BABDBB",
"s	c #BFC0BF",
"t	c #B5B6B5",
"u	c #9E9F9E",
"v	c #A8AAA8",
"w	c #C0C0C0",
"x	c #D0D0D0",
"y	c #B6B6B6",
"z	c #A1A2A1",
"A	c #B9BDBA",
"B	c #C9CDCA",
"C	c #CBD0CC",
"D	c #C3C7C4",
"E	c #BABEBB",
"F	c #C4C8C4",
"G	c #BCC0BD",
"H	c #B2B5B3",
"I	c #A9ABA9",
"J	c #ADB0AE",
"K	c #C0C4C1",
"L	c #CDD2CE",
"M	c #CCD1CD",
"N	c #3D7489",
"   ..+ @#$+%&*+ ",
"  =-;>,'')!~{]^+",
"/(_-:<[}|1,>2{34",
"5'6789088a7bac{d",
"e':97||bf889ghij",
"+k{-l''>m}|-inop",
" qrstuvswx'yzpAB",
" +CDEFCBGHIJK4+ ",
"   +++  +LMM+   ",
"        N     N ",
"   N    N  N  N ",
"   N  N    N    ",
"      N      N  ",
"    N    N   N  ",
"    N    N      ",
"                "};
