/* XPM */
static char * snow_xpm[] = {
"48 48 369 2",
"  	c None",
". 	c #111111",
"+ 	c #474747",
"@ 	c #3B3B3B",
"# 	c #000000",
"$ 	c #282828",
"% 	c #404140",
"& 	c #CCCCCC",
"* 	c #EEEEEE",
"= 	c #F4F4F4",
"- 	c #D4D4D4",
"; 	c #4B4B4B",
"> 	c #363736",
", 	c #1E1E1E",
"' 	c #616161",
") 	c #9B9B9B",
"! 	c #F5F5F5",
"~ 	c #F1F1F1",
"{ 	c #E2E2E2",
"] 	c #D7D7D7",
"^ 	c #F2F2F2",
"/ 	c #F7F7F7",
"( 	c #FAFAFA",
"_ 	c #515151",
": 	c #3F403F",
"< 	c #606160",
"[ 	c #A8A8A8",
"} 	c #ECECEC",
"| 	c #EFEFEF",
"1 	c #E3E3E3",
"2 	c #D9D9D9",
"3 	c #D7DBD8",
"4 	c #CED3CF",
"5 	c #B8BCB9",
"6 	c #3A3A3A",
"7 	c #989998",
"8 	c #707070",
"9 	c #696969",
"0 	c #535353",
"a 	c #4F4F4F",
"b 	c #494949",
"c 	c #373737",
"d 	c #151515",
"e 	c #6A6A6A",
"f 	c #434343",
"g 	c #8F908F",
"h 	c #F0F0F0",
"i 	c #E5E5E5",
"j 	c #D2D2D2",
"k 	c #C5C5C5",
"l 	c #BFBFBF",
"m 	c #CACFCB",
"n 	c #CCD1CD",
"o 	c #CDD2CE",
"p 	c #868686",
"q 	c #2E2E2E",
"r 	c #3C3C3C",
"s 	c #444444",
"t 	c #4E4F4E",
"u 	c #404040",
"v 	c #B4B4B4",
"w 	c #E8E8E8",
"x 	c #EBEBEB",
"y 	c #E6E6E6",
"z 	c #DFE0DF",
"A 	c #616261",
"B 	c #303030",
"C 	c #F3F3F3",
"D 	c #EDEDED",
"E 	c #DDDDDD",
"F 	c #CECECE",
"G 	c #CFCFCF",
"H 	c #EBEDEC",
"I 	c #E5E7E6",
"J 	c #DDE0DE",
"K 	c #D2D6D2",
"L 	c #8F918F",
"M 	c #737474",
"N 	c #E7E7E7",
"O 	c #D5D5D5",
"P 	c #BDBDBD",
"Q 	c #777777",
"R 	c #595959",
"S 	c #5C5C5C",
"T 	c #B9B9B9",
"U 	c #E9E9E9",
"V 	c #F6F6F6",
"W 	c #E1E1E1",
"X 	c #D3D3D3",
"Y 	c #DADADA",
"Z 	c #4E4E4E",
"` 	c #7C7C7C",
" .	c #D6D6D6",
"..	c #DCDCDC",
"+.	c #E4E4E4",
"@.	c #BABEBA",
"#.	c #A5A6A5",
"$.	c #F9F9F9",
"%.	c #CACACA",
"&.	c #858685",
"*.	c #525252",
"=.	c #F8F8F8",
"-.	c #FCFCFC",
";.	c #DBDBDB",
">.	c #D0D0D0",
",.	c #C6C6C6",
"'.	c #848484",
").	c #C0C0C0",
"!.	c #9A9B9A",
"~.	c #B7B9B7",
"{.	c #858885",
"].	c #404141",
"^.	c #4A4A4A",
"/.	c #A5A5A5",
"(.	c #FBFBFB",
"_.	c #D8D8D8",
":.	c #DEDEDE",
"<.	c #BBBBBB",
"[.	c #E0E0E0",
"}.	c #A8AAA9",
"|.	c #ADAFAD",
"1.	c #787B79",
"2.	c #393A3A",
"3.	c #6D6D6D",
"4.	c #EAEAEA",
"5.	c #DFDFDF",
"6.	c #D1D1D1",
"7.	c #ADAFAE",
"8.	c #ACAFAD",
"9.	c #696B6A",
"0.	c #050505",
"a.	c #313131",
"b.	c #B0B0B0",
"c.	c #B8BBB9",
"d.	c #A1A4A1",
"e.	c #373837",
"f.	c #636363",
"g.	c #BEC1BE",
"h.	c #808380",
"i.	c #121212",
"j.	c #555655",
"k.	c #C1C1C1",
"l.	c #FEFEFE",
"m.	c #FDFDFD",
"n.	c #CDCDCD",
"o.	c #B1B3B1",
"p.	c #7B7D7B",
"q.	c #1B1B1B",
"r.	c #202120",
"s.	c #FFFFFF",
"t.	c #C9C9C9",
"u.	c #B1B2B1",
"v.	c #A2A4A3",
"w.	c #222322",
"x.	c #0D0E0D",
"y.	c #C4C4C4",
"z.	c #A3A3A3",
"A.	c #989A99",
"B.	c #0A0B0B",
"C.	c #060606",
"D.	c #CACBCA",
"E.	c #B8B8B8",
"F.	c #B1B1B1",
"G.	c #9B9C9C",
"H.	c #979797",
"I.	c #040404",
"J.	c #CBCBCB",
"K.	c #EDEEED",
"L.	c #CCCDCC",
"M.	c #C3C3C3",
"N.	c #AEAEAE",
"O.	c #A0A0A0",
"P.	c #989898",
"Q.	c #969696",
"R.	c #C8C8C8",
"S.	c #C2C2C2",
"T.	c #BABABA",
"U.	c #B5B5B5",
"V.	c #A9AAA9",
"W.	c #A6A6A6",
"X.	c #999A99",
"Y.	c #A1A2A1",
"Z.	c #939493",
"`.	c #A1A4A2",
" +	c #C9CACA",
".+	c #E4E5E4",
"++	c #DEDFDE",
"@+	c #C2C3C2",
"#+	c #C3C4C3",
"$+	c #B7B7B7",
"%+	c #B2B2B2",
"&+	c #A5A6A6",
"*+	c #9E9F9E",
"=+	c #9EA09E",
"-+	c #9FA09F",
";+	c #ACAEAC",
">+	c #848684",
",+	c #030303",
"'+	c #BBBCBB",
")+	c #CBCCCC",
"!+	c #C7C7C7",
"~+	c #E0E1E0",
"{+	c #E5E6E5",
"]+	c #B6B6B6",
"^+	c #A8A9A8",
"/+	c #9D9E9D",
"(+	c #9FA19F",
"_+	c #AAACAB",
":+	c #AEB1AF",
"<+	c #5D5F5D",
"[+	c #959996",
"}+	c #454745",
"|+	c #9FA1A0",
"1+	c #C0C2C0",
"2+	c #ADADAD",
"3+	c #D5D6D5",
"4+	c #DBDCDB",
"5+	c #D9DAD9",
"6+	c #DADBDA",
"7+	c #E1E2E1",
"8+	c #BCBCBC",
"9+	c #ABABAB",
"0+	c #9D9D9D",
"a+	c #A2A3A2",
"b+	c #A4A5A4",
"c+	c #A0A1A0",
"d+	c #A8ABA8",
"e+	c #B6B8B6",
"f+	c #8F9290",
"g+	c #616462",
"h+	c #070808",
"i+	c #717472",
"j+	c #B6B7B6",
"k+	c #ACADAC",
"l+	c #D2D3D2",
"m+	c #C4C5C4",
"n+	c #CACCCA",
"o+	c #D0D2D0",
"p+	c #CDCFCD",
"q+	c #D4D5D4",
"r+	c #D7D8D7",
"s+	c #9C9D9C",
"t+	c #A2A3A3",
"u+	c #A4A4A4",
"v+	c #A6A7A6",
"w+	c #AFB2AF",
"x+	c #BBBEBC",
"y+	c #9FA2A0",
"z+	c #626562",
"A+	c #2A2C2B",
"B+	c #7A7D7B",
"C+	c #ADB1AE",
"D+	c #B4B7B5",
"E+	c #B0B3B1",
"F+	c #ADB0AE",
"G+	c #AFAFAF",
"H+	c #B2B3B2",
"I+	c #B4B5B4",
"J+	c #B7B8B7",
"K+	c #B3B4B3",
"L+	c #BDBFBD",
"M+	c #B8BAB8",
"N+	c #B4B7B4",
"O+	c #C4C6C4",
"P+	c #C8CAC8",
"Q+	c #C5C7C5",
"R+	c #C7C8C8",
"S+	c #9B9C9B",
"T+	c #9F9F9F",
"U+	c #AAABAA",
"V+	c #A7A9A8",
"W+	c #B3B6B3",
"X+	c #B9BDBA",
"Y+	c #AFB3B0",
"Z+	c #2D2E2E",
"`+	c #B1B5B2",
" @	c #B7BBB8",
".@	c #B5B8B6",
"+@	c #B0B4B1",
"@@	c #A6A8A6",
"#@	c #A3A5A3",
"$@	c #A0A2A0",
"%@	c #9C9E9C",
"&@	c #999B99",
"*@	c #AAACAA",
"=@	c #ABADAB",
"-@	c #B9BCBA",
";@	c #B0B1B0",
">@	c #AEAFAE",
",@	c #AFB0AF",
"'@	c #9D9F9D",
")@	c #999999",
"!@	c #979897",
"~@	c #A4A6A4",
"{@	c #ADB0AD",
"]@	c #BFC3C0",
"^@	c #A7ABA8",
"/@	c #494B49",
"(@	c #212121",
"_@	c #757875",
":@	c #ABAFAC",
"<@	c #BABEBB",
"[@	c #B2B6B3",
"}@	c #A2A5A2",
"|@	c #8F928F",
"1@	c #8B8E8C",
"2@	c #868A87",
"3@	c #848784",
"4@	c #8C8F8D",
"5@	c #9C9F9D",
"6@	c #A5A7A6",
"7@	c #A3A7A4",
"8@	c #9C9E9D",
"9@	c #9A9D9B",
"0@	c #959896",
"a@	c #959795",
"b@	c #999C9A",
"c@	c #9A9C9B",
"d@	c #939594",
"e@	c #8D8F8D",
"f@	c #969A97",
"g@	c #A1A3A1",
"h@	c #A5A8A5",
"i@	c #AAADAA",
"j@	c #B5B9B6",
"k@	c #C4C9C5",
"l@	c #383838",
"m@	c #1F1F1F",
"n@	c #242525",
"o@	c #7B7E7C",
"p@	c #999D9A",
"q@	c #989D99",
"r@	c #838784",
"s@	c #585A59",
"t@	c #5D605E",
"u@	c #5E615F",
"v@	c #6C6F6D",
"w@	c #707371",
"x@	c #777B78",
"y@	c #8F9390",
"z@	c #989C99",
"A@	c #9B9E9B",
"B@	c #939693",
"C@	c #888B88",
"D@	c #787C79",
"E@	c #7A7D7A",
"F@	c #7E827F",
"G@	c #818482",
"H@	c #858886",
"I@	c #7F817F",
"J@	c #818381",
"K@	c #939694",
"L@	c #8B8E8B",
"M@	c #818582",
"N@	c #898D8A",
"O@	c #999E9A",
"P@	c #1B1C1B",
"Q@	c #010101",
"R@	c #020302",
"S@	c #0B0C0B",
"T@	c #0D0E0E",
"U@	c #070707",
"V@	c #0F0F0F",
"W@	c #272927",
"X@	c #212321",
"Y@	c #464846",
"Z@	c #232423",
"`@	c #202020",
" #	c #060706",
"                                            . + @ # #                                           ",
"                                        $ % & * = - ; > ,                                       ",
"                                      ' ) ! ! ~ { ] ^ / ( _ :                                   ",
"                                    < [ } ! | 1 2 3 4 4 4 4 5 6                                 ",
"                7 8 9 0 a b c d e f g ^ h / i j k - l m n o 4 4 9   p q r s @                   ",
"            t u v w h ~ h x y z A B { | C D E - F F G i H I J K L M l N w O P Q R c             ",
"          S T U ! V ! h W X G Y O Z ` W U 2 G G G G G F  ...+.@.#.N $.C D ] F %.) &.*.          ",
"        0 G =.-.=.| { ;. .- >.F F ,.'.).E  . . . . . .>.F F F !.h ( = W  . .O F G ~.{.].        ",
"      ^./.=.(.= } _.:.{ { :.2 - - - X %.{ { { { { { { 2 - - <.w = ! 1 ;.[.{  .G F }.|.1.2.      ",
"      3.4.C = i _.:.4.D D 4.+.5.:.5.{ U D * * * * * * +.5.:.[.x D W { y } y 2 6.F E 7.8.9.0.    ",
"    a.b.D * | E [.4.! / / ! h 4.4.x D C / / / / / / / h x 4.D x } +.D ^ / C +...6.F  .c.d.e.    ",
"    f.5.x w N W 4.! (.-.-.(.$.! = V / ( -.-.-.-.-.-.-.$.V = ! ~ h D / $.=.( * :.] 6.G 6.g.h.i.  ",
"  j.k.D W i x x V (.l.l.l.l.-.(.(.-.-.m.l.l.l.l.l.l.l.-.-.(.( $.=./ -.m.= -.$.5._.X n.F & o.p.q.",
"  r.2  ._.y * V (.l.l.l.m.( =.=.-.-.-.-.m.l.l.l.l.l.s.l.l.m.m.m.-.-.l.l.~ / h E _.j t.t.F u.v.w.",
"  x.%.n.O i | / -.l.l.l.m.=.! C C ! / $.(.m.l.l.l.l.l.l.l.l.l.l.l.l.-.m.D ~ y j 2 G y.).n.z.A.B.",
"  C./.F j { ~ =.( -.-.-.(.^ ! / =./ V $.( $.(.-.-.-.l.l.l.l.l.l.-.$.$.* +.} ..D.- n.P E.F.G.H.# ",
"  I.J.J.j { ^ ~ = / / / = h = C =.V $.$.K.D V =./ $.(.-.-.-.=.! ! V ! 4.E E L.M.%.y.v N.O.P.Q.# ",
"  # !.R.n._.U 4.D * h ^ | h ^ h = / ~ K.N w h = = V $.( (.$.$.V = h ~ [.j G S.T.<.U.V.W.X.Y.Z.# ",
"  # `.t. +>...+.D * h * } } C ~ | U +..+++y ~ C ^ C V =.=.V ( ! ~ 4.W F @+#+$+b.%+&+*+=+-+;+>+,+",
"  # >+'+)+!+>.;.x 4.4.| x U w y U N ~+++z {+~ C | x ^ ^ ! C | w 1 :.F <.T.]+^+V.&+-+/+(+_+:+<+[+",
"    }+|+1+2+F F - { W w 1 1 ] +.i 3+4+5+6+7+w +.W +.N U w 4.{ W _.G 8+9+F.0+a+b+c+-+a+d+e+f+g+  ",
"    h+i+:+c.j+k+T.X E ] y.n.3+l+m+n+o+p+q+r+++Y 2 r+] j - ;._. .S.N.s+t+u+) Y.a+b+v+w+x+y+z+    ",
"      A+B+C+D+E+F+G+H+9+Y.#.I+J+K+L+M+N+O+P+q+L.Q+R+& J.L.n.M.%+W.S+!.T+=+a+U+V+U+W+X+Y+q       ",
"        Z+1.`+ @.@+@;+@@#@(+$@%@&@*@=@y+E+-@;@>@,@>@u.k+#.'@X.)@H.!@s+Y.~@}.=@{@N+]@^@/@        ",
"          (@_@:@Y+<@[@}@|@1@2@{.3@4@5@6@7@`.|+8@9@&@0@a@9@b@c@d@e@f@g@#@}@h@i@Y+j@k@l@          ",
"            m@n@o@p@q@r@s@t@u@v@w@x@r@y@z@A@B@C@D@E@F@D@G@H@I@p.J@K@|@L@I@M@N@O@P@Q@            ",
"                # # # # # # # R@S@6 T@# # # # # # # U@V@W@X@Y@Y@Z@`@#  ## # # # / #             ",
"                  # / #           # / #             #             # / #     # / #               ",
"                # / / / #           #             # / #         # / / / #     #                 ",
"                  # / #     #                   # / / / #         # / #   #                     ",
"                    #     # / #                   # / #     #       #   # / #                   ",
"                        # / / / #         #         #     # / #       # / / / #                 ",
"                          # / #         # / #           # / / / #       # / #                   ",
"                #           #         # / / / #           # / #           #     #               ",
"              # / #               #     # / #               #     #           # / #             ",
"            # / / / #           # / #     #     #               # / #       # / / / #           ",
"              # / #           # / / / #       # / #           # / / / #       # / #             ",
"                #               # / #       # / / / #           # / #           #               ",
"                        #         #           # / #               #                             ",
"                      # / #                     #         #                                     ",
"                    # / / / #         #                 # / #             #                     ",
"                      # / #         # / #             # / / / #         # / #                   ",
"                        #         # / / / #             # / #         # / / / #                 ",
"                                    # / #                 #             # / #                   ",
"                                      #                                   #                     ",
"                                                                                                ",
"                                                                                                ",
"                                                                                                "};
