/* XPM */
static char * sun_mini_xpm[] = {
"16 16 68 1",
" 	c None",
".	c #717273",
"+	c #FFD80F",
"@	c #FFCD10",
"#	c #FFBF10",
"$	c #FFB111",
"%	c #FFA312",
"&	c #FF9413",
"*	c #FFE30E",
"=	c #FFDF0F",
"-	c #FFD110",
";	c #FFC210",
">	c #FFB411",
",	c #FFA512",
"'	c #FF9613",
")	c #FF8713",
"!	c #FFD10F",
"~	c #FFDA0F",
"{	c #FF8613",
"]	c #FF7414",
"^	c #FFC610",
"/	c #FFCC10",
"(	c #FFCA10",
"_	c #FFC310",
":	c #FFB811",
"<	c #FFAC11",
"[	c #FF9E12",
"}	c #FF9113",
"|	c #FF8214",
"1	c #FFB911",
"2	c #FFBD11",
"3	c #FFBC11",
"4	c #FFB711",
"5	c #FFAE11",
"6	c #FF9712",
"7	c #FF8B13",
"8	c #FF7D14",
"9	c #FF6F15",
"0	c #FFAB11",
"a	c #FFA912",
"b	c #FFA212",
"c	c #FF9912",
"d	c #FF8E13",
"e	c #FF8313",
"f	c #FF7614",
"g	c #FF6915",
"h	c #FF9D12",
"i	c #FF9F12",
"j	c #FF9B12",
"k	c #FF8413",
"l	c #FF7914",
"m	c #FF6E15",
"n	c #FF6415",
"o	c #FF8F13",
"p	c #FF9013",
"q	c #FF8D13",
"r	c #FF8813",
"s	c #FF8114",
"t	c #FF6515",
"u	c #FF6315",
"v	c #FF7F14",
"w	c #FF7B14",
"x	c #FF6D15",
"y	c #FF7214",
"z	c #FF7115",
"A	c #FF6C15",
"B	c #FF6715",
"C	c #FE6315",
"                ",
"                ",
"     ......     ",
"    .+@#$%&.    ",
"   .*=-;>,').   ",
"  .!~+@#$%&{].  ",
"  .^/(_:<[}|].  ",
"  .12345%6789.  ",
"  .055abcdefg.  ",
"  .hiij'dklmn.  ",
"  .o}pqrsl9tu.  ",
"   .|svw]xtu.   ",
"    .yzABuC.    ",
"     ......     ",
"                ",
"                "};
