/* XPM */
static char * sun_mini_xpm[] = {
"16 16 111 2",
"  	c None",
". 	c #EEDC4B",
"+ 	c #F8DF26",
"@ 	c #F3DD38",
"# 	c #EADB5E",
"$ 	c #CFD4D0",
"% 	c #D9D0A5",
"& 	c #F1C940",
"* 	c #FEC010",
"= 	c #FEB811",
"- 	c #FEAB11",
"; 	c #FC9C18",
"> 	c #E9AD67",
", 	c #D4CABB",
"' 	c #E6CC6C",
") 	c #FED90F",
"! 	c #FFD80F",
"~ 	c #FFCD10",
"{ 	c #FFBF10",
"] 	c #FFB111",
"^ 	c #FFA312",
"/ 	c #FF9413",
"( 	c #F98E28",
"_ 	c #DCB697",
": 	c #E0CC87",
"< 	c #FED50F",
"[ 	c #FFE30E",
"} 	c #FFDF0F",
"| 	c #FFD110",
"1 	c #FFC210",
"2 	c #FFB411",
"3 	c #FFA512",
"4 	c #FF9613",
"5 	c #FF8713",
"6 	c #FA7D20",
"7 	c #D4C8BB",
"8 	c #F9C220",
"9 	c #FFD10F",
"0 	c #FFDA0F",
"a 	c #FF8613",
"b 	c #FF7714",
"c 	c #E99562",
"d 	c #DEC690",
"e 	c #FFBC11",
"f 	c #FFC610",
"g 	c #FFCC10",
"h 	c #FFCA10",
"i 	c #FFC310",
"j 	c #FFB811",
"k 	c #FFAC11",
"l 	c #FF9E12",
"m 	c #FF9113",
"n 	c #FF8214",
"o 	c #FF7414",
"p 	c #FE6615",
"q 	c #FFB911",
"r 	c #FFBD11",
"s 	c #FFB711",
"t 	c #FFAE11",
"u 	c #FF9712",
"v 	c #FF8B13",
"w 	c #FF7D14",
"x 	c #FF6F15",
"y 	c #FE6415",
"z 	c #DEC290",
"A 	c #FFAB11",
"B 	c #FFA912",
"C 	c #FFA212",
"D 	c #FF9912",
"E 	c #FF8E13",
"F 	c #FF8313",
"G 	c #FF7614",
"H 	c #FF6915",
"I 	c #FE6315",
"J 	c #D9C4A6",
"K 	c #FE9812",
"L 	c #FF9D12",
"M 	c #FF9F12",
"N 	c #FF9B12",
"O 	c #FF8413",
"P 	c #FF7914",
"Q 	c #FF6E15",
"R 	c #FF6415",
"S 	c #F96F29",
"T 	c #F39737",
"U 	c #FF8F13",
"V 	c #FF9013",
"W 	c #FF8D13",
"X 	c #FF8813",
"Y 	c #FF8114",
"Z 	c #FF6515",
"` 	c #FF6315",
" .	c #E39E77",
"..	c #D5C5B2",
"+.	c #FD7F16",
"@.	c #FF7F14",
"#.	c #FF7B14",
"$.	c #FF6D15",
"%.	c #F47838",
"&.	c #D7BFAA",
"*.	c #F97D29",
"=.	c #FF7214",
"-.	c #FF7115",
";.	c #FF6C15",
">.	c #FF6715",
",.	c #EE8853",
"'.	c #D2C9BF",
").	c #E1A682",
"!.	c #EE8A53",
"~.	c #EC8B58",
"{.	c #D9BAA6",
"$ $ $ $ $ $ $ $ $ $ $ $ $ $ $ $ ",
"$ $ $ $ $ $ $ $ $ $ $ $ $ $ $ $ ",
"$ $ $ $ % & * = - ; > , $ $ $ $ ",
"$ $ $ ' ) ! ~ { ] ^ / ( _ $ $ $ ",
"$ $ : < [ } | 1 2 3 4 5 6 7 $ $ ",
"$ $ 8 9 0 ! ~ { ] ^ / a b c $ $ ",
"$ d e f g h i j k l m n o p $ $ ",
"$ d ] q r e s t ^ u v w x y $ $ ",
"$ z 3 A t t B C D E F G H I $ $ ",
"$ J K L M M N 4 E O P Q R S $ $ ",
"$ $ T U m V W X Y P x Z `  .$ $ ",
"$ $ ..+.n Y @.#.o $.Z ` %.$ $ $ ",
"$ $ $ &.*.=.-.;.>.` I ,.'.$ $ $ ",
"$ $ $ $ $ ).!.,.,.~.{.$ $ $ $ $ ",
"$ $ $ $ $ $ $ $ $ $ $ $ $ $ $ $ ",
"$ $ $ $ $ $ $ $ $ $ $ $ $ $ $ $ "};
