/* XPM */
static char * sun_mini_xpm[] = {
"16 16 94 2",
"  	c None",
". 	c #F1C940",
"+ 	c #FEC010",
"@ 	c #FEB811",
"# 	c #FEAB11",
"$ 	c #FC9C18",
"% 	c #E9AD67",
"& 	c #E6CC6C",
"* 	c #FED90F",
"= 	c #FFD80F",
"- 	c #FFCD10",
"; 	c #FFBF10",
"> 	c #FFB111",
", 	c #FFA312",
"' 	c #FF9413",
") 	c #F98E28",
"! 	c #FED50F",
"~ 	c #FFE30E",
"{ 	c #FFDF0F",
"] 	c #FFD110",
"^ 	c #FFC210",
"/ 	c #FFB411",
"( 	c #FFA512",
"_ 	c #FF9613",
": 	c #FF8713",
"< 	c #FA7D20",
"[ 	c #F9C220",
"} 	c #FFD10F",
"| 	c #FFDA0F",
"1 	c #FF8613",
"2 	c #FF7714",
"3 	c #E99562",
"4 	c #FFBC11",
"5 	c #FFC610",
"6 	c #FFCC10",
"7 	c #FFCA10",
"8 	c #FFC310",
"9 	c #FFB811",
"0 	c #FFAC11",
"a 	c #FF9E12",
"b 	c #FF9113",
"c 	c #FF8214",
"d 	c #FF7414",
"e 	c #FE6615",
"f 	c #FFB911",
"g 	c #FFBD11",
"h 	c #FFB711",
"i 	c #FFAE11",
"j 	c #FF9712",
"k 	c #FF8B13",
"l 	c #FF7D14",
"m 	c #FF6F15",
"n 	c #FE6415",
"o 	c #FFAB11",
"p 	c #FFA912",
"q 	c #FFA212",
"r 	c #FF9912",
"s 	c #FF8E13",
"t 	c #FF8313",
"u 	c #FF7614",
"v 	c #FF6915",
"w 	c #FE6315",
"x 	c #FE9812",
"y 	c #FF9D12",
"z 	c #FF9F12",
"A 	c #FF9B12",
"B 	c #FF8413",
"C 	c #FF7914",
"D 	c #FF6E15",
"E 	c #FF6415",
"F 	c #F96F29",
"G 	c #F39737",
"H 	c #FF8F13",
"I 	c #FF9013",
"J 	c #FF8D13",
"K 	c #FF8813",
"L 	c #FF8114",
"M 	c #FF6515",
"N 	c #FF6315",
"O 	c #E39E77",
"P 	c #FD7F16",
"Q 	c #FF7F14",
"R 	c #FF7B14",
"S 	c #FF6D15",
"T 	c #F47838",
"U 	c #F97D29",
"V 	c #FF7214",
"W 	c #FF7115",
"X 	c #FF6C15",
"Y 	c #FF6715",
"Z 	c #EE8853",
"` 	c #E1A682",
" .	c #EE8A53",
"..	c #EC8B58",
"                                ",
"                                ",
"          . + @ # $ %           ",
"      & * = - ; > , ' )         ",
"      ! ~ { ] ^ / ( _ : <       ",
"    [ } | = - ; > , ' 1 2 3     ",
"    4 5 6 7 8 9 0 a b c d e     ",
"    > f g 4 h i , j k l m n     ",
"    ( o i i p q r s t u v w     ",
"    x y z z A _ s B C D E F     ",
"    G H b I J K L C m M N O     ",
"      P c L Q R d S M N T       ",
"        U V W X Y N w Z         ",
"          `  .Z Z ..            ",
"                                ",
"                                "};
