/* XPM */
static char * sun_xpm[] = {
"48 48 99 2",
"  	c None",
". 	c #EEB63C",
"+ 	c #FAC61C",
"@ 	c #FAD21C",
"# 	c #FAD624",
"$ 	c #FADE24",
"% 	c #FADA24",
"& 	c #FAB61C",
"* 	c #FE9A14",
"= 	c #EE9644",
"- 	c #FAC214",
"; 	c #FAD61C",
"> 	c #FAD224",
", 	c #FACE1C",
"' 	c #FAC614",
") 	c #FABA1C",
"! 	c #FABE1C",
"~ 	c #FACA1C",
"{ 	c #FAA21C",
"] 	c #FA8614",
"^ 	c #FADA1C",
"/ 	c #FECE14",
"( 	c #FECA14",
"_ 	c #FEC214",
": 	c #FEBA14",
"< 	c #FEB614",
"[ 	c #FAB21C",
"} 	c #FAAE1C",
"| 	c #FAAA1C",
"1 	c #FEA614",
"2 	c #FE9614",
"3 	c #FE7E14",
"4 	c #FED614",
"5 	c #FED214",
"6 	c #FEC614",
"7 	c #FEBE14",
"8 	c #FEB214",
"9 	c #FEAE14",
"0 	c #FEAA14",
"a 	c #FEA214",
"b 	c #FE9E14",
"c 	c #FAAE24",
"d 	c #FE8214",
"e 	c #FEDA14",
"f 	c #FE961C",
"g 	c #FE7E1C",
"h 	c #F27E34",
"i 	c #FADE1C",
"j 	c #FEE214",
"k 	c #FE9214",
"l 	c #F27A34",
"m 	c #DAC284",
"n 	c #FEDE14",
"o 	c #FE761C",
"p 	c #FEEA14",
"q 	c #FEE614",
"r 	c #FA8E24",
"s 	c #FE8E14",
"t 	c #FE9A1C",
"u 	c #FE721C",
"v 	c #FE8A14",
"w 	c #FE861C",
"x 	c #FA6A1C",
"y 	c #FAA614",
"z 	c #FA861C",
"A 	c #FA9224",
"B 	c #FE8E24",
"C 	c #FE7224",
"D 	c #FE7E24",
"E 	c #FA8A24",
"F 	c #FE8614",
"G 	c #FE921C",
"H 	c #FE7A1C",
"I 	c #FE7624",
"J 	c #FE7A14",
"K 	c #FE7614",
"L 	c #F67A2C",
"M 	c #FE7E2C",
"N 	c #FE7A2C",
"O 	c #FE862C",
"P 	c #FA8E2C",
"Q 	c #EA9A64",
"R 	c #E2B294",
"S 	c #FA8A2C",
"T 	c #EAAA7C",
"U 	c #DEA684",
"V 	c #F28E4C",
"W 	c #FA8234",
"X 	c #E6AE84",
"Y 	c #F29A5C",
"Z 	c #DAAA84",
"` 	c #FE6E1C",
" .	c #E6B28C",
"..	c #FA8E34",
"+.	c #EAA67C",
"@.	c #DEBA9C",
"#.	c #E2B28C",
"$.	c #EAA274",
"%.	c #EE9E64",
"                                                                                                ",
"                                                                                                ",
"                                                                                                ",
"                                                                                                ",
"                                                                                                ",
"                                                                                                ",
"                                  . + @ # $ $ $ % # + & * =                                     ",
"                              - ; $ % > , ' - ) ) & ) ! ~ + { ]                                 ",
"                          - ^ $ % ; / ( ' - _ : < < [ } | 1 [ ! 2 3                             ",
"                        , $ $ ; 4 5 5 , ( 6 _ - 7 < 8 9 0 0 a b } c d                           ",
"                    . ^ $ ^ ^ e e ; 5 5 / ( _ 7 7 : 8 8 | 0 1 a * f [ g h                       ",
"                  [ ; $ i j j j e 4 4 5 / ( 6 - 7 : < 8 9 0 { a b * k | g l                     ",
"                m ; $ ^ n j j j j ^ 4 5 / ( ' - 7 : < 8 } 0 { { * * k k { o                     ",
"                ~ $ ^ e i j p q n n ; 5 / ( 6 - 7 : < 8 9 0 1 b b * 2 r s t u                   ",
"              : ; i ; n j j j j i n e 5 , ( 6 - 7 : & 8 9 0 1 { * * 2 s s v w x                 ",
"              ~ i 5 ; 4 ^ i j n n ; 5 5 / ( 6 - 7 < < 8 | 0 y { b 2 k k v z f o                 ",
"            < ^ ^ @ 4 4 e e i e e 4 4 5 / ( - - 7 < 8 8 0 1 a { b * A k v v d B x               ",
"            ! i / / / ; 5 4 ; 4 ; 4 , / ( ' 6 7 ) : < 9 0 0 a b * 2 k s s z d A C               ",
"          y ~ ^ ' ( , 5 5 ; 4 5 5 5 / ( ( _ - 7 < < 8 } 0 y { b * 2 A s v z d 3 D x             ",
"          9 , @ ' ( ~ ( / / , / , ( ( ' - - 7 : ) 8 8 9 y 1 { b * 2 s v E F d g r x             ",
"          9 ; + - - ' ( ' ( ( ( ( ( ' 6 _ 7 7 : < 8 9 0 1 a b * * 2 A v v d 3 g G C             ",
"          9 i - 7 _ 6 ' ' ' ( ' ' - _ 7 7 : : & 8 9 | 0 y { b * 2 k s v ] d g H z C             ",
"          0 $ : : : 7 _ - - - _ _ _ - 7 : < & 8 9 9 0 1 a b * 2 A s s z z d 3 H g I             ",
"          y i < : : : 7 7 7 7 7 7 7 : : : < 8 8 9 0 y { b b * 2 A s v v d g J K o L             ",
"          a % 9 < < < : : : : : < : < < & 8 9 } 0 y a a b * 2 k k s ] ] d g H K o M             ",
"          b @ 8 9 8 8 8 8 < < < < 8 8 8 } 9 9 0 y 1 { b * 2 2 A s v E d g J K o g N             ",
"          * + [ 9 } 9 8 8 8 8 [ 8 [ 9 } 0 0 y 1 a a b b * 2 k s v ] ] d 3 J K K z N             ",
"          k & : y | 9 0 } 9 9 9 9 0 0 0 0 y y y a b * 2 2 k r v v F d 3 3 L o o B N             ",
"          ] b + y y 0 y 0 0 | y 0 | y y a a b b b * * A k k s E ] d g J K K K K r C             ",
"            s ' a a a y a y y y y y y a a b b * 2 * k k s v v ] d 3 3 L K K K o O               ",
"            ] a } b b a b b a b b b b b b b * * 2 2 A s s ] ] d d g J K K o K E L               ",
"              v ! * * * b b b b b b b * * 2 2 A k s s r v z d d 3 J K K K K K P Q               ",
"              3 2 } * * * 2 * * 2 2 2 2 2 A k s r s v ] F ] d g L J K o o o r N R               ",
"                3 | k k k 2 k k 2 A 2 k k s s s v v ] ] d g J J J K o K K K S T                 ",
"                U 3 | k r k k r k s s r s s ] v ] ] d d g g J K o K K K K r V                   ",
"                  l 3 y s v v s v v v v E ] v ] d 3 g g J K o o K K o o A W X                   ",
"                    l o { v ] E v ] ] ] ] d d d d 3 J J J K K K L K K A W X                     ",
"                        o t ] d d ] d d d 3 g g J L J u L o K K K K r Y Z                       ",
"                          ` z f 3 3 3 3 3 3 J J K K K K K K K K r S Q  .                        ",
"                              ` E A J L o o K o K K K K K K r ..= +.                            ",
"                                  h L r r z L K K h ] r r S Q +.                                ",
"                                      @.#.+.+.$.Y %.%.$.T R                                     ",
"                                                                                                ",
"                                                                                                ",
"                                                                                                ",
"                                                                                                ",
"                                                                                                ",
"                                                                                                "};
