/* XPM */
static char * sun_xpm[] = {
"48 48 69 1",
" 	c None",
".	c #717273",
"+	c #FADE24",
"@	c #FADA24",
"#	c #FAD224",
"$	c #FACE1C",
"%	c #FAC614",
"&	c #FAC214",
"*	c #FABA1C",
"=	c #FAB61C",
"-	c #FABE1C",
";	c #FACA1C",
">	c #FAC61C",
",	c #FAD61C",
"'	c #FECE14",
")	c #FECA14",
"!	c #FEC214",
"~	c #FEBA14",
"{	c #FEB614",
"]	c #FAB21C",
"^	c #FAAE1C",
"/	c #FAAA1C",
"(	c #FEA614",
"_	c #FED614",
":	c #FED214",
"<	c #FEC614",
"[	c #FEBE14",
"}	c #FEB214",
"|	c #FEAE14",
"1	c #FEAA14",
"2	c #FEA214",
"3	c #FE9E14",
"4	c #FAAE24",
"5	c #FADA1C",
"6	c #FEDA14",
"7	c #FE9A14",
"8	c #FE961C",
"9	c #FADE1C",
"0	c #FEE214",
"a	c #FAA21C",
"b	c #FE9214",
"c	c #FE7E1C",
"d	c #FEDE14",
"e	c #FE9A1C",
"f	c #FEEA14",
"g	c #FEE614",
"h	c #FE9614",
"i	c #FA8E24",
"j	c #FE8E14",
"k	c #FE8A14",
"l	c #FE861C",
"m	c #FAA614",
"n	c #FA861C",
"o	c #FAD21C",
"p	c #FA9224",
"q	c #FE8214",
"r	c #FE8E24",
"s	c #FE7E14",
"t	c #FE7E24",
"u	c #FA8A24",
"v	c #FE8614",
"w	c #FE921C",
"x	c #FA8614",
"y	c #FE7A1C",
"z	c #FE7A14",
"A	c #FE7614",
"B	c #FE761C",
"C	c #F67A2C",
"D	c #FE721C",
"                                                ",
"                                                ",
"                                                ",
"                                                ",
"                                                ",
"                                                ",
"                 .............                  ",
"               ..+@#$%&**=*-;>..                ",
"             ..+@,')%&!~{{]^/(]-..              ",
"            .++,_::$)<!&[{}|1123^4.             ",
"          ..+5566,::')![[~}}/1(278]..           ",
"         .,+90006__:')<&[~{}|1a237b/c.          ",
"        .,+5d00005_:')%&[~{}^1aa77bbae.         ",
"        .+5690fgdd,:')<&[~{}|1(337hije.         ",
"       .,9,d00009d6:$)<&[~=}|1(a77hjjkl.        ",
"       .9:,_590dd,::')<&[{{}/1ma3hbbkn8.        ",
"      .55o__66966__:')&&[{}}1(2a37pbkkqr.       ",
"      .9''',:_,_,_$')%<[*~{|11237hbjjnqp.       ",
"     .;5%)$::,_:::'))!&[{{}^1ma37hpjknqst.      ",
"     .$o%);)''$'$))%&&[~*}}|m(a37hjkuvqci.      ",
"     .,>&&%)%)))))%<![[~{}|1(2377hpkkqscw.      ",
"     .9&[!<%%%)%%&![[~~=}|/1ma37hbjkxqcyn.      ",
"     .+~~~[!&&&!!!&[~{=}||1(237hpjjnnqsyc.      ",
"     .9{~~~[[[[[[[~~~{}}|1ma337hpjkkqczAB.      ",
"     .@|{{{~~~~~{~{{=}|^1m2237hbbjxxqcyAB.      ",
"     .o}|}}}}{{{{}}}^||1m(a37hhpjkuqczABc.      ",
"     .>]|^|}}}}]}]|^11m(22337hbjkxxqszAAn.      ",
"     .=~m/|1^||||1111mmm237hhbikkvqssCBBr.      ",
"     .3>mm1m11/m1/mm2233377pbbjuxqczAAAAi.      ",
"      .%222m2mmmmmm22337h7bbjkkxqssCAAAB.       ",
"      .2^332332333333377hhpjjxxqqczAABAu.       ",
"       .-777333333377hhpbjjiknqqszAAAAA.        ",
"       .h^777h77hhhhhpbjijkxvxqcCzABBBi.        ",
"        ./bbbhbbhphbbjjjkkxxqczzzABAAA.         ",
"        .s/bibbibjjijjxkxxqqcczABAAAAi.         ",
"         .smjkkjkkkkuxkxqscczABBAABBp.          ",
"          ..akxukxxxxqqqqszzzAAACAA..           ",
"            .exqqxqqqscczCzDCBAAAA.             ",
"             ..8sssssszzAAAAAAAA..              ",
"               ..pzCBBABAAAAAA..                ",
"                 .............                  ",
"                                                ",
"                                                ",
"                                                ",
"                                                ",
"                                                ",
"                                                ",
"                                                "};
