/* XPM */
static char * suncloud_mini_xpm[] = {
"16 16 86 1",
" 	c None",
".	c #000000",
"+	c #FBD811",
"@	c #FCD00F",
"#	c #FCC00F",
"$	c #FCAE10",
"%	c #FC9D11",
"&	c #F98E1C",
"*	c #FBD411",
"=	c #FCDF0E",
"-	c #FCD30F",
";	c #FCC30F",
">	c #FCB010",
",	c #FC8B12",
"'	c #FA7C1B",
")	c #F7BE23",
"!	c #EE8A50",
"~	c #FCCA0F",
"{	c #FC8912",
"]	c #FD7614",
"^	c #D8DCD9",
"/	c #CED3CF",
"(	c #E4E5E4",
"_	c #D8D8D8",
":	c #CDCDCD",
"<	c #D2D3D2",
"[	c #DADCDA",
"}	c #E3E4E3",
"|	c #E0E0E0",
"1	c #D9D9D9",
"2	c #E1E1E1",
"3	c #E2E2E2",
"4	c #DBDBDB",
"5	c #D3D3D3",
"6	c #DEDEDE",
"7	c #D1D1D1",
"8	c #C5C9C6",
"9	c #D6D6D6",
"0	c #DADADA",
"a	c #F2F2F2",
"b	c #FAFAFA",
"c	c #F4F4F4",
"d	c #F6F6F6",
"e	c #FBFBFB",
"f	c #F7F7F7",
"g	c #F1F1F1",
"h	c #F0F0F0",
"i	c #F8F8F8",
"j	c #E6E6E6",
"k	c #CFCFCF",
"l	c #ECECEC",
"m	c #FCFCFC",
"n	c #F5F5F5",
"o	c #FDFDFD",
"p	c #FEFEFE",
"q	c #EBEBEB",
"r	c #D4D5D4",
"s	c #DDDDDD",
"t	c #EAEAEA",
"u	c #E7E7E7",
"v	c #D7D7D7",
"w	c #E5E5E5",
"x	c #EDEDED",
"y	c #E9E9E9",
"z	c #BBBBBB",
"A	c #C7CBC8",
"B	c #C0C1C0",
"C	c #CECECE",
"D	c #C8C8C8",
"E	c #AAAAAA",
"F	c #AFAFAF",
"G	c #C9C9C9",
"H	c #CACACA",
"I	c #9FA09F",
"J	c #ABADAB",
"K	c #C6CAC7",
"L	c #B7BAB7",
"M	c #B8BBB9",
"N	c #C4C8C5",
"O	c #C0C4C1",
"P	c #AFB1B0",
"Q	c #B5B7B6",
"R	c #AFB0AF",
"S	c #A1A2A1",
"T	c #B3B6B4",
"U	c #C6CAC6",
"       ......   ",
"      .+@#$%&.  ",
"     .*=-;>%,'. ",
"    .)*=-;>%,'!.",
"    .)~...>%{]!.",
"    .).^^/.%{]!.",
"  ....(_:<[...!.",
" .}_|.1234.567.8",
".90abcdeefghijk.",
".7lmmnneopomfq9.",
".rstuvvwxnny07z.",
".ABCDEFG7vvHFIJ.",
" .KLJMNOPQRSTU. ",
"  ............  ",
"                ",
"                "};
