/* XPM */
static char * suncloud_mini_xpm[] = {
"16 16 115 2",
"  	c None",
". 	c #D9D0A0",
"+ 	c #EBC755",
"@ 	c #F0BF43",
"# 	c #EFB344",
"$ 	c #E8AF60",
"% 	c #D5C6B0",
"& 	c #E5D16B",
"* 	c #FBD811",
"= 	c #FCD00F",
"- 	c #FCC00F",
"; 	c #FCAE10",
"> 	c #FC9D11",
", 	c #F98E1C",
"' 	c #DFB087",
") 	c #E0CC82",
"! 	c #FBD411",
"~ 	c #FCDF0E",
"{ 	c #FCD30F",
"] 	c #FCC30F",
"^ 	c #FCB010",
"/ 	c #FC8B12",
"( 	c #FA7C1B",
"_ 	c #D7BBA5",
": 	c #F7BE23",
"< 	c #FCCA0F",
"[ 	c #FACB18",
"} 	c #F7CE59",
"| 	c #F6C25A",
"1 	c #EDAE50",
"2 	c #FC8912",
"3 	c #FD7614",
"4 	c #EE8A50",
"5 	c #D4D7D1",
"6 	c #E7E7E7",
"7 	c #D9DAD9",
"8 	c #DADCDB",
"9 	c #E9E3CF",
"0 	c #D8D8D8",
"a 	c #CDCDCD",
"b 	c #D2D3D2",
"c 	c #DADCDA",
"d 	c #EFD2BB",
"e 	c #E0E0E0",
"f 	c #D1D2D1",
"g 	c #CCD0CC",
"h 	c #E2E5E2",
"i 	c #E3E4E3",
"j 	c #D6D6D6",
"k 	c #D9D9D9",
"l 	c #E1E1E1",
"m 	c #E2E2E2",
"n 	c #DBDBDB",
"o 	c #D4D4D4",
"p 	c #D3D3D3",
"q 	c #DEDEDE",
"r 	c #D1D1D1",
"s 	c #BDC0BE",
"t 	c #CDD2CE",
"u 	c #E2E4E2",
"v 	c #DADADA",
"w 	c #F2F2F2",
"x 	c #FAFAFA",
"y 	c #F4F4F4",
"z 	c #F6F6F6",
"A 	c #FBFBFB",
"B 	c #F7F7F7",
"C 	c #F1F1F1",
"D 	c #F0F0F0",
"E 	c #F8F8F8",
"F 	c #E6E6E6",
"G 	c #CFCFCF",
"H 	c #C5C9C6",
"I 	c #D5D8D6",
"J 	c #ECECEC",
"K 	c #FCFCFC",
"L 	c #F5F5F5",
"M 	c #FDFDFD",
"N 	c #FEFEFE",
"O 	c #EBEBEB",
"P 	c #B2B3B2",
"Q 	c #D4D5D4",
"R 	c #DDDDDD",
"S 	c #EAEAEA",
"T 	c #D7D7D7",
"U 	c #E5E5E5",
"V 	c #EDEDED",
"W 	c #E9E9E9",
"X 	c #BBBBBB",
"Y 	c #A1A2A1",
"Z 	c #CED3CF",
"` 	c #C7CBC8",
" .	c #C0C1C0",
"..	c #CECECE",
"+.	c #C8C8C8",
"@.	c #AAAAAA",
"#.	c #AFAFAF",
"$.	c #C9C9C9",
"%.	c #CACACA",
"&.	c #9FA09F",
"*.	c #ABADAB",
"=.	c #C2C6C2",
"-.	c #C6CAC7",
";.	c #B7BAB7",
">.	c #B8BBB9",
",.	c #C4C8C5",
"'.	c #C0C4C1",
").	c #AFB1B0",
"!.	c #B5B7B6",
"~.	c #AFB0AF",
"{.	c #B3B6B4",
"].	c #C6CAC6",
"^.	c #CCD1CD",
"/.	c #C9CECA",
"(.	c #C5CAC6",
"                                ",
"          . + @ # $ %           ",
"        & * = - ; > , '         ",
"      ) ! ~ { ] ^ > / ( _       ",
"      : < = [ } | 1 2 3 4       ",
"    5 6 7 8 9 0 a b c d e f g   ",
"  h i 0 e j k l m n o p q r s t ",
"u j v w x y z A A B C D E F G H ",
"I r J K K L L A M N M K B O j P ",
"t Q R S 6 T T U V L L W v r X Y ",
"Z `  ...+.@.#.$.r T T %.#.&.*.=.",
"  Z -.;.*.>.,.'.).!.~.Y {.].^.  ",
"    Z t ^.Z   Z t /.(.` t       ",
"                                ",
"                                ",
"                                "};
