/* XPM */
static char * suncloud_xpm[] = {
"48 48 462 2",
"  	c None",
". 	c #717273",
"+ 	c #FABA1C",
"@ 	c #FEBA0C",
"# 	c #FEBA14",
"$ 	c #FEB614",
"% 	c #FEB214",
"& 	c #FEAE14",
"* 	c #FEA614",
"= 	c #FE9E14",
"- 	c #FE9A14",
"; 	c #FAC61C",
"> 	c #FECA0C",
", 	c #FEC60C",
"' 	c #FEC20C",
") 	c #FEBE0C",
"! 	c #FEAA14",
"~ 	c #FA9A1C",
"{ 	c #FE9214",
"] 	c #F6CE24",
"^ 	c #FED60C",
"/ 	c #FED20C",
"( 	c #FACE1C",
"_ 	c #FEA214",
": 	c #FE9614",
"< 	c #FE8E14",
"[ 	c #FA861C",
"} 	c #FAD21C",
"| 	c #FEDA0C",
"1 	c #FEDA14",
"2 	c #FEDE0C",
"3 	c #FEE20C",
"4 	c #FE8614",
"5 	c #FA7E14",
"6 	c #F6D624",
"7 	c #FEE60C",
"8 	c #FE8A14",
"9 	c #FE8214",
"0 	c #FE7E14",
"a 	c #FA7A1C",
"b 	c #FECE0C",
"c 	c #FE7614",
"d 	c #FE7214",
"e 	c #F5CD23",
"f 	c #58460F",
"g 	c #555043",
"h 	c #423F39",
"i 	c #050400",
"j 	c #654408",
"k 	c #FEBE0D",
"l 	c #F27E34",
"m 	c #FBCF0B",
"n 	c #6D5C1E",
"o 	c #423F36",
"p 	c #CCCBCA",
"q 	c #EEEEEE",
"r 	c #F4F3F3",
"s 	c #D4D3D3",
"t 	c #4C4A46",
"u 	c #402D10",
"v 	c #231707",
"w 	c #FEB81C",
"x 	c #F59813",
"y 	c #F9991B",
"z 	c #FE7A14",
"A 	c #FE6A14",
"B 	c #FEAF18",
"C 	c #FACE0B",
"D 	c #B49515",
"E 	c #665721",
"F 	c #9B9583",
"G 	c #F5F4F4",
"H 	c #F5F5F5",
"I 	c #F1F1F1",
"J 	c #E2E2E2",
"K 	c #D7D7D7",
"L 	c #F3F2F2",
"M 	c #F8F7F7",
"N 	c #FBFAFA",
"O 	c #574A39",
"P 	c #4B3012",
"Q 	c #F48C13",
"R 	c #FC8013",
"S 	c #FA761C",
"T 	c #FE6E14",
"U 	c #F67A34",
"V 	c #A38107",
"W 	c #605117",
"X 	c #A7A6A2",
"Y 	c #ECECEC",
"Z 	c #EFEFEF",
"` 	c #E3E3E3",
" .	c #D9D9D9",
"..	c #D7DBD8",
"+.	c #CED3CF",
"@.	c #B9BBB5",
"#.	c #3E2F1F",
"$.	c #FE6D1F",
"%.	c #8F8C7C",
"&.	c #6D6D6D",
"*.	c #5A5A59",
"=.	c #525252",
"-.	c #4A4A4A",
";.	c #373737",
">.	c #151515",
",.	c #636664",
"'.	c #3F413E",
").	c #90908B",
"!.	c #F2F2F2",
"~.	c #F0F0F0",
"{.	c #F7F7F7",
"].	c #E5E5E5",
"^.	c #D2D2D2",
"/.	c #C5C5C5",
"(.	c #D4D4D4",
"_.	c #BFBFBF",
":.	c #CACFCB",
"<.	c #CCD1CD",
"[.	c #CDD2CE",
"}.	c #616361",
"|.	c #863D0C",
"1.	c #2F2F2F",
"2.	c #3C3C3C",
"3.	c #444444",
"4.	c #3F3F3E",
"5.	c #202020",
"6.	c #3E3E3E",
"7.	c #B3B3B3",
"8.	c #E9E9E9",
"9.	c #EBEBEB",
"0.	c #E6E6E6",
"a.	c #DFE1DF",
"b.	c #666766",
"c.	c #373837",
"d.	c #F3F3F3",
"e.	c #EDEDED",
"f.	c #DDDDDD",
"g.	c #CECECE",
"h.	c #CFCFCF",
"i.	c #EBEDEC",
"j.	c #E5E7E6",
"k.	c #DDE0DE",
"l.	c #D2D6D2",
"m.	c #8F9290",
"n.	c #737674",
"o.	c #C1C1C1",
"p.	c #E8E8E8",
"q.	c #D5D6D5",
"r.	c #BDBDBD",
"s.	c #777777",
"t.	c #5B5B5A",
"u.	c #363736",
"v.	c #232323",
"w.	c #B7B7B7",
"x.	c #F6F6F6",
"y.	c #E1E1E1",
"z.	c #D3D3D3",
"A.	c #DADADA",
"B.	c #D6D6D6",
"C.	c #4E4F4F",
"D.	c #7D7D7D",
"E.	c #DCDCDC",
"F.	c #E4E4E4",
"G.	c #BBBEBB",
"H.	c #A6A7A6",
"I.	c #E7E7E7",
"J.	c #F9F9F9",
"K.	c #CACACA",
"L.	c #9B9B9A",
"M.	c #858685",
"N.	c #303030",
"O.	c #CECFCE",
"P.	c #F8F8F8",
"Q.	c #FCFCFC",
"R.	c #DBDBDB",
"S.	c #D0D0D0",
"T.	c #C6C6C6",
"U.	c #848484",
"V.	c #C0C0C0",
"W.	c #CECECD",
"X.	c #999A99",
"Y.	c #FAFAFA",
"Z.	c #F4F4F4",
"`.	c #D5D5D5",
" +	c #B7B9B7",
".+	c #828582",
"++	c #454646",
"@+	c #0C0C0C",
"#+	c #A5A5A5",
"$+	c #FBFBFB",
"%+	c #D8D8D8",
"&+	c #DEDEDE",
"*+	c #BBBBBB",
"=+	c #E0E0E0",
"-+	c #A8AAA9",
";+	c #ACAEAC",
">+	c #757876",
",+	c #3D3D3D",
"'+	c #707070",
")+	c #EAEAEA",
"!+	c #DFDFDF",
"~+	c #D1D1D1",
"{+	c #ADAFAE",
"]+	c #ACAFAD",
"^+	c #666867",
"/+	c #050505",
"(+	c #353535",
"_+	c #B1B1B1",
":+	c #B8BBB9",
"<+	c #A0A3A0",
"[+	c #696A69",
"}+	c #CFCECE",
"|+	c #BEC1BE",
"1+	c #7F827F",
"2+	c #131313",
"3+	c #5A5A5A",
"4+	c #FEFEFE",
"5+	c #FDFDFD",
"6+	c #CDCDCD",
"7+	c #CCCCCC",
"8+	c #B1B3B1",
"9+	c #7B7E7B",
"0+	c #1F1F1F",
"a+	c #272726",
"b+	c #FFFFFF",
"c+	c #C9C9C9",
"d+	c #B1B2B1",
"e+	c #A3A5A4",
"f+	c #222323",
"g+	c #0F0F0F",
"h+	c #CDCDCC",
"i+	c #F6F6F5",
"j+	c #C4C4C4",
"k+	c #A4A4A4",
"l+	c #999B9A",
"m+	c #0A0B0B",
"n+	c #060606",
"o+	c #D2D2D3",
"p+	c #EDEDEC",
"q+	c #CACBCA",
"r+	c #B8B8B8",
"s+	c #B2B2B2",
"t+	c #9C9D9D",
"u+	c #979797",
"v+	c #000000",
"w+	c #040404",
"x+	c #CBCBCB",
"y+	c #EDEEED",
"z+	c #CCCDCC",
"A+	c #C3C3C3",
"B+	c #B4B4B4",
"C+	c #AFAFAF",
"D+	c #A1A1A1",
"E+	c #969695",
"F+	c #9A9B9A",
"G+	c #C8C8C8",
"H+	c #F5F5F4",
"I+	c #C2C2C2",
"J+	c #BCBCBC",
"K+	c #B6B6B6",
"L+	c #AAABAA",
"M+	c #A7A7A7",
"N+	c #989998",
"O+	c #A1A2A1",
"P+	c #929392",
"Q+	c #A1A4A2",
"R+	c #E5E6E5",
"S+	c #DFE0DF",
"T+	c #C2C3C2",
"U+	c #C4C5C4",
"V+	c #A6A7A7",
"W+	c #9E9F9E",
"X+	c #9D9F9D",
"Y+	c #828482",
"Z+	c #030303",
"`+	c #848684",
" @	c #BBBCBB",
".@	c #C7C7C7",
"+@	c #E1E2E1",
"@@	c #E3E3E4",
"#@	c #A9AAA9",
"$@	c #A4A5A5",
"%@	c #9C9D9C",
"&@	c #9EA09E",
"*@	c #A9ABAA",
"=@	c #ADB0AE",
"-@	c #5A5C5A",
";@	c #8F928E",
">@	c #454745",
",@	c #9FA1A0",
"'@	c #C0C2C0",
")@	c #ADADAD",
"!@	c #D4D5D4",
"~@	c #DADBDA",
"{@	c #D8D9D8",
"]@	c #ACACAC",
"^@	c #9C9C9C",
"/@	c #A3A4A3",
"(@	c #9FA09F",
"_@	c #A2A3A2",
":@	c #A8AAA8",
"<@	c #B5B7B5",
"[@	c #8D908E",
"}@	c #5E615E",
"|@	c #070808",
"1@	c #717472",
"2@	c #AEB1AF",
"3@	c #B6B7B6",
"4@	c #ACADAC",
"5@	c #BABABA",
"6@	c #D2D3D2",
"7@	c #CACCCA",
"8@	c #D0D2D0",
"9@	c #CDCFCD",
"0@	c #D7D8D7",
"a@	c #DEDFDE",
"b@	c #9E9E9E",
"c@	c #A2A2A2",
"d@	c #A3A3A3",
"e@	c #9A9A9A",
"f@	c #A0A1A0",
"g@	c #A4A5A4",
"h@	c #AFB2AF",
"i@	c #BBBEBC",
"j@	c #9EA19F",
"k@	c #5F615F",
"l@	c #2A2C2B",
"m@	c #7A7D7B",
"n@	c #ADB1AE",
"o@	c #B4B7B5",
"p@	c #B0B3B1",
"q@	c #AEAFAF",
"r@	c #ABABAB",
"s@	c #B3B4B3",
"t@	c #B2B3B2",
"u@	c #BCBEBC",
"v@	c #B8BAB8",
"w@	c #B4B7B4",
"x@	c #C3C5C3",
"y@	c #C7C9C7",
"z@	c #C5C6C5",
"A@	c #C7C8C8",
"B@	c #CBCBCC",
"C@	c #CDCECC",
"D@	c #A6A6A6",
"E@	c #9B9C9B",
"F@	c #9E9F9D",
"G@	c #A7A9A8",
"H@	c #B3B6B3",
"I@	c #B9BDBA",
"J@	c #AFB3B0",
"K@	c #606261",
"L@	c #2D2E2E",
"M@	c #787B79",
"N@	c #B1B5B2",
"O@	c #B7BBB8",
"P@	c #B5B8B6",
"Q@	c #B0B4B1",
"R@	c #A6A8A6",
"S@	c #A3A5A3",
"T@	c #9FA19F",
"U@	c #A0A2A0",
"V@	c #9C9E9C",
"W@	c #989A98",
"X@	c #AAACAA",
"Y@	c #ABADAB",
"Z@	c #A0A3A1",
"`@	c #B9BCBA",
" #	c #B0B1B0",
".#	c #AEAFAE",
"+#	c #AFB0AF",
"@#	c #ADAEAD",
"##	c #ABACAB",
"$#	c #A5A6A4",
"%#	c #9D9E9C",
"&#	c #999999",
"*#	c #969796",
"=#	c #9B9D9C",
"-#	c #A4A6A4",
";#	c #ADB0AD",
">#	c #BFC3C0",
",#	c #A7ABA8",
"'#	c #494B49",
")#	c #212121",
"!#	c #757875",
"~#	c #ABAFAC",
"{#	c #BABEBB",
"]#	c #B2B6B3",
"^#	c #A1A4A1",
"/#	c #8F928F",
"(#	c #8B8E8C",
"_#	c #868987",
":#	c #848784",
"<#	c #858885",
"[#	c #9DA09E",
"}#	c #A5A8A6",
"|#	c #A4A8A4",
"1#	c #A2A5A3",
"2#	c #A0A2A1",
"3#	c #9D9F9E",
"4#	c #9B9E9C",
"5#	c #999B99",
"6#	c #959896",
"7#	c #949694",
"8#	c #9A9D9B",
"9#	c #999C9A",
"0#	c #9A9C9B",
"a#	c #929493",
"b#	c #8B8D8B",
"c#	c #969997",
"d#	c #A1A3A1",
"e#	c #A2A5A2",
"f#	c #A5A8A5",
"g#	c #AAADAA",
"h#	c #B5B9B6",
"i#	c #C4C9C5",
"j#	c #383838",
"k#	c #242525",
"l#	c #7B7E7C",
"m#	c #999D9A",
"n#	c #999E9A",
"o#	c #848885",
"p#	c #5A5C5B",
"q#	c #5F6260",
"r#	c #606361",
"s#	c #6E716F",
"t#	c #727573",
"u#	c #797D7A",
"v#	c #828683",
"w#	c #8F9390",
"x#	c #989C99",
"y#	c #9B9E9B",
"z#	c #949794",
"A#	c #898C89",
"B#	c #7D807D",
"C#	c #7F8380",
"D#	c #7A7E7B",
"E#	c #808381",
"F#	c #858886",
"G#	c #7F817F",
"H#	c #7A7C7A",
"I#	c #808280",
"J#	c #939694",
"K#	c #8F918F",
"L#	c #8A8D8B",
"M#	c #818582",
"N#	c #898D8A",
"O#	c #1B1C1B",
"P#	c #010101",
"Q#	c #020302",
"R#	c #0B0C0B",
"S#	c #181918",
"T#	c #080909",
"U#	c #2B2C2B",
"V#	c #505250",
"W#	c #545854",
"X#	c #3B3D3B",
"Y#	c #595B59",
"Z#	c #414342",
"`#	c #2A2A2A",
" $	c #2C2E2C",
".$	c #060706",
"                                                                                                ",
"                                                                                                ",
"                                                                                                ",
"                                                . . . . . . . . .                               ",
"                                            . . + @ # $ % & * = - . .                           ",
"                                        . . ; > > , ' ) $ % ! * = ~ { . .                       ",
"                                      . ] ^ ^ / ( > ' ) @ % & ! _ - : < [ .                     ",
"                                    . } ^ | ^ / } > > ' @ $ & ! _ = : { < [ .                   ",
"                                  . } 1 2 3 2 ^ ^ ( > ' ) $ & ! _ = : { < 4 5 .                 ",
"                                . ( 6 2 3 7 3 2 / ] > ; ) + % ! * = ~ { 8 9 0 a .               ",
"                              . ; / / | 2 3 2 | ^ b , ; ) + % ! _ = : { < 4 5 c d .             ",
"                            . ) > | 6 / e > f g h i j ' k + % ! _ = : { 8 4 0 a d l .           ",
"                            . ) ; ^ m b n o p q r s t u v w % ! * x y { 8 9 5 z d A .           ",
"                          . B ) ' C D E F G H I J K L M N O P ! * x : Q 8 R z S T A U .         ",
"                          . B + ) V W X Y H Z `  ...+.+.+.+.@.#.9 x : Q 8 R z c T A $..         ",
"                %.&.. *.=.-.;.>.,.'.).!.~.{.].^./.(._.:.<.[.+.+.}.z |.1.2.3.4.c T A $..         ",
"            5.6.7.8.~.I ~.9.0.a.b.c.` Z d.e.f.(.g.g.h.].i.j.k.l.m.n.o.p.8.q.r.s.t.u.$..         ",
"          v.w.p.H x.H ~.y.z.h.A.B.C.D.y.8. .h.h.h.h.h.g.B.E.F.G.H.I.J.d.e.K g.K.L.M.t..         ",
"        N.O.P.Q.P.Z J R.B.(.S.g.g.T.U.V.f.B.B.B.B.B.B.S.g.g.W.X.~.Y.Z.y.B.B.`.g.h. +.+++        ",
"      @+#+P.$+Z.Y %+&+J J &+ .(.(.(.z.K.J J J J J J J  .(.(.*+p.Z.H ` R.=+J B.h.g.-+;+>+,+      ",
"      '+)+d.Z.].%+&+)+e.e.)+F.!+&+!+J 8.e.q q q q q q F.!+&+=+9.e.y.J 0.Y 0. .~+g.f.{+]+^+/+    ",
"    (+_+e.q Z f.=+)+H {.{.H ~.)+)+9.e.d.{.{.{.{.{.{.{.~.9.)+e.9.Y F.e.!.{.d.F.E.~+g.B.:+<+c.    ",
"    [+!+9.p.I.y.)+H $+Q.Q.$+J.H Z.x.{.Y.Q.Q.Q.Q.Q.Q.Q.J.x.Z.H I ~.e.{.J.P.Y.q &+K ~+}+~+|+1+2+  ",
"  3+o.e.y.].9.9.x.$+4+4+4+4+Q.$+$+Q.Q.5+4+4+4+4+4+4+4+Q.Q.$+Y.J.P.{.Q.5+Z.Q.J.!+%+z.6+g.7+8+9+0+",
"  a+ .B.%+0.q x.$+4+4+4+5+Y.J.P.Q.Q.Q.Q.5+4+4+4+4+4+b+4+4+5+5+5+Q.Q.4+4+I P.I f.%+^.c+c+g.d+e+f+",
"  g+K.h+`.].Z {.Q.4+4+4+5+P.x.Z.Z.i+{.J.$+5+4+4+4+4+4+4+4+4+4+4+4+4+Q.5+e.!.I.^.A.h.j+V.h+k+l+m+",
"  n+#+W.o+J I P.Y.Q.Q.Q.$+d.H {.P.{.x.J.Y.J.$+Q.Q.Q.4+4+4+4+4+4+Q.Y.J.Z ].p+f.q+`.6+r.r+s+t+u+v+",
"  w+x+x+~+J !.I Z.{.{.{.Z.~.Z.d.P.x.J.J.y+e.x.P.{.J.$+Q.Q.Q.J.x.x.x.i+9.&+&+z+A+K.j+B+C+D+u+E+v+",
"  v+F+G+W.%+8.)+e.q ~.!.Z ~.!.~.Z.{.I y+I.p.~.Z.Z.x.J.Y.$+J.J.x.H+I I y.z.S.I+*+J+K+L+M+N+O+P+v+",
"  v+Q+c+K.S.E.F.e.q ~.q Y Y d.I ~.8.].R+S+0.I d.!.d.x.P.P.x.Y.H I )+J g.T+U+r+_+7.V+W+X+W+;+Y+Z+",
"  v+`+ @x+.@S.R.9.)+)+Z 9.8.p.0.8.I.+@S+S+R+I d.Z 9.!.!.H d.Z p.@@&+g.J+*+w.#@#@$@W+%@&@*@=@-@;@",
"    >@,@'@)@g.g.(.J y.p.` ` K F.].!@~@{@~@+@p.F.y.F.I.8.p.)+J y.%+S.r.]@s+^@O+/@(@(@_@:@<@[@}@  ",
"    |@1@2@:+3@4@5@z.f.K /.6+q.6@U+7@8@9@!@0@a@A. .0@K ^.(.R.%+B.A+C+b@c@d@e@f@_@g@H.h@i@j@k@    ",
"      l@m@n@o@p@=@q@d+r@f@g@s@3@t@u@v@w@x@y@!@z+z@A@7+B@C@W.j+7.D@E@X.b@F@_@L+G@L+H@I@J@K@      ",
"        L@M@N@O@P@Q@;+R@S@T@U@V@W@X@Y@Z@p@`@ #.#+#@# ###$#%#X.&#u+*#=#O+-#-+Y@;#w@>#,#'#        ",
"          )#!#~#J@{#]#^#/#(#_#:#<#[@[#}#|#1#2#3#4#5#6#7#8#9#0#a#b#c#d#S@e#f#g#J@h#i#j#          ",
"            0+k#l#m#n#o#p#q#r#s#t#u#v#w#x#y#z#A#u#B#C#D#E#F#G#H#I#J#K#L#I#M#N#n#O#P#            ",
"                v+v+v+v+v+v+v+Q#R#S#T#v+v+v+v+v+v+v+U#V#W#X#Y#q#Z#`# $.$v+v+v+v+                ",
"                                                                                                ",
"                                                                                                ",
"                                                                                                ",
"                                                                                                ",
"                                                                                                ",
"                                                                                                ",
"                                                                                                ",
"                                                                                                ",
"                                                                                                ",
"                                                                                                "};
