/* XPM */
static char * suncloud_mini_xpm[] = {
"16 16 119 2",
"  	c None",
". 	c #CFD4D0",
"+ 	c #CED3CF",
"@ 	c #D9D0A0",
"# 	c #EBC755",
"$ 	c #F0BF43",
"% 	c #EFB344",
"& 	c #E8AF60",
"* 	c #D5C6B0",
"= 	c #CFD3CC",
"- 	c #E5D16B",
"; 	c #FBD811",
"> 	c #FCD00F",
", 	c #FCC00F",
"' 	c #FCAE10",
") 	c #FC9D11",
"! 	c #F98E1C",
"~ 	c #DFB087",
"{ 	c #CFD3CF",
"] 	c #E0CC82",
"^ 	c #FBD411",
"/ 	c #FCDF0E",
"( 	c #FCD30F",
"_ 	c #FCC30F",
": 	c #FCB010",
"< 	c #FC8B12",
"[ 	c #FA7C1B",
"} 	c #D7BBA5",
"| 	c #CFD4CF",
"1 	c #F7BE23",
"2 	c #FCCA0F",
"3 	c #FACB18",
"4 	c #F7CE59",
"5 	c #F6C25A",
"6 	c #EDAE50",
"7 	c #FC8912",
"8 	c #FD7614",
"9 	c #EE8A50",
"0 	c #D4D7D1",
"a 	c #E7E7E7",
"b 	c #D9DAD9",
"c 	c #DADCDB",
"d 	c #E9E3CF",
"e 	c #D8D8D8",
"f 	c #CDCDCD",
"g 	c #D2D3D2",
"h 	c #DADCDA",
"i 	c #EFD2BB",
"j 	c #E0E0E0",
"k 	c #D1D2D1",
"l 	c #CCD0CC",
"m 	c #E2E5E2",
"n 	c #E3E4E3",
"o 	c #D6D6D6",
"p 	c #D9D9D9",
"q 	c #E1E1E1",
"r 	c #E2E2E2",
"s 	c #DBDBDB",
"t 	c #D4D4D4",
"u 	c #D3D3D3",
"v 	c #DEDEDE",
"w 	c #D1D1D1",
"x 	c #BDC0BE",
"y 	c #CDD2CE",
"z 	c #E2E4E2",
"A 	c #DADADA",
"B 	c #F2F2F2",
"C 	c #FAFAFA",
"D 	c #F4F4F4",
"E 	c #F6F6F6",
"F 	c #FBFBFB",
"G 	c #F7F7F7",
"H 	c #F1F1F1",
"I 	c #F0F0F0",
"J 	c #F8F8F8",
"K 	c #E6E6E6",
"L 	c #CFCFCF",
"M 	c #C5C9C6",
"N 	c #D5D8D6",
"O 	c #ECECEC",
"P 	c #FCFCFC",
"Q 	c #F5F5F5",
"R 	c #FDFDFD",
"S 	c #FEFEFE",
"T 	c #EBEBEB",
"U 	c #B2B3B2",
"V 	c #D4D5D4",
"W 	c #DDDDDD",
"X 	c #EAEAEA",
"Y 	c #D7D7D7",
"Z 	c #E5E5E5",
"` 	c #EDEDED",
" .	c #E9E9E9",
"..	c #BBBBBB",
"+.	c #A1A2A1",
"@.	c #C7CBC8",
"#.	c #C0C1C0",
"$.	c #CECECE",
"%.	c #C8C8C8",
"&.	c #AAAAAA",
"*.	c #AFAFAF",
"=.	c #C9C9C9",
"-.	c #CACACA",
";.	c #9FA09F",
">.	c #ABADAB",
",.	c #C2C6C2",
"'.	c #C6CAC7",
").	c #B7BAB7",
"!.	c #B8BBB9",
"~.	c #C4C8C5",
"{.	c #C0C4C1",
"].	c #AFB1B0",
"^.	c #B5B7B6",
"/.	c #AFB0AF",
"(.	c #B3B6B4",
"_.	c #C6CAC6",
":.	c #CCD1CD",
"<.	c #C9CECA",
"[.	c #C5CAC6",
". . . . . . . . . . . . . . . . ",
". . . . + @ # $ % & * + . . . . ",
". . . = - ; > , ' ) ! ~ { . . . ",
". . + ] ^ / ( _ : ) < [ } | . . ",
". . = 1 2 > 3 4 5 6 7 8 9 { . . ",
". . 0 a b c d e f g h i j k l + ",
". m n e j o p q r s t u v w x y ",
"z o A B C D E F F G H I J K L M ",
"N w O P P Q Q F R S R P G T o U ",
"y V W X a Y Y Z ` Q Q  .A w ..+.",
"+ @.#.$.%.&.*.=.w Y Y -.*.;.>.,.",
". + '.).>.!.~.{.].^./.+.(._.:.+ ",
". . + y :.+ . + y <.[.@.y + . . ",
". . . . . . . . . . . . . . . . ",
". . . . . . . . . . . . . . . . ",
". . . . . . . . . . . . . . . . "};
