/* XPM */
static char * suncloud_xpm[] = {
"48 48 151 2",
"  	c None",
". 	c #FE6614",
"+ 	c #FEB614",
"@ 	c #FEDE0C",
"# 	c #B2B6B4",
"$ 	c #929294",
"% 	c #DECA8C",
"& 	c #FE8E14",
"* 	c #C6CAC4",
"= 	c #FECA0C",
"- 	c #CED6CC",
"; 	c #FEA214",
"> 	c #D2CAB4",
", 	c #DADEDC",
"' 	c #F67A34",
") 	c #A2A6A4",
"! 	c #EACA5C",
"~ 	c #EEF2F4",
"{ 	c #EEBA44",
"] 	c #E2B684",
"^ 	c #FED60C",
"/ 	c #D2D2BC",
"( 	c #FEC20C",
"_ 	c #BEC2BC",
": 	c #EAA264",
"< 	c #FA861C",
"[ 	c #FA9A1C",
"} 	c #FED20C",
"| 	c #EAEAEC",
"1 	c #AAAEAC",
"2 	c #D6CAA4",
"3 	c #CAD2CC",
"4 	c #D2CAC4",
"5 	c #9A9E9C",
"6 	c #EE9244",
"7 	c #FE8214",
"8 	c #FE7214",
"9 	c #FEBE0C",
"0 	c #BABEBC",
"a 	c #CECECC",
"b 	c #F6CE24",
"c 	c #D6D6D4",
"d 	c #FEAE14",
"e 	c #E2E6E4",
"f 	c #FA7A1C",
"g 	c #FAFAFC",
"h 	c #C6CECC",
"i 	c #D2CEBC",
"j 	c #F6D624",
"k 	c #FEC60C",
"l 	c #C6C6C4",
"m 	c #DEAE8C",
"n 	c #B2B2B4",
"o 	c #D6CEA4",
"p 	c #FEBA0C",
"q 	c #BABABC",
"r 	c #969A94",
"s 	c #FECE0C",
"t 	c #EEA244",
"u 	c #E2E2E4",
"v 	c #AAAAAC",
"w 	c #F6F6F4",
"x 	c #FEDA0C",
"y 	c #D2D2CC",
"z 	c #C2C6C4",
"A 	c #F28A3C",
"B 	c #AEB2AC",
"C 	c #EA925C",
"D 	c #FA7E14",
"E 	c #FE6E14",
"F 	c #FEE60C",
"G 	c #B6BAB4",
"H 	c #DED284",
"I 	c #FE9614",
"J 	c #CACACC",
"K 	c #D2D6D4",
"L 	c #FEAA14",
"M 	c #D6CABC",
"N 	c #DEE2DC",
"O 	c #A6AAA4",
"P 	c #F2F6F4",
"Q 	c #EEC244",
"R 	c #D6C6B4",
"S 	c #C2C2C4",
"T 	c #E6AA74",
"U 	c #FE8A14",
"V 	c #FE9E14",
"W 	c #FAD21C",
"X 	c #EAEEEC",
"Y 	c #D2CEC4",
"Z 	c #A2A2A4",
"` 	c #FA761C",
" .	c #D6DADC",
"..	c #FAC61C",
"+.	c #D6CEAC",
"@.	c #FABA1C",
"#.	c #FE6A14",
"$.	c #FEE20C",
"%.	c #B6B6B4",
"&.	c #969694",
"*.	c #E2CE7C",
"=.	c #FE9214",
"-.	c #C6CACC",
";.	c #FECA14",
">.	c #CED6D4",
",.	c #FEA614",
"'.	c #D2CABC",
").	c #DEDEDC",
"!.	c #F27E34",
"~.	c #A6A6A4",
"{.	c #EACE64",
"].	c #F2F2F4",
"^.	c #DAB6A4",
"/.	c #FED614",
"(.	c #D2D2C4",
"_.	c #FEC214",
":.	c #BEC2C4",
"<.	c #FE8614",
"[.	c #FE9A14",
"}.	c #FED214",
"|.	c #AEAEAC",
"1.	c #D6CAAC",
"2.	c #CED2CC",
"3.	c #9E9E9C",
"4.	c #EE9254",
"5.	c #FEBE14",
"6.	c #BEBEBC",
"7.	c #FACE1C",
"8.	c #FEB214",
"9.	c #E6C664",
"0.	c #E2AA8C",
"a.	c #DAB294",
"b.	c #FEFEFC",
"c.	c #FE7A14",
"d.	c #D6CEB4",
"e.	c #DACE9C",
"f.	c #9A9A9C",
"g.	c #FE7614",
"h.	c #E6E6E4",
"i.	c #CACECC",
"j.	c #FE7E14",
"k.	c #EEEEEC",
"l.	c #DADADC",
"m.	c #FEC614",
"n.	c #FEBA14",
"o.	c #FECE14",
"p.	c #FEDA14",
"q.	c #D2D2D4",
"r.	c #AEB2B4",
"s.	c #EA9264",
"t.	c #D2CECC",
">.- >.- >.- >.- >.- >.- >.- >.- >.- >.- >.- >.- >.- >.- >.- >.- >.- >.- >.- >.- >.- >.- >.- >.- ",
"y q.y q.y q.y q.y q.y q.y q.y q.y q.y q.y q.y q.y q.y q.y q.y q.y q.y q.y q.y q.y q.y q.y q.y q.",
"- >.- >.- >.- >.- >.- >.- >.- >.- >.- >.- >.- >.- >.- >.- >.- >.- >.- >.- >.- >.- >.- >.- >.- >.",
"2.2.2.2.2.2.2.2.2.2.2.2.2.2.2.2.2.2.2.i i +.1.2 2 R M > a 2.2.2.2.2.2.2.2.2.2.2.2.2.2.2.2.2.2.y ",
">.>.>.>.>.>.>.>.>.>.>.>.>.>.2.2.y e.9.@.p n.+ 8.d ,.V [.t ] '.2.2.2.>.>.>.>.>.>.>.>.>.>.>.>.>.>.",
"q.y q.y q.y q.y q.y q.q.2.2.2.e.{...= = k ( 9 + 8.L ,.V [ =.t T Y >.2.q.y q.y q.y q.y q.y q.2.y ",
">.- >.- >.- >.- >.- - 2.q.(.H b ^ ^ } 7.= ( 9 p 8.d L ; [.I & < : R a - - >.- >.- >.- >.- >.>.- ",
"2.2.2.2.2.2.2.2.2.2.2.2.+.{.W ^ x ^ } W = = ( p + d L ; V I =.& < 6 m a 2.2.2.2.2.2.2.2.2.y 2.q.",
">.>.>.>.>.>.>.>.>.2.K / ! W p.@ $.@ ^ ^ 7.= ( 9 + d L ; V I =.& <.D A a.2.2.>.>.>.>.>.>.>.>.- >.",
"y q.y q.y q.y q.q.>.2.*.7.j @ $.F $.@ } b = ..9 @.8.L ,.V [ =.U 7 j.f 4.R K q.q.y q.y q.2.q.2.y ",
"- >.- >.- >.- - 2.2.% ..} } x @ $.@ x ^ s k ( 9 + 8.L ; V I =.& <.D g.8 C '.2.>.- >.- >.- >.>.>.",
"2.2.2.2.2.2.2.2.2.i Q = s j x j @ x j } b = ( @.@.d L ,.V [ =.U <.j.f 8 !.a.2.2.2.2.2.q.2.y 2.y ",
">.>.>.>.>.>.>.>.- % 9 ..= s ^ j ^ ^ } s = ..9 @.8.L ,.; [ I =.U 7 D c.8 #.s.4 2.>.>.- >.>.>.>.- ",
"q.y q.y q.y q.y 2.{ 9 ( ..s s s W } 7.= ..( 9 @.8.d ,.V V I & U 7 c.` E #.' ^.K q.q.2.y 2.y 2.q.",
">.- >.- >.- >.2.i d @.9 ( ..= = = = = {.( - ~ g g X  .3 3 3 & U 7 c.g.E #.. 0.3 - >.>.>.>.>.- >.",
"2.2.2.2.2.2.2.>.o , ~ b.b.P >.- 3 - ( | b.b.~ - z z - 0 3 3 3 3 3 c.8 e w b.w u 2.2.2.y 2.q.2.y ",
">.>.>.>.>.>.2.2. .b.~  .i.3 l.N X P b.b.N a a a i.a a a e | e N K - b.b.| K a c c i.3 2.2.>.>.>.",
"q.y q.y q.2.>.- ~ ].a a a a a a l.,  .a a a a 2.y a a a a c ).u X P b.2.a a 2.a t.J l h 3 2.2.y ",
">.- >.- K 2.l.].b.).a y c c c a a a a t.q.c c c c c c c 2.a a a a a a a q.q.c K a a %.z i.2.>.>.",
"2.2.2.2., b.b.].l.a c ).u u ).l.q.q.K c ).u u u u u u u l.q.c q.t.a a c l.u u c a a v G l 3 2.y ",
">.>.>.].b.~ y a a q.).| k.X | h.).).N u | | k.k.k.k.k.k.h.).).).l.c c u h.| h.l.q.a l.r.6.i.3 >.",
"y q.w b.l.a a a K ).| w w w w k.| | | k.].g w g g w w w k.| | h.h.h.u k.].w k.u  .q.t.K 0 -.2.2.",
"- k.b.c a a c c u | ].b.g g b.g w ].w w g g g g b.b.g b.g w w ].k.~ | w g b.g ].e  .t.a 2.0 l 3 ",
"2.g l.a a c u h.| w b.b.b.b.b.b.g b.g b.g b.b.b.b.b.b.b.b.g g g g w g b.b.b.b.g ].| ).q.t.J 0 l ",
"K b.l a q.c u k.w g b.b.b.b.b.g g b.g b.b.b.b.b.b.b.b.b.b.b.b.b.b.g g b.b.g g g w k.u c t.a r.q ",
"2.X S a a c u k.w g b.b.b.g g g w w g w w g b.b.b.b.b.b.b.b.b.b.b.b.b.g g g w k.k.X u c a a 3.O ",
"2.2.c a q.c u k.g w b.b.b.g w k.k.k.k.k.k.].g g b.g g b.b.b.b.b.b.b.b.g w k.| u u u l.K a -.f.3.",
"K 2.a q.a c ).| k.].w w w w k.u u u u u h.| ].g w w g g b.g g g b.w w k.k.u u c c c c a a $ &.Z ",
">.>.2.k.a q.c ).u h.k.k.k.| u c c c c c c , h.k.k.k.].w g g g w w ].k.u u c c t.a a a J &.r 3.O ",
"q.2.3 K c a q.q.c l.u u u l.c a a t.2.a 2.q.l.u u u u | k.k.k.k.k.u u c c t.t.a a a a &.r Z |.q ",
"2.q.2.i.n q.t.a q.q.c c c c t.a a a a a t.a q.c c c l.).u u u u u c c q.2.a i.&.&.&.f.f.Z 1 0 * ",
">.>.>.2.i.:.1 a a a t.a q.a a $ &.&.&.&.3.a a q.a q.a q.c c c c c q.a a a &.&.&.5 Z ~.v |.0 * i.",
"2.2.>.2.i.J :.r.~.0 a a a -.$ &.3.Z ~.~.v ) S a J a t.a a a q.t.a a a $ $ &.3.~.1 # G :.:.* 3 2.",
">.>.2.2.2.3 * :.G r.O Z f.f.3.Z v %.0 0 q 0 %.r.~.3.v J a a a a a Z $ f.3.~.1 %.6.-.h -.i.3 2.>.",
"q.>.>.>.2.3 i.h l S G # 1 v 1 # 0 z -.h -.h l _ # 1 v ~.~.3.5 f.f.f.5 ) 1 q :.-.i.a 2.2.2.2.q.- ",
"- q.2.q.>.q.2.2.3 h -.z :.0 :.z -.i.2.2.2.2.3 -.z :.0 q # |.v ~.~.v |.# 6.z h 3 3 2.- >.2.>.- q.",
"- K - y >.>.2.2.2.2.2.i.i.-.h 3 2.>.2.>.2.2.>.2.2.i.h -.z :.:.0 0 0 S -.h i.2.2.>.q.2.K q.2.>.- ",
"2.2.2.>.2.q.K K K >.2.2.- 2.2.2.>.2.>.2.>.>.q.>.2.2.2.2.3 i.i.i.h -.i.i.i.2.2.q.2.- K 2.- >.2.q.",
">.>.2.>.- 2.2.2.2.>.K 2.>.2.2.2.>.2.K 2.y - 2.>.>.K >.2.>.2.2.2.2.3 >.>.K >.>.>.2.2.>.2.q.>.- >.",
"2.q.>.q.2.>.>.>.K 2.2.>.q.K >.K 2.K 2.K >.2.K 2.2.2.2.K 2.>.>.>.>.K 2.y 2.q.2.q.>.>.2.>.- y 2.y ",
"- y >.>.2.2.2.2.K >.2.>.2.q.2.K 2.>.2.2.>.2.K >.>.>.2.>.2.2.y y 2.K >.>.- >.- q.2.K q.2.>.>.>.>.",
"2.>.2.q.K K K >.2.2.K 2.>.- >.2.>.2.>.>.q.>.2.y 2.q.>.y >.>.>.>.>.2.2.2.2.q.2.- K 2.- >.2.y 2.y ",
"2.>.- 2.2.2.2.>.K 2.>.2.2.2.>.2.K 2.y - 2.>.>.K - 2.>.y y 2.2.2.>.>.K >.- >.2.2.>.2.q.>.>.>.>.>.",
">.q.2.>.>.>.K 2.2.>.q.K >.K 2.K 2.K >.2.K 2.2.2.2.K 2.>.>.>.>.K 2.y 2.q.2.q.>.>.2.>.- y 2.y 2.y ",
"- >.2.2.2.2.K >.2.- 2.q.2.K 2.>.2.2.>.2.K >.>.>.2.>.2.2.y y 2.K >.>.- >.- q.2.K y 2.>.>.>.>.>.- ",
"2.q.K K K >.2.2.K 2.>.- >.2.>.2.>.>.q.>.2.q.2.y >.q.>.>.>.>.>.2.2.2.2.q.2.- K 2.>.>.2.y 2.y 2.q.",
"- 2.2.2.2.>.K 2.>.2.2.2.>.2.K 2.y - 2.>.- K >.2.- y y 2.2.2.>.>.K >.- >.2.2.>.2.q.>.>.>.>.>.- >.",
"2.>.>.>.K 2.2.>.q.K >.K 2.K 2.K >.2.K 2.2.2.2.K 2.>.>.>.>.K 2.y 2.q.2.q.>.>.2.>.- y 2.y 2.q.2.y "};
