/* XPM */
static char * tstorm_xpm[] = {
"48 48 225 2",
"  	c None",
". 	c #F0F1F0",
"+ 	c #FDFDFD",
"@ 	c #EFF1F0",
"# 	c #D7DBD8",
"$ 	c #CED3CF",
"% 	c #D8DCD9",
"& 	c #CFD4D0",
"* 	c #EBEDEB",
"= 	c #FFFFFF",
"- 	c #F1F1F1",
"; 	c #D5D5D5",
"> 	c #C5C5C5",
", 	c #D4D4D4",
"' 	c #BFBFBF",
") 	c #CACFCB",
"! 	c #CCD1CD",
"~ 	c #E1E4E2",
"{ 	c #F7F7F7",
"] 	c #F6F7F7",
"^ 	c #E1E4E1",
"/ 	c #F2F2F2",
"( 	c #DDDDDD",
"_ 	c #CFCFCF",
": 	c #DCDCDC",
"< 	c #E2E2E2",
"[ 	c #EDEFED",
"} 	c #F4F5F4",
"| 	c #E1E1E1",
"1 	c #CECECE",
"2 	c #E5E5E5",
"3 	c #EBEDEC",
"4 	c #E5E7E6",
"5 	c #DDE0DE",
"6 	c #D3D7D3",
"7 	c #EAEAEA",
"8 	c #D6D6D6",
"9 	c #D7D7D7",
"0 	c #CBCFCC",
"a 	c #CCD0CD",
"b 	c #DADADA",
"c 	c #E4E4E4",
"d 	c #ECECEC",
"e 	c #F6F6F6",
"f 	c #C8C8C8",
"g 	c #C4C8C4",
"h 	c #C9CDCA",
"i 	c #CDD2CE",
"j 	c #F3F4F3",
"k 	c #D0D0D0",
"l 	c #D3D3D3",
"m 	c #D1D1D1",
"n 	c #B6B9B6",
"o 	c #C0C4C1",
"p 	c #CACECA",
"q 	c #DCDFDD",
"r 	c #D9D9D9",
"s 	c #DEDEDE",
"t 	c #D2D2D2",
"u 	c #DBDBDB",
"v 	c #E0E0E0",
"w 	c #A8AAA9",
"x 	c #C4C8C5",
"y 	c #CBD0CC",
"z 	c #F2F3F2",
"A 	c #EFEFEF",
"B 	c #EDEDED",
"C 	c #DFDFDF",
"D 	c #E9E9E9",
"E 	c #EEEEEE",
"F 	c #D8D8D8",
"G 	c #E6E6E6",
"H 	c #ADAFAE",
"I 	c #BDC1BE",
"J 	c #C9CECA",
"K 	c #F8F8F8",
"L 	c #F5F5F5",
"M 	c #F0F0F0",
"N 	c #EBEBEB",
"O 	c #F3F3F3",
"P 	c #E8E8E8",
"Q 	c #E3E3E3",
"R 	c #B8BBB9",
"S 	c #C5C9C6",
"T 	c #FBFBFB",
"U 	c #FCFCFC",
"V 	c #F9F9F9",
"W 	c #F4F4F4",
"X 	c #FAFAFA",
"Y 	c #BCBFBC",
"Z 	c #FEFEFE",
"` 	c #CCCCCC",
" .	c #BABDBB",
"..	c #C5C9C5",
"+.	c #ACAFAD",
"@.	c #B8BBB8",
"#.	c #A0A1A0",
"$.	c #C7C7C7",
"%.	c #989898",
"&.	c #9E9F9E",
"*.	c #CDCDCD",
"=.	c #959595",
"-.	c #E7E7E7",
";.	c #CBCBCB",
">.	c #949594",
",.	c #979897",
"'.	c #D0D4D1",
").	c #ACAEAC",
"!.	c #B3B3B3",
"~.	c #949494",
"{.	c #969696",
"].	c #989998",
"^.	c #9B9B9B",
"/.	c #A1A2A1",
"(.	c #ABADAC",
"_.	c #BABDBA",
":.	c #BFC2BF",
"<.	c #ADADAD",
"[.	c #F4F499",
"}.	c #9F9F9F",
"|.	c #9D9E9E",
"1.	c #A2A3A2",
"2.	c #A6A7A6",
"3.	c #AFB1AF",
"4.	c #C7CBC8",
"5.	c #BBBFBC",
"6.	c #AFB2B0",
"7.	c #A5A7A6",
"8.	c #BDBDBD",
"9.	c #C2C2C2",
"0.	c #A4A5A4",
"a.	c #B4B7B5",
"b.	c #B8BCB9",
"c.	c #C6CAC7",
"d.	c #BEC2BF",
"e.	c #B6B9B7",
"f.	c #AEB0AE",
"g.	c #A7A9A7",
"h.	c #F3F397",
"i.	c #F3F390",
"j.	c #B5B8B6",
"k.	c #ADB0AE",
"l.	c #9D9E9D",
"m.	c #AAAAAA",
"n.	c #A1A1A1",
"o.	c #BDC0BD",
"p.	c #C6CBC7",
"q.	c #CACECB",
"r.	c #F3F393",
"s.	c #F3F38C",
"t.	c #F3F385",
"u.	c #BCC0BD",
"v.	c #B3B6B4",
"w.	c #A4A6A5",
"x.	c #A3A4A3",
"y.	c #999A99",
"z.	c #999999",
"A.	c #9C9D9C",
"B.	c #A2A4A3",
"C.	c #B5B8B5",
"D.	c #C2C6C3",
"E.	c #F3F395",
"F.	c #F3F38E",
"G.	c #F3F387",
"H.	c #F2F280",
"I.	c #C8CDC9",
"J.	c #C3C7C4",
"K.	c #BBBEBC",
"L.	c #ADAFAD",
"M.	c #A9ABA9",
"N.	c #A7A8A7",
"O.	c #A8AAA8",
"P.	c #ACAEAD",
"Q.	c #F3F389",
"R.	c #F3F383",
"S.	c #F2F27C",
"T.	c #F2F275",
"U.	c #C7CCC8",
"V.	c #BFC3C0",
"W.	c #F2F27E",
"X.	c #F2F277",
"Y.	c #F2F270",
"Z.	c #F0F05F",
"`.	c #C8CCC9",
" +	c #F2F279",
".+	c #F2F273",
"++	c #F2F26C",
"@+	c #F1F165",
"#+	c #F1F15E",
"$+	c #F2F26E",
"%+	c #F1F167",
"&+	c #F1F160",
"*+	c #F1F159",
"=+	c #F1F153",
"-+	c #F0F04C",
";+	c #F1F169",
">+	c #F1F163",
",+	c #F1F15C",
"'+	c #F1F155",
")+	c #F0F04E",
"!+	c #F0F047",
"~+	c #F0F040",
"{+	c #EFEF39",
"]+	c #F1F157",
"^+	c #F0F050",
"/+	c #F0F049",
"(+	c #F0F043",
"_+	c #F0F03C",
":+	c #EFEF35",
"<+	c #EFEF2E",
"[+	c #F0F045",
"}+	c #F0F03E",
"|+	c #EFEF37",
"1+	c #EFEF30",
"2+	c #EFEF29",
"3+	c #EFEF23",
"4+	c #EFEF33",
"5+	c #EFEF2C",
"6+	c #EFEF25",
"7+	c #EFEF27",
"8+	c #EEEE4E",
"9+	c #EEEE43",
"0+	c #EDED38",
"a+	c #EDED40",
"b+	c #F3F396",
"                                                                                                ",
"                                            . + + @ # $ $                                       ",
"                  % . + + @ # $ $ $ & * = = - ; > > , ' ) !           ~ { = ] ^ $ $ $           ",
"                % + / ( _ _ : < [ } = = | 1 1 1 1 1 1 _ 2 3 4 5 6 $ + = 7 8 1 8 9 0 a ! $       ",
"                . / _ 1 1 1 1 1 b ( 9 1 1 _ _ _ _ _ _ _ 1 8 : c d e = _ 1 1 _ 1 1 f g h i $     ",
"            % j = ( 1 , 8 8 , k 1 1 1 _ l 8 8 8 8 8 8 8 k 1 1 1 1 1 1 1 m ; 8 ; 1 _ n o p i     ",
"        q + = / r 1 , s < < s r , , , 8 ( < < < < < < < r , , t m _ _ 8 u v < 8 _ 1 w n x y     ",
"      z = A _ 1 1 , s 7 B B 7 c C s C < D B E E E E E E c C s : b F 8 < G d 2 r m 1 ( H I J i   ",
"    K = u 1 1 k , s 7 L { { L M 7 7 N B O { { { { { { { M N 7 P 2 Q < B / e - 2 r m 1 8 R S a i ",
"  3 = , 1 m 8 r C 7 L T U U T V L W e { X U U U U U U U V e W O - A B { V U V - 2 r m 1 m Y S y ",
"  U b 1 _ 8 < c N L T Z Z Z Z U T T U U + Z Z Z Z Z Z Z U U T X V K { U + Z + T W D ( l 1 `  ...",
"  U > 1 _ 8 < E L T Z Z Z Z Z U U U U U U + Z Z Z Z Z = Z Z + + + U U Z Z U U { { B < 8 1 1 +.@.",
"  * > 1 _ 8 < E { U Z Z Z + U { { { { { K T + Z Z Z Z Z Z Z Z Z Z Z Z U U { e E E B < 8 1 1 #.w ",
"  i 9 1 _ 8 < E { V U U U T { E E E E E A W V U U U U Z Z Z Z Z Z U U { { E B < < < ( l 1 $.%.&.",
"    ) , 1 ; v N E / { { { W E < < < < < Q D O { { { V T U U U U U K { E E < | 8 8 8 , 1 *.=.%.&.",
"    y . 1 _ 8 C < G E E E D < 8 8 8 8 8 9 ( -.E E E M e { { { { { M E < < 8 8 _ _ _ 1 ;.>.,.#.w ",
"    i '.8 1 k , 8 u < < < ( 8 _ _ _ _ _ _ l u < < < c N E E E E E c < 8 8 _ 1 1 1 1 1 =.,.#.).@.",
"      y !.m 1 1 _ m 8 8 8 l _ 1 1 1 1 1 1 1 m 8 8 8 r C < < < < < F 8 _ _ 1 *.~.>.{.].^./.(._.g ",
"      i h :.<.1 1 1 _ _ _ 1 1 [.[.[.[.[.}._ 1 _ _ _ k , 8 8 8 8 8 k _ 1 1 ~.{.%.|.1.2.w 3. .S y ",
"        y 4.5.6.7.8.1 1 1 $.[.[.[.[.[.[.2.7.9.1 *.1 1 1 _ _ _ _ _ 1 1 ~.>.].|.0.).a.b.5.o c.! $ ",
"        $ y c.d.e.f.g.[.[.[.[.[.[.[.[.h.i.b.j.k.0.l.m.` 1 1 1 1 1 n.>.].l.0.).j.o.g p.h q.! i   ",
"          i y h x :.b.[.[.[.[.[.[.[.[.r.s.t.g u.v.).g.w.x.&.^.y.z.y.A.B.(.C.I ..p a i i $ $     ",
"            $ i y J p.D.[.[.[.[.[.[.E.F.G.H.y I.J.d.K.R v.L.M.N.g.O.P.a.o.J.I.a i $             ",
"                $ i ! y [.[.[.[.[.h.i.Q.R.S.T.i a ) h U.J.V.o.K.K.5.:.x I.y i $                 ",
"                      $ $ [.[.[.[.r.s.t.W.X.Y.Z.    $ i y ) J I.I.`.q.a ! $                     ",
"                              [.E.F.G.H. +.+++@+#+      $ $ i i i i $ $                         ",
"                                i.Q.R.S.T.$+%+&+*+=+-+                                          ",
"                                  t.W.X.Y.;+>+,+'+)+!+~+{+                                      ",
"                                     +.+++@+#+]+^+/+(+_+:+<+                                    ",
"                                      $+%+&+*+=+-+[+}+|+1+2+3+2+                                ",
"                          r.s.t.W.X.Y.;+>+,+'+)+!+~+{+4+5+6+7+<+:+                              ",
"                            G.H. +.+++@+#+]+^+/+                                                ",
"                                T.$+%+&+*+=+-+[+}+                                              ",
"                                    >+,+'+)+!+~+{+4+5+                                          ",
"                                    8+]+^+/+(+_+:+<+7+6+5+                                      ",
"                                        9+[+}+|+1+2+3+2+1+|+}+                                  ",
"                                            {+4+5+6+7+<+:+_+(+/+                                ",
"                                              0+7+6+5+4+{+~+!+)+'+,+                            ",
"                                                  a+1+|+}+[+-+=+*+&+%+                          ",
"                                                        (+/+^+]+#+@+++.+ +                      ",
"                                                            '+,+>+;+Y.X.W.t.                    ",
"                                                                %+$+T.S.R.Q.i.                  ",
"                                                                     +H.G.F.E.b+                ",
"                                                                        s.r.[.[.h.              ",
"                                                                          h.[.[.[.[.            ",
"                                                                              [.[.[.[.          ",
"                                                                                  [.[.[.        ",
"                                                                                                "};
