/* XPM */
static char * tstorm_mini_xpm[] = {
"16 16 101 2",
"  	c None",
". 	c #858585",
"+ 	c #919292",
"@ 	c #707270",
"# 	c #828382",
"$ 	c #DFDFDF",
"% 	c #D2D2D2",
"& 	c #DBDBDB",
"* 	c #DCDCDC",
"= 	c #D1D1D1",
"- 	c #D6D6D6",
"; 	c #DADBDA",
"> 	c #E2E3E2",
", 	c #D4D4D4",
"' 	c #CFD0CF",
") 	c #C7CBC7",
"! 	c #D1D2D2",
"~ 	c #D9D9D9",
"{ 	c #EBEBEB",
"] 	c #E0E0E0",
"^ 	c #E3E3E3",
"/ 	c #ECECEC",
"( 	c #EDEDED",
"_ 	c #E5E5E5",
": 	c #E8E8E8",
"< 	c #C0C2C1",
"[ 	c #878A87",
"} 	c #9C9C9C",
"| 	c #E4E4E4",
"1 	c #F8F8F8",
"2 	c #FDFDFD",
"3 	c #F9F9F9",
"4 	c #FAFAFA",
"5 	c #FCFCFC",
"6 	c #F7F7F7",
"7 	c #EEEEEE",
"8 	c #C1C3C1",
"9 	c #757675",
"0 	c #FBFBFB",
"a 	c #EFEFEF",
"b 	c #E1E1E1",
"c 	c #D3D3D3",
"d 	c #A6A7A7",
"e 	c #D0D1D0",
"f 	c #DDDDDD",
"g 	c #E2E2E2",
"h 	c #BBBBBB",
"i 	c #AAAAAA",
"j 	c #ACAEAC",
"k 	c #9C9F9D",
"l 	c #BABDBB",
"m 	c #C2C2C2",
"n 	c #CBCBCB",
"o 	c #CECEC9",
"p 	c #D4D4BF",
"q 	c #D2D2C2",
"r 	c #CCCCCC",
"s 	c #D0D0D0",
"t 	c #B6B6B6",
"u 	c #A1A2A1",
"v 	c #B9BDBA",
"w 	c #B2B6B3",
"x 	c #9DA19E",
"y 	c #C3C8C4",
"z 	c #BEC2BF",
"A 	c #D4D5B3",
"B 	c #E2E2AA",
"C 	c #DFDFAB",
"D 	c #D6D6A7",
"E 	c #B2B5B3",
"F 	c #A9ABA9",
"G 	c #ADB0AE",
"H 	c #C0C4C1",
"I 	c #9EA19E",
"J 	c #F3F38F",
"K 	c #F2F287",
"L 	c #F1F172",
"M 	c #E4E682",
"N 	c #A1A590",
"O 	c #878A88",
"P 	c #F1F170",
"Q 	c #F1F164",
"R 	c #F0F050",
"S 	c #EFEF3B",
"T 	c #F2F27A",
"U 	c #F1F16B",
"V 	c #F0F057",
"W 	c #A0A02E",
"X 	c #EFEF48",
"Y 	c #EFEF34",
"Z 	c #B9B920",
"` 	c #EEEE31",
" .	c #EFEF32",
"..	c #F0F047",
"+.	c #858533",
"@.	c #F1F161",
"#.	c #F1F169",
"$.	c #D7D76F",
"%.	c #F3F390",
"&.	c #D8D887",
"*.	c #878755",
"              . + @             ",
"    # $ % & * = = - ; > , ' )   ",
"  ! ~ $ { ] ^ / ( _ * & : , < [ ",
"} = | 1 2 3 4 2 2 5 1 6 5 7 , 8 ",
"9 = { 3 1 ( ( 6 0 2 2 3 a b c d ",
"  e , $ f = = & g / ( $ c h i j ",
"  k l m n o p q r s = t u j v w ",
"    x y z A B C D E F G H I     ",
"            J K L M N O         ",
"              P Q R S           ",
"            T U V W             ",
"                X Y Z           ",
"                  `  ...+.      ",
"                      @.#.$.    ",
"                          %.&.  ",
"                              *."};
