/* XPM */
static char * tstorm_xpm[] = {
"48 48 265 2",
"  	c None",
". 	c #F0F1F0",
"+ 	c #FDFDFD",
"@ 	c #EFF1F0",
"# 	c #D7DBD8",
"$ 	c #CED3CF",
"% 	c #D8DCD9",
"& 	c #CFD4D0",
"* 	c #EBEDEB",
"= 	c #FFFFFF",
"- 	c #F1F1F1",
"; 	c #D5D5D5",
"> 	c #C5C5C5",
", 	c #D4D4D4",
"' 	c #BFBFBF",
") 	c #CACFCB",
"! 	c #CCD1CD",
"~ 	c #E1E4E2",
"{ 	c #F7F7F7",
"] 	c #F6F7F7",
"^ 	c #E1E4E1",
"/ 	c #F2F2F2",
"( 	c #DDDDDD",
"_ 	c #CFCFCF",
": 	c #DCDCDC",
"< 	c #E2E2E2",
"[ 	c #EDEFED",
"} 	c #F4F5F4",
"| 	c #E1E1E1",
"1 	c #CECECE",
"2 	c #E5E5E5",
"3 	c #EBEDEC",
"4 	c #E5E7E6",
"5 	c #DDE0DE",
"6 	c #D3D7D3",
"7 	c #EAEAEA",
"8 	c #D6D6D6",
"9 	c #D7D7D7",
"0 	c #CBCFCC",
"a 	c #CCD0CD",
"b 	c #DADADA",
"c 	c #E4E4E4",
"d 	c #ECECEC",
"e 	c #F6F6F6",
"f 	c #C8C8C8",
"g 	c #C4C8C4",
"h 	c #C9CDCA",
"i 	c #CDD2CE",
"j 	c #F3F4F3",
"k 	c #D0D0D0",
"l 	c #D3D3D3",
"m 	c #D1D1D1",
"n 	c #B6B9B6",
"o 	c #C0C4C1",
"p 	c #CACECA",
"q 	c #DCDFDD",
"r 	c #D9D9D9",
"s 	c #DEDEDE",
"t 	c #D2D2D2",
"u 	c #DBDBDB",
"v 	c #E0E0E0",
"w 	c #A8AAA9",
"x 	c #C4C8C5",
"y 	c #CBD0CC",
"z 	c #F2F3F2",
"A 	c #EFEFEF",
"B 	c #EDEDED",
"C 	c #DFDFDF",
"D 	c #E9E9E9",
"E 	c #EEEEEE",
"F 	c #D8D8D8",
"G 	c #E6E6E6",
"H 	c #ADAFAE",
"I 	c #BDC1BE",
"J 	c #C9CECA",
"K 	c #F8F8F8",
"L 	c #F5F5F5",
"M 	c #F0F0F0",
"N 	c #EBEBEB",
"O 	c #F3F3F3",
"P 	c #E8E8E8",
"Q 	c #E3E3E3",
"R 	c #B8BBB9",
"S 	c #C5C9C6",
"T 	c #FBFBFB",
"U 	c #FCFCFC",
"V 	c #F9F9F9",
"W 	c #F4F4F4",
"X 	c #FAFAFA",
"Y 	c #BCBFBC",
"Z 	c #FEFEFE",
"` 	c #CCCCCC",
" .	c #BABDBB",
"..	c #C5C9C5",
"+.	c #ACAFAD",
"@.	c #B8BBB8",
"#.	c #A0A1A0",
"$.	c #C7C7C7",
"%.	c #989898",
"&.	c #9E9F9E",
"*.	c #CDCDCD",
"=.	c #959595",
"-.	c #E7E7E7",
";.	c #CBCBCB",
">.	c #949594",
",.	c #979897",
"'.	c #D0D4D1",
").	c #ACAEAC",
"!.	c #B3B3B3",
"~.	c #949494",
"{.	c #969696",
"].	c #989998",
"^.	c #9B9B9B",
"/.	c #A1A2A1",
"(.	c #ABADAC",
"_.	c #BABDBA",
":.	c #BFC2BF",
"<.	c #ADADAD",
"[.	c #D2D2C5",
"}.	c #D6D6BE",
"|.	c #D6D6C3",
"1.	c #D6D6C0",
"2.	c #D3D3C6",
"3.	c #9D9E9E",
"4.	c #A2A3A2",
"5.	c #A6A7A6",
"6.	c #AFB1AF",
"7.	c #C7CBC8",
"8.	c #BBBFBC",
"9.	c #AFB2B0",
"0.	c #A5A7A6",
"a.	c #BDBDBD",
"b.	c #D4D4C0",
"c.	c #D6D6BC",
"d.	c #D3D3C2",
"e.	c #D3D3C1",
"f.	c #D1D1C6",
"g.	c #A4A5A4",
"h.	c #B4B7B5",
"i.	c #B8BCB9",
"j.	c #C6CAC7",
"k.	c #BEC2BF",
"l.	c #B6B9B7",
"m.	c #AEB0AE",
"n.	c #ADAFAD",
"o.	c #B2B3B2",
"p.	c #C4C5C4",
"q.	c #C3C3C2",
"r.	c #D1D1C7",
"s.	c #D8D8B7",
"t.	c #D4D4BE",
"u.	c #D5D5BA",
"v.	c #D6D6B7",
"w.	c #CFCFC6",
"x.	c #CECECA",
"y.	c #C4C4C4",
"z.	c #A1A1A1",
"A.	c #9D9E9D",
"B.	c #B5B8B6",
"C.	c #BDC0BD",
"D.	c #C6CBC7",
"E.	c #CACECB",
"F.	c #CACAB6",
"G.	c #DADAB4",
"H.	c #D7D7B8",
"I.	c #D9D9B4",
"J.	c #D6D6B6",
"K.	c #D1D1C2",
"L.	c #D2D2C0",
"M.	c #D1D1B9",
"N.	c #C8C8C7",
"O.	c #D4D4BC",
"P.	c #B5B6B5",
"Q.	c #A4A6A5",
"R.	c #A3A4A3",
"S.	c #999A99",
"T.	c #999999",
"U.	c #9C9D9C",
"V.	c #A2A4A3",
"W.	c #B5B8B5",
"X.	c #C1C5C2",
"Y.	c #BFC3C0",
"Z.	c #C4C7BE",
"`.	c #DCDCAC",
" +	c #DEDEAA",
".+	c #DDDDB0",
"++	c #DCDCB1",
"@+	c #E1E1AA",
"#+	c #DDDDAD",
"$+	c #E1E1AB",
"%+	c #D1D1C3",
"&+	c #D2D2C1",
"*+	c #BBBEBC",
"=+	c #B3B6B4",
"-+	c #A9ABA9",
";+	c #A7A8A7",
">+	c #A7A9A7",
",+	c #A8AAA8",
"'+	c #ACAEAD",
")+	c #C3C7C4",
"!+	c #C8CDC9",
"~+	c #C3C8C4",
"{+	c #E2E2A9",
"]+	c #DCDDAB",
"^+	c #F4F499",
"/+	c #F3F397",
"(+	c #F3F390",
"_+	c #F3F389",
":+	c #F3F383",
"<+	c #F2F27C",
"[+	c #F2F275",
"}+	c #C7CCC8",
"|+	c #F3F393",
"1+	c #F3F38C",
"2+	c #F3F385",
"3+	c #F2F27E",
"4+	c #F2F277",
"5+	c #F2F270",
"6+	c #F0F05F",
"7+	c #C8CCC9",
"8+	c #F3F395",
"9+	c #F3F38E",
"0+	c #F3F387",
"a+	c #F2F280",
"b+	c #F2F279",
"c+	c #F2F273",
"d+	c #F2F26C",
"e+	c #F1F165",
"f+	c #F1F15E",
"g+	c #F2F26E",
"h+	c #F1F167",
"i+	c #F1F160",
"j+	c #F1F159",
"k+	c #F1F153",
"l+	c #F0F04C",
"m+	c #F1F169",
"n+	c #F1F163",
"o+	c #F1F15C",
"p+	c #F1F155",
"q+	c #F0F04E",
"r+	c #F0F047",
"s+	c #F0F040",
"t+	c #EFEF39",
"u+	c #F1F157",
"v+	c #F0F050",
"w+	c #F0F049",
"x+	c #F0F043",
"y+	c #F0F03C",
"z+	c #EFEF35",
"A+	c #EFEF2E",
"B+	c #F0F045",
"C+	c #F0F03E",
"D+	c #EFEF37",
"E+	c #EFEF30",
"F+	c #EFEF29",
"G+	c #EFEF23",
"H+	c #EFEF33",
"I+	c #EFEF2C",
"J+	c #EFEF25",
"K+	c #EFEF27",
"L+	c #EEEE4E",
"M+	c #EEEE43",
"N+	c #EDED38",
"O+	c #EDED40",
"P+	c #F3F396",
"                                                                                                ",
"                                            . + + @ # $ $                                       ",
"                  % . + + @ # $ $ $ & * = = - ; > > , ' ) !           ~ { = ] ^ $ $ $           ",
"                % + / ( _ _ : < [ } = = | 1 1 1 1 1 1 _ 2 3 4 5 6 $ + = 7 8 1 8 9 0 a ! $       ",
"                . / _ 1 1 1 1 1 b ( 9 1 1 _ _ _ _ _ _ _ 1 8 : c d e = _ 1 1 _ 1 1 f g h i $     ",
"            % j = ( 1 , 8 8 , k 1 1 1 _ l 8 8 8 8 8 8 8 k 1 1 1 1 1 1 1 m ; 8 ; 1 _ n o p i     ",
"        q + = / r 1 , s < < s r , , , 8 ( < < < < < < < r , , t m _ _ 8 u v < 8 _ 1 w n x y     ",
"      z = A _ 1 1 , s 7 B B 7 c C s C < D B E E E E E E c C s : b F 8 < G d 2 r m 1 ( H I J i   ",
"    K = u 1 1 k , s 7 L { { L M 7 7 N B O { { { { { { { M N 7 P 2 Q < B / e - 2 r m 1 8 R S a i ",
"  3 = , 1 m 8 r C 7 L T U U T V L W e { X U U U U U U U V e W O - A B { V U V - 2 r m 1 m Y S y ",
"  U b 1 _ 8 < c N L T Z Z Z Z U T T U U + Z Z Z Z Z Z Z U U T X V K { U + Z + T W D ( l 1 `  ...",
"  U > 1 _ 8 < E L T Z Z Z Z Z U U U U U U + Z Z Z Z Z = Z Z + + + U U Z Z U U { { B < 8 1 1 +.@.",
"  * > 1 _ 8 < E { U Z Z Z + U { { { { { K T + Z Z Z Z Z Z Z Z Z Z Z Z U U { e E E B < 8 1 1 #.w ",
"  i 9 1 _ 8 < E { V U U U T { E E E E E A W V U U U U Z Z Z Z Z Z U U { { E B < < < ( l 1 $.%.&.",
"    ) , 1 ; v N E / { { { W E < < < < < Q D O { { { V T U U U U U K { E E < | 8 8 8 , 1 *.=.%.&.",
"    y . 1 _ 8 C < G E E E D < 8 8 8 8 8 9 ( -.E E E M e { { { { { M E < < 8 8 _ _ _ 1 ;.>.,.#.w ",
"    i '.8 1 k , 8 u < < < ( 8 _ _ _ _ _ _ l u < < < c N E E E E E c < 8 8 _ 1 1 1 1 1 =.,.#.).@.",
"      y !.m 1 1 _ m 8 8 8 l _ 1 1 1 1 1 1 1 m 8 8 8 r C < < < < < F 8 _ _ 1 *.~.>.{.].^./.(._.g ",
"      i h :.<.1 1 1 _ _ _ k 1 1 1 1 1 [.}.|.1.2._ _ k , 8 8 8 8 8 k _ 1 1 ~.{.%.3.4.5.w 6. .S y ",
"        y 7.8.9.0.a.1 1 1 *.1 1 1 1 b.}.c.d.e.f.*.1 1 1 _ _ _ _ _ 1 1 ~.>.].3.g.).h.i.8.o j.! $ ",
"        $ y j.k.l.m.n.o.p.> p.q.r.c.s.t.u.v.w.x.*.y.f ` 1 1 1 1 1 z.>.].A.g.).B.C.g D.h E.! i   ",
"          i y h x :.i.i.i.i.i.F.G.H.I.J.K.K.L.M.N.O.P.Q.R.&.^.S.T.S.U.V.(.W.I ..p a i i $ $     ",
"            $ i y J D.X.Y.Y.X.Z.`. +.+++@+#+$+%+&+M.*+R =+n.-+;+>+,+'+h.C.)+!+a i $             ",
"                $ i ! y ~+j.x x {+]+^+^+^+/+(+_+:+<+[+}+)+Y.C.*+*+8.:.x !+y i $                 ",
"                      $ $ $ $ $   ^+^+^+^+|+1+2+3+4+5+6+y ) J !+!+7+E.a ! $                     ",
"                                      ^+8+9+0+a+b+c+d+e+f+$ i i i i $ $                         ",
"                                        (+_+:+<+[+g+h+i+j+k+l+                                  ",
"                                          2+3+4+5+m+n+o+p+q+r+s+t+                              ",
"                                            b+c+d+e+f+u+v+w+x+y+z+A+                            ",
"                                              g+h+i+j+k+l+B+C+D+E+F+G+F+                        ",
"                                  |+1+2+3+4+5+m+n+o+p+q+r+s+t+H+I+J+K+A+z+                      ",
"                                    0+a+b+c+d+e+f+u+v+w+                                        ",
"                                        [+g+h+i+j+k+l+B+C+                                      ",
"                                            n+o+p+q+r+s+t+H+I+                                  ",
"                                            L+u+v+w+x+y+z+A+K+J+I+                              ",
"                                                M+B+C+D+E+F+G+F+E+D+C+                          ",
"                                                    t+H+I+J+K+A+z+y+x+w+                        ",
"                                                      N+K+J+I+H+t+s+r+q+p+o+                    ",
"                                                          O+E+D+C+B+l+k+j+i+h+                  ",
"                                                                x+w+v+u+f+e+d+c+b+              ",
"                                                                    p+o+n+m+5+4+3+2+            ",
"                                                                        h+g+[+<+:+_+(+          ",
"                                                                            b+a+0+9+8+P+        ",
"                                                                                1+|+^+^+/+      ",
"                                                                                  /+^+^+^+^+    ",
"                                                                                      ^+^+^+^+  ",
"                                                                                          ^+^+^+",
"                                                                                                "};
