/* XPM */
static char * tstorm_xpm[] = {
"48 48 440 2",
"  	c None",
". 	c #111111",
"+ 	c #474747",
"@ 	c #3B3B3B",
"# 	c #000000",
"$ 	c #282828",
"% 	c #383838",
"& 	c #CCCCCC",
"* 	c #EEEEEE",
"= 	c #F4F4F4",
"- 	c #D4D4D4",
"; 	c #4B4B4B",
"> 	c #363736",
", 	c #1E1E1E",
"' 	c #616161",
") 	c #9B9B9B",
"! 	c #F5F5F5",
"~ 	c #F1F1F1",
"{ 	c #E2E2E2",
"] 	c #D7D7D7",
"^ 	c #F2F2F2",
"/ 	c #F7F7F7",
"( 	c #FAFAFA",
"_ 	c #515151",
": 	c #121212",
"< 	c #606160",
"[ 	c #A8A8A8",
"} 	c #ECECEC",
"| 	c #EFEFEF",
"1 	c #E3E3E3",
"2 	c #D9D9D9",
"3 	c #D7DBD8",
"4 	c #CED3CF",
"5 	c #B8BCB9",
"6 	c #3A3A3A",
"7 	c #989998",
"8 	c #707070",
"9 	c #6C6C6C",
"0 	c #535353",
"a 	c #4F4F4F",
"b 	c #494949",
"c 	c #373737",
"d 	c #151515",
"e 	c #6A6A6A",
"f 	c #434343",
"g 	c #8F908F",
"h 	c #F0F0F0",
"i 	c #E5E5E5",
"j 	c #D2D2D2",
"k 	c #C5C5C5",
"l 	c #C4C4C4",
"m 	c #CED1CE",
"n 	c #CDD1CE",
"o 	c #CDD2CE",
"p 	c #868686",
"q 	c #2E2E2E",
"r 	c #3C3C3C",
"s 	c #444444",
"t 	c #B6B6B6",
"u 	c #E6E6E6",
"v 	c #EBEBEB",
"w 	c #DFE0DF",
"x 	c #616261",
"y 	c #303030",
"z 	c #F3F3F3",
"A 	c #D8D8D8",
"B 	c #D1D1D1",
"C 	c #CECECE",
"D 	c #CFCFCF",
"E 	c #DEDEDE",
"F 	c #E0E1E0",
"G 	c #DFE1E0",
"H 	c #D2D6D3",
"I 	c #BDC1BD",
"J 	c #909291",
"K 	c #737474",
"L 	c #BFBFBF",
"M 	c #E7E7E7",
"N 	c #E8E8E8",
"O 	c #D5D5D5",
"P 	c #BDBDBD",
"Q 	c #777777",
"R 	c #595959",
"S 	c #6B6B6B",
"T 	c #BBBBBB",
"U 	c #DBDBDB",
"V 	c #DADADA",
"W 	c #4E4E4E",
"X 	c #7C7C7C",
"Y 	c #E1E1E1",
"Z 	c #D0D0D0",
"` 	c #D3D3D3",
" .	c #D2D4D2",
"..	c #C2C5C2",
"+.	c #F9F9F9",
"@.	c #CACACA",
"#.	c #858685",
"$.	c #525252",
"%.	c #555555",
"&.	c #F8F8F8",
"*.	c #E4E4E4",
"=.	c #DCDCDC",
"-.	c #CDCDCD",
";.	c #C7C7C7",
">.	c #BEBEBE",
",.	c #AEAEAE",
"'.	c #A5A5A5",
").	c #CCCDCC",
"!.	c #CBCCCB",
"~.	c #D6D6D6",
"{.	c #B7B9B7",
"].	c #858885",
"^.	c #404141",
"/.	c #4A4A4A",
"(.	c #A9A9A9",
"_.	c #DFDFDF",
":.	c #CBCBCB",
"<.	c #D0D1D0",
"[.	c #DADBDA",
"}.	c #E3E4E3",
"|.	c #E0E0E0",
"1.	c #C8C9C9",
"2.	c #C3C5C4",
"3.	c #A9ABAA",
"4.	c #ADAFAD",
"5.	c #787B79",
"6.	c #393A3A",
"7.	c #6D6D6D",
"8.	c #EDEDED",
"9.	c #DDDDDD",
"0.	c #AEB0AF",
"a.	c #ACAFAD",
"b.	c #696B6A",
"c.	c #050505",
"d.	c #313131",
"e.	c #B0B0B0",
"f.	c #E9E9E9",
"g.	c #C4C6C5",
"h.	c #B3B6B4",
"i.	c #A1A4A1",
"j.	c #373837",
"k.	c #636363",
"l.	c #C4C5C5",
"m.	c #B6B9B6",
"n.	c #808380",
"o.	c #555655",
"p.	c #C1C1C1",
"q.	c #C8C8C8",
"r.	c #BCBDBC",
"s.	c #AFB1AF",
"t.	c #7B7D7B",
"u.	c #1B1B1B",
"v.	c #202120",
"w.	c #C9C9C9",
"x.	c #B9BAB9",
"y.	c #ACADAC",
"z.	c #A2A4A3",
"A.	c #222322",
"B.	c #010101",
"C.	c #D9DAD9",
"D.	c #A7A7A7",
"E.	c #989A99",
"F.	c #0A0B0B",
"G.	c #D7D8D7",
"H.	c #CFD0CF",
"I.	c #D5D6D5",
"J.	c #B7B7B7",
"K.	c #ADADAD",
"L.	c #9B9C9C",
"M.	c #979797",
"N.	c #D4D5D4",
"O.	c #DEDEDD",
"P.	c #DADAD9",
"Q.	c #C6C6C6",
"R.	c #B1B2B1",
"S.	c #C2C2C2",
"T.	c #BCBCBC",
"U.	c #9F9F9F",
"V.	c #989898",
"W.	c #969696",
"X.	c #999A99",
"Y.	c #D8D8D7",
"Z.	c #D9D9D8",
"`.	c #C1C2C2",
" +	c #A9AAA9",
".+	c #B8B8B8",
"++	c #B5B5B5",
"@+	c #ADAEAD",
"#+	c #A6A7A6",
"$+	c #A1A2A1",
"%+	c #939493",
"&+	c #A1A4A2",
"*+	c #CDCECE",
"=+	c #C7C8C7",
"-+	c #D8D9D8",
";+	c #D7D7D6",
">+	c #D5D5D4",
",+	c #D6D6D5",
"'+	c #B5B6B6",
")+	c #B4B4B4",
"!+	c #A5A6A5",
"~+	c #B1B1B1",
"{+	c #A5A6A6",
"]+	c #9E9F9E",
"^+	c #9EA09E",
"/+	c #9FA09F",
"(+	c #ACAEAC",
"_+	c #848684",
":+	c #030303",
"<+	c #C0C1C0",
"[+	c #C5C6C4",
"}+	c #C9CAC9",
"|+	c #D1D2D1",
"1+	c #DBDCDB",
"2+	c #CFCFCE",
"3+	c #B3B4B4",
"4+	c #ABABAB",
"5+	c #A2A2A2",
"6+	c #A3A4A3",
"7+	c #9D9E9D",
"8+	c #9FA19F",
"9+	c #AAACAB",
"0+	c #AEB1AF",
"a+	c #5D5F5D",
"b+	c #959996",
"c+	c #525452",
"d+	c #AFB0AF",
"e+	c #C0C2C0",
"f+	c #CECFCE",
"g+	c #C6C7C6",
"h+	c #BDBEBB",
"i+	c #C1C2C0",
"j+	c #D2D3D2",
"k+	c #DDDEDD",
"l+	c #D4D4D3",
"m+	c #D0D1CF",
"n+	c #CCCCCB",
"o+	c #B9B9B9",
"p+	c #ACADAD",
"q+	c #A0A1A1",
"r+	c #A4A5A4",
"s+	c #A0A1A0",
"t+	c #A2A3A2",
"u+	c #A8ABA8",
"v+	c #B6B8B6",
"w+	c #8F9290",
"x+	c #616462",
"y+	c #1F201F",
"z+	c #868987",
"A+	c #B2B5B2",
"B+	c #BABABA",
"C+	c #CECFCF",
"D+	c #D6D7D6",
"E+	c #C2C3C2",
"F+	c #B5B6B3",
"G+	c #C8CAC7",
"H+	c #D3D4D3",
"I+	c #CBCBCA",
"J+	c #C6C6C5",
"K+	c #AAABAA",
"L+	c #A7A8A7",
"M+	c #A0A0A0",
"N+	c #AFB2AF",
"O+	c #BBBEBC",
"P+	c #9FA2A0",
"Q+	c #626562",
"R+	c #404241",
"S+	c #6D706E",
"T+	c #9C9F9D",
"U+	c #A8ABA9",
"V+	c #B0B3B1",
"W+	c #B1B3B2",
"X+	c #B2B2B2",
"Y+	c #BBBDBC",
"Z+	c #B9BABA",
"`+	c #C3C3C3",
" @	c #BFC0BF",
".@	c #B8BAB8",
"+@	c #AFB0AD",
"@@	c #C4C6C3",
"#@	c #D1D2D0",
"$@	c #D0D0CF",
"%@	c #C9C9C8",
"&@	c #C3C3C2",
"*@	c #B3B3B3",
"=@	c #9B9C9B",
"-@	c #9E9E9E",
";@	c #A7A9A8",
">@	c #B3B6B3",
",@	c #B9BDBA",
"'@	c #AFB3B0",
")@	c #282929",
"!@	c #727573",
"~@	c #8E928F",
"{@	c #A6A9A7",
"]@	c #A6A8A6",
"^@	c #A4A7A5",
"/@	c #9B9E9C",
"(@	c #969896",
"_@	c #959795",
":@	c #A5A7A5",
"<@	c #A7A9A5",
"[@	c #A1A49F",
"}@	c #B1B4B0",
"|@	c #BABDB9",
"1@	c #B1B2AF",
"2@	c #B9BAB8",
"3@	c #BDBEBC",
"4@	c #B4B5B3",
"5@	c #ACADAB",
"6@	c #9D9D9D",
"7@	c #9C9D9C",
"8@	c #A0A2A0",
"9@	c #A8AAA9",
"0@	c #ABADAB",
"a@	c #ADB0AD",
"b@	c #B4B7B4",
"c@	c #BFC3C0",
"d@	c #A7ABA8",
"e@	c #494B49",
"f@	c #212121",
"g@	c #636663",
"h@	c #757876",
"i@	c #A5A9A6",
"j@	c #B0B4B1",
"k@	c #A9ACA9",
"l@	c #A1A3A1",
"m@	c #999C9A",
"n@	c #858886",
"o@	c #828582",
"p@	c #848784",
"q@	c #8E918D",
"r@	c #9EA19C",
"s@	c #A6A8A5",
"t@	c #A4A8A3",
"u@	c #A3A6A1",
"v@	c #A1A39F",
"w@	c #9EA09C",
"x@	c #9C9F9A",
"y@	c #9EA09B",
"z@	c #979A95",
"A@	c #91938E",
"B@	c #9A9D9B",
"C@	c #9A9C9B",
"D@	c #939594",
"E@	c #8D8F8D",
"F@	c #969A97",
"G@	c #A2A5A2",
"H@	c #A5A8A5",
"I@	c #AAADAA",
"J@	c #B5B9B6",
"K@	c #C4C9C5",
"L@	c #1F1F1F",
"M@	c #1A1B1B",
"N@	c #6B6E6C",
"O@	c #999D9A",
"P@	c #9A9F9B",
"Q@	c #818482",
"R@	c #656866",
"S@	c #5E615F",
"T@	c #6C6F6D",
"U@	c #707371",
"V@	c #777B78",
"W@	c #818582",
"X@	c #919590",
"Y@	c #999D98",
"Z@	c #949792",
"`@	c #898C87",
" #	c #7A7E79",
".#	c #7F8279",
"+#	c #80847E",
"@#	c #7B7F78",
"##	c #82857F",
"$#	c #7F817F",
"%#	c #818381",
"&#	c #939694",
"*#	c #8F928F",
"=#	c #8B8E8B",
"-#	c #898D8A",
";#	c #999E9A",
">#	c #1B1C1B",
",#	c #0C0C0C",
"'#	c #171818",
")#	c #020302",
"!#	c #0B0C0B",
"~#	c #181918",
"{#	c #080909",
"]#	c #323218",
"^#	c #5C5C2A",
"/#	c #5F6034",
"(#	c #414328",
"_#	c #5E6046",
":#	c #464846",
"<#	c #232423",
"[#	c #292B29",
"}#	c #060706",
"|#	c #F2F277",
"1#	c #F2F270",
"2#	c #F1F169",
"3#	c #F1F163",
"4#	c #F1F15C",
"5#	c #F1F155",
"6#	c #EFEF4E",
"7#	c #ECEC49",
"8#	c #E7E744",
"9#	c #EFEF39",
"0#	c #F2F26C",
"a#	c #F1F165",
"b#	c #F1F15E",
"c#	c #F1F157",
"d#	c #F0F050",
"e#	c #F0F049",
"f#	c #F0F043",
"g#	c #F0F03C",
"h#	c #EFEF35",
"i#	c #EFEF2E",
"j#	c #F1F160",
"k#	c #F1F159",
"l#	c #F1F153",
"m#	c #F0F04C",
"n#	c #F0F045",
"o#	c #F0F03E",
"p#	c #EFEF37",
"q#	c #EFEF30",
"r#	c #EFEF29",
"s#	c #EFEF23",
"t#	c #F0F04E",
"u#	c #F0F047",
"v#	c #F0F040",
"w#	c #EFEF33",
"x#	c #EFEF2C",
"y#	c #EFEF25",
"z#	c #F2F279",
"A#	c #F2F273",
"B#	c #F2F26E",
"C#	c #F1F167",
"D#	c #EFEF27",
"E#	c #F2F275",
"F#	c #F2F280",
"G#	c #F3F393",
"                                            . + @ # #                                           ",
"                                        $ % & * = - ; > ,                                       ",
"                                      ' ) ! ! ~ { ] ^ / ( _ :                                   ",
"                                    < [ } ! | 1 2 3 4 4 4 4 5 6                                 ",
"                7 8 9 0 a b c d e f g ^ h / i j k - l m n o 4 4 6   p q r s @                   ",
"            < 0 t u v | h v u w x y { | z } A B C D B E F G H I J K L M N O P Q R c             ",
"          S T N h | u U - j D V O W X Y N ] B Z Z Z j ` - A  ...L M +.^ } ] C @.) #.$.          ",
"        %.Z &.+.| *.=.V ] j -.;.>.,.'.B V ] U ] ` j ` - B B ).!.i 1 { =.~.O - C D {.].^.        ",
"      /.(.z / | i E =._.V 2 j D :.j j ` ] U _.=.2 ] ] O ` <.[.}.N _._.|.|.U ` 1.2.3.4.5.6.      ",
"      7.u 8.} N 9.=.|.E V _.~.j O A 9.E =.{ Y 9._.E 2 O ] =.E 1 { _.1 u i |.- B C -.0.a.b.c.    ",
"    d.e.N v *._.=.9.E =.=.E U ] =.9.|.E _.i *.E Y =.2 A U E 1 { 1 1 i f.*.|.~.O Z -.g.h.i.j.    ",
"    k._.i i { 9.E |.E Y 1 Y 2 =.{ E _._.Y i 1 |._.9._.U E Y *.1 *.i N 1 E E U V j B :.l.m.n.:   ",
"  o.p.8.E Y Y E 1 Y _.u u Y U _.Y |._.|.E 1 |.Y _.|.*.E |.1 1 *.*.v u { A V =.A B D -.q.r.s.t.u.",
"  v.2 ~.A |.|.i i Y Y M M _._._.{ 1 _.E V Y 9.9.|.M u |.Y *.1 i { v { 9.- - - j B -.w.q.x.y.z.A.",
"  B.@.-.O 9.Y } i { i u *._._._.{ *._.U - E C.=.Y 8.*.1 { Y _._.E u E =.B B C w.& @.l >.t D.E.F.",
"  # '.C j E 1 } u 1 M *.Y Y 9._.i { 9.G.H.I.A _.{ * *.1 Y 1 { { V 9.=.2 w.-.k L L k L J.K.L.M.# ",
"  # :.:.` =.1 v 1 { i _._.|.9.|.u |.|.N.).~.U |.1 u 1 *.{ { 9.O.P.U 2 - Q.k T R.L S.T.K.U.V.W.# ",
"  # X.q.Z 2 *.N |.|.Y =.=.E 9.Y { E U <.).A A _.Y |.{ 1 Y Y V A Y.Z.~.Z `.T.R. +.+++@+#+X.$+%+# ",
"  # &+w.*+` |.{ =.|.9.V 9.9.E Y |.V O =+).N.-+Y 1 U |.{ 9.Y ;+>+,+~.` ;.'+)+'.!+~+{+]+^+/+(+_+:+",
"  # _+<+:.;.=.A - 2 A =.|.] |.9.A ] B [+}+).|+Y _.U E _.A 1+Z 2+B - B S.3+4+5+6+{+/+7+8+9+0+a+b+",
"    c+d+e+K.j j Q.f+` ` O j E ] Z & g+h+i+!.j+O V =.k+2 l+m+n+@.-.` & o+p+q+/+r+s+/+t+u+v+w+x+  ",
"    y+z+0+A+B+T r.=+Q.@.:.C+2 D+B @.E+F+[+G+H+C.2 2 -+H.I+J+;.q.;.Q.P K+L+M+s+t+r+#+N+O+P+Q+    ",
"      R+S+T+U+V+W+X+X+{.Y+Z+`+ @.@v+F++@@@G+#@|+|+j $@%@&@L  @.+*@4+=@U.-@$+K+;@K+>@,@'@q       ",
"        )@!@~@{@0+V+(+]@4.^@/@(@_@:@<@[@}@|@1@+@F+2@3@4@5@!+]+) M.6@=@7@8@9@0@a@b@c@d@e@        ",
"          f@g@h@i@j@j@k@l@m@n@o@p@q@r@s@t@u@v@w@x@y@z@A@B@m@C@D@E@F@8+l@G@H@I@'@J@K@%           ",
"            L@M@N@O@P@Q@R@S@S@T@U@V@W@X@Y@x@Z@`@ #.#+#@###n@$#t.%#&#*#=#$#W@-#;#>#B.            ",
"                :+,#y+'## # # )#!#~#{## # # # # # # ]#^#/#(#_#:#<## [#}## # # #                 ",
"                                  # # |#1#2#3#4#5#6#7#8#9## #                                   ",
"                                    # # 0#a#b#c#d#e#f#g#h#i## #                                 ",
"                                # # # # # j#k#l#m#n#o#p#q#r#s## #                               ",
"                          # # # # |#1#2#3#4#5#t#u#v#9#w#x#y## # #                               ",
"                            # # z#A#0#a#b#c#d#e## # # # # # #                                   ",
"                              # # B#C#j#k#l#m#n#o## #                                           ",
"                                # # # 4#5#t#u#v#9#w## #                                         ",
"                                    # # d#e#f#g#h#i#D## #                                       ",
"                                      # # n#o#p#q#r#s#r## #                                     ",
"                                        # # # w#x#y#D#i#h## # #                                 ",
"                                            # # # y#x#w#9#v#u## #                               ",
"                                                # # # p#o#n#m#l## #                             ",
"                                                    # # # e#d#c#b## #                           ",
"                                                        # # # 4#3#2## #                         ",
"                                                            # # # B#E## #                       ",
"                                                                # # # F## #                     ",
"                                                                    # # # G##                   ",
"                                                                        # # # # #               ",
"                                                                            # # # #             ",
"                                                                                # # #           ",
"                                                                                                "};
