/* XPM */
static char * tstorm_mini_xpm[] = {
"16 16 97 2",
"  	c None",
". 	c #E2E4E3",
"+ 	c #D6D9D7",
"@ 	c #CCD0CC",
"# 	c #DEE1DE",
"$ 	c #DFDFDF",
"% 	c #D2D2D2",
"& 	c #DBDBDB",
"* 	c #DCDCDC",
"= 	c #D1D1D1",
"- 	c #D6D6D6",
"; 	c #DADBDA",
"> 	c #E2E3E2",
", 	c #D4D4D4",
"' 	c #CFD0CF",
") 	c #C7CBC7",
"! 	c #E8E9E9",
"~ 	c #D9D9D9",
"{ 	c #EBEBEB",
"] 	c #E0E0E0",
"^ 	c #E3E3E3",
"/ 	c #ECECEC",
"( 	c #EDEDED",
"_ 	c #E5E5E5",
": 	c #E8E8E8",
"< 	c #C0C2C1",
"[ 	c #CCD0CD",
"} 	c #E1E3E2",
"| 	c #E4E4E4",
"1 	c #F8F8F8",
"2 	c #FDFDFD",
"3 	c #F9F9F9",
"4 	c #FAFAFA",
"5 	c #FCFCFC",
"6 	c #F7F7F7",
"7 	c #EEEEEE",
"8 	c #C1C3C1",
"9 	c #D0D4D1",
"0 	c #FBFBFB",
"a 	c #EFEFEF",
"b 	c #E1E1E1",
"c 	c #D3D3D3",
"d 	c #A6A7A7",
"e 	c #D0D1D0",
"f 	c #DDDDDD",
"g 	c #E2E2E2",
"h 	c #BBBBBB",
"i 	c #AAAAAA",
"j 	c #ACAEAC",
"k 	c #CACECB",
"l 	c #BABDBB",
"m 	c #C8C9BE",
"n 	c #DEDEB5",
"o 	c #F4F499",
"p 	c #E1E199",
"q 	c #BFC0BF",
"r 	c #C0C0C0",
"s 	c #D0D0D0",
"t 	c #B6B6B6",
"u 	c #A1A2A1",
"v 	c #B9BDBA",
"w 	c #C9CDCA",
"x 	c #CBD0CC",
"y 	c #CACEC1",
"z 	c #F3F398",
"A 	c #F3F38E",
"B 	c #D9DCA6",
"C 	c #BCC0BD",
"D 	c #B2B5B3",
"E 	c #A9ABA9",
"F 	c #ADB0AE",
"G 	c #C0C4C1",
"H 	c #EFEF9A",
"I 	c #F2F280",
"J 	c #F1F16A",
"K 	c #DDE099",
"L 	c #CDD2CE",
"M 	c #CCD1CD",
"N 	c #EEEE7C",
"O 	c #F1F15E",
"P 	c #F0F049",
"Q 	c #EBEC46",
"R 	c #EEEE82",
"S 	c #F1F164",
"T 	c #F0F050",
"U 	c #E8E96F",
"V 	c #EFEF42",
"W 	c #EFEF2E",
"X 	c #E0E375",
"Y 	c #EBEB3E",
"Z 	c #EFEF39",
"` 	c #ECED5C",
" .	c #E9EA75",
"..	c #F1F170",
"+.	c #E6E89D",
"@.	c #EFEF99",
"#.	c #E7E9AA",
"              . + @             ",
"    # $ % & * = = - ; > , ' )   ",
"  ! ~ $ { ] ^ / ( _ * & : , < [ ",
"} = | 1 2 3 4 2 2 5 1 6 5 7 , 8 ",
"9 = { 3 1 ( ( 6 0 2 2 3 a b c d ",
"  e , $ f = = & g / ( $ c h i j ",
"  k l m n o p q r s = t u j v w ",
"    x y o z A B C D E F G [     ",
"          H I J K L M M         ",
"            N O P Q             ",
"          R S T                 ",
"            U V W X             ",
"                Y Z `           ",
"                     ...+.      ",
"                        @.#.    ",
"                                "};
