/* XPM */
static char * tstorm_mini_xpm[] = {
"16 16 73 1",
" 	c None",
".	c #000000",
"+	c #D8DCD9",
"@	c #B5B9B6",
"#	c #BABDBB",
"$	c #E4E5E4",
"%	c #DBDBDB",
"&	c #CBCCCC",
"*	c #C5C6C5",
"=	c #DADCDA",
"-	c #030303",
";	c #C2C3C2",
">	c #AAAAAA",
",	c #A0A0A0",
"'	c #DADADA",
")	c #E0E0E0",
"!	c #D5D6D5",
"~	c #535353",
"{	c #DEDEDE",
"]	c #D1D1D1",
"^	c #D6D6D6",
"/	c #D3D4D3",
"(	c #D4D4D4",
"_	c #D3D3D3",
":	c #ABABAB",
"<	c #DCDCDC",
"[	c #E7E7E7",
"}	c #E3E3E3",
"|	c #C1C1C1",
"1	c #CECECE",
"2	c #E4E4E4",
"3	c #EDEDED",
"4	c #E6E6E6",
"5	c #CFCFCF",
"6	c #D8D9D8",
"7	c #D9D9D9",
"8	c #E8E8E8",
"9	c #CDCDCD",
"0	c #D0D0D0",
"a	c #DFDFDF",
"b	c #D8D8D8",
"c	c #CACACA",
"d	c #D1D2D1",
"e	c #CDCECD",
"f	c #D4D5D4",
"g	c #E1E1E1",
"h	c #CCCCCC",
"i	c #D7D7D7",
"j	c #BBBBBB",
"k	c #BFC0BF",
"l	c #BFBFBF",
"m	c #C7CBC8",
"n	c #C0C1C0",
"o	c #B3B4B3",
"p	c #BABABA",
"q	c #A0A1A1",
"r	c #B8BAB8",
"s	c #B1B3B1",
"t	c #ABADAB",
"u	c #C6CAC7",
"v	c #B7BAB7",
"w	c #B0B2B0",
"x	c #A5A6A5",
"y	c #A9ABA9",
"z	c #C0C4C1",
"A	c #C2C3C3",
"B	c #888989",
"C	c #757676",
"D	c #999A99",
"E	c #B5B8B6",
"F	c #BDC1BD",
"G	c #EFEF32",
"H	c #EFEF34",
"       ...      ",
"      .+@#.     ",
"  ....$%&*=-..  ",
" .;>,-')!)~'{]. ",
".^/(_:<[}|12345.",
".]67890abcd]e2^.",
".f'7g'hi(jjeklj.",
".mn90loh9pqkrst.",
" .uvwxyzABCDEF. ",
"  .......-....  ",
"      .GG.      ",
"       .GH.     ",
"      .GG.      ",
"       .GG.     ",
"        ..G.    ",
"          ..    "};
