/* XPM */
static char * unknown_mini_xpm[] = {
"16 16 55 1",
" 	c None",
".	c #CFD4D0",
"+	c #D6DAD7",
"@	c #DDE0DD",
"#	c #D6D7D6",
"$	c #7B7B7B",
"%	c #616161",
"&	c #878887",
"*	c #C2C7C3",
"=	c #D3D7D3",
"-	c #797979",
";	c #4A4A4A",
">	c #6E706F",
",	c #9C9E9C",
"'	c #454545",
")	c #606160",
"!	c #C0C5C1",
"~	c #969997",
"{	c #565756",
"]	c #B5BAB6",
"^	c #D3D8D4",
"/	c #727272",
"(	c #424242",
"_	c #999C99",
":	c #CED3CF",
"<	c #C8CDC9",
"[	c #E0E3E1",
"}	c #5E5E5E",
"|	c #474747",
"1	c #848885",
"2	c #D0D5D1",
"3	c #E1E4E1",
"4	c #9C9C9C",
"5	c #484948",
"6	c #B6BAB7",
"7	c #DFE2DF",
"8	c #5C5C5C",
"9	c #474847",
"0	c #555755",
"a	c #A5A9A6",
"b	c #727572",
"c	c #C9CECA",
"d	c #D4D8D5",
"e	c #A1A2A1",
"f	c #A8ACA9",
"g	c #C2C2C2",
"h	c #4D4D4D",
"i	c #878A87",
"j	c #CCD1CD",
"k	c #9EA09E",
"l	c #454645",
"m	c #C5CAC6",
"n	c #CACFCB",
"o	c #929593",
"p	c #939794",
"................",
"................",
"......+@+.......",
".....#$%%&*.....",
"....=-;>,')!....",
".....~{]^/(_....",
".....:<:[}|1....",
"......234(56....",
"......7890a:....",
"......@(bc......",
"......def.......",
"......ghij......",
"......k(lm......",
"......nop:......",
"................",
"................"};
