/* XPM */
static char * unknown_xpm[] = {
"48 48 152 2",
"  	c None",
". 	c #CFD4D0",
"+ 	c #D9DDDA",
"@ 	c #E9EBE9",
"# 	c #EFF0EF",
"$ 	c #F9FAF9",
"% 	c #FFFFFF",
"& 	c #F4F5F4",
"* 	c #DFE2DF",
"= 	c #BBBBBB",
"- 	c #A2A2A2",
"; 	c #656665",
"> 	c #424242",
", 	c #858585",
"' 	c #A1A1A1",
") 	c #B9BAB9",
"! 	c #E5E6E5",
"~ 	c #CED3CF",
"{ 	c #E1E2E1",
"] 	c #C8C9C8",
"^ 	c #C2C7C3",
"/ 	c #CDD2CE",
"( 	c #D4D8D5",
"_ 	c #6B6B6B",
": 	c #767776",
"< 	c #797979",
"[ 	c #929392",
"} 	c #B2B6B3",
"| 	c #CBD0CC",
"1 	c #F9F9F9",
"2 	c #343635",
"3 	c #565857",
"4 	c #606260",
"5 	c #8D8D8D",
"6 	c #858685",
"7 	c #ABAFAC",
"8 	c #CACFCB",
"9 	c #5A5B5A",
"0 	c #191A1A",
"a 	c #7A7D7B",
"b 	c #B4B8B5",
"c 	c #959896",
"d 	c #979797",
"e 	c #7F817F",
"f 	c #E0E1E0",
"g 	c #747574",
"h 	c #363736",
"i 	c #AAAEAB",
"j 	c #C8CDC9",
"k 	c #D9DAD9",
"l 	c #646564",
"m 	c #6E6E6E",
"n 	c #7E817F",
"o 	c #BDC1BE",
"p 	c #525352",
"q 	c #616361",
"r 	c #BCC0BD",
"s 	c #DBDFDC",
"t 	c #B7B8B7",
"u 	c #5C5E5D",
"v 	c #B3B7B4",
"w 	c #9DA09E",
"x 	c #777877",
"y 	c #757575",
"z 	c #757675",
"A 	c #272827",
"B 	c #8E928F",
"C 	c #C6CBC7",
"D 	c #DFE0DF",
"E 	c #6E6F6E",
"F 	c #9CA09D",
"G 	c #C4C9C5",
"H 	c #989C99",
"I 	c #5E605E",
"J 	c #545654",
"K 	c #707270",
"L 	c #B8BCB9",
"M 	c #696B69",
"N 	c #848784",
"O 	c #BBC0BC",
"P 	c #B9BDB9",
"Q 	c #BFC4C0",
"R 	c #CCD1CD",
"S 	c #696A69",
"T 	c #7F8280",
"U 	c #C3C8C4",
"V 	c #868A87",
"W 	c #C5CAC6",
"X 	c #747474",
"Y 	c #292A29",
"Z 	c #A7ABA8",
"` 	c #A2A3A2",
" .	c #343434",
"..	c #B9BEBA",
"+.	c #636463",
"@.	c #2C2D2C",
"#.	c #969A97",
"$.	c #252625",
"%.	c #BEC3BF",
"&.	c #4E4F4E",
"*.	c #282928",
"=.	c #797C7A",
"-.	c #707170",
";.	c #171817",
">.	c #3C3E3D",
",.	c #888B89",
"'.	c #505251",
").	c #1D1D1D",
"!.	c #393B39",
"~.	c #707371",
"{.	c #0E0E0E",
"].	c #4E504F",
"^.	c #8A8E8B",
"/.	c #ADB1AE",
"(.	c #C0C5C1",
"_.	c #1E1F1E",
":.	c #C6CAC7",
"<.	c #232423",
"[.	c #ACB1AD",
"}.	c #818181",
"|.	c #777777",
"1.	c #2D2E2D",
"2.	c #AEB2AF",
"3.	c #BABFBB",
"4.	c #666866",
"5.	c #515352",
"6.	c #F7F7F7",
"7.	c #D7D9D8",
"8.	c #ADAFAD",
"9.	c #878987",
"0.	c #B5B9B5",
"a.	c #737673",
"b.	c #E4E7E4",
"c.	c #3B3C3B",
"d.	c #C7C8C7",
"e.	c #6A6B6A",
"f.	c #2B2C2C",
"g.	c #AFB3B0",
"h.	c #C1C5C2",
"i.	c #5F605F",
"j.	c #343534",
"k.	c #4D4E4D",
"l.	c #B7BBB8",
"m.	c #7D7F7D",
"n.	c #393A3A",
"o.	c #3E403E",
"p.	c #999D9A",
"q.	c #767977",
"r.	c #595B59",
"s.	c #696C6A",
"t.	c #9EA29F",
"u.	c #C9CECA",
". . . . . . . . . . . . . . . . . . . . . . . . . . . . . . . . . . . . . . . . . . . . . . . . ",
". . . . . . . . . . . . . . . . . . . . . . . . . . . . . . . . . . . . . . . . . . . . . . . . ",
". . . . . . . . . . . . . . . . . . . . . . . . . . . . . . . . . . . . . . . . . . . . . . . . ",
". . . . . . . . . . . . . . . . . . . . . . . . . . . . . . . . . . . . . . . . . . . . . . . . ",
". . . . . . . . . . . . . . . . . . . . . . . . . . . . . . . . . . . . . . . . . . . . . . . . ",
". . . . . . . . . . . . . . . . . . . . . . . . . . . . . . . . . . . . . . . . . . . . . . . . ",
". . . . . . . . . . . . . . . . . . . . . . . . . . . . . . . . . . . . . . . . . . . . . . . . ",
". . . . . . . . . . . . . . . . . . . . . . . . . . . . . . . . . . . . . . . . . . . . . . . . ",
". . . . . . . . . . . . . . . . . . + @ # $ % & # @ + . . . . . . . . . . . . . . . . . . . . . ",
". . . . . . . . . . . . . . . . * $ % # = - ; > , ' ) ! + ~ . . . . . . . . . . . . . . . . . . ",
". . . . . . . . . . . . . . . * % { ; > > > > > > > > > ; ] ^ / . . . . . . . . . . . . . . . . ",
". . . . . . . . . . . . . . ( % { > > > > _ : < > > > > > > [ } | . . . . . . . . . . . . . . . ",
". . . . . . . . . . . . . . * 1 > > > > > ; 2 3 4 5 > > > > > 6 7 8 . . . . . . . . . . . . . . ",
". . . . . . . . . . . . . . * { > > > > 9 0 a } b c d > > > > > e } / . . . . . . . . . . . . . ",
". . . . . . . . . . . . . . ( f > > > > g h i / . j k l > > > > m n ^ . . . . . . . . . . . . . ",
". . . . . . . . . . . . . . . o > > > > p q r . . . s t > > > > > u v ~ . . . . . . . . . . . . ",
". . . . . . . . . . . . . . . 8 w x y z A B C . . . * D > > > > > E F 8 . . . . . . . . . . . . ",
". . . . . . . . . . . . . . . . G H I J K L ~ . . . * f > > > > > M N G . . . . . . . . . . . . ",
". . . . . . . . . . . . . . . . . j O P Q R . . . . # f > > > > > S T U . . . . . . . . . . . . ",
". . . . . . . . . . . . . . . . . . . . . . . . . ( % - > > > > > 0 V W . . . . . . . . . . . . ",
". . . . . . . . . . . . . . . . . . . . . . . . . # 1 > > > > > X Y Z / . . . . . . . . . . . . ",
". . . . . . . . . . . . . . . . . . . . . . . . # % ` > > > > >  .3 ... . . . . . . . . . . . . ",
". . . . . . . . . . . . . . . . . . . . . . + & % ` > > > > > +.@.#.j . . . . . . . . . . . . . ",
". . . . . . . . . . . . . . . . . . . . + & % # 6 > > > > > +.$.a %.~ . . . . . . . . . . . . . ",
". . . . . . . . . . . . . . . . . . . . % # 6 > > > > > 9 &.*.=.../ . . . . . . . . . . . . . . ",
". . . . . . . . . . . . . . . . . . . . % > > > > > 9 -.;.>.,.o / . . . . . . . . . . . . . . . ",
". . . . . . . . . . . . . . . . . . . . % > > > g '.).!.~.i W ~ . . . . . . . . . . . . . . . . ",
". . . . . . . . . . . . . . . . . . . . % > > > {.].^./.(.R . . . . . . . . . . . . . . . . . . ",
". . . . . . . . . . . . . . . . . . . . % > > > _.F :.~ . . . . . . . . . . . . . . . . . . . . ",
". . . . . . . . . . . . . . . . . . . . # > > > <.[.. . . . . . . . . . . . . . . . . . . . . . ",
". . . . . . . . . . . . . . . . . . . . . }.|.y 1.2.. . . . . . . . . . . . . . . . . . . . . . ",
". . . . . . . . . . . . . . . . . . . . . 3.4.5.4.3.. . . . . . . . . . . . . . . . . . . . . . ",
". . . . . . . . . . . . . . . . . . . + & % 6.7.O | . . . . . . . . . . . . . . . . . . . . . . ",
". . . . . . . . . . . . . . . . . . ( % # 6 > ; 8.Q R . . . . . . . . . . . . . . . . . . . . . ",
". . . . . . . . . . . . . . . . . . @ 1 > > > > > 9.0.R . . . . . . . . . . . . . . . . . . . . ",
". . . . . . . . . . . . . . . . . . # = > > > > > 9 a.Q . . . . . . . . . . . . . . . . . . . . ",
". . . . . . . . . . . . . . . . . . b.- > > > > > > c.} . . . . . . . . . . . . . . . . . . . . ",
". . . . . . . . . . . . . . . . . . . d.> > > > > e.f.g.. . . . . . . . . . . . . . . . . . . . ",
". . . . . . . . . . . . . . . . . . . h.i.> > > 9 j.k.l.. . . . . . . . . . . . . . . . . . . . ",
". . . . . . . . . . . . . . . . . . . R 7 m.z z n.o.p.j . . . . . . . . . . . . . . . . . . . . ",
". . . . . . . . . . . . . . . . . . . . 8 7 q.r.s.t.W . . . . . . . . . . . . . . . . . . . . . ",
". . . . . . . . . . . . . . . . . . . . . R h.3.%.u.. . . . . . . . . . . . . . . . . . . . . . ",
". . . . . . . . . . . . . . . . . . . . . . . . . . . . . . . . . . . . . . . . . . . . . . . . ",
". . . . . . . . . . . . . . . . . . . . . . . . . . . . . . . . . . . . . . . . . . . . . . . . ",
". . . . . . . . . . . . . . . . . . . . . . . . . . . . . . . . . . . . . . . . . . . . . . . . ",
". . . . . . . . . . . . . . . . . . . . . . . . . . . . . . . . . . . . . . . . . . . . . . . . ",
". . . . . . . . . . . . . . . . . . . . . . . . . . . . . . . . . . . . . . . . . . . . . . . . ",
". . . . . . . . . . . . . . . . . . . . . . . . . . . . . . . . . . . . . . . . . . . . . . . . "};
