/* XPM */
static char * unknown_xpm[] = {
"48 48 130 2",
"  	c None",
". 	c #D9DDDA",
"+ 	c #E9EBE9",
"@ 	c #EFF0EF",
"# 	c #F9FAF9",
"$ 	c #FFFFFF",
"% 	c #F4F5F4",
"& 	c #BBBBBB",
"* 	c #A2A2A2",
"= 	c #656665",
"- 	c #424242",
"; 	c #858585",
"> 	c #A1A1A1",
", 	c #B9BAB9",
"' 	c #E5E6E5",
") 	c #CED3CF",
"! 	c #E1E2E1",
"~ 	c #C8C9C8",
"{ 	c #C2C7C3",
"] 	c #6B6B6B",
"^ 	c #767776",
"/ 	c #797979",
"( 	c #929392",
"_ 	c #B2B6B3",
": 	c #DFE2DF",
"< 	c #F9F9F9",
"[ 	c #343635",
"} 	c #565857",
"| 	c #606260",
"1 	c #8D8D8D",
"2 	c #858685",
"3 	c #ABAFAC",
"4 	c #5A5B5A",
"5 	c #191A1A",
"6 	c #7A7D7B",
"7 	c #B4B8B5",
"8 	c #959896",
"9 	c #979797",
"0 	c #7F817F",
"a 	c #E0E1E0",
"b 	c #747574",
"c 	c #363736",
"d 	c #AAAEAB",
"e 	c #646564",
"f 	c #6E6E6E",
"g 	c #7E817F",
"h 	c #BDC1BE",
"i 	c #525352",
"j 	c #616361",
"k 	c #BCC0BD",
"l 	c #B7B8B7",
"m 	c #5C5E5D",
"n 	c #B3B7B4",
"o 	c #9DA09E",
"p 	c #777877",
"q 	c #757575",
"r 	c #757675",
"s 	c #272827",
"t 	c #8E928F",
"u 	c #6E6F6E",
"v 	c #9CA09D",
"w 	c #989C99",
"x 	c #5E605E",
"y 	c #545654",
"z 	c #707270",
"A 	c #B8BCB9",
"B 	c #696B69",
"C 	c #848784",
"D 	c #BBC0BC",
"E 	c #B9BDB9",
"F 	c #696A69",
"G 	c #7F8280",
"H 	c #868A87",
"I 	c #747474",
"J 	c #292A29",
"K 	c #A7ABA8",
"L 	c #A2A3A2",
"M 	c #343434",
"N 	c #B9BEBA",
"O 	c #636463",
"P 	c #2C2D2C",
"Q 	c #969A97",
"R 	c #252625",
"S 	c #4E4F4E",
"T 	c #282928",
"U 	c #797C7A",
"V 	c #707170",
"W 	c #171817",
"X 	c #3C3E3D",
"Y 	c #888B89",
"Z 	c #505251",
"` 	c #1D1D1D",
" .	c #393B39",
"..	c #707371",
"+.	c #0E0E0E",
"@.	c #4E504F",
"#.	c #8A8E8B",
"$.	c #ADB1AE",
"%.	c #1E1F1E",
"&.	c #232423",
"*.	c #ACB1AD",
"=.	c #818181",
"-.	c #777777",
";.	c #2D2E2D",
">.	c #AEB2AF",
",.	c #BABFBB",
"'.	c #666866",
").	c #515352",
"!.	c #F7F7F7",
"~.	c #ADAFAD",
"{.	c #878987",
"].	c #B5B9B5",
"^.	c #737673",
"/.	c #E4E7E4",
"(.	c #3B3C3B",
"_.	c #6A6B6A",
":.	c #2B2C2C",
"<.	c #AFB3B0",
"[.	c #5F605F",
"}.	c #343534",
"|.	c #4D4E4D",
"1.	c #B7BBB8",
"2.	c #7D7F7D",
"3.	c #393A3A",
"4.	c #3E403E",
"5.	c #999D9A",
"6.	c #767977",
"7.	c #595B59",
"8.	c #696C6A",
"9.	c #9EA29F",
"                                                                                                ",
"                                                                                                ",
"                                                                                                ",
"                                                                                                ",
"                                                                                                ",
"                                                                                                ",
"                                                                                                ",
"                                                                                                ",
"                                    . + @ # $ % @ + .                                           ",
"                                  # $ @ & * = - ; > , ' . )                                     ",
"                                $ ! = - - - - - - - - - = ~ {                                   ",
"                              $ ! - - - - ] ^ / - - - - - - ( _                                 ",
"                            : < - - - - - = [ } | 1 - - - - - 2 3                               ",
"                            : ! - - - - 4 5 6 _ 7 8 9 - - - - - 0 _                             ",
"                              a - - - - b c d         e - - - - f g                             ",
"                              h - - - - i j k         l - - - - - m n                           ",
"                                o p q r s t             - - - - - u v                           ",
"                                  w x y z A             - - - - - B C                           ",
"                                    D E             @   - - - - - F G                           ",
"                                                    $ * - - - - - 5 H                           ",
"                                                  @ < - - - - - I J K                           ",
"                                                @ $ L - - - - - M } N                           ",
"                                              % $ L - - - - - O P Q                             ",
"                                          % $ @ 2 - - - - - O R 6                               ",
"                                        $ @ 2 - - - - - 4 S T U N                               ",
"                                        $ - - - - - 4 V W X Y h                                 ",
"                                        $ - - - b Z `  ...d                                     ",
"                                        $ - - - +.@.#.$.                                        ",
"                                        $ - - - %.v                                             ",
"                                        @ - - - &.*.                                            ",
"                                          =.-.q ;.>.                                            ",
"                                          ,.'.).'.,.                                            ",
"                                        % $ !.  D                                               ",
"                                      $ @ 2 - = ~.                                              ",
"                                    + < - - - - - {.].                                          ",
"                                    @ & - - - - - 4 ^.                                          ",
"                                    /.* - - - - - - (._                                         ",
"                                        - - - - - _.:.<.                                        ",
"                                        [.- - - 4 }.|.1.                                        ",
"                                        3 2.r r 3.4.5.                                          ",
"                                          3 6.7.8.9.                                            ",
"                                              ,.                                                ",
"                                                                                                ",
"                                                                                                ",
"                                                                                                ",
"                                                                                                ",
"                                                                                                ",
"                                                                                                "};
