/* XPM */
static char *magick[] = {
/* columns rows colors chars-per-pixel */
"11 10 2 1",
". c Black",
"  None",
"    .     .",
"   ..    ..",
"  ...   ...",
" ....  ....",
"..... .....",
"..... .....",
" ....  ....",
"  ...   ...",
"   ..    ..",
"    .     ."
};
