/* XPM */
static char *led[] = {
/* columns rows colors chars-per-pixel */
"122 11 2 1",
"   c Black",
".  c #1faf9f",
/* pixels */
"    ....        .     ....     ....    .    .     ....     ....    ....     ....     ....                                 ",
"   .    .       .         .        .   .    .    .        .            .   .    .   .    .                                ",
"   .    .       .         .        .   .    .    .        .            .   .    .   .    .                                ",
"  .    .       .         .        .   .    .    .        .            .   .    .   .    .   .                             ",
"  .    .       .         .        .   .    .    .        .            .   .    .   .    .   .                             ",
"                     ...      ...      ...       ...      ...              ...      ...          ........   ..            ",
" .    .       .    .             .        .         .   .    .       .   .    .        .                   .  .           ",
" .    .       .    .             .        .         .   .    .       .   .    .        .  .                .  .           ",
".    .       .    .             .        .         .   .    .       .   .    .        .   .                 ..            ",
".    .       .    .             .        .         .   .    .       .   .    .        .                                   ",
" ....        .     ....     ....         .     ....     ....        .    ....     ....                                    "
};
