/* XPM */
static char * bolt_xpm[] = {
"10 18 4 1",
" 	c None",
".	c #000000",
"+	c #F2FF00",
"@	c #000000",
/*"@	c #868780",*/
"   .......",
"  .++++++.",
"  .+++++@.",
" .+++++@. ",
" .++++@.  ",
"..+++@.   ",
".+++@.... ",
".+++++++. ",
"....+++@. ",
"  .+++@.  ",
"..+++@.   ",
".++@@.    ",
".+++++.   ",
"...++@.   ",
" .++@.    ",
".++@.     ",
".+@.      ",
"...       "};
