/* XPM */
static char * bolt_horiz_xpm[] = {
"18 10 4 1",
/* colors */
" 	c None",
"#	c #000000",
"a	c #f2ff00",
"b	c #000000",
/*"b	c #868780",*/
/* pixels */
"     #### #### ###",
"   ###aa# #aa##aa#",
" ##aaaaa##aaa#aab#",
"#aaaaaaa#aabaaab# ",
"#aaaaabaaaabaab#  ",
"#aaaab#aaab#ab#   ",
"#aaab##aab# ##    ",
"#aab# #ab#        ",
"#ab#  ###         ",
"###               "};
