/* XPM */
static char * month_el_xpm[] = {
"22 72 12 1",
" 	c None",
".	c #FFFFFF",
"+	c #C7C7C7",
"@	c #AAAAAA",
"#	c #E3E3E3",
"$	c #393939",
"%	c #000000",
"&	c #555555",
"*	c #1D1D1D",
"=	c #727272",
"-	c #8E8E8E",
";	c #262626",
"....+@@#..............",
"....$%&...............",
"....@%.#*%%=&&.$-.....",
"....&&.$&.%@@*+$......",
"....*-.%@@%.@%$+......",
"...%%%.&%*$..%&.......",
"......#@.......+&&#...",
"....+=$%=#....#%+&&...",
"...+%-*&*==%%=-*@$+...",
"...&&.%@$&*=+.&&-%+...",
"...@%$%$*@*@@#%@#%+...",
"....#$$@.+*%*@%*%=....",
"....#@#.+@...-*.......",
"....=%@#%*............",
"....$%=*%&#*%%=#$%$#..",
"....%&%=%@$&.%@&$.%@..",
"...@%@&@%#%@@%.%@@%#..",
"...=*..=*.&%*$+%*%@...",
".....#@#......-*......",
".....$%@..............",
"....+%*&.$%%%+@*%=....",
"....*=&&.%@@%.%-@%....",
"...-%%%$@%.&&@%.&$....",
"...%-.@%=$.*-=*%*#....",
"....#@#.+@..-;=.......",
"....=%@#%*..-+........",
"....$%=*%&#*%%=-%.....",
"....%&%=%@$&.%@&&.....",
"...@%@&@%#%@@%.%-.....",
"...=*..=*.&%*$+%+.....",
"...+@@#......&#.......",
"...$%&.......&........",
"...@%.#*%&.$=#%+%@#%#.",
"...&&.$=@%.%@@%.&==-..",
"...*-.%@=$@%#$&.&$*...",
"..%%%.&%*##*%$#.@%@...",
"..+@@#......&#..--....",
"..$%&.......&...=*....",
"..@%.#*%&.$=#%+.$%....",
"..&&.$=@%.%@@%.-&%+...",
"..*-.%@=$@%#$&#%#%@...",
".%%%.&%*##*%$#&-.&&...",
".....#@#...&#.........",
".....$%@...&..........",
"....+%*&.$=#%=%.+*#...",
"....*=&&.%@@%.%@$@....",
"...-%%%$@%#$&.%$&.....",
"...%-.@%#*%$#.&*#.....",
".....+@@@.....$=......",
".....%*&=.............",
".....-%+.=%%=-%%%=....",
".....#%@.*=+.&&.%@....",
"....#*@.+*@@#%@@%.....",
"....*%%%-*%*@%#=$.....",
"......#@+.............",
".....=*&*&............",
"....+%#.@%#%-$=%%%&...",
"....&&..-*@%%@..%@....",
"....&$.#*=&$*-.@%.....",
"....#$%*=.*=@%#=$.....",
".....#@#.@#.....+=....",
".....=%=#%@.....+-....",
".....$%*@%.&%*#=%%=...",
".....%@%*$-*.%@*=+....",
"....@%#&%=&&+%@*@@#...",
"....=*.@%@@%%@+*%*#...",
"......#@#.............",
"......$%@.............",
".....@$&&.=%%=-%@*+...",
".....*+&&.*=+.&%*#....",
"....-&.=$+*@@#%&%#....",
"....%%%%%+*%*@%+&$...."};
