/* XPM */
static char * second_xpm[] = {
"5 37 7 1",
" 	c None   ",
".	c #080C09",
"+	c #0C110D",
"@	c #060906",
"#	c #050806",
"$	c #060806",
"%	c #020202",
"  .  ",
"  .  ",
"  +  ",
"  +  ",
"  +  ",
"  +  ",
"  +  ",
"  +  ",
"  +  ",
"  +  ",
"  +  ",
"  +  ",
"  +  ",
"  +  ",
"  +  ",
"  +  ",
"  +  ",
"  +  ",
"  +  ",
"  +  ",
"  +  ",
"  +  ",
"  +  ",
"  +  ",
"  +  ",
"  +  ",
"  +  ",
"  +  ",
"  +  ",
"  +  ",
"  +  ",
"  +  ",
"  +  ",
"  +  ",
"  +  ",
"  +  ",
"  +  "};
